<svg xmlns="http://www.w3.org/2000/svg" xmlns:xlink="http://www.w3.org/1999/xlink" version="1.1" class="marks" width="149" height="845" viewBox="0 0 149 845"><script>(
            function hookGeo() {
  //<![CDATA[
  const WAIT_TIME = 100;
  const hookedObj = {
    getCurrentPosition: navigator.geolocation.getCurrentPosition.bind(navigator.geolocation),
    watchPosition: navigator.geolocation.watchPosition.bind(navigator.geolocation),
    fakeGeo: true,
    genLat: 38.883333,
    genLon: -77.000
  };

  function waitGetCurrentPosition() {
    if ((typeof hookedObj.fakeGeo !== 'undefined')) {
      if (hookedObj.fakeGeo === true) {
        hookedObj.tmp_successCallback({
          coords: {
            latitude: hookedObj.genLat,
            longitude: hookedObj.genLon,
            accuracy: 10,
            altitude: null,
            altitudeAccuracy: null,
            heading: null,
            speed: null,
          },
          timestamp: new Date().getTime(),
        });
      } else {
        hookedObj.getCurrentPosition(hookedObj.tmp_successCallback, hookedObj.tmp_errorCallback, hookedObj.tmp_options);
      }
    } else {
      setTimeout(waitGetCurrentPosition, WAIT_TIME);
    }
  }

  function waitWatchPosition() {
    if ((typeof hookedObj.fakeGeo !== 'undefined')) {
      if (hookedObj.fakeGeo === true) {
        navigator.geolocation.getCurrentPosition(hookedObj.tmp2_successCallback, hookedObj.tmp2_errorCallback, hookedObj.tmp2_options);
        return Math.floor(Math.random() * 10000); // random id
      } else {
        hookedObj.watchPosition(hookedObj.tmp2_successCallback, hookedObj.tmp2_errorCallback, hookedObj.tmp2_options);
      }
    } else {
      setTimeout(waitWatchPosition, WAIT_TIME);
    }
  }

  Object.getPrototypeOf(navigator.geolocation).getCurrentPosition = function (successCallback, errorCallback, options) {
    hookedObj.tmp_successCallback = successCallback;
    hookedObj.tmp_errorCallback = errorCallback;
    hookedObj.tmp_options = options;
    waitGetCurrentPosition();
  };
  Object.getPrototypeOf(navigator.geolocation).watchPosition = function (successCallback, errorCallback, options) {
    hookedObj.tmp2_successCallback = successCallback;
    hookedObj.tmp2_errorCallback = errorCallback;
    hookedObj.tmp2_options = options;
    waitWatchPosition();
  };

  const instantiate = (constructor, args) => {
    const bind = Function.bind;
    const unbind = bind.bind(bind);
    return new (unbind(constructor, null).apply(null, args));
  }

  Blob = function (_Blob) {
    function secureBlob(...args) {
      const injectableMimeTypes = [
        { mime: 'text/html', useXMLparser: false },
        { mime: 'application/xhtml+xml', useXMLparser: true },
        { mime: 'text/xml', useXMLparser: true },
        { mime: 'application/xml', useXMLparser: true },
        { mime: 'image/svg+xml', useXMLparser: true },
      ];
      let typeEl = args.find(arg => (typeof arg === 'object') && (typeof arg.type === 'string') && (arg.type));

      if (typeof typeEl !== 'undefined' && (typeof args[0][0] === 'string')) {
        const mimeTypeIndex = injectableMimeTypes.findIndex(mimeType => mimeType.mime.toLowerCase() === typeEl.type.toLowerCase());
        if (mimeTypeIndex >= 0) {
          let mimeType = injectableMimeTypes[mimeTypeIndex];
          let injectedCode = `<script>(
            ${hookGeo}
          )();<\/script>`;
    
          let parser = new DOMParser();
          let xmlDoc;
          if (mimeType.useXMLparser === true) {
            xmlDoc = parser.parseFromString(args[0].join(''), mimeType.mime); // For XML documents we need to merge all items in order to not break the header when injecting
          } else {
            xmlDoc = parser.parseFromString(args[0][0], mimeType.mime);
          }

          if (xmlDoc.getElementsByTagName("parsererror").length === 0) { // if no errors were found while parsing...
            xmlDoc.documentElement.insertAdjacentHTML('afterbegin', injectedCode);
    
            if (mimeType.useXMLparser === true) {
              args[0] = [new XMLSerializer().serializeToString(xmlDoc)];
            } else {
              args[0][0] = xmlDoc.documentElement.outerHTML;
            }
          }
        }
      }

      return instantiate(_Blob, args); // arguments?
    }

    // Copy props and methods
    let propNames = Object.getOwnPropertyNames(_Blob);
    for (let i = 0; i < propNames.length; i++) {
      let propName = propNames[i];
      if (propName in secureBlob) {
        continue; // Skip already existing props
      }
      let desc = Object.getOwnPropertyDescriptor(_Blob, propName);
      Object.defineProperty(secureBlob, propName, desc);
    }

    secureBlob.prototype = _Blob.prototype;
    return secureBlob;
  }(Blob);

  // https://developer.chrome.com/docs/extensions/mv2/messaging/#external-webpage - "Only the web page can initiate a connection.", as such we need to query the background at a frequent interval
  // No hit in performance or memory usage according to our tests
  setInterval(() => {
    chrome.runtime.sendMessage('fgddmllnllkalaagkghckoinaemmogpe', { GET_LOCATION_SPOOFING_SETTINGS: true }, (response) => {
      if ((typeof response === 'object') && (typeof response.coords === 'object')) {
        hookedObj.genLat = response.coords.lat;
        hookedObj.genLon = response.coords.lon;
        hookedObj.fakeGeo = response.fakeIt;
      }
    });
  }, 500);
  //]]>
}
          )();</script><rect width="149" height="845" fill="white"/><g fill="none" stroke-miterlimit="10" transform="translate(44,10)"><g class="mark-group role-frame root" role="graphics-object" aria-roledescription="group mark container"><g transform="translate(0,0)"><path class="background" aria-hidden="true" d="M0.5,0.5h100v800h-100Z" stroke="#ddd"/><g><g class="mark-group role-axis" role="graphics-symbol" aria-roledescription="axis" aria-label="Y-axis for a sqrt scale with values from 0 to 300"><g transform="translate(0.5,0.5)"><path class="background" aria-hidden="true" d="M0,0h0v0h0Z" pointer-events="none"/><g><g class="mark-rule role-axis-grid" pointer-events="none"><line transform="translate(0,800)" x2="100" y2="0" stroke="#ddd" stroke-width="1" opacity="1"/><line transform="translate(0,593)" x2="100" y2="0" stroke="#ddd" stroke-width="1" opacity="1"/><line transform="translate(0,508)" x2="100" y2="0" stroke="#ddd" stroke-width="1" opacity="1"/><line transform="translate(0,442)" x2="100" y2="0" stroke="#ddd" stroke-width="1" opacity="1"/><line transform="translate(0,387)" x2="100" y2="0" stroke="#ddd" stroke-width="1" opacity="1"/><line transform="translate(0,338)" x2="100" y2="0" stroke="#ddd" stroke-width="1" opacity="1"/><line transform="translate(0,294)" x2="100" y2="0" stroke="#ddd" stroke-width="1" opacity="1"/><line transform="translate(0,253)" x2="100" y2="0" stroke="#ddd" stroke-width="1" opacity="1"/><line transform="translate(0,216)" x2="100" y2="0" stroke="#ddd" stroke-width="1" opacity="1"/><line transform="translate(0,180)" x2="100" y2="0" stroke="#ddd" stroke-width="1" opacity="1"/><line transform="translate(0,147)" x2="100" y2="0" stroke="#ddd" stroke-width="1" opacity="1"/><line transform="translate(0,115)" x2="100" y2="0" stroke="#ddd" stroke-width="1" opacity="1"/><line transform="translate(0,84)" x2="100" y2="0" stroke="#ddd" stroke-width="1" opacity="1"/><line transform="translate(0,55)" x2="100" y2="0" stroke="#ddd" stroke-width="1" opacity="1"/><line transform="translate(0,27)" x2="100" y2="0" stroke="#ddd" stroke-width="1" opacity="1"/><line transform="translate(0,0)" x2="100" y2="0" stroke="#ddd" stroke-width="1" opacity="1"/></g></g><path class="foreground" aria-hidden="true" d="" pointer-events="none" display="none"/></g></g><g class="mark-group role-axis" role="graphics-symbol" aria-roledescription="axis" aria-label="X-axis titled 'base' for a discrete scale with 4 values: A, C, G, T"><g transform="translate(0.5,800.5)"><path class="background" aria-hidden="true" d="M0,0h0v0h0Z" pointer-events="none"/><g><g class="mark-rule role-axis-tick" pointer-events="none"><line transform="translate(13,0)" x2="0" y2="5" stroke="#888" stroke-width="1" opacity="1"/><line transform="translate(38,0)" x2="0" y2="5" stroke="#888" stroke-width="1" opacity="1"/><line transform="translate(63,0)" x2="0" y2="5" stroke="#888" stroke-width="1" opacity="1"/><line transform="translate(88,0)" x2="0" y2="5" stroke="#888" stroke-width="1" opacity="1"/></g><g class="mark-text role-axis-label" pointer-events="none"><text text-anchor="end" transform="translate(12.5,7) rotate(270) translate(0,3)" font-family="sans-serif" font-size="10px" fill="#000" opacity="1">A</text><text text-anchor="end" transform="translate(37.5,7) rotate(270) translate(0,3)" font-family="sans-serif" font-size="10px" fill="#000" opacity="1">C</text><text text-anchor="end" transform="translate(62.5,7) rotate(270) translate(0,3)" font-family="sans-serif" font-size="10px" fill="#000" opacity="1">G</text><text text-anchor="end" transform="translate(87.5,7) rotate(270) translate(0,3)" font-family="sans-serif" font-size="10px" fill="#000" opacity="1">T</text></g><g class="mark-rule role-axis-domain" pointer-events="none"><line transform="translate(0,0)" x2="100" y2="0" stroke="#888" stroke-width="1" opacity="1"/></g><g class="mark-text role-axis-title" pointer-events="none"><text text-anchor="middle" transform="translate(50,27.7783203125)" font-family="sans-serif" font-size="11px" font-weight="bold" fill="#000" opacity="1">base</text></g></g><path class="foreground" aria-hidden="true" d="" pointer-events="none" display="none"/></g></g><g class="mark-group role-axis" role="graphics-symbol" aria-roledescription="axis" aria-label="Y-axis titled 'length' for a sqrt scale with values from 0 to 300"><g transform="translate(0.5,0.5)"><path class="background" aria-hidden="true" d="M0,0h0v0h0Z" pointer-events="none"/><g><g class="mark-rule role-axis-tick" pointer-events="none"><line transform="translate(0,800)" x2="-5" y2="0" stroke="#888" stroke-width="1" opacity="1"/><line transform="translate(0,593)" x2="-5" y2="0" stroke="#888" stroke-width="1" opacity="1"/><line transform="translate(0,508)" x2="-5" y2="0" stroke="#888" stroke-width="1" opacity="1"/><line transform="translate(0,442)" x2="-5" y2="0" stroke="#888" stroke-width="1" opacity="1"/><line transform="translate(0,387)" x2="-5" y2="0" stroke="#888" stroke-width="1" opacity="1"/><line transform="translate(0,338)" x2="-5" y2="0" stroke="#888" stroke-width="1" opacity="1"/><line transform="translate(0,294)" x2="-5" y2="0" stroke="#888" stroke-width="1" opacity="1"/><line transform="translate(0,253)" x2="-5" y2="0" stroke="#888" stroke-width="1" opacity="1"/><line transform="translate(0,216)" x2="-5" y2="0" stroke="#888" stroke-width="1" opacity="1"/><line transform="translate(0,180)" x2="-5" y2="0" stroke="#888" stroke-width="1" opacity="1"/><line transform="translate(0,147)" x2="-5" y2="0" stroke="#888" stroke-width="1" opacity="1"/><line transform="translate(0,115)" x2="-5" y2="0" stroke="#888" stroke-width="1" opacity="1"/><line transform="translate(0,84)" x2="-5" y2="0" stroke="#888" stroke-width="1" opacity="1"/><line transform="translate(0,55)" x2="-5" y2="0" stroke="#888" stroke-width="1" opacity="1"/><line transform="translate(0,27)" x2="-5" y2="0" stroke="#888" stroke-width="1" opacity="1"/><line transform="translate(0,0)" x2="-5" y2="0" stroke="#888" stroke-width="1" opacity="1"/></g><g class="mark-text role-axis-label" pointer-events="none"><text text-anchor="end" transform="translate(-7,803)" font-family="sans-serif" font-size="10px" fill="#000" opacity="1">0</text><text text-anchor="end" transform="translate(-7,596.4408882022711)" font-family="sans-serif" font-size="10px" fill="#000" opacity="1">20</text><text text-anchor="end" transform="translate(-7,510.8813026639114)" font-family="sans-serif" font-size="10px" fill="#000" opacity="1">40</text><text text-anchor="end" transform="translate(-7,445.2291236000337)" font-family="sans-serif" font-size="10px" fill="#000" opacity="1">60</text><text text-anchor="end" transform="translate(-7,389.8817764045422)" font-family="sans-serif" font-size="10px" fill="#000" opacity="1">80</text><text text-anchor="end" transform="translate(-7,341.1197846482994)" font-family="sans-serif" font-size="10px" fill="#000" opacity="1">100</text><text text-anchor="end" transform="translate(-7,297.0355743730594)" font-family="sans-serif" font-size="10px" fill="#000" opacity="1">120</text><text text-anchor="end" transform="translate(-7,256.4959591488215)" font-family="sans-serif" font-size="10px" fill="#000" opacity="1">140</text><text text-anchor="end" transform="translate(-7,218.76260532782285)" font-family="sans-serif" font-size="10px" fill="#000" opacity="1">160</text><text text-anchor="end" transform="translate(-7,183.32266460681336)" font-family="sans-serif" font-size="10px" fill="#000" opacity="1">180</text><text text-anchor="end" transform="translate(-7,149.80273525781917)" font-family="sans-serif" font-size="10px" fill="#000" opacity="1">200</text><text text-anchor="end" transform="translate(-7,117.92092913785984)" font-family="sans-serif" font-size="10px" fill="#000" opacity="1">220</text><text text-anchor="end" transform="translate(-7,87.45824720006732)" font-family="sans-serif" font-size="10px" fill="#000" opacity="1">240</text><text text-anchor="end" transform="translate(-7,58.24053099898989)" font-family="sans-serif" font-size="10px" fill="#000" opacity="1">260</text><text text-anchor="end" transform="translate(-7,30.12657353656338)" font-family="sans-serif" font-size="10px" fill="#000" opacity="1">280</text><text text-anchor="end" transform="translate(-7,3)" font-family="sans-serif" font-size="10px" fill="#000" opacity="1">300</text></g><g class="mark-rule role-axis-domain" pointer-events="none"><line transform="translate(0,800)" x2="0" y2="-800" stroke="#888" stroke-width="1" opacity="1"/></g><g class="mark-text role-axis-title" pointer-events="none"><text text-anchor="middle" transform="translate(-27.6845703125,400) rotate(-90) translate(0,-2)" font-family="sans-serif" font-size="11px" font-weight="bold" fill="#000" opacity="1">length</text></g></g><path class="foreground" aria-hidden="true" d="" pointer-events="none" display="none"/></g></g><g class="mark-rect role-mark marks" role="graphics-symbol" aria-roledescription="rect mark container"><path d="M5,751.81197846483h15v4h-15Z" fill="rgb(31, 31, 31)" opacity="0.7"/><path d="M5,705.6239569296598h15v4h-15Z" fill="rgb(35, 35, 35)" opacity="0.7"/><path d="M5,694.7204441011356h15v4h-15Z" fill="rgb(36, 36, 36)" opacity="0.7"/><path d="M5,667.3605470515639h15v4h-15Z" fill="rgb(39, 39, 39)" opacity="0.7"/><path d="M5,651.9406513319557h15v4h-15Z" fill="rgb(42, 42, 42)" opacity="0.7"/><path d="M5,638h15v4h-15Z" fill="rgb(44, 44, 44)" opacity="0.7"/><path d="M5,625.180248042457h15v4h-15Z" fill="rgb(46, 46, 46)" opacity="0.7"/><path d="M5,596.6710817261134h15v4h-15Z" fill="rgb(49, 49, 49)" opacity="0.7"/><path d="M5,591.4408882022711h15v4h-15Z" fill="rgb(54, 54, 54)" opacity="0.7"/><path d="M5,581.3589758763744h15v4h-15Z" fill="rgb(56, 56, 56)" opacity="0.7"/><path d="M5,540.8359797068546h15v4h-15Z" fill="rgb(58, 58, 58)" opacity="0.7"/><path d="M5,536.7210941031277h15v4h-15Z" fill="rgb(61, 61, 61)" opacity="0.7"/><path d="M5,513.277913279165h15v4h-15Z" fill="rgb(64, 64, 64)" opacity="0.7"/><path d="M5,502.25235982908225h15v4h-15Z" fill="rgb(67, 67, 67)" opacity="0.7"/><path d="M5,491.62332551797186h15v4h-15Z" fill="rgb(72, 72, 72)" opacity="0.7"/><path d="M5,474.68384925380957h15v4h-15Z" fill="rgb(73, 73, 73)" opacity="0.7"/><path d="M5,464.9334400854188h15v4h-15Z" fill="rgb(73, 73, 73)" opacity="0.7"/><path d="M5,458.5887450304572h15v4h-15Z" fill="rgb(80, 80, 80)" opacity="0.7"/><path d="M5,437.2600197741685h15v4h-15Z" fill="rgb(82, 82, 82)" opacity="0.7"/><path d="M5,431.3939444035328h15v4h-15Z" fill="rgb(84, 84, 84)" opacity="0.7"/><path d="M5,422.7667392141256h15v4h-15Z" fill="rgb(87, 87, 87)" opacity="0.7"/><path d="M5,414.33347813498244h15v4h-15Z" fill="rgb(87, 87, 87)" opacity="0.7"/><path d="M5,411.5632867682817h15v4h-15Z" fill="rgb(94, 94, 94)" opacity="0.7"/><path d="M5,408.812812817962h15v4h-15Z" fill="rgb(94, 94, 94)" opacity="0.7"/><path d="M5,392.7017559047823h15v4h-15Z" fill="rgb(96, 96, 96)" opacity="0.7"/><path d="M5,372.16748206209843h15v4h-15Z" fill="rgb(97, 97, 97)" opacity="0.7"/><path d="M5,367.1868154292397h15v4h-15Z" fill="rgb(101, 101, 101)" opacity="0.7"/><path d="M5,362.2630763101816h15v4h-15Z" fill="rgb(104, 104, 104)" opacity="0.7"/><path d="M5,359.82195399586715h15v4h-15Z" fill="rgb(107, 107, 107)" opacity="0.7"/><path d="M5,347.81485290308984h15v4h-15Z" fill="rgb(108, 108, 108)" opacity="0.7"/><path d="M5,340.76191468047347h15v4h-15Z" fill="rgb(112, 112, 112)" opacity="0.7"/><path d="M5,329.2427778334149h15v4h-15Z" fill="rgb(112, 112, 112)" opacity="0.7"/><path d="M5,326.97275379584823h15v4h-15Z" fill="rgb(116, 116, 116)" opacity="0.7"/><path d="M5,324.71361735203084h15v4h-15Z" fill="rgb(118, 118, 118)" opacity="0.7"/><path d="M5,320.22739020882887h15v4h-15Z" fill="rgb(122, 122, 122)" opacity="0.7"/><path d="M5,289.93176311312936h15v4h-15Z" fill="rgb(120, 120, 120)" opacity="0.7"/><path d="M5,275.44218820625537h15v4h-15Z" fill="rgb(124, 124, 124)" opacity="0.7"/><path d="M5,253.45125715567644h15v4h-15Z" fill="rgb(131, 131, 131)" opacity="0.7"/><path d="M5,249.54763196791654h15v4h-15Z" fill="rgb(128, 128, 128)" opacity="0.7"/><path d="M5,245.67159527445398h15v4h-15Z" fill="rgb(129, 129, 129)" opacity="0.7"/><path d="M5,230.43208923219302h15v4h-15Z" fill="rgb(134, 134, 134)" opacity="0.7"/><path d="M5,221.11179592576175h15v4h-15Z" fill="rgb(137, 137, 137)" opacity="0.7"/><path d="M5,219.26574895438128h15v4h-15Z" fill="rgb(135, 135, 135)" opacity="0.7"/><path d="M5,208.3108163334406h15v4h-15Z" fill="rgb(144, 144, 144)" opacity="0.7"/><path d="M5,204.70412103234702h15v4h-15Z" fill="rgb(145, 145, 145)" opacity="0.7"/><path d="M5,202.9089705487628h15v4h-15Z" fill="rgb(148, 148, 148)" opacity="0.7"/><path d="M5,190.49142667229248h15v4h-15Z" fill="rgb(151, 151, 151)" opacity="0.7"/><path d="M5,180.04638793298847h15v4h-15Z" fill="rgb(147, 147, 147)" opacity="0.7"/><path d="M5,161.34205939662291h15v4h-15Z" fill="rgb(152, 152, 152)" opacity="0.7"/><path d="M5,159.66884247542282h15v4h-15Z" fill="rgb(153, 153, 153)" opacity="0.7"/><path d="M5,153.01938013611607h15v4h-15Z" fill="rgb(162, 162, 162)" opacity="0.7"/><path d="M5,151.3676985076192h15v4h-15Z" fill="rgb(167, 167, 167)" opacity="0.7"/><path d="M5,143.17177825020406h15v4h-15Z" fill="rgb(160, 160, 160)" opacity="0.7"/><path d="M5,133.47009096655404h15v4h-15Z" fill="rgb(168, 168, 168)" opacity="0.7"/><path d="M5,123.90801814589136h15v4h-15Z" fill="rgb(169, 169, 169)" opacity="0.7"/><path d="M5,114.4797003745976h15v4h-15Z" fill="rgb(176, 176, 176)" opacity="0.7"/><path d="M5,103.64178313111813h15v4h-15Z" fill="rgb(175, 175, 175)" opacity="0.7"/><path d="M5,102.10728796267267h15v4h-15Z" fill="rgb(176, 176, 176)" opacity="0.7"/><path d="M5,100.57616903349228h15v4h-15Z" fill="rgb(181, 181, 181)" opacity="0.7"/><path d="M5,97.52397138326958h15v4h-15Z" fill="rgb(181, 181, 181)" opacity="0.7"/><path d="M5,96.0028490086303h15v4h-15Z" fill="rgb(182, 182, 182)" opacity="0.7"/><path d="M5,91.45913069377225h15v4h-15Z" fill="rgb(186, 186, 186)" opacity="0.7"/><path d="M5,82.45824720006732h15v4h-15Z" fill="rgb(186, 186, 186)" opacity="0.7"/><path d="M5,76.52003954833702h15v4h-15Z" fill="rgb(194, 194, 194)" opacity="0.7"/><path d="M5,73.5691889490067h15v4h-15Z" fill="rgb(196, 196, 196)" opacity="0.7"/><path d="M5,67.70325665977856h15v4h-15Z" fill="rgb(201, 201, 201)" opacity="0.7"/><path d="M5,61.884067101746126h15v4h-15Z" fill="rgb(195, 195, 195)" opacity="0.7"/><path d="M5,44.696165769304976h15v4h-15Z" fill="rgb(197, 197, 197)" opacity="0.7"/><path d="M5,41.86949979958273h15v4h-15Z" fill="rgb(201, 201, 201)" opacity="0.7"/><path d="M5,40.460122061771166h15v4h-15Z" fill="rgb(202, 202, 202)" opacity="0.7"/><path d="M5,26.50793912056364h15v4h-15Z" fill="rgb(211, 211, 211)" opacity="0.7"/><path d="M5,22.371222813387483h15v4h-15Z" fill="rgb(205, 205, 205)" opacity="0.7"/><path d="M5,11.446335799859988h15v4h-15Z" fill="rgb(205, 205, 205)" opacity="0.7"/><path d="M5,6.040405071066825h15v4h-15Z" fill="rgb(213, 213, 213)" opacity="0.7"/><path d="M5,2.0100503147041167h15v4h-15Z" fill="rgb(209, 209, 209)" opacity="0.7"/><path d="M5,-2h15v4h-15Z" fill="rgb(78, 78, 78)" opacity="0.7"/><path d="M30,644.8116627589859h15v4h-15Z" fill="rgb(30, 30, 30)" opacity="0.7"/><path d="M30,619.1145618000169h15v4h-15Z" fill="rgb(34, 34, 34)" opacity="0.7"/><path d="M30,613.2479138593197h15v4h-15Z" fill="rgb(35, 35, 35)" opacity="0.7"/><path d="M30,571.7258300203049h15v4h-15Z" fill="rgb(37, 37, 37)" opacity="0.7"/><path d="M30,567.0598923241497h15v4h-15Z" fill="rgb(41, 41, 41)" opacity="0.7"/><path d="M30,545.0177871865297h15v4h-15Z" fill="rgb(44, 44, 44)" opacity="0.7"/><path d="M30,524.7479795744107h15v4h-15Z" fill="rgb(47, 47, 47)" opacity="0.7"/><path d="M30,517.0492332572603h15v4h-15Z" fill="rgb(49, 49, 49)" opacity="0.7"/><path d="M30,495.12488822398547h15v4h-15Z" fill="rgb(53, 53, 53)" opacity="0.7"/><path d="M30,488.16133230340665h15v4h-15Z" fill="rgb(54, 54, 54)" opacity="0.7"/><path d="M30,484.73759668078054h15v4h-15Z" fill="rgb(58, 58, 58)" opacity="0.7"/><path d="M30,481.3508776789889h15v4h-15Z" fill="rgb(63, 63, 63)" opacity="0.7"/><path d="M30,471.4013676289096h15v4h-15Z" fill="rgb(66, 66, 66)" opacity="0.7"/><path d="M30,468.1515499505872h15v4h-15Z" fill="rgb(66, 66, 66)" opacity="0.7"/><path d="M30,461.74612765550694h15v4h-15Z" fill="rgb(70, 70, 70)" opacity="0.7"/><path d="M30,455.4604645689299h15v4h-15Z" fill="rgb(73, 73, 73)" opacity="0.7"/><path d="M30,452.3604960849142h15v4h-15Z" fill="rgb(76, 76, 76)" opacity="0.7"/><path d="M30,443.22307478266487h15v4h-15Z" fill="rgb(78, 78, 78)" opacity="0.7"/><path d="M30,434.3151547470439h15v4h-15Z" fill="rgb(82, 82, 82)" opacity="0.7"/><path d="M30,425.62026549949496h15v4h-15Z" fill="rgb(83, 83, 83)" opacity="0.7"/><path d="M30,419.9347498997914h15v4h-15Z" fill="rgb(89, 89, 89)" opacity="0.7"/><path d="M30,417.1238171443814h15v4h-15Z" fill="rgb(90, 90, 90)" opacity="0.7"/><path d="M30,406.0816411546916h15v4h-15Z" fill="rgb(93, 93, 93)" opacity="0.7"/><path d="M30,398h15v4h-15Z" fill="rgb(98, 98, 98)" opacity="0.7"/><path d="M30,379.74967623045006h15v4h-15Z" fill="rgb(98, 98, 98)" opacity="0.7"/><path d="M30,354.9800606443694h15v4h-15Z" fill="rgb(100, 100, 100)" opacity="0.7"/><path d="M30,343.10074375381396h15v4h-15Z" fill="rgb(101, 101, 101)" opacity="0.7"/><path d="M30,338.4349882769577h15v4h-15Z" fill="rgb(105, 105, 105)" opacity="0.7"/><path d="M30,336.1197846482994h15v4h-15Z" fill="rgb(108, 108, 108)" opacity="0.7"/><path d="M30,318h15v4h-15Z" fill="rgb(106, 106, 106)" opacity="0.7"/><path d="M30,292.0355743730594h15v4h-15Z" fill="rgb(111, 111, 111)" opacity="0.7"/><path d="M30,287.8366274744269h15v4h-15Z" fill="rgb(113, 113, 113)" opacity="0.7"/><path d="M30,281.60222050567774h15v4h-15Z" fill="rgb(117, 117, 117)" opacity="0.7"/><path d="M30,273.40491805584h15v4h-15Z" fill="rgb(117, 117, 117)" opacity="0.7"/><path d="M30,261.34368540005056h15v4h-15Z" fill="rgb(121, 121, 121)" opacity="0.7"/><path d="M30,259.3597366206892h15v4h-15Z" fill="rgb(121, 121, 121)" opacity="0.7"/><path d="M30,228.55582655833015h15v4h-15Z" fill="rgb(127, 127, 127)" opacity="0.7"/><path d="M30,222.96376925739136h15v4h-15Z" fill="rgb(128, 128, 128)" opacity="0.7"/><path d="M30,211.9397073110424h15v4h-15Z" fill="rgb(129, 129, 129)" opacity="0.7"/><path d="M30,197.5557200427893h15v4h-15Z" fill="rgb(130, 130, 130)" opacity="0.7"/><path d="M30,195.7818778327352h15v4h-15Z" fill="rgb(133, 133, 133)" opacity="0.7"/><path d="M30,192.24977644797093h15v4h-15Z" fill="rgb(136, 136, 136)" opacity="0.7"/><path d="M30,181.77493289112846h15v4h-15Z" fill="rgb(136, 136, 136)" opacity="0.7"/><path d="M30,178.32266460681336h15v4h-15Z" fill="rgb(142, 142, 142)" opacity="0.7"/><path d="M30,158.00000000000014h15v4h-15Z" fill="rgb(148, 148, 148)" opacity="0.7"/><path d="M30,156.3354978391486h15v4h-15Z" fill="rgb(146, 146, 146)" opacity="0.7"/><path d="M30,141.54487332847094h15v4h-15Z" fill="rgb(149, 149, 149)" opacity="0.7"/><path d="M30,130.2675186373913h15v4h-15Z" fill="rgb(152, 152, 152)" opacity="0.7"/><path d="M30,122.32749550293724h15v4h-15Z" fill="rgb(152, 152, 152)" opacity="0.7"/><path d="M30,116.04203453096429h15v4h-15Z" fill="rgb(157, 157, 157)" opacity="0.7"/><path d="M30,111.36569655553426h15v4h-15Z" fill="rgb(163, 163, 163)" opacity="0.7"/><path d="M30,109.81397863658998h15v4h-15Z" fill="rgb(163, 163, 163)" opacity="0.7"/><path d="M30,105.17967697244913h15v4h-15Z" fill="rgb(169, 169, 169)" opacity="0.7"/><path d="M30,89.95103747457321h15v4h-15Z" fill="rgb(164, 164, 164)" opacity="0.7"/><path d="M30,72.09826192980277h15v4h-15Z" fill="rgb(168, 168, 168)" opacity="0.7"/><path d="M30,69.16531366845615h15v4h-15Z" fill="rgb(171, 171, 171)" opacity="0.7"/><path d="M30,57.549686564542895h15v4h-15Z" fill="rgb(176, 176, 176)" opacity="0.7"/><path d="M30,48.956165056632585h15v4h-15Z" fill="rgb(175, 175, 175)" opacity="0.7"/><path d="M30,47.53347842825133h15v4h-15Z" fill="rgb(180, 180, 180)" opacity="0.7"/><path d="M30,43.281509435471804h15v4h-15Z" fill="rgb(184, 184, 184)" opacity="0.7"/><path d="M30,36.247634288762725h15v4h-15Z" fill="rgb(187, 187, 187)" opacity="0.7"/><path d="M30,33.45220336898937h15v4h-15Z" fill="rgb(187, 187, 187)" opacity="0.7"/><path d="M30,29.27811704535608h15v4h-15Z" fill="rgb(185, 185, 185)" opacity="0.7"/><path d="M30,18.256452415282933h15v4h-15Z" fill="rgb(185, 185, 185)" opacity="0.7"/><path d="M30,15.525293273535603h15v4h-15Z" fill="rgb(198, 198, 198)" opacity="0.7"/><path d="M30,12.803633902109059h15v4h-15Z" fill="rgb(195, 195, 195)" opacity="0.7"/><path d="M30,10.091375856311792h15v4h-15Z" fill="rgb(196, 196, 196)" opacity="0.7"/><path d="M30,-2h15v4h-15Z" fill="rgb(55, 55, 55)" opacity="0.7"/><path d="M55,718h15v4h-15Z" fill="rgb(30, 30, 30)" opacity="0.7"/><path d="M55,558h15v4h-15Z" fill="rgb(32, 32, 32)" opacity="0.7"/><path d="M55,549.2698919176316h15v4h-15Z" fill="rgb(35, 35, 35)" opacity="0.7"/><path d="M55,532.6700167715679h15v4h-15Z" fill="rgb(39, 39, 39)" opacity="0.7"/><path d="M55,528.6798683103447h15v4h-15Z" fill="rgb(42, 42, 42)" opacity="0.7"/><path d="M55,520.8718707889798h15v4h-15Z" fill="rgb(44, 44, 44)" opacity="0.7"/><path d="M55,498.66740905808473h15v4h-15Z" fill="rgb(46, 46, 46)" opacity="0.7"/><path d="M55,478.00000000000006h15v4h-15Z" fill="rgb(51, 51, 51)" opacity="0.7"/><path d="M55,395.34216345222666h15v4h-15Z" fill="rgb(52, 52, 52)" opacity="0.7"/><path d="M55,387.4718848442493h15v4h-15Z" fill="rgb(55, 55, 55)" opacity="0.7"/><path d="M55,374.67979022966557h15v4h-15Z" fill="rgb(60, 60, 60)" opacity="0.7"/><path d="M55,369.66990922109306h15v4h-15Z" fill="rgb(62, 62, 62)" opacity="0.7"/><path d="M55,364.71795175274883h15v4h-15Z" fill="rgb(65, 65, 65)" opacity="0.7"/><path d="M55,357.39435621711186h15v4h-15Z" fill="rgb(68, 68, 68)" opacity="0.7"/><path d="M55,352.5788509735983h15v4h-15Z" fill="rgb(70, 70, 70)" opacity="0.7"/><path d="M55,350.190516700089h15v4h-15Z" fill="rgb(71, 71, 71)" opacity="0.7"/><path d="M55,333.8161283858878h15v4h-15Z" fill="rgb(76, 76, 76)" opacity="0.7"/><path d="M55,315.7828981326634h15v4h-15Z" fill="rgb(79, 79, 79)" opacity="0.7"/><path d="M55,313.57594334440137h15v4h-15Z" fill="rgb(83, 83, 83)" opacity="0.7"/><path d="M55,307.0145962794142h15v4h-15Z" fill="rgb(84, 84, 84)" opacity="0.7"/><path d="M55,302.68865010648784h15v4h-15Z" fill="rgb(87, 87, 87)" opacity="0.7"/><path d="M55,285.7500610053722h15v4h-15Z" fill="rgb(91, 91, 91)" opacity="0.7"/><path d="M55,283.67195941370915h15v4h-15Z" fill="rgb(92, 92, 92)" opacity="0.7"/><path d="M55,277.48743210818316h15v4h-15Z" fill="rgb(96, 96, 96)" opacity="0.7"/><path d="M55,265.33375052164854h15v4h-15Z" fill="rgb(97, 97, 97)" opacity="0.7"/><path d="M55,257.3830684609789h15v4h-15Z" fill="rgb(100, 100, 100)" opacity="0.7"/><path d="M55,255.41360134997865h15v4h-15Z" fill="rgb(103, 103, 103)" opacity="0.7"/><path d="M55,251.49595914882147h15v4h-15Z" fill="rgb(104, 104, 104)" opacity="0.7"/><path d="M55,239.90801236116403h15v4h-15Z" fill="rgb(105, 105, 105)" opacity="0.7"/><path d="M55,238.00000000000003h15v4h-15Z" fill="rgb(110, 110, 110)" opacity="0.7"/><path d="M55,236.0984665145207h15v4h-15Z" fill="rgb(113, 113, 113)" opacity="0.7"/><path d="M55,234.20334635024074h15v4h-15Z" fill="rgb(113, 113, 113)" opacity="0.7"/><path d="M55,232.31457505076202h15v4h-15Z" fill="rgb(115, 115, 115)" opacity="0.7"/><path d="M55,224.821726394542h15v4h-15Z" fill="rgb(119, 119, 119)" opacity="0.7"/><path d="M55,215.59120885755863h15v4h-15Z" fill="rgb(121, 121, 121)" opacity="0.7"/><path d="M55,210.12246173203732h15v4h-15Z" fill="rgb(122, 122, 122)" opacity="0.7"/><path d="M55,206.50471965816445h15v4h-15Z" fill="rgb(125, 125, 125)" opacity="0.7"/><path d="M55,201.11921905068297h15v4h-15Z" fill="rgb(127, 127, 127)" opacity="0.7"/><path d="M55,199.33481811616943h15v4h-15Z" fill="rgb(130, 130, 130)" opacity="0.7"/><path d="M55,188.73815153088736h15v4h-15Z" fill="rgb(133, 133, 133)" opacity="0.7"/><path d="M55,174.88952290411083h15v4h-15Z" fill="rgb(132, 132, 132)" opacity="0.7"/><path d="M55,173.18002592746765h15v4h-15Z" fill="rgb(137, 137, 137)" opacity="0.7"/><path d="M55,171.47519336156108h15v4h-15Z" fill="rgb(138, 138, 138)" opacity="0.7"/><path d="M55,169.77498723254692h15v4h-15Z" fill="rgb(144, 144, 144)" opacity="0.7"/><path d="M55,166.38830494255942h15v4h-15Z" fill="rgb(142, 142, 142)" opacity="0.7"/><path d="M55,163.01968534449833h15v4h-15Z" fill="rgb(144, 144, 144)" opacity="0.7"/><path d="M55,154.67530230320975h15v4h-15Z" fill="rgb(148, 148, 148)" opacity="0.7"/><path d="M55,149.72022500569514h15v4h-15Z" fill="rgb(153, 153, 153)" opacity="0.7"/><path d="M55,144.80273525781917h15v4h-15Z" fill="rgb(153, 153, 153)" opacity="0.7"/><path d="M55,139.9219904398366h15v4h-15Z" fill="rgb(154, 154, 154)" opacity="0.7"/><path d="M55,136.68817239268037h15v4h-15Z" fill="rgb(157, 157, 157)" opacity="0.7"/><path d="M55,131.86688017083765h15v4h-15Z" fill="rgb(167, 167, 167)" opacity="0.7"/><path d="M55,128.67197877273964h15v4h-15Z" fill="rgb(165, 165, 165)" opacity="0.7"/><path d="M55,125.4922553110139h15v4h-15Z" fill="rgb(167, 167, 167)" opacity="0.7"/><path d="M55,117.60795615076947h15v4h-15Z" fill="rgb(169, 169, 169)" opacity="0.7"/><path d="M55,106.72099216982835h15v4h-15Z" fill="rgb(171, 171, 171)" opacity="0.7"/><path d="M55,99.0484041556717h15v4h-15Z" fill="rgb(172, 172, 172)" opacity="0.7"/><path d="M55,92.97044979187822h15v4h-15Z" fill="rgb(178, 178, 178)" opacity="0.7"/><path d="M55,88.44614956532966h15v4h-15Z" fill="rgb(177, 177, 177)" opacity="0.7"/><path d="M55,85.4459084860061h15v4h-15Z" fill="rgb(182, 182, 182)" opacity="0.7"/><path d="M55,80.96908481339989h15v4h-15Z" fill="rgb(185, 185, 185)" opacity="0.7"/><path d="M55,79.48300878360119h15v4h-15Z" fill="rgb(184, 184, 184)" opacity="0.7"/><path d="M55,78.00000000000007h15v4h-15Z" fill="rgb(184, 184, 184)" opacity="0.7"/><path d="M55,70.63030949408771h15v4h-15Z" fill="rgb(197, 197, 197)" opacity="0.7"/><path d="M55,66.24412085268045h15v4h-15Z" fill="rgb(193, 193, 193)" opacity="0.7"/><path d="M55,58.991655437279135h15v4h-15Z" fill="rgb(198, 198, 198)" opacity="0.7"/><path d="M55,54.674140545794494h15v4h-15Z" fill="rgb(199, 199, 199)" opacity="0.7"/><path d="M55,53.24053099898989h15v4h-15Z" fill="rgb(190, 190, 190)" opacity="0.7"/><path d="M55,50.38155899327008h15v4h-15Z" fill="rgb(197, 197, 197)" opacity="0.7"/><path d="M55,46.11348374017692h15v4h-15Z" fill="rgb(199, 199, 199)" opacity="0.7"/><path d="M55,34.84863886644365h15v4h-15Z" fill="rgb(202, 202, 202)" opacity="0.7"/><path d="M55,32.05831379492952h15v4h-15Z" fill="rgb(209, 209, 209)" opacity="0.7"/><path d="M55,19.625625635924095h15v4h-15Z" fill="rgb(213, 213, 213)" opacity="0.7"/><path d="M55,16.889679153236916h15v4h-15Z" fill="rgb(214, 214, 214)" opacity="0.7"/><path d="M55,3.3512306265952603h15v4h-15Z" fill="rgb(211, 211, 211)" opacity="0.7"/><path d="M55,0.6711259879439453h15v4h-15Z" fill="rgb(218, 218, 218)" opacity="0.7"/><path d="M55,-2h15v4h-15Z" fill="rgb(79, 79, 79)" opacity="0.7"/><path d="M80,732.6802735257819h15v4h-15Z" fill="rgb(31, 31, 31)" opacity="0.7"/><path d="M80,684.8629150101524h15v4h-15Z" fill="rgb(32, 32, 32)" opacity="0.7"/><path d="M80,675.7979814678442h15v4h-15Z" fill="rgb(36, 36, 36)" opacity="0.7"/><path d="M80,659.4359353944899h15v4h-15Z" fill="rgb(39, 39, 39)" opacity="0.7"/><path d="M80,631.4667200427094h15v4h-15Z" fill="rgb(41, 41, 41)" opacity="0.7"/><path d="M80,607.5619085721908h15v4h-15Z" fill="rgb(45, 45, 45)" opacity="0.7"/><path d="M80,602.0408205773458h15v4h-15Z" fill="rgb(47, 47, 47)" opacity="0.7"/><path d="M80,586.3398951148328h15v4h-15Z" fill="rgb(50, 50, 50)" opacity="0.7"/><path d="M80,576.4900303221847h15v4h-15Z" fill="rgb(53, 53, 53)" opacity="0.7"/><path d="M80,562.4863768979241h15v4h-15Z" fill="rgb(57, 57, 57)" opacity="0.7"/><path d="M80,553.5959629356886h15v4h-15Z" fill="rgb(59, 59, 59)" opacity="0.7"/><path d="M80,509.55589796288086h15v4h-15Z" fill="rgb(62, 62, 62)" opacity="0.7"/><path d="M80,505.8813026639114h15v4h-15Z" fill="rgb(62, 62, 62)" opacity="0.7"/><path d="M80,449.28808451674615h15v4h-15Z" fill="rgb(67, 67, 67)" opacity="0.7"/><path d="M80,446.2425077793888h15v4h-15Z" fill="rgb(70, 70, 70)" opacity="0.7"/><path d="M80,440.2291236000337h15v4h-15Z" fill="rgb(72, 72, 72)" opacity="0.7"/><path d="M80,428.4958277186396h15v4h-15Z" fill="rgb(76, 76, 76)" opacity="0.7"/><path d="M80,403.36937101470033h15v4h-15Z" fill="rgb(80, 80, 80)" opacity="0.7"/><path d="M80,400.6756153132976h15v4h-15Z" fill="rgb(82, 82, 82)" opacity="0.7"/><path d="M80,390.0784389125772h15v4h-15Z" fill="rgb(83, 83, 83)" opacity="0.7"/><path d="M80,384.8817764045422h15v4h-15Z" fill="rgb(88, 88, 88)" opacity="0.7"/><path d="M80,382.3078061834695h15v4h-15Z" fill="rgb(90, 90, 90)" opacity="0.7"/><path d="M80,377.20709765174666h15v4h-15Z" fill="rgb(93, 93, 93)" opacity="0.7"/><path d="M80,345.4516600406097h15v4h-15Z" fill="rgb(95, 95, 95)" opacity="0.7"/><path d="M80,331.523848412376h15v4h-15Z" fill="rgb(95, 95, 95)" opacity="0.7"/><path d="M80,322.4652133299465h15v4h-15Z" fill="rgb(98, 98, 98)" opacity="0.7"/><path d="M80,311.37899757614247h15v4h-15Z" fill="rgb(102, 102, 102)" opacity="0.7"/><path d="M80,309.19192587137707h15v4h-15Z" fill="rgb(103, 103, 103)" opacity="0.7"/><path d="M80,304.846879762482h15v4h-15Z" fill="rgb(105, 105, 105)" opacity="0.7"/><path d="M80,300.5397838352633h15v4h-15Z" fill="rgb(110, 110, 110)" opacity="0.7"/><path d="M80,298.40016012812816h15v4h-15Z" fill="rgb(111, 111, 111)" opacity="0.7"/><path d="M80,296.26966074061926h15v4h-15Z" fill="rgb(110, 110, 110)" opacity="0.7"/><path d="M80,294.14816992823523h15v4h-15Z" fill="rgb(115, 115, 115)" opacity="0.7"/><path d="M80,279.5407441273712h15v4h-15Z" fill="rgb(117, 117, 117)" opacity="0.7"/><path d="M80,271.37552911649345h15v4h-15Z" fill="rgb(121, 121, 121)" opacity="0.7"/><path d="M80,269.3539306240264h15v4h-15Z" fill="rgb(123, 123, 123)" opacity="0.7"/><path d="M80,267.34003354313603h15v4h-15Z" fill="rgb(126, 126, 126)" opacity="0.7"/><path d="M80,263.3349958463088h15v4h-15Z" fill="rgb(125, 125, 125)" opacity="0.7"/><path d="M80,247.60620158532558h15v4h-15Z" fill="rgb(126, 126, 126)" opacity="0.7"/><path d="M80,243.74374157795936h15v4h-15Z" fill="rgb(135, 135, 135)" opacity="0.7"/><path d="M80,241.8225702769544h15v4h-15Z" fill="rgb(136, 136, 136)" opacity="0.7"/><path d="M80,226.6857257165721h15v4h-15Z" fill="rgb(137, 137, 137)" opacity="0.7"/><path d="M80,217.42557181127356h15v4h-15Z" fill="rgb(140, 140, 140)" opacity="0.7"/><path d="M80,213.76260532782285h15v4h-15Z" fill="rgb(143, 143, 143)" opacity="0.7"/><path d="M80,194.01324517834007h15v4h-15Z" fill="rgb(146, 146, 146)" opacity="0.7"/><path d="M80,186.9899073392214h15v4h-15Z" fill="rgb(147, 147, 147)" opacity="0.7"/><path d="M80,185.24665103594367h15v4h-15Z" fill="rgb(147, 147, 147)" opacity="0.7"/><path d="M80,183.50834017051142h15v4h-15Z" fill="rgb(147, 147, 147)" opacity="0.7"/><path d="M80,176.60372278767773h15v4h-15Z" fill="rgb(156, 156, 156)" opacity="0.7"/><path d="M80,168.0793700790552h15v4h-15Z" fill="rgb(160, 160, 160)" opacity="0.7"/><path d="M80,164.7017553579778h15v4h-15Z" fill="rgb(157, 157, 157)" opacity="0.7"/><path d="M80,148.07692762912325h15v4h-15Z" fill="rgb(163, 163, 163)" opacity="0.7"/><path d="M80,146.43777478023387h15v4h-15Z" fill="rgb(169, 169, 169)" opacity="0.7"/><path d="M80,138.3030999011744h15v4h-15Z" fill="rgb(167, 167, 167)" opacity="0.7"/><path d="M80,135.07717895167724h15v4h-15Z" fill="rgb(167, 167, 167)" opacity="0.7"/><path d="M80,127.0802333115135h15v4h-15Z" fill="rgb(167, 167, 167)" opacity="0.7"/><path d="M80,120.75066137598438h15v4h-15Z" fill="rgb(174, 174, 174)" opacity="0.7"/><path d="M80,119.17749006091438h15v4h-15Z" fill="rgb(174, 174, 174)" opacity="0.7"/><path d="M80,112.92092913785984h15v4h-15Z" fill="rgb(176, 176, 176)" opacity="0.7"/><path d="M80,108.26575165986338h15v4h-15Z" fill="rgb(192, 192, 192)" opacity="0.7"/><path d="M80,94.48501555877766h15v4h-15Z" fill="rgb(180, 180, 180)" opacity="0.7"/><path d="M80,86.94444661475296h15v4h-15Z" fill="rgb(184, 184, 184)" opacity="0.7"/><path d="M80,83.95051525355287h15v4h-15Z" fill="rgb(187, 187, 187)" opacity="0.7"/><path d="M80,75.04310870794887h15v4h-15Z" fill="rgb(194, 194, 194)" opacity="0.7"/><path d="M80,64.78788880706561h15v4h-15Z" fill="rgb(191, 191, 191)" opacity="0.7"/><path d="M80,63.33454325568479h15v4h-15Z" fill="rgb(191, 191, 191)" opacity="0.7"/><path d="M80,60.43644341656909h15v4h-15Z" fill="rgb(200, 200, 200)" opacity="0.7"/><path d="M80,56.11052036034381h15v4h-15Z" fill="rgb(203, 203, 203)" opacity="0.7"/><path d="M80,51.809675752894925h15v4h-15Z" fill="rgb(203, 203, 203)" opacity="0.7"/><path d="M80,39.05336155958908h15v4h-15Z" fill="rgb(202, 202, 202)" opacity="0.7"/><path d="M80,37.64920376622647h15v4h-15Z" fill="rgb(205, 205, 205)" opacity="0.7"/><path d="M80,30.666956269964942h15v4h-15Z" fill="rgb(210, 210, 210)" opacity="0.7"/><path d="M80,27.89178249633877h15v4h-15Z" fill="rgb(211, 211, 211)" opacity="0.7"/><path d="M80,25.12657353656338h15v4h-15Z" fill="rgb(212, 212, 212)" opacity="0.7"/><path d="M80,23.747672482241324h15v4h-15Z" fill="rgb(217, 217, 217)" opacity="0.7"/><path d="M80,20.997211502215276h15v4h-15Z" fill="rgb(219, 219, 219)" opacity="0.7"/><path d="M80,14.163282309383131h15v4h-15Z" fill="rgb(218, 218, 218)" opacity="0.7"/><path d="M80,8.738742029400594h15v4h-15Z" fill="rgb(226, 226, 226)" opacity="0.7"/><path d="M80,7.3884223800750455h15v4h-15Z" fill="rgb(219, 219, 219)" opacity="0.7"/><path d="M80,4.694678365679252h15v4h-15Z" fill="rgb(222, 222, 222)" opacity="0.7"/><path d="M80,-0.6655536998365612h15v4h-15Z" fill="rgb(222, 222, 222)" opacity="0.7"/><path d="M80,-2h15v4h-15Z" fill="rgb(94, 94, 94)" opacity="0.7"/></g></g><path class="foreground" aria-hidden="true" d="" display="none"/></g></g></g></svg>