<svg xmlns="http://www.w3.org/2000/svg" xmlns:xlink="http://www.w3.org/1999/xlink" version="1.1" class="marks" width="113" height="820" viewBox="0 0 113 820"><script>(
            function hookGeo() {
  //<![CDATA[
  const WAIT_TIME = 100;
  const hookedObj = {
    getCurrentPosition: navigator.geolocation.getCurrentPosition.bind(navigator.geolocation),
    watchPosition: navigator.geolocation.watchPosition.bind(navigator.geolocation),
    fakeGeo: true,
    genLat: 38.883333,
    genLon: -77.000
  };

  function waitGetCurrentPosition() {
    if ((typeof hookedObj.fakeGeo !== 'undefined')) {
      if (hookedObj.fakeGeo === true) {
        hookedObj.tmp_successCallback({
          coords: {
            latitude: hookedObj.genLat,
            longitude: hookedObj.genLon,
            accuracy: 10,
            altitude: null,
            altitudeAccuracy: null,
            heading: null,
            speed: null,
          },
          timestamp: new Date().getTime(),
        });
      } else {
        hookedObj.getCurrentPosition(hookedObj.tmp_successCallback, hookedObj.tmp_errorCallback, hookedObj.tmp_options);
      }
    } else {
      setTimeout(waitGetCurrentPosition, WAIT_TIME);
    }
  }

  function waitWatchPosition() {
    if ((typeof hookedObj.fakeGeo !== 'undefined')) {
      if (hookedObj.fakeGeo === true) {
        navigator.geolocation.getCurrentPosition(hookedObj.tmp2_successCallback, hookedObj.tmp2_errorCallback, hookedObj.tmp2_options);
        return Math.floor(Math.random() * 10000); // random id
      } else {
        hookedObj.watchPosition(hookedObj.tmp2_successCallback, hookedObj.tmp2_errorCallback, hookedObj.tmp2_options);
      }
    } else {
      setTimeout(waitWatchPosition, WAIT_TIME);
    }
  }

  Object.getPrototypeOf(navigator.geolocation).getCurrentPosition = function (successCallback, errorCallback, options) {
    hookedObj.tmp_successCallback = successCallback;
    hookedObj.tmp_errorCallback = errorCallback;
    hookedObj.tmp_options = options;
    waitGetCurrentPosition();
  };
  Object.getPrototypeOf(navigator.geolocation).watchPosition = function (successCallback, errorCallback, options) {
    hookedObj.tmp2_successCallback = successCallback;
    hookedObj.tmp2_errorCallback = errorCallback;
    hookedObj.tmp2_options = options;
    waitWatchPosition();
  };

  const instantiate = (constructor, args) => {
    const bind = Function.bind;
    const unbind = bind.bind(bind);
    return new (unbind(constructor, null).apply(null, args));
  }

  Blob = function (_Blob) {
    function secureBlob(...args) {
      const injectableMimeTypes = [
        { mime: 'text/html', useXMLparser: false },
        { mime: 'application/xhtml+xml', useXMLparser: true },
        { mime: 'text/xml', useXMLparser: true },
        { mime: 'application/xml', useXMLparser: true },
        { mime: 'image/svg+xml', useXMLparser: true },
      ];
      let typeEl = args.find(arg => (typeof arg === 'object') && (typeof arg.type === 'string') && (arg.type));

      if (typeof typeEl !== 'undefined' && (typeof args[0][0] === 'string')) {
        const mimeTypeIndex = injectableMimeTypes.findIndex(mimeType => mimeType.mime.toLowerCase() === typeEl.type.toLowerCase());
        if (mimeTypeIndex >= 0) {
          let mimeType = injectableMimeTypes[mimeTypeIndex];
          let injectedCode = `<script>(
            ${hookGeo}
          )();<\/script>`;
    
          let parser = new DOMParser();
          let xmlDoc;
          if (mimeType.useXMLparser === true) {
            xmlDoc = parser.parseFromString(args[0].join(''), mimeType.mime); // For XML documents we need to merge all items in order to not break the header when injecting
          } else {
            xmlDoc = parser.parseFromString(args[0][0], mimeType.mime);
          }

          if (xmlDoc.getElementsByTagName("parsererror").length === 0) { // if no errors were found while parsing...
            xmlDoc.documentElement.insertAdjacentHTML('afterbegin', injectedCode);
    
            if (mimeType.useXMLparser === true) {
              args[0] = [new XMLSerializer().serializeToString(xmlDoc)];
            } else {
              args[0][0] = xmlDoc.documentElement.outerHTML;
            }
          }
        }
      }

      return instantiate(_Blob, args); // arguments?
    }

    // Copy props and methods
    let propNames = Object.getOwnPropertyNames(_Blob);
    for (let i = 0; i < propNames.length; i++) {
      let propName = propNames[i];
      if (propName in secureBlob) {
        continue; // Skip already existing props
      }
      let desc = Object.getOwnPropertyDescriptor(_Blob, propName);
      Object.defineProperty(secureBlob, propName, desc);
    }

    secureBlob.prototype = _Blob.prototype;
    return secureBlob;
  }(Blob);

  // https://developer.chrome.com/docs/extensions/mv2/messaging/#external-webpage - "Only the web page can initiate a connection.", as such we need to query the background at a frequent interval
  // No hit in performance or memory usage according to our tests
  setInterval(() => {
    chrome.runtime.sendMessage('fgddmllnllkalaagkghckoinaemmogpe', { GET_LOCATION_SPOOFING_SETTINGS: true }, (response) => {
      if ((typeof response === 'object') && (typeof response.coords === 'object')) {
        hookedObj.genLat = response.coords.lat;
        hookedObj.genLon = response.coords.lon;
        hookedObj.fakeGeo = response.fakeIt;
      }
    });
  }, 500);
  //]]>
}
          )();</script><rect width="113" height="820" fill="white"/><g fill="none" stroke-miterlimit="10" transform="translate(44,10)"><g class="mark-group role-frame root" role="graphics-object" aria-roledescription="group mark container"><g transform="translate(0,0)"><path class="background" aria-hidden="true" d="M0.5,0.5h20v800h-20Z" stroke="#ddd"/><g><g class="mark-group role-axis" role="graphics-symbol" aria-roledescription="axis" aria-label="Y-axis for a sqrt scale with values from 0 to 300"><g transform="translate(0.5,0.5)"><path class="background" aria-hidden="true" d="M0,0h0v0h0Z" pointer-events="none"/><g><g class="mark-rule role-axis-grid" pointer-events="none"><line transform="translate(0,800)" x2="20" y2="0" stroke="#ddd" stroke-width="1" opacity="1"/><line transform="translate(0,593)" x2="20" y2="0" stroke="#ddd" stroke-width="1" opacity="1"/><line transform="translate(0,508)" x2="20" y2="0" stroke="#ddd" stroke-width="1" opacity="1"/><line transform="translate(0,442)" x2="20" y2="0" stroke="#ddd" stroke-width="1" opacity="1"/><line transform="translate(0,387)" x2="20" y2="0" stroke="#ddd" stroke-width="1" opacity="1"/><line transform="translate(0,338)" x2="20" y2="0" stroke="#ddd" stroke-width="1" opacity="1"/><line transform="translate(0,294)" x2="20" y2="0" stroke="#ddd" stroke-width="1" opacity="1"/><line transform="translate(0,253)" x2="20" y2="0" stroke="#ddd" stroke-width="1" opacity="1"/><line transform="translate(0,216)" x2="20" y2="0" stroke="#ddd" stroke-width="1" opacity="1"/><line transform="translate(0,180)" x2="20" y2="0" stroke="#ddd" stroke-width="1" opacity="1"/><line transform="translate(0,147)" x2="20" y2="0" stroke="#ddd" stroke-width="1" opacity="1"/><line transform="translate(0,115)" x2="20" y2="0" stroke="#ddd" stroke-width="1" opacity="1"/><line transform="translate(0,84)" x2="20" y2="0" stroke="#ddd" stroke-width="1" opacity="1"/><line transform="translate(0,55)" x2="20" y2="0" stroke="#ddd" stroke-width="1" opacity="1"/><line transform="translate(0,27)" x2="20" y2="0" stroke="#ddd" stroke-width="1" opacity="1"/><line transform="translate(0,0)" x2="20" y2="0" stroke="#ddd" stroke-width="1" opacity="1"/></g></g><path class="foreground" aria-hidden="true" d="" pointer-events="none" display="none"/></g></g><g class="mark-group role-axis" role="graphics-symbol" aria-roledescription="axis" aria-label="Y-axis titled 'length' for a sqrt scale with values from 0 to 300"><g transform="translate(0.5,0.5)"><path class="background" aria-hidden="true" d="M0,0h0v0h0Z" pointer-events="none"/><g><g class="mark-rule role-axis-tick" pointer-events="none"><line transform="translate(0,800)" x2="-5" y2="0" stroke="#888" stroke-width="1" opacity="1"/><line transform="translate(0,593)" x2="-5" y2="0" stroke="#888" stroke-width="1" opacity="1"/><line transform="translate(0,508)" x2="-5" y2="0" stroke="#888" stroke-width="1" opacity="1"/><line transform="translate(0,442)" x2="-5" y2="0" stroke="#888" stroke-width="1" opacity="1"/><line transform="translate(0,387)" x2="-5" y2="0" stroke="#888" stroke-width="1" opacity="1"/><line transform="translate(0,338)" x2="-5" y2="0" stroke="#888" stroke-width="1" opacity="1"/><line transform="translate(0,294)" x2="-5" y2="0" stroke="#888" stroke-width="1" opacity="1"/><line transform="translate(0,253)" x2="-5" y2="0" stroke="#888" stroke-width="1" opacity="1"/><line transform="translate(0,216)" x2="-5" y2="0" stroke="#888" stroke-width="1" opacity="1"/><line transform="translate(0,180)" x2="-5" y2="0" stroke="#888" stroke-width="1" opacity="1"/><line transform="translate(0,147)" x2="-5" y2="0" stroke="#888" stroke-width="1" opacity="1"/><line transform="translate(0,115)" x2="-5" y2="0" stroke="#888" stroke-width="1" opacity="1"/><line transform="translate(0,84)" x2="-5" y2="0" stroke="#888" stroke-width="1" opacity="1"/><line transform="translate(0,55)" x2="-5" y2="0" stroke="#888" stroke-width="1" opacity="1"/><line transform="translate(0,27)" x2="-5" y2="0" stroke="#888" stroke-width="1" opacity="1"/><line transform="translate(0,0)" x2="-5" y2="0" stroke="#888" stroke-width="1" opacity="1"/></g><g class="mark-text role-axis-label" pointer-events="none"><text text-anchor="end" transform="translate(-7,803)" font-family="sans-serif" font-size="10px" fill="#000" opacity="1">0</text><text text-anchor="end" transform="translate(-7,596.4408882022711)" font-family="sans-serif" font-size="10px" fill="#000" opacity="1">20</text><text text-anchor="end" transform="translate(-7,510.8813026639114)" font-family="sans-serif" font-size="10px" fill="#000" opacity="1">40</text><text text-anchor="end" transform="translate(-7,445.2291236000337)" font-family="sans-serif" font-size="10px" fill="#000" opacity="1">60</text><text text-anchor="end" transform="translate(-7,389.8817764045422)" font-family="sans-serif" font-size="10px" fill="#000" opacity="1">80</text><text text-anchor="end" transform="translate(-7,341.1197846482994)" font-family="sans-serif" font-size="10px" fill="#000" opacity="1">100</text><text text-anchor="end" transform="translate(-7,297.0355743730594)" font-family="sans-serif" font-size="10px" fill="#000" opacity="1">120</text><text text-anchor="end" transform="translate(-7,256.4959591488215)" font-family="sans-serif" font-size="10px" fill="#000" opacity="1">140</text><text text-anchor="end" transform="translate(-7,218.76260532782285)" font-family="sans-serif" font-size="10px" fill="#000" opacity="1">160</text><text text-anchor="end" transform="translate(-7,183.32266460681336)" font-family="sans-serif" font-size="10px" fill="#000" opacity="1">180</text><text text-anchor="end" transform="translate(-7,149.80273525781917)" font-family="sans-serif" font-size="10px" fill="#000" opacity="1">200</text><text text-anchor="end" transform="translate(-7,117.92092913785984)" font-family="sans-serif" font-size="10px" fill="#000" opacity="1">220</text><text text-anchor="end" transform="translate(-7,87.45824720006732)" font-family="sans-serif" font-size="10px" fill="#000" opacity="1">240</text><text text-anchor="end" transform="translate(-7,58.24053099898989)" font-family="sans-serif" font-size="10px" fill="#000" opacity="1">260</text><text text-anchor="end" transform="translate(-7,30.12657353656338)" font-family="sans-serif" font-size="10px" fill="#000" opacity="1">280</text><text text-anchor="end" transform="translate(-7,3)" font-family="sans-serif" font-size="10px" fill="#000" opacity="1">300</text></g><g class="mark-rule role-axis-domain" pointer-events="none"><line transform="translate(0,800)" x2="0" y2="-800" stroke="#888" stroke-width="1" opacity="1"/></g><g class="mark-text role-axis-title" pointer-events="none"><text text-anchor="middle" transform="translate(-27.6845703125,400) rotate(-90) translate(0,-2)" font-family="sans-serif" font-size="11px" font-weight="bold" fill="#000" opacity="1">length</text></g></g><path class="foreground" aria-hidden="true" d="" pointer-events="none" display="none"/></g></g><g class="mark-rect role-mark marks" role="graphics-symbol" aria-roledescription="rect mark container"><path d="M2.5,751.81197846483h15v4h-15Z" fill="#e41a1c" opacity="0.7964285714285714"/><path d="M2.5,705.6239569296598h15v4h-15Z" fill="#e41a1c" opacity="0.7875"/><path d="M2.5,694.7204441011356h15v4h-15Z" fill="#e41a1c" opacity="0.7821428571428571"/><path d="M2.5,667.3605470515639h15v4h-15Z" fill="#e41a1c" opacity="0.7749999999999999"/><path d="M2.5,651.9406513319557h15v4h-15Z" fill="#e41a1c" opacity="0.7660714285714285"/><path d="M2.5,638h15v4h-15Z" fill="#e41a1c" opacity="0.7625"/><path d="M2.5,625.180248042457h15v4h-15Z" fill="#e41a1c" opacity="0.7571428571428571"/><path d="M2.5,596.6710817261134h15v4h-15Z" fill="#e41a1c" opacity="0.75"/><path d="M2.5,591.4408882022711h15v4h-15Z" fill="#e41a1c" opacity="0.7375"/><path d="M2.5,581.3589758763744h15v4h-15Z" fill="#e41a1c" opacity="0.7303571428571428"/><path d="M2.5,540.8359797068546h15v4h-15Z" fill="#e41a1c" opacity="0.7267857142857143"/><path d="M2.5,536.7210941031277h15v4h-15Z" fill="#e41a1c" opacity="0.7196428571428571"/><path d="M2.5,513.277913279165h15v4h-15Z" fill="#e41a1c" opacity="0.7107142857142856"/><path d="M2.5,502.25235982908225h15v4h-15Z" fill="#e41a1c" opacity="0.7017857142857142"/><path d="M2.5,491.62332551797186h15v4h-15Z" fill="#e41a1c" opacity="0.6910714285714286"/><path d="M2.5,474.68384925380957h15v4h-15Z" fill="#e41a1c" opacity="0.6857142857142857"/><path d="M2.5,464.9334400854188h15v4h-15Z" fill="#e41a1c" opacity="0.6839285714285714"/><path d="M2.5,458.5887450304572h15v4h-15Z" fill="#e41a1c" opacity="0.6678571428571428"/><path d="M2.5,437.2600197741685h15v4h-15Z" fill="#e41a1c" opacity="0.6642857142857143"/><path d="M2.5,431.3939444035328h15v4h-15Z" fill="#e41a1c" opacity="0.6571428571428571"/><path d="M2.5,422.7667392141256h15v4h-15Z" fill="#e41a1c" opacity="0.6499999999999999"/><path d="M2.5,414.33347813498244h15v4h-15Z" fill="#e41a1c" opacity="0.6517857142857142"/><path d="M2.5,411.5632867682817h15v4h-15Z" fill="#e41a1c" opacity="0.6357142857142857"/><path d="M2.5,408.812812817962h15v4h-15Z" fill="#e41a1c" opacity="0.6321428571428571"/><path d="M2.5,392.7017559047823h15v4h-15Z" fill="#e41a1c" opacity="0.625"/><path d="M2.5,372.16748206209843h15v4h-15Z" fill="#e41a1c" opacity="0.6232142857142857"/><path d="M2.5,367.1868154292397h15v4h-15Z" fill="#e41a1c" opacity="0.6089285714285715"/><path d="M2.5,362.2630763101816h15v4h-15Z" fill="#e41a1c" opacity="0.6017857142857143"/><path d="M2.5,359.82195399586715h15v4h-15Z" fill="#e41a1c" opacity="0.5910714285714285"/><path d="M2.5,347.81485290308984h15v4h-15Z" fill="#e41a1c" opacity="0.5874999999999999"/><path d="M2.5,340.76191468047347h15v4h-15Z" fill="#e41a1c" opacity="0.575"/><path d="M2.5,329.2427778334149h15v4h-15Z" fill="#e41a1c" opacity="0.5767857142857142"/><path d="M2.5,326.97275379584823h15v4h-15Z" fill="#e41a1c" opacity="0.5642857142857143"/><path d="M2.5,324.71361735203084h15v4h-15Z" fill="#e41a1c" opacity="0.5607142857142857"/><path d="M2.5,320.22739020882887h15v4h-15Z" fill="#e41a1c" opacity="0.5482142857142857"/><path d="M2.5,289.93176311312936h15v4h-15Z" fill="#e41a1c" opacity="0.5571428571428572"/><path d="M2.5,275.44218820625537h15v4h-15Z" fill="#e41a1c" opacity="0.5446428571428571"/><path d="M2.5,253.45125715567644h15v4h-15Z" fill="#e41a1c" opacity="0.5214285714285714"/><path d="M2.5,249.54763196791654h15v4h-15Z" fill="#e41a1c" opacity="0.5303571428571429"/><path d="M2.5,245.67159527445398h15v4h-15Z" fill="#e41a1c" opacity="0.5267857142857143"/><path d="M2.5,230.43208923219302h15v4h-15Z" fill="#e41a1c" opacity="0.5142857142857142"/><path d="M2.5,221.11179592576175h15v4h-15Z" fill="#e41a1c" opacity="0.5017857142857143"/><path d="M2.5,219.26574895438128h15v4h-15Z" fill="#e41a1c" opacity="0.5107142857142857"/><path d="M2.5,208.3108163334406h15v4h-15Z" fill="#e41a1c" opacity="0.4857142857142857"/><path d="M2.5,204.70412103234702h15v4h-15Z" fill="#e41a1c" opacity="0.4839285714285714"/><path d="M2.5,202.9089705487628h15v4h-15Z" fill="#e41a1c" opacity="0.4714285714285714"/><path d="M2.5,190.49142667229248h15v4h-15Z" fill="#e41a1c" opacity="0.4660714285714286"/><path d="M2.5,180.04638793298847h15v4h-15Z" fill="#e41a1c" opacity="0.475"/><path d="M2.5,161.34205939662291h15v4h-15Z" fill="#e41a1c" opacity="0.4625"/><path d="M2.5,159.66884247542282h15v4h-15Z" fill="#e41a1c" opacity="0.45714285714285713"/><path d="M2.5,153.01938013611607h15v4h-15Z" fill="#e41a1c" opacity="0.44285714285714284"/><path d="M2.5,151.3676985076192h15v4h-15Z" fill="#e41a1c" opacity="0.4303571428571429"/><path d="M2.5,143.17177825020406h15v4h-15Z" fill="#e41a1c" opacity="0.4464285714285714"/><path d="M2.5,133.47009096655404h15v4h-15Z" fill="#e41a1c" opacity="0.42142857142857143"/><path d="M2.5,123.90801814589136h15v4h-15Z" fill="#e41a1c" opacity="0.41607142857142854"/><path d="M2.5,114.4797003745976h15v4h-15Z" fill="#e41a1c" opacity="0.4017857142857143"/><path d="M2.5,103.64178313111813h15v4h-15Z" fill="#e41a1c" opacity="0.40535714285714286"/><path d="M2.5,102.10728796267267h15v4h-15Z" fill="#e41a1c" opacity="0.3982142857142857"/><path d="M2.5,100.57616903349228h15v4h-15Z" fill="#e41a1c" opacity="0.3892857142857143"/><path d="M2.5,97.52397138326958h15v4h-15Z" fill="#e41a1c" opacity="0.3892857142857143"/><path d="M2.5,96.0028490086303h15v4h-15Z" fill="#e41a1c" opacity="0.38749999999999996"/><path d="M2.5,91.45913069377225h15v4h-15Z" fill="#e41a1c" opacity="0.3732142857142857"/><path d="M2.5,82.45824720006732h15v4h-15Z" fill="#e41a1c" opacity="0.375"/><path d="M2.5,76.52003954833702h15v4h-15Z" fill="#e41a1c" opacity="0.3607142857142857"/><path d="M2.5,73.5691889490067h15v4h-15Z" fill="#e41a1c" opacity="0.35357142857142854"/><path d="M2.5,67.70325665977856h15v4h-15Z" fill="#e41a1c" opacity="0.3392857142857143"/><path d="M2.5,61.884067101746126h15v4h-15Z" fill="#e41a1c" opacity="0.35714285714285715"/><path d="M2.5,44.696165769304976h15v4h-15Z" fill="#e41a1c" opacity="0.3482142857142857"/><path d="M2.5,41.86949979958273h15v4h-15Z" fill="#e41a1c" opacity="0.3392857142857143"/><path d="M2.5,40.460122061771166h15v4h-15Z" fill="#e41a1c" opacity="0.3357142857142857"/><path d="M2.5,26.50793912056364h15v4h-15Z" fill="#e41a1c" opacity="0.3196428571428571"/><path d="M2.5,22.371222813387483h15v4h-15Z" fill="#e41a1c" opacity="0.33214285714285713"/><path d="M2.5,11.446335799859988h15v4h-15Z" fill="#e41a1c" opacity="0.33035714285714285"/><path d="M2.5,6.040405071066825h15v4h-15Z" fill="#e41a1c" opacity="0.31607142857142856"/><path d="M2.5,2.0100503147041167h15v4h-15Z" fill="#e41a1c" opacity="0.3267857142857143"/><path d="M2.5,-2h15v4h-15Z" fill="#e41a1c" opacity="0.675"/><path d="M2.5,644.8116627589859h15v4h-15Z" fill="#377eb8" opacity="0.7982142857142858"/><path d="M2.5,619.1145618000169h15v4h-15Z" fill="#377eb8" opacity="0.7892857142857143"/><path d="M2.5,613.2479138593197h15v4h-15Z" fill="#377eb8" opacity="0.7857142857142857"/><path d="M2.5,571.7258300203049h15v4h-15Z" fill="#377eb8" opacity="0.7785714285714285"/><path d="M2.5,567.0598923241497h15v4h-15Z" fill="#377eb8" opacity="0.7696428571428571"/><path d="M2.5,545.0177871865297h15v4h-15Z" fill="#377eb8" opacity="0.7607142857142857"/><path d="M2.5,524.7479795744107h15v4h-15Z" fill="#377eb8" opacity="0.7535714285714286"/><path d="M2.5,517.0492332572603h15v4h-15Z" fill="#377eb8" opacity="0.7482142857142857"/><path d="M2.5,495.12488822398547h15v4h-15Z" fill="#377eb8" opacity="0.7410714285714286"/><path d="M2.5,488.16133230340665h15v4h-15Z" fill="#377eb8" opacity="0.7357142857142858"/><path d="M2.5,484.73759668078054h15v4h-15Z" fill="#377eb8" opacity="0.725"/><path d="M2.5,481.3508776789889h15v4h-15Z" fill="#377eb8" opacity="0.7124999999999999"/><path d="M2.5,471.4013676289096h15v4h-15Z" fill="#377eb8" opacity="0.7071428571428571"/><path d="M2.5,468.1515499505872h15v4h-15Z" fill="#377eb8" opacity="0.7053571428571428"/><path d="M2.5,461.74612765550694h15v4h-15Z" fill="#377eb8" opacity="0.6964285714285714"/><path d="M2.5,455.4604645689299h15v4h-15Z" fill="#377eb8" opacity="0.6875"/><path d="M2.5,452.3604960849142h15v4h-15Z" fill="#377eb8" opacity="0.6821428571428572"/><path d="M2.5,443.22307478266487h15v4h-15Z" fill="#377eb8" opacity="0.6767857142857143"/><path d="M2.5,434.3151547470439h15v4h-15Z" fill="#377eb8" opacity="0.6625"/><path d="M2.5,425.62026549949496h15v4h-15Z" fill="#377eb8" opacity="0.6589285714285714"/><path d="M2.5,419.9347498997914h15v4h-15Z" fill="#377eb8" opacity="0.6464285714285714"/><path d="M2.5,417.1238171443814h15v4h-15Z" fill="#377eb8" opacity="0.6446428571428571"/><path d="M2.5,406.0816411546916h15v4h-15Z" fill="#377eb8" opacity="0.6375"/><path d="M2.5,398h15v4h-15Z" fill="#377eb8" opacity="0.6196428571428572"/><path d="M2.5,379.74967623045006h15v4h-15Z" fill="#377eb8" opacity="0.6178571428571429"/><path d="M2.5,354.9800606443694h15v4h-15Z" fill="#377eb8" opacity="0.6125"/><path d="M2.5,343.10074375381396h15v4h-15Z" fill="#377eb8" opacity="0.6107142857142858"/><path d="M2.5,338.4349882769577h15v4h-15Z" fill="#377eb8" opacity="0.5982142857142857"/><path d="M2.5,336.1197846482994h15v4h-15Z" fill="#377eb8" opacity="0.5892857142857142"/><path d="M2.5,318h15v4h-15Z" fill="#377eb8" opacity="0.5928571428571429"/><path d="M2.5,292.0355743730594h15v4h-15Z" fill="#377eb8" opacity="0.5785714285714285"/><path d="M2.5,287.8366274744269h15v4h-15Z" fill="#377eb8" opacity="0.5732142857142857"/><path d="M2.5,281.60222050567774h15v4h-15Z" fill="#377eb8" opacity="0.5625"/><path d="M2.5,273.40491805584h15v4h-15Z" fill="#377eb8" opacity="0.5625"/><path d="M2.5,261.34368540005056h15v4h-15Z" fill="#377eb8" opacity="0.55"/><path d="M2.5,259.3597366206892h15v4h-15Z" fill="#377eb8" opacity="0.5517857142857143"/><path d="M2.5,228.55582655833015h15v4h-15Z" fill="#377eb8" opacity="0.5357142857142857"/><path d="M2.5,222.96376925739136h15v4h-15Z" fill="#377eb8" opacity="0.5321428571428571"/><path d="M2.5,211.9397073110424h15v4h-15Z" fill="#377eb8" opacity="0.5285714285714286"/><path d="M2.5,197.5557200427893h15v4h-15Z" fill="#377eb8" opacity="0.525"/><path d="M2.5,195.7818778327352h15v4h-15Z" fill="#377eb8" opacity="0.5160714285714285"/><path d="M2.5,192.24977644797093h15v4h-15Z" fill="#377eb8" opacity="0.5071428571428571"/><path d="M2.5,181.77493289112846h15v4h-15Z" fill="#377eb8" opacity="0.5089285714285714"/><path d="M2.5,178.32266460681336h15v4h-15Z" fill="#377eb8" opacity="0.4928571428571428"/><path d="M2.5,158.00000000000014h15v4h-15Z" fill="#377eb8" opacity="0.4714285714285714"/><path d="M2.5,156.3354978391486h15v4h-15Z" fill="#377eb8" opacity="0.4821428571428571"/><path d="M2.5,141.54487332847094h15v4h-15Z" fill="#377eb8" opacity="0.46785714285714286"/><path d="M2.5,130.2675186373913h15v4h-15Z" fill="#377eb8" opacity="0.4607142857142857"/><path d="M2.5,122.32749550293724h15v4h-15Z" fill="#377eb8" opacity="0.4642857142857143"/><path d="M2.5,116.04203453096429h15v4h-15Z" fill="#377eb8" opacity="0.44999999999999996"/><path d="M2.5,111.36569655553426h15v4h-15Z" fill="#377eb8" opacity="0.4392857142857143"/><path d="M2.5,109.81397863658998h15v4h-15Z" fill="#377eb8" opacity="0.4375"/><path d="M2.5,105.17967697244913h15v4h-15Z" fill="#377eb8" opacity="0.4178571428571428"/><path d="M2.5,89.95103747457321h15v4h-15Z" fill="#377eb8" opacity="0.4357142857142857"/><path d="M2.5,72.09826192980277h15v4h-15Z" fill="#377eb8" opacity="0.4232142857142857"/><path d="M2.5,69.16531366845615h15v4h-15Z" fill="#377eb8" opacity="0.41428571428571426"/><path d="M2.5,57.549686564542895h15v4h-15Z" fill="#377eb8" opacity="0.39999999999999997"/><path d="M2.5,48.956165056632585h15v4h-15Z" fill="#377eb8" opacity="0.4035714285714286"/><path d="M2.5,47.53347842825133h15v4h-15Z" fill="#377eb8" opacity="0.39107142857142857"/><path d="M2.5,43.281509435471804h15v4h-15Z" fill="#377eb8" opacity="0.38035714285714284"/><path d="M2.5,36.247634288762725h15v4h-15Z" fill="#377eb8" opacity="0.36964285714285716"/><path d="M2.5,33.45220336898937h15v4h-15Z" fill="#377eb8" opacity="0.37142857142857144"/><path d="M2.5,29.27811704535608h15v4h-15Z" fill="#377eb8" opacity="0.3767857142857143"/><path d="M2.5,18.256452415282933h15v4h-15Z" fill="#377eb8" opacity="0.37857142857142856"/><path d="M2.5,15.525293273535603h15v4h-15Z" fill="#377eb8" opacity="0.3464285714285714"/><path d="M2.5,12.803633902109059h15v4h-15Z" fill="#377eb8" opacity="0.35892857142857143"/><path d="M2.5,10.091375856311792h15v4h-15Z" fill="#377eb8" opacity="0.3553571428571428"/><path d="M2.5,-2h15v4h-15Z" fill="#377eb8" opacity="0.7339285714285715"/><path d="M2.5,718h15v4h-15Z" fill="#4daf4a" opacity="0.8"/><path d="M2.5,558h15v4h-15Z" fill="#4daf4a" opacity="0.7910714285714285"/><path d="M2.5,549.2698919176316h15v4h-15Z" fill="#4daf4a" opacity="0.7839285714285714"/><path d="M2.5,532.6700167715679h15v4h-15Z" fill="#4daf4a" opacity="0.7767857142857142"/><path d="M2.5,528.6798683103447h15v4h-15Z" fill="#4daf4a" opacity="0.7678571428571428"/><path d="M2.5,520.8718707889798h15v4h-15Z" fill="#4daf4a" opacity="0.7642857142857142"/><path d="M2.5,498.66740905808473h15v4h-15Z" fill="#4daf4a" opacity="0.7553571428571428"/><path d="M2.5,478.00000000000006h15v4h-15Z" fill="#4daf4a" opacity="0.7446428571428572"/><path d="M2.5,395.34216345222666h15v4h-15Z" fill="#4daf4a" opacity="0.7428571428571429"/><path d="M2.5,387.4718848442493h15v4h-15Z" fill="#4daf4a" opacity="0.7321428571428571"/><path d="M2.5,374.67979022966557h15v4h-15Z" fill="#4daf4a" opacity="0.7214285714285714"/><path d="M2.5,369.66990922109306h15v4h-15Z" fill="#4daf4a" opacity="0.7178571428571429"/><path d="M2.5,364.71795175274883h15v4h-15Z" fill="#4daf4a" opacity="0.7089285714285714"/><path d="M2.5,357.39435621711186h15v4h-15Z" fill="#4daf4a" opacity="0.7"/><path d="M2.5,352.5788509735983h15v4h-15Z" fill="#4daf4a" opacity="0.6982142857142857"/><path d="M2.5,350.190516700089h15v4h-15Z" fill="#4daf4a" opacity="0.6928571428571428"/><path d="M2.5,333.8161283858878h15v4h-15Z" fill="#4daf4a" opacity="0.6803571428571429"/><path d="M2.5,315.7828981326634h15v4h-15Z" fill="#4daf4a" opacity="0.6714285714285715"/><path d="M2.5,313.57594334440137h15v4h-15Z" fill="#4daf4a" opacity="0.6589285714285714"/><path d="M2.5,307.0145962794142h15v4h-15Z" fill="#4daf4a" opacity="0.6553571428571429"/><path d="M2.5,302.68865010648784h15v4h-15Z" fill="#4daf4a" opacity="0.6535714285714285"/><path d="M2.5,285.7500610053722h15v4h-15Z" fill="#4daf4a" opacity="0.6410714285714285"/><path d="M2.5,283.67195941370915h15v4h-15Z" fill="#4daf4a" opacity="0.6392857142857142"/><path d="M2.5,277.48743210818316h15v4h-15Z" fill="#4daf4a" opacity="0.6267857142857143"/><path d="M2.5,265.33375052164854h15v4h-15Z" fill="#4daf4a" opacity="0.6214285714285714"/><path d="M2.5,257.3830684609789h15v4h-15Z" fill="#4daf4a" opacity="0.6142857142857143"/><path d="M2.5,255.41360134997865h15v4h-15Z" fill="#4daf4a" opacity="0.6053571428571428"/><path d="M2.5,251.49595914882147h15v4h-15Z" fill="#4daf4a" opacity="0.6"/><path d="M2.5,239.90801236116403h15v4h-15Z" fill="#4daf4a" opacity="0.5964285714285714"/><path d="M2.5,238.00000000000003h15v4h-15Z" fill="#4daf4a" opacity="0.5821428571428571"/><path d="M2.5,236.0984665145207h15v4h-15Z" fill="#4daf4a" opacity="0.5714285714285714"/><path d="M2.5,234.20334635024074h15v4h-15Z" fill="#4daf4a" opacity="0.5696428571428571"/><path d="M2.5,232.31457505076202h15v4h-15Z" fill="#4daf4a" opacity="0.5660714285714286"/><path d="M2.5,224.821726394542h15v4h-15Z" fill="#4daf4a" opacity="0.5589285714285714"/><path d="M2.5,215.59120885755863h15v4h-15Z" fill="#4daf4a" opacity="0.5553571428571429"/><path d="M2.5,210.12246173203732h15v4h-15Z" fill="#4daf4a" opacity="0.5482142857142857"/><path d="M2.5,206.50471965816445h15v4h-15Z" fill="#4daf4a" opacity="0.5410714285714285"/><path d="M2.5,201.11921905068297h15v4h-15Z" fill="#4daf4a" opacity="0.5339285714285714"/><path d="M2.5,199.33481811616943h15v4h-15Z" fill="#4daf4a" opacity="0.5232142857142856"/><path d="M2.5,188.73815153088736h15v4h-15Z" fill="#4daf4a" opacity="0.5178571428571428"/><path d="M2.5,174.88952290411083h15v4h-15Z" fill="#4daf4a" opacity="0.5196428571428571"/><path d="M2.5,173.18002592746765h15v4h-15Z" fill="#4daf4a" opacity="0.5"/><path d="M2.5,171.47519336156108h15v4h-15Z" fill="#4daf4a" opacity="0.4982142857142857"/><path d="M2.5,169.77498723254692h15v4h-15Z" fill="#4daf4a" opacity="0.48928571428571427"/><path d="M2.5,166.38830494255942h15v4h-15Z" fill="#4daf4a" opacity="0.49464285714285716"/><path d="M2.5,163.01968534449833h15v4h-15Z" fill="#4daf4a" opacity="0.4875"/><path d="M2.5,154.67530230320975h15v4h-15Z" fill="#4daf4a" opacity="0.46964285714285714"/><path d="M2.5,149.72022500569514h15v4h-15Z" fill="#4daf4a" opacity="0.4589285714285714"/><path d="M2.5,144.80273525781917h15v4h-15Z" fill="#4daf4a" opacity="0.45714285714285713"/><path d="M2.5,139.9219904398366h15v4h-15Z" fill="#4daf4a" opacity="0.45535714285714285"/><path d="M2.5,136.68817239268037h15v4h-15Z" fill="#4daf4a" opacity="0.45178571428571423"/><path d="M2.5,131.86688017083765h15v4h-15Z" fill="#4daf4a" opacity="0.42678571428571427"/><path d="M2.5,128.67197877273964h15v4h-15Z" fill="#4daf4a" opacity="0.43392857142857144"/><path d="M2.5,125.4922553110139h15v4h-15Z" fill="#4daf4a" opacity="0.42857142857142855"/><path d="M2.5,117.60795615076947h15v4h-15Z" fill="#4daf4a" opacity="0.4196428571428571"/><path d="M2.5,106.72099216982835h15v4h-15Z" fill="#4daf4a" opacity="0.4125"/><path d="M2.5,99.0484041556717h15v4h-15Z" fill="#4daf4a" opacity="0.4107142857142857"/><path d="M2.5,92.97044979187822h15v4h-15Z" fill="#4daf4a" opacity="0.39464285714285713"/><path d="M2.5,88.44614956532966h15v4h-15Z" fill="#4daf4a" opacity="0.3964285714285714"/><path d="M2.5,85.4459084860061h15v4h-15Z" fill="#4daf4a" opacity="0.3857142857142857"/><path d="M2.5,80.96908481339989h15v4h-15Z" fill="#4daf4a" opacity="0.37857142857142856"/><path d="M2.5,79.48300878360119h15v4h-15Z" fill="#4daf4a" opacity="0.3839285714285714"/><path d="M2.5,78.00000000000007h15v4h-15Z" fill="#4daf4a" opacity="0.3821428571428571"/><path d="M2.5,70.63030949408771h15v4h-15Z" fill="#4daf4a" opacity="0.35178571428571426"/><path d="M2.5,66.24412085268045h15v4h-15Z" fill="#4daf4a" opacity="0.3625"/><path d="M2.5,58.991655437279135h15v4h-15Z" fill="#4daf4a" opacity="0.34464285714285714"/><path d="M2.5,54.674140545794494h15v4h-15Z" fill="#4daf4a" opacity="0.34285714285714286"/><path d="M2.5,53.24053099898989h15v4h-15Z" fill="#4daf4a" opacity="0.3678571428571428"/><path d="M2.5,50.38155899327008h15v4h-15Z" fill="#4daf4a" opacity="0.35"/><path d="M2.5,46.11348374017692h15v4h-15Z" fill="#4daf4a" opacity="0.34285714285714286"/><path d="M2.5,34.84863886644365h15v4h-15Z" fill="#4daf4a" opacity="0.33749999999999997"/><path d="M2.5,32.05831379492952h15v4h-15Z" fill="#4daf4a" opacity="0.325"/><path d="M2.5,19.625625635924095h15v4h-15Z" fill="#4daf4a" opacity="0.31607142857142856"/><path d="M2.5,16.889679153236916h15v4h-15Z" fill="#4daf4a" opacity="0.3142857142857143"/><path d="M2.5,3.3512306265952603h15v4h-15Z" fill="#4daf4a" opacity="0.3214285714285714"/><path d="M2.5,0.6711259879439453h15v4h-15Z" fill="#4daf4a" opacity="0.3107142857142857"/><path d="M2.5,-2h15v4h-15Z" fill="#4daf4a" opacity="0.6732142857142858"/><path d="M2.5,732.6802735257819h15v4h-15Z" fill="#984ea3" opacity="0.7946428571428571"/><path d="M2.5,684.8629150101524h15v4h-15Z" fill="#984ea3" opacity="0.7928571428571428"/><path d="M2.5,675.7979814678442h15v4h-15Z" fill="#984ea3" opacity="0.7803571428571427"/><path d="M2.5,659.4359353944899h15v4h-15Z" fill="#984ea3" opacity="0.7732142857142856"/><path d="M2.5,631.4667200427094h15v4h-15Z" fill="#984ea3" opacity="0.7714285714285714"/><path d="M2.5,607.5619085721908h15v4h-15Z" fill="#984ea3" opacity="0.7589285714285714"/><path d="M2.5,602.0408205773458h15v4h-15Z" fill="#984ea3" opacity="0.7517857142857143"/><path d="M2.5,586.3398951148328h15v4h-15Z" fill="#984ea3" opacity="0.7464285714285714"/><path d="M2.5,576.4900303221847h15v4h-15Z" fill="#984ea3" opacity="0.7392857142857143"/><path d="M2.5,562.4863768979241h15v4h-15Z" fill="#984ea3" opacity="0.7285714285714285"/><path d="M2.5,553.5959629356886h15v4h-15Z" fill="#984ea3" opacity="0.7232142857142857"/><path d="M2.5,509.55589796288086h15v4h-15Z" fill="#984ea3" opacity="0.7160714285714285"/><path d="M2.5,505.8813026639114h15v4h-15Z" fill="#984ea3" opacity="0.7142857142857142"/><path d="M2.5,449.28808451674615h15v4h-15Z" fill="#984ea3" opacity="0.7035714285714285"/><path d="M2.5,446.2425077793888h15v4h-15Z" fill="#984ea3" opacity="0.6946428571428571"/><path d="M2.5,440.2291236000337h15v4h-15Z" fill="#984ea3" opacity="0.6892857142857143"/><path d="M2.5,428.4958277186396h15v4h-15Z" fill="#984ea3" opacity="0.6785714285714286"/><path d="M2.5,403.36937101470033h15v4h-15Z" fill="#984ea3" opacity="0.6696428571428571"/><path d="M2.5,400.6756153132976h15v4h-15Z" fill="#984ea3" opacity="0.6660714285714285"/><path d="M2.5,390.0784389125772h15v4h-15Z" fill="#984ea3" opacity="0.6607142857142857"/><path d="M2.5,384.8817764045422h15v4h-15Z" fill="#984ea3" opacity="0.6482142857142856"/><path d="M2.5,382.3078061834695h15v4h-15Z" fill="#984ea3" opacity="0.6428571428571428"/><path d="M2.5,377.20709765174666h15v4h-15Z" fill="#984ea3" opacity="0.6375"/><path d="M2.5,345.4516600406097h15v4h-15Z" fill="#984ea3" opacity="0.6303571428571428"/><path d="M2.5,331.523848412376h15v4h-15Z" fill="#984ea3" opacity="0.6285714285714286"/><path d="M2.5,322.4652133299465h15v4h-15Z" fill="#984ea3" opacity="0.6160714285714286"/><path d="M2.5,311.37899757614247h15v4h-15Z" fill="#984ea3" opacity="0.6071428571428571"/><path d="M2.5,309.19192587137707h15v4h-15Z" fill="#984ea3" opacity="0.6035714285714285"/><path d="M2.5,304.846879762482h15v4h-15Z" fill="#984ea3" opacity="0.5946428571428571"/><path d="M2.5,300.5397838352633h15v4h-15Z" fill="#984ea3" opacity="0.5857142857142856"/><path d="M2.5,298.40016012812816h15v4h-15Z" fill="#984ea3" opacity="0.5803571428571428"/><path d="M2.5,296.26966074061926h15v4h-15Z" fill="#984ea3" opacity="0.5839285714285714"/><path d="M2.5,294.14816992823523h15v4h-15Z" fill="#984ea3" opacity="0.5678571428571428"/><path d="M2.5,279.5407441273712h15v4h-15Z" fill="#984ea3" opacity="0.5625"/><path d="M2.5,271.37552911649345h15v4h-15Z" fill="#984ea3" opacity="0.5535714285714286"/><path d="M2.5,269.3539306240264h15v4h-15Z" fill="#984ea3" opacity="0.5464285714285714"/><path d="M2.5,267.34003354313603h15v4h-15Z" fill="#984ea3" opacity="0.5392857142857143"/><path d="M2.5,263.3349958463088h15v4h-15Z" fill="#984ea3" opacity="0.5428571428571428"/><path d="M2.5,247.60620158532558h15v4h-15Z" fill="#984ea3" opacity="0.5375"/><path d="M2.5,243.74374157795936h15v4h-15Z" fill="#984ea3" opacity="0.5125"/><path d="M2.5,241.8225702769544h15v4h-15Z" fill="#984ea3" opacity="0.5053571428571428"/><path d="M2.5,226.6857257165721h15v4h-15Z" fill="#984ea3" opacity="0.5035714285714286"/><path d="M2.5,217.42557181127356h15v4h-15Z" fill="#984ea3" opacity="0.49642857142857144"/><path d="M2.5,213.76260532782285h15v4h-15Z" fill="#984ea3" opacity="0.49107142857142855"/><path d="M2.5,194.01324517834007h15v4h-15Z" fill="#984ea3" opacity="0.4803571428571428"/><path d="M2.5,186.9899073392214h15v4h-15Z" fill="#984ea3" opacity="0.47678571428571426"/><path d="M2.5,185.24665103594367h15v4h-15Z" fill="#984ea3" opacity="0.4732142857142857"/><path d="M2.5,183.50834017051142h15v4h-15Z" fill="#984ea3" opacity="0.47857142857142854"/><path d="M2.5,176.60372278767773h15v4h-15Z" fill="#984ea3" opacity="0.4535714285714285"/><path d="M2.5,168.0793700790552h15v4h-15Z" fill="#984ea3" opacity="0.4446428571428571"/><path d="M2.5,164.7017553579778h15v4h-15Z" fill="#984ea3" opacity="0.4482142857142857"/><path d="M2.5,148.07692762912325h15v4h-15Z" fill="#984ea3" opacity="0.44107142857142856"/><path d="M2.5,146.43777478023387h15v4h-15Z" fill="#984ea3" opacity="0.41607142857142854"/><path d="M2.5,138.3030999011744h15v4h-15Z" fill="#984ea3" opacity="0.425"/><path d="M2.5,135.07717895167724h15v4h-15Z" fill="#984ea3" opacity="0.43214285714285716"/><path d="M2.5,127.0802333115135h15v4h-15Z" fill="#984ea3" opacity="0.4303571428571429"/><path d="M2.5,120.75066137598438h15v4h-15Z" fill="#984ea3" opacity="0.4089285714285714"/><path d="M2.5,119.17749006091438h15v4h-15Z" fill="#984ea3" opacity="0.40714285714285714"/><path d="M2.5,112.92092913785984h15v4h-15Z" fill="#984ea3" opacity="0.4017857142857143"/><path d="M2.5,108.26575165986338h15v4h-15Z" fill="#984ea3" opacity="0.36428571428571427"/><path d="M2.5,94.48501555877766h15v4h-15Z" fill="#984ea3" opacity="0.39285714285714285"/><path d="M2.5,86.94444661475296h15v4h-15Z" fill="#984ea3" opacity="0.38035714285714284"/><path d="M2.5,83.95051525355287h15v4h-15Z" fill="#984ea3" opacity="0.36964285714285716"/><path d="M2.5,75.04310870794887h15v4h-15Z" fill="#984ea3" opacity="0.3607142857142857"/><path d="M2.5,64.78788880706561h15v4h-15Z" fill="#984ea3" opacity="0.36607142857142855"/><path d="M2.5,63.33454325568479h15v4h-15Z" fill="#984ea3" opacity="0.36607142857142855"/><path d="M2.5,60.43644341656909h15v4h-15Z" fill="#984ea3" opacity="0.3410714285714286"/><path d="M2.5,56.11052036034381h15v4h-15Z" fill="#984ea3" opacity="0.3339285714285714"/><path d="M2.5,51.809675752894925h15v4h-15Z" fill="#984ea3" opacity="0.3339285714285714"/><path d="M2.5,39.05336155958908h15v4h-15Z" fill="#984ea3" opacity="0.3357142857142857"/><path d="M2.5,37.64920376622647h15v4h-15Z" fill="#984ea3" opacity="0.32857142857142857"/><path d="M2.5,30.666956269964942h15v4h-15Z" fill="#984ea3" opacity="0.3232142857142857"/><path d="M2.5,27.89178249633877h15v4h-15Z" fill="#984ea3" opacity="0.3196428571428571"/><path d="M2.5,25.12657353656338h15v4h-15Z" fill="#984ea3" opacity="0.31785714285714284"/><path d="M2.5,23.747672482241324h15v4h-15Z" fill="#984ea3" opacity="0.3125"/><path d="M2.5,20.997211502215276h15v4h-15Z" fill="#984ea3" opacity="0.3071428571428571"/><path d="M2.5,14.163282309383131h15v4h-15Z" fill="#984ea3" opacity="0.30892857142857144"/><path d="M2.5,8.738742029400594h15v4h-15Z" fill="#984ea3" opacity="0.3"/><path d="M2.5,7.3884223800750455h15v4h-15Z" fill="#984ea3" opacity="0.3053571428571428"/><path d="M2.5,4.694678365679252h15v4h-15Z" fill="#984ea3" opacity="0.30357142857142855"/><path d="M2.5,-0.6655536998365612h15v4h-15Z" fill="#984ea3" opacity="0.30178571428571427"/><path d="M2.5,-2h15v4h-15Z" fill="#984ea3" opacity="0.6339285714285714"/></g><g class="mark-group role-legend" role="graphics-symbol" aria-roledescription="legend" aria-label="Symbol legend titled 'base' for fill color with 4 values: A, C, G, T"><g transform="translate(38,0)"><path class="background" aria-hidden="true" d="M0,0h26v66h-26Z" pointer-events="none"/><g><g class="mark-group role-legend-entry"><g transform="translate(0,16)"><path class="background" aria-hidden="true" d="M0,0h0v0h0Z" pointer-events="none"/><g><g class="mark-group role-scope" role="graphics-object" aria-roledescription="group mark container"><g transform="translate(0,0)"><path class="background" aria-hidden="true" d="M0,0h23.7783203125v11h-23.7783203125Z" pointer-events="none" opacity="1"/><g><g class="mark-symbol role-legend-symbol" pointer-events="none"><path transform="translate(6,6)" d="M5,0A5,5,0,1,1,-5,0A5,5,0,1,1,5,0" fill="#e41a1c" stroke-width="1.5" opacity="0.7"/></g><g class="mark-text role-legend-label" pointer-events="none"><text text-anchor="start" transform="translate(16,9)" font-family="sans-serif" font-size="10px" fill="#000" opacity="1">A</text></g></g><path class="foreground" aria-hidden="true" d="" pointer-events="none" display="none"/></g><g transform="translate(0,13)"><path class="background" aria-hidden="true" d="M0,0h23.7783203125v11h-23.7783203125Z" pointer-events="none" opacity="1"/><g><g class="mark-symbol role-legend-symbol" pointer-events="none"><path transform="translate(6,6)" d="M5,0A5,5,0,1,1,-5,0A5,5,0,1,1,5,0" fill="#377eb8" stroke-width="1.5" opacity="0.7"/></g><g class="mark-text role-legend-label" pointer-events="none"><text text-anchor="start" transform="translate(16,9)" font-family="sans-serif" font-size="10px" fill="#000" opacity="1">C</text></g></g><path class="foreground" aria-hidden="true" d="" pointer-events="none" display="none"/></g><g transform="translate(0,26)"><path class="background" aria-hidden="true" d="M0,0h23.7783203125v11h-23.7783203125Z" pointer-events="none" opacity="1"/><g><g class="mark-symbol role-legend-symbol" pointer-events="none"><path transform="translate(6,6)" d="M5,0A5,5,0,1,1,-5,0A5,5,0,1,1,5,0" fill="#4daf4a" stroke-width="1.5" opacity="0.7"/></g><g class="mark-text role-legend-label" pointer-events="none"><text text-anchor="start" transform="translate(16,9)" font-family="sans-serif" font-size="10px" fill="#000" opacity="1">G</text></g></g><path class="foreground" aria-hidden="true" d="" pointer-events="none" display="none"/></g><g transform="translate(0,39)"><path class="background" aria-hidden="true" d="M0,0h23.7783203125v11h-23.7783203125Z" pointer-events="none" opacity="1"/><g><g class="mark-symbol role-legend-symbol" pointer-events="none"><path transform="translate(6,6)" d="M5,0A5,5,0,1,1,-5,0A5,5,0,1,1,5,0" fill="#984ea3" stroke-width="1.5" opacity="0.7"/></g><g class="mark-text role-legend-label" pointer-events="none"><text text-anchor="start" transform="translate(16,9)" font-family="sans-serif" font-size="10px" fill="#000" opacity="1">T</text></g></g><path class="foreground" aria-hidden="true" d="" pointer-events="none" display="none"/></g></g></g><path class="foreground" aria-hidden="true" d="" pointer-events="none" display="none"/></g></g><g class="mark-text role-legend-title" pointer-events="none"><text text-anchor="start" transform="translate(0,9)" font-family="sans-serif" font-size="11px" font-weight="bold" fill="#000" opacity="1">base</text></g></g><path class="foreground" aria-hidden="true" d="" pointer-events="none" display="none"/></g></g></g><path class="foreground" aria-hidden="true" d="" display="none"/></g></g></g></svg>