<?xml version="1.0" encoding="UTF-8" standalone="no"?>
<svg width="457.906mm" height="352.778mm"
 viewBox="0 0 1298 1000"
 xmlns="http://www.w3.org/2000/svg" xmlns:xlink="http://www.w3.org/1999/xlink"  version="1.2" baseProfile="tiny">
<title>Qt SVG Document</title>
<desc>Generated with Qt</desc>
<defs>
</defs>
<g fill="none" stroke="black" stroke-width="1" fill-rule="evenodd" stroke-linecap="square" stroke-linejoin="bevel" >

<g fill="#ffffff" fill-opacity="1" stroke="none" transform="matrix(1,0,0,1,0,0)"
font-family="Helvetica" font-size="12" font-weight="400" font-style="normal" 
>
<rect x="0" y="0" width="1298" height="1000"/>
</g>

<g fill="none" stroke="#000000" stroke-opacity="1" stroke-width="1" stroke-linecap="square" stroke-linejoin="bevel" transform="matrix(1,0,0,1,0,0)"
font-family="Helvetica" font-size="12" font-weight="400" font-style="normal" 
>
</g>

<g fill="none" stroke="#000000" stroke-opacity="1" stroke-width="1" stroke-linecap="square" stroke-linejoin="bevel" transform="matrix(1,0,0,1,0,0)"
font-family="Helvetica" font-size="12" font-weight="400" font-style="normal" 
>
</g>

<g fill="none" stroke="#000000" stroke-opacity="1" stroke-width="1" stroke-linecap="square" stroke-linejoin="bevel" transform="matrix(3.75191,0,0,3.75191,-28.0246,-25.0837)"
font-family="Helvetica" font-size="12" font-weight="400" font-style="normal" 
>
</g>

<g fill="none" stroke="#000000" stroke-opacity="0.705882" stroke-width="1.5" stroke-linecap="round" stroke-linejoin="bevel" transform="matrix(3.75191,0,0,3.75191,-28.0246,-25.0837)"
font-family="Helvetica" font-size="12" font-weight="400" font-style="normal" 
>
<path vector-effect="none" fill-rule="evenodd" d="M76.7653,64.7188 C78.5455,62.5335 75.1474,62.3522 73.0112,60.5133 "/>
</g>

<g fill="none" stroke="#000000" stroke-opacity="1" stroke-width="1" stroke-linecap="square" stroke-linejoin="bevel" transform="matrix(3.75191,0,0,3.75191,-28.0246,-25.0837)"
font-family="Helvetica" font-size="12" font-weight="400" font-style="normal" 
>
</g>

<g fill="none" stroke="#000000" stroke-opacity="1" stroke-width="1" stroke-linecap="square" stroke-linejoin="bevel" transform="matrix(3.75191,0,0,3.75191,-28.0246,-25.0837)"
font-family="Helvetica" font-size="12" font-weight="400" font-style="normal" 
>
</g>

<g fill="none" stroke="#000000" stroke-opacity="0.705882" stroke-width="1.5" stroke-linecap="round" stroke-linejoin="bevel" transform="matrix(3.75191,0,0,3.75191,-28.0246,-25.0837)"
font-family="Helvetica" font-size="12" font-weight="400" font-style="normal" 
>
<path vector-effect="none" fill-rule="evenodd" d="M76.7653,64.7188 C78.6279,62.4323 79.4887,63.5344 82.3511,62.8244 "/>
</g>

<g fill="none" stroke="#000000" stroke-opacity="1" stroke-width="1" stroke-linecap="square" stroke-linejoin="bevel" transform="matrix(3.75191,0,0,3.75191,-28.0246,-25.0837)"
font-family="Helvetica" font-size="12" font-weight="400" font-style="normal" 
>
</g>

<g fill="none" stroke="#000000" stroke-opacity="1" stroke-width="1" stroke-linecap="square" stroke-linejoin="bevel" transform="matrix(3.75191,0,0,3.75191,-28.0246,-25.0837)"
font-family="Helvetica" font-size="12" font-weight="400" font-style="normal" 
>
</g>

<g fill="none" stroke="#000000" stroke-opacity="0.705882" stroke-width="1.5" stroke-linecap="round" stroke-linejoin="bevel" transform="matrix(3.75191,0,0,3.75191,-28.0246,-25.0837)"
font-family="Helvetica" font-size="12" font-weight="400" font-style="normal" 
>
<path vector-effect="none" fill-rule="evenodd" d="M76.7653,64.7188 C78.4183,62.6896 80.8851,65.9025 80.4097,68.4762 "/>
</g>

<g fill="none" stroke="#000000" stroke-opacity="1" stroke-width="1" stroke-linecap="square" stroke-linejoin="bevel" transform="matrix(3.75191,0,0,3.75191,-28.0246,-25.0837)"
font-family="Helvetica" font-size="12" font-weight="400" font-style="normal" 
>
</g>

<g fill="none" stroke="#000000" stroke-opacity="1" stroke-width="1" stroke-linecap="square" stroke-linejoin="bevel" transform="matrix(3.75191,0,0,3.75191,-28.0246,-25.0837)"
font-family="Helvetica" font-size="12" font-weight="400" font-style="normal" 
>
</g>

<g fill="none" stroke="#000000" stroke-opacity="0.705882" stroke-width="1.5" stroke-linecap="round" stroke-linejoin="bevel" transform="matrix(3.75191,0,0,3.75191,-28.0246,-25.0837)"
font-family="Helvetica" font-size="12" font-weight="400" font-style="normal" 
>
<path vector-effect="none" fill-rule="evenodd" d="M73.0178,69.319 C71.2982,71.43 74.2411,71.9246 74.1488,74.6458 "/>
</g>

<g fill="none" stroke="#000000" stroke-opacity="1" stroke-width="1" stroke-linecap="square" stroke-linejoin="bevel" transform="matrix(3.75191,0,0,3.75191,-28.0246,-25.0837)"
font-family="Helvetica" font-size="12" font-weight="400" font-style="normal" 
>
</g>

<g fill="none" stroke="#000000" stroke-opacity="1" stroke-width="1" stroke-linecap="square" stroke-linejoin="bevel" transform="matrix(3.75191,0,0,3.75191,-28.0246,-25.0837)"
font-family="Helvetica" font-size="12" font-weight="400" font-style="normal" 
>
</g>

<g fill="none" stroke="#000000" stroke-opacity="0.705882" stroke-width="1.5" stroke-linecap="round" stroke-linejoin="bevel" transform="matrix(3.75191,0,0,3.75191,-28.0246,-25.0837)"
font-family="Helvetica" font-size="12" font-weight="400" font-style="normal" 
>
<path vector-effect="none" fill-rule="evenodd" d="M59.3604,78.7053 C61.5013,77.1611 61.9272,77.7689 63.9086,76.0247 "/>
</g>

<g fill="none" stroke="#000000" stroke-opacity="1" stroke-width="1" stroke-linecap="square" stroke-linejoin="bevel" transform="matrix(3.75191,0,0,3.75191,-28.0246,-25.0837)"
font-family="Helvetica" font-size="12" font-weight="400" font-style="normal" 
>
</g>

<g fill="none" stroke="#000000" stroke-opacity="1" stroke-width="1" stroke-linecap="square" stroke-linejoin="bevel" transform="matrix(3.75191,0,0,3.75191,-28.0246,-25.0837)"
font-family="Helvetica" font-size="12" font-weight="400" font-style="normal" 
>
</g>

<g fill="none" stroke="#000000" stroke-opacity="0.705882" stroke-width="1.5" stroke-linecap="round" stroke-linejoin="bevel" transform="matrix(3.75191,0,0,3.75191,-28.0246,-25.0837)"
font-family="Helvetica" font-size="12" font-weight="400" font-style="normal" 
>
<path vector-effect="none" fill-rule="evenodd" d="M68.1361,72.3031 C70.2834,70.4128 71.211,71.537 73.0178,69.319 "/>
</g>

<g fill="none" stroke="#000000" stroke-opacity="1" stroke-width="1" stroke-linecap="square" stroke-linejoin="bevel" transform="matrix(3.75191,0,0,3.75191,-28.0246,-25.0837)"
font-family="Helvetica" font-size="12" font-weight="400" font-style="normal" 
>
</g>

<g fill="none" stroke="#000000" stroke-opacity="1" stroke-width="1" stroke-linecap="square" stroke-linejoin="bevel" transform="matrix(3.75191,0,0,3.75191,-28.0246,-25.0837)"
font-family="Helvetica" font-size="12" font-weight="400" font-style="normal" 
>
</g>

<g fill="none" stroke="#000000" stroke-opacity="0.705882" stroke-width="1.5" stroke-linecap="round" stroke-linejoin="bevel" transform="matrix(3.75191,0,0,3.75191,-28.0246,-25.0837)"
font-family="Helvetica" font-size="12" font-weight="400" font-style="normal" 
>
<path vector-effect="none" fill-rule="evenodd" d="M87.9566,61.4339 C90.5048,60.8017 89.1257,59.0727 90.5611,56.8744 "/>
</g>

<g fill="none" stroke="#000000" stroke-opacity="1" stroke-width="1" stroke-linecap="square" stroke-linejoin="bevel" transform="matrix(3.75191,0,0,3.75191,-28.0246,-25.0837)"
font-family="Helvetica" font-size="12" font-weight="400" font-style="normal" 
>
</g>

<g fill="none" stroke="#000000" stroke-opacity="1" stroke-width="1" stroke-linecap="square" stroke-linejoin="bevel" transform="matrix(3.75191,0,0,3.75191,-28.0246,-25.0837)"
font-family="Helvetica" font-size="12" font-weight="400" font-style="normal" 
>
</g>

<g fill="none" stroke="#000000" stroke-opacity="0.705882" stroke-width="1.5" stroke-linecap="round" stroke-linejoin="bevel" transform="matrix(3.75191,0,0,3.75191,-28.0246,-25.0837)"
font-family="Helvetica" font-size="12" font-weight="400" font-style="normal" 
>
<path vector-effect="none" fill-rule="evenodd" d="M87.9566,61.4339 C90.6381,60.7687 90.6849,61.9032 93.3546,62.6147 "/>
</g>

<g fill="none" stroke="#000000" stroke-opacity="1" stroke-width="1" stroke-linecap="square" stroke-linejoin="bevel" transform="matrix(3.75191,0,0,3.75191,-28.0246,-25.0837)"
font-family="Helvetica" font-size="12" font-weight="400" font-style="normal" 
>
</g>

<g fill="none" stroke="#000000" stroke-opacity="1" stroke-width="1" stroke-linecap="square" stroke-linejoin="bevel" transform="matrix(3.75191,0,0,3.75191,-28.0246,-25.0837)"
font-family="Helvetica" font-size="12" font-weight="400" font-style="normal" 
>
</g>

<g fill="none" stroke="#000000" stroke-opacity="0.705882" stroke-width="1.5" stroke-linecap="round" stroke-linejoin="bevel" transform="matrix(3.75191,0,0,3.75191,-28.0246,-25.0837)"
font-family="Helvetica" font-size="12" font-weight="400" font-style="normal" 
>
<path vector-effect="none" fill-rule="evenodd" d="M73.9669,80.0113 C73.8798,82.5812 77.1416,86.1711 77.6086,83.6425 "/>
</g>

<g fill="none" stroke="#000000" stroke-opacity="1" stroke-width="1" stroke-linecap="square" stroke-linejoin="bevel" transform="matrix(3.75191,0,0,3.75191,-28.0246,-25.0837)"
font-family="Helvetica" font-size="12" font-weight="400" font-style="normal" 
>
</g>

<g fill="none" stroke="#000000" stroke-opacity="1" stroke-width="1" stroke-linecap="square" stroke-linejoin="bevel" transform="matrix(3.75191,0,0,3.75191,-28.0246,-25.0837)"
font-family="Helvetica" font-size="12" font-weight="400" font-style="normal" 
>
</g>

<g fill="none" stroke="#000000" stroke-opacity="0.705882" stroke-width="1.5" stroke-linecap="round" stroke-linejoin="bevel" transform="matrix(3.75191,0,0,3.75191,-28.0246,-25.0837)"
font-family="Helvetica" font-size="12" font-weight="400" font-style="normal" 
>
<path vector-effect="none" fill-rule="evenodd" d="M69.9043,83.2991 C72.2956,84.3529 73.8784,82.6229 73.9669,80.0113 "/>
</g>

<g fill="none" stroke="#000000" stroke-opacity="1" stroke-width="1" stroke-linecap="square" stroke-linejoin="bevel" transform="matrix(3.75191,0,0,3.75191,-28.0246,-25.0837)"
font-family="Helvetica" font-size="12" font-weight="400" font-style="normal" 
>
</g>

<g fill="none" stroke="#000000" stroke-opacity="1" stroke-width="1" stroke-linecap="square" stroke-linejoin="bevel" transform="matrix(3.75191,0,0,3.75191,-28.0246,-25.0837)"
font-family="Helvetica" font-size="12" font-weight="400" font-style="normal" 
>
</g>

<g fill="none" stroke="#000000" stroke-opacity="0.705882" stroke-width="1.5" stroke-linecap="round" stroke-linejoin="bevel" transform="matrix(3.75191,0,0,3.75191,-28.0246,-25.0837)"
font-family="Helvetica" font-size="12" font-weight="400" font-style="normal" 
>
<path vector-effect="none" fill-rule="evenodd" d="M65.1647,81.2103 C62.7234,80.1345 61.9061,77.7875 63.9086,76.0247 "/>
</g>

<g fill="none" stroke="#000000" stroke-opacity="1" stroke-width="1" stroke-linecap="square" stroke-linejoin="bevel" transform="matrix(3.75191,0,0,3.75191,-28.0246,-25.0837)"
font-family="Helvetica" font-size="12" font-weight="400" font-style="normal" 
>
</g>

<g fill="none" stroke="#000000" stroke-opacity="1" stroke-width="1" stroke-linecap="square" stroke-linejoin="bevel" transform="matrix(3.75191,0,0,3.75191,-28.0246,-25.0837)"
font-family="Helvetica" font-size="12" font-weight="400" font-style="normal" 
>
</g>

<g fill="#62cba9" fill-opacity="1" stroke="none" transform="matrix(3.75191,0,0,3.75191,-28.0246,-25.0837)"
font-family="Helvetica" font-size="12" font-weight="400" font-style="normal" 
>
<path vector-effect="none" fill-rule="nonzero" d="M214.927,141.043 L231.705,143.619 L231.328,146.073 L231.602,143.606 L248.948,145.528 L248.674,147.995 L248.831,145.518 L266.748,146.648 L266.592,149.125 L266.622,146.643 L284.753,146.863 L284.723,149.345 L284.627,146.865 L302.566,146.164 L302.662,148.645 L302.446,146.172 L319.832,144.651 L320.048,147.124 L319.725,144.663 L336.556,142.454 L337.202,147.377 L320.371,149.585 C320.336,149.59 320.301,149.594 320.265,149.597 L320.265,149.597 L302.879,151.118 C302.839,151.121 302.799,151.124 302.76,151.125 L302.759,151.125 L284.82,151.826 C284.788,151.827 284.756,151.827 284.723,151.827 C284.713,151.827 284.703,151.827 284.693,151.827 L284.693,151.827 L266.562,151.607 C266.519,151.607 266.477,151.605 266.435,151.602 L266.435,151.602 L248.518,150.472 C248.478,150.47 248.439,150.467 248.401,150.462 L248.401,150.462 L231.055,148.54 C231.019,148.536 230.985,148.532 230.951,148.527 L230.951,148.526 L214.173,145.95 L214.927,141.043"/>
</g>

<g fill="none" stroke="#000000" stroke-opacity="1" stroke-width="0.3" stroke-linecap="square" stroke-linejoin="round" transform="matrix(3.75191,0,0,3.75191,-28.0246,-25.0837)"
font-family="Helvetica" font-size="12" font-weight="400" font-style="normal" 
>
<path vector-effect="none" fill-rule="evenodd" d="M214.927,141.043 L231.653,143.612 L248.889,145.521 L266.685,146.644 L284.69,146.862 L302.506,146.167 L319.779,144.656 L336.556,142.454 L337.202,147.377 L320.371,149.585 L320.318,149.592 L320.265,149.597 L320.265,149.597 L302.879,151.118 L302.819,151.122 L302.76,151.125 L302.759,151.125 L284.82,151.826 L284.772,151.827 L284.723,151.827 L284.708,151.827 L284.693,151.827 L284.693,151.827 L266.562,151.607 L266.498,151.606 L266.435,151.602 L266.435,151.602 L248.518,150.472 L248.459,150.468 L248.401,150.462 L248.401,150.462 L231.055,148.54 L231.002,148.534 L230.951,148.527 L230.951,148.526 L214.173,145.95 L214.927,141.043"/>
</g>

<g fill="none" stroke="#000000" stroke-opacity="1" stroke-width="1" stroke-linecap="square" stroke-linejoin="bevel" transform="matrix(3.75191,0,0,3.75191,-28.0246,-25.0837)"
font-family="Helvetica" font-size="12" font-weight="400" font-style="normal" 
>
</g>

<g fill="none" stroke="#000000" stroke-opacity="1" stroke-width="1" stroke-linecap="square" stroke-linejoin="bevel" transform="matrix(3.75191,0,0,3.75191,-28.0246,-25.0837)"
font-family="Helvetica" font-size="12" font-weight="400" font-style="normal" 
>
</g>

<g fill="#6293cb" fill-opacity="1" stroke="none" transform="matrix(3.75191,0,0,3.75191,-28.0246,-25.0837)"
font-family="Helvetica" font-size="12" font-weight="400" font-style="normal" 
>
<path vector-effect="none" fill-rule="nonzero" d="M88.4784,55.5144 L97.2954,42.0114 L99.3781,43.3713 L97.2626,42.063 L104.733,29.9834 L108.964,32.6 L101.494,44.6796 C101.483,44.6973 101.472,44.7145 101.461,44.7314 L101.461,44.7312 L92.6438,58.2343 L88.4784,55.5144"/>
</g>

<g fill="none" stroke="#000000" stroke-opacity="1" stroke-width="0.3" stroke-linecap="square" stroke-linejoin="round" transform="matrix(3.75191,0,0,3.75191,-28.0246,-25.0837)"
font-family="Helvetica" font-size="12" font-weight="400" font-style="normal" 
>
<path vector-effect="none" fill-rule="evenodd" d="M88.4784,55.5144 L97.2787,42.037 L104.733,29.9834 L108.964,32.6 L101.494,44.6796 L101.478,44.7058 L101.461,44.7314 L101.461,44.7312 L92.6438,58.2343 L88.4784,55.5144"/>
</g>

<g fill="none" stroke="#000000" stroke-opacity="1" stroke-width="1" stroke-linecap="square" stroke-linejoin="bevel" transform="matrix(3.75191,0,0,3.75191,-28.0246,-25.0837)"
font-family="Helvetica" font-size="12" font-weight="400" font-style="normal" 
>
</g>

<g fill="none" stroke="#000000" stroke-opacity="1" stroke-width="1" stroke-linecap="square" stroke-linejoin="bevel" transform="matrix(3.75191,0,0,3.75191,-28.0246,-25.0837)"
font-family="Helvetica" font-size="12" font-weight="400" font-style="normal" 
>
</g>

<g fill="#62cb67" fill-opacity="1" stroke="none" transform="matrix(3.75191,0,0,3.75191,-28.0246,-25.0837)"
font-family="Helvetica" font-size="12" font-weight="400" font-style="normal" 
>
<path vector-effect="none" fill-rule="nonzero" d="M41.9695,88.014 L49.6497,82.6192 L51.0903,84.67 L49.6242,82.6373 L57.8943,76.6725 L60.8265,80.738 L52.5564,86.7028 C52.548,86.709 52.5396,86.7151 52.5311,86.721 L52.5309,86.7209 L44.8506,92.1157 L41.9695,88.014"/>
</g>

<g fill="none" stroke="#000000" stroke-opacity="1" stroke-width="0.3" stroke-linecap="square" stroke-linejoin="round" transform="matrix(3.75191,0,0,3.75191,-28.0246,-25.0837)"
font-family="Helvetica" font-size="12" font-weight="400" font-style="normal" 
>
<path vector-effect="none" fill-rule="evenodd" d="M41.9695,88.014 L49.6369,82.6282 L57.8943,76.6725 L60.8265,80.738 L52.5564,86.7028 L52.5438,86.712 L52.5311,86.721 L52.5309,86.7209 L44.8506,92.1157 L41.9695,88.014"/>
</g>

<g fill="none" stroke="#000000" stroke-opacity="1" stroke-width="1" stroke-linecap="square" stroke-linejoin="bevel" transform="matrix(3.75191,0,0,3.75191,-28.0246,-25.0837)"
font-family="Helvetica" font-size="12" font-weight="400" font-style="normal" 
>
</g>

<g fill="none" stroke="#000000" stroke-opacity="1" stroke-width="1" stroke-linecap="square" stroke-linejoin="bevel" transform="matrix(3.75191,0,0,3.75191,-28.0246,-25.0837)"
font-family="Helvetica" font-size="12" font-weight="400" font-style="normal" 
>
</g>

<g fill="#c762cb" fill-opacity="1" stroke="none" transform="matrix(3.75191,0,0,3.75191,-28.0246,-25.0837)"
font-family="Helvetica" font-size="12" font-weight="400" font-style="normal" 
>
<path vector-effect="none" fill-rule="nonzero" d="M61.9817,73.8359 L66.2093,70.1143 L70.063,74.4918 L65.8354,78.2135 L61.9817,73.8359"/>
</g>

<g fill="none" stroke="#000000" stroke-opacity="1" stroke-width="0.3" stroke-linecap="square" stroke-linejoin="round" transform="matrix(3.75191,0,0,3.75191,-28.0246,-25.0837)"
font-family="Helvetica" font-size="12" font-weight="400" font-style="normal" 
>
<path vector-effect="none" fill-rule="evenodd" d="M61.9817,73.8359 L66.2093,70.1143 L70.063,74.4918 L65.8354,78.2135 L61.9817,73.8359"/>
</g>

<g fill="none" stroke="#000000" stroke-opacity="1" stroke-width="1" stroke-linecap="square" stroke-linejoin="bevel" transform="matrix(3.75191,0,0,3.75191,-28.0246,-25.0837)"
font-family="Helvetica" font-size="12" font-weight="400" font-style="normal" 
>
</g>

<g fill="none" stroke="#000000" stroke-opacity="1" stroke-width="1" stroke-linecap="square" stroke-linejoin="bevel" transform="matrix(3.75191,0,0,3.75191,-28.0246,-25.0837)"
font-family="Helvetica" font-size="12" font-weight="400" font-style="normal" 
>
</g>

<g fill="#62cb6e" fill-opacity="1" stroke="none" transform="matrix(3.75191,0,0,3.75191,-28.0246,-25.0837)"
font-family="Helvetica" font-size="12" font-weight="400" font-style="normal" 
>
<path vector-effect="none" fill-rule="nonzero" d="M169.886,91.0539 L157.544,86.1745 L158.452,83.8769 L157.566,86.1833 L143.693,80.8552 L144.579,78.5488 L143.748,80.8754 L128.231,75.3327 L129.062,73.006 L128.314,75.3607 L111.21,69.9272 L111.958,67.5726 L111.322,69.9599 L92.7183,65.0019 L93.9908,60.2274 L112.594,65.1853 C112.633,65.195 112.67,65.2059 112.706,65.2174 L112.706,65.2179 L129.81,70.6514 C129.839,70.6599 129.866,70.6692 129.893,70.6789 L129.893,70.6794 L145.41,76.2222 C145.429,76.2284 145.448,76.2351 145.465,76.2419 L145.465,76.2424 L159.338,81.5706 C159.347,81.5731 159.354,81.5761 159.361,81.5789 L159.361,81.5794 L171.702,86.4587 L169.886,91.0539"/>
</g>

<g fill="none" stroke="#000000" stroke-opacity="1" stroke-width="0.3" stroke-linecap="square" stroke-linejoin="round" transform="matrix(3.75191,0,0,3.75191,-28.0246,-25.0837)"
font-family="Helvetica" font-size="12" font-weight="400" font-style="normal" 
>
<path vector-effect="none" fill-rule="evenodd" d="M169.886,91.0539 L157.555,86.179 L143.72,80.8656 L128.272,75.3474 L111.265,69.9449 L92.7183,65.0019 L93.9908,60.2274 L112.594,65.1853 L112.651,65.2007 L112.706,65.2174 L112.706,65.2179 L129.81,70.6514 L129.852,70.6647 L129.893,70.6789 L129.893,70.6794 L145.41,76.2222 L145.438,76.2318 L145.465,76.2419 L145.465,76.2424 L159.338,81.5706 L159.35,81.5746 L159.361,81.5789 L159.361,81.5794 L171.702,86.4587 L169.886,91.0539"/>
</g>

<g fill="none" stroke="#000000" stroke-opacity="1" stroke-width="1" stroke-linecap="square" stroke-linejoin="bevel" transform="matrix(3.75191,0,0,3.75191,-28.0246,-25.0837)"
font-family="Helvetica" font-size="12" font-weight="400" font-style="normal" 
>
</g>

<g fill="none" stroke="#000000" stroke-opacity="1" stroke-width="1" stroke-linecap="square" stroke-linejoin="bevel" transform="matrix(3.75191,0,0,3.75191,-28.0246,-25.0837)"
font-family="Helvetica" font-size="12" font-weight="400" font-style="normal" 
>
</g>

<g fill="#cb6c62" fill-opacity="1" stroke="none" transform="matrix(3.75191,0,0,3.75191,-28.0246,-25.0837)"
font-family="Helvetica" font-size="12" font-weight="400" font-style="normal" 
>
<path vector-effect="none" fill-rule="nonzero" d="M81.6669,60.0664 L87.2724,58.6759 L88.6407,64.1918 L83.0352,65.5823 L81.6669,60.0664"/>
</g>

<g fill="none" stroke="#000000" stroke-opacity="1" stroke-width="0.3" stroke-linecap="square" stroke-linejoin="round" transform="matrix(3.75191,0,0,3.75191,-28.0246,-25.0837)"
font-family="Helvetica" font-size="12" font-weight="400" font-style="normal" 
>
<path vector-effect="none" fill-rule="evenodd" d="M81.6669,60.0664 L87.2724,58.6759 L88.6407,64.1918 L83.0352,65.5823 L81.6669,60.0664"/>
</g>

<g fill="none" stroke="#000000" stroke-opacity="1" stroke-width="1" stroke-linecap="square" stroke-linejoin="bevel" transform="matrix(3.75191,0,0,3.75191,-28.0246,-25.0837)"
font-family="Helvetica" font-size="12" font-weight="400" font-style="normal" 
>
</g>

<g fill="none" stroke="#000000" stroke-opacity="1" stroke-width="1" stroke-linecap="square" stroke-linejoin="bevel" transform="matrix(3.75191,0,0,3.75191,-28.0246,-25.0837)"
font-family="Helvetica" font-size="12" font-weight="400" font-style="normal" 
>
</g>

<g fill="#cba162" fill-opacity="1" stroke="none" transform="matrix(3.75191,0,0,3.75191,-28.0246,-25.0837)"
font-family="Helvetica" font-size="12" font-weight="400" font-style="normal" 
>
<path vector-effect="none" fill-rule="nonzero" d="M77.3069,74.7528 L77.125,80.1184 L70.8088,79.9042 L70.9907,74.5387 L77.3069,74.7528"/>
</g>

<g fill="none" stroke="#000000" stroke-opacity="1" stroke-width="0.3" stroke-linecap="square" stroke-linejoin="round" transform="matrix(3.75191,0,0,3.75191,-28.0246,-25.0837)"
font-family="Helvetica" font-size="12" font-weight="400" font-style="normal" 
>
<path vector-effect="none" fill-rule="evenodd" d="M77.3069,74.7528 L77.125,80.1184 L70.8088,79.9042 L70.9907,74.5387 L77.3069,74.7528"/>
</g>

<g fill="none" stroke="#000000" stroke-opacity="1" stroke-width="1" stroke-linecap="square" stroke-linejoin="bevel" transform="matrix(3.75191,0,0,3.75191,-28.0246,-25.0837)"
font-family="Helvetica" font-size="12" font-weight="400" font-style="normal" 
>
</g>

<g fill="none" stroke="#000000" stroke-opacity="1" stroke-width="1" stroke-linecap="square" stroke-linejoin="bevel" transform="matrix(3.75191,0,0,3.75191,-28.0246,-25.0837)"
font-family="Helvetica" font-size="12" font-weight="400" font-style="normal" 
>
</g>

<g fill="#cb9162" fill-opacity="1" stroke="none" transform="matrix(3.75191,0,0,3.75191,-28.0246,-25.0837)"
font-family="Helvetica" font-size="12" font-weight="400" font-style="normal" 
>
<path vector-effect="none" fill-rule="nonzero" d="M74.6647,83.0988 L77.4658,67.9324 L83.3537,69.0199 L80.5526,84.1862 L74.6647,83.0988"/>
</g>

<g fill="none" stroke="#000000" stroke-opacity="1" stroke-width="0.3" stroke-linecap="square" stroke-linejoin="round" transform="matrix(3.75191,0,0,3.75191,-28.0246,-25.0837)"
font-family="Helvetica" font-size="12" font-weight="400" font-style="normal" 
>
<path vector-effect="none" fill-rule="evenodd" d="M74.6647,83.0988 L77.4658,67.9324 L83.3537,69.0199 L80.5526,84.1862 L74.6647,83.0988"/>
</g>

<g fill="none" stroke="#000000" stroke-opacity="1" stroke-width="1" stroke-linecap="square" stroke-linejoin="bevel" transform="matrix(3.75191,0,0,3.75191,-28.0246,-25.0837)"
font-family="Helvetica" font-size="12" font-weight="400" font-style="normal" 
>
</g>

<g fill="none" stroke="#000000" stroke-opacity="1" stroke-width="1" stroke-linecap="square" stroke-linejoin="bevel" transform="matrix(3.75191,0,0,3.75191,-28.0246,-25.0837)"
font-family="Helvetica" font-size="12" font-weight="400" font-style="normal" 
>
</g>

<g fill="#cb6562" fill-opacity="1" stroke="none" transform="matrix(3.75191,0,0,3.75191,-28.0246,-25.0837)"
font-family="Helvetica" font-size="12" font-weight="400" font-style="normal" 
>
<path vector-effect="none" fill-rule="nonzero" d="M66.131,79.0175 L70.8707,81.1063 L68.938,85.4919 L64.1983,83.4031 L66.131,79.0175"/>
</g>

<g fill="none" stroke="#000000" stroke-opacity="1" stroke-width="0.3" stroke-linecap="square" stroke-linejoin="round" transform="matrix(3.75191,0,0,3.75191,-28.0246,-25.0837)"
font-family="Helvetica" font-size="12" font-weight="400" font-style="normal" 
>
<path vector-effect="none" fill-rule="evenodd" d="M66.131,79.0175 L70.8707,81.1063 L68.938,85.4919 L64.1983,83.4031 L66.131,79.0175"/>
</g>

<g fill="none" stroke="#000000" stroke-opacity="1" stroke-width="1" stroke-linecap="square" stroke-linejoin="bevel" transform="matrix(3.75191,0,0,3.75191,-28.0246,-25.0837)"
font-family="Helvetica" font-size="12" font-weight="400" font-style="normal" 
>
</g>

<g fill="none" stroke="#000000" stroke-opacity="1" stroke-width="1" stroke-linecap="square" stroke-linejoin="bevel" transform="matrix(3.75191,0,0,3.75191,-28.0246,-25.0837)"
font-family="Helvetica" font-size="12" font-weight="400" font-style="normal" 
>
</g>

<g fill="#628dcb" fill-opacity="1" stroke="none" transform="matrix(3.75191,0,0,3.75191,-28.0246,-25.0837)"
font-family="Helvetica" font-size="12" font-weight="400" font-style="normal" 
>
<path vector-effect="none" fill-rule="nonzero" d="M250.483,201.059 L269.734,200.705 C269.749,200.704 269.765,200.704 269.78,200.704 C271.143,200.704 272.249,201.809 272.249,203.173 C272.249,204.536 271.143,205.642 269.78,205.642 C268.416,205.642 267.311,204.536 267.311,203.173 C267.311,201.859 268.337,200.785 269.631,200.709 L269.837,200.705 L289.086,201.15 L288.972,206.086 L269.723,205.641 L269.78,203.173 L269.825,205.641 L250.574,205.995 L250.483,201.059"/>
</g>

<g fill="none" stroke="#000000" stroke-opacity="1" stroke-width="0.3" stroke-linecap="square" stroke-linejoin="round" transform="matrix(3.75191,0,0,3.75191,-28.0246,-25.0837)"
font-family="Helvetica" font-size="12" font-weight="400" font-style="normal" 
>
<path vector-effect="none" fill-rule="evenodd" d="M250.483,201.059 L269.734,200.705 L269.757,200.704 L269.78,200.704 L269.784,200.706 L269.837,200.705 L289.086,201.15 L288.972,206.086 L269.774,205.642 L250.574,205.995 L250.483,201.059"/>
</g>

<g fill="none" stroke="#000000" stroke-opacity="1" stroke-width="1" stroke-linecap="square" stroke-linejoin="bevel" transform="matrix(3.75191,0,0,3.75191,-28.0246,-25.0837)"
font-family="Helvetica" font-size="12" font-weight="400" font-style="normal" 
>
</g>

<g fill="none" stroke="#000000" stroke-opacity="1" stroke-width="1" stroke-linecap="square" stroke-linejoin="bevel" transform="matrix(3.75191,0,0,3.75191,-28.0246,-25.0837)"
font-family="Helvetica" font-size="12" font-weight="400" font-style="normal" 
>
</g>

<g fill="#a6cb62" fill-opacity="1" stroke="none" transform="matrix(3.75191,0,0,3.75191,-28.0246,-25.0837)"
font-family="Helvetica" font-size="12" font-weight="400" font-style="normal" 
>
<path vector-effect="none" fill-rule="nonzero" d="M90.0165,206.322 L73.8813,205.688 L73.9787,203.208 L73.9397,205.69 L57.5206,205.431 L57.5597,202.949 L57.5817,205.432 L41.1612,205.577 L41.1392,203.095 L41.2196,205.576 L25.0804,206.099 L24.9196,201.137 L41.0588,200.614 C41.0782,200.613 41.0977,200.613 41.1171,200.613 L41.1172,200.613 L57.5377,200.467 C57.545,200.467 57.5523,200.467 57.5597,200.467 C58.9306,200.467 60.042,201.579 60.042,202.949 C60.042,204.32 58.9306,205.432 57.5597,205.432 C56.1887,205.432 55.0774,204.32 55.0774,202.949 C55.0774,201.606 56.1441,200.512 57.4762,200.469 L57.5987,200.467 L74.0178,200.726 C74.0376,200.726 74.0572,200.727 74.0762,200.727 L74.0762,200.728 L90.2114,201.361 L90.0165,206.322"/>
</g>

<g fill="none" stroke="#000000" stroke-opacity="1" stroke-width="0.3" stroke-linecap="square" stroke-linejoin="round" transform="matrix(3.75191,0,0,3.75191,-28.0246,-25.0837)"
font-family="Helvetica" font-size="12" font-weight="400" font-style="normal" 
>
<path vector-effect="none" fill-rule="evenodd" d="M90.0165,206.322 L73.9105,205.689 L57.5511,205.432 L41.1904,205.577 L25.0804,206.099 L24.9196,201.137 L41.0588,200.614 L41.0879,200.613 L41.1171,200.613 L41.1172,200.613 L57.5377,200.467 L57.5487,200.467 L57.5597,200.467 L57.5612,200.468 L57.5987,200.467 L74.0178,200.726 L74.0473,200.727 L74.0762,200.727 L74.0762,200.728 L90.2114,201.361 L90.0165,206.322"/>
</g>

<g fill="none" stroke="#000000" stroke-opacity="1" stroke-width="1" stroke-linecap="square" stroke-linejoin="bevel" transform="matrix(3.75191,0,0,3.75191,-28.0246,-25.0837)"
font-family="Helvetica" font-size="12" font-weight="400" font-style="normal" 
>
</g>

<g fill="none" stroke="#000000" stroke-opacity="1" stroke-width="1" stroke-linecap="square" stroke-linejoin="bevel" transform="matrix(3.75191,0,0,3.75191,-28.0246,-25.0837)"
font-family="Helvetica" font-size="12" font-weight="400" font-style="normal" 
>
</g>

<g fill="#9bcb62" fill-opacity="1" stroke="none" transform="matrix(3.75191,0,0,3.75191,-28.0246,-25.0837)"
font-family="Helvetica" font-size="12" font-weight="400" font-style="normal" 
>
<path vector-effect="none" fill-rule="nonzero" d="M200.467,205.624 L185.487,205.251 L185.549,202.777 L185.551,205.252 L170.312,205.265 L170.31,202.79 L170.379,205.264 L155.146,205.687 L155.077,203.213 L155.21,205.685 L140.246,206.486 L139.982,201.543 L154.945,200.741 C154.966,200.74 154.987,200.739 155.008,200.739 L155.009,200.739 L170.241,200.316 C170.263,200.315 170.286,200.315 170.308,200.315 L170.308,200.315 L185.547,200.302 C185.547,200.302 185.548,200.302 185.549,200.302 C186.916,200.302 188.024,201.41 188.024,202.777 C188.024,204.144 186.916,205.252 185.549,205.252 C184.182,205.252 183.074,204.144 183.074,202.777 C183.074,201.432 184.146,200.338 185.483,200.303 L185.61,200.303 L200.59,200.675 L200.467,205.624"/>
</g>

<g fill="none" stroke="#000000" stroke-opacity="1" stroke-width="0.3" stroke-linecap="square" stroke-linejoin="round" transform="matrix(3.75191,0,0,3.75191,-28.0246,-25.0837)"
font-family="Helvetica" font-size="12" font-weight="400" font-style="normal" 
>
<path vector-effect="none" fill-rule="evenodd" d="M200.467,205.624 L185.519,205.252 L170.345,205.265 L155.178,205.686 L140.246,206.486 L139.982,201.543 L154.945,200.741 L154.977,200.74 L155.008,200.739 L155.009,200.739 L170.241,200.316 L170.275,200.315 L170.308,200.315 L170.308,200.315 L185.547,200.302 L185.548,200.302 L185.549,200.302 L185.551,200.303 L185.61,200.303 L200.59,200.675 L200.467,205.624"/>
</g>

<g fill="none" stroke="#000000" stroke-opacity="1" stroke-width="1" stroke-linecap="square" stroke-linejoin="bevel" transform="matrix(3.75191,0,0,3.75191,-28.0246,-25.0837)"
font-family="Helvetica" font-size="12" font-weight="400" font-style="normal" 
>
</g>

<g fill="none" stroke="#000000" stroke-opacity="1" stroke-width="1" stroke-linecap="square" stroke-linejoin="bevel" transform="matrix(3.75191,0,0,3.75191,-28.0246,-25.0837)"
font-family="Helvetica" font-size="12" font-weight="400" font-style="normal" 
>
</g>

<g fill="#cb62b6" fill-opacity="1" stroke="none" transform="matrix(3.75191,0,0,3.75191,-28.0246,-25.0837)"
font-family="Helvetica" font-size="12" font-weight="400" font-style="normal" 
>
<path vector-effect="none" fill-rule="nonzero" d="M69.8584,66.7453 L73.6059,62.145 L79.9247,67.2925 L76.1772,71.8928 L69.8584,66.7453"/>
</g>

<g fill="none" stroke="#000000" stroke-opacity="1" stroke-width="0.3" stroke-linecap="square" stroke-linejoin="round" transform="matrix(3.75191,0,0,3.75191,-28.0246,-25.0837)"
font-family="Helvetica" font-size="12" font-weight="400" font-style="normal" 
>
<path vector-effect="none" fill-rule="evenodd" d="M69.8584,66.7453 L73.6059,62.145 L79.9247,67.2925 L76.1772,71.8928 L69.8584,66.7453"/>
</g>

<g fill="none" stroke="#000000" stroke-opacity="1" stroke-width="1" stroke-linecap="square" stroke-linejoin="bevel" transform="matrix(3.75191,0,0,3.75191,-28.0246,-25.0837)"
font-family="Helvetica" font-size="12" font-weight="400" font-style="normal" 
>
</g>

<g fill="none" stroke="#000000" stroke-opacity="1" stroke-width="1" stroke-linecap="square" stroke-linejoin="bevel" transform="matrix(3.75191,0,0,3.75191,-28.0246,-25.0837)"
font-family="Helvetica" font-size="12" font-weight="400" font-style="normal" 
>
</g>

<g fill="#62c5cb" fill-opacity="1" stroke="none" transform="matrix(3.75191,0,0,3.75191,-28.0246,-25.0837)"
font-family="Helvetica" font-size="12" font-weight="400" font-style="normal" 
>
<path vector-effect="none" fill-rule="nonzero" d="M25.7092,138.429 L42.0571,143.344 L41.3478,145.703 L41.884,143.299 L59.0139,147.119 L58.4778,149.523 L58.811,147.083 L76.769,149.535 L76.4358,151.975 L76.5429,149.515 L94.9523,150.316 L94.8452,152.777 L94.7171,150.317 L113.119,149.358 L113.247,151.818 L112.891,149.381 L130.824,146.76 L131.181,149.197 L130.618,146.799 L147.705,142.792 L148.267,145.19 L147.528,142.841 L163.811,137.715 L165.29,142.414 L149.007,147.54 C148.949,147.558 148.89,147.575 148.831,147.588 L148.83,147.588 L131.743,151.595 C131.676,151.612 131.607,151.625 131.538,151.635 L131.537,151.634 L113.603,154.255 C113.528,154.267 113.452,154.274 113.376,154.278 L113.375,154.278 L94.9734,155.237 C94.931,155.239 94.8882,155.24 94.8452,155.24 C94.8091,155.24 94.7733,155.239 94.738,155.238 L94.7381,155.238 L76.3286,154.436 C76.2516,154.433 76.176,154.426 76.1022,154.416 L76.1025,154.416 L58.1445,151.964 C58.0748,151.955 58.0071,151.942 57.9411,151.928 L57.9416,151.927 L40.8117,148.107 C40.752,148.095 40.6943,148.079 40.638,148.063 L40.6386,148.062 L24.2908,143.147 L25.7092,138.429"/>
</g>

<g fill="none" stroke="#000000" stroke-opacity="1" stroke-width="0.3" stroke-linecap="square" stroke-linejoin="round" transform="matrix(3.75191,0,0,3.75191,-28.0246,-25.0837)"
font-family="Helvetica" font-size="12" font-weight="400" font-style="normal" 
>
<path vector-effect="none" fill-rule="evenodd" d="M25.7092,138.429 L41.9713,143.319 L58.9132,147.097 L76.6564,149.52 L94.8347,150.311 L113.004,149.364 L130.72,146.775 L147.615,142.813 L163.811,137.715 L165.29,142.414 L149.007,147.54 L148.919,147.566 L148.831,147.588 L148.83,147.588 L131.743,151.595 L131.641,151.617 L131.538,151.635 L131.537,151.634 L113.603,154.255 L113.49,154.269 L113.376,154.278 L113.375,154.278 L94.9734,155.237 L94.9095,155.239 L94.8452,155.24 L94.7913,155.239 L94.738,155.238 L94.7381,155.238 L76.3286,154.436 L76.2142,154.429 L76.1022,154.416 L76.1025,154.416 L58.1445,151.964 L58.0414,151.948 L57.9411,151.928 L57.9416,151.927 L40.8117,148.107 L40.7236,148.086 L40.638,148.063 L40.6386,148.062 L24.2908,143.147 L25.7092,138.429"/>
</g>

<g fill="none" stroke="#000000" stroke-opacity="1" stroke-width="1" stroke-linecap="square" stroke-linejoin="bevel" transform="matrix(3.75191,0,0,3.75191,-28.0246,-25.0837)"
font-family="Helvetica" font-size="12" font-weight="400" font-style="normal" 
>
</g>

<g fill="none" stroke="#000000" stroke-opacity="1" stroke-width="1" stroke-linecap="square" stroke-linejoin="bevel" transform="matrix(3.75191,0,0,3.75191,-28.0246,-25.0837)"
font-family="Helvetica" font-size="12" font-weight="400" font-style="normal" 
>
</g>

<g fill="#9462cb" fill-opacity="1" stroke="none" transform="matrix(3.75191,0,0,3.75191,-28.0246,-25.0837)"
font-family="Helvetica" font-size="12" font-weight="400" font-style="normal" 
>
<path vector-effect="none" fill-rule="nonzero" d="M24.9059,252.016 L36.0095,251.586 C36.0407,251.585 36.0721,251.584 36.1037,251.584 C37.4458,251.584 38.5339,252.672 38.5339,254.014 C38.5339,255.356 37.4458,256.445 36.1037,256.445 C34.7615,256.445 33.6734,255.356 33.6734,254.014 C33.6734,252.764 34.6182,251.734 35.8323,251.599 L36.1863,251.585 L47.2918,251.963 L47.1266,256.821 L36.0211,256.443 L36.1037,254.014 L36.1978,256.443 L25.0941,256.873 L24.9059,252.016"/>
</g>

<g fill="none" stroke="#000000" stroke-opacity="1" stroke-width="0.3" stroke-linecap="square" stroke-linejoin="round" transform="matrix(3.75191,0,0,3.75191,-28.0246,-25.0837)"
font-family="Helvetica" font-size="12" font-weight="400" font-style="normal" 
>
<path vector-effect="none" fill-rule="evenodd" d="M24.9059,252.016 L36.0095,251.586 L36.0565,251.585 L36.1037,251.584 L36.1138,251.588 L36.1863,251.585 L47.2918,251.963 L47.1266,256.821 L36.1094,256.446 L25.0941,256.873 L24.9059,252.016"/>
</g>

<g fill="none" stroke="#000000" stroke-opacity="1" stroke-width="1" stroke-linecap="square" stroke-linejoin="bevel" transform="matrix(3.75191,0,0,3.75191,-28.0246,-25.0837)"
font-family="Helvetica" font-size="12" font-weight="400" font-style="normal" 
>
</g>

<g fill="none" stroke="#000000" stroke-opacity="1" stroke-width="1" stroke-linecap="square" stroke-linejoin="bevel" transform="matrix(3.75191,0,0,3.75191,-28.0246,-25.0837)"
font-family="Helvetica" font-size="12" font-weight="400" font-style="normal" 
>
</g>

<g fill="#7ccb62" fill-opacity="1" stroke="none" transform="matrix(3.75191,0,0,3.75191,-28.0246,-25.0837)"
font-family="Helvetica" font-size="12" font-weight="400" font-style="normal" 
>
<path vector-effect="none" fill-rule="nonzero" d="M71.4041,62.3802 L58.3601,51.1519 L59.9671,49.285 L58.4743,51.2445 L45.9003,41.665 L47.3931,39.7055 L45.9999,41.737 L34.297,33.7106 L35.6903,31.6792 L34.3851,33.7683 L23.6948,27.0891 L26.3052,22.9109 L36.9955,29.5901 C37.0256,29.6086 37.0549,29.6278 37.0837,29.6476 L37.0835,29.6478 L48.7864,37.6741 C48.8203,37.6972 48.8535,37.7212 48.886,37.746 L48.8859,37.7461 L61.4599,47.3256 C61.499,47.3553 61.5371,47.3861 61.5742,47.4181 L61.5742,47.4181 L74.6182,58.6464 L71.4041,62.3802"/>
</g>

<g fill="none" stroke="#000000" stroke-opacity="1" stroke-width="0.3" stroke-linecap="square" stroke-linejoin="round" transform="matrix(3.75191,0,0,3.75191,-28.0246,-25.0837)"
font-family="Helvetica" font-size="12" font-weight="400" font-style="normal" 
>
<path vector-effect="none" fill-rule="evenodd" d="M71.4041,62.3802 L58.4158,51.1999 L45.9492,41.7022 L34.3404,33.7404 L23.6948,27.0891 L26.3052,22.9109 L36.9955,29.5901 L37.0401,29.6184 L37.0837,29.6476 L37.0835,29.6478 L48.7864,37.6741 L48.8367,37.7094 L48.886,37.746 L48.8859,37.7461 L61.4599,47.3256 L61.5178,47.371 L61.5742,47.4181 L61.5742,47.4181 L74.6182,58.6464 L71.4041,62.3802"/>
</g>

<g fill="none" stroke="#000000" stroke-opacity="1" stroke-width="1" stroke-linecap="square" stroke-linejoin="bevel" transform="matrix(3.75191,0,0,3.75191,-28.0246,-25.0837)"
font-family="Helvetica" font-size="12" font-weight="400" font-style="normal" 
>
</g>

<g fill="none" stroke="#000000" stroke-opacity="1" stroke-width="1" stroke-linecap="square" stroke-linejoin="bevel" transform="matrix(3.75191,0,0,3.75191,-28.0246,-25.0837)"
font-family="Helvetica" font-size="12" font-weight="400" font-style="normal" 
>
</g>

<g fill="#cb9a62" fill-opacity="1" stroke="none" transform="matrix(3.75191,0,0,3.75191,-28.0246,-25.0837)"
font-family="Helvetica" font-size="12" font-weight="400" font-style="normal" 
>
<path vector-effect="none" fill-rule="nonzero" d="M104.633,256.666 L97.2009,256.641 L97.2175,251.793 L104.65,251.818 L104.633,256.666"/>
</g>

<g fill="none" stroke="#000000" stroke-opacity="1" stroke-width="0.3" stroke-linecap="square" stroke-linejoin="round" transform="matrix(3.75191,0,0,3.75191,-28.0246,-25.0837)"
font-family="Helvetica" font-size="12" font-weight="400" font-style="normal" 
>
<path vector-effect="none" fill-rule="evenodd" d="M104.633,256.666 L97.2009,256.641 L97.2175,251.793 L104.65,251.818 L104.633,256.666"/>
</g>

<g fill="none" stroke="#000000" stroke-opacity="1" stroke-width="1" stroke-linecap="square" stroke-linejoin="bevel" transform="matrix(3.75191,0,0,3.75191,-28.0246,-25.0837)"
font-family="Helvetica" font-size="12" font-weight="400" font-style="normal" 
>
</g>

<g fill="none" stroke="#000000" stroke-opacity="1" stroke-width="1" stroke-linecap="square" stroke-linejoin="bevel" transform="matrix(1,0,0,1,0,0)"
font-family="Helvetica" font-size="12" font-weight="400" font-style="normal" 
>
</g>
</g>
</svg>
