<?xml version="1.0" encoding="UTF-8" standalone="no"?>
<svg width="842.433mm" height="352.778mm"
 viewBox="0 0 2388 1000"
 xmlns="http://www.w3.org/2000/svg" xmlns:xlink="http://www.w3.org/1999/xlink"  version="1.2" baseProfile="tiny">
<title>Qt SVG Document</title>
<desc>Generated with Qt</desc>
<defs>
</defs>
<g fill="none" stroke="black" stroke-width="1" fill-rule="evenodd" stroke-linecap="square" stroke-linejoin="bevel" >

<g fill="#ffffff" fill-opacity="1" stroke="none" transform="matrix(1,0,0,1,0,0)"
font-family="Helvetica" font-size="12" font-weight="400" font-style="normal" 
>
<rect x="0" y="0" width="2388" height="1000"/>
</g>

<g fill="none" stroke="#000000" stroke-opacity="1" stroke-width="1" stroke-linecap="square" stroke-linejoin="bevel" transform="matrix(1,0,0,1,0,0)"
font-family="Helvetica" font-size="12" font-weight="400" font-style="normal" 
>
</g>

<g fill="none" stroke="#000000" stroke-opacity="1" stroke-width="1" stroke-linecap="square" stroke-linejoin="bevel" transform="matrix(1,0,0,1,0,0)"
font-family="Helvetica" font-size="12" font-weight="400" font-style="normal" 
>
</g>

<g fill="none" stroke="#000000" stroke-opacity="1" stroke-width="1" stroke-linecap="square" stroke-linejoin="bevel" transform="matrix(6.7598,0,0,6.7598,-46.1071,-40.331)"
font-family="Helvetica" font-size="12" font-weight="400" font-style="normal" 
>
</g>

<g fill="none" stroke="#000000" stroke-opacity="0.705882" stroke-width="1.5" stroke-linecap="round" stroke-linejoin="bevel" transform="matrix(6.7598,0,0,6.7598,-46.1071,-40.331)"
font-family="Helvetica" font-size="12" font-weight="400" font-style="normal" 
>
<path vector-effect="none" fill-rule="evenodd" d="M112.735,76.4503 C115.363,74.9922 118.074,77.1562 118.292,74.1586 "/>
</g>

<g fill="none" stroke="#000000" stroke-opacity="1" stroke-width="1" stroke-linecap="square" stroke-linejoin="bevel" transform="matrix(6.7598,0,0,6.7598,-46.1071,-40.331)"
font-family="Helvetica" font-size="12" font-weight="400" font-style="normal" 
>
</g>

<g fill="none" stroke="#000000" stroke-opacity="1" stroke-width="1" stroke-linecap="square" stroke-linejoin="bevel" transform="matrix(6.7598,0,0,6.7598,-46.1071,-40.331)"
font-family="Helvetica" font-size="12" font-weight="400" font-style="normal" 
>
</g>

<g fill="none" stroke="#000000" stroke-opacity="0.705882" stroke-width="1.5" stroke-linecap="round" stroke-linejoin="bevel" transform="matrix(6.7598,0,0,6.7598,-46.1071,-40.331)"
font-family="Helvetica" font-size="12" font-weight="400" font-style="normal" 
>
<path vector-effect="none" fill-rule="evenodd" d="M124.131,73.9729 C121.222,74.2296 118.08,77.0721 118.292,74.1586 "/>
</g>

<g fill="none" stroke="#000000" stroke-opacity="1" stroke-width="1" stroke-linecap="square" stroke-linejoin="bevel" transform="matrix(6.7598,0,0,6.7598,-46.1071,-40.331)"
font-family="Helvetica" font-size="12" font-weight="400" font-style="normal" 
>
</g>

<g fill="none" stroke="#000000" stroke-opacity="1" stroke-width="1" stroke-linecap="square" stroke-linejoin="bevel" transform="matrix(6.7598,0,0,6.7598,-46.1071,-40.331)"
font-family="Helvetica" font-size="12" font-weight="400" font-style="normal" 
>
</g>

<g fill="none" stroke="#000000" stroke-opacity="0.705882" stroke-width="1.5" stroke-linecap="round" stroke-linejoin="bevel" transform="matrix(6.7598,0,0,6.7598,-46.1071,-40.331)"
font-family="Helvetica" font-size="12" font-weight="400" font-style="normal" 
>
<path vector-effect="none" fill-rule="evenodd" d="M128.29,58.6021 C130.628,60.3074 132.482,63.5261 129.673,64.2215 "/>
</g>

<g fill="none" stroke="#000000" stroke-opacity="1" stroke-width="1" stroke-linecap="square" stroke-linejoin="bevel" transform="matrix(6.7598,0,0,6.7598,-46.1071,-40.331)"
font-family="Helvetica" font-size="12" font-weight="400" font-style="normal" 
>
</g>

<g fill="none" stroke="#000000" stroke-opacity="1" stroke-width="1" stroke-linecap="square" stroke-linejoin="bevel" transform="matrix(6.7598,0,0,6.7598,-46.1071,-40.331)"
font-family="Helvetica" font-size="12" font-weight="400" font-style="normal" 
>
</g>

<g fill="none" stroke="#000000" stroke-opacity="0.705882" stroke-width="1.5" stroke-linecap="round" stroke-linejoin="bevel" transform="matrix(6.7598,0,0,6.7598,-46.1071,-40.331)"
font-family="Helvetica" font-size="12" font-weight="400" font-style="normal" 
>
<path vector-effect="none" fill-rule="evenodd" d="M123.379,84.9119 C124.912,87.1849 123.71,90.6155 126.25,89.5836 "/>
</g>

<g fill="none" stroke="#000000" stroke-opacity="1" stroke-width="1" stroke-linecap="square" stroke-linejoin="bevel" transform="matrix(6.7598,0,0,6.7598,-46.1071,-40.331)"
font-family="Helvetica" font-size="12" font-weight="400" font-style="normal" 
>
</g>

<g fill="none" stroke="#000000" stroke-opacity="1" stroke-width="1" stroke-linecap="square" stroke-linejoin="bevel" transform="matrix(6.7598,0,0,6.7598,-46.1071,-40.331)"
font-family="Helvetica" font-size="12" font-weight="400" font-style="normal" 
>
</g>

<g fill="none" stroke="#000000" stroke-opacity="0.705882" stroke-width="1.5" stroke-linecap="round" stroke-linejoin="bevel" transform="matrix(6.7598,0,0,6.7598,-46.1071,-40.331)"
font-family="Helvetica" font-size="12" font-weight="400" font-style="normal" 
>
<path vector-effect="none" fill-rule="evenodd" d="M123.379,84.9119 C124.955,87.2491 126.007,86.0675 128.797,86.4713 "/>
</g>

<g fill="none" stroke="#000000" stroke-opacity="1" stroke-width="1" stroke-linecap="square" stroke-linejoin="bevel" transform="matrix(6.7598,0,0,6.7598,-46.1071,-40.331)"
font-family="Helvetica" font-size="12" font-weight="400" font-style="normal" 
>
</g>

<g fill="none" stroke="#000000" stroke-opacity="1" stroke-width="1" stroke-linecap="square" stroke-linejoin="bevel" transform="matrix(6.7598,0,0,6.7598,-46.1071,-40.331)"
font-family="Helvetica" font-size="12" font-weight="400" font-style="normal" 
>
</g>

<g fill="none" stroke="#000000" stroke-opacity="0.705882" stroke-width="1.5" stroke-linecap="round" stroke-linejoin="bevel" transform="matrix(6.7598,0,0,6.7598,-46.1071,-40.331)"
font-family="Helvetica" font-size="12" font-weight="400" font-style="normal" 
>
<path vector-effect="none" fill-rule="evenodd" d="M120.031,79.9497 C118.34,77.4435 118.073,77.1739 118.292,74.1586 "/>
</g>

<g fill="none" stroke="#000000" stroke-opacity="1" stroke-width="1" stroke-linecap="square" stroke-linejoin="bevel" transform="matrix(6.7598,0,0,6.7598,-46.1071,-40.331)"
font-family="Helvetica" font-size="12" font-weight="400" font-style="normal" 
>
</g>

<g fill="none" stroke="#000000" stroke-opacity="1" stroke-width="1" stroke-linecap="square" stroke-linejoin="bevel" transform="matrix(6.7598,0,0,6.7598,-46.1071,-40.331)"
font-family="Helvetica" font-size="12" font-weight="400" font-style="normal" 
>
</g>

<g fill="none" stroke="#000000" stroke-opacity="0.705882" stroke-width="1.5" stroke-linecap="round" stroke-linejoin="bevel" transform="matrix(6.7598,0,0,6.7598,-46.1071,-40.331)"
font-family="Helvetica" font-size="12" font-weight="400" font-style="normal" 
>
<path vector-effect="none" fill-rule="evenodd" d="M134.006,82.2442 C134.265,85.1305 134.163,86.3689 131.478,87.4597 "/>
</g>

<g fill="none" stroke="#000000" stroke-opacity="1" stroke-width="1" stroke-linecap="square" stroke-linejoin="bevel" transform="matrix(6.7598,0,0,6.7598,-46.1071,-40.331)"
font-family="Helvetica" font-size="12" font-weight="400" font-style="normal" 
>
</g>

<g fill="none" stroke="#000000" stroke-opacity="1" stroke-width="1" stroke-linecap="square" stroke-linejoin="bevel" transform="matrix(6.7598,0,0,6.7598,-46.1071,-40.331)"
font-family="Helvetica" font-size="12" font-weight="400" font-style="normal" 
>
</g>

<g fill="none" stroke="#000000" stroke-opacity="0.705882" stroke-width="1.5" stroke-linecap="round" stroke-linejoin="bevel" transform="matrix(6.7598,0,0,6.7598,-46.1071,-40.331)"
font-family="Helvetica" font-size="12" font-weight="400" font-style="normal" 
>
<path vector-effect="none" fill-rule="evenodd" d="M134.006,82.2442 C134.233,84.7699 136.99,87.6569 134.481,87.2937 "/>
</g>

<g fill="none" stroke="#000000" stroke-opacity="1" stroke-width="1" stroke-linecap="square" stroke-linejoin="bevel" transform="matrix(6.7598,0,0,6.7598,-46.1071,-40.331)"
font-family="Helvetica" font-size="12" font-weight="400" font-style="normal" 
>
</g>

<g fill="none" stroke="#000000" stroke-opacity="1" stroke-width="1" stroke-linecap="square" stroke-linejoin="bevel" transform="matrix(6.7598,0,0,6.7598,-46.1071,-40.331)"
font-family="Helvetica" font-size="12" font-weight="400" font-style="normal" 
>
</g>

<g fill="none" stroke="#000000" stroke-opacity="0.705882" stroke-width="1.5" stroke-linecap="round" stroke-linejoin="bevel" transform="matrix(6.7598,0,0,6.7598,-46.1071,-40.331)"
font-family="Helvetica" font-size="12" font-weight="400" font-style="normal" 
>
<path vector-effect="none" fill-rule="evenodd" d="M129.673,64.2215 C132.533,63.5134 132.572,66.2598 132.835,69.1945 "/>
</g>

<g fill="none" stroke="#000000" stroke-opacity="1" stroke-width="1" stroke-linecap="square" stroke-linejoin="bevel" transform="matrix(6.7598,0,0,6.7598,-46.1071,-40.331)"
font-family="Helvetica" font-size="12" font-weight="400" font-style="normal" 
>
</g>

<g fill="none" stroke="#000000" stroke-opacity="1" stroke-width="1" stroke-linecap="square" stroke-linejoin="bevel" transform="matrix(6.7598,0,0,6.7598,-46.1071,-40.331)"
font-family="Helvetica" font-size="12" font-weight="400" font-style="normal" 
>
</g>

<g fill="none" stroke="#000000" stroke-opacity="0.705882" stroke-width="1.5" stroke-linecap="round" stroke-linejoin="bevel" transform="matrix(6.7598,0,0,6.7598,-46.1071,-40.331)"
font-family="Helvetica" font-size="12" font-weight="400" font-style="normal" 
>
<path vector-effect="none" fill-rule="evenodd" d="M118.753,67.8255 C118.963,64.9296 121.297,66.2955 124.115,65.5977 "/>
</g>

<g fill="none" stroke="#000000" stroke-opacity="1" stroke-width="1" stroke-linecap="square" stroke-linejoin="bevel" transform="matrix(6.7598,0,0,6.7598,-46.1071,-40.331)"
font-family="Helvetica" font-size="12" font-weight="400" font-style="normal" 
>
</g>

<g fill="none" stroke="#000000" stroke-opacity="1" stroke-width="1" stroke-linecap="square" stroke-linejoin="bevel" transform="matrix(6.7598,0,0,6.7598,-46.1071,-40.331)"
font-family="Helvetica" font-size="12" font-weight="400" font-style="normal" 
>
</g>

<g fill="none" stroke="#000000" stroke-opacity="0.705882" stroke-width="1.5" stroke-linecap="round" stroke-linejoin="bevel" transform="matrix(6.7598,0,0,6.7598,-46.1071,-40.331)"
font-family="Helvetica" font-size="12" font-weight="400" font-style="normal" 
>
<path vector-effect="none" fill-rule="evenodd" d="M118.753,67.8255 C118.972,64.8104 116.757,64.9599 117.23,61.9741 "/>
</g>

<g fill="none" stroke="#000000" stroke-opacity="1" stroke-width="1" stroke-linecap="square" stroke-linejoin="bevel" transform="matrix(6.7598,0,0,6.7598,-46.1071,-40.331)"
font-family="Helvetica" font-size="12" font-weight="400" font-style="normal" 
>
</g>

<g fill="none" stroke="#000000" stroke-opacity="1" stroke-width="1" stroke-linecap="square" stroke-linejoin="bevel" transform="matrix(6.7598,0,0,6.7598,-46.1071,-40.331)"
font-family="Helvetica" font-size="12" font-weight="400" font-style="normal" 
>
</g>

<g fill="none" stroke="#000000" stroke-opacity="0.705882" stroke-width="1.5" stroke-linecap="round" stroke-linejoin="bevel" transform="matrix(6.7598,0,0,6.7598,-46.1071,-40.331)"
font-family="Helvetica" font-size="12" font-weight="400" font-style="normal" 
>
<path vector-effect="none" fill-rule="evenodd" d="M118.15,56.1772 C118.592,53.3877 121.444,53.6079 123.725,55.2724 "/>
</g>

<g fill="none" stroke="#000000" stroke-opacity="1" stroke-width="1" stroke-linecap="square" stroke-linejoin="bevel" transform="matrix(6.7598,0,0,6.7598,-46.1071,-40.331)"
font-family="Helvetica" font-size="12" font-weight="400" font-style="normal" 
>
</g>

<g fill="none" stroke="#000000" stroke-opacity="1" stroke-width="1" stroke-linecap="square" stroke-linejoin="bevel" transform="matrix(6.7598,0,0,6.7598,-46.1071,-40.331)"
font-family="Helvetica" font-size="12" font-weight="400" font-style="normal" 
>
</g>

<g fill="none" stroke="#000000" stroke-opacity="0.705882" stroke-width="1.5" stroke-linecap="round" stroke-linejoin="bevel" transform="matrix(6.7598,0,0,6.7598,-46.1071,-40.331)"
font-family="Helvetica" font-size="12" font-weight="400" font-style="normal" 
>
<path vector-effect="none" fill-rule="evenodd" d="M115.617,51.3207 C116.954,53.711 118.578,53.4724 118.15,56.1772 "/>
</g>

<g fill="none" stroke="#000000" stroke-opacity="1" stroke-width="1" stroke-linecap="square" stroke-linejoin="bevel" transform="matrix(6.7598,0,0,6.7598,-46.1071,-40.331)"
font-family="Helvetica" font-size="12" font-weight="400" font-style="normal" 
>
</g>

<g fill="none" stroke="#000000" stroke-opacity="1" stroke-width="1" stroke-linecap="square" stroke-linejoin="bevel" transform="matrix(6.7598,0,0,6.7598,-46.1071,-40.331)"
font-family="Helvetica" font-size="12" font-weight="400" font-style="normal" 
>
</g>

<g fill="#b4cb62" fill-opacity="1" stroke="none" transform="matrix(6.7598,0,0,6.7598,-46.1071,-40.331)"
font-family="Helvetica" font-size="12" font-weight="400" font-style="normal" 
>
<path vector-effect="none" fill-rule="nonzero" d="M123.743,64.0957 L129.301,62.7196 L130.045,65.7235 L124.487,67.0996 L123.743,64.0957"/>
</g>

<g fill="none" stroke="#000000" stroke-opacity="1" stroke-width="0.3" stroke-linecap="square" stroke-linejoin="round" transform="matrix(6.7598,0,0,6.7598,-46.1071,-40.331)"
font-family="Helvetica" font-size="12" font-weight="400" font-style="normal" 
>
<path vector-effect="none" fill-rule="evenodd" d="M123.743,64.0957 L129.301,62.7196 L130.045,65.7235 L124.487,67.0996 L123.743,64.0957"/>
</g>

<g fill="none" stroke="#000000" stroke-opacity="1" stroke-width="1" stroke-linecap="square" stroke-linejoin="bevel" transform="matrix(6.7598,0,0,6.7598,-46.1071,-40.331)"
font-family="Helvetica" font-size="12" font-weight="400" font-style="normal" 
>
</g>

<g fill="none" stroke="#000000" stroke-opacity="1" stroke-width="1" stroke-linecap="square" stroke-linejoin="bevel" transform="matrix(6.7598,0,0,6.7598,-46.1071,-40.331)"
font-family="Helvetica" font-size="12" font-weight="400" font-style="normal" 
>
</g>

<g fill="#ad62cb" fill-opacity="1" stroke="none" transform="matrix(6.7598,0,0,6.7598,-46.1071,-40.331)"
font-family="Helvetica" font-size="12" font-weight="400" font-style="normal" 
>
<path vector-effect="none" fill-rule="nonzero" d="M125.344,87.3524 L130.572,85.2285 L132.385,89.6908 L127.157,91.8148 L125.344,87.3524"/>
</g>

<g fill="none" stroke="#000000" stroke-opacity="1" stroke-width="0.3" stroke-linecap="square" stroke-linejoin="round" transform="matrix(6.7598,0,0,6.7598,-46.1071,-40.331)"
font-family="Helvetica" font-size="12" font-weight="400" font-style="normal" 
>
<path vector-effect="none" fill-rule="evenodd" d="M125.344,87.3524 L130.572,85.2285 L132.385,89.6908 L127.157,91.8148 L125.344,87.3524"/>
</g>

<g fill="none" stroke="#000000" stroke-opacity="1" stroke-width="1" stroke-linecap="square" stroke-linejoin="bevel" transform="matrix(6.7598,0,0,6.7598,-46.1071,-40.331)"
font-family="Helvetica" font-size="12" font-weight="400" font-style="normal" 
>
</g>

<g fill="none" stroke="#000000" stroke-opacity="1" stroke-width="1" stroke-linecap="square" stroke-linejoin="bevel" transform="matrix(6.7598,0,0,6.7598,-46.1071,-40.331)"
font-family="Helvetica" font-size="12" font-weight="400" font-style="normal" 
>
</g>

<g fill="#cb9862" fill-opacity="1" stroke="none" transform="matrix(6.7598,0,0,6.7598,-46.1071,-40.331)"
font-family="Helvetica" font-size="12" font-weight="400" font-style="normal" 
>
<path vector-effect="none" fill-rule="nonzero" d="M129.107,84.3307 L134.79,85.1531 L134.171,89.4343 L128.487,88.6119 L129.107,84.3307"/>
</g>

<g fill="none" stroke="#000000" stroke-opacity="1" stroke-width="0.3" stroke-linecap="square" stroke-linejoin="round" transform="matrix(6.7598,0,0,6.7598,-46.1071,-40.331)"
font-family="Helvetica" font-size="12" font-weight="400" font-style="normal" 
>
<path vector-effect="none" fill-rule="evenodd" d="M129.107,84.3307 L134.79,85.1531 L134.171,89.4343 L128.487,88.6119 L129.107,84.3307"/>
</g>

<g fill="none" stroke="#000000" stroke-opacity="1" stroke-width="1" stroke-linecap="square" stroke-linejoin="bevel" transform="matrix(6.7598,0,0,6.7598,-46.1071,-40.331)"
font-family="Helvetica" font-size="12" font-weight="400" font-style="normal" 
>
</g>

<g fill="none" stroke="#000000" stroke-opacity="1" stroke-width="1" stroke-linecap="square" stroke-linejoin="bevel" transform="matrix(6.7598,0,0,6.7598,-46.1071,-40.331)"
font-family="Helvetica" font-size="12" font-weight="400" font-style="normal" 
>
</g>

<g fill="#62cbc0" fill-opacity="1" stroke="none" transform="matrix(6.7598,0,0,6.7598,-46.1071,-40.331)"
font-family="Helvetica" font-size="12" font-weight="400" font-style="normal" 
>
<path vector-effect="none" fill-rule="nonzero" d="M125.091,53.4003 L129.656,56.73 L126.924,60.4743 L122.36,57.1445 L125.091,53.4003"/>
</g>

<g fill="none" stroke="#000000" stroke-opacity="1" stroke-width="0.3" stroke-linecap="square" stroke-linejoin="round" transform="matrix(6.7598,0,0,6.7598,-46.1071,-40.331)"
font-family="Helvetica" font-size="12" font-weight="400" font-style="normal" 
>
<path vector-effect="none" fill-rule="evenodd" d="M125.091,53.4003 L129.656,56.73 L126.924,60.4743 L122.36,57.1445 L125.091,53.4003"/>
</g>

<g fill="none" stroke="#000000" stroke-opacity="1" stroke-width="1" stroke-linecap="square" stroke-linejoin="bevel" transform="matrix(6.7598,0,0,6.7598,-46.1071,-40.331)"
font-family="Helvetica" font-size="12" font-weight="400" font-style="normal" 
>
</g>

<g fill="none" stroke="#000000" stroke-opacity="1" stroke-width="1" stroke-linecap="square" stroke-linejoin="bevel" transform="matrix(6.7598,0,0,6.7598,-46.1071,-40.331)"
font-family="Helvetica" font-size="12" font-weight="400" font-style="normal" 
>
</g>

<g fill="#7362cb" fill-opacity="1" stroke="none" transform="matrix(6.7598,0,0,6.7598,-46.1071,-40.331)"
font-family="Helvetica" font-size="12" font-weight="400" font-style="normal" 
>
<path vector-effect="none" fill-rule="nonzero" d="M120.777,56.5939 L119.858,62.3908 L114.603,61.5575 L115.522,55.7606 L120.777,56.5939"/>
</g>

<g fill="none" stroke="#000000" stroke-opacity="1" stroke-width="0.3" stroke-linecap="square" stroke-linejoin="round" transform="matrix(6.7598,0,0,6.7598,-46.1071,-40.331)"
font-family="Helvetica" font-size="12" font-weight="400" font-style="normal" 
>
<path vector-effect="none" fill-rule="evenodd" d="M120.777,56.5939 L119.858,62.3908 L114.603,61.5575 L115.522,55.7606 L120.777,56.5939"/>
</g>

<g fill="none" stroke="#000000" stroke-opacity="1" stroke-width="1" stroke-linecap="square" stroke-linejoin="bevel" transform="matrix(6.7598,0,0,6.7598,-46.1071,-40.331)"
font-family="Helvetica" font-size="12" font-weight="400" font-style="normal" 
>
</g>

<g fill="none" stroke="#000000" stroke-opacity="1" stroke-width="1" stroke-linecap="square" stroke-linejoin="bevel" transform="matrix(6.7598,0,0,6.7598,-46.1071,-40.331)"
font-family="Helvetica" font-size="12" font-weight="400" font-style="normal" 
>
</g>

<g fill="#62cb8c" fill-opacity="1" stroke="none" transform="matrix(6.7598,0,0,6.7598,-46.1071,-40.331)"
font-family="Helvetica" font-size="12" font-weight="400" font-style="normal" 
>
<path vector-effect="none" fill-rule="nonzero" d="M113.424,52.547 L106.022,39.3106 L110.407,36.8581 L117.809,50.0945 L113.424,52.547"/>
</g>

<g fill="none" stroke="#000000" stroke-opacity="1" stroke-width="0.3" stroke-linecap="square" stroke-linejoin="round" transform="matrix(6.7598,0,0,6.7598,-46.1071,-40.331)"
font-family="Helvetica" font-size="12" font-weight="400" font-style="normal" 
>
<path vector-effect="none" fill-rule="evenodd" d="M113.424,52.547 L106.022,39.3106 L110.407,36.8581 L117.809,50.0945 L113.424,52.547"/>
</g>

<g fill="none" stroke="#000000" stroke-opacity="1" stroke-width="1" stroke-linecap="square" stroke-linejoin="bevel" transform="matrix(6.7598,0,0,6.7598,-46.1071,-40.331)"
font-family="Helvetica" font-size="12" font-weight="400" font-style="normal" 
>
</g>

<g fill="none" stroke="#000000" stroke-opacity="1" stroke-width="1" stroke-linecap="square" stroke-linejoin="bevel" transform="matrix(6.7598,0,0,6.7598,-46.1071,-40.331)"
font-family="Helvetica" font-size="12" font-weight="400" font-style="normal" 
>
</g>

<g fill="#62cb93" fill-opacity="1" stroke="none" transform="matrix(6.7598,0,0,6.7598,-46.1071,-40.331)"
font-family="Helvetica" font-size="12" font-weight="400" font-style="normal" 
>
<path vector-effect="none" fill-rule="nonzero" d="M135.762,68.9318 L136.933,81.9815 L131.08,82.5069 L129.908,69.4572 L135.762,68.9318"/>
</g>

<g fill="none" stroke="#000000" stroke-opacity="1" stroke-width="0.3" stroke-linecap="square" stroke-linejoin="round" transform="matrix(6.7598,0,0,6.7598,-46.1071,-40.331)"
font-family="Helvetica" font-size="12" font-weight="400" font-style="normal" 
>
<path vector-effect="none" fill-rule="evenodd" d="M135.762,68.9318 L136.933,81.9815 L131.08,82.5069 L129.908,69.4572 L135.762,68.9318"/>
</g>

<g fill="none" stroke="#000000" stroke-opacity="1" stroke-width="1" stroke-linecap="square" stroke-linejoin="bevel" transform="matrix(6.7598,0,0,6.7598,-46.1071,-40.331)"
font-family="Helvetica" font-size="12" font-weight="400" font-style="normal" 
>
</g>

<g fill="none" stroke="#000000" stroke-opacity="1" stroke-width="1" stroke-linecap="square" stroke-linejoin="bevel" transform="matrix(6.7598,0,0,6.7598,-46.1071,-40.331)"
font-family="Helvetica" font-size="12" font-weight="400" font-style="normal" 
>
</g>

<g fill="#cb9f62" fill-opacity="1" stroke="none" transform="matrix(6.7598,0,0,6.7598,-46.1071,-40.331)"
font-family="Helvetica" font-size="12" font-weight="400" font-style="normal" 
>
<path vector-effect="none" fill-rule="nonzero" d="M114.37,73.8734 L114.83,67.5402 L122.675,68.1107 L122.215,74.4439 L114.37,73.8734"/>
</g>

<g fill="none" stroke="#000000" stroke-opacity="1" stroke-width="0.3" stroke-linecap="square" stroke-linejoin="round" transform="matrix(6.7598,0,0,6.7598,-46.1071,-40.331)"
font-family="Helvetica" font-size="12" font-weight="400" font-style="normal" 
>
<path vector-effect="none" fill-rule="evenodd" d="M114.37,73.8734 L114.83,67.5402 L122.675,68.1107 L122.215,74.4439 L114.37,73.8734"/>
</g>

<g fill="none" stroke="#000000" stroke-opacity="1" stroke-width="1" stroke-linecap="square" stroke-linejoin="bevel" transform="matrix(6.7598,0,0,6.7598,-46.1071,-40.331)"
font-family="Helvetica" font-size="12" font-weight="400" font-style="normal" 
>
</g>

<g fill="none" stroke="#000000" stroke-opacity="1" stroke-width="1" stroke-linecap="square" stroke-linejoin="bevel" transform="matrix(6.7598,0,0,6.7598,-46.1071,-40.331)"
font-family="Helvetica" font-size="12" font-weight="400" font-style="normal" 
>
</g>

<g fill="#a962cb" fill-opacity="1" stroke="none" transform="matrix(6.7598,0,0,6.7598,-46.1071,-40.331)"
font-family="Helvetica" font-size="12" font-weight="400" font-style="normal" 
>
<path vector-effect="none" fill-rule="nonzero" d="M120.882,86.5963 L117.534,81.6342 L122.528,78.2653 L125.875,83.2275 L120.882,86.5963"/>
</g>

<g fill="none" stroke="#000000" stroke-opacity="1" stroke-width="0.3" stroke-linecap="square" stroke-linejoin="round" transform="matrix(6.7598,0,0,6.7598,-46.1071,-40.331)"
font-family="Helvetica" font-size="12" font-weight="400" font-style="normal" 
>
<path vector-effect="none" fill-rule="evenodd" d="M120.882,86.5963 L117.534,81.6342 L122.528,78.2653 L125.875,83.2275 L120.882,86.5963"/>
</g>

<g fill="none" stroke="#000000" stroke-opacity="1" stroke-width="1" stroke-linecap="square" stroke-linejoin="bevel" transform="matrix(6.7598,0,0,6.7598,-46.1071,-40.331)"
font-family="Helvetica" font-size="12" font-weight="400" font-style="normal" 
>
</g>

<g fill="none" stroke="#000000" stroke-opacity="1" stroke-width="1" stroke-linecap="square" stroke-linejoin="bevel" transform="matrix(6.7598,0,0,6.7598,-46.1071,-40.331)"
font-family="Helvetica" font-size="12" font-weight="400" font-style="normal" 
>
</g>

<g fill="#6271cb" fill-opacity="1" stroke="none" transform="matrix(6.7598,0,0,6.7598,-46.1071,-40.331)"
font-family="Helvetica" font-size="12" font-weight="400" font-style="normal" 
>
<path vector-effect="none" fill-rule="nonzero" d="M23.3783,133.13 L36.1475,122.001 C36.1907,121.963 36.2352,121.927 36.281,121.892 L36.2811,121.892 L51.461,110.421 C51.5006,110.391 51.5412,110.362 51.5826,110.334 L51.5829,110.335 L69.2484,98.5938 C69.2816,98.5714 69.3155,98.5499 69.3498,98.5294 L69.3502,98.5296 L89.263,86.6519 C89.2848,86.6385 89.3071,86.6256 89.3294,86.6132 L89.3299,86.6134 L111.538,74.2921 L113.933,78.6086 L91.7248,90.93 L90.5274,88.7717 L91.7918,90.8914 L71.879,102.769 L70.6146,100.649 L71.9808,102.705 L54.3153,114.446 L52.9491,112.39 L54.4371,114.359 L39.2573,125.83 L37.7692,123.861 L39.3909,125.722 L26.6217,136.851 L23.3783,133.13"/>
</g>

<g fill="none" stroke="#000000" stroke-opacity="1" stroke-width="0.3" stroke-linecap="square" stroke-linejoin="round" transform="matrix(6.7598,0,0,6.7598,-46.1071,-40.331)"
font-family="Helvetica" font-size="12" font-weight="400" font-style="normal" 
>
<path vector-effect="none" fill-rule="evenodd" d="M23.3783,133.13 L36.1475,122.001 L36.2133,121.945 L36.281,121.892 L36.2811,121.892 L51.461,110.421 L51.5211,110.377 L51.5826,110.334 L51.5829,110.335 L69.2484,98.5938 L69.2987,98.5609 L69.3498,98.5294 L69.3502,98.5296 L89.263,86.6519 L89.296,86.6322 L89.3294,86.6132 L89.3299,86.6134 L111.538,74.2921 L113.933,78.6086 L91.7586,90.9112 L71.9307,102.738 L54.3775,114.404 L39.326,125.778 L26.6217,136.851 L23.3783,133.13"/>
</g>

<g fill="none" stroke="#000000" stroke-opacity="1" stroke-width="1" stroke-linecap="square" stroke-linejoin="bevel" transform="matrix(6.7598,0,0,6.7598,-46.1071,-40.331)"
font-family="Helvetica" font-size="12" font-weight="400" font-style="normal" 
>
</g>

<g fill="none" stroke="#000000" stroke-opacity="1" stroke-width="1" stroke-linecap="square" stroke-linejoin="bevel" transform="matrix(6.7598,0,0,6.7598,-46.1071,-40.331)"
font-family="Helvetica" font-size="12" font-weight="400" font-style="normal" 
>
</g>

<g fill="#628dcb" fill-opacity="1" stroke="none" transform="matrix(6.7598,0,0,6.7598,-46.1071,-40.331)"
font-family="Helvetica" font-size="12" font-weight="400" font-style="normal" 
>
<path vector-effect="none" fill-rule="nonzero" d="M332.007,136.2 L335.447,120.94 L337.863,121.484 L335.413,121.126 L337.819,104.684 L340.269,105.043 L337.795,104.932 L338.578,87.5005 L341.052,87.6116 L338.585,87.8301 L337.012,70.0714 L339.479,69.8529 L337.09,70.5075 L332.377,53.3106 L334.765,52.6561 L332.615,53.8838 L323.924,38.662 L326.075,37.4343 L324.526,39.366 L311.242,28.7122 L312.791,26.7805 L312.525,29.2424 L296.054,27.4619 L296.32,25 L297.588,27.127 L283.368,35.6035 L282.1,33.4765 L284.124,34.9038 L274.376,48.723 L272.352,47.2956 L274.567,48.4038 L266.899,63.7257 C266.87,63.7847 266.838,63.8418 266.805,63.8973 L266.805,63.897 L258.032,78.4326 C257.864,78.7121 257.641,78.9553 257.379,79.1481 L257.379,79.148 L244.047,88.9525 C243.637,89.2551 243.129,89.4338 242.58,89.4338 C242.544,89.4338 242.509,89.4331 242.474,89.4316 L242.474,89.4316 L225.916,88.7231 C225.632,88.7112 225.361,88.6516 225.111,88.5525 L225.112,88.552 L208.973,82.1724 L209.884,79.8695 L209.092,82.2158 L191.695,76.3453 L192.487,73.999 L192.151,76.4523 L172.599,73.7743 L172.935,71.321 L172.968,73.797 L150.97,74.0841 L150.938,71.6081 L151.155,74.0748 L124.349,76.4396 L123.914,71.5063 L150.72,69.1415 C150.781,69.136 150.843,69.1329 150.905,69.1321 L150.906,69.1321 L172.903,68.845 C172.914,68.8449 172.925,68.8448 172.935,68.8448 C174.303,68.8448 175.412,69.9534 175.412,71.321 C175.412,72.6886 174.303,73.7972 172.935,73.7972 C171.568,73.7972 170.459,72.6886 170.459,71.321 C170.459,70.0897 171.358,69.0684 172.534,68.8771 L173.271,68.8677 L192.823,71.5457 C192.981,71.5669 193.134,71.603 193.28,71.6523 L193.279,71.6528 L210.675,77.5233 C210.717,77.5365 210.756,77.5509 210.795,77.5662 L210.794,77.5667 L226.932,83.9463 L226.022,86.2492 L226.128,83.7752 L242.686,84.4836 L242.58,86.9576 L241.113,84.9627 L254.445,75.1583 L255.912,77.1531 L253.792,75.8737 L262.564,61.3381 L264.684,62.6175 L262.47,61.5094 L270.138,46.1874 C270.193,46.0755 270.257,45.969 270.329,45.8681 L270.329,45.8683 L280.077,32.0491 C280.277,31.7662 280.534,31.5273 280.832,31.3493 L280.832,31.3495 L295.053,22.873 C295.423,22.6511 295.857,22.5238 296.32,22.5238 C297.688,22.5238 298.797,23.6324 298.797,25 C298.797,26.3676 297.688,27.4762 296.32,27.4762 C294.953,27.4762 293.844,26.3676 293.844,25 C293.844,24.6681 293.91,24.3514 294.028,24.0625 L296.587,22.5381 L313.057,24.3187 C313.54,24.3703 313.981,24.5606 314.34,24.8488 L314.34,24.8488 L327.624,35.5026 C327.866,35.6968 328.071,35.9355 328.225,36.2061 L328.225,36.2066 L336.916,51.4283 C337.018,51.6063 337.098,51.7984 337.154,52.0003 L337.153,52.0015 L341.867,69.1984 C341.906,69.3387 341.932,69.4845 341.945,69.6336 L341.945,69.6344 L343.518,87.3931 C343.525,87.4649 343.528,87.5379 343.528,87.6116 C343.528,87.649 343.527,87.6862 343.526,87.7227 L343.525,87.7226 L342.743,105.154 C342.739,105.238 342.731,105.321 342.719,105.402 L342.719,105.402 L340.313,121.843 C340.304,121.907 340.293,121.969 340.279,122.03 L340.279,122.029 L336.838,137.29 L332.007,136.2"/>
</g>

<g fill="none" stroke="#000000" stroke-opacity="1" stroke-width="0.3" stroke-linecap="square" stroke-linejoin="round" transform="matrix(6.7598,0,0,6.7598,-46.1071,-40.331)"
font-family="Helvetica" font-size="12" font-weight="400" font-style="normal" 
>
<path vector-effect="none" fill-rule="evenodd" d="M332.007,136.2 L335.427,121.032 L337.801,104.808 L338.571,87.6655 L337.032,70.293 L332.46,53.6122 L324.158,39.0712 L311.806,29.1647 L296.877,27.5508 L283.82,35.3339 L274.483,48.5706 L266.899,63.7257 L266.854,63.8128 L266.805,63.8973 L266.805,63.897 L258.032,78.4326 L257.741,78.8229 L257.379,79.1481 L257.379,79.148 L244.047,88.9525 L243.366,89.3066 L242.58,89.4338 L242.527,89.4333 L242.474,89.4316 L242.474,89.4316 L225.916,88.7231 L225.501,88.6705 L225.111,88.5525 L225.112,88.552 L209.032,82.1956 L191.918,76.4204 L172.783,73.7994 L151.063,74.0829 L124.349,76.4396 L123.914,71.5063 L150.72,69.1415 L150.812,69.135 L150.905,69.1321 L150.906,69.1321 L172.903,68.845 L172.919,68.8449 L172.935,68.8448 L172.999,68.8712 L173.271,68.8677 L192.823,71.5457 L193.056,71.5885 L193.28,71.6523 L193.279,71.6528 L210.675,77.5233 L210.736,77.544 L210.795,77.5662 L210.794,77.5667 L226.544,83.793 L241.815,84.4464 L254.047,75.4509 L262.514,61.4219 L270.138,46.1874 L270.227,46.0236 L270.329,45.8681 L270.329,45.8683 L280.077,32.0491 L280.418,31.6599 L280.832,31.3493 L280.832,31.3495 L295.053,22.873 L295.652,22.6152 L296.32,22.5238 L296.492,22.5947 L296.587,22.5381 L313.057,24.3187 L313.745,24.495 L314.34,24.8488 L314.34,24.8488 L327.624,35.5026 L327.957,35.8257 L328.225,36.2061 L328.225,36.2066 L336.916,51.4283 L337.052,51.7053 L337.154,52.0003 L337.153,52.0015 L341.867,69.1984 L341.916,69.4127 L341.945,69.6336 L341.945,69.6344 L343.518,87.3931 L343.526,87.5016 L343.528,87.6116 L343.527,87.6675 L343.526,87.7227 L343.525,87.7226 L342.743,105.154 L342.734,105.279 L342.719,105.402 L342.719,105.402 L340.313,121.843 L340.298,121.938 L340.279,122.03 L340.279,122.029 L336.838,137.29 L332.007,136.2"/>
</g>

<g fill="none" stroke="#000000" stroke-opacity="1" stroke-width="1" stroke-linecap="square" stroke-linejoin="bevel" transform="matrix(6.7598,0,0,6.7598,-46.1071,-40.331)"
font-family="Helvetica" font-size="12" font-weight="400" font-style="normal" 
>
</g>

<g fill="none" stroke="#000000" stroke-opacity="1" stroke-width="1" stroke-linecap="square" stroke-linejoin="bevel" transform="matrix(1,0,0,1,0,0)"
font-family="Helvetica" font-size="12" font-weight="400" font-style="normal" 
>
</g>
</g>
</svg>
