<?xml version="1.0" encoding="UTF-8" standalone="no"?>
<svg width="729.897mm" height="352.778mm"
 viewBox="0 0 2069 1000"
 xmlns="http://www.w3.org/2000/svg" xmlns:xlink="http://www.w3.org/1999/xlink"  version="1.2" baseProfile="tiny">
<title>Qt SVG Document</title>
<desc>Generated with Qt</desc>
<defs>
</defs>
<g fill="none" stroke="black" stroke-width="1" fill-rule="evenodd" stroke-linecap="square" stroke-linejoin="bevel" >

<g fill="#ffffff" fill-opacity="1" stroke="none" transform="matrix(1,0,0,1,0,0)"
font-family="Helvetica" font-size="12" font-weight="400" font-style="normal" 
>
<rect x="0" y="0" width="2069" height="1000"/>
</g>

<g fill="none" stroke="#000000" stroke-opacity="1" stroke-width="1" stroke-linecap="square" stroke-linejoin="bevel" transform="matrix(1,0,0,1,0,0)"
font-family="Helvetica" font-size="12" font-weight="400" font-style="normal" 
>
</g>

<g fill="none" stroke="#000000" stroke-opacity="1" stroke-width="1" stroke-linecap="square" stroke-linejoin="bevel" transform="matrix(1,0,0,1,0,0)"
font-family="Helvetica" font-size="12" font-weight="400" font-style="normal" 
>
</g>

<g fill="none" stroke="#000000" stroke-opacity="1" stroke-width="1" stroke-linecap="square" stroke-linejoin="bevel" transform="matrix(6.59292,0,0,6.59292,-51.1534,-55.5487)"
font-family="Helvetica" font-size="12" font-weight="400" font-style="normal" 
>
</g>

<g fill="none" stroke="#000000" stroke-opacity="0.705882" stroke-width="1.5" stroke-linecap="round" stroke-linejoin="bevel" transform="matrix(6.59292,0,0,6.59292,-51.1534,-55.5487)"
font-family="Helvetica" font-size="12" font-weight="400" font-style="normal" 
>
<path vector-effect="none" fill-rule="evenodd" d="M191.265,51.5279 C189.044,53.3101 190.905,54.5418 189.238,56.8503 "/>
</g>

<g fill="none" stroke="#000000" stroke-opacity="1" stroke-width="1" stroke-linecap="square" stroke-linejoin="bevel" transform="matrix(6.59292,0,0,6.59292,-51.1534,-55.5487)"
font-family="Helvetica" font-size="12" font-weight="400" font-style="normal" 
>
</g>

<g fill="none" stroke="#000000" stroke-opacity="1" stroke-width="1" stroke-linecap="square" stroke-linejoin="bevel" transform="matrix(6.59292,0,0,6.59292,-51.1534,-55.5487)"
font-family="Helvetica" font-size="12" font-weight="400" font-style="normal" 
>
</g>

<g fill="none" stroke="#000000" stroke-opacity="0.705882" stroke-width="1.5" stroke-linecap="round" stroke-linejoin="bevel" transform="matrix(6.59292,0,0,6.59292,-51.1534,-55.5487)"
font-family="Helvetica" font-size="12" font-weight="400" font-style="normal" 
>
<path vector-effect="none" fill-rule="evenodd" d="M191.265,51.5279 C188.952,53.3842 188.046,50.4577 185.334,51.6593 "/>
</g>

<g fill="none" stroke="#000000" stroke-opacity="1" stroke-width="1" stroke-linecap="square" stroke-linejoin="bevel" transform="matrix(6.59292,0,0,6.59292,-51.1534,-55.5487)"
font-family="Helvetica" font-size="12" font-weight="400" font-style="normal" 
>
</g>

<g fill="none" stroke="#000000" stroke-opacity="1" stroke-width="1" stroke-linecap="square" stroke-linejoin="bevel" transform="matrix(6.59292,0,0,6.59292,-51.1534,-55.5487)"
font-family="Helvetica" font-size="12" font-weight="400" font-style="normal" 
>
</g>

<g fill="none" stroke="#000000" stroke-opacity="0.705882" stroke-width="1.5" stroke-linecap="round" stroke-linejoin="bevel" transform="matrix(6.59292,0,0,6.59292,-51.1534,-55.5487)"
font-family="Helvetica" font-size="12" font-weight="400" font-style="normal" 
>
<path vector-effect="none" fill-rule="evenodd" d="M181.39,59.5468 C179.807,57.1726 177.452,55.1522 180.061,53.996 "/>
</g>

<g fill="none" stroke="#000000" stroke-opacity="1" stroke-width="1" stroke-linecap="square" stroke-linejoin="bevel" transform="matrix(6.59292,0,0,6.59292,-51.1534,-55.5487)"
font-family="Helvetica" font-size="12" font-weight="400" font-style="normal" 
>
</g>

<g fill="none" stroke="#000000" stroke-opacity="1" stroke-width="1" stroke-linecap="square" stroke-linejoin="bevel" transform="matrix(6.59292,0,0,6.59292,-51.1534,-55.5487)"
font-family="Helvetica" font-size="12" font-weight="400" font-style="normal" 
>
</g>

<g fill="none" stroke="#000000" stroke-opacity="0.705882" stroke-width="1.5" stroke-linecap="round" stroke-linejoin="bevel" transform="matrix(6.59292,0,0,6.59292,-51.1534,-55.5487)"
font-family="Helvetica" font-size="12" font-weight="400" font-style="normal" 
>
<path vector-effect="none" fill-rule="evenodd" d="M195.328,55.0636 C192.635,55.0215 189.164,53.2134 191.265,51.5279 "/>
</g>

<g fill="none" stroke="#000000" stroke-opacity="1" stroke-width="1" stroke-linecap="square" stroke-linejoin="bevel" transform="matrix(6.59292,0,0,6.59292,-51.1534,-55.5487)"
font-family="Helvetica" font-size="12" font-weight="400" font-style="normal" 
>
</g>

<g fill="none" stroke="#000000" stroke-opacity="1" stroke-width="1" stroke-linecap="square" stroke-linejoin="bevel" transform="matrix(6.59292,0,0,6.59292,-51.1534,-55.5487)"
font-family="Helvetica" font-size="12" font-weight="400" font-style="normal" 
>
</g>

<g fill="none" stroke="#000000" stroke-opacity="0.705882" stroke-width="1.5" stroke-linecap="round" stroke-linejoin="bevel" transform="matrix(6.59292,0,0,6.59292,-51.1534,-55.5487)"
font-family="Helvetica" font-size="12" font-weight="400" font-style="normal" 
>
<path vector-effect="none" fill-rule="evenodd" d="M207.094,34.8102 C205.147,36.6526 206.571,37.9211 204.342,39.4105 "/>
</g>

<g fill="none" stroke="#000000" stroke-opacity="1" stroke-width="1" stroke-linecap="square" stroke-linejoin="bevel" transform="matrix(6.59292,0,0,6.59292,-51.1534,-55.5487)"
font-family="Helvetica" font-size="12" font-weight="400" font-style="normal" 
>
</g>

<g fill="none" stroke="#000000" stroke-opacity="1" stroke-width="1" stroke-linecap="square" stroke-linejoin="bevel" transform="matrix(6.59292,0,0,6.59292,-51.1534,-55.5487)"
font-family="Helvetica" font-size="12" font-weight="400" font-style="normal" 
>
</g>

<g fill="none" stroke="#000000" stroke-opacity="0.705882" stroke-width="1.5" stroke-linecap="round" stroke-linejoin="bevel" transform="matrix(6.59292,0,0,6.59292,-51.1534,-55.5487)"
font-family="Helvetica" font-size="12" font-weight="400" font-style="normal" 
>
<path vector-effect="none" fill-rule="evenodd" d="M199.473,42.6657 C196.995,44.3216 198.47,45.7455 196.146,47.6104 "/>
</g>

<g fill="none" stroke="#000000" stroke-opacity="1" stroke-width="1" stroke-linecap="square" stroke-linejoin="bevel" transform="matrix(6.59292,0,0,6.59292,-51.1534,-55.5487)"
font-family="Helvetica" font-size="12" font-weight="400" font-style="normal" 
>
</g>

<g fill="none" stroke="#000000" stroke-opacity="1" stroke-width="1" stroke-linecap="square" stroke-linejoin="bevel" transform="matrix(6.59292,0,0,6.59292,-51.1534,-55.5487)"
font-family="Helvetica" font-size="12" font-weight="400" font-style="normal" 
>
</g>

<g fill="none" stroke="#000000" stroke-opacity="0.705882" stroke-width="1.5" stroke-linecap="round" stroke-linejoin="bevel" transform="matrix(6.59292,0,0,6.59292,-51.1534,-55.5487)"
font-family="Helvetica" font-size="12" font-weight="400" font-style="normal" 
>
<path vector-effect="none" fill-rule="evenodd" d="M209.622,41.2163 C208.697,38.5843 206.662,37.8601 204.342,39.4105 "/>
</g>

<g fill="none" stroke="#000000" stroke-opacity="1" stroke-width="1" stroke-linecap="square" stroke-linejoin="bevel" transform="matrix(6.59292,0,0,6.59292,-51.1534,-55.5487)"
font-family="Helvetica" font-size="12" font-weight="400" font-style="normal" 
>
</g>

<g fill="none" stroke="#000000" stroke-opacity="1" stroke-width="1" stroke-linecap="square" stroke-linejoin="bevel" transform="matrix(6.59292,0,0,6.59292,-51.1534,-55.5487)"
font-family="Helvetica" font-size="12" font-weight="400" font-style="normal" 
>
</g>

<g fill="none" stroke="#000000" stroke-opacity="0.705882" stroke-width="1.5" stroke-linecap="round" stroke-linejoin="bevel" transform="matrix(6.59292,0,0,6.59292,-51.1534,-55.5487)"
font-family="Helvetica" font-size="12" font-weight="400" font-style="normal" 
>
<path vector-effect="none" fill-rule="evenodd" d="M207.316,50.0625 C209.969,50.4133 211.225,55.3124 208.55,55.2705 "/>
</g>

<g fill="none" stroke="#000000" stroke-opacity="1" stroke-width="1" stroke-linecap="square" stroke-linejoin="bevel" transform="matrix(6.59292,0,0,6.59292,-51.1534,-55.5487)"
font-family="Helvetica" font-size="12" font-weight="400" font-style="normal" 
>
</g>

<g fill="none" stroke="#000000" stroke-opacity="1" stroke-width="1" stroke-linecap="square" stroke-linejoin="bevel" transform="matrix(6.59292,0,0,6.59292,-51.1534,-55.5487)"
font-family="Helvetica" font-size="12" font-weight="400" font-style="normal" 
>
</g>

<g fill="none" stroke="#000000" stroke-opacity="0.705882" stroke-width="1.5" stroke-linecap="round" stroke-linejoin="bevel" transform="matrix(6.59292,0,0,6.59292,-51.1534,-55.5487)"
font-family="Helvetica" font-size="12" font-weight="400" font-style="normal" 
>
<path vector-effect="none" fill-rule="evenodd" d="M207.316,50.0625 C210.066,50.4261 212.339,48.9448 211.419,46.3277 "/>
</g>

<g fill="none" stroke="#000000" stroke-opacity="1" stroke-width="1" stroke-linecap="square" stroke-linejoin="bevel" transform="matrix(6.59292,0,0,6.59292,-51.1534,-55.5487)"
font-family="Helvetica" font-size="12" font-weight="400" font-style="normal" 
>
</g>

<g fill="none" stroke="#000000" stroke-opacity="1" stroke-width="1" stroke-linecap="square" stroke-linejoin="bevel" transform="matrix(6.59292,0,0,6.59292,-51.1534,-55.5487)"
font-family="Helvetica" font-size="12" font-weight="400" font-style="normal" 
>
</g>

<g fill="none" stroke="#000000" stroke-opacity="0.705882" stroke-width="1.5" stroke-linecap="round" stroke-linejoin="bevel" transform="matrix(6.59292,0,0,6.59292,-51.1534,-55.5487)"
font-family="Helvetica" font-size="12" font-weight="400" font-style="normal" 
>
<path vector-effect="none" fill-rule="evenodd" d="M201.638,49.3118 C198.789,48.935 198.389,45.8112 196.146,47.6104 "/>
</g>

<g fill="none" stroke="#000000" stroke-opacity="1" stroke-width="1" stroke-linecap="square" stroke-linejoin="bevel" transform="matrix(6.59292,0,0,6.59292,-51.1534,-55.5487)"
font-family="Helvetica" font-size="12" font-weight="400" font-style="normal" 
>
</g>

<g fill="none" stroke="#000000" stroke-opacity="1" stroke-width="1" stroke-linecap="square" stroke-linejoin="bevel" transform="matrix(6.59292,0,0,6.59292,-51.1534,-55.5487)"
font-family="Helvetica" font-size="12" font-weight="400" font-style="normal" 
>
</g>

<g fill="none" stroke="#000000" stroke-opacity="0.705882" stroke-width="1.5" stroke-linecap="round" stroke-linejoin="bevel" transform="matrix(6.59292,0,0,6.59292,-51.1534,-55.5487)"
font-family="Helvetica" font-size="12" font-weight="400" font-style="normal" 
>
<path vector-effect="none" fill-rule="evenodd" d="M180.061,53.996 C177.467,55.1454 177.705,52.3609 175.092,51.2562 "/>
</g>

<g fill="none" stroke="#000000" stroke-opacity="1" stroke-width="1" stroke-linecap="square" stroke-linejoin="bevel" transform="matrix(6.59292,0,0,6.59292,-51.1534,-55.5487)"
font-family="Helvetica" font-size="12" font-weight="400" font-style="normal" 
>
</g>

<g fill="none" stroke="#000000" stroke-opacity="1" stroke-width="1" stroke-linecap="square" stroke-linejoin="bevel" transform="matrix(6.59292,0,0,6.59292,-51.1534,-55.5487)"
font-family="Helvetica" font-size="12" font-weight="400" font-style="normal" 
>
</g>

<g fill="#cb626e" fill-opacity="1" stroke="none" transform="matrix(6.59292,0,0,6.59292,-51.1534,-55.5487)"
font-family="Helvetica" font-size="12" font-weight="400" font-style="normal" 
>
<path vector-effect="none" fill-rule="nonzero" d="M23.9924,99.6851 L22.5369,85.7634 C22.5279,85.6789 22.5235,85.5929 22.5235,85.5059 C22.5235,85.3561 22.5368,85.2095 22.5621,85.0678 L22.5624,85.0683 L25.1472,70.6723 C25.1901,70.4296 25.2683,70.2002 25.376,69.9886 L25.3764,69.989 L32.3836,56.1847 C32.4921,55.9701 32.6312,55.7741 32.7948,55.6016 L32.7948,55.6016 L43.9389,43.8487 C44.0923,43.687 44.2673,43.5459 44.4592,43.4303 L44.4595,43.4305 L58.9268,34.7284 C59.0967,34.6256 59.2802,34.5429 59.4734,34.4834 L59.4745,34.4838 L76.3082,29.3003 C76.4705,29.2497 76.6406,29.2159 76.8152,29.2005 L76.816,29.2006 L95.1717,27.5561 C95.2444,27.5496 95.3182,27.5463 95.3927,27.5463 C96.7604,27.5463 97.8692,28.655 97.8692,30.0228 C97.8692,31.3906 96.7604,32.4993 95.3927,32.4993 C94.0249,32.4993 92.9161,31.3906 92.9161,30.0228 C92.9161,28.8768 93.6945,27.9127 94.7507,27.6303 L95.598,27.5548 L114.878,29.1588 C114.991,29.1679 115.101,29.1847 115.208,29.2082 L115.207,29.2087 L135.071,33.6015 C135.153,33.619 135.232,33.6408 135.309,33.6661 L135.308,33.6666 L155.512,40.2991 C155.578,40.3202 155.642,40.3442 155.704,40.3705 L155.704,40.371 L176.057,48.9751 L174.128,53.5373 L153.775,44.9332 L154.739,42.6521 L153.967,45.0051 L133.763,38.3726 L134.536,36.0196 L134.001,38.4377 L114.138,34.0449 L114.673,31.6268 L114.467,34.0948 L95.1874,32.4908 L95.3927,30.0228 L95.6137,32.4895 L77.258,34.1339 L77.037,31.6672 L77.7658,34.0341 L60.9321,39.2175 L60.2033,36.8506 L61.4798,38.9729 L47.0126,47.6749 L45.7361,45.5527 L47.5332,47.2567 L36.389,59.0096 L34.5919,57.3056 L36.8002,58.4266 L29.7931,72.2309 L27.5847,71.11 L30.0223,71.5476 L27.4376,85.9436 L25,85.5059 L27.4631,85.2484 L28.9186,99.17 L23.9924,99.6851"/>
</g>

<g fill="none" stroke="#000000" stroke-opacity="1" stroke-width="0.3" stroke-linecap="square" stroke-linejoin="round" transform="matrix(6.59292,0,0,6.59292,-51.1534,-55.5487)"
font-family="Helvetica" font-size="12" font-weight="400" font-style="normal" 
>
<path vector-effect="none" fill-rule="evenodd" d="M23.9924,99.6851 L22.5369,85.7634 L22.5268,85.6356 L22.5235,85.5059 L22.5333,85.2838 L22.5621,85.0678 L22.5624,85.0683 L25.1472,70.6723 L25.2373,70.3188 L25.376,69.9886 L25.3764,69.989 L32.3836,56.1847 L32.5685,55.8773 L32.7948,55.6016 L32.7948,55.6016 L43.9389,43.8487 L44.1846,43.6222 L44.4592,43.4303 L44.4595,43.4305 L58.9268,34.7284 L59.1914,34.5896 L59.4734,34.4834 L59.4745,34.4838 L76.3082,29.3003 L76.5571,29.2372 L76.8152,29.2005 L76.816,29.2006 L95.1717,27.5561 L95.2815,27.5487 L95.3927,27.5463 L95.446,27.5683 L95.598,27.5548 L114.878,29.1588 L115.045,29.1781 L115.208,29.2082 L115.207,29.2087 L135.071,33.6015 L135.192,33.6309 L135.309,33.6661 L135.308,33.6666 L155.512,40.2991 L155.609,40.3328 L155.704,40.3705 L155.704,40.371 L176.057,48.9751 L174.128,53.5373 L153.869,44.9731 L133.881,38.4111 L114.301,34.0809 L95.4006,32.5086 L77.5172,34.1107 L61.2209,39.1286 L47.3013,47.5012 L36.637,58.748 L29.9579,71.9061 L27.4996,85.5978 L28.9186,99.17 L23.9924,99.6851"/>
</g>

<g fill="none" stroke="#000000" stroke-opacity="1" stroke-width="1" stroke-linecap="square" stroke-linejoin="bevel" transform="matrix(6.59292,0,0,6.59292,-51.1534,-55.5487)"
font-family="Helvetica" font-size="12" font-weight="400" font-style="normal" 
>
</g>

<g fill="none" stroke="#000000" stroke-opacity="1" stroke-width="1" stroke-linecap="square" stroke-linejoin="bevel" transform="matrix(6.59292,0,0,6.59292,-51.1534,-55.5487)"
font-family="Helvetica" font-size="12" font-weight="400" font-style="normal" 
>
</g>

<g fill="#cb7c62" fill-opacity="1" stroke="none" transform="matrix(6.59292,0,0,6.59292,-51.1534,-55.5487)"
font-family="Helvetica" font-size="12" font-weight="400" font-style="normal" 
>
<path vector-effect="none" fill-rule="nonzero" d="M186.487,54.2616 L181.214,56.5983 L178.908,51.3937 L184.181,49.057 L186.487,54.2616"/>
</g>

<g fill="none" stroke="#000000" stroke-opacity="1" stroke-width="0.3" stroke-linecap="square" stroke-linejoin="round" transform="matrix(6.59292,0,0,6.59292,-51.1534,-55.5487)"
font-family="Helvetica" font-size="12" font-weight="400" font-style="normal" 
>
<path vector-effect="none" fill-rule="evenodd" d="M186.487,54.2616 L181.214,56.5983 L178.908,51.3937 L184.181,49.057 L186.487,54.2616"/>
</g>

<g fill="none" stroke="#000000" stroke-opacity="1" stroke-width="1" stroke-linecap="square" stroke-linejoin="bevel" transform="matrix(6.59292,0,0,6.59292,-51.1534,-55.5487)"
font-family="Helvetica" font-size="12" font-weight="400" font-style="normal" 
>
</g>

<g fill="none" stroke="#000000" stroke-opacity="1" stroke-width="1" stroke-linecap="square" stroke-linejoin="bevel" transform="matrix(6.59292,0,0,6.59292,-51.1534,-55.5487)"
font-family="Helvetica" font-size="12" font-weight="400" font-style="normal" 
>
</g>

<g fill="#cb6298" fill-opacity="1" stroke="none" transform="matrix(6.59292,0,0,6.59292,-51.1534,-55.5487)"
font-family="Helvetica" font-size="12" font-weight="400" font-style="normal" 
>
<path vector-effect="none" fill-rule="nonzero" d="M198.678,50.7652 L193.796,54.6826 L188.733,48.3731 L193.615,44.4556 L198.678,50.7652"/>
</g>

<g fill="none" stroke="#000000" stroke-opacity="1" stroke-width="0.3" stroke-linecap="square" stroke-linejoin="round" transform="matrix(6.59292,0,0,6.59292,-51.1534,-55.5487)"
font-family="Helvetica" font-size="12" font-weight="400" font-style="normal" 
>
<path vector-effect="none" fill-rule="evenodd" d="M198.678,50.7652 L193.796,54.6826 L188.733,48.3731 L193.615,44.4556 L198.678,50.7652"/>
</g>

<g fill="none" stroke="#000000" stroke-opacity="1" stroke-width="1" stroke-linecap="square" stroke-linejoin="bevel" transform="matrix(6.59292,0,0,6.59292,-51.1534,-55.5487)"
font-family="Helvetica" font-size="12" font-weight="400" font-style="normal" 
>
</g>

<g fill="none" stroke="#000000" stroke-opacity="1" stroke-width="1" stroke-linecap="square" stroke-linejoin="bevel" transform="matrix(6.59292,0,0,6.59292,-51.1534,-55.5487)"
font-family="Helvetica" font-size="12" font-weight="400" font-style="normal" 
>
</g>

<g fill="#c0cb62" fill-opacity="1" stroke="none" transform="matrix(6.59292,0,0,6.59292,-51.1534,-55.5487)"
font-family="Helvetica" font-size="12" font-weight="400" font-style="normal" 
>
<path vector-effect="none" fill-rule="nonzero" d="M306.816,143.258 L293.124,145.286 C293.006,145.303 292.886,145.312 292.763,145.312 C292.756,145.312 292.748,145.312 292.741,145.312 L292.741,145.312 L278.19,145.184 C278.032,145.183 277.878,145.167 277.729,145.137 L277.729,145.137 L262.481,142.096 C262.312,142.063 262.15,142.013 261.997,141.947 L261.998,141.947 L246.861,135.502 C246.713,135.439 246.574,135.363 246.444,135.275 L246.444,135.274 L232.049,125.522 C231.943,125.45 231.844,125.371 231.751,125.285 L231.751,125.285 L218.265,112.721 C218.2,112.661 218.138,112.597 218.08,112.529 L218.08,112.529 L205.255,97.6831 C205.218,97.6394 205.181,97.5944 205.147,97.5482 L205.147,97.548 L192.505,80.6445 C192.479,80.6092 192.453,80.5731 192.429,80.5363 L192.429,80.5361 L179.34,60.9142 L183.44,58.1794 L196.529,77.8013 L194.479,79.1687 L196.452,77.6929 L209.094,94.5964 L207.12,96.0722 L208.985,94.4614 L221.81,109.308 L219.945,110.918 L221.624,109.115 L235.11,121.679 L233.431,123.482 L234.813,121.442 L249.208,131.194 L247.826,133.234 L248.791,130.967 L263.928,137.413 L262.963,139.68 L263.445,137.263 L278.693,140.304 L278.211,142.72 L278.233,140.256 L292.785,140.384 L292.763,142.848 L292.402,140.411 L306.094,138.383 L306.816,143.258"/>
</g>

<g fill="none" stroke="#000000" stroke-opacity="1" stroke-width="0.3" stroke-linecap="square" stroke-linejoin="round" transform="matrix(6.59292,0,0,6.59292,-51.1534,-55.5487)"
font-family="Helvetica" font-size="12" font-weight="400" font-style="normal" 
>
<path vector-effect="none" fill-rule="evenodd" d="M306.816,143.258 L293.124,145.286 L292.945,145.306 L292.763,145.312 L292.752,145.312 L292.741,145.312 L292.741,145.312 L278.19,145.184 L277.956,145.171 L277.729,145.137 L277.729,145.137 L262.481,142.096 L262.233,142.034 L261.997,141.947 L261.998,141.947 L246.861,135.502 L246.646,135.398 L246.444,135.275 L246.444,135.274 L232.049,125.522 L231.895,125.409 L231.751,125.285 L231.751,125.285 L218.265,112.721 L218.17,112.628 L218.08,112.529 L218.08,112.529 L205.255,97.6831 L205.2,97.6166 L205.147,97.5482 L205.147,97.548 L192.505,80.6445 L192.466,80.5909 L192.429,80.5363 L192.429,80.5361 L179.34,60.9142 L183.44,58.1794 L196.492,77.746 L209.042,94.527 L221.722,109.207 L234.971,121.549 L249.011,131.06 L263.694,137.313 L278.465,140.258 L292.592,140.382 L306.094,138.383 L306.816,143.258"/>
</g>

<g fill="none" stroke="#000000" stroke-opacity="1" stroke-width="1" stroke-linecap="square" stroke-linejoin="bevel" transform="matrix(6.59292,0,0,6.59292,-51.1534,-55.5487)"
font-family="Helvetica" font-size="12" font-weight="400" font-style="normal" 
>
</g>

<g fill="none" stroke="#000000" stroke-opacity="1" stroke-width="1" stroke-linecap="square" stroke-linejoin="bevel" transform="matrix(6.59292,0,0,6.59292,-51.1534,-55.5487)"
font-family="Helvetica" font-size="12" font-weight="400" font-style="normal" 
>
</g>

<g fill="#78cb62" fill-opacity="1" stroke="none" transform="matrix(6.59292,0,0,6.59292,-51.1534,-55.5487)"
font-family="Helvetica" font-size="12" font-weight="400" font-style="normal" 
>
<path vector-effect="none" fill-rule="nonzero" d="M191.242,58.2979 L177.087,77.8949 L175.083,76.4472 L177.152,77.8 L165.295,95.9405 L163.225,94.5877 L165.337,95.8737 L154.969,112.898 L152.858,111.612 L155,112.846 L146.001,128.455 L143.86,127.22 L146.025,128.413 L138.211,142.593 L133.88,140.206 L141.694,126.027 C141.702,126.012 141.709,125.999 141.717,125.985 L141.718,125.985 L150.716,110.377 C150.725,110.359 150.735,110.342 150.746,110.325 L150.746,110.326 L161.114,93.3017 C161.127,93.2789 161.141,93.2567 161.155,93.2348 L161.156,93.235 L173.013,75.0945 C173.034,75.062 173.056,75.0304 173.078,74.9994 L173.079,74.9995 L187.234,55.4026 L191.242,58.2979"/>
</g>

<g fill="none" stroke="#000000" stroke-opacity="1" stroke-width="0.3" stroke-linecap="square" stroke-linejoin="round" transform="matrix(6.59292,0,0,6.59292,-51.1534,-55.5487)"
font-family="Helvetica" font-size="12" font-weight="400" font-style="normal" 
>
<path vector-effect="none" fill-rule="evenodd" d="M191.242,58.2979 L177.121,77.8482 L165.316,95.9074 L154.985,112.872 L146.013,128.434 L138.211,142.593 L133.88,140.206 L141.694,126.027 L141.706,126.006 L141.717,125.985 L141.718,125.985 L150.716,110.377 L150.73,110.351 L150.746,110.325 L150.746,110.326 L161.114,93.3017 L161.134,93.2679 L161.155,93.2348 L161.156,93.235 L173.013,75.0945 L173.045,75.0464 L173.078,74.9994 L173.079,74.9995 L187.234,55.4026 L191.242,58.2979"/>
</g>

<g fill="none" stroke="#000000" stroke-opacity="1" stroke-width="1" stroke-linecap="square" stroke-linejoin="bevel" transform="matrix(6.59292,0,0,6.59292,-51.1534,-55.5487)"
font-family="Helvetica" font-size="12" font-weight="400" font-style="normal" 
>
</g>

<g fill="none" stroke="#000000" stroke-opacity="1" stroke-width="1" stroke-linecap="square" stroke-linejoin="bevel" transform="matrix(6.59292,0,0,6.59292,-51.1534,-55.5487)"
font-family="Helvetica" font-size="12" font-weight="400" font-style="normal" 
>
</g>

<g fill="#83cb62" fill-opacity="1" stroke="none" transform="matrix(6.59292,0,0,6.59292,-51.1534,-55.5487)"
font-family="Helvetica" font-size="12" font-weight="400" font-style="normal" 
>
<path vector-effect="none" fill-rule="nonzero" d="M208.503,58.2708 L195.281,58.0639 L195.375,52.0633 L208.597,52.2702 L208.503,58.2708"/>
</g>

<g fill="none" stroke="#000000" stroke-opacity="1" stroke-width="0.3" stroke-linecap="square" stroke-linejoin="round" transform="matrix(6.59292,0,0,6.59292,-51.1534,-55.5487)"
font-family="Helvetica" font-size="12" font-weight="400" font-style="normal" 
>
<path vector-effect="none" fill-rule="evenodd" d="M208.503,58.2708 L195.281,58.0639 L195.375,52.0633 L208.597,52.2702 L208.503,58.2708"/>
</g>

<g fill="none" stroke="#000000" stroke-opacity="1" stroke-width="1" stroke-linecap="square" stroke-linejoin="bevel" transform="matrix(6.59292,0,0,6.59292,-51.1534,-55.5487)"
font-family="Helvetica" font-size="12" font-weight="400" font-style="normal" 
>
</g>

<g fill="none" stroke="#000000" stroke-opacity="1" stroke-width="1" stroke-linecap="square" stroke-linejoin="bevel" transform="matrix(6.59292,0,0,6.59292,-51.1534,-55.5487)"
font-family="Helvetica" font-size="12" font-weight="400" font-style="normal" 
>
</g>

<g fill="#cb62c2" fill-opacity="1" stroke="none" transform="matrix(6.59292,0,0,6.59292,-51.1534,-55.5487)"
font-family="Helvetica" font-size="12" font-weight="400" font-style="normal" 
>
<path vector-effect="none" fill-rule="nonzero" d="M219.171,26.8099 L208.807,36.6201 L205.381,33.0003 L215.745,23.1901 L219.171,26.8099"/>
</g>

<g fill="none" stroke="#000000" stroke-opacity="1" stroke-width="0.3" stroke-linecap="square" stroke-linejoin="round" transform="matrix(6.59292,0,0,6.59292,-51.1534,-55.5487)"
font-family="Helvetica" font-size="12" font-weight="400" font-style="normal" 
>
<path vector-effect="none" fill-rule="evenodd" d="M219.171,26.8099 L208.807,36.6201 L205.381,33.0003 L215.745,23.1901 L219.171,26.8099"/>
</g>

<g fill="none" stroke="#000000" stroke-opacity="1" stroke-width="1" stroke-linecap="square" stroke-linejoin="bevel" transform="matrix(6.59292,0,0,6.59292,-51.1534,-55.5487)"
font-family="Helvetica" font-size="12" font-weight="400" font-style="normal" 
>
</g>

<g fill="none" stroke="#000000" stroke-opacity="1" stroke-width="1" stroke-linecap="square" stroke-linejoin="bevel" transform="matrix(6.59292,0,0,6.59292,-51.1534,-55.5487)"
font-family="Helvetica" font-size="12" font-weight="400" font-style="normal" 
>
</g>

<g fill="#62cb7f" fill-opacity="1" stroke="none" transform="matrix(6.59292,0,0,6.59292,-51.1534,-55.5487)"
font-family="Helvetica" font-size="12" font-weight="400" font-style="normal" 
>
<path vector-effect="none" fill-rule="nonzero" d="M205.977,41.8555 L201.107,45.1107 L197.838,40.2207 L202.708,36.9655 L205.977,41.8555"/>
</g>

<g fill="none" stroke="#000000" stroke-opacity="1" stroke-width="0.3" stroke-linecap="square" stroke-linejoin="round" transform="matrix(6.59292,0,0,6.59292,-51.1534,-55.5487)"
font-family="Helvetica" font-size="12" font-weight="400" font-style="normal" 
>
<path vector-effect="none" fill-rule="evenodd" d="M205.977,41.8555 L201.107,45.1107 L197.838,40.2207 L202.708,36.9655 L205.977,41.8555"/>
</g>

<g fill="none" stroke="#000000" stroke-opacity="1" stroke-width="1" stroke-linecap="square" stroke-linejoin="bevel" transform="matrix(6.59292,0,0,6.59292,-51.1534,-55.5487)"
font-family="Helvetica" font-size="12" font-weight="400" font-style="normal" 
>
</g>

<g fill="none" stroke="#000000" stroke-opacity="1" stroke-width="1" stroke-linecap="square" stroke-linejoin="bevel" transform="matrix(6.59292,0,0,6.59292,-51.1534,-55.5487)"
font-family="Helvetica" font-size="12" font-weight="400" font-style="normal" 
>
</g>

<g fill="#6562cb" fill-opacity="1" stroke="none" transform="matrix(6.59292,0,0,6.59292,-51.1534,-55.5487)"
font-family="Helvetica" font-size="12" font-weight="400" font-style="normal" 
>
<path vector-effect="none" fill-rule="nonzero" d="M202.054,46.1691 L207.731,46.9197 L206.9,53.2052 L201.223,52.4546 L202.054,46.1691"/>
</g>

<g fill="none" stroke="#000000" stroke-opacity="1" stroke-width="0.3" stroke-linecap="square" stroke-linejoin="round" transform="matrix(6.59292,0,0,6.59292,-51.1534,-55.5487)"
font-family="Helvetica" font-size="12" font-weight="400" font-style="normal" 
>
<path vector-effect="none" fill-rule="evenodd" d="M202.054,46.1691 L207.731,46.9197 L206.9,53.2052 L201.223,52.4546 L202.054,46.1691"/>
</g>

<g fill="none" stroke="#000000" stroke-opacity="1" stroke-width="1" stroke-linecap="square" stroke-linejoin="bevel" transform="matrix(6.59292,0,0,6.59292,-51.1534,-55.5487)"
font-family="Helvetica" font-size="12" font-weight="400" font-style="normal" 
>
</g>

<g fill="none" stroke="#000000" stroke-opacity="1" stroke-width="1" stroke-linecap="square" stroke-linejoin="bevel" transform="matrix(6.59292,0,0,6.59292,-51.1534,-55.5487)"
font-family="Helvetica" font-size="12" font-weight="400" font-style="normal" 
>
</g>

<g fill="#9b62cb" fill-opacity="1" stroke="none" transform="matrix(6.59292,0,0,6.59292,-51.1534,-55.5487)"
font-family="Helvetica" font-size="12" font-weight="400" font-style="normal" 
>
<path vector-effect="none" fill-rule="nonzero" d="M209.17,47.1184 L207.373,42.007 L211.871,40.4256 L213.668,45.537 L209.17,47.1184"/>
</g>

<g fill="none" stroke="#000000" stroke-opacity="1" stroke-width="0.3" stroke-linecap="square" stroke-linejoin="round" transform="matrix(6.59292,0,0,6.59292,-51.1534,-55.5487)"
font-family="Helvetica" font-size="12" font-weight="400" font-style="normal" 
>
<path vector-effect="none" fill-rule="evenodd" d="M209.17,47.1184 L207.373,42.007 L211.871,40.4256 L213.668,45.537 L209.17,47.1184"/>
</g>

<g fill="none" stroke="#000000" stroke-opacity="1" stroke-width="1" stroke-linecap="square" stroke-linejoin="bevel" transform="matrix(6.59292,0,0,6.59292,-51.1534,-55.5487)"
font-family="Helvetica" font-size="12" font-weight="400" font-style="normal" 
>
</g>

<g fill="none" stroke="#000000" stroke-opacity="1" stroke-width="1" stroke-linecap="square" stroke-linejoin="bevel" transform="matrix(1,0,0,1,0,0)"
font-family="Helvetica" font-size="12" font-weight="400" font-style="normal" 
>
</g>
</g>
</svg>
