<svg version="1.1" viewBox="0.0 0.0 1020.0 373.0" fill="none" stroke="none" stroke-linecap="square" stroke-miterlimit="10" xmlns:xlink="http://www.w3.org/1999/xlink" xmlns="http://www.w3.org/2000/svg"><clipPath id="p.0"><path d="m0 0l1020.0 0l0 373.0l-1020.0 0l0 -373.0z" clip-rule="nonzero"/></clipPath><g clip-path="url(#p.0)"><path fill="#000000" fill-opacity="0.0" d="m0 0l1020.0 0l0 373.0l-1020.0 0z" fill-rule="evenodd"/><path fill="#f3f3f3" d="m853.8742 39.06346l0 0c0 -12.956482 10.503296 -23.459785 23.459778 -23.459785l93.836365 0l0 0c6.221924 0 12.189026 2.4716482 16.588562 6.871213c4.399536 4.399563 6.871216 10.36665 6.871216 16.588573l0 297.45837c0 12.956482 -10.503296 23.459778 -23.459778 23.459778l-93.836365 0c-12.956482 0 -23.459778 -10.503296 -23.459778 -23.459778z" fill-rule="evenodd"/><path stroke="#000000" stroke-width="1.0" stroke-linejoin="round" stroke-linecap="butt" d="m853.8742 39.06346l0 0c0 -12.956482 10.503296 -23.459785 23.459778 -23.459785l93.836365 0l0 0c6.221924 0 12.189026 2.4716482 16.588562 6.871213c4.399536 4.399563 6.871216 10.36665 6.871216 16.588573l0 297.45837c0 12.956482 -10.503296 23.459778 -23.459778 23.459778l-93.836365 0c-12.956482 0 -23.459778 -10.503296 -23.459778 -23.459778z" fill-rule="evenodd"/><path fill="#f4cccc" d="m147.92728 59.52806l0 0c0 -22.813274 18.49382 -41.307087 41.307083 -41.307087l0 0c10.955322 0 21.461945 4.351984 29.208527 12.098566c7.746582 7.74658 12.0985565 18.253199 12.0985565 29.20852l0 0c0 22.81327 -18.493805 41.307083 -41.307083 41.307083l0 0c-22.813263 0 -41.307083 -18.493813 -41.307083 -41.307083z" fill-rule="evenodd"/><path stroke="#000000" stroke-width="1.0" stroke-linejoin="round" stroke-linecap="butt" d="m147.92728 59.52806l0 0c0 -22.813274 18.49382 -41.307087 41.307083 -41.307087l0 0c10.955322 0 21.461945 4.351984 29.208527 12.098566c7.746582 7.74658 12.0985565 18.253199 12.0985565 29.20852l0 0c0 22.81327 -18.493805 41.307083 -41.307083 41.307083l0 0c-22.813263 0 -41.307083 -18.493813 -41.307083 -41.307083z" fill-rule="evenodd"/><path fill="#fff2cc" d="m109.401344 127.193245l0 0c0 -17.203453 13.946152 -31.149612 31.149605 -31.149612l0 0c8.261383 0 16.184418 3.2818298 22.026093 9.123512c5.84169 5.8416824 9.123505 13.764709 9.123505 22.0261l0 0c0 17.203453 -13.946152 31.149605 -31.149597 31.149605l0 0c-17.203453 0 -31.149605 -13.946152 -31.149605 -31.149605z" fill-rule="evenodd"/><path stroke="#000000" stroke-width="1.0" stroke-linejoin="round" stroke-linecap="butt" d="m109.401344 127.193245l0 0c0 -17.203453 13.946152 -31.149612 31.149605 -31.149612l0 0c8.261383 0 16.184418 3.2818298 22.026093 9.123512c5.84169 5.8416824 9.123505 13.764709 9.123505 22.0261l0 0c0 17.203453 -13.946152 31.149605 -31.149597 31.149605l0 0c-17.203453 0 -31.149605 -13.946152 -31.149605 -31.149605z" fill-rule="evenodd"/><path fill="#ea9999" d="m47.439526 127.19661l0 0c0 -9.488861 7.6922417 -17.181099 17.181103 -17.181099l0 0c4.5567093 0 8.926796 1.8101425 12.148872 5.0322266c3.222084 3.2220764 5.032234 7.592163 5.032234 12.148872l0 0c0 9.488861 -7.6922455 17.181107 -17.181107 17.181107l0 0c-9.488861 0 -17.181103 -7.6922455 -17.181103 -17.181107z" fill-rule="evenodd"/><path stroke="#000000" stroke-width="1.0" stroke-linejoin="round" stroke-linecap="butt" d="m47.439526 127.19661l0 0c0 -9.488861 7.6922417 -17.181099 17.181103 -17.181099l0 0c4.5567093 0 8.926796 1.8101425 12.148872 5.0322266c3.222084 3.2220764 5.032234 7.592163 5.032234 12.148872l0 0c0 9.488861 -7.6922455 17.181107 -17.181107 17.181107l0 0c-9.488861 0 -17.181103 -7.6922455 -17.181103 -17.181107z" fill-rule="evenodd"/><path fill="#a4c2f4" d="m63.090008 67.120705l0 0c0 -16.655514 13.501965 -30.157478 30.157482 -30.157478l0 0c7.9982605 0 15.66893 3.1772957 21.324554 8.83292c5.6556244 5.6556244 8.832924 13.326298 8.832924 21.324558l0 0c0 16.655518 -13.501968 30.157478 -30.157478 30.157478l0 0c-16.655518 0 -30.157482 -13.501961 -30.157482 -30.157478z" fill-rule="evenodd"/><path stroke="#000000" stroke-width="1.0" stroke-linejoin="round" stroke-linecap="butt" d="m63.090008 67.120705l0 0c0 -16.655514 13.501965 -30.157478 30.157482 -30.157478l0 0c7.9982605 0 15.66893 3.1772957 21.324554 8.83292c5.6556244 5.6556244 8.832924 13.326298 8.832924 21.324558l0 0c0 16.655518 -13.501968 30.157478 -30.157478 30.157478l0 0c-16.655518 0 -30.157482 -13.501961 -30.157482 -30.157478z" fill-rule="evenodd"/><path fill="#8e7cc3" d="m74.66277 66.703255l0 0c0 -10.349903 8.390251 -18.740158 18.740158 -18.740158l0 0c4.970192 0 9.736824 1.9744034 13.251289 5.488865c3.5144577 3.5144615 5.488861 8.281094 5.488861 13.251293l0 0c0 10.349899 -8.390251 18.740158 -18.74015 18.740158l0 0c-10.349907 0 -18.740158 -8.390259 -18.740158 -18.740158z" fill-rule="evenodd"/><path stroke="#000000" stroke-width="1.0" stroke-linejoin="round" stroke-linecap="butt" d="m74.66277 66.703255l0 0c0 -10.349903 8.390251 -18.740158 18.740158 -18.740158l0 0c4.970192 0 9.736824 1.9744034 13.251289 5.488865c3.5144577 3.5144615 5.488861 8.281094 5.488861 13.251293l0 0c0 10.349899 -8.390251 18.740158 -18.74015 18.740158l0 0c-10.349907 0 -18.740158 -8.390259 -18.740158 -18.740158z" fill-rule="evenodd"/><path fill="#c27ba0" d="m160.04216 59.181404l0 0c0 -16.038002 13.001373 -29.039371 29.039368 -29.039371l0 0c7.701721 0 15.087997 3.0594978 20.533936 8.505436c5.445938 5.445938 8.505432 12.832214 8.505432 20.533936l0 0c0 16.038002 -13.001358 29.039368 -29.039368 29.039368l0 0c-16.037994 0 -29.039368 -13.001366 -29.039368 -29.039368z" fill-rule="evenodd"/><path stroke="#000000" stroke-width="1.0" stroke-linejoin="round" stroke-linecap="butt" d="m160.04216 59.181404l0 0c0 -16.038002 13.001373 -29.039371 29.039368 -29.039371l0 0c7.701721 0 15.087997 3.0594978 20.533936 8.505436c5.445938 5.445938 8.505432 12.832214 8.505432 20.533936l0 0c0 16.038002 -13.001358 29.039368 -29.039368 29.039368l0 0c-16.037994 0 -29.039368 -13.001366 -29.039368 -29.039368z" fill-rule="evenodd"/><path fill="#ffe599" d="m121.807396 127.18978l0 0c0 -10.349899 8.390251 -18.740158 18.74015 -18.740158l0 0c4.9701996 0 9.736832 1.9744034 13.251297 5.4888687c3.5144653 3.5144577 5.488861 8.28109 5.488861 13.251289l0 0c0 10.349907 -8.390244 18.740166 -18.740158 18.740166l0 0c-10.349899 0 -18.74015 -8.390259 -18.74015 -18.740166z" fill-rule="evenodd"/><path stroke="#000000" stroke-width="1.0" stroke-linejoin="round" stroke-linecap="butt" d="m121.807396 127.18978l0 0c0 -10.349899 8.390251 -18.740158 18.74015 -18.740158l0 0c4.9701996 0 9.736832 1.9744034 13.251297 5.4888687c3.5144653 3.5144577 5.488861 8.28109 5.488861 13.251289l0 0c0 10.349907 -8.390244 18.740166 -18.740158 18.740166l0 0c-10.349899 0 -18.74015 -8.390259 -18.74015 -18.740166z" fill-rule="evenodd"/><path fill="#ff0000" d="m58.379906 126.328575l0 0c0 -3.444168 2.7920532 -6.2362213 6.2362213 -6.2362213l0 0c1.6539459 0 3.240158 0.6570282 4.4096756 1.8265533c1.1695175 1.1695175 1.8265457 2.755722 1.8265457 4.409668l0 0c0 3.4441757 -2.7920532 6.236229 -6.2362213 6.236229l0 0c-3.444168 0 -6.2362213 -2.7920532 -6.2362213 -6.236229z" fill-rule="evenodd"/><path stroke="#000000" stroke-width="1.0" stroke-linejoin="round" stroke-linecap="butt" d="m58.379906 126.328575l0 0c0 -3.444168 2.7920532 -6.2362213 6.2362213 -6.2362213l0 0c1.6539459 0 3.240158 0.6570282 4.4096756 1.8265533c1.1695175 1.1695175 1.8265457 2.755722 1.8265457 4.409668l0 0c0 3.4441757 -2.7920532 6.236229 -6.2362213 6.236229l0 0c-3.444168 0 -6.2362213 -2.7920532 -6.2362213 -6.236229z" fill-rule="evenodd"/><path fill="#000000" fill-opacity="0.0" d="m160.04216 59.181404l-47.90551 7.5275574" fill-rule="evenodd"/><path stroke="#000000" stroke-width="1.0" stroke-linejoin="round" stroke-linecap="butt" d="m160.04216 59.181404l-47.90551 7.5275574" fill-rule="evenodd"/><path fill="#000000" fill-opacity="0.0" d="m189.08153 88.22077l-35.27559 25.732285" fill-rule="evenodd"/><path stroke="#000000" stroke-width="1.0" stroke-linejoin="round" stroke-linecap="butt" d="m189.08153 88.22077l-35.27559 25.732285" fill-rule="evenodd"/><path fill="#000000" fill-opacity="0.0" d="m121.807396 127.18978l-50.960632 -0.8503876" fill-rule="evenodd"/><path stroke="#000000" stroke-width="1.0" stroke-linejoin="round" stroke-linecap="butt" d="m121.807396 127.18978l-50.960632 -0.8503876" fill-rule="evenodd"/><path fill="#000000" fill-opacity="0.0" d="m93.40293 85.44341l-24.377953 36.472443" fill-rule="evenodd"/><path stroke="#000000" stroke-width="1.0" stroke-linejoin="round" stroke-linecap="butt" d="m93.40293 85.44341l-24.377953 36.472443" fill-rule="evenodd"/><path fill="#f4cccc" d="m35.24969 272.60352l0 0c-0.9132271 -21.473877 39.35294 -40.637512 89.93701 -42.80316l0 0c50.58407 -2.1656494 92.330864 13.486755 93.24409 34.960632l0 0c0.9132385 21.473877 -39.352936 40.637512 -89.937 42.80316l0 0c-50.58407 2.1656494 -92.33087 -13.486755 -93.244095 -34.960632z" fill-rule="evenodd"/><path stroke="#000000" stroke-width="1.0" stroke-linejoin="round" stroke-linecap="butt" d="m35.24969 272.60352l0 0c-0.9132271 -21.473877 39.35294 -40.637512 89.93701 -42.80316l0 0c50.58407 -2.1656494 92.330864 13.486755 93.24409 34.960632l0 0c0.9132385 21.473877 -39.352936 40.637512 -89.937 42.80316l0 0c-50.58407 2.1656494 -92.33087 -13.486755 -93.244095 -34.960632z" fill-rule="evenodd"/><path fill="#fff2cc" d="m31.330685 334.8943l0 0c0 -13.872345 28.583271 -25.118134 63.842518 -25.118134l0 0c35.259247 0 63.84253 11.245789 63.84253 25.118134l0 0c0 13.872345 -28.583282 25.118103 -63.84253 25.118103l0 0c-35.259247 0 -63.842518 -11.245758 -63.842518 -25.118103z" fill-rule="evenodd"/><path stroke="#000000" stroke-width="1.0" stroke-linejoin="round" stroke-linecap="butt" d="m31.330685 334.8943l0 0c0 -13.872345 28.583271 -25.118134 63.842518 -25.118134l0 0c35.259247 0 63.84253 11.245789 63.84253 25.118134l0 0c0 13.872345 -28.583282 25.118103 -63.84253 25.118103l0 0c-35.259247 0 -63.842518 -11.245758 -63.842518 -25.118103z" fill-rule="evenodd"/><path fill="#8e7cc3" d="m58.544716 274.16974l0 0c0 -10.349884 8.390259 -18.740143 18.740158 -18.740143l0 0c4.9701996 0 9.736832 1.9743958 13.251289 5.488861c3.5144653 3.5144653 5.4888687 8.281097 5.4888687 13.251282l0 0c0 10.349915 -8.390251 18.740173 -18.740158 18.740173l0 0c-10.349899 0 -18.740158 -8.390259 -18.740158 -18.740173z" fill-rule="evenodd"/><path stroke="#000000" stroke-width="1.0" stroke-linejoin="round" stroke-linecap="butt" d="m58.544716 274.16974l0 0c0 -10.349884 8.390259 -18.740143 18.740158 -18.740143l0 0c4.9701996 0 9.736832 1.9743958 13.251289 5.488861c3.5144653 3.5144653 5.4888687 8.281097 5.4888687 13.251282l0 0c0 10.349915 -8.390251 18.740173 -18.740158 18.740173l0 0c-10.349899 0 -18.740158 -8.390259 -18.740158 -18.740173z" fill-rule="evenodd"/><path fill="#c27ba0" d="m143.9241 266.6479l0 0c0 -16.037994 13.001373 -29.039352 29.039383 -29.039352l0 0c7.701706 0 15.087982 3.059494 20.533936 8.505432c5.445938 5.445938 8.505432 12.832199 8.505432 20.53392l0 0c0 16.038025 -13.001373 29.039368 -29.039368 29.039368l0 0c-16.03801 0 -29.039383 -13.001343 -29.039383 -29.039368z" fill-rule="evenodd"/><path stroke="#000000" stroke-width="1.0" stroke-linejoin="round" stroke-linecap="butt" d="m143.9241 266.6479l0 0c0 -16.037994 13.001373 -29.039352 29.039383 -29.039352l0 0c7.701706 0 15.087982 3.059494 20.533936 8.505432c5.445938 5.445938 8.505432 12.832199 8.505432 20.53392l0 0c0 16.038025 -13.001373 29.039368 -29.039368 29.039368l0 0c-16.03801 0 -29.039383 -13.001343 -29.039383 -29.039368z" fill-rule="evenodd"/><path fill="#ffe599" d="m105.68934 334.65628l0 0c0 -10.349915 8.390259 -18.740143 18.740158 -18.740143l0 0c4.970207 0 9.736839 1.9743958 13.251289 5.488861c3.5144653 3.5144653 5.4888763 8.281097 5.4888763 13.251282l0 0c0 10.349915 -8.390259 18.740173 -18.740166 18.740173l0 0c-10.349899 0 -18.740158 -8.390259 -18.740158 -18.740173z" fill-rule="evenodd"/><path stroke="#000000" stroke-width="1.0" stroke-linejoin="round" stroke-linecap="butt" d="m105.68934 334.65628l0 0c0 -10.349915 8.390259 -18.740143 18.740158 -18.740143l0 0c4.970207 0 9.736839 1.9743958 13.251289 5.488861c3.5144653 3.5144653 5.4888763 8.281097 5.4888763 13.251282l0 0c0 10.349915 -8.390259 18.740173 -18.740166 18.740173l0 0c-10.349899 0 -18.740158 -8.390259 -18.740158 -18.740173z" fill-rule="evenodd"/><path fill="#ff0000" d="m42.261852 333.79507l0 0c0 -3.4441833 2.7920532 -6.236206 6.2362213 -6.236206l0 0c1.6539497 0 3.240158 0.65701294 4.4096756 1.8265381c1.1695175 1.1695251 1.8265457 2.7557068 1.8265457 4.409668l0 0c0 3.4441833 -2.7920494 6.236206 -6.2362213 6.236206l0 0c-3.444168 0 -6.2362213 -2.7920227 -6.2362213 -6.236206z" fill-rule="evenodd"/><path stroke="#000000" stroke-width="1.0" stroke-linejoin="round" stroke-linecap="butt" d="m42.261852 333.79507l0 0c0 -3.4441833 2.7920532 -6.236206 6.2362213 -6.236206l0 0c1.6539497 0 3.240158 0.65701294 4.4096756 1.8265381c1.1695175 1.1695251 1.8265457 2.7557068 1.8265457 4.409668l0 0c0 3.4441833 -2.7920494 6.236206 -6.2362213 6.236206l0 0c-3.444168 0 -6.2362213 -2.7920227 -6.2362213 -6.236206z" fill-rule="evenodd"/><path fill="#000000" fill-opacity="0.0" d="m143.9241 266.6479l-47.90551 7.5275574" fill-rule="evenodd"/><path stroke="#000000" stroke-width="1.0" stroke-linejoin="round" stroke-linecap="butt" d="m143.9241 266.6479l-47.90551 7.5275574" fill-rule="evenodd"/><path fill="#000000" fill-opacity="0.0" d="m172.96349 295.68726l-35.275604 25.7323" fill-rule="evenodd"/><path stroke="#000000" stroke-width="1.0" stroke-linejoin="round" stroke-linecap="butt" d="m172.96349 295.68726l-35.275604 25.7323" fill-rule="evenodd"/><path fill="#000000" fill-opacity="0.0" d="m105.68934 334.65628l-50.96063 -0.85040283" fill-rule="evenodd"/><path stroke="#000000" stroke-width="1.0" stroke-linejoin="round" stroke-linecap="butt" d="m105.68934 334.65628l-50.96063 -0.85040283" fill-rule="evenodd"/><path fill="#000000" fill-opacity="0.0" d="m77.284874 292.9099l-24.377953 36.472443" fill-rule="evenodd"/><path stroke="#000000" stroke-width="1.0" stroke-linejoin="round" stroke-linecap="butt" d="m77.284874 292.9099l-24.377953 36.472443" fill-rule="evenodd"/><path fill="#d5a6bd" d="m455.13293 118.30428l0 0c0 -32.650024 26.468079 -59.118107 59.118103 -59.118107l0 0c15.679077 0 30.716003 6.2284966 41.802795 17.315296c11.086792 11.086792 17.315308 26.123718 17.315308 41.80281l0 0c0 32.650032 -26.468079 59.11811 -59.118103 59.11811l0 0c-32.650024 0 -59.118103 -26.468079 -59.118103 -59.11811z" fill-rule="evenodd"/><path stroke="#000000" stroke-width="1.0" stroke-linejoin="round" stroke-linecap="butt" d="m455.13293 118.30428l0 0c0 -32.650024 26.468079 -59.118107 59.118103 -59.118107l0 0c15.679077 0 30.716003 6.2284966 41.802795 17.315296c11.086792 11.086792 17.315308 26.123718 17.315308 41.80281l0 0c0 32.650032 -26.468079 59.11811 -59.118103 59.11811l0 0c-32.650024 0 -59.118103 -26.468079 -59.118103 -59.11811z" fill-rule="evenodd"/><path fill="#ffe599" d="m475.469 260.66333l0 0c0 -22.256638 18.042572 -40.29921 40.299194 -40.29921l0 0c10.688049 0 20.938293 4.245804 28.49585 11.80336c7.557556 7.5575714 11.803406 17.80783 11.803406 28.49585l0 0c0 22.256653 -18.042603 40.299225 -40.299255 40.299225l0 0c-22.256622 0 -40.299194 -18.042572 -40.299194 -40.299225z" fill-rule="evenodd"/><path stroke="#000000" stroke-width="1.0" stroke-linejoin="round" stroke-linecap="butt" d="m475.469 260.66333l0 0c0 -22.256638 18.042572 -40.29921 40.299194 -40.29921l0 0c10.688049 0 20.938293 4.245804 28.49585 11.80336c7.557556 7.5575714 11.803406 17.80783 11.803406 28.49585l0 0c0 22.256653 -18.042603 40.299225 -40.299255 40.299225l0 0c-22.256622 0 -40.299194 -18.042572 -40.299194 -40.299225z" fill-rule="evenodd"/><path fill="#000000" fill-opacity="0.0" d="m514.25104 177.4224l1.5117798 42.92914" fill-rule="evenodd"/><path stroke="#000000" stroke-width="1.0" stroke-linejoin="round" stroke-linecap="butt" d="m514.25104 177.4224l1.5117798 42.92914" fill-rule="evenodd"/><path fill="#000000" fill-opacity="0.0" d="m123.33878 172.14127l0 40.62993" fill-rule="evenodd"/><path stroke="#000000" stroke-width="2.0" stroke-linejoin="round" stroke-linecap="butt" d="m123.33879 172.14127l0 28.629913" fill-rule="evenodd"/><path fill="#000000" stroke="#000000" stroke-width="2.0" stroke-linecap="butt" d="m120.035324 200.77118l3.3034668 9.076202l3.3034592 -9.076202z" fill-rule="evenodd"/><path fill="#000000" fill-opacity="0.0" d="m230.01776 308.11075l109.98425 0l0 -114.110245l109.98425 0" fill-rule="evenodd"/><path stroke="#000000" stroke-width="2.0" stroke-linejoin="round" stroke-linecap="butt" d="m230.01776 308.11072l109.98425 0l0 -114.11023l97.98425 0" fill-rule="evenodd"/><path fill="#000000" stroke="#000000" stroke-width="2.0" stroke-linecap="butt" d="m437.98627 197.30396l9.076202 -3.3034668l-9.076202 -3.3034668z" fill-rule="evenodd"/><path fill="#d5a6bd" d="m865.0063 280.486l0 0c0 -32.65001 26.468079 -59.118103 59.118103 -59.118103l0 0c15.679138 0 30.716064 6.2285004 41.802856 17.315308c11.086792 11.086792 17.315308 26.123718 17.315308 41.802795l0 0c0 32.650055 -26.468079 59.118134 -59.118164 59.118134l0 0c-32.650024 0 -59.118103 -26.468079 -59.118103 -59.118134z" fill-rule="evenodd"/><path stroke="#000000" stroke-width="1.0" stroke-linejoin="round" stroke-linecap="butt" d="m865.0063 280.486l0 0c0 -32.65001 26.468079 -59.118103 59.118103 -59.118103l0 0c15.679138 0 30.716064 6.2285004 41.802856 17.315308c11.086792 11.086792 17.315308 26.123718 17.315308 41.802795l0 0c0 32.650055 -26.468079 59.118134 -59.118164 59.118134l0 0c-32.650024 0 -59.118103 -26.468079 -59.118103 -59.118134z" fill-rule="evenodd"/><path fill="#8e7cc3" d="m905.3737 138.83295l0 0c0 -10.349899 8.390259 -18.740158 18.740112 -18.740158l0 0c4.970215 0 9.736877 1.9744034 13.251343 5.4888687c3.5144653 3.5144577 5.4888306 8.28109 5.4888306 13.251289l0 0c0 10.349899 -8.390259 18.740158 -18.740173 18.740158l0 0c-10.3498535 0 -18.740112 -8.390259 -18.740112 -18.740158z" fill-rule="evenodd"/><path stroke="#000000" stroke-width="1.0" stroke-linejoin="round" stroke-linecap="butt" d="m905.3737 138.83295l0 0c0 -10.349899 8.390259 -18.740158 18.740112 -18.740158l0 0c4.970215 0 9.736877 1.9744034 13.251343 5.4888687c3.5144653 3.5144577 5.4888306 8.28109 5.4888306 13.251289l0 0c0 10.349899 -8.390259 18.740158 -18.740173 18.740158l0 0c-10.3498535 0 -18.740112 -8.390259 -18.740112 -18.740158z" fill-rule="evenodd"/><path fill="#0000ff" d="m917.8783 43.197487l0 0c0 -3.444168 2.7920532 -6.2362213 6.236206 -6.2362213l0 0c1.6539307 0 3.2401733 0.6570282 4.409668 1.8265457c1.1694946 1.1695213 1.8265381 2.7557259 1.8265381 4.4096756l0 0c0 3.444168 -2.7920532 6.2362213 -6.236206 6.2362213l0 0c-3.4441528 0 -6.236206 -2.7920532 -6.236206 -6.2362213z" fill-rule="evenodd"/><path stroke="#000000" stroke-width="1.0" stroke-linejoin="round" stroke-linecap="butt" d="m917.8783 43.197487l0 0c0 -3.444168 2.7920532 -6.2362213 6.236206 -6.2362213l0 0c1.6539307 0 3.2401733 0.6570282 4.409668 1.8265457c1.1694946 1.1695213 1.8265381 2.7557259 1.8265381 4.4096756l0 0c0 3.444168 -2.7920532 6.2362213 -6.236206 6.2362213l0 0c-3.4441528 0 -6.236206 -2.7920532 -6.236206 -6.2362213z" fill-rule="evenodd"/><path fill="#000000" fill-opacity="0.0" d="m924.7205 64.29867l0 41.41732" fill-rule="evenodd"/><path stroke="#b7b7b7" stroke-width="1.0" stroke-linejoin="round" stroke-linecap="butt" d="m924.7206 64.29867l0 35.417328" fill-rule="evenodd"/><path fill="#b7b7b7" stroke="#b7b7b7" stroke-width="1.0" stroke-linecap="butt" d="m923.06885 99.715996l1.6517334 4.5380936l1.6517334 -4.5380936z" fill-rule="evenodd"/><path fill="#000000" fill-opacity="0.0" d="m924.7205 172.14127l0 36.72441" fill-rule="evenodd"/><path stroke="#b7b7b7" stroke-width="1.0" stroke-linejoin="round" stroke-linecap="butt" d="m924.7206 172.14127l0 30.724411" fill-rule="evenodd"/><path fill="#b7b7b7" stroke="#b7b7b7" stroke-width="1.0" stroke-linecap="butt" d="m923.06885 202.86568l1.6517334 4.538086l1.6517334 -4.538086z" fill-rule="evenodd"/></g></svg>