<svg version="1.1" viewBox="0.0 0.0 845.0 517.0" fill="none" stroke="none" stroke-linecap="square" stroke-miterlimit="10" xmlns:xlink="http://www.w3.org/1999/xlink" xmlns="http://www.w3.org/2000/svg"><clipPath id="p.0"><path d="m0 0l845.0 0l0 517.0l-845.0 0l0 -517.0z" clip-rule="nonzero"/></clipPath><g clip-path="url(#p.0)"><path fill="#000000" fill-opacity="0.0" d="m0 0l845.0 0l0 517.0l-845.0 0z" fill-rule="evenodd"/><path fill="#cfe2f3" d="m159.01204 59.270847l0 0c0 -13.953804 11.311783 -25.265598 25.265594 -25.265598l113.50029 0c6.7008667 0 13.127258 2.6619034 17.865479 7.4001236c4.73822 4.7382164 7.400116 11.164619 7.400116 17.865475l0 101.05936c0 13.953812 -11.311798 25.265594 -25.265594 25.265594l-113.50029 0c-13.953812 0 -25.265594 -11.311783 -25.265594 -25.265594z" fill-rule="evenodd"/><path stroke="#000000" stroke-width="1.0" stroke-linejoin="round" stroke-linecap="butt" d="m159.01204 59.270847l0 0c0 -13.953804 11.311783 -25.265598 25.265594 -25.265598l113.50029 0c6.7008667 0 13.127258 2.6619034 17.865479 7.4001236c4.73822 4.7382164 7.400116 11.164619 7.400116 17.865475l0 101.05936c0 13.953812 -11.311798 25.265594 -25.265594 25.265594l-113.50029 0c-13.953812 0 -25.265594 -11.311783 -25.265594 -25.265594z" fill-rule="evenodd"/><path fill="#38761d" d="m194.25656 166.72205l0 0c0 -4.226944 3.4266052 -7.653549 7.653534 -7.653549l0 0c2.0298462 0 3.9765625 0.8063507 5.4118805 2.2416687c1.435318 1.435318 2.2416687 3.3820343 2.2416687 5.4118805l0 0c0 4.2269287 -3.4266052 7.653534 -7.653549 7.653534l0 0c-4.2269287 0 -7.653534 -3.4266052 -7.653534 -7.653534z" fill-rule="evenodd"/><path stroke="#000000" stroke-width="1.0" stroke-linejoin="round" stroke-linecap="butt" d="m194.25656 166.72205l0 0c0 -4.226944 3.4266052 -7.653549 7.653534 -7.653549l0 0c2.0298462 0 3.9765625 0.8063507 5.4118805 2.2416687c1.435318 1.435318 2.2416687 3.3820343 2.2416687 5.4118805l0 0c0 4.2269287 -3.4266052 7.653534 -7.653549 7.653534l0 0c-4.2269287 0 -7.653534 -3.4266052 -7.653534 -7.653534z" fill-rule="evenodd"/><path fill="#ff00ff" d="m194.25761 93.99019l0 0c0 -4.2269363 3.4266052 -7.6535416 7.653534 -7.6535416l0 0c2.0298462 0 3.9765625 0.8063507 5.4118805 2.2416687c1.435318 1.435318 2.2416687 3.3820267 2.2416687 5.411873l0 0c0 4.2269363 -3.4266052 7.653549 -7.653549 7.653549l0 0c-4.2269287 0 -7.653534 -3.4266129 -7.653534 -7.653549z" fill-rule="evenodd"/><path stroke="#000000" stroke-width="1.0" stroke-linejoin="round" stroke-linecap="butt" d="m194.25761 93.99019l0 0c0 -4.2269363 3.4266052 -7.6535416 7.653534 -7.6535416l0 0c2.0298462 0 3.9765625 0.8063507 5.4118805 2.2416687c1.435318 1.435318 2.2416687 3.3820267 2.2416687 5.411873l0 0c0 4.2269363 -3.4266052 7.653549 -7.653549 7.653549l0 0c-4.2269287 0 -7.653534 -3.4266129 -7.653534 -7.653549z" fill-rule="evenodd"/><path fill="#9900ff" d="m170.59665 53.44298l0 0c0 -4.2269363 3.4266052 -7.6535454 7.653534 -7.6535454l0 0c2.0298462 0 3.9765625 0.8063545 5.4118805 2.2416725c1.435318 1.435318 2.2416687 3.3820267 2.2416687 5.411873l0 0c0 4.2269325 -3.4266052 7.6535416 -7.653549 7.6535416l0 0c-4.2269287 0 -7.653534 -3.426609 -7.653534 -7.6535416z" fill-rule="evenodd"/><path stroke="#000000" stroke-width="1.0" stroke-linejoin="round" stroke-linecap="butt" d="m170.59665 53.44298l0 0c0 -4.2269363 3.4266052 -7.6535454 7.653534 -7.6535454l0 0c2.0298462 0 3.9765625 0.8063545 5.4118805 2.2416725c1.435318 1.435318 2.2416687 3.3820267 2.2416687 5.411873l0 0c0 4.2269325 -3.4266052 7.6535416 -7.653549 7.6535416l0 0c-4.2269287 0 -7.653534 -3.426609 -7.653534 -7.6535416z" fill-rule="evenodd"/><path fill="#0000ff" d="m22.21578 108.95767l0 0c0 -4.2269363 3.426609 -7.6535416 7.6535435 -7.6535416l0 0c2.0298462 0 3.9765549 0.8063507 5.411873 2.2416687c1.435318 1.435318 2.2416725 3.3820267 2.2416725 5.411873l0 0c0 4.2269363 -3.426609 7.653549 -7.6535454 7.653549l0 0c-4.2269344 0 -7.6535435 -3.4266129 -7.6535435 -7.653549z" fill-rule="evenodd"/><path stroke="#000000" stroke-width="1.0" stroke-linejoin="round" stroke-linecap="butt" d="m22.21578 108.95767l0 0c0 -4.2269363 3.426609 -7.6535416 7.6535435 -7.6535416l0 0c2.0298462 0 3.9765549 0.8063507 5.411873 2.2416687c1.435318 1.435318 2.2416725 3.3820267 2.2416725 5.411873l0 0c0 4.2269363 -3.426609 7.653549 -7.6535454 7.653549l0 0c-4.2269344 0 -7.6535435 -3.4266129 -7.6535435 -7.653549z" fill-rule="evenodd"/><path fill="#000000" fill-opacity="0.0" d="m196.49928 88.578316l-12.850403 -29.73228" fill-rule="evenodd"/><path stroke="#000000" stroke-width="1.0" stroke-linejoin="round" stroke-linecap="butt" d="m196.49928 88.578316l-12.850403 -29.73228" fill-rule="evenodd"/><path fill="#000000" fill-opacity="0.0" d="m201.91115 101.64374l0 57.417313" fill-rule="evenodd"/><path stroke="#000000" stroke-width="1.0" stroke-linejoin="round" stroke-linecap="butt" d="m201.91115 101.64374l0 57.417313" fill-rule="evenodd"/><path fill="#b45f06" d="m245.7082 115.99279l0 0c0 -4.2269363 3.4266052 -7.6535416 7.653549 -7.6535416l0 0c2.0298462 0 3.9765625 0.8063507 5.411865 2.2416687c1.4353333 1.435318 2.2416687 3.3820267 2.2416687 5.411873l0 0c0 4.2269363 -3.4266052 7.6535416 -7.653534 7.6535416l0 0c-4.226944 0 -7.653549 -3.4266052 -7.653549 -7.6535416z" fill-rule="evenodd"/><path stroke="#000000" stroke-width="1.0" stroke-linejoin="round" stroke-linecap="butt" d="m245.7082 115.99279l0 0c0 -4.2269363 3.4266052 -7.6535416 7.653549 -7.6535416l0 0c2.0298462 0 3.9765625 0.8063507 5.411865 2.2416687c1.4353333 1.435318 2.2416687 3.3820267 2.2416687 5.411873l0 0c0 4.2269363 -3.4266052 7.6535416 -7.653534 7.6535416l0 0c-4.226944 0 -7.653549 -3.4266052 -7.653549 -7.6535416z" fill-rule="evenodd"/><path fill="#a64d79" d="m291.72717 53.44298l0 0c0 -4.2269363 3.4266052 -7.6535454 7.653534 -7.6535454l0 0c2.0298462 0 3.9765625 0.8063545 5.411865 2.2416725c1.4353333 1.435318 2.2416687 3.3820267 2.2416687 5.411873l0 0c0 4.2269325 -3.4266052 7.6535416 -7.653534 7.6535416l0 0c-4.2269287 0 -7.653534 -3.426609 -7.653534 -7.6535416z" fill-rule="evenodd"/><path stroke="#000000" stroke-width="1.0" stroke-linejoin="round" stroke-linecap="butt" d="m291.72717 53.44298l0 0c0 -4.2269363 3.4266052 -7.6535454 7.653534 -7.6535454l0 0c2.0298462 0 3.9765625 0.8063545 5.411865 2.2416725c1.4353333 1.435318 2.2416687 3.3820267 2.2416687 5.411873l0 0c0 4.2269325 -3.4266052 7.6535416 -7.653534 7.6535416l0 0c-4.2269287 0 -7.653534 -3.426609 -7.653534 -7.6535416z" fill-rule="evenodd"/><path fill="#f6b26b" d="m90.60915 243.48271l0 0c0 -4.2269287 3.4266129 -7.653534 7.653549 -7.653534l0 0c2.0298462 0 3.9765549 0.8063507 5.411873 2.2416687c1.435318 1.435318 2.2416687 3.382019 2.2416687 5.411865l0 0c0 4.226944 -3.4266129 7.653549 -7.6535416 7.653549l0 0c-4.2269363 0 -7.653549 -3.4266052 -7.653549 -7.653549z" fill-rule="evenodd"/><path stroke="#000000" stroke-width="1.0" stroke-linejoin="round" stroke-linecap="butt" d="m90.60915 243.48271l0 0c0 -4.2269287 3.4266129 -7.653534 7.653549 -7.653534l0 0c2.0298462 0 3.9765549 0.8063507 5.411873 2.2416687c1.435318 1.435318 2.2416687 3.382019 2.2416687 5.411865l0 0c0 4.226944 -3.4266129 7.653549 -7.6535416 7.653549l0 0c-4.2269363 0 -7.653549 -3.4266052 -7.653549 -7.653549z" fill-rule="evenodd"/><path fill="#000000" fill-opacity="0.0" d="m207.32303 88.578316l86.64566 -29.73228" fill-rule="evenodd"/><path stroke="#000000" stroke-width="1.0" stroke-linejoin="round" stroke-linecap="butt" d="m207.32303 88.578316l86.64566 -29.73228" fill-rule="evenodd"/><path fill="#000000" fill-opacity="0.0" d="m183.66206 48.03111l108.063 5.4173203" fill-rule="evenodd"/><path stroke="#000000" stroke-width="1.0" stroke-linejoin="round" stroke-linecap="butt" d="m183.66206 48.03111l108.063 5.4173203" fill-rule="evenodd"/><path fill="#000000" fill-opacity="0.0" d="m209.5647 93.99019l36.15747 22.015747" fill-rule="evenodd"/><path stroke="#000000" stroke-width="1.0" stroke-linejoin="round" stroke-linecap="butt" d="m209.5647 93.99019l36.15747 22.015747" fill-rule="evenodd"/><path fill="#000000" fill-opacity="0.0" d="m207.32198 161.31017l46.04724 -37.66929" fill-rule="evenodd"/><path stroke="#000000" stroke-width="1.0" stroke-linejoin="round" stroke-linecap="butt" d="m207.32198 161.31017l46.04724 -37.66929" fill-rule="evenodd"/><path fill="#000000" fill-opacity="0.0" d="m37.52287 108.95767l121.480316 0.8503952" fill-rule="evenodd"/><path stroke="#000000" stroke-width="1.0" stroke-linejoin="round" stroke-linecap="butt" stroke-dasharray="4.0,3.0" d="m37.52287 108.95767l121.480316 0.8503952" fill-rule="evenodd"/><path fill="#000000" fill-opacity="0.0" d="m92.85083 238.07085l-62.992126 -121.44882" fill-rule="evenodd"/><path stroke="#000000" stroke-width="1.0" stroke-linejoin="round" stroke-linecap="butt" stroke-dasharray="4.0,3.0" d="m92.85083 238.07085l-62.992126 -121.44882" fill-rule="evenodd"/><path fill="#000000" fill-opacity="0.0" d="m40.78477 115.04032l30.80315 0l0 34.299217l-30.80315 0z" fill-rule="evenodd"/><path fill="#000000" d="m54.081646 138.67908q0 -0.328125 0 -0.5q0 -0.96875 0.265625 -1.671875q0.203125 -0.515625 0.640625 -1.0625q0.328125 -0.390625 1.171875 -1.140625q0.859375 -0.75 1.109375 -1.1875q0.265625 -0.453125 0.265625 -0.984375q0 -0.953125 -0.75 -1.671875q-0.734375 -0.734375 -1.828125 -0.734375q-1.046875 0 -1.75 0.65625q-0.703125 0.65625 -0.921875 2.046875l-1.6875 -0.203125q0.234375 -1.859375 1.359375 -2.84375q1.125 -1.0 2.96875 -1.0q1.96875 0 3.125 1.0625q1.171875 1.0625 1.171875 2.578125q0 0.875 -0.40625 1.609375q-0.40625 0.734375 -1.609375 1.796875q-0.796875 0.703125 -1.046875 1.046875q-0.25 0.34375 -0.375 0.78125q-0.109375 0.4375 -0.125 1.421875l-1.578125 0zm-0.09375 3.28125l0 -1.875l1.859375 0l0 1.875l-1.859375 0z" fill-rule="nonzero"/><path fill="#000000" fill-opacity="0.0" d="m11.317545 108.68208l0 0c0 -10.402092 8.432558 -18.834648 18.834646 -18.834648l0 0c4.9952583 0 9.785923 1.9843597 13.318104 5.5165405c3.5321808 3.5321808 5.5165405 8.322845 5.5165405 13.318108l0 0c0 10.402084 -8.432556 18.834648 -18.834644 18.834648l0 0c-10.402088 0 -18.834646 -8.432564 -18.834646 -18.834648z" fill-rule="evenodd"/><path stroke="#ff0000" stroke-width="1.0" stroke-linejoin="round" stroke-linecap="butt" stroke-dasharray="1.0,3.0" d="m11.317545 108.68208l0 0c0 -10.402092 8.432558 -18.834648 18.834646 -18.834648l0 0c4.9952583 0 9.785923 1.9843597 13.318104 5.5165405c3.5321808 3.5321808 5.5165405 8.322845 5.5165405 13.318108l0 0c0 10.402084 -8.432556 18.834648 -18.834644 18.834648l0 0c-10.402088 0 -18.834646 -8.432564 -18.834646 -18.834648z" fill-rule="evenodd"/><path fill="#000000" fill-opacity="0.0" d="m53.972572 82.07074l30.803154 0l0 34.299217l-30.803154 0z" fill-rule="evenodd"/><path fill="#000000" d="m67.26945 105.70949q0 -0.328125 0 -0.5q0 -0.96875 0.265625 -1.671875q0.203125 -0.515625 0.640625 -1.0625q0.328125 -0.390625 1.171875 -1.140625q0.859375 -0.75 1.109375 -1.1875q0.265625 -0.453125 0.265625 -0.984375q0 -0.953125 -0.75 -1.671875q-0.734375 -0.734375 -1.828125 -0.734375q-1.046875 0 -1.75 0.65625q-0.703125 0.65625 -0.921875 2.046875l-1.6875 -0.203125q0.234375 -1.859375 1.359375 -2.84375q1.125 -1.0 2.96875 -1.0q1.96875 0 3.125 1.0625q1.171875 1.0625 1.171875 2.578125q0 0.875 -0.40625 1.609375q-0.40625 0.734375 -1.609375 1.796875q-0.796875 0.703125 -1.046875 1.046875q-0.25 0.34375 -0.375 0.78125q-0.109375 0.4375 -0.125 1.421875l-1.578125 0zm-0.09375 3.28125l0 -1.875l1.859375 0l0 1.875l-1.859375 0z" fill-rule="nonzero"/><path fill="#000000" fill-opacity="0.0" d="m230.8332 156.0684l56.283463 0l0 34.299225l-56.283463 0z" fill-rule="evenodd"/><path fill="#000000" d="m247.3957 182.9884l0 -1.421875q-1.125 1.640625 -3.0625 1.640625q-0.859375 0 -1.609375 -0.328125q-0.734375 -0.328125 -1.09375 -0.828125q-0.359375 -0.5 -0.5 -1.21875q-0.109375 -0.46875 -0.109375 -1.53125l0 -5.984375l1.640625 0l0 5.359375q0 1.28125 0.109375 1.734375q0.15625 0.640625 0.65625 1.015625q0.5 0.375 1.234375 0.375q0.734375 0 1.375 -0.375q0.65625 -0.390625 0.921875 -1.03125q0.265625 -0.65625 0.265625 -1.890625l0 -5.1875l1.640625 0l0 9.671875l-1.46875 0zm12.203842 -1.578125l0 1.578125l-8.828125 0q-0.015625 -0.59375 0.1875 -1.140625q0.34375 -0.90625 1.078125 -1.78125q0.75 -0.875 2.15625 -2.015625q2.171875 -1.78125 2.9375 -2.828125q0.765625 -1.046875 0.765625 -1.96875q0 -0.984375 -0.703125 -1.640625q-0.6875 -0.671875 -1.8125 -0.671875q-1.1875 0 -1.90625 0.71875q-0.703125 0.703125 -0.703125 1.953125l-1.6875 -0.171875q0.171875 -1.890625 1.296875 -2.875q1.140625 -0.984375 3.03125 -0.984375q1.921875 0 3.046875 1.0625q1.125 1.0625 1.125 2.640625q0 0.796875 -0.328125 1.578125q-0.328125 0.78125 -1.09375 1.640625q-0.75 0.84375 -2.53125 2.34375q-1.46875 1.234375 -1.890625 1.6875q-0.421875 0.4375 -0.6875 0.875l6.546875 0z" fill-rule="nonzero"/><path fill="#000000" fill-opacity="0.0" d="m21.003069 55.69508l56.283463 0l0 34.299213l-56.283463 0z" fill-rule="evenodd"/><path fill="#000000" d="m37.862442 79.5057l1.6875 0.203125q-0.40625 1.484375 -1.484375 2.3125q-1.078125 0.8125 -2.765625 0.8125q-2.125 0 -3.374998 -1.296875q-1.234375 -1.3125 -1.234375 -3.671875q0 -2.453125 1.25 -3.796875q1.2656231 -1.34375 3.265623 -1.34375q1.9375 0 3.15625 1.328125q1.234375 1.3125 1.234375 3.703125q0 0.15625 0 0.4375l-7.21875 0q0.09375 1.59375 0.90625 2.453125q0.8125 0.84375 2.015625 0.84375q0.90625 0 1.546875 -0.46875q0.640625 -0.484375 1.015625 -1.515625zm-5.390625 -2.65625l5.40625 0q-0.109375 -1.21875 -0.625 -1.828125q-0.78125 -0.953125 -2.03125 -0.953125q-1.125 0 -1.90625 0.765625q-0.765625 0.75 -0.84375 2.015625zm14.860092 5.765625l-1.640625 0l0 -10.453125q-0.59375 0.5625 -1.5625 1.140625q-0.953125 0.5625 -1.71875 0.84375l0 -1.59375q1.375 -0.640625 2.40625 -1.5625q1.03125 -0.921875 1.453125 -1.78125l1.0625 0l0 13.40625z" fill-rule="nonzero"/><path fill="#000000" fill-opacity="0.0" d="m53.972572 227.13689l56.283463 0l0 34.29921l-56.283463 0z" fill-rule="evenodd"/><path fill="#000000" d="m70.83195 250.94751l1.6875 0.203125q-0.40625 1.484375 -1.484375 2.3125q-1.078125 0.8125 -2.765625 0.8125q-2.125 0 -3.375 -1.296875q-1.234375 -1.3125 -1.234375 -3.671875q0 -2.453125 1.25 -3.796875q1.265625 -1.34375 3.265625 -1.34375q1.9375 0 3.15625 1.328125q1.234375 1.3125 1.234375 3.703125q0 0.15625 0 0.4375l-7.21875 0q0.09375 1.59375 0.90625 2.453125q0.8125 0.84375 2.015625 0.84375q0.90625 0 1.546875 -0.46875q0.640625 -0.484375 1.015625 -1.515625zm-5.390625 -2.65625l5.40625 0q-0.109375 -1.21875 -0.625 -1.828125q-0.78125 -0.953125 -2.03125 -0.953125q-1.125 0 -1.90625 0.765625q-0.765625 0.75 -0.84375 2.015625zm17.297592 4.1875l0 1.578125l-8.828125 0q-0.015625 -0.59375 0.1875 -1.140625q0.34375 -0.90625 1.078125 -1.78125q0.75 -0.875 2.15625 -2.015625q2.171875 -1.78125 2.9375 -2.828125q0.765625 -1.046875 0.765625 -1.96875q0 -0.984375 -0.703125 -1.640625q-0.6875 -0.671875 -1.8125 -0.671875q-1.1875 0 -1.90625 0.71875q-0.703125 0.703125 -0.703125 1.953125l-1.6875 -0.171875q0.171875 -1.890625 1.296875 -2.875q1.140625 -0.984375 3.03125 -0.984375q1.921875 0 3.046875 1.0625q1.125 1.0625 1.125 2.640625q0 0.796875 -0.328125 1.578125q-0.328125 0.78125 -1.09375 1.640625q-0.75 0.84375 -2.53125 2.34375q-1.46875 1.234375 -1.890625 1.6875q-0.421875 0.4375 -0.6875 0.875l6.546875 0z" fill-rule="nonzero"/><path fill="#cfe2f3" d="m668.2455 317.4402l0 0c0 -12.840515 10.409241 -23.249817 23.249756 -23.249817l104.429565 0c6.1661987 0 12.079895 2.4495544 16.440063 6.809723c4.3601685 4.360199 6.8097534 10.273865 6.8097534 16.440094l0 92.99646c0 12.840515 -10.409302 23.249786 -23.249817 23.249786l-104.429565 0c-12.840515 0 -23.249756 -10.409271 -23.249756 -23.249786z" fill-rule="evenodd"/><path stroke="#000000" stroke-width="1.0" stroke-linejoin="round" stroke-linecap="butt" d="m668.2455 317.4402l0 0c0 -12.840515 10.409241 -23.249817 23.249756 -23.249817l104.429565 0c6.1661987 0 12.079895 2.4495544 16.440063 6.809723c4.3601685 4.360199 6.8097534 10.273865 6.8097534 16.440094l0 92.99646c0 12.840515 -10.409302 23.249786 -23.249817 23.249786l-104.429565 0c-12.840515 0 -23.249756 -10.409271 -23.249756 -23.249786z" fill-rule="evenodd"/><path fill="#38761d" d="m700.67957 416.336l0 0c0 -3.8964233 3.1586914 -7.0551147 7.0551147 -7.0551147l0 0c1.8711548 0 3.6656494 0.74331665 4.9887085 2.0664062c1.3231201 1.3230896 2.0664062 3.1175842 2.0664062 4.9887085l0 0c0 3.8964233 -3.1586914 7.0551147 -7.0551147 7.0551147l0 0c-3.8964233 0 -7.0551147 -3.1586914 -7.0551147 -7.0551147z" fill-rule="evenodd"/><path stroke="#000000" stroke-width="1.0" stroke-linejoin="round" stroke-linecap="butt" d="m700.67957 416.336l0 0c0 -3.8964233 3.1586914 -7.0551147 7.0551147 -7.0551147l0 0c1.8711548 0 3.6656494 0.74331665 4.9887085 2.0664062c1.3231201 1.3230896 2.0664062 3.1175842 2.0664062 4.9887085l0 0c0 3.8964233 -3.1586914 7.0551147 -7.0551147 7.0551147l0 0c-3.8964233 0 -7.0551147 -3.1586914 -7.0551147 -7.0551147z" fill-rule="evenodd"/><path fill="#ff00ff" d="m700.68054 349.4039l0 0c0 -3.8964233 3.1586914 -7.0551147 7.0551147 -7.0551147l0 0c1.8711548 0 3.6656494 0.74331665 4.9887085 2.0664062c1.3231201 1.3230896 2.0664062 3.1175842 2.0664062 4.9887085l0 0c0 3.8964539 -3.1586914 7.0551147 -7.0551147 7.0551147l0 0c-3.8964233 0 -7.0551147 -3.158661 -7.0551147 -7.0551147z" fill-rule="evenodd"/><path stroke="#000000" stroke-width="1.0" stroke-linejoin="round" stroke-linecap="butt" d="m700.68054 349.4039l0 0c0 -3.8964233 3.1586914 -7.0551147 7.0551147 -7.0551147l0 0c1.8711548 0 3.6656494 0.74331665 4.9887085 2.0664062c1.3231201 1.3230896 2.0664062 3.1175842 2.0664062 4.9887085l0 0c0 3.8964539 -3.1586914 7.0551147 -7.0551147 7.0551147l0 0c-3.8964233 0 -7.0551147 -3.158661 -7.0551147 -7.0551147z" fill-rule="evenodd"/><path fill="#9900ff" d="m678.9063 312.09l0 0c0 -3.8964233 3.1586914 -7.0551147 7.0551147 -7.0551147l0 0c1.8711548 0 3.6656494 0.74331665 4.9887085 2.0664062c1.3231201 1.3230896 2.0664062 3.1175842 2.0664062 4.9887085l0 0c0 3.8964233 -3.1586914 7.0551147 -7.0551147 7.0551147l0 0c-3.8964233 0 -7.0551147 -3.1586914 -7.0551147 -7.0551147z" fill-rule="evenodd"/><path stroke="#000000" stroke-width="1.0" stroke-linejoin="round" stroke-linecap="butt" d="m678.9063 312.09l0 0c0 -3.8964233 3.1586914 -7.0551147 7.0551147 -7.0551147l0 0c1.8711548 0 3.6656494 0.74331665 4.9887085 2.0664062c1.3231201 1.3230896 2.0664062 3.1175842 2.0664062 4.9887085l0 0c0 3.8964233 -3.1586914 7.0551147 -7.0551147 7.0551147l0 0c-3.8964233 0 -7.0551147 -3.1586914 -7.0551147 -7.0551147z" fill-rule="evenodd"/><path fill="#0000ff" d="m542.35736 363.17786l0 0c0 -3.8964233 3.1586914 -7.0551147 7.0551147 -7.0551147l0 0c1.8711548 0 3.6656494 0.74331665 4.9887085 2.0664062c1.3231201 1.3230896 2.0664062 3.1175842 2.0664062 4.9887085l0 0c0 3.8964233 -3.1586914 7.0551147 -7.0551147 7.0551147l0 0c-3.8964233 0 -7.0551147 -3.1586914 -7.0551147 -7.0551147z" fill-rule="evenodd"/><path stroke="#000000" stroke-width="1.0" stroke-linejoin="round" stroke-linecap="butt" d="m542.35736 363.17786l0 0c0 -3.8964233 3.1586914 -7.0551147 7.0551147 -7.0551147l0 0c1.8711548 0 3.6656494 0.74331665 4.9887085 2.0664062c1.3231201 1.3230896 2.0664062 3.1175842 2.0664062 4.9887085l0 0c0 3.8964233 -3.1586914 7.0551147 -7.0551147 7.0551147l0 0c-3.8964233 0 -7.0551147 -3.1586914 -7.0551147 -7.0551147z" fill-rule="evenodd"/><path fill="#000000" fill-opacity="0.0" d="m702.74695 344.4152l-11.811035 -27.338593" fill-rule="evenodd"/><path stroke="#000000" stroke-width="1.0" stroke-linejoin="round" stroke-linecap="butt" d="m702.74695 344.4152l-11.811035 -27.338593" fill-rule="evenodd"/><path fill="#000000" fill-opacity="0.0" d="m707.73566 356.459l0 52.81891" fill-rule="evenodd"/><path stroke="#000000" stroke-width="1.0" stroke-linejoin="round" stroke-linecap="butt" d="m707.73566 356.459l0 52.81891" fill-rule="evenodd"/><path fill="#b45f06" d="m748.02844 369.65198l0 0c0 -3.8964233 3.1586914 -7.0551147 7.0551147 -7.0551147l0 0c1.8711548 0 3.6656494 0.74331665 4.9887695 2.0664062c1.3230591 1.3230896 2.0664062 3.1175842 2.0664062 4.9887085l0 0c0 3.8964539 -3.1586914 7.0551147 -7.055176 7.0551147l0 0c-3.8964233 0 -7.0551147 -3.158661 -7.0551147 -7.0551147z" fill-rule="evenodd"/><path stroke="#000000" stroke-width="1.0" stroke-linejoin="round" stroke-linecap="butt" d="m748.02844 369.65198l0 0c0 -3.8964233 3.1586914 -7.0551147 7.0551147 -7.0551147l0 0c1.8711548 0 3.6656494 0.74331665 4.9887695 2.0664062c1.3230591 1.3230896 2.0664062 3.1175842 2.0664062 4.9887085l0 0c0 3.8964539 -3.1586914 7.0551147 -7.055176 7.0551147l0 0c-3.8964233 0 -7.0551147 -3.158661 -7.0551147 -7.0551147z" fill-rule="evenodd"/><path fill="#a64d79" d="m790.37787 312.09l0 0c0 -3.8964233 3.1586914 -7.0551147 7.0551147 -7.0551147l0 0c1.8710938 0 3.6656494 0.74331665 4.9887085 2.0664062c1.3231201 1.3230896 2.0664062 3.1175842 2.0664062 4.9887085l0 0c0 3.8964233 -3.1586914 7.0551147 -7.0551147 7.0551147l0 0c-3.8964233 0 -7.0551147 -3.1586914 -7.0551147 -7.0551147z" fill-rule="evenodd"/><path stroke="#000000" stroke-width="1.0" stroke-linejoin="round" stroke-linecap="butt" d="m790.37787 312.09l0 0c0 -3.8964233 3.1586914 -7.0551147 7.0551147 -7.0551147l0 0c1.8710938 0 3.6656494 0.74331665 4.9887085 2.0664062c1.3231201 1.3230896 2.0664062 3.1175842 2.0664062 4.9887085l0 0c0 3.8964233 -3.1586914 7.0551147 -7.0551147 7.0551147l0 0c-3.8964233 0 -7.0551147 -3.1586914 -7.0551147 -7.0551147z" fill-rule="evenodd"/><path fill="#f6b26b" d="m605.29706 486.97565l0 0c0 -3.8964233 3.1586914 -7.0551147 7.0551147 -7.0551147l0 0c1.8710938 0 3.6655884 0.74331665 4.9887085 2.0664062c1.3231201 1.3230896 2.0664062 3.1175842 2.0664062 4.9887085l0 0c0 3.8964539 -3.1586914 7.0551147 -7.0551147 7.0551147l0 0c-3.8964233 0 -7.0551147 -3.158661 -7.0551147 -7.0551147z" fill-rule="evenodd"/><path stroke="#000000" stroke-width="1.0" stroke-linejoin="round" stroke-linecap="butt" d="m605.29706 486.97565l0 0c0 -3.8964233 3.1586914 -7.0551147 7.0551147 -7.0551147l0 0c1.8710938 0 3.6655884 0.74331665 4.9887085 2.0664062c1.3231201 1.3230896 2.0664062 3.1175842 2.0664062 4.9887085l0 0c0 3.8964539 -3.1586914 7.0551147 -7.0551147 7.0551147l0 0c-3.8964233 0 -7.0551147 -3.158661 -7.0551147 -7.0551147z" fill-rule="evenodd"/><path fill="#000000" fill-opacity="0.0" d="m712.72437 344.4152l79.71655 -27.338593" fill-rule="evenodd"/><path stroke="#000000" stroke-width="1.0" stroke-linejoin="round" stroke-linecap="butt" d="m712.72437 344.4152l79.71655 -27.338593" fill-rule="evenodd"/><path fill="#000000" fill-opacity="0.0" d="m690.95013 307.1013l99.433105 4.9763794" fill-rule="evenodd"/><path stroke="#000000" stroke-width="1.0" stroke-linejoin="round" stroke-linecap="butt" d="m690.95013 307.1013l99.433105 4.9763794" fill-rule="evenodd"/><path fill="#000000" fill-opacity="0.0" d="m714.7908 349.4039l33.228333 20.251984" fill-rule="evenodd"/><path stroke="#000000" stroke-width="1.0" stroke-linejoin="round" stroke-linecap="butt" d="m714.7908 349.4039l33.228333 20.251984" fill-rule="evenodd"/><path fill="#000000" fill-opacity="0.0" d="m712.7234 411.3473l42.362244 -34.64569" fill-rule="evenodd"/><path stroke="#000000" stroke-width="1.0" stroke-linejoin="round" stroke-linecap="butt" d="m712.7234 411.3473l42.362244 -34.64569" fill-rule="evenodd"/><path fill="#000000" fill-opacity="0.0" d="m556.4676 363.17786l111.77954 0.7559204" fill-rule="evenodd"/><path stroke="#000000" stroke-width="1.0" stroke-linejoin="round" stroke-linecap="butt" d="m556.4676 363.17786l111.77954 0.7559204" fill-rule="evenodd"/><path fill="#cfe2f3" d="m668.2455 35.24981l0 0c0 -12.840515 10.409241 -23.24981 23.249756 -23.24981l104.429565 0c6.1661987 0 12.079895 2.4495268 16.440063 6.8097115c4.3601685 4.3601856 6.8097534 10.273865 6.8097534 16.440098l0 92.99645c0 12.8405 -10.409302 23.249802 -23.249817 23.249802l-104.429565 0c-12.840515 0 -23.249756 -10.409302 -23.249756 -23.249802z" fill-rule="evenodd"/><path stroke="#000000" stroke-width="1.0" stroke-linejoin="round" stroke-linecap="butt" d="m668.2455 35.24981l0 0c0 -12.840515 10.409241 -23.24981 23.249756 -23.24981l104.429565 0c6.1661987 0 12.079895 2.4495268 16.440063 6.8097115c4.3601685 4.3601856 6.8097534 10.273865 6.8097534 16.440098l0 92.99645c0 12.8405 -10.409302 23.249802 -23.249817 23.249802l-104.429565 0c-12.840515 0 -23.249756 -10.409302 -23.249756 -23.249802z" fill-rule="evenodd"/><path fill="#38761d" d="m700.67957 134.14561l0 0c0 -3.8964233 3.1586914 -7.0551147 7.0551147 -7.0551147l0 0c1.8711548 0 3.6656494 0.743309 4.9887085 2.066391c1.3231201 1.3231049 2.0664062 3.1175995 2.0664062 4.9887238l0 0c0 3.8964386 -3.1586914 7.05513 -7.0551147 7.05513l0 0c-3.8964233 0 -7.0551147 -3.1586914 -7.0551147 -7.05513z" fill-rule="evenodd"/><path stroke="#000000" stroke-width="1.0" stroke-linejoin="round" stroke-linecap="butt" d="m700.67957 134.14561l0 0c0 -3.8964233 3.1586914 -7.0551147 7.0551147 -7.0551147l0 0c1.8711548 0 3.6656494 0.743309 4.9887085 2.066391c1.3231201 1.3231049 2.0664062 3.1175995 2.0664062 4.9887238l0 0c0 3.8964386 -3.1586914 7.05513 -7.0551147 7.05513l0 0c-3.8964233 0 -7.0551147 -3.1586914 -7.0551147 -7.05513z" fill-rule="evenodd"/><path fill="#ff00ff" d="m700.68054 67.213524l0 0c0 -3.896431 3.1586914 -7.0551147 7.0551147 -7.0551147l0 0c1.8711548 0 3.6656494 0.7433014 4.9887085 2.0663948c1.3231201 1.3230896 2.0664062 3.117588 2.0664062 4.98872l0 0c0 3.8964386 -3.1586914 7.0551224 -7.0551147 7.0551224l0 0c-3.8964233 0 -7.0551147 -3.1586838 -7.0551147 -7.0551224z" fill-rule="evenodd"/><path stroke="#000000" stroke-width="1.0" stroke-linejoin="round" stroke-linecap="butt" d="m700.68054 67.213524l0 0c0 -3.896431 3.1586914 -7.0551147 7.0551147 -7.0551147l0 0c1.8711548 0 3.6656494 0.7433014 4.9887085 2.0663948c1.3231201 1.3230896 2.0664062 3.117588 2.0664062 4.98872l0 0c0 3.8964386 -3.1586914 7.0551224 -7.0551147 7.0551224l0 0c-3.8964233 0 -7.0551147 -3.1586838 -7.0551147 -7.0551224z" fill-rule="evenodd"/><path fill="#9900ff" d="m678.9063 29.899616l0 0c0 -3.8964348 3.1586914 -7.0551186 7.0551147 -7.0551186l0 0c1.8711548 0 3.6656494 0.7433052 4.9887085 2.0663967c1.3231201 1.3230896 2.0664062 3.117588 2.0664062 4.988722l0 0c0 3.8964348 -3.1586914 7.0551186 -7.0551147 7.0551186l0 0c-3.8964233 0 -7.0551147 -3.1586838 -7.0551147 -7.0551186z" fill-rule="evenodd"/><path stroke="#000000" stroke-width="1.0" stroke-linejoin="round" stroke-linecap="butt" d="m678.9063 29.899616l0 0c0 -3.8964348 3.1586914 -7.0551186 7.0551147 -7.0551186l0 0c1.8711548 0 3.6656494 0.7433052 4.9887085 2.0663967c1.3231201 1.3230896 2.0664062 3.117588 2.0664062 4.988722l0 0c0 3.8964348 -3.1586914 7.0551186 -7.0551147 7.0551186l0 0c-3.8964233 0 -7.0551147 -3.1586838 -7.0551147 -7.0551186z" fill-rule="evenodd"/><path fill="#0000ff" d="m542.35736 80.98748l0 0c0 -3.8964386 3.1586914 -7.0551224 7.0551147 -7.0551224l0 0c1.8711548 0 3.6656494 0.743309 4.9887085 2.0663986c1.3231201 1.3230896 2.0664062 3.1175842 2.0664062 4.9887238l0 0c0 3.896431 -3.1586914 7.0551147 -7.0551147 7.0551147l0 0c-3.8964233 0 -7.0551147 -3.1586838 -7.0551147 -7.0551147z" fill-rule="evenodd"/><path stroke="#000000" stroke-width="1.0" stroke-linejoin="round" stroke-linecap="butt" d="m542.35736 80.98748l0 0c0 -3.8964386 3.1586914 -7.0551224 7.0551147 -7.0551224l0 0c1.8711548 0 3.6656494 0.743309 4.9887085 2.0663986c1.3231201 1.3230896 2.0664062 3.1175842 2.0664062 4.9887238l0 0c0 3.896431 -3.1586914 7.0551147 -7.0551147 7.0551147l0 0c-3.8964233 0 -7.0551147 -3.1586838 -7.0551147 -7.0551147z" fill-rule="evenodd"/><path fill="#000000" fill-opacity="0.0" d="m702.74695 62.224804l-11.811035 -27.338581" fill-rule="evenodd"/><path stroke="#000000" stroke-width="1.0" stroke-linejoin="round" stroke-linecap="butt" d="m702.74695 62.224804l-11.811035 -27.338581" fill-rule="evenodd"/><path fill="#000000" fill-opacity="0.0" d="m707.73566 74.26865l0 52.818893" fill-rule="evenodd"/><path stroke="#000000" stroke-width="1.0" stroke-linejoin="round" stroke-linecap="butt" d="m707.73566 74.26865l0 52.818893" fill-rule="evenodd"/><path fill="#b45f06" d="m748.02844 87.4616l0 0c0 -3.896431 3.1586914 -7.0551147 7.0551147 -7.0551147l0 0c1.8711548 0 3.6656494 0.7433014 4.9887695 2.066391c1.3230591 1.3230972 2.0664062 3.1175919 2.0664062 4.9887238l0 0c0 3.8964386 -3.1586914 7.0551224 -7.055176 7.0551224l0 0c-3.8964233 0 -7.0551147 -3.1586838 -7.0551147 -7.0551224z" fill-rule="evenodd"/><path stroke="#000000" stroke-width="1.0" stroke-linejoin="round" stroke-linecap="butt" d="m748.02844 87.4616l0 0c0 -3.896431 3.1586914 -7.0551147 7.0551147 -7.0551147l0 0c1.8711548 0 3.6656494 0.7433014 4.9887695 2.066391c1.3230591 1.3230972 2.0664062 3.1175919 2.0664062 4.9887238l0 0c0 3.8964386 -3.1586914 7.0551224 -7.055176 7.0551224l0 0c-3.8964233 0 -7.0551147 -3.1586838 -7.0551147 -7.0551224z" fill-rule="evenodd"/><path fill="#a64d79" d="m790.37787 29.899616l0 0c0 -3.8964348 3.1586914 -7.0551186 7.0551147 -7.0551186l0 0c1.8710938 0 3.6656494 0.7433052 4.9887085 2.0663967c1.3231201 1.3230896 2.0664062 3.117588 2.0664062 4.988722l0 0c0 3.8964348 -3.1586914 7.0551186 -7.0551147 7.0551186l0 0c-3.8964233 0 -7.0551147 -3.1586838 -7.0551147 -7.0551186z" fill-rule="evenodd"/><path stroke="#000000" stroke-width="1.0" stroke-linejoin="round" stroke-linecap="butt" d="m790.37787 29.899616l0 0c0 -3.8964348 3.1586914 -7.0551186 7.0551147 -7.0551186l0 0c1.8710938 0 3.6656494 0.7433052 4.9887085 2.0663967c1.3231201 1.3230896 2.0664062 3.117588 2.0664062 4.988722l0 0c0 3.8964348 -3.1586914 7.0551186 -7.0551147 7.0551186l0 0c-3.8964233 0 -7.0551147 -3.1586838 -7.0551147 -7.0551186z" fill-rule="evenodd"/><path fill="#f6b26b" d="m605.29706 204.78528l0 0c0 -3.8964386 3.1586914 -7.0551147 7.0551147 -7.0551147l0 0c1.8710938 0 3.6655884 0.7433014 4.9887085 2.066391c1.3231201 1.3230896 2.0664062 3.1175842 2.0664062 4.9887238l0 0c0 3.8964386 -3.1586914 7.0551147 -7.0551147 7.0551147l0 0c-3.8964233 0 -7.0551147 -3.1586761 -7.0551147 -7.0551147z" fill-rule="evenodd"/><path stroke="#000000" stroke-width="1.0" stroke-linejoin="round" stroke-linecap="butt" d="m605.29706 204.78528l0 0c0 -3.8964386 3.1586914 -7.0551147 7.0551147 -7.0551147l0 0c1.8710938 0 3.6655884 0.7433014 4.9887085 2.066391c1.3231201 1.3230896 2.0664062 3.1175842 2.0664062 4.9887238l0 0c0 3.8964386 -3.1586914 7.0551147 -7.0551147 7.0551147l0 0c-3.8964233 0 -7.0551147 -3.1586761 -7.0551147 -7.0551147z" fill-rule="evenodd"/><path fill="#000000" fill-opacity="0.0" d="m712.72437 62.224804l79.71655 -27.338581" fill-rule="evenodd"/><path stroke="#000000" stroke-width="1.0" stroke-linejoin="round" stroke-linecap="butt" d="m712.72437 62.224804l79.71655 -27.338581" fill-rule="evenodd"/><path fill="#000000" fill-opacity="0.0" d="m690.95013 24.910894l99.433105 4.9763775" fill-rule="evenodd"/><path stroke="#000000" stroke-width="1.0" stroke-linejoin="round" stroke-linecap="butt" d="m690.95013 24.910894l99.433105 4.9763775" fill-rule="evenodd"/><path fill="#000000" fill-opacity="0.0" d="m714.7908 67.213524l33.228333 20.251968" fill-rule="evenodd"/><path stroke="#000000" stroke-width="1.0" stroke-linejoin="round" stroke-linecap="butt" d="m714.7908 67.213524l33.228333 20.251968" fill-rule="evenodd"/><path fill="#000000" fill-opacity="0.0" d="m712.7234 129.15689l42.362244 -34.64566" fill-rule="evenodd"/><path stroke="#000000" stroke-width="1.0" stroke-linejoin="round" stroke-linecap="butt" d="m712.7234 129.15689l42.362244 -34.64566" fill-rule="evenodd"/><path fill="#000000" fill-opacity="0.0" d="m549.4125 88.042595l62.92914 109.70078" fill-rule="evenodd"/><path stroke="#000000" stroke-width="1.0" stroke-linejoin="round" stroke-linecap="butt" d="m549.4125 88.042595l62.92914 109.70078" fill-rule="evenodd"/><path fill="#000000" fill-opacity="0.0" d="m736.9436 125.4714l51.77954 0l0 31.55906l-51.77954 0z" fill-rule="evenodd"/><path fill="#000000" d="m751.8967 148.55139l0 -1.109375q-0.890625 1.28125 -2.421875 1.28125q-0.671875 0 -1.25 -0.25q-0.578125 -0.265625 -0.875 -0.65625q-0.28125 -0.390625 -0.390625 -0.953125q-0.078125 -0.375 -0.078125 -1.203125l0 -4.703125l1.28125 0l0 4.203125q0 1.015625 0.078125 1.359375q0.125 0.515625 0.515625 0.8125q0.40625 0.28125 0.984375 0.28125q0.578125 0 1.078125 -0.296875q0.515625 -0.296875 0.71875 -0.8125q0.21875 -0.515625 0.21875 -1.484375l0 -4.0625l1.28125 0l0 7.59375l-1.140625 0zm9.572998 -1.234375l0 1.234375l-6.9375 0q-0.015625 -0.46875 0.15625 -0.890625q0.265625 -0.71875 0.84375 -1.40625q0.59375 -0.6875 1.6875 -1.578125q1.71875 -1.40625 2.3125 -2.21875q0.609375 -0.828125 0.609375 -1.5625q0 -0.765625 -0.5625 -1.28125q-0.546875 -0.53125 -1.421875 -0.53125q-0.921875 0 -1.484375 0.5625q-0.5625 0.5625 -0.5625 1.546875l-1.328125 -0.140625q0.140625 -1.484375 1.015625 -2.25q0.890625 -0.78125 2.390625 -0.78125q1.515625 0 2.390625 0.84375q0.875 0.828125 0.875 2.0625q0 0.640625 -0.265625 1.25q-0.25 0.59375 -0.84375 1.265625q-0.59375 0.671875 -1.984375 1.859375q-1.15625 0.96875 -1.484375 1.3125q-0.328125 0.34375 -0.546875 0.703125l5.140625 0z" fill-rule="nonzero"/><path fill="#000000" fill-opacity="0.0" d="m572.1831 190.7334l51.77954 0l0 31.559067l-51.77954 0z" fill-rule="evenodd"/><path fill="#000000" d="m587.355 211.36028l1.328125 0.171875q-0.3125 1.171875 -1.171875 1.8125q-0.84375 0.640625 -2.171875 0.640625q-1.671875 0 -2.65625 -1.015625q-0.96875 -1.03125 -0.96875 -2.890625q0 -1.921875 0.984375 -2.96875q1.0 -1.0625 2.578125 -1.0625q1.515625 0 2.484375 1.03125q0.96875 1.03125 0.96875 2.921875q0 0.109375 -0.015625 0.34375l-5.65625 0q0.0625 1.25 0.703125 1.921875q0.640625 0.65625 1.59375 0.65625q0.703125 0 1.203125 -0.359375q0.5 -0.375 0.796875 -1.203125zm-4.234375 -2.078125l4.25 0q-0.09375 -0.953125 -0.484375 -1.4375q-0.625 -0.75 -1.609375 -0.75q-0.875 0 -1.484375 0.59375q-0.609375 0.59375 -0.671875 1.59375zm13.588623 3.296875l0 1.234375l-6.9375 0q-0.015625 -0.46875 0.15625 -0.890625q0.265625 -0.71875 0.84375 -1.40625q0.59375 -0.6875 1.6875 -1.578125q1.71875 -1.40625 2.3125 -2.21875q0.609375 -0.828125 0.609375 -1.5625q0 -0.765625 -0.5625 -1.28125q-0.546875 -0.53125 -1.421875 -0.53125q-0.921875 0 -1.484375 0.5625q-0.5625 0.5625 -0.5625 1.546875l-1.328125 -0.140625q0.140625 -1.484375 1.015625 -2.25q0.890625 -0.78125 2.390625 -0.78125q1.515625 0 2.390625 0.84375q0.875 0.828125 0.875 2.0625q0 0.640625 -0.265625 1.25q-0.25 0.59375 -0.84375 1.265625q-0.59375 0.671875 -1.984375 1.859375q-1.15625 0.96875 -1.484375 1.3125q-0.328125 0.34375 -0.546875 0.703125l5.140625 0z" fill-rule="nonzero"/><path fill="#000000" fill-opacity="0.0" d="m540.90393 42.004078l51.77948 0l0 31.559055l-51.77948 0z" fill-rule="evenodd"/><path fill="#000000" d="m556.0758 62.630955l1.328125 0.171875q-0.3125 1.171875 -1.171875 1.8124962q-0.84375 0.640625 -2.171875 0.640625q-1.671875 0 -2.65625 -1.015625q-0.96875 -1.0312462 -0.96875 -2.8906212q0 -1.921875 0.984375 -2.96875q1.0 -1.0625 2.578125 -1.0625q1.515625 0 2.484375 1.03125q0.96875 1.03125 0.96875 2.921875q0 0.109375 -0.015625 0.34375l-5.65625 0q0.0625 1.25 0.703125 1.921875q0.640625 0.6562462 1.59375 0.6562462q0.703125 0 1.203125 -0.3593712q0.5 -0.375 0.796875 -1.203125zm-4.234375 -2.078125l4.25 0q-0.09375 -0.953125 -0.484375 -1.4375q-0.625 -0.75 -1.609375 -0.75q-0.875 0 -1.484375 0.59375q-0.609375 0.59375 -0.671875 1.59375zm11.666687 4.531246l-1.28125 0l0 -8.203121q-0.46875 0.4375 -1.21875 0.890625q-0.75 0.4375 -1.359375 0.65625l0 -1.25q1.078125 -0.5 1.890625 -1.21875q0.8125 -0.734375 1.140625 -1.40625l0.828125 0l0 10.531246z" fill-rule="nonzero"/><path fill="#000000" fill-opacity="0.0" d="m736.9436 405.4714l51.77954 0l0 31.559052l-51.77954 0z" fill-rule="evenodd"/><path fill="#000000" d="m751.8967 428.5514l0 -1.109375q-0.890625 1.28125 -2.421875 1.28125q-0.671875 0 -1.25 -0.25q-0.578125 -0.265625 -0.875 -0.65625q-0.28125 -0.390625 -0.390625 -0.953125q-0.078125 -0.375 -0.078125 -1.203125l0 -4.703125l1.28125 0l0 4.203125q0 1.015625 0.078125 1.359375q0.125 0.515625 0.515625 0.8125q0.40625 0.28125 0.984375 0.28125q0.578125 0 1.078125 -0.296875q0.515625 -0.296875 0.71875 -0.8125q0.21875 -0.515625 0.21875 -1.484375l0 -4.0625l1.28125 0l0 7.59375l-1.140625 0zm9.572998 -1.234375l0 1.234375l-6.9375 0q-0.015625 -0.46875 0.15625 -0.890625q0.265625 -0.71875 0.84375 -1.40625q0.59375 -0.6875 1.6875 -1.578125q1.71875 -1.40625 2.3125 -2.21875q0.609375 -0.828125 0.609375 -1.5625q0 -0.765625 -0.5625 -1.28125q-0.546875 -0.53125 -1.421875 -0.53125q-0.921875 0 -1.484375 0.5625q-0.5625 0.5625 -0.5625 1.546875l-1.328125 -0.140625q0.140625 -1.484375 1.015625 -2.25q0.890625 -0.78125 2.390625 -0.78125q1.515625 0 2.390625 0.84375q0.875 0.828125 0.875 2.0625q0 0.640625 -0.265625 1.25q-0.25 0.59375 -0.84375 1.265625q-0.59375 0.671875 -1.984375 1.859375q-1.15625 0.96875 -1.484375 1.3125q-0.328125 0.34375 -0.546875 0.703125l5.140625 0z" fill-rule="nonzero"/><path fill="#000000" fill-opacity="0.0" d="m572.1831 470.7334l51.77954 0l0 31.559052l-51.77954 0z" fill-rule="evenodd"/><path fill="#000000" d="m587.355 491.3603l1.328125 0.171875q-0.3125 1.171875 -1.171875 1.8125q-0.84375 0.640625 -2.171875 0.640625q-1.671875 0 -2.65625 -1.015625q-0.96875 -1.03125 -0.96875 -2.890625q0 -1.921875 0.984375 -2.96875q1.0 -1.0625 2.578125 -1.0625q1.515625 0 2.484375 1.03125q0.96875 1.03125 0.96875 2.921875q0 0.109375 -0.015625 0.34375l-5.65625 0q0.0625 1.25 0.703125 1.921875q0.640625 0.65625 1.59375 0.65625q0.703125 0 1.203125 -0.359375q0.5 -0.375 0.796875 -1.203125zm-4.234375 -2.078125l4.25 0q-0.09375 -0.953125 -0.484375 -1.4375q-0.625 -0.75 -1.609375 -0.75q-0.875 0 -1.484375 0.59375q-0.609375 0.59375 -0.671875 1.59375zm13.588623 3.296875l0 1.234375l-6.9375 0q-0.015625 -0.46875 0.15625 -0.890625q0.265625 -0.71875 0.84375 -1.40625q0.59375 -0.6875 1.6875 -1.578125q1.71875 -1.40625 2.3125 -2.21875q0.609375 -0.828125 0.609375 -1.5625q0 -0.765625 -0.5625 -1.28125q-0.546875 -0.53125 -1.421875 -0.53125q-0.921875 0 -1.484375 0.5625q-0.5625 0.5625 -0.5625 1.546875l-1.328125 -0.140625q0.140625 -1.484375 1.015625 -2.25q0.890625 -0.78125 2.390625 -0.78125q1.515625 0 2.390625 0.84375q0.875 0.828125 0.875 2.0625q0 0.640625 -0.265625 1.25q-0.25 0.59375 -0.84375 1.265625q-0.59375 0.671875 -1.984375 1.859375q-1.15625 0.96875 -1.484375 1.3125q-0.328125 0.34375 -0.546875 0.703125l5.140625 0z" fill-rule="nonzero"/><path fill="#000000" fill-opacity="0.0" d="m540.90393 322.0041l51.77948 0l0 31.559052l-51.77948 0z" fill-rule="evenodd"/><path fill="#000000" d="m556.0758 342.63095l1.328125 0.171875q-0.3125 1.171875 -1.171875 1.8125q-0.84375 0.640625 -2.171875 0.640625q-1.671875 0 -2.65625 -1.015625q-0.96875 -1.03125 -0.96875 -2.890625q0 -1.921875 0.984375 -2.96875q1.0 -1.0625 2.578125 -1.0625q1.515625 0 2.484375 1.03125q0.96875 1.03125 0.96875 2.921875q0 0.109375 -0.015625 0.34375l-5.65625 0q0.0625 1.25 0.703125 1.921875q0.640625 0.65625 1.59375 0.65625q0.703125 0 1.203125 -0.359375q0.5 -0.375 0.796875 -1.203125zm-4.234375 -2.078125l4.25 0q-0.09375 -0.953125 -0.484375 -1.4375q-0.625 -0.75 -1.609375 -0.75q-0.875 0 -1.484375 0.59375q-0.609375 0.59375 -0.671875 1.59375zm11.666687 4.53125l-1.28125 0l0 -8.203125q-0.46875 0.4375 -1.21875 0.890625q-0.75 0.4375 -1.359375 0.65625l0 -1.25q1.078125 -0.5 1.890625 -1.21875q0.8125 -0.734375 1.140625 -1.40625l0.828125 0l0 10.53125z" fill-rule="nonzero"/><path fill="#000000" fill-opacity="0.0" d="m346.87927 92.64042l164.15747 0" fill-rule="evenodd"/><path stroke="#b7b7b7" stroke-width="1.0" stroke-linejoin="round" stroke-linecap="butt" d="m346.87927 92.64042l158.15747 0" fill-rule="evenodd"/><path fill="#b7b7b7" stroke="#b7b7b7" stroke-width="1.0" stroke-linecap="butt" d="m505.03674 94.29215l4.538086 -1.6517334l-4.538086 -1.6517334z" fill-rule="evenodd"/><path fill="#000000" fill-opacity="0.0" d="m348.60892 153.98425l90.70868 0" fill-rule="evenodd"/><path stroke="#b7b7b7" stroke-width="1.0" stroke-linejoin="round" stroke-linecap="butt" d="m348.60892 153.98425l90.70868 0" fill-rule="evenodd"/><path fill="#000000" fill-opacity="0.0" d="m439.46457 153.98425l0 193.5433" fill-rule="evenodd"/><path stroke="#b7b7b7" stroke-width="1.0" stroke-linejoin="round" stroke-linecap="butt" d="m439.46457 153.98425l0 193.5433" fill-rule="evenodd"/><path fill="#000000" fill-opacity="0.0" d="m440.1916 347.93964l60.472443 0" fill-rule="evenodd"/><path stroke="#b7b7b7" stroke-width="1.0" stroke-linejoin="round" stroke-linecap="butt" d="m440.1916 347.93964l57.04538 0" fill-rule="evenodd"/><path fill="#b7b7b7" stroke="#b7b7b7" stroke-width="1.0" stroke-linecap="butt" d="m497.23697 347.93964l-1.1246033 1.1245728l3.0897827 -1.1245728l-3.0897827 -1.1245728z" fill-rule="evenodd"/><path fill="#000000" fill-opacity="0.0" d="m348.90082 66.00525l156.94489 0l0 31.55906l-156.94489 0z" fill-rule="evenodd"/><path fill="#000000" d="m359.24457 84.694626q0 -2.8125 1.609375 -4.546875q1.625 -1.734375 3.9375 -1.734375q1.96875 0 3.203125 1.28125q1.234375 1.28125 1.234375 3.421875q0 1.53125 -0.625 2.84375q-0.46875 0.984375 -1.1875 1.703125q-0.703125 0.703125 -1.5 1.078125q-1.078125 0.515625 -2.28125 0.515625q-1.265625 0 -2.296875 -0.59375q-1.03125 -0.59375 -1.5625 -1.671875q-0.53125 -1.078125 -0.53125 -2.296875zm1.375 0.0625q0 0.921875 0.375 1.703125q0.390625 0.765625 1.140625 1.203125q0.765625 0.4375 1.609375 0.4375q0.796875 0 1.53125 -0.375q0.734375 -0.390625 1.3125 -1.0625q0.578125 -0.6875 0.90625 -1.6875q0.328125 -1.0 0.328125 -1.96875q0 -1.5625 -0.875 -2.484375q-0.875 -0.9375 -2.15625 -0.9375q-1.65625 0 -2.921875 1.40625q-1.25 1.40625 -1.25 3.765625zm14.35321 2.953125q-1.359375 1.546875 -2.796875 1.546875q-0.875 0 -1.421875 -0.5q-0.53125 -0.515625 -0.53125 -1.234375q0 -0.484375 0.234375 -1.65625l0.921875 -4.375l1.296875 0l-1.015625 4.859375q-0.140625 0.609375 -0.140625 0.9375q0 0.4375 0.265625 0.671875q0.265625 0.234375 0.765625 0.234375q0.546875 0 1.0625 -0.265625q0.53125 -0.265625 0.90625 -0.703125q0.375 -0.453125 0.609375 -1.078125q0.15625 -0.390625 0.359375 -1.375l0.6875 -3.28125l1.296875 0l-1.59375 7.59375l-1.1875 0l0.28125 -1.375zm5.994873 0.328125l-0.21875 1.046875q-0.46875 0.125 -0.90625 0.125q-0.765625 0 -1.21875 -0.375q-0.34375 -0.28125 -0.34375 -0.78125q0 -0.25 0.1875 -1.15625l0.921875 -4.40625l-1.03125 0l0.203125 -1.0l1.03125 0l0.390625 -1.875l1.484375 -0.890625l-0.578125 2.765625l1.265625 0l-0.203125 1.0l-1.265625 0l-0.890625 4.203125q-0.15625 0.796875 -0.15625 0.953125q0 0.234375 0.125 0.359375q0.140625 0.109375 0.4375 0.109375q0.421875 0 0.765625 -0.078125zm6.2907104 -1.71875l1.296875 0.125q-0.484375 1.4375 -1.390625 2.125q-0.890625 0.6875 -2.046875 0.6875q-1.234375 0 -2.0 -0.796875q-0.765625 -0.8125 -0.765625 -2.25q0 -1.234375 0.484375 -2.4375q0.5 -1.203125 1.421875 -1.828125q0.921875 -0.625 2.09375 -0.625q1.21875 0 1.9375 0.6875q0.71875 0.6875 0.71875 1.828125l-1.265625 0.078125q-0.015625 -0.71875 -0.4375 -1.125q-0.40625 -0.40625 -1.078125 -0.40625q-0.78125 0 -1.359375 0.5q-0.5625 0.484375 -0.890625 1.5q-0.328125 1.0 -0.328125 1.921875q0 0.984375 0.421875 1.46875q0.4375 0.484375 1.078125 0.484375q0.625 0 1.203125 -0.484375q0.578125 -0.484375 0.90625 -1.453125zm2.3125 -0.125q0 -2.21875 1.3125 -3.671875q1.078125 -1.203125 2.828125 -1.203125q1.375 0 2.21875 0.859375q0.84375 0.859375 0.84375 2.3125q0 1.3125 -0.53125 2.4375q-0.53125 1.125 -1.515625 1.734375q-0.96875 0.59375 -2.046875 0.59375q-0.890625 0 -1.625 -0.375q-0.71875 -0.390625 -1.109375 -1.078125q-0.375 -0.6875 -0.375 -1.609375zm1.296875 -0.125q0 1.078125 0.515625 1.640625q0.515625 0.546875 1.296875 0.546875q0.421875 0 0.828125 -0.171875q0.40625 -0.171875 0.75 -0.515625q0.359375 -0.34375 0.609375 -0.78125q0.25 -0.4375 0.390625 -0.9375q0.234375 -0.71875 0.234375 -1.359375q0 -1.03125 -0.53125 -1.59375q-0.515625 -0.578125 -1.296875 -0.578125q-0.609375 0 -1.109375 0.296875q-0.5 0.28125 -0.90625 0.84375q-0.40625 0.546875 -0.59375 1.296875q-0.1875 0.734375 -0.1875 1.3125zm6.619873 3.015625l1.578125 -7.59375l1.296875 0l-0.265625 1.25q0.734375 -0.8125 1.296875 -1.109375q0.5625 -0.3125 1.234375 -0.3125q0.703125 0 1.171875 0.375q0.484375 0.375 0.640625 1.046875q0.578125 -0.71875 1.21875 -1.0625q0.640625 -0.359375 1.34375 -0.359375q0.953125 0 1.421875 0.453125q0.484375 0.4375 0.484375 1.265625q0 0.34375 -0.15625 1.15625l-1.03125 4.890625l-1.296875 0l1.046875 -5.03125q0.140625 -0.609375 0.140625 -0.875q0 -0.375 -0.234375 -0.578125q-0.234375 -0.21875 -0.671875 -0.21875q-0.578125 0 -1.1875 0.359375q-0.59375 0.34375 -0.9375 0.921875q-0.328125 0.5625 -0.578125 1.734375l-0.765625 3.6875l-1.296875 0l1.078125 -5.125q0.109375 -0.53125 0.109375 -0.75q0 -0.375 -0.234375 -0.59375q-0.234375 -0.234375 -0.609375 -0.234375q-0.546875 0 -1.15625 0.359375q-0.59375 0.34375 -0.984375 0.96875q-0.375 0.625 -0.609375 1.78125l-0.75 3.59375l-1.296875 0zm17.786896 -2.578125l1.265625 0.125q-0.265625 0.9375 -1.25 1.78125q-0.96875 0.84375 -2.328125 0.84375q-0.84375 0 -1.546875 -0.390625q-0.703125 -0.390625 -1.078125 -1.125q-0.359375 -0.75 -0.359375 -1.703125q0 -1.25 0.5625 -2.421875q0.578125 -1.171875 1.5 -1.734375q0.921875 -0.5625 1.984375 -0.5625q1.359375 0 2.171875 0.84375q0.8125 0.84375 0.8125 2.296875q0 0.5625 -0.109375 1.140625l-5.59375 0q-0.03125 0.234375 -0.03125 0.40625q0 1.0625 0.484375 1.625q0.5 0.5625 1.203125 0.5625q0.671875 0 1.3125 -0.4375q0.640625 -0.4375 1.0 -1.25zm-3.765625 -1.890625l4.265625 0q0.015625 -0.203125 0.015625 -0.28125q0 -0.96875 -0.484375 -1.484375q-0.484375 -0.53125 -1.25 -0.53125q-0.84375 0 -1.53125 0.578125q-0.671875 0.5625 -1.015625 1.71875zm9.385468 4.46875l1.65625 -7.921875q-1.078125 0.84375 -3.015625 1.359375l0.234375 -1.1875q0.96875 -0.375 1.90625 -1.0q0.953125 -0.625 1.421875 -1.09375q0.28125 -0.28125 0.546875 -0.6875l0.75 0l-2.203125 10.53125l-1.296875 0z" fill-rule="nonzero"/><path fill="#000000" d="m426.84235 82.944626l0 -1.453125l1.46875 0l0 1.453125l-1.46875 0zm0 6.140625l0 -1.46875l1.46875 0l0 1.46875l-1.46875 0z" fill-rule="nonzero"/><path fill="#000000" d="m366.5102 103.413376l1.390625 0.34375q-0.4375 1.703125 -1.578125 2.609375q-1.125 0.890625 -2.765625 0.890625q-1.6875 0 -2.75 -0.6875q-1.0625 -0.6875 -1.625 -2.0q-0.546875 -1.3125 -0.546875 -2.8125q0 -1.640625 0.625 -2.859375q0.625 -1.21875 1.78125 -1.84375q1.15625 -0.640625 2.546875 -0.640625q1.5625 0 2.640625 0.8125q1.078125 0.796875 1.5 2.25l-1.375 0.3125q-0.359375 -1.140625 -1.0625 -1.65625q-0.6875 -0.53125 -1.734375 -0.53125q-1.21875 0 -2.03125 0.578125q-0.8125 0.578125 -1.140625 1.5625q-0.328125 0.96875 -0.328125 2.015625q0 1.328125 0.390625 2.328125q0.390625 1.0 1.21875 1.5q0.828125 0.484375 1.78125 0.484375q1.171875 0 1.96875 -0.671875q0.8125 -0.671875 1.09375 -1.984375zm2.943634 3.671875l0 -10.484375l1.28125 0l0 3.75q0.90625 -1.03125 2.28125 -1.03125q0.84375 0 1.46875 0.328125q0.625 0.328125 0.890625 0.921875q0.265625 0.578125 0.265625 1.703125l0 4.8125l-1.28125 0l0 -4.8125q0 -0.96875 -0.421875 -1.40625q-0.421875 -0.4375 -1.1875 -0.4375q-0.578125 0 -1.078125 0.296875q-0.5 0.296875 -0.71875 0.8125q-0.21875 0.5 -0.21875 1.390625l0 4.15625l-1.28125 0zm7.666748 -3.796875q0 -2.109375 1.171875 -3.125q0.984375 -0.84375 2.390625 -0.84375q1.578125 0 2.5625 1.03125q1.0 1.015625 1.0 2.828125q0 1.46875 -0.4375 2.3125q-0.4375 0.828125 -1.28125 1.296875q-0.84375 0.46875 -1.84375 0.46875q-1.59375 0 -2.578125 -1.015625q-0.984375 -1.03125 -0.984375 -2.953125zm1.328125 0q0 1.453125 0.625 2.1875q0.640625 0.71875 1.609375 0.71875q0.96875 0 1.59375 -0.71875q0.640625 -0.734375 0.640625 -2.234375q0 -1.40625 -0.640625 -2.125q-0.640625 -0.734375 -1.59375 -0.734375q-0.96875 0 -1.609375 0.71875q-0.625 0.71875 -0.625 2.1875zm6.8229675 0q0 -2.109375 1.171875 -3.125q0.984375 -0.84375 2.390625 -0.84375q1.578125 0 2.5625 1.03125q1.0 1.015625 1.0 2.828125q0 1.46875 -0.4375 2.3125q-0.4375 0.828125 -1.28125 1.296875q-0.84375 0.46875 -1.84375 0.46875q-1.59375 0 -2.578125 -1.015625q-0.984375 -1.03125 -0.984375 -2.953125zm1.328125 0q0 1.453125 0.625 2.1875q0.640625 0.71875 1.609375 0.71875q0.96875 0 1.59375 -0.71875q0.640625 -0.734375 0.640625 -2.234375q0 -1.40625 -0.640625 -2.125q-0.640625 -0.734375 -1.59375 -0.734375q-0.96875 0 -1.609375 0.71875q-0.625 0.71875 -0.625 2.1875zm6.791748 1.53125l1.265625 -0.203125q0.109375 0.765625 0.59375 1.171875q0.5 0.40625 1.375 0.40625q0.890625 0 1.3125 -0.359375q0.4375 -0.359375 0.4375 -0.84375q0 -0.4375 -0.375 -0.6875q-0.265625 -0.171875 -1.3125 -0.4375q-1.421875 -0.359375 -1.96875 -0.609375q-0.546875 -0.265625 -0.828125 -0.734375q-0.28125 -0.46875 -0.28125 -1.015625q0 -0.515625 0.21875 -0.9375q0.234375 -0.4375 0.640625 -0.734375q0.296875 -0.21875 0.8125 -0.359375q0.53125 -0.15625 1.125 -0.15625q0.890625 0 1.5625 0.265625q0.671875 0.25 1.0 0.6875q0.328125 0.4375 0.4375 1.171875l-1.25 0.171875q-0.09375 -0.578125 -0.5 -0.90625q-0.40625 -0.34375 -1.15625 -0.34375q-0.890625 0 -1.28125 0.296875q-0.375 0.296875 -0.375 0.6875q0 0.25 0.15625 0.453125q0.15625 0.203125 0.5 0.34375q0.1875 0.078125 1.140625 0.328125q1.359375 0.359375 1.890625 0.59375q0.546875 0.234375 0.859375 0.6875q0.3125 0.4375 0.3125 1.09375q0 0.640625 -0.375 1.21875q-0.375 0.5625 -1.09375 0.875q-0.703125 0.3125 -1.59375 0.3125q-1.484375 0 -2.265625 -0.609375q-0.765625 -0.625 -0.984375 -1.828125zm13.046875 -0.1875l1.328125 0.171875q-0.3125 1.171875 -1.171875 1.8125q-0.84375 0.640625 -2.171875 0.640625q-1.671875 0 -2.65625 -1.015625q-0.96875 -1.03125 -0.96875 -2.890625q0 -1.921875 0.984375 -2.96875q1.0 -1.0625 2.578125 -1.0625q1.515625 0 2.484375 1.03125q0.96875 1.03125 0.96875 2.921875q0 0.109375 -0.015625 0.34375l-5.65625 0q0.0625 1.25 0.703125 1.921875q0.640625 0.65625 1.59375 0.65625q0.703125 0 1.203125 -0.359375q0.5 -0.375 0.796875 -1.203125zm-4.234375 -2.078125l4.25 0q-0.09375 -0.953125 -0.484375 -1.4375q-0.625 -0.75 -1.609375 -0.75q-0.875 0 -1.484375 0.59375q-0.609375 0.59375 -0.671875 1.59375zm11.2543335 4.53125l0 -7.59375l1.15625 0l0 1.078125q0.84375 -1.25 2.421875 -1.25q0.6875 0 1.265625 0.25q0.578125 0.234375 0.859375 0.640625q0.28125 0.40625 0.40625 0.953125q0.0625 0.359375 0.0625 1.25l0 4.671875l-1.28125 0l0 -4.625q0 -0.78125 -0.15625 -1.171875q-0.15625 -0.390625 -0.546875 -0.625q-0.375 -0.234375 -0.890625 -0.234375q-0.8125 0 -1.421875 0.53125q-0.59375 0.515625 -0.59375 1.96875l0 4.15625l-1.28125 0zm13.354218 -2.453125l1.328125 0.171875q-0.3125 1.171875 -1.171875 1.8125q-0.84375 0.640625 -2.171875 0.640625q-1.671875 0 -2.65625 -1.015625q-0.96875 -1.03125 -0.96875 -2.890625q0 -1.921875 0.984375 -2.96875q1.0 -1.0625 2.578125 -1.0625q1.515625 0 2.484375 1.03125q0.96875 1.03125 0.96875 2.921875q0 0.109375 -0.015625 0.34375l-5.65625 0q0.0625 1.25 0.703125 1.921875q0.640625 0.65625 1.59375 0.65625q0.703125 0 1.203125 -0.359375q0.5 -0.375 0.796875 -1.203125zm-4.234375 -2.078125l4.25 0q-0.09375 -0.953125 -0.484375 -1.4375q-0.625 -0.75 -1.609375 -0.75q-0.875 0 -1.484375 0.59375q-0.609375 0.59375 -0.671875 1.59375zm8.588623 4.53125l-2.328125 -7.59375l1.328125 0l1.203125 4.375l0.453125 1.640625q0.03125 -0.125 0.390625 -1.578125l1.21875 -4.4375l1.328125 0l1.125 4.40625l0.390625 1.453125l0.4375 -1.46875l1.296875 -4.390625l1.25 0l-2.375 7.59375l-1.34375 0l-1.203125 -4.546875l-0.296875 -1.296875l-1.53125 5.84375l-1.34375 0zm14.131134 -2.78125l1.265625 0.15625q-0.203125 1.3125 -1.0625 2.0625q-0.84375 0.734375 -2.09375 0.734375q-1.5625 0 -2.515625 -1.015625q-0.9375 -1.03125 -0.9375 -2.921875q0 -1.234375 0.40625 -2.15625q0.40625 -0.921875 1.234375 -1.375q0.84375 -0.46875 1.8125 -0.46875q1.25 0 2.03125 0.625q0.78125 0.625 1.015625 1.765625l-1.265625 0.203125q-0.171875 -0.765625 -0.625 -1.15625q-0.453125 -0.390625 -1.09375 -0.390625q-0.984375 0 -1.59375 0.703125q-0.609375 0.703125 -0.609375 2.203125q0 1.53125 0.578125 2.234375q0.59375 0.6875 1.546875 0.6875q0.75 0 1.265625 -0.453125q0.515625 -0.46875 0.640625 -1.4375zm1.890625 -1.015625q0 -2.109375 1.171875 -3.125q0.984375 -0.84375 2.390625 -0.84375q1.578125 0 2.5625 1.03125q1.0 1.015625 1.0 2.828125q0 1.46875 -0.4375 2.3125q-0.4375 0.828125 -1.28125 1.296875q-0.84375 0.46875 -1.84375 0.46875q-1.59375 0 -2.578125 -1.015625q-0.984375 -1.03125 -0.984375 -2.953125zm1.328125 0q0 1.453125 0.625 2.1875q0.640625 0.71875 1.609375 0.71875q0.96875 0 1.59375 -0.71875q0.640625 -0.734375 0.640625 -2.234375q0 -1.40625 -0.640625 -2.125q-0.640625 -0.734375 -1.59375 -0.734375q-0.96875 0 -1.609375 0.71875q-0.625 0.71875 -0.625 2.1875zm7.307373 3.796875l0 -7.59375l1.15625 0l0 1.0625q0.34375 -0.5625 0.9375 -0.890625q0.609375 -0.34375 1.359375 -0.34375q0.84375 0 1.375 0.34375q0.546875 0.34375 0.765625 0.984375q0.90625 -1.328125 2.359375 -1.328125q1.125 0 1.734375 0.625q0.609375 0.625 0.609375 1.921875l0 5.21875l-1.28125 0l0 -4.78125q0 -0.78125 -0.125 -1.109375q-0.125 -0.34375 -0.453125 -0.546875q-0.328125 -0.21875 -0.78125 -0.21875q-0.796875 0 -1.328125 0.53125q-0.53125 0.53125 -0.53125 1.703125l0 4.421875l-1.28125 0l0 -4.9375q0 -0.859375 -0.3125 -1.28125q-0.3125 -0.4375 -1.03125 -0.4375q-0.546875 0 -1.015625 0.296875q-0.453125 0.28125 -0.671875 0.828125q-0.203125 0.546875 -0.203125 1.59375l0 3.9375l-1.28125 0zm17.411896 -2.453125l1.328125 0.171875q-0.3125 1.171875 -1.171875 1.8125q-0.84375 0.640625 -2.171875 0.640625q-1.671875 0 -2.65625 -1.015625q-0.96875 -1.03125 -0.96875 -2.890625q0 -1.921875 0.984375 -2.96875q1.0 -1.0625 2.578125 -1.0625q1.515625 0 2.484375 1.03125q0.96875 1.03125 0.96875 2.921875q0 0.109375 -0.015625 0.34375l-5.65625 0q0.0625 1.25 0.703125 1.921875q0.640625 0.65625 1.59375 0.65625q0.703125 0 1.203125 -0.359375q0.5 -0.375 0.796875 -1.203125zm-4.234375 -2.078125l4.25 0q-0.09375 -0.953125 -0.484375 -1.4375q-0.625 -0.75 -1.609375 -0.75q-0.875 0 -1.484375 0.59375q-0.609375 0.59375 -0.671875 1.59375zm7.1667175 4.53125l0 -7.59375l1.15625 0l0 1.140625q0.453125 -0.796875 0.828125 -1.046875q0.375 -0.265625 0.8125 -0.265625q0.65625 0 1.328125 0.40625l-0.4375 1.203125q-0.46875 -0.28125 -0.953125 -0.28125q-0.421875 0 -0.765625 0.25q-0.328125 0.25 -0.46875 0.703125q-0.21875 0.6875 -0.21875 1.5l0 3.984375l-1.28125 0z" fill-rule="nonzero"/><path fill="#000000" fill-opacity="0.0" d="m348.90082 127.00525l156.94489 0l0 31.559052l-156.94489 0z" fill-rule="evenodd"/><path fill="#000000" d="m359.24457 145.69463q0 -2.8125 1.609375 -4.546875q1.625 -1.734375 3.9375 -1.734375q1.96875 0 3.203125 1.28125q1.234375 1.28125 1.234375 3.421875q0 1.53125 -0.625 2.84375q-0.46875 0.984375 -1.1875 1.703125q-0.703125 0.703125 -1.5 1.078125q-1.078125 0.515625 -2.28125 0.515625q-1.265625 0 -2.296875 -0.59375q-1.03125 -0.59375 -1.5625 -1.671875q-0.53125 -1.078125 -0.53125 -2.296875zm1.375 0.0625q0 0.921875 0.375 1.703125q0.390625 0.765625 1.140625 1.203125q0.765625 0.4375 1.609375 0.4375q0.796875 0 1.53125 -0.375q0.734375 -0.390625 1.3125 -1.0625q0.578125 -0.6875 0.90625 -1.6875q0.328125 -1.0 0.328125 -1.96875q0 -1.5625 -0.875 -2.484375q-0.875 -0.9375 -2.15625 -0.9375q-1.65625 0 -2.921875 1.40625q-1.25 1.40625 -1.25 3.765625zm14.35321 2.953125q-1.359375 1.546875 -2.796875 1.546875q-0.875 0 -1.421875 -0.5q-0.53125 -0.515625 -0.53125 -1.234375q0 -0.484375 0.234375 -1.65625l0.921875 -4.375l1.296875 0l-1.015625 4.859375q-0.140625 0.609375 -0.140625 0.9375q0 0.4375 0.265625 0.671875q0.265625 0.234375 0.765625 0.234375q0.546875 0 1.0625 -0.265625q0.53125 -0.265625 0.90625 -0.703125q0.375 -0.453125 0.609375 -1.078125q0.15625 -0.390625 0.359375 -1.375l0.6875 -3.28125l1.296875 0l-1.59375 7.59375l-1.1875 0l0.28125 -1.375zm5.994873 0.328125l-0.21875 1.046875q-0.46875 0.125 -0.90625 0.125q-0.765625 0 -1.21875 -0.375q-0.34375 -0.28125 -0.34375 -0.78125q0 -0.25 0.1875 -1.15625l0.921875 -4.40625l-1.03125 0l0.203125 -1.0l1.03125 0l0.390625 -1.875l1.484375 -0.890625l-0.578125 2.765625l1.265625 0l-0.203125 1.0l-1.265625 0l-0.890625 4.203125q-0.15625 0.796875 -0.15625 0.953125q0 0.234375 0.125 0.359375q0.140625 0.109375 0.4375 0.109375q0.421875 0 0.765625 -0.078125zm6.2907104 -1.71875l1.296875 0.125q-0.484375 1.4375 -1.390625 2.125q-0.890625 0.6875 -2.046875 0.6875q-1.234375 0 -2.0 -0.796875q-0.765625 -0.8125 -0.765625 -2.25q0 -1.234375 0.484375 -2.4375q0.5 -1.203125 1.421875 -1.828125q0.921875 -0.625 2.09375 -0.625q1.21875 0 1.9375 0.6875q0.71875 0.6875 0.71875 1.828125l-1.265625 0.078125q-0.015625 -0.71875 -0.4375 -1.125q-0.40625 -0.40625 -1.078125 -0.40625q-0.78125 0 -1.359375 0.5q-0.5625 0.484375 -0.890625 1.5q-0.328125 1.0 -0.328125 1.921875q0 0.984375 0.421875 1.46875q0.4375 0.484375 1.078125 0.484375q0.625 0 1.203125 -0.484375q0.578125 -0.484375 0.90625 -1.453125zm2.3125 -0.125q0 -2.21875 1.3125 -3.671875q1.078125 -1.203125 2.828125 -1.203125q1.375 0 2.21875 0.859375q0.84375 0.859375 0.84375 2.3125q0 1.3125 -0.53125 2.4375q-0.53125 1.125 -1.515625 1.734375q-0.96875 0.59375 -2.046875 0.59375q-0.890625 0 -1.625 -0.375q-0.71875 -0.390625 -1.109375 -1.078125q-0.375 -0.6875 -0.375 -1.609375zm1.296875 -0.125q0 1.078125 0.515625 1.640625q0.515625 0.546875 1.296875 0.546875q0.421875 0 0.828125 -0.171875q0.40625 -0.171875 0.75 -0.515625q0.359375 -0.34375 0.609375 -0.78125q0.25 -0.4375 0.390625 -0.9375q0.234375 -0.71875 0.234375 -1.359375q0 -1.03125 -0.53125 -1.59375q-0.515625 -0.578125 -1.296875 -0.578125q-0.609375 0 -1.109375 0.296875q-0.5 0.28125 -0.90625 0.84375q-0.40625 0.546875 -0.59375 1.296875q-0.1875 0.734375 -0.1875 1.3125zm6.619873 3.015625l1.578125 -7.59375l1.296875 0l-0.265625 1.25q0.734375 -0.8125 1.296875 -1.109375q0.5625 -0.3125 1.234375 -0.3125q0.703125 0 1.171875 0.375q0.484375 0.375 0.640625 1.046875q0.578125 -0.71875 1.21875 -1.0625q0.640625 -0.359375 1.34375 -0.359375q0.953125 0 1.421875 0.453125q0.484375 0.4375 0.484375 1.265625q0 0.34375 -0.15625 1.15625l-1.03125 4.890625l-1.296875 0l1.046875 -5.03125q0.140625 -0.609375 0.140625 -0.875q0 -0.375 -0.234375 -0.578125q-0.234375 -0.21875 -0.671875 -0.21875q-0.578125 0 -1.1875 0.359375q-0.59375 0.34375 -0.9375 0.921875q-0.328125 0.5625 -0.578125 1.734375l-0.765625 3.6875l-1.296875 0l1.078125 -5.125q0.109375 -0.53125 0.109375 -0.75q0 -0.375 -0.234375 -0.59375q-0.234375 -0.234375 -0.609375 -0.234375q-0.546875 0 -1.15625 0.359375q-0.59375 0.34375 -0.984375 0.96875q-0.375 0.625 -0.609375 1.78125l-0.75 3.59375l-1.296875 0zm17.786896 -2.578125l1.265625 0.125q-0.265625 0.9375 -1.25 1.78125q-0.96875 0.84375 -2.328125 0.84375q-0.84375 0 -1.546875 -0.390625q-0.703125 -0.390625 -1.078125 -1.125q-0.359375 -0.75 -0.359375 -1.703125q0 -1.25 0.5625 -2.421875q0.578125 -1.171875 1.5 -1.734375q0.921875 -0.5625 1.984375 -0.5625q1.359375 0 2.171875 0.84375q0.8125 0.84375 0.8125 2.296875q0 0.5625 -0.109375 1.140625l-5.59375 0q-0.03125 0.234375 -0.03125 0.40625q0 1.0625 0.484375 1.625q0.5 0.5625 1.203125 0.5625q0.671875 0 1.3125 -0.4375q0.640625 -0.4375 1.0 -1.25zm-3.765625 -1.890625l4.265625 0q0.015625 -0.203125 0.015625 -0.28125q0 -0.96875 -0.484375 -1.484375q-0.484375 -0.53125 -1.25 -0.53125q-0.84375 0 -1.53125 0.578125q-0.671875 0.5625 -1.015625 1.71875zm6.7135925 4.46875q0.203125 -0.9375 0.546875 -1.5625q0.359375 -0.640625 0.9375 -1.203125q0.59375 -0.578125 2.265625 -1.921875q1.015625 -0.796875 1.390625 -1.1875q0.546875 -0.5625 0.78125 -1.09375q0.171875 -0.359375 0.171875 -0.796875q0 -0.71875 -0.515625 -1.21875q-0.515625 -0.515625 -1.25 -0.515625q-0.75 0 -1.296875 0.515625q-0.546875 0.515625 -0.78125 1.640625l-1.265625 -0.1875q0.1875 -1.390625 1.078125 -2.1875q0.90625 -0.8125 2.234375 -0.8125q0.890625 0 1.609375 0.375q0.734375 0.359375 1.09375 1.046875q0.375 0.671875 0.375 1.375q0 1.046875 -0.734375 2.015625q-0.46875 0.609375 -2.703125 2.375q-0.953125 0.75 -1.421875 1.234375q-0.46875 0.484375 -0.703125 0.921875l4.6875 0l-0.25 1.1875l-6.25 0z" fill-rule="nonzero"/><path fill="#000000" d="m426.84235 143.94463l0 -1.453125l1.46875 0l0 1.453125l-1.46875 0zm0 6.140625l0 -1.46875l1.46875 0l0 1.46875l-1.46875 0z" fill-rule="nonzero"/><path fill="#000000" d="m366.5102 164.41338l1.390625 0.34375q-0.4375 1.703125 -1.578125 2.609375q-1.125 0.890625 -2.765625 0.890625q-1.6875 0 -2.75 -0.6875q-1.0625 -0.6875 -1.625 -2.0q-0.546875 -1.3125 -0.546875 -2.8125q0 -1.640625 0.625 -2.859375q0.625 -1.21875 1.78125 -1.84375q1.15625 -0.640625 2.546875 -0.640625q1.5625 0 2.640625 0.8125q1.078125 0.796875 1.5 2.25l-1.375 0.3125q-0.359375 -1.140625 -1.0625 -1.65625q-0.6875 -0.53125 -1.734375 -0.53125q-1.21875 0 -2.03125 0.578125q-0.8125 0.578125 -1.140625 1.5625q-0.328125 0.96875 -0.328125 2.015625q0 1.328125 0.390625 2.328125q0.390625 1.0 1.21875 1.5q0.828125 0.484375 1.78125 0.484375q1.171875 0 1.96875 -0.671875q0.8125 -0.671875 1.09375 -1.984375zm2.943634 3.671875l0 -10.484375l1.28125 0l0 3.75q0.90625 -1.03125 2.28125 -1.03125q0.84375 0 1.46875 0.328125q0.625 0.328125 0.890625 0.921875q0.265625 0.578125 0.265625 1.703125l0 4.8125l-1.28125 0l0 -4.8125q0 -0.96875 -0.421875 -1.40625q-0.421875 -0.4375 -1.1875 -0.4375q-0.578125 0 -1.078125 0.296875q-0.5 0.296875 -0.71875 0.8125q-0.21875 0.5 -0.21875 1.390625l0 4.15625l-1.28125 0zm7.666748 -3.796875q0 -2.109375 1.171875 -3.125q0.984375 -0.84375 2.390625 -0.84375q1.578125 0 2.5625 1.03125q1.0 1.015625 1.0 2.828125q0 1.46875 -0.4375 2.3125q-0.4375 0.828125 -1.28125 1.296875q-0.84375 0.46875 -1.84375 0.46875q-1.59375 0 -2.578125 -1.015625q-0.984375 -1.03125 -0.984375 -2.953125zm1.328125 0q0 1.453125 0.625 2.1875q0.640625 0.71875 1.609375 0.71875q0.96875 0 1.59375 -0.71875q0.640625 -0.734375 0.640625 -2.234375q0 -1.40625 -0.640625 -2.125q-0.640625 -0.734375 -1.59375 -0.734375q-0.96875 0 -1.609375 0.71875q-0.625 0.71875 -0.625 2.1875zm6.8229675 0q0 -2.109375 1.171875 -3.125q0.984375 -0.84375 2.390625 -0.84375q1.578125 0 2.5625 1.03125q1.0 1.015625 1.0 2.828125q0 1.46875 -0.4375 2.3125q-0.4375 0.828125 -1.28125 1.296875q-0.84375 0.46875 -1.84375 0.46875q-1.59375 0 -2.578125 -1.015625q-0.984375 -1.03125 -0.984375 -2.953125zm1.328125 0q0 1.453125 0.625 2.1875q0.640625 0.71875 1.609375 0.71875q0.96875 0 1.59375 -0.71875q0.640625 -0.734375 0.640625 -2.234375q0 -1.40625 -0.640625 -2.125q-0.640625 -0.734375 -1.59375 -0.734375q-0.96875 0 -1.609375 0.71875q-0.625 0.71875 -0.625 2.1875zm6.791748 1.53125l1.265625 -0.203125q0.109375 0.765625 0.59375 1.171875q0.5 0.40625 1.375 0.40625q0.890625 0 1.3125 -0.359375q0.4375 -0.359375 0.4375 -0.84375q0 -0.4375 -0.375 -0.6875q-0.265625 -0.171875 -1.3125 -0.4375q-1.421875 -0.359375 -1.96875 -0.609375q-0.546875 -0.265625 -0.828125 -0.734375q-0.28125 -0.46875 -0.28125 -1.015625q0 -0.515625 0.21875 -0.9375q0.234375 -0.4375 0.640625 -0.734375q0.296875 -0.21875 0.8125 -0.359375q0.53125 -0.15625 1.125 -0.15625q0.890625 0 1.5625 0.265625q0.671875 0.25 1.0 0.6875q0.328125 0.4375 0.4375 1.171875l-1.25 0.171875q-0.09375 -0.578125 -0.5 -0.90625q-0.40625 -0.34375 -1.15625 -0.34375q-0.890625 0 -1.28125 0.296875q-0.375 0.296875 -0.375 0.6875q0 0.25 0.15625 0.453125q0.15625 0.203125 0.5 0.34375q0.1875 0.078125 1.140625 0.328125q1.359375 0.359375 1.890625 0.59375q0.546875 0.234375 0.859375 0.6875q0.3125 0.4375 0.3125 1.09375q0 0.640625 -0.375 1.21875q-0.375 0.5625 -1.09375 0.875q-0.703125 0.3125 -1.59375 0.3125q-1.484375 0 -2.265625 -0.609375q-0.765625 -0.625 -0.984375 -1.828125zm13.046875 -0.1875l1.328125 0.171875q-0.3125 1.171875 -1.171875 1.8125q-0.84375 0.640625 -2.171875 0.640625q-1.671875 0 -2.65625 -1.015625q-0.96875 -1.03125 -0.96875 -2.890625q0 -1.921875 0.984375 -2.96875q1.0 -1.0625 2.578125 -1.0625q1.515625 0 2.484375 1.03125q0.96875 1.03125 0.96875 2.921875q0 0.109375 -0.015625 0.34375l-5.65625 0q0.0625 1.25 0.703125 1.921875q0.640625 0.65625 1.59375 0.65625q0.703125 0 1.203125 -0.359375q0.5 -0.375 0.796875 -1.203125zm-4.234375 -2.078125l4.25 0q-0.09375 -0.953125 -0.484375 -1.4375q-0.625 -0.75 -1.609375 -0.75q-0.875 0 -1.484375 0.59375q-0.609375 0.59375 -0.671875 1.59375zm11.2543335 4.53125l0 -7.59375l1.15625 0l0 1.0625q0.34375 -0.5625 0.9375 -0.890625q0.609375 -0.34375 1.359375 -0.34375q0.84375 0 1.375 0.34375q0.546875 0.34375 0.765625 0.984375q0.90625 -1.328125 2.359375 -1.328125q1.125 0 1.734375 0.625q0.609375 0.625 0.609375 1.921875l0 5.21875l-1.28125 0l0 -4.78125q0 -0.78125 -0.125 -1.109375q-0.125 -0.34375 -0.453125 -0.546875q-0.328125 -0.21875 -0.78125 -0.21875q-0.796875 0 -1.328125 0.53125q-0.53125 0.53125 -0.53125 1.703125l0 4.421875l-1.28125 0l0 -4.9375q0 -0.859375 -0.3125 -1.28125q-0.3125 -0.4375 -1.03125 -0.4375q-0.546875 0 -1.015625 0.296875q-0.453125 0.28125 -0.671875 0.828125q-0.203125 0.546875 -0.203125 1.59375l0 3.9375l-1.28125 0zm17.161896 -0.9375q-0.71875 0.609375 -1.375 0.859375q-0.65625 0.25 -1.421875 0.25q-1.25 0 -1.921875 -0.609375q-0.671875 -0.609375 -0.671875 -1.5625q0 -0.5625 0.25 -1.015625q0.25 -0.46875 0.65625 -0.75q0.421875 -0.28125 0.9375 -0.421875q0.375 -0.09375 1.140625 -0.1875q1.5625 -0.1875 2.296875 -0.453125q0.015625 -0.265625 0.015625 -0.328125q0 -0.796875 -0.375 -1.109375q-0.484375 -0.4375 -1.453125 -0.4375q-0.921875 0 -1.359375 0.328125q-0.421875 0.3125 -0.625 1.109375l-1.265625 -0.171875q0.171875 -0.796875 0.5625 -1.296875q0.390625 -0.5 1.140625 -0.765625q0.75 -0.265625 1.71875 -0.265625q0.984375 0 1.59375 0.234375q0.609375 0.21875 0.890625 0.5625q0.28125 0.34375 0.40625 0.875q0.0625 0.328125 0.0625 1.1875l0 1.71875q0 1.796875 0.078125 2.28125q0.078125 0.46875 0.328125 0.90625l-1.34375 0q-0.203125 -0.40625 -0.265625 -0.9375zm-0.109375 -2.875q-0.703125 0.28125 -2.09375 0.484375q-0.796875 0.109375 -1.125 0.265625q-0.328125 0.140625 -0.515625 0.421875q-0.171875 0.265625 -0.171875 0.59375q0 0.515625 0.390625 0.859375q0.390625 0.34375 1.140625 0.34375q0.734375 0 1.3125 -0.3125q0.59375 -0.328125 0.859375 -0.890625q0.203125 -0.4375 0.203125 -1.296875l0 -0.46875zm3.3073425 -5.203125l0 -1.46875l1.296875 0l0 1.46875l-1.296875 0zm0 9.015625l0 -7.59375l1.296875 0l0 7.59375l-1.296875 0zm3.2561646 0l0 -7.59375l1.15625 0l0 1.078125q0.84375 -1.25 2.421875 -1.25q0.6875 0 1.265625 0.25q0.578125 0.234375 0.859375 0.640625q0.28125 0.40625 0.40625 0.953125q0.0625 0.359375 0.0625 1.25l0 4.671875l-1.28125 0l0 -4.625q0 -0.78125 -0.15625 -1.171875q-0.15625 -0.390625 -0.546875 -0.625q-0.375 -0.234375 -0.890625 -0.234375q-0.8125 0 -1.421875 0.53125q-0.59375 0.515625 -0.59375 1.96875l0 4.15625l-1.28125 0zm11.9887085 0.625l1.25 0.1875q0.078125 0.578125 0.4375 0.84375q0.46875 0.359375 1.3125 0.359375q0.890625 0 1.375 -0.359375q0.484375 -0.359375 0.65625 -1.0q0.109375 -0.390625 0.09375 -1.65625q-0.84375 1.0 -2.109375 1.0q-1.5625 0 -2.421875 -1.125q-0.859375 -1.140625 -0.859375 -2.71875q0 -1.09375 0.390625 -2.0q0.40625 -0.921875 1.140625 -1.421875q0.75 -0.5 1.765625 -0.5q1.34375 0 2.21875 1.078125l0 -0.90625l1.1875 0l0 6.5625q0 1.78125 -0.359375 2.515625q-0.359375 0.734375 -1.15625 1.15625q-0.78125 0.4375 -1.921875 0.4375q-1.359375 0 -2.203125 -0.609375q-0.828125 -0.609375 -0.796875 -1.84375zm1.0625 -4.5625q0 1.5 0.59375 2.1875q0.59375 0.6875 1.484375 0.6875q0.890625 0 1.484375 -0.6875q0.609375 -0.6875 0.609375 -2.140625q0 -1.390625 -0.625 -2.09375q-0.609375 -0.71875 -1.484375 -0.71875q-0.859375 0 -1.46875 0.703125q-0.59375 0.6875 -0.59375 2.0625zm7.3073425 3.9375l0 -7.59375l1.15625 0l0 1.140625q0.453125 -0.796875 0.828125 -1.046875q0.375 -0.265625 0.8125 -0.265625q0.65625 0 1.328125 0.40625l-0.4375 1.203125q-0.46875 -0.28125 -0.953125 -0.28125q-0.421875 0 -0.765625 0.25q-0.328125 0.25 -0.46875 0.703125q-0.21875 0.6875 -0.21875 1.5l0 3.984375l-1.28125 0zm4.4118958 -3.796875q0 -2.109375 1.171875 -3.125q0.984375 -0.84375 2.390625 -0.84375q1.578125 0 2.5625 1.03125q1.0 1.015625 1.0 2.828125q0 1.46875 -0.4375 2.3125q-0.4375 0.828125 -1.28125 1.296875q-0.84375 0.46875 -1.84375 0.46875q-1.59375 0 -2.578125 -1.015625q-0.984375 -1.03125 -0.984375 -2.953125zm1.328125 0q0 1.453125 0.625 2.1875q0.640625 0.71875 1.609375 0.71875q0.96875 0 1.59375 -0.71875q0.640625 -0.734375 0.640625 -2.234375q0 -1.40625 -0.640625 -2.125q-0.640625 -0.734375 -1.59375 -0.734375q-0.96875 0 -1.609375 0.71875q-0.625 0.71875 -0.625 2.1875zm12.291748 3.796875l0 -1.109375q-0.890625 1.28125 -2.421875 1.28125q-0.671875 0 -1.25 -0.25q-0.578125 -0.265625 -0.875 -0.65625q-0.28125 -0.390625 -0.390625 -0.953125q-0.078125 -0.375 -0.078125 -1.203125l0 -4.703125l1.28125 0l0 4.203125q0 1.015625 0.078125 1.359375q0.125 0.515625 0.515625 0.8125q0.40625 0.28125 0.984375 0.28125q0.578125 0 1.078125 -0.296875q0.515625 -0.296875 0.71875 -0.8125q0.21875 -0.515625 0.21875 -1.484375l0 -4.0625l1.28125 0l0 7.59375l-1.140625 0zm3.1667175 2.90625l0 -10.5l1.171875 0l0 0.984375q0.421875 -0.578125 0.9375 -0.859375q0.515625 -0.296875 1.265625 -0.296875q0.96875 0 1.71875 0.5q0.75 0.5 1.125 1.421875q0.375 0.90625 0.375 1.984375q0 1.171875 -0.421875 2.109375q-0.40625 0.921875 -1.21875 1.421875q-0.796875 0.5 -1.671875 0.5q-0.640625 0 -1.15625 -0.265625q-0.515625 -0.28125 -0.84375 -0.6875l0 3.6875l-1.28125 0zm1.15625 -6.65625q0 1.453125 0.59375 2.15625q0.609375 0.703125 1.453125 0.703125q0.859375 0 1.46875 -0.71875q0.609375 -0.734375 0.609375 -2.25q0 -1.453125 -0.609375 -2.171875q-0.59375 -0.734375 -1.421875 -0.734375q-0.8125 0 -1.453125 0.78125q-0.640625 0.765625 -0.640625 2.234375z" fill-rule="nonzero"/></g></svg>