<svg version="1.1" viewBox="0.0 0.0 303.0 687.0" fill="none" stroke="none" stroke-linecap="square" stroke-miterlimit="10" xmlns:xlink="http://www.w3.org/1999/xlink" xmlns="http://www.w3.org/2000/svg"><clipPath id="p.0"><path d="m0 0l303.0 0l0 687.0l-303.0 0l0 -687.0z" clip-rule="nonzero"/></clipPath><g clip-path="url(#p.0)"><path fill="#000000" fill-opacity="0.0" d="m0 0l303.0 0l0 687.0l-303.0 0z" fill-rule="evenodd"/><path fill="#000000" fill-opacity="0.0" d="m227.28444 365.0586l-35.370087 87.27557" fill-rule="evenodd"/><path stroke="#000000" stroke-width="1.0" stroke-linejoin="round" stroke-linecap="butt" stroke-dasharray="4.0,3.0" d="m227.28444 365.0586l-35.370087 87.27557" fill-rule="evenodd"/><path fill="#000000" fill-opacity="0.0" d="m180.83466 403.1065l28.15747 0l0 31.370087l-28.15747 0z" fill-rule="evenodd"/><path fill="#000000" d="m193.20966 423.6084q0 -0.265625 0 -0.390625q0 -0.765625 0.203125 -1.3125q0.171875 -0.40625 0.515625 -0.828125q0.25 -0.3125 0.921875 -0.90625q0.671875 -0.59375 0.875 -0.9375q0.203125 -0.359375 0.203125 -0.765625q0 -0.75 -0.59375 -1.3125q-0.578125 -0.578125 -1.4375 -0.578125q-0.828125 0 -1.375 0.515625q-0.546875 0.515625 -0.71875 1.609375l-1.328125 -0.15625q0.1875 -1.46875 1.0625 -2.25q0.890625 -0.78125 2.34375 -0.78125q1.53125 0 2.4375 0.84375q0.921875 0.828125 0.921875 2.015625q0 0.6875 -0.328125 1.265625q-0.3125 0.578125 -1.25 1.421875q-0.625 0.546875 -0.828125 0.8125q-0.1875 0.265625 -0.28125 0.609375q-0.09375 0.34375 -0.109375 1.125l-1.234375 0zm-0.078125 2.578125l0 -1.46875l1.46875 0l0 1.46875l-1.46875 0z" fill-rule="nonzero"/><path fill="#cfe2f3" d="m172.02281 29.322191l0 0c0 -10.231245 8.294067 -18.525307 18.5253 -18.525307l74.099014 0l0 0c4.913208 0 9.625183 1.9517679 13.099365 5.4259367c3.4741516 3.4741688 5.425934 8.1861515 5.425934 13.099369l0 101.65805c0 10.231247 -8.294067 18.525314 -18.5253 18.525314l-74.099014 0c-10.231232 0 -18.5253 -8.294067 -18.5253 -18.525314z" fill-rule="evenodd"/><path stroke="#000000" stroke-width="1.0" stroke-linejoin="round" stroke-linecap="butt" d="m172.02281 29.322191l0 0c0 -10.231245 8.294067 -18.525307 18.5253 -18.525307l74.099014 0l0 0c4.913208 0 9.625183 1.9517679 13.099365 5.4259367c3.4741516 3.4741688 5.425934 8.1861515 5.425934 13.099369l0 101.65805c0 10.231247 -8.294067 18.525314 -18.5253 18.525314l-74.099014 0c-10.231232 0 -18.5253 -8.294067 -18.5253 -18.525314z" fill-rule="evenodd"/><path fill="#38761d" d="m204.27205 132.23909l0 0c0 -3.870346 3.1375275 -7.007881 7.0078735 -7.007881l0 0c1.8585968 0 3.6410828 0.73833466 4.955307 2.052559c1.3142395 1.3142395 2.0525665 3.0967102 2.0525665 4.9553223l0 0c0 3.870346 -3.1375427 7.0078735 -7.0078735 7.0078735l0 0c-3.870346 0 -7.0078735 -3.1375275 -7.0078735 -7.0078735z" fill-rule="evenodd"/><path stroke="#000000" stroke-width="1.0" stroke-linejoin="round" stroke-linecap="butt" d="m204.27205 132.23909l0 0c0 -3.870346 3.1375275 -7.007881 7.0078735 -7.007881l0 0c1.8585968 0 3.6410828 0.73833466 4.955307 2.052559c1.3142395 1.3142395 2.0525665 3.0967102 2.0525665 4.9553223l0 0c0 3.870346 -3.1375427 7.0078735 -7.0078735 7.0078735l0 0c-3.870346 0 -7.0078735 -3.1375275 -7.0078735 -7.0078735z" fill-rule="evenodd"/><path fill="#ff00ff" d="m204.27301 65.6886l0 0c0 -3.8703423 3.1375275 -7.0078735 7.0078735 -7.0078735l0 0c1.8585968 0 3.6410828 0.738327 4.955307 2.052559c1.3142395 1.314228 2.0525665 3.0967102 2.0525665 4.9553146l0 0c0 3.8703384 -3.1375275 7.0078735 -7.0078735 7.0078735l0 0c-3.870346 0 -7.0078735 -3.137535 -7.0078735 -7.0078735z" fill-rule="evenodd"/><path stroke="#000000" stroke-width="1.0" stroke-linejoin="round" stroke-linecap="butt" d="m204.27301 65.6886l0 0c0 -3.8703423 3.1375275 -7.0078735 7.0078735 -7.0078735l0 0c1.8585968 0 3.6410828 0.738327 4.955307 2.052559c1.3142395 1.314228 2.0525665 3.0967102 2.0525665 4.9553146l0 0c0 3.8703384 -3.1375275 7.0078735 -7.0078735 7.0078735l0 0c-3.870346 0 -7.0078735 -3.137535 -7.0078735 -7.0078735z" fill-rule="evenodd"/><path fill="#9900ff" d="m182.6229 28.58743l0 0c0 -3.8703423 3.1375275 -7.0078754 7.0078735 -7.0078754l0 0c1.8585968 0 3.6410828 0.73832893 4.955307 2.052559c1.3142395 1.3142319 2.0525665 3.096712 2.0525665 4.9553165l0 0c0 3.8703423 -3.1375275 7.0078735 -7.0078735 7.0078735l0 0c-3.870346 0 -7.0078735 -3.1375313 -7.0078735 -7.0078735z" fill-rule="evenodd"/><path stroke="#000000" stroke-width="1.0" stroke-linejoin="round" stroke-linecap="butt" d="m182.6229 28.58743l0 0c0 -3.8703423 3.1375275 -7.0078754 7.0078735 -7.0078754l0 0c1.8585968 0 3.6410828 0.73832893 4.955307 2.052559c1.3142395 1.3142319 2.0525665 3.096712 2.0525665 4.9553165l0 0c0 3.8703423 -3.1375275 7.0078735 -7.0078735 7.0078735l0 0c-3.870346 0 -7.0078735 -3.1375313 -7.0078735 -7.0078735z" fill-rule="evenodd"/><path fill="#0000ff" d="m16.684763 47.384018l0 0c0 -3.8703423 3.1375313 -7.0078735 7.0078735 -7.0078735l0 0c1.8586044 0 3.6410847 0.738327 4.9553146 2.052559c1.3142319 1.3142319 2.052559 3.0967102 2.052559 4.9553146l0 0c0 3.8703423 -3.1375313 7.0078735 -7.0078735 7.0078735l0 0c-3.8703423 0 -7.0078735 -3.1375313 -7.0078735 -7.0078735z" fill-rule="evenodd"/><path stroke="#000000" stroke-width="1.0" stroke-linejoin="round" stroke-linecap="butt" d="m16.684763 47.384018l0 0c0 -3.8703423 3.1375313 -7.0078735 7.0078735 -7.0078735l0 0c1.8586044 0 3.6410847 0.738327 4.9553146 2.052559c1.3142319 1.3142319 2.052559 3.0967102 2.052559 4.9553146l0 0c0 3.8703423 -3.1375313 7.0078735 -7.0078735 7.0078735l0 0c-3.8703423 0 -7.0078735 -3.1375313 -7.0078735 -7.0078735z" fill-rule="evenodd"/><path fill="#000000" fill-opacity="0.0" d="m206.32556 60.733284l-11.748032 -27.181103" fill-rule="evenodd"/><path stroke="#000000" stroke-width="1.0" stroke-linejoin="round" stroke-linecap="butt" d="m206.32556 60.733284l-11.748032 -27.181103" fill-rule="evenodd"/><path fill="#000000" fill-opacity="0.0" d="m211.28088 72.69647l0 52.53543" fill-rule="evenodd"/><path stroke="#000000" stroke-width="1.0" stroke-linejoin="round" stroke-linecap="butt" d="m211.28088 72.69647l0 52.53543" fill-rule="evenodd"/><path fill="#b45f06" d="m251.35103 85.821236l0 0c0 -3.870346 3.1375275 -7.007881 7.007889 -7.007881l0 0c1.8585815 0 3.6410828 0.73833466 4.9552917 2.052559c1.3142395 1.3142319 2.0525818 3.0967178 2.0525818 4.9553223l0 0c0 3.8703384 -3.1375427 7.0078735 -7.0078735 7.0078735l0 0c-3.8703613 0 -7.007889 -3.137535 -7.007889 -7.0078735z" fill-rule="evenodd"/><path stroke="#000000" stroke-width="1.0" stroke-linejoin="round" stroke-linecap="butt" d="m251.35103 85.821236l0 0c0 -3.870346 3.1375275 -7.007881 7.007889 -7.007881l0 0c1.8585815 0 3.6410828 0.73833466 4.9552917 2.052559c1.3142395 1.3142319 2.0525818 3.0967178 2.0525818 4.9553223l0 0c0 3.8703384 -3.1375427 7.0078735 -7.0078735 7.0078735l0 0c-3.8703613 0 -7.007889 -3.137535 -7.007889 -7.0078735z" fill-rule="evenodd"/><path fill="#a64d79" d="m182.62292 213.27316l0 0c0 -3.8703308 3.1375275 -7.0078735 7.0078735 -7.0078735l0 0c1.8585968 0 3.6410828 0.738327 4.955307 2.0525665c1.3142395 1.3142242 2.0525665 3.0967102 2.0525665 4.955307l0 0c0 3.870346 -3.1375275 7.0078735 -7.0078735 7.0078735l0 0c-3.870346 0 -7.0078735 -3.1375275 -7.0078735 -7.0078735z" fill-rule="evenodd"/><path stroke="#000000" stroke-width="1.0" stroke-linejoin="round" stroke-linecap="butt" d="m182.62292 213.27316l0 0c0 -3.8703308 3.1375275 -7.0078735 7.0078735 -7.0078735l0 0c1.8585968 0 3.6410828 0.738327 4.955307 2.0525665c1.3142395 1.3142242 2.0525665 3.0967102 2.0525665 4.955307l0 0c0 3.870346 -3.1375275 7.0078735 -7.0078735 7.0078735l0 0c-3.870346 0 -7.0078735 -3.1375275 -7.0078735 -7.0078735z" fill-rule="evenodd"/><path fill="#f6b26b" d="m79.26566 170.476l0 0c0 -3.870346 3.1375275 -7.0078735 7.0078735 -7.0078735l0 0c1.8586044 0 3.6410828 0.738327 4.9553146 2.0525665c1.3142319 1.3142242 2.052559 3.0967102 2.052559 4.955307l0 0c0 3.870346 -3.137535 7.0078735 -7.0078735 7.0078735l0 0c-3.870346 0 -7.0078735 -3.1375275 -7.0078735 -7.0078735z" fill-rule="evenodd"/><path stroke="#000000" stroke-width="1.0" stroke-linejoin="round" stroke-linecap="butt" d="m79.26566 170.476l0 0c0 -3.870346 3.1375275 -7.0078735 7.0078735 -7.0078735l0 0c1.8586044 0 3.6410828 0.738327 4.9553146 2.0525665c1.3142319 1.3142242 2.052559 3.0967102 2.052559 4.955307l0 0c0 3.870346 -3.137535 7.0078735 -7.0078735 7.0078735l0 0c-3.870346 0 -7.0078735 -3.1375275 -7.0078735 -7.0078735z" fill-rule="evenodd"/><path fill="#000000" fill-opacity="0.0" d="m218.28876 65.6886l33.07086 20.125984" fill-rule="evenodd"/><path stroke="#000000" stroke-width="1.0" stroke-linejoin="round" stroke-linecap="butt" d="m218.28876 65.6886l33.07086 20.125984" fill-rule="evenodd"/><path fill="#000000" fill-opacity="0.0" d="m216.23523 127.28377l42.11023 -34.456688" fill-rule="evenodd"/><path stroke="#000000" stroke-width="1.0" stroke-linejoin="round" stroke-linecap="butt" d="m216.23523 127.28377l42.11023 -34.456688" fill-rule="evenodd"/><path fill="#000000" fill-opacity="0.0" d="m23.692636 54.39189l62.58268 109.07086" fill-rule="evenodd"/><path stroke="#000000" stroke-width="1.0" stroke-linejoin="round" stroke-linecap="butt" d="m23.692636 54.39189l62.58268 109.07086" fill-rule="evenodd"/><path fill="#000000" fill-opacity="0.0" d="m224.56267 120.3334l51.496048 0l0 31.370079l-51.496048 0z" fill-rule="evenodd"/><path fill="#000000" d="m239.5158 143.41339l0 -1.109375q-0.890625 1.28125 -2.421875 1.28125q-0.671875 0 -1.25 -0.25q-0.578125 -0.265625 -0.875 -0.65625q-0.28125 -0.390625 -0.390625 -0.953125q-0.078125 -0.375 -0.078125 -1.203125l0 -4.703125l1.28125 0l0 4.203125q0 1.015625 0.078125 1.359375q0.125 0.515625 0.515625 0.8125q0.40625 0.28125 0.984375 0.28125q0.578125 0 1.078125 -0.296875q0.515625 -0.296875 0.71875 -0.8125q0.21875 -0.515625 0.21875 -1.484375l0 -4.0625l1.28125 0l0 7.59375l-1.140625 0zm2.8073578 -2.765625l1.296875 -0.171875q0.21875 1.09375 0.75 1.578125q0.53125 0.484375 1.296875 0.484375q0.90625 0 1.53125 -0.625q0.640625 -0.640625 0.640625 -1.5625q0 -0.890625 -0.59375 -1.46875q-0.578125 -0.578125 -1.46875 -0.578125q-0.359375 0 -0.90625 0.140625l0.140625 -1.125q0.125 0.015625 0.203125 0.015625q0.828125 0 1.484375 -0.421875q0.65625 -0.4375 0.65625 -1.34375q0 -0.703125 -0.484375 -1.15625q-0.46875 -0.46875 -1.234375 -0.46875q-0.75 0 -1.25 0.46875q-0.5 0.46875 -0.640625 1.421875l-1.28125 -0.234375q0.234375 -1.296875 1.0625 -2.0q0.84375 -0.71875 2.09375 -0.71875q0.859375 0 1.578125 0.375q0.71875 0.359375 1.09375 1.0q0.390625 0.640625 0.390625 1.34375q0 0.6875 -0.375 1.25q-0.359375 0.546875 -1.0625 0.875q0.921875 0.21875 1.4375 0.90625q0.515625 0.671875 0.515625 1.6875q0 1.375 -1.0 2.328125q-1.0 0.953125 -2.53125 0.953125q-1.390625 0 -2.296875 -0.8125q-0.90625 -0.828125 -1.046875 -2.140625z" fill-rule="nonzero"/><path fill="#000000" fill-opacity="0.0" d="m19.57271 4.7659187l51.496063 0l0 31.370079l-51.496063 0z" fill-rule="evenodd"/><path fill="#000000" d="m34.744587 25.392794l1.328125 0.171875q-0.3125 1.171875 -1.171875 1.8125q-0.84375 0.640625 -2.171875 0.640625q-1.6718769 0 -2.656252 -1.015625q-0.96875 -1.03125 -0.96875 -2.890625q0 -1.921875 0.984375 -2.96875q1.0 -1.0625 2.578127 -1.0625q1.515625 0 2.484375 1.03125q0.96875 1.03125 0.96875 2.921875q0 0.109375 -0.015625 0.34375l-5.656252 0q0.0625 1.25 0.703125 1.921875q0.640625 0.65625 1.5937519 0.65625q0.703125 0 1.203125 -0.359375q0.5 -0.375 0.796875 -1.203125zm-4.234377 -2.078125l4.250002 0q-0.09375 -0.953125 -0.484375 -1.4375q-0.625 -0.75 -1.609375 -0.75q-0.8750019 0 -1.4843769 0.59375q-0.609375 0.59375 -0.671875 1.59375zm11.666735 4.53125l-1.28125 0l0 -8.203125q-0.46875 0.4375 -1.21875 0.890625q-0.75 0.4375 -1.359375 0.65625l0 -1.25q1.078125 -0.5 1.890625 -1.21875q0.8125 -0.734375 1.140625 -1.40625l0.828125 0l0 10.53125z" fill-rule="nonzero"/><path fill="#000000" fill-opacity="0.0" d="m53.830906 154.78514l51.49606 0l0 31.370071l-51.49606 0z" fill-rule="evenodd"/><path fill="#000000" d="m69.00278 175.41202l1.328125 0.171875q-0.3125 1.171875 -1.171875 1.8125q-0.84375 0.640625 -2.171875 0.640625q-1.671875 0 -2.65625 -1.015625q-0.9687462 -1.03125 -0.9687462 -2.890625q0 -1.921875 0.9843712 -2.96875q1.0 -1.0625 2.578125 -1.0625q1.515625 0 2.484375 1.03125q0.96875 1.03125 0.96875 2.921875q0 0.109375 -0.015625 0.34375l-5.65625 0q0.0625 1.25 0.703125 1.921875q0.640625 0.65625 1.59375 0.65625q0.703125 0 1.203125 -0.359375q0.5 -0.375 0.796875 -1.203125zm-4.234375 -2.078125l4.25 0q-0.09375 -0.953125 -0.484375 -1.4375q-0.625 -0.75 -1.609375 -0.75q-0.875 0 -1.484375 0.59375q-0.609375 0.59375 -0.671875 1.59375zm13.588608 3.296875l0 1.234375l-6.9375 0q-0.015625 -0.46875 0.15625 -0.890625q0.265625 -0.71875 0.84375 -1.40625q0.59375 -0.6875 1.6875 -1.578125q1.71875 -1.40625 2.3125 -2.21875q0.609375 -0.828125 0.609375 -1.5625q0 -0.765625 -0.5625 -1.28125q-0.546875 -0.53125 -1.421875 -0.53125q-0.921875 0 -1.484375 0.5625q-0.5625 0.5625 -0.5625 1.546875l-1.328125 -0.140625q0.140625 -1.484375 1.015625 -2.25q0.890625 -0.78125 2.390625 -0.78125q1.515625 0 2.390625 0.84375q0.875 0.828125 0.875 2.0625q0 0.640625 -0.265625 1.25q-0.25 0.59375 -0.84375 1.265625q-0.59375 0.671875 -1.984375 1.859375q-1.15625 0.96875 -1.484375 1.3125q-0.328125 0.34375 -0.546875 0.703125l5.140625 0z" fill-rule="nonzero"/><path fill="#000000" fill-opacity="0.0" d="m70.90741 170.47137l0 0c0 -9.514954 7.713394 -17.228348 17.228348 -17.228348l0 0c4.5692444 0 8.95134 1.8151245 12.1822815 5.0460663c3.2309418 3.2309418 5.0460663 7.6130524 5.0460663 12.1822815l0 0c0 9.514954 -7.713394 17.228348 -17.228348 17.228348l0 0c-9.514954 0 -17.228348 -7.713394 -17.228348 -17.228348z" fill-rule="evenodd"/><path stroke="#ff0000" stroke-width="1.0" stroke-linejoin="round" stroke-linecap="butt" stroke-dasharray="1.0,3.0" d="m70.90741 170.47137l0 0c0 -9.514954 7.713394 -17.228348 17.228348 -17.228348l0 0c4.5692444 0 8.95134 1.8151245 12.1822815 5.0460663c3.2309418 3.2309418 5.0460663 7.6130524 5.0460663 12.1822815l0 0c0 9.514954 -7.713394 17.228348 -17.228348 17.228348l0 0c-9.514954 0 -17.228348 -7.713394 -17.228348 -17.228348z" fill-rule="evenodd"/><path fill="#000000" fill-opacity="0.0" d="m91.22885 165.52069l80.7874 -85.35434" fill-rule="evenodd"/><path stroke="#000000" stroke-width="1.0" stroke-linejoin="round" stroke-linecap="butt" stroke-dasharray="4.0,3.0" d="m91.22885 165.52069l80.7874 -85.35434" fill-rule="evenodd"/><path fill="#000000" fill-opacity="0.0" d="m93.28141 170.476l89.35433 42.803146" fill-rule="evenodd"/><path stroke="#000000" stroke-width="1.0" stroke-linejoin="round" stroke-linecap="butt" stroke-dasharray="4.0,3.0" d="m93.28141 170.476l89.35433 42.803146" fill-rule="evenodd"/><path fill="#000000" fill-opacity="0.0" d="m91.22759 119.31352l28.157478 0l0 31.370087l-28.157478 0z" fill-rule="evenodd"/><path fill="#000000" d="m103.60259 139.8154q0 -0.265625 0 -0.390625q0 -0.765625 0.203125 -1.3125q0.171875 -0.40625 0.515625 -0.828125q0.25 -0.3125 0.921875 -0.90625q0.671875 -0.59375 0.875 -0.9375q0.203125 -0.359375 0.203125 -0.765625q0 -0.75 -0.59375 -1.3125q-0.578125 -0.578125 -1.4375 -0.578125q-0.828125 0 -1.375 0.515625q-0.546875 0.515625 -0.71875 1.609375l-1.328125 -0.15625q0.1875 -1.46875 1.0625 -2.25q0.890625 -0.78125 2.34375 -0.78125q1.53125 0 2.4375 0.84375q0.921875 0.828125 0.921875 2.015625q0 0.6875 -0.328125 1.265625q-0.3125 0.578125 -1.25 1.421875q-0.625 0.546875 -0.828125 0.8125q-0.1875 0.265625 -0.28125 0.609375q-0.09375 0.34375 -0.109375 1.125l-1.234375 0zm-0.078125 2.578125l0 -1.46875l1.46875 0l0 1.46875l-1.46875 0z" fill-rule="nonzero"/><path fill="#000000" fill-opacity="0.0" d="m109.32813 155.51459l28.157478 0l0 31.370071l-28.157478 0z" fill-rule="evenodd"/><path fill="#000000" d="m121.70313 176.01646q0 -0.265625 0 -0.390625q0 -0.765625 0.203125 -1.3125q0.171875 -0.40625 0.515625 -0.828125q0.25 -0.3125 0.921875 -0.90625q0.671875 -0.59375 0.875 -0.9375q0.203125 -0.359375 0.203125 -0.765625q0 -0.75 -0.59375 -1.3125q-0.578125 -0.578125 -1.4375 -0.578125q-0.828125 0 -1.375 0.515625q-0.546875 0.515625 -0.71875 1.609375l-1.328125 -0.15625q0.1875 -1.46875 1.0625 -2.25q0.890625 -0.78125 2.34375 -0.78125q1.53125 0 2.4375 0.84375q0.921875 0.828125 0.921875 2.015625q0 0.6875 -0.328125 1.265625q-0.3125 0.578125 -1.25 1.421875q-0.625 0.546875 -0.828125 0.8125q-0.1875 0.265625 -0.28125 0.609375q-0.09375 0.34375 -0.109375 1.125l-1.234375 0zm-0.078125 2.578125l0 -1.46875l1.46875 0l0 1.46875l-1.46875 0z" fill-rule="nonzero"/><path fill="#cfe2f3" d="m173.09367 276.91412l0 0c0 -10.231262 8.294067 -18.5253 18.525314 -18.5253l74.099 0l0 0c4.913208 0 9.625183 1.9517517 13.099365 5.425934c3.4741516 3.4741516 5.425934 8.186127 5.425934 13.099365l0 101.65805c0 10.231232 -8.294067 18.5253 -18.5253 18.5253l-74.099 0c-10.231247 0 -18.525314 -8.294067 -18.525314 -18.5253z" fill-rule="evenodd"/><path stroke="#000000" stroke-width="1.0" stroke-linejoin="round" stroke-linecap="butt" d="m173.09367 276.91412l0 0c0 -10.231262 8.294067 -18.5253 18.525314 -18.5253l74.099 0l0 0c4.913208 0 9.625183 1.9517517 13.099365 5.425934c3.4741516 3.4741516 5.425934 8.186127 5.425934 13.099365l0 101.65805c0 10.231232 -8.294067 18.5253 -18.5253 18.5253l-74.099 0c-10.231247 0 -18.525314 -8.294067 -18.525314 -18.5253z" fill-rule="evenodd"/><path fill="#38761d" d="m205.34291 379.83102l0 0c0 -3.8703613 3.1375275 -7.0078735 7.0078735 -7.0078735l0 0c1.8585968 0 3.6410828 0.73831177 4.9553223 2.0525513c1.3142242 1.3142395 2.0525513 3.0967102 2.0525513 4.9553223l0 0c0 3.8703308 -3.1375275 7.0078735 -7.0078735 7.0078735l0 0c-3.870346 0 -7.0078735 -3.1375427 -7.0078735 -7.0078735z" fill-rule="evenodd"/><path stroke="#000000" stroke-width="1.0" stroke-linejoin="round" stroke-linecap="butt" d="m205.34291 379.83102l0 0c0 -3.8703613 3.1375275 -7.0078735 7.0078735 -7.0078735l0 0c1.8585968 0 3.6410828 0.73831177 4.9553223 2.0525513c1.3142242 1.3142395 2.0525513 3.0967102 2.0525513 4.9553223l0 0c0 3.8703308 -3.1375275 7.0078735 -7.0078735 7.0078735l0 0c-3.870346 0 -7.0078735 -3.1375427 -7.0078735 -7.0078735z" fill-rule="evenodd"/><path fill="#ff00ff" d="m205.34387 313.28052l0 0c0 -3.8703308 3.1375275 -7.0078735 7.0078735 -7.0078735l0 0c1.8586121 0 3.6410828 0.7383423 4.9553223 2.0525513c1.3142242 1.3142395 2.0525513 3.0967102 2.0525513 4.9553223l0 0c0 3.8703613 -3.1375275 7.0078735 -7.0078735 7.0078735l0 0c-3.870346 0 -7.0078735 -3.1375122 -7.0078735 -7.0078735z" fill-rule="evenodd"/><path stroke="#000000" stroke-width="1.0" stroke-linejoin="round" stroke-linecap="butt" d="m205.34387 313.28052l0 0c0 -3.8703308 3.1375275 -7.0078735 7.0078735 -7.0078735l0 0c1.8586121 0 3.6410828 0.7383423 4.9553223 2.0525513c1.3142242 1.3142395 2.0525513 3.0967102 2.0525513 4.9553223l0 0c0 3.8703613 -3.1375275 7.0078735 -7.0078735 7.0078735l0 0c-3.870346 0 -7.0078735 -3.1375122 -7.0078735 -7.0078735z" fill-rule="evenodd"/><path fill="#9900ff" d="m183.69376 276.17935l0 0c0 -3.8703308 3.1375427 -7.0078735 7.0078735 -7.0078735l0 0c1.8586121 0 3.6410828 0.7383423 4.9553223 2.0525513c1.3142242 1.3142395 2.0525513 3.0967102 2.0525513 4.9553223l0 0c0 3.8703308 -3.1375275 7.0078735 -7.0078735 7.0078735l0 0c-3.8703308 0 -7.0078735 -3.1375427 -7.0078735 -7.0078735z" fill-rule="evenodd"/><path stroke="#000000" stroke-width="1.0" stroke-linejoin="round" stroke-linecap="butt" d="m183.69376 276.17935l0 0c0 -3.8703308 3.1375427 -7.0078735 7.0078735 -7.0078735l0 0c1.8586121 0 3.6410828 0.7383423 4.9553223 2.0525513c1.3142242 1.3142395 2.0525513 3.0967102 2.0525513 4.9553223l0 0c0 3.8703308 -3.1375275 7.0078735 -7.0078735 7.0078735l0 0c-3.8703308 0 -7.0078735 -3.1375427 -7.0078735 -7.0078735z" fill-rule="evenodd"/><path fill="#0000ff" d="m17.755629 294.97595l0 0c0 -3.8703613 3.1375313 -7.0078735 7.0078735 -7.0078735l0 0c1.8586044 0 3.6410847 0.73831177 4.9553165 2.0525513c1.31423 1.3142395 2.052559 3.0967102 2.052559 4.9553223l0 0c0 3.8703308 -3.1375332 7.0078735 -7.0078754 7.0078735l0 0c-3.8703423 0 -7.0078735 -3.1375427 -7.0078735 -7.0078735z" fill-rule="evenodd"/><path stroke="#000000" stroke-width="1.0" stroke-linejoin="round" stroke-linecap="butt" d="m17.755629 294.97595l0 0c0 -3.8703613 3.1375313 -7.0078735 7.0078735 -7.0078735l0 0c1.8586044 0 3.6410847 0.73831177 4.9553165 2.0525513c1.31423 1.3142395 2.052559 3.0967102 2.052559 4.9553223l0 0c0 3.8703308 -3.1375332 7.0078735 -7.0078754 7.0078735l0 0c-3.8703423 0 -7.0078735 -3.1375427 -7.0078735 -7.0078735z" fill-rule="evenodd"/><path fill="#000000" fill-opacity="0.0" d="m207.39644 308.3252l-11.748032 -27.181091" fill-rule="evenodd"/><path stroke="#000000" stroke-width="1.0" stroke-linejoin="round" stroke-linecap="butt" d="m207.39644 308.3252l-11.748032 -27.181091" fill-rule="evenodd"/><path fill="#000000" fill-opacity="0.0" d="m212.35175 320.2884l0 52.53543" fill-rule="evenodd"/><path stroke="#000000" stroke-width="1.0" stroke-linejoin="round" stroke-linecap="butt" d="m212.35175 320.2884l0 52.53543" fill-rule="evenodd"/><path fill="#b45f06" d="m252.42189 333.41315l0 0c0 -3.8703308 3.1375427 -7.0078735 7.007889 -7.0078735l0 0c1.8585815 0 3.6410828 0.7383423 4.9552917 2.0525818c1.3142395 1.314209 2.0525818 3.0967102 2.0525818 4.9552917l0 0c0 3.8703613 -3.1375427 7.0078735 -7.0078735 7.0078735l0 0c-3.870346 0 -7.007889 -3.1375122 -7.007889 -7.0078735z" fill-rule="evenodd"/><path stroke="#000000" stroke-width="1.0" stroke-linejoin="round" stroke-linecap="butt" d="m252.42189 333.41315l0 0c0 -3.8703308 3.1375427 -7.0078735 7.007889 -7.0078735l0 0c1.8585815 0 3.6410828 0.7383423 4.9552917 2.0525818c1.3142395 1.314209 2.0525818 3.0967102 2.0525818 4.9552917l0 0c0 3.8703613 -3.1375427 7.0078735 -7.0078735 7.0078735l0 0c-3.870346 0 -7.007889 -3.1375122 -7.007889 -7.0078735z" fill-rule="evenodd"/><path fill="#a64d79" d="m183.69379 460.86508l0 0c0 -3.8703308 3.1375427 -7.0078735 7.0078735 -7.0078735l0 0c1.8586121 0 3.6410828 0.7383423 4.9553223 2.0525818c1.3142242 1.314209 2.0525513 3.0967102 2.0525513 4.9552917l0 0c0 3.8703613 -3.1375275 7.0078735 -7.0078735 7.0078735l0 0c-3.8703308 0 -7.0078735 -3.1375122 -7.0078735 -7.0078735z" fill-rule="evenodd"/><path stroke="#000000" stroke-width="1.0" stroke-linejoin="round" stroke-linecap="butt" d="m183.69379 460.86508l0 0c0 -3.8703308 3.1375427 -7.0078735 7.0078735 -7.0078735l0 0c1.8586121 0 3.6410828 0.7383423 4.9553223 2.0525818c1.3142242 1.314209 2.0525513 3.0967102 2.0525513 4.9552917l0 0c0 3.8703613 -3.1375275 7.0078735 -7.0078735 7.0078735l0 0c-3.8703308 0 -7.0078735 -3.1375122 -7.0078735 -7.0078735z" fill-rule="evenodd"/><path fill="#f6b26b" d="m80.336525 418.06793l0 0c0 -3.8703613 3.137535 -7.0078735 7.0078735 -7.0078735l0 0c1.8586044 0 3.6410828 0.73831177 4.9553146 2.0525513c1.3142319 1.3142395 2.052559 3.0967102 2.052559 4.9553223l0 0c0 3.8703308 -3.1375275 7.0078735 -7.0078735 7.0078735l0 0c-3.8703384 0 -7.0078735 -3.1375427 -7.0078735 -7.0078735z" fill-rule="evenodd"/><path stroke="#000000" stroke-width="1.0" stroke-linejoin="round" stroke-linecap="butt" d="m80.336525 418.06793l0 0c0 -3.8703613 3.137535 -7.0078735 7.0078735 -7.0078735l0 0c1.8586044 0 3.6410828 0.73831177 4.9553146 2.0525513c1.3142319 1.3142395 2.052559 3.0967102 2.052559 4.9553223l0 0c0 3.8703308 -3.1375275 7.0078735 -7.0078735 7.0078735l0 0c-3.8703384 0 -7.0078735 -3.1375427 -7.0078735 -7.0078735z" fill-rule="evenodd"/><path fill="#000000" fill-opacity="0.0" d="m219.35962 313.28052l33.07086 20.125977" fill-rule="evenodd"/><path stroke="#000000" stroke-width="1.0" stroke-linejoin="round" stroke-linecap="butt" d="m219.35962 313.28052l33.07086 20.125977" fill-rule="evenodd"/><path fill="#000000" fill-opacity="0.0" d="m217.3061 374.8757l42.110214 -34.456696" fill-rule="evenodd"/><path stroke="#000000" stroke-width="1.0" stroke-linejoin="round" stroke-linecap="butt" d="m217.3061 374.8757l42.110214 -34.456696" fill-rule="evenodd"/><path fill="#000000" fill-opacity="0.0" d="m24.763502 301.98383l62.582672 109.07086" fill-rule="evenodd"/><path stroke="#000000" stroke-width="1.0" stroke-linejoin="round" stroke-linecap="butt" d="m24.763502 301.98383l62.582672 109.07086" fill-rule="evenodd"/><path fill="#000000" fill-opacity="0.0" d="m225.63353 367.92532l51.49608 0l0 31.370087l-51.49608 0z" fill-rule="evenodd"/><path fill="#000000" d="m240.58665 391.0053l0 -1.109375q-0.890625 1.28125 -2.421875 1.28125q-0.671875 0 -1.25 -0.25q-0.578125 -0.265625 -0.875 -0.65625q-0.28125 -0.390625 -0.390625 -0.953125q-0.078125 -0.375 -0.078125 -1.203125l0 -4.703125l1.28125 0l0 4.203125q0 1.015625 0.078125 1.359375q0.125 0.515625 0.515625 0.8125q0.40625 0.28125 0.984375 0.28125q0.578125 0 1.078125 -0.296875q0.515625 -0.296875 0.71875 -0.8125q0.21875 -0.515625 0.21875 -1.484375l0 -4.0625l1.28125 0l0 7.59375l-1.140625 0zm2.8073578 -2.765625l1.296875 -0.171875q0.21875 1.09375 0.75 1.578125q0.53125 0.484375 1.296875 0.484375q0.90625 0 1.53125 -0.625q0.640625 -0.640625 0.640625 -1.5625q0 -0.890625 -0.59375 -1.46875q-0.578125 -0.578125 -1.46875 -0.578125q-0.359375 0 -0.90625 0.140625l0.140625 -1.125q0.125 0.015625 0.203125 0.015625q0.828125 0 1.484375 -0.421875q0.65625 -0.4375 0.65625 -1.34375q0 -0.703125 -0.484375 -1.15625q-0.46875 -0.46875 -1.234375 -0.46875q-0.75 0 -1.25 0.46875q-0.5 0.46875 -0.640625 1.421875l-1.28125 -0.234375q0.234375 -1.296875 1.0625 -2.0q0.84375 -0.71875 2.09375 -0.71875q0.859375 0 1.578125 0.375q0.71875 0.359375 1.09375 1.0q0.390625 0.640625 0.390625 1.34375q0 0.6875 -0.375 1.25q-0.359375 0.546875 -1.0625 0.875q0.921875 0.21875 1.4375 0.90625q0.515625 0.671875 0.515625 1.6875q0 1.375 -1.0 2.328125q-1.0 0.953125 -2.53125 0.953125q-1.390625 0 -2.296875 -0.8125q-0.90625 -0.828125 -1.046875 -2.140625z" fill-rule="nonzero"/><path fill="#000000" fill-opacity="0.0" d="m20.643578 252.35785l51.496063 0l0 31.370087l-51.496063 0z" fill-rule="evenodd"/><path fill="#000000" d="m35.815453 272.9847l1.328125 0.171875q-0.3125 1.171875 -1.171875 1.8125q-0.84375 0.640625 -2.171875 0.640625q-1.671875 0 -2.65625 -1.015625q-0.96875 -1.03125 -0.96875 -2.890625q0 -1.921875 0.984375 -2.96875q1.0 -1.0625 2.578125 -1.0625q1.515625 0 2.484375 1.03125q0.96875 1.03125 0.96875 2.921875q0 0.109375 -0.015625 0.34375l-5.65625 0q0.0625 1.25 0.703125 1.921875q0.640625 0.65625 1.59375 0.65625q0.703125 0 1.203125 -0.359375q0.5 -0.375 0.796875 -1.203125zm-4.234375 -2.078125l4.25 0q-0.09375 -0.953125 -0.484375 -1.4375q-0.625 -0.75 -1.609375 -0.75q-0.875 0 -1.484375 0.59375q-0.609375 0.59375 -0.671875 1.59375zm11.666733 4.53125l-1.28125 0l0 -8.203125q-0.46875 0.4375 -1.21875 0.890625q-0.75 0.4375 -1.359375 0.65625l0 -1.25q1.078125 -0.5 1.890625 -1.21875q0.8125 -0.734375 1.140625 -1.40625l0.828125 0l0 10.53125z" fill-rule="nonzero"/><path fill="#000000" fill-opacity="0.0" d="m48.86826 406.28262l51.49606 0l0 31.370056l-51.49606 0z" fill-rule="evenodd"/><path fill="#000000" d="m64.04013 426.9095l1.328125 0.171875q-0.3125 1.171875 -1.171875 1.8125q-0.8437462 0.640625 -2.1718712 0.640625q-1.671875 0 -2.65625 -1.015625q-0.96875 -1.03125 -0.96875 -2.890625q0 -1.921875 0.984375 -2.96875q1.0 -1.0625 2.578125 -1.0625q1.515625 0 2.4843712 1.03125q0.96875 1.03125 0.96875 2.921875q0 0.109375 -0.015625 0.34375l-5.656246 0q0.0625 1.25 0.703125 1.921875q0.640625 0.65625 1.59375 0.65625q0.703125 0 1.203125 -0.359375q0.5 -0.375 0.7968712 -1.203125zm-4.234371 -2.078125l4.249996 0q-0.093746185 -0.953125 -0.4843712 -1.4375q-0.625 -0.75 -1.609375 -0.75q-0.875 0 -1.484375 0.59375q-0.609375 0.59375 -0.671875 1.59375zm13.588604 3.296875l0 1.234375l-6.9375 0q-0.015625 -0.46875 0.15625 -0.890625q0.265625 -0.71875 0.84375 -1.40625q0.59375 -0.6875 1.6875 -1.578125q1.71875 -1.40625 2.3125 -2.21875q0.609375 -0.828125 0.609375 -1.5625q0 -0.765625 -0.5625 -1.28125q-0.546875 -0.53125 -1.421875 -0.53125q-0.921875 0 -1.484375 0.5625q-0.5625 0.5625 -0.5625 1.546875l-1.328125 -0.140625q0.140625 -1.484375 1.015625 -2.25q0.890625 -0.78125 2.390625 -0.78125q1.515625 0 2.390625 0.84375q0.875 0.828125 0.875 2.0625q0 0.640625 -0.265625 1.25q-0.25 0.59375 -0.84375 1.265625q-0.59375 0.671875 -1.984375 1.859375q-1.15625 0.96875 -1.484375 1.3125q-0.328125 0.34375 -0.546875 0.703125l5.140625 0z" fill-rule="nonzero"/><path fill="#000000" fill-opacity="0.0" d="m173.46718 460.86005l0 0c0 -9.514954 7.713394 -17.228333 17.228348 -17.228333l0 0c4.5692444 0 8.95134 1.8151245 12.1822815 5.046051c3.2309418 3.230957 5.0460663 7.613037 5.0460663 12.1822815l0 0c0 9.514954 -7.713394 17.228363 -17.228348 17.228363l0 0c-9.514954 0 -17.228348 -7.7134094 -17.228348 -17.228363z" fill-rule="evenodd"/><path stroke="#ff0000" stroke-width="1.0" stroke-linejoin="round" stroke-linecap="butt" stroke-dasharray="1.0,3.0" d="m173.46718 460.86005l0 0c0 -9.514954 7.713394 -17.228333 17.228348 -17.228333l0 0c4.5692444 0 8.95134 1.8151245 12.1822815 5.046051c3.2309418 3.230957 5.0460663 7.613037 5.0460663 12.1822815l0 0c0 9.514954 -7.713394 17.228363 -17.228348 17.228363l0 0c-9.514954 0 -17.228348 -7.7134094 -17.228348 -17.228363z" fill-rule="evenodd"/><path fill="#000000" fill-opacity="0.0" d="m92.29971 413.1126l80.7874 -85.35434" fill-rule="evenodd"/><path stroke="#000000" stroke-width="1.0" stroke-linejoin="round" stroke-linecap="butt" d="m92.29971 413.1126l80.7874 -85.35434" fill-rule="evenodd"/><path fill="#000000" fill-opacity="0.0" d="m162.43411 209.08673l51.496063 0l0 31.370071l-51.496063 0z" fill-rule="evenodd"/><path fill="#000000" d="m177.60599 229.71361l1.328125 0.171875q-0.3125 1.171875 -1.171875 1.8125q-0.84375 0.640625 -2.171875 0.640625q-1.671875 0 -2.65625 -1.015625q-0.96875 -1.03125 -0.96875 -2.890625q0 -1.921875 0.984375 -2.96875q1.0 -1.0625 2.578125 -1.0625q1.515625 0 2.484375 1.03125q0.96875 1.03125 0.96875 2.921875q0 0.109375 -0.015625 0.34375l-5.65625 0q0.0625 1.25 0.703125 1.921875q0.640625 0.65625 1.59375 0.65625q0.703125 0 1.203125 -0.359375q0.5 -0.375 0.796875 -1.203125zm-4.234375 -2.078125l4.25 0q-0.09375 -0.953125 -0.484375 -1.4375q-0.625 -0.75 -1.609375 -0.75q-0.875 0 -1.484375 0.59375q-0.609375 0.59375 -0.671875 1.59375zm6.822983 1.765625l1.296875 -0.171875q0.21875 1.09375 0.75 1.578125q0.53125 0.484375 1.296875 0.484375q0.90625 0 1.53125 -0.625q0.640625 -0.640625 0.640625 -1.5625q0 -0.890625 -0.59375 -1.46875q-0.578125 -0.578125 -1.46875 -0.578125q-0.359375 0 -0.90625 0.140625l0.140625 -1.125q0.125 0.015625 0.203125 0.015625q0.828125 0 1.484375 -0.421875q0.65625 -0.4375 0.65625 -1.34375q0 -0.703125 -0.484375 -1.15625q-0.46875 -0.46875 -1.234375 -0.46875q-0.75 0 -1.25 0.46875q-0.5 0.46875 -0.640625 1.421875l-1.28125 -0.234375q0.234375 -1.296875 1.0625 -2.0q0.84375 -0.71875 2.09375 -0.71875q0.859375 0 1.578125 0.375q0.71875 0.359375 1.09375 1.0q0.390625 0.640625 0.390625 1.34375q0 0.6875 -0.375 1.25q-0.359375 0.546875 -1.0625 0.875q0.921875 0.21875 1.4375 0.90625q0.515625 0.671875 0.515625 1.6875q0 1.375 -1.0 2.328125q-1.0 0.953125 -2.53125 0.953125q-1.390625 0 -2.296875 -0.8125q-0.90625 -0.828125 -1.046875 -2.140625z" fill-rule="nonzero"/><path fill="#000000" fill-opacity="0.0" d="m94.33338 421.9721l91.55906 36.37796" fill-rule="evenodd"/><path stroke="#000000" stroke-width="1.0" stroke-linejoin="round" stroke-linecap="butt" stroke-dasharray="4.0,3.0" d="m94.33338 421.9721l91.55906 36.37796" fill-rule="evenodd"/><path fill="#000000" fill-opacity="0.0" d="m128.49953 415.17352l28.157486 0l0 31.370087l-28.157486 0z" fill-rule="evenodd"/><path fill="#000000" d="m140.87453 435.6754q0 -0.265625 0 -0.390625q0 -0.765625 0.203125 -1.3125q0.171875 -0.40625 0.515625 -0.828125q0.25 -0.3125 0.921875 -0.90625q0.671875 -0.59375 0.875 -0.9375q0.203125 -0.359375 0.203125 -0.765625q0 -0.75 -0.59375 -1.3125q-0.578125 -0.578125 -1.4375 -0.578125q-0.828125 0 -1.375 0.515625q-0.546875 0.515625 -0.71875 1.609375l-1.328125 -0.15625q0.1875 -1.46875 1.0625 -2.25q0.890625 -0.78125 2.34375 -0.78125q1.53125 0 2.4375 0.84375q0.921875 0.828125 0.921875 2.015625q0 0.6875 -0.328125 1.265625q-0.3125 0.578125 -1.25 1.421875q-0.625 0.546875 -0.828125 0.8125q-0.1875 0.265625 -0.28125 0.609375q-0.09375 0.34375 -0.109375 1.125l-1.234375 0zm-0.078125 2.578125l0 -1.46875l1.46875 0l0 1.46875l-1.46875 0z" fill-rule="nonzero"/><path fill="#000000" fill-opacity="0.0" d="m178.51324 448.67776l-148.7874 -148.75589" fill-rule="evenodd"/><path stroke="#000000" stroke-width="1.0" stroke-linejoin="round" stroke-linecap="butt" stroke-dasharray="4.0,3.0" d="m178.51324 448.67776l-148.7874 -148.75589" fill-rule="evenodd"/><path fill="#000000" fill-opacity="0.0" d="m146.60007 397.073l28.157486 0l0 31.370087l-28.157486 0z" fill-rule="evenodd"/><path fill="#000000" d="m158.97507 417.5749q0 -0.265625 0 -0.390625q0 -0.765625 0.203125 -1.3125q0.171875 -0.40625 0.515625 -0.828125q0.25 -0.3125 0.921875 -0.90625q0.671875 -0.59375 0.875 -0.9375q0.203125 -0.359375 0.203125 -0.765625q0 -0.75 -0.59375 -1.3125q-0.578125 -0.578125 -1.4375 -0.578125q-0.828125 0 -1.375 0.515625q-0.546875 0.515625 -0.71875 1.609375l-1.328125 -0.15625q0.1875 -1.46875 1.0625 -2.25q0.890625 -0.78125 2.34375 -0.78125q1.53125 0 2.4375 0.84375q0.921875 0.828125 0.921875 2.015625q0 0.6875 -0.328125 1.265625q-0.3125 0.578125 -1.25 1.421875q-0.625 0.546875 -0.828125 0.8125q-0.1875 0.265625 -0.28125 0.609375q-0.09375 0.34375 -0.109375 1.125l-1.234375 0zm-0.078125 2.578125l0 -1.46875l1.46875 0l0 1.46875l-1.46875 0z" fill-rule="nonzero"/><path fill="#38761d" d="m179.40845 653.76843l0 0c0 -5.1314697 4.1598663 -9.291321 9.291336 -9.291321l0 0c2.4642181 0 4.8274994 0.97888184 6.5699615 2.7213745c1.7424622 1.7424316 2.7213745 4.105713 2.7213745 6.5699463l0 0c0 5.1314697 -4.1598816 9.291321 -9.291336 9.291321l0 0c-5.1314697 0 -9.291336 -4.159851 -9.291336 -9.291321z" fill-rule="evenodd"/><path stroke="#000000" stroke-width="1.0" stroke-linejoin="round" stroke-linecap="butt" d="m179.40845 653.76843l0 0c0 -5.1314697 4.1598663 -9.291321 9.291336 -9.291321l0 0c2.4642181 0 4.8274994 0.97888184 6.5699615 2.7213745c1.7424622 1.7424316 2.7213745 4.105713 2.7213745 6.5699463l0 0c0 5.1314697 -4.1598816 9.291321 -9.291336 9.291321l0 0c-5.1314697 0 -9.291336 -4.159851 -9.291336 -9.291321z" fill-rule="evenodd"/><path fill="#ff00ff" d="m179.40709 586.8317l0 0c0 -5.1314697 4.1598816 -9.291321 9.291351 -9.291321l0 0c2.464203 0 4.8274994 0.97888184 6.5699615 2.7213745c1.7424622 1.7424316 2.7213745 4.105713 2.7213745 6.5699463l0 0c0 5.1314697 -4.1598816 9.291321 -9.291336 9.291321l0 0c-5.1314697 0 -9.291351 -4.159851 -9.291351 -9.291321z" fill-rule="evenodd"/><path stroke="#000000" stroke-width="1.0" stroke-linejoin="round" stroke-linecap="butt" d="m179.40709 586.8317l0 0c0 -5.1314697 4.1598816 -9.291321 9.291351 -9.291321l0 0c2.464203 0 4.8274994 0.97888184 6.5699615 2.7213745c1.7424622 1.7424316 2.7213745 4.105713 2.7213745 6.5699463l0 0c0 5.1314697 -4.1598816 9.291321 -9.291336 9.291321l0 0c-5.1314697 0 -9.291351 -4.159851 -9.291351 -9.291321z" fill-rule="evenodd"/><path fill="#9900ff" d="m119.88959 586.83246l0 0c0 -5.1314697 4.159874 -9.291321 9.291336 -9.291321l0 0c2.4642181 0 4.8274994 0.97888184 6.569977 2.7213745c1.7424622 1.7424316 2.7213593 4.105774 2.7213593 6.5699463l0 0c0 5.1314697 -4.1598663 9.291382 -9.291336 9.291382l0 0c-5.131462 0 -9.291336 -4.159912 -9.291336 -9.291382z" fill-rule="evenodd"/><path stroke="#000000" stroke-width="1.0" stroke-linejoin="round" stroke-linecap="butt" d="m119.88959 586.83246l0 0c0 -5.1314697 4.159874 -9.291321 9.291336 -9.291321l0 0c2.4642181 0 4.8274994 0.97888184 6.569977 2.7213745c1.7424622 1.7424316 2.7213593 4.105774 2.7213593 6.5699463l0 0c0 5.1314697 -4.1598663 9.291382 -9.291336 9.291382l0 0c-5.131462 0 -9.291336 -4.159912 -9.291336 -9.291382z" fill-rule="evenodd"/><path fill="#0000ff" d="m40.072365 597.4633l0 0c0 -5.1314697 4.159874 -9.291321 9.29134 -9.291321l0 0c2.4642143 0 4.827503 0.97888184 6.5699654 2.7213745c1.742466 1.7424316 2.7213707 4.105713 2.7213707 6.5699463l0 0c0 5.1314697 -4.159874 9.291321 -9.291336 9.291321l0 0c-5.131466 0 -9.29134 -4.159851 -9.29134 -9.291321z" fill-rule="evenodd"/><path stroke="#000000" stroke-width="1.0" stroke-linejoin="round" stroke-linecap="butt" d="m40.072365 597.4633l0 0c0 -5.1314697 4.159874 -9.291321 9.29134 -9.291321l0 0c2.4642143 0 4.827503 0.97888184 6.5699654 2.7213745c1.742466 1.7424316 2.7213707 4.105713 2.7213707 6.5699463l0 0c0 5.1314697 -4.159874 9.291321 -9.291336 9.291321l0 0c-5.131466 0 -9.29134 -4.159851 -9.29134 -9.291321z" fill-rule="evenodd"/><path fill="#000000" fill-opacity="0.0" d="m179.40709 586.8317l-40.94487 0" fill-rule="evenodd"/><path stroke="#000000" stroke-width="1.0" stroke-linejoin="round" stroke-linecap="butt" d="m179.40709 586.8317l-40.94487 0" fill-rule="evenodd"/><path fill="#000000" fill-opacity="0.0" d="m188.69844 596.12305l0 48.346497" fill-rule="evenodd"/><path stroke="#000000" stroke-width="1.0" stroke-linejoin="round" stroke-linecap="butt" d="m188.69844 596.12305l0 48.346497" fill-rule="evenodd"/><path fill="#b45f06" d="m248.54306 586.83325l0 0c0 -5.1314697 4.1598663 -9.291321 9.291321 -9.291321l0 0c2.4642334 0 4.8275146 0.97888184 6.569977 2.7213745c1.7424622 1.7424316 2.7213745 4.105713 2.7213745 6.5699463l0 0c0 5.1314697 -4.1598816 9.291321 -9.291351 9.291321l0 0c-5.1314545 0 -9.291321 -4.159851 -9.291321 -9.291321z" fill-rule="evenodd"/><path stroke="#000000" stroke-width="1.0" stroke-linejoin="round" stroke-linecap="butt" d="m248.54306 586.83325l0 0c0 -5.1314697 4.1598663 -9.291321 9.291321 -9.291321l0 0c2.4642334 0 4.8275146 0.97888184 6.569977 2.7213745c1.7424622 1.7424316 2.7213745 4.105713 2.7213745 6.5699463l0 0c0 5.1314697 -4.1598816 9.291321 -9.291351 9.291321l0 0c-5.1314545 0 -9.291321 -4.159851 -9.291321 -9.291321z" fill-rule="evenodd"/><path fill="#a64d79" d="m179.40932 527.0083l0 0c0 -5.1314087 4.1598663 -9.291321 9.291336 -9.291321l0 0c2.4642181 0 4.8274994 0.9789429 6.5699615 2.7213745c1.7424622 1.7424927 2.7213745 4.105774 2.7213745 6.5699463l0 0c0 5.1314697 -4.1598663 9.291382 -9.291336 9.291382l0 0c-5.1314697 0 -9.291336 -4.159912 -9.291336 -9.291382z" fill-rule="evenodd"/><path stroke="#000000" stroke-width="1.0" stroke-linejoin="round" stroke-linecap="butt" d="m179.40932 527.0083l0 0c0 -5.1314087 4.1598663 -9.291321 9.291336 -9.291321l0 0c2.4642181 0 4.8274994 0.9789429 6.5699615 2.7213745c1.7424622 1.7424927 2.7213745 4.105774 2.7213745 6.5699463l0 0c0 5.1314697 -4.1598663 9.291382 -9.291336 9.291382l0 0c-5.1314697 0 -9.291336 -4.159912 -9.291336 -9.291382z" fill-rule="evenodd"/><path fill="#f6b26b" d="m40.071102 653.7689l0 0c0 -5.1314697 4.159874 -9.291321 9.29134 -9.291321l0 0c2.4642143 0 4.827503 0.97888184 6.5699654 2.7213745c1.742466 1.7424316 2.7213707 4.105713 2.7213707 6.5699463l0 0c0 5.1314697 -4.159874 9.291321 -9.291336 9.291321l0 0c-5.131466 0 -9.29134 -4.159851 -9.29134 -9.291321z" fill-rule="evenodd"/><path stroke="#000000" stroke-width="1.0" stroke-linejoin="round" stroke-linecap="butt" d="m40.071102 653.7689l0 0c0 -5.1314697 4.159874 -9.291321 9.29134 -9.291321l0 0c2.4642143 0 4.827503 0.97888184 6.5699654 2.7213745c1.742466 1.7424316 2.7213707 4.105713 2.7213707 6.5699463l0 0c0 5.1314697 -4.159874 9.291321 -9.291336 9.291321l0 0c-5.131466 0 -9.29134 -4.159851 -9.29134 -9.291321z" fill-rule="evenodd"/><path fill="#000000" fill-opacity="0.0" d="m188.69844 577.5404l0 -41.228333" fill-rule="evenodd"/><path stroke="#000000" stroke-width="1.0" stroke-linejoin="round" stroke-linecap="butt" d="m188.69844 577.5404l0 -41.228333" fill-rule="evenodd"/><path fill="#000000" fill-opacity="0.0" d="m49.363705 644.48694l0 -37.7323" fill-rule="evenodd"/><path stroke="#000000" stroke-width="1.0" stroke-linejoin="round" stroke-linecap="butt" d="m49.363705 644.48694l0 -37.7323" fill-rule="evenodd"/><path fill="#000000" fill-opacity="0.0" d="m55.933792 647.1977l66.67716 -53.795227" fill-rule="evenodd"/><path stroke="#000000" stroke-width="1.0" stroke-linejoin="round" stroke-linecap="butt" d="m55.933792 647.1977l66.67716 -53.795227" fill-rule="evenodd"/><path fill="#000000" fill-opacity="0.0" d="m0 242.0l304.0 0" fill-rule="evenodd"/><path stroke="#b7b7b7" stroke-width="1.0" stroke-linejoin="round" stroke-linecap="butt" d="m0 242.0l304.0 0" fill-rule="evenodd"/><path fill="#000000" fill-opacity="0.0" d="m0 498.0l304.0 0" fill-rule="evenodd"/><path stroke="#b7b7b7" stroke-width="1.0" stroke-linejoin="round" stroke-linecap="butt" d="m0 498.0l304.0 0" fill-rule="evenodd"/></g></svg>