<svg version="1.1" viewBox="0.0 0.0 845.0 517.0" fill="none" stroke="none" stroke-linecap="square" stroke-miterlimit="10" xmlns:xlink="http://www.w3.org/1999/xlink" xmlns="http://www.w3.org/2000/svg"><clipPath id="p.0"><path d="m0 0l845.0 0l0 517.0l-845.0 0l0 -517.0z" clip-rule="nonzero"/></clipPath><g clip-path="url(#p.0)"><path fill="#000000" fill-opacity="0.0" d="m0 0l845.0 0l0 517.0l-845.0 0z" fill-rule="evenodd"/><path fill="#cfe2f3" d="m145.97511 46.28918l0 0c0 -12.840515 10.409302 -23.249811 23.249817 -23.249811l104.42952 0c6.1662292 0 12.079895 2.4495277 16.440094 6.8097115c4.3601685 4.3601856 6.809723 10.273867 6.809723 16.4401l0 92.996445c0 12.840515 -10.409302 23.249802 -23.249817 23.249802l-104.42952 0c-12.840515 0 -23.249817 -10.4092865 -23.249817 -23.249802z" fill-rule="evenodd"/><path stroke="#000000" stroke-width="1.0" stroke-linejoin="round" stroke-linecap="butt" d="m145.97511 46.28918l0 0c0 -12.840515 10.409302 -23.249811 23.249817 -23.249811l104.42952 0c6.1662292 0 12.079895 2.4495277 16.440094 6.8097115c4.3601685 4.3601856 6.809723 10.273867 6.809723 16.4401l0 92.996445c0 12.840515 -10.409302 23.249802 -23.249817 23.249802l-104.42952 0c-12.840515 0 -23.249817 -10.4092865 -23.249817 -23.249802z" fill-rule="evenodd"/><path fill="#38761d" d="m178.40924 145.185l0 0c0 -3.8964386 3.1586761 -7.05513 7.0551147 -7.05513l0 0c1.8711395 0 3.6656342 0.74331665 4.9887238 2.0664062c1.3230896 1.3230896 2.066391 3.1175842 2.066391 4.9887238l0 0c0 3.8964233 -3.1586761 7.0551147 -7.0551147 7.0551147l0 0c-3.8964386 0 -7.0551147 -3.1586914 -7.0551147 -7.0551147z" fill-rule="evenodd"/><path stroke="#000000" stroke-width="1.0" stroke-linejoin="round" stroke-linecap="butt" d="m178.40924 145.185l0 0c0 -3.8964386 3.1586761 -7.05513 7.0551147 -7.05513l0 0c1.8711395 0 3.6656342 0.74331665 4.9887238 2.0664062c1.3230896 1.3230896 2.066391 3.1175842 2.066391 4.9887238l0 0c0 3.8964233 -3.1586761 7.0551147 -7.0551147 7.0551147l0 0c-3.8964386 0 -7.0551147 -3.1586914 -7.0551147 -7.0551147z" fill-rule="evenodd"/><path fill="#ff00ff" d="m178.4102 78.2529l0 0c0 -3.8964386 3.1586914 -7.0551224 7.0551147 -7.0551224l0 0c1.8711395 0 3.6656342 0.743309 4.9887238 2.0663986c1.3230896 1.3230896 2.0664062 3.1175842 2.0664062 4.9887238l0 0c0 3.896431 -3.1586914 7.0551147 -7.05513 7.0551147l0 0c-3.8964233 0 -7.0551147 -3.1586838 -7.0551147 -7.0551147z" fill-rule="evenodd"/><path stroke="#000000" stroke-width="1.0" stroke-linejoin="round" stroke-linecap="butt" d="m178.4102 78.2529l0 0c0 -3.8964386 3.1586914 -7.0551224 7.0551147 -7.0551224l0 0c1.8711395 0 3.6656342 0.743309 4.9887238 2.0663986c1.3230896 1.3230896 2.0664062 3.1175842 2.0664062 4.9887238l0 0c0 3.896431 -3.1586914 7.0551147 -7.05513 7.0551147l0 0c-3.8964233 0 -7.0551147 -3.1586838 -7.0551147 -7.0551147z" fill-rule="evenodd"/><path fill="#9900ff" d="m156.63597 40.938984l0 0c0 -3.896431 3.1586761 -7.0551147 7.0551147 -7.0551147l0 0c1.8711395 0 3.6656342 0.7433014 4.9887238 2.0663948c1.3230896 1.3230896 2.066391 3.117588 2.066391 4.98872l0 0c0 3.8964348 -3.1586761 7.0551186 -7.0551147 7.0551186l0 0c-3.8964386 0 -7.0551147 -3.1586838 -7.0551147 -7.0551186z" fill-rule="evenodd"/><path stroke="#000000" stroke-width="1.0" stroke-linejoin="round" stroke-linecap="butt" d="m156.63597 40.938984l0 0c0 -3.896431 3.1586761 -7.0551147 7.0551147 -7.0551147l0 0c1.8711395 0 3.6656342 0.7433014 4.9887238 2.0663948c1.3230896 1.3230896 2.066391 3.117588 2.066391 4.98872l0 0c0 3.8964348 -3.1586761 7.0551186 -7.0551147 7.0551186l0 0c-3.8964386 0 -7.0551147 -3.1586838 -7.0551147 -7.0551186z" fill-rule="evenodd"/><path fill="#0000ff" d="m20.087025 92.02685l0 0c0 -3.896431 3.1586857 -7.0551147 7.0551186 -7.0551147l0 0c1.8711338 0 3.6656303 0.7433014 4.9887238 2.066391c1.3230896 1.3230896 2.0663948 3.1175919 2.0663948 4.9887238l0 0c0 3.896431 -3.1586838 7.0551147 -7.0551186 7.0551147l0 0c-3.8964329 0 -7.0551186 -3.1586838 -7.0551186 -7.0551147z" fill-rule="evenodd"/><path stroke="#000000" stroke-width="1.0" stroke-linejoin="round" stroke-linecap="butt" d="m20.087025 92.02685l0 0c0 -3.896431 3.1586857 -7.0551147 7.0551186 -7.0551147l0 0c1.8711338 0 3.6656303 0.7433014 4.9887238 2.066391c1.3230896 1.3230896 2.0663948 3.1175919 2.0663948 4.9887238l0 0c0 3.896431 -3.1586838 7.0551147 -7.0551186 7.0551147l0 0c-3.8964329 0 -7.0551186 -3.1586838 -7.0551186 -7.0551147z" fill-rule="evenodd"/><path fill="#000000" fill-opacity="0.0" d="m180.47661 73.264175l-11.811035 -27.338585" fill-rule="evenodd"/><path stroke="#000000" stroke-width="1.0" stroke-linejoin="round" stroke-linecap="butt" d="m180.47661 73.264175l-11.811035 -27.338585" fill-rule="evenodd"/><path fill="#000000" fill-opacity="0.0" d="m185.46532 85.308014l0 52.818893" fill-rule="evenodd"/><path stroke="#000000" stroke-width="1.0" stroke-linejoin="round" stroke-linecap="butt" d="m185.46532 85.308014l0 52.818893" fill-rule="evenodd"/><path fill="#b45f06" d="m225.75813 98.50097l0 0c0 -3.896431 3.1586761 -7.0551147 7.0551147 -7.0551147l0 0c1.8711243 0 3.665619 0.7433014 4.9887238 2.0663986c1.3230896 1.3230896 2.066391 3.1175842 2.066391 4.988716l0 0c0 3.8964386 -3.1586914 7.0551224 -7.0551147 7.0551224l0 0c-3.8964386 0 -7.0551147 -3.1586838 -7.0551147 -7.0551224z" fill-rule="evenodd"/><path stroke="#000000" stroke-width="1.0" stroke-linejoin="round" stroke-linecap="butt" d="m225.75813 98.50097l0 0c0 -3.896431 3.1586761 -7.0551147 7.0551147 -7.0551147l0 0c1.8711243 0 3.665619 0.7433014 4.9887238 2.0663986c1.3230896 1.3230896 2.066391 3.1175842 2.066391 4.988716l0 0c0 3.8964386 -3.1586914 7.0551224 -7.0551147 7.0551224l0 0c-3.8964386 0 -7.0551147 -3.1586838 -7.0551147 -7.0551224z" fill-rule="evenodd"/><path fill="#a64d79" d="m268.1075 40.938984l0 0c0 -3.896431 3.1586914 -7.0551147 7.0551147 -7.0551147l0 0c1.8711243 0 3.6656494 0.7433014 4.988739 2.0663948c1.3230896 1.3230896 2.0663757 3.117588 2.0663757 4.98872l0 0c0 3.8964348 -3.1586914 7.0551186 -7.0551147 7.0551186l0 0c-3.8964233 0 -7.0551147 -3.1586838 -7.0551147 -7.0551186z" fill-rule="evenodd"/><path stroke="#000000" stroke-width="1.0" stroke-linejoin="round" stroke-linecap="butt" d="m268.1075 40.938984l0 0c0 -3.896431 3.1586914 -7.0551147 7.0551147 -7.0551147l0 0c1.8711243 0 3.6656494 0.7433014 4.988739 2.0663948c1.3230896 1.3230896 2.0663757 3.117588 2.0663757 4.98872l0 0c0 3.8964348 -3.1586914 7.0551186 -7.0551147 7.0551186l0 0c-3.8964233 0 -7.0551147 -3.1586838 -7.0551147 -7.0551186z" fill-rule="evenodd"/><path fill="#f6b26b" d="m83.0267 215.82465l0 0c0 -3.8964386 3.1586838 -7.0551147 7.0551147 -7.0551147l0 0c1.8711319 0 3.6656342 0.7433014 4.9887238 2.066391c1.3230896 1.3230896 2.0663986 3.1175842 2.0663986 4.9887238l0 0c0 3.8964386 -3.1586838 7.0551147 -7.0551224 7.0551147l0 0c-3.896431 0 -7.0551147 -3.1586761 -7.0551147 -7.0551147z" fill-rule="evenodd"/><path stroke="#000000" stroke-width="1.0" stroke-linejoin="round" stroke-linecap="butt" d="m83.0267 215.82465l0 0c0 -3.8964386 3.1586838 -7.0551147 7.0551147 -7.0551147l0 0c1.8711319 0 3.6656342 0.7433014 4.9887238 2.066391c1.3230896 1.3230896 2.0663986 3.1175842 2.0663986 4.9887238l0 0c0 3.8964386 -3.1586838 7.0551147 -7.0551224 7.0551147l0 0c-3.896431 0 -7.0551147 -3.1586761 -7.0551147 -7.0551147z" fill-rule="evenodd"/><path fill="#000000" fill-opacity="0.0" d="m190.45404 73.264175l79.71655 -27.338585" fill-rule="evenodd"/><path stroke="#000000" stroke-width="1.0" stroke-linejoin="round" stroke-linecap="butt" d="m190.45404 73.264175l79.71655 -27.338585" fill-rule="evenodd"/><path fill="#000000" fill-opacity="0.0" d="m168.67981 35.950264l99.433075 4.9763794" fill-rule="evenodd"/><path stroke="#000000" stroke-width="1.0" stroke-linejoin="round" stroke-linecap="butt" d="m168.67981 35.950264l99.433075 4.9763794" fill-rule="evenodd"/><path fill="#000000" fill-opacity="0.0" d="m192.52045 78.2529l33.228348 20.251968" fill-rule="evenodd"/><path stroke="#000000" stroke-width="1.0" stroke-linejoin="round" stroke-linecap="butt" d="m192.52045 78.2529l33.228348 20.251968" fill-rule="evenodd"/><path fill="#000000" fill-opacity="0.0" d="m190.45308 140.19627l42.362198 -34.645676" fill-rule="evenodd"/><path stroke="#000000" stroke-width="1.0" stroke-linejoin="round" stroke-linecap="butt" d="m190.45308 140.19627l42.362198 -34.645676" fill-rule="evenodd"/><path fill="#000000" fill-opacity="0.0" d="m27.142143 99.08196l62.92913 109.7008" fill-rule="evenodd"/><path stroke="#000000" stroke-width="1.0" stroke-linejoin="round" stroke-linecap="butt" d="m27.142143 99.08196l62.92913 109.7008" fill-rule="evenodd"/><path fill="#000000" fill-opacity="0.0" d="m214.67328 136.51077l51.77954 0l0 31.559052l-51.77954 0z" fill-rule="evenodd"/><path fill="#000000" d="m229.6264 159.59077l0 -1.109375q-0.890625 1.28125 -2.421875 1.28125q-0.671875 0 -1.25 -0.25q-0.578125 -0.265625 -0.875 -0.65625q-0.28125 -0.390625 -0.390625 -0.953125q-0.078125 -0.375 -0.078125 -1.203125l0 -4.703125l1.28125 0l0 4.203125q0 1.015625 0.078125 1.359375q0.125 0.515625 0.515625 0.8125q0.40625 0.28125 0.984375 0.28125q0.578125 0 1.078125 -0.296875q0.515625 -0.296875 0.71875 -0.8125q0.21875 -0.515625 0.21875 -1.484375l0 -4.0625l1.28125 0l0 7.59375l-1.140625 0zm9.572983 -1.234375l0 1.234375l-6.9375 0q-0.015625 -0.46875 0.15625 -0.890625q0.265625 -0.71875 0.84375 -1.40625q0.59375 -0.6875 1.6875 -1.578125q1.71875 -1.40625 2.3125 -2.21875q0.609375 -0.828125 0.609375 -1.5625q0 -0.765625 -0.5625 -1.28125q-0.546875 -0.53125 -1.421875 -0.53125q-0.921875 0 -1.484375 0.5625q-0.5625 0.5625 -0.5625 1.546875l-1.328125 -0.140625q0.140625 -1.484375 1.015625 -2.25q0.890625 -0.78125 2.390625 -0.78125q1.515625 0 2.390625 0.84375q0.875 0.828125 0.875 2.0625q0 0.640625 -0.265625 1.25q-0.25 0.59375 -0.84375 1.265625q-0.59375 0.671875 -1.984375 1.859375q-1.15625 0.96875 -1.484375 1.3125q-0.328125 0.34375 -0.546875 0.703125l5.140625 0z" fill-rule="nonzero"/><path fill="#000000" fill-opacity="0.0" d="m49.91276 201.77277l51.77953 0l0 31.559067l-51.77953 0z" fill-rule="evenodd"/><path fill="#000000" d="m65.08463 222.39964l1.328125 0.171875q-0.3125 1.171875 -1.171875 1.8125q-0.84375 0.640625 -2.1718712 0.640625q-1.671875 0 -2.65625 -1.015625q-0.96875 -1.03125 -0.96875 -2.890625q0 -1.921875 0.984375 -2.96875q1.0 -1.0625 2.578125 -1.0625q1.5156212 0 2.4843712 1.03125q0.96875 1.03125 0.96875 2.921875q0 0.109375 -0.015625 0.34375l-5.656246 0q0.0625 1.25 0.703125 1.921875q0.640625 0.65625 1.59375 0.65625q0.703125 0 1.2031212 -0.359375q0.5 -0.375 0.796875 -1.203125zm-4.234371 -2.078125l4.249996 0q-0.09375 -0.953125 -0.484375 -1.4375q-0.6249962 -0.75 -1.6093712 -0.75q-0.875 0 -1.484375 0.59375q-0.609375 0.59375 -0.671875 1.59375zm13.588604 3.296875l0 1.234375l-6.9375 0q-0.015625 -0.46875 0.15625 -0.890625q0.265625 -0.71875 0.84375 -1.40625q0.59375 -0.6875 1.6875 -1.578125q1.71875 -1.40625 2.3125 -2.21875q0.609375 -0.828125 0.609375 -1.5625q0 -0.765625 -0.5625 -1.28125q-0.546875 -0.53125 -1.421875 -0.53125q-0.921875 0 -1.484375 0.5625q-0.5625 0.5625 -0.5625 1.546875l-1.328125 -0.140625q0.140625 -1.484375 1.015625 -2.25q0.890625 -0.78125 2.390625 -0.78125q1.515625 0 2.390625 0.84375q0.875 0.828125 0.875 2.0625q0 0.640625 -0.265625 1.25q-0.25 0.59375 -0.84375 1.265625q-0.59375 0.671875 -1.984375 1.859375q-1.15625 0.96875 -1.484375 1.3125q-0.328125 0.34375 -0.546875 0.703125l5.140625 0z" fill-rule="nonzero"/><path fill="#000000" fill-opacity="0.0" d="m18.633566 53.04345l51.779526 0l0 31.559052l-51.779526 0z" fill-rule="evenodd"/><path fill="#000000" d="m33.80544 73.67033l1.328125 0.171875q-0.3125 1.171875 -1.171875 1.8125q-0.84375 0.640625 -2.171873 0.640625q-1.671875 0 -2.65625 -1.015625q-0.96875 -1.03125 -0.96875 -2.890625q0 -1.921875 0.984375 -2.96875q1.0 -1.0625 2.578125 -1.0625q1.5156231 0 2.484373 1.03125q0.96875 1.03125 0.96875 2.921875q0 0.109375 -0.015625 0.34375l-5.656248 0q0.0625 1.25 0.703125 1.921875q0.640625 0.65625 1.59375 0.65625q0.7031231 0 1.2031231 -0.359375q0.5 -0.375 0.796875 -1.203125zm-4.234373 -2.078125l4.249998 0q-0.09375 -0.953125 -0.484375 -1.4375q-0.625 -0.75 -1.6093731 -0.75q-0.875 0 -1.484375 0.59375q-0.609375 0.59375 -0.671875 1.59375zm11.666731 4.53125l-1.28125 0l0 -8.203125q-0.46875 0.4375 -1.21875 0.890625q-0.75 0.4375 -1.359375 0.65625l0 -1.25q1.078125 -0.5 1.890625 -1.21875q0.8125 -0.734375 1.140625 -1.40625l0.828125 0l0 10.53125z" fill-rule="nonzero"/><path fill="#cfe2f3" d="m640.4649 55.491245l0 0c0 -11.933067 9.673706 -21.606731 21.60675 -21.606731l97.07001 0c5.7304688 0 11.226196 2.2764168 15.278259 6.3284645c4.052063 4.0520477 6.328491 9.547806 6.328491 15.278267l0 86.42433c0 11.933075 -9.673706 21.606735 -21.60675 21.606735l-97.07001 0c-11.933044 0 -21.60675 -9.67366 -21.60675 -21.606735z" fill-rule="evenodd"/><path stroke="#000000" stroke-width="1.0" stroke-linejoin="round" stroke-linecap="butt" d="m640.4649 55.491245l0 0c0 -11.933067 9.673706 -21.606731 21.60675 -21.606731l97.07001 0c5.7304688 0 11.226196 2.2764168 15.278259 6.3284645c4.052063 4.0520477 6.328491 9.547806 6.328491 15.278267l0 86.42433c0 11.933075 -9.673706 21.606735 -21.60675 21.606735l-97.07001 0c-11.933044 0 -21.60675 -9.67366 -21.60675 -21.606735z" fill-rule="evenodd"/><path fill="#38761d" d="m670.60583 147.38971l0 0c0 -3.6181183 2.9330444 -6.551178 6.5511475 -6.551178l0 0c1.7374878 0 3.4038086 0.69021606 4.6323853 1.9187927c1.2285767 1.2285919 1.9188232 2.8948975 1.9188232 4.6323853l0 0c0 3.6181183 -2.9331055 6.551178 -6.5512085 6.551178l0 0c-3.618103 0 -6.5511475 -2.9330597 -6.5511475 -6.551178z" fill-rule="evenodd"/><path stroke="#000000" stroke-width="1.0" stroke-linejoin="round" stroke-linecap="butt" d="m670.60583 147.38971l0 0c0 -3.6181183 2.9330444 -6.551178 6.5511475 -6.551178l0 0c1.7374878 0 3.4038086 0.69021606 4.6323853 1.9187927c1.2285767 1.2285919 1.9188232 2.8948975 1.9188232 4.6323853l0 0c0 3.6181183 -2.9331055 6.551178 -6.5512085 6.551178l0 0c-3.618103 0 -6.5511475 -2.9330597 -6.5511475 -6.551178z" fill-rule="evenodd"/><path fill="#ff00ff" d="m670.6067 85.189476l0 0c0 -3.6181183 2.9331055 -6.551178 6.5512085 -6.551178l0 0c1.7374878 0 3.4038086 0.69020844 4.6323853 1.9187927c1.2285767 1.2285843 1.9187622 2.894905 1.9187622 4.6323853l0 0c0 3.6181183 -2.9330444 6.551178 -6.5511475 6.551178l0 0c-3.618103 0 -6.5512085 -2.9330597 -6.5512085 -6.551178z" fill-rule="evenodd"/><path stroke="#000000" stroke-width="1.0" stroke-linejoin="round" stroke-linecap="butt" d="m670.6067 85.189476l0 0c0 -3.6181183 2.9331055 -6.551178 6.5512085 -6.551178l0 0c1.7374878 0 3.4038086 0.69020844 4.6323853 1.9187927c1.2285767 1.2285843 1.9187622 2.894905 1.9187622 4.6323853l0 0c0 3.6181183 -2.9330444 6.551178 -6.5511475 6.551178l0 0c-3.618103 0 -6.5512085 -2.9330597 -6.5512085 -6.551178z" fill-rule="evenodd"/><path fill="#9900ff" d="m650.372 50.513527l0 0c0 -3.6181183 2.9330444 -6.551182 6.5512085 -6.551182l0 0c1.7374268 0 3.4037476 0.69021225 4.6323853 1.9187965c1.2285767 1.2285843 1.9187622 2.8949013 1.9187622 4.6323853l0 0c0 3.6181145 -2.9330444 6.551182 -6.5511475 6.551182l0 0c-3.618164 0 -6.5512085 -2.9330673 -6.5512085 -6.551182z" fill-rule="evenodd"/><path stroke="#000000" stroke-width="1.0" stroke-linejoin="round" stroke-linecap="butt" d="m650.372 50.513527l0 0c0 -3.6181183 2.9330444 -6.551182 6.5512085 -6.551182l0 0c1.7374268 0 3.4037476 0.69021225 4.6323853 1.9187965c1.2285767 1.2285843 1.9187622 2.8949013 1.9187622 4.6323853l0 0c0 3.6181145 -2.9330444 6.551182 -6.5511475 6.551182l0 0c-3.618164 0 -6.5512085 -2.9330673 -6.5512085 -6.551182z" fill-rule="evenodd"/><path fill="#0000ff" d="m523.47766 97.98966l0 0c0 -3.6181183 2.9331055 -6.5511856 6.5512085 -6.5511856l0 0c1.7374878 0 3.4038086 0.69021606 4.6323853 1.9188004c1.2285767 1.2285843 1.9187622 2.8948975 1.9187622 4.6323853l0 0c0 3.6181107 -2.9330444 6.551178 -6.5511475 6.551178l0 0c-3.618103 0 -6.5512085 -2.9330673 -6.5512085 -6.551178z" fill-rule="evenodd"/><path stroke="#000000" stroke-width="1.0" stroke-linejoin="round" stroke-linecap="butt" d="m523.47766 97.98966l0 0c0 -3.6181183 2.9331055 -6.5511856 6.5512085 -6.5511856l0 0c1.7374878 0 3.4038086 0.69021606 4.6323853 1.9188004c1.2285767 1.2285843 1.9187622 2.8948975 1.9187622 4.6323853l0 0c0 3.6181107 -2.9330444 6.551178 -6.5511475 6.551178l0 0c-3.618103 0 -6.5512085 -2.9330673 -6.5512085 -6.551178z" fill-rule="evenodd"/><path fill="#000000" fill-opacity="0.0" d="m672.5255 80.55709l-10.960632 -25.417324" fill-rule="evenodd"/><path stroke="#000000" stroke-width="1.0" stroke-linejoin="round" stroke-linecap="butt" d="m672.5255 80.55709l-10.960632 -25.417324" fill-rule="evenodd"/><path fill="#000000" fill-opacity="0.0" d="m677.1579 91.740654l0 49.102364" fill-rule="evenodd"/><path stroke="#000000" stroke-width="1.0" stroke-linejoin="round" stroke-linecap="butt" d="m677.1579 91.740654l0 49.102364" fill-rule="evenodd"/><path fill="#b45f06" d="m714.60693 104.00609l0 0c0 -3.6181183 2.9330444 -6.5511856 6.5511475 -6.5511856l0 0c1.7374878 0 3.4038086 0.69021606 4.6323853 1.9188004c1.2285767 1.2285843 1.9188232 2.894905 1.9188232 4.6323853l0 0c0 3.6181183 -2.9330444 6.551178 -6.5512085 6.551178l0 0c-3.618103 0 -6.5511475 -2.9330597 -6.5511475 -6.551178z" fill-rule="evenodd"/><path stroke="#000000" stroke-width="1.0" stroke-linejoin="round" stroke-linecap="butt" d="m714.60693 104.00609l0 0c0 -3.6181183 2.9330444 -6.5511856 6.5511475 -6.5511856l0 0c1.7374878 0 3.4038086 0.69021606 4.6323853 1.9188004c1.2285767 1.2285843 1.9188232 2.894905 1.9188232 4.6323853l0 0c0 3.6181183 -2.9330444 6.551178 -6.5512085 6.551178l0 0c-3.618103 0 -6.5511475 -2.9330597 -6.5511475 -6.551178z" fill-rule="evenodd"/><path fill="#a64d79" d="m753.96204 50.513527l0 0c0 -3.6181183 2.9330444 -6.551182 6.5511475 -6.551182l0 0c1.7374878 0 3.4038086 0.69021225 4.6323853 1.9187965c1.2285767 1.2285843 1.9188232 2.8949013 1.9188232 4.6323853l0 0c0 3.6181145 -2.9331055 6.551182 -6.5512085 6.551182l0 0c-3.618103 0 -6.5511475 -2.9330673 -6.5511475 -6.551182z" fill-rule="evenodd"/><path stroke="#000000" stroke-width="1.0" stroke-linejoin="round" stroke-linecap="butt" d="m753.96204 50.513527l0 0c0 -3.6181183 2.9330444 -6.551182 6.5511475 -6.551182l0 0c1.7374878 0 3.4038086 0.69021225 4.6323853 1.9187965c1.2285767 1.2285843 1.9188232 2.8949013 1.9188232 4.6323853l0 0c0 3.6181145 -2.9331055 6.551182 -6.5512085 6.551182l0 0c-3.618103 0 -6.5511475 -2.9330673 -6.5511475 -6.551182z" fill-rule="evenodd"/><path fill="#f6b26b" d="m581.9672 213.0354l0 0c0 -3.6181183 2.9331055 -6.551193 6.5512085 -6.551193l0 0c1.7374878 0 3.4038086 0.69021606 4.6323853 1.918808c1.2285767 1.2285767 1.9187622 2.8948975 1.9187622 4.6323853l0 0c0 3.6181183 -2.9330444 6.551178 -6.5511475 6.551178l0 0c-3.618103 0 -6.5512085 -2.9330597 -6.5512085 -6.551178z" fill-rule="evenodd"/><path stroke="#000000" stroke-width="1.0" stroke-linejoin="round" stroke-linecap="butt" d="m581.9672 213.0354l0 0c0 -3.6181183 2.9331055 -6.551193 6.5512085 -6.551193l0 0c1.7374878 0 3.4038086 0.69021606 4.6323853 1.918808c1.2285767 1.2285767 1.9187622 2.8948975 1.9187622 4.6323853l0 0c0 3.6181183 -2.9330444 6.551178 -6.5511475 6.551178l0 0c-3.618103 0 -6.5512085 -2.9330597 -6.5512085 -6.551178z" fill-rule="evenodd"/><path fill="#000000" fill-opacity="0.0" d="m681.7903 80.55709l74.078735 -25.417324" fill-rule="evenodd"/><path stroke="#000000" stroke-width="1.0" stroke-linejoin="round" stroke-linecap="butt" d="m681.7903 80.55709l74.078735 -25.417324" fill-rule="evenodd"/><path fill="#000000" fill-opacity="0.0" d="m661.5556 45.88114l92.409424 4.629921" fill-rule="evenodd"/><path stroke="#000000" stroke-width="1.0" stroke-linejoin="round" stroke-linecap="butt" d="m661.5556 45.88114l92.409424 4.629921" fill-rule="evenodd"/><path fill="#000000" fill-opacity="0.0" d="m683.70905 85.189476l30.897644 18.803146" fill-rule="evenodd"/><path stroke="#000000" stroke-width="1.0" stroke-linejoin="round" stroke-linecap="butt" d="m683.70905 85.189476l30.897644 18.803146" fill-rule="evenodd"/><path fill="#000000" fill-opacity="0.0" d="m681.78937 142.75732l39.370056 -32.188972" fill-rule="evenodd"/><path stroke="#000000" stroke-width="1.0" stroke-linejoin="round" stroke-linecap="butt" d="m681.78937 142.75732l39.370056 -32.188972" fill-rule="evenodd"/><path fill="#000000" fill-opacity="0.0" d="m530.0289 104.54084l58.48816 101.95275" fill-rule="evenodd"/><path stroke="#000000" stroke-width="1.0" stroke-linejoin="round" stroke-linecap="butt" d="m530.0289 104.54084l58.48816 101.95275" fill-rule="evenodd"/><path fill="#000000" fill-opacity="0.0" d="m572.40894 213.03775l0 0c0 -8.897446 7.2128296 -16.11023 16.11023 -16.11023l0 0c4.272705 0 8.370422 1.6973114 11.391663 4.718567c3.0213013 3.0212555 4.718567 7.1189575 4.718567 11.391663l0 0c0 8.89743 -7.2127686 16.11023 -16.11023 16.11023l0 0c-8.8974 0 -16.11023 -7.212799 -16.11023 -16.11023z" fill-rule="evenodd"/><path stroke="#ff0000" stroke-width="1.0" stroke-linejoin="round" stroke-linecap="butt" stroke-dasharray="1.0,3.0" d="m572.40894 213.03775l0 0c0 -8.897446 7.2128296 -16.11023 16.11023 -16.11023l0 0c4.272705 0 8.370422 1.6973114 11.391663 4.718567c3.0213013 3.0212555 4.718567 7.1189575 4.718567 11.391663l0 0c0 8.89743 -7.2127686 16.11023 -16.11023 16.11023l0 0c-8.8974 0 -16.11023 -7.212799 -16.11023 -16.11023z" fill-rule="evenodd"/><path fill="#000000" fill-opacity="0.0" d="m712.5091 166.0836l-117.44879 44.88188" fill-rule="evenodd"/><path stroke="#000000" stroke-width="1.0" stroke-linejoin="round" stroke-linecap="butt" stroke-dasharray="4.0,3.0" d="m712.5091 166.0836l-117.44879 44.88188" fill-rule="evenodd"/><path fill="#000000" fill-opacity="0.0" d="m627.5402 190.25519l26.330688 0l0 29.32283l-26.330688 0z" fill-rule="evenodd"/><path fill="#000000" d="m640.2277 211.78706q0 -0.28125 0 -0.421875q0 -0.828125 0.234375 -1.421875q0.171875 -0.453125 0.546875 -0.921875q0.28125 -0.328125 1.015625 -0.96875q0.734375 -0.65625 0.953125 -1.03125q0.21875 -0.390625 0.21875 -0.84375q0 -0.8125 -0.640625 -1.4375q-0.640625 -0.625 -1.578125 -0.625q-0.890625 0 -1.5 0.5625q-0.59375 0.5625 -0.78125 1.765625l-1.453125 -0.171875q0.203125 -1.609375 1.15625 -2.453125q0.96875 -0.859375 2.5625 -0.859375q1.671875 0 2.671875 0.921875q1.0 0.90625 1.0 2.203125q0 0.75 -0.359375 1.390625q-0.34375 0.625 -1.359375 1.53125q-0.6875 0.609375 -0.90625 0.90625q-0.203125 0.28125 -0.3125 0.65625q-0.09375 0.375 -0.109375 1.21875l-1.359375 0zm-0.078125 2.828125l0 -1.609375l1.59375 0l0 1.609375l-1.59375 0z" fill-rule="nonzero"/><path fill="#000000" fill-opacity="0.0" d="m706.48706 133.89998l48.125977 0l0 29.322845l-48.125977 0z" fill-rule="evenodd"/><path fill="#000000" d="m721.4402 156.97998l0 -1.109375q-0.890625 1.28125 -2.421875 1.28125q-0.671875 0 -1.25 -0.25q-0.578125 -0.265625 -0.875 -0.65625q-0.28125 -0.390625 -0.390625 -0.953125q-0.078125 -0.375 -0.078125 -1.203125l0 -4.703125l1.28125 0l0 4.203125q0 1.015625 0.078125 1.359375q0.125 0.515625 0.515625 0.8125q0.40625 0.28125 0.984375 0.28125q0.578125 0 1.078125 -0.296875q0.515625 -0.296875 0.71875 -0.8125q0.21875 -0.515625 0.21875 -1.484375l0 -4.0625l1.28125 0l0 7.59375l-1.140625 0zm9.572998 -1.234375l0 1.234375l-6.9375 0q-0.015625 -0.46875 0.15625 -0.890625q0.265625 -0.71875 0.84375 -1.40625q0.59375 -0.6875 1.6875 -1.578125q1.71875 -1.40625 2.3125 -2.21875q0.609375 -0.828125 0.609375 -1.5625q0 -0.765625 -0.5625 -1.28125q-0.546875 -0.53125 -1.421875 -0.53125q-0.921875 0 -1.484375 0.5625q-0.5625 0.5625 -0.5625 1.546875l-1.328125 -0.140625q0.140625 -1.484375 1.015625 -2.25q0.890625 -0.78125 2.390625 -0.78125q1.515625 0 2.390625 0.84375q0.875 0.828125 0.875 2.0625q0 0.640625 -0.265625 1.25q-0.25 0.59375 -0.84375 1.265625q-0.59375 0.671875 -1.984375 1.859375q-1.15625 0.96875 -1.484375 1.3125q-0.328125 0.34375 -0.546875 0.703125l5.140625 0z" fill-rule="nonzero"/><path fill="#000000" fill-opacity="0.0" d="m526.1768 50.15601l48.125977 0l0 29.322834l-48.125977 0z" fill-rule="evenodd"/><path fill="#000000" d="m541.3487 70.78288l1.328125 0.171875q-0.3125 1.171875 -1.171875 1.8125q-0.84375 0.640625 -2.171875 0.640625q-1.671875 0 -2.65625 -1.015625q-0.96875 -1.03125 -0.96875 -2.890625q0 -1.921875 0.984375 -2.96875q1.0 -1.0625 2.578125 -1.0625q1.515625 0 2.484375 1.03125q0.96875 1.03125 0.96875 2.921875q0 0.109375 -0.015625 0.34375l-5.65625 0q0.0625 1.25 0.703125 1.921875q0.640625 0.65625 1.59375 0.65625q0.703125 0 1.203125 -0.359375q0.5 -0.375 0.796875 -1.203125zm-4.234375 -2.078125l4.25 0q-0.09375 -0.953125 -0.484375 -1.4375q-0.625 -0.75 -1.609375 -0.75q-0.875 0 -1.484375 0.59375q-0.609375 0.59375 -0.671875 1.59375zm11.666748 4.53125l-1.28125 0l0 -8.203125q-0.46875 0.4375 -1.21875 0.890625q-0.75 0.4375 -1.359375 0.65625l0 -1.25q1.078125 -0.5 1.890625 -1.21875q0.8125 -0.7343712 1.140625 -1.4062462l0.828125 0l0 10.531246z" fill-rule="nonzero"/><path fill="#000000" fill-opacity="0.0" d="m546.91724 196.00793l48.125977 0l0 29.32283l-48.125977 0z" fill-rule="evenodd"/><path fill="#000000" d="m562.0891 216.6348l1.328125 0.171875q-0.3125 1.171875 -1.171875 1.8125q-0.84375 0.640625 -2.171875 0.640625q-1.671875 0 -2.65625 -1.015625q-0.96875 -1.03125 -0.96875 -2.890625q0 -1.921875 0.984375 -2.96875q1.0 -1.0625 2.578125 -1.0625q1.515625 0 2.484375 1.03125q0.96875 1.03125 0.96875 2.921875q0 0.109375 -0.015625 0.34375l-5.65625 0q0.0625 1.25 0.703125 1.921875q0.640625 0.65625 1.59375 0.65625q0.703125 0 1.203125 -0.359375q0.5 -0.375 0.796875 -1.203125zm-4.234375 -2.078125l4.25 0q-0.09375 -0.953125 -0.484375 -1.4375q-0.625 -0.75 -1.609375 -0.75q-0.875 0 -1.484375 0.59375q-0.609375 0.59375 -0.671875 1.59375zm13.588562 3.296875l0 1.234375l-6.9375 0q-0.015625 -0.46875 0.15625 -0.890625q0.265625 -0.71875 0.84375 -1.40625q0.59375 -0.6875 1.6875 -1.578125q1.71875 -1.40625 2.3125 -2.21875q0.609375 -0.828125 0.609375 -1.5625q0 -0.765625 -0.5625 -1.28125q-0.546875 -0.53125 -1.421875 -0.53125q-0.921875 0 -1.484375 0.5625q-0.5625 0.5625 -0.5625 1.546875l-1.328125 -0.140625q0.140625 -1.484375 1.015625 -2.25q0.890625 -0.78125 2.390625 -0.78125q1.515625 0 2.390625 0.84375q0.875 0.828125 0.875 2.0625q0 0.640625 -0.265625 1.25q-0.25 0.59375 -0.84375 1.265625q-0.59375 0.671875 -1.984375 1.859375q-1.15625 0.96875 -1.484375 1.3125q-0.328125 0.34375 -0.546875 0.703125l5.140625 0z" fill-rule="nonzero"/><path fill="#cfe2f3" d="m632.82623 306.843l0 0c0 -11.892487 9.640747 -21.533234 21.533264 -21.533234l96.74457 0c5.7109375 0 11.187988 2.2686462 15.226257 6.3069153c4.038269 4.038269 6.306946 9.51535 6.306946 15.226318l0 86.13037c0 11.892487 -9.640747 21.533234 -21.533203 21.533234l-96.74457 0c-11.892517 0 -21.533264 -9.640747 -21.533264 -21.533234z" fill-rule="evenodd"/><path stroke="#000000" stroke-width="1.0" stroke-linejoin="round" stroke-linecap="butt" d="m632.82623 306.843l0 0c0 -11.892487 9.640747 -21.533234 21.533264 -21.533234l96.74457 0c5.7109375 0 11.187988 2.2686462 15.226257 6.3069153c4.038269 4.038269 6.306946 9.51535 6.306946 15.226318l0 86.13037c0 11.892487 -9.640747 21.533234 -21.533203 21.533234l-96.74457 0c-11.892517 0 -21.533264 -9.640747 -21.533264 -21.533234z" fill-rule="evenodd"/><path fill="#38761d" d="m662.8675 398.42862l0 0c0 -3.600708 2.9189453 -6.519684 6.5197144 -6.519684l0 0c1.729126 0 3.3873901 0.68688965 4.6101074 1.9095764c1.2226562 1.2226868 1.9095459 2.8809814 1.9095459 4.6101074l0 0c0 3.6007385 -2.9189453 6.519684 -6.5196533 6.519684l0 0c-3.600769 0 -6.5197144 -2.9189453 -6.5197144 -6.519684z" fill-rule="evenodd"/><path stroke="#000000" stroke-width="1.0" stroke-linejoin="round" stroke-linecap="butt" d="m662.8675 398.42862l0 0c0 -3.600708 2.9189453 -6.519684 6.5197144 -6.519684l0 0c1.729126 0 3.3873901 0.68688965 4.6101074 1.9095764c1.2226562 1.2226868 1.9095459 2.8809814 1.9095459 4.6101074l0 0c0 3.6007385 -2.9189453 6.519684 -6.5196533 6.519684l0 0c-3.600769 0 -6.5197144 -2.9189453 -6.5197144 -6.519684z" fill-rule="evenodd"/><path fill="#ff00ff" d="m662.8684 336.43475l0 0c0 -3.6007385 2.9189453 -6.5197144 6.5196533 -6.5197144l0 0c1.729126 0 3.3874512 0.68692017 4.6101074 1.9095764c1.2227173 1.2226868 1.9096069 2.8809814 1.9096069 4.610138l0 0c0 3.600708 -2.9189453 6.519684 -6.5197144 6.519684l0 0c-3.600708 0 -6.5196533 -2.9189758 -6.5196533 -6.519684z" fill-rule="evenodd"/><path stroke="#000000" stroke-width="1.0" stroke-linejoin="round" stroke-linecap="butt" d="m662.8684 336.43475l0 0c0 -3.6007385 2.9189453 -6.5197144 6.5196533 -6.5197144l0 0c1.729126 0 3.3874512 0.68692017 4.6101074 1.9095764c1.2227173 1.2226868 1.9096069 2.8809814 1.9096069 4.610138l0 0c0 3.600708 -2.9189453 6.519684 -6.5197144 6.519684l0 0c-3.600708 0 -6.5196533 -2.9189758 -6.5196533 -6.519684z" fill-rule="evenodd"/><path fill="#9900ff" d="m642.70056 301.8738l0 0c0 -3.600708 2.9190063 -6.519684 6.5197144 -6.519684l0 0c1.729126 0 3.3874512 0.68688965 4.6101074 1.9095764c1.2226562 1.2226868 1.9095459 2.8809814 1.9095459 4.6101074l0 0c0 3.6007385 -2.9189453 6.519684 -6.5196533 6.519684l0 0c-3.600708 0 -6.5197144 -2.9189453 -6.5197144 -6.519684z" fill-rule="evenodd"/><path stroke="#000000" stroke-width="1.0" stroke-linejoin="round" stroke-linecap="butt" d="m642.70056 301.8738l0 0c0 -3.600708 2.9190063 -6.519684 6.5197144 -6.519684l0 0c1.729126 0 3.3874512 0.68688965 4.6101074 1.9095764c1.2226562 1.2226868 1.9095459 2.8809814 1.9095459 4.6101074l0 0c0 3.6007385 -2.9189453 6.519684 -6.5196533 6.519684l0 0c-3.600708 0 -6.5197144 -2.9189453 -6.5197144 -6.519684z" fill-rule="evenodd"/><path fill="#0000ff" d="m516.2257 349.19244l0 0c0 -3.600708 2.9189453 -6.519684 6.5197144 -6.519684l0 0c1.729126 0 3.3873901 0.68692017 4.6101074 1.9095764c1.2226562 1.2226868 1.9095459 2.8809814 1.9095459 4.6101074l0 0c0 3.6007385 -2.9189453 6.519684 -6.5196533 6.519684l0 0c-3.600769 0 -6.5197144 -2.9189453 -6.5197144 -6.519684z" fill-rule="evenodd"/><path stroke="#000000" stroke-width="1.0" stroke-linejoin="round" stroke-linecap="butt" d="m516.2257 349.19244l0 0c0 -3.600708 2.9189453 -6.519684 6.5197144 -6.519684l0 0c1.729126 0 3.3873901 0.68692017 4.6101074 1.9095764c1.2226562 1.2226868 1.9095459 2.8809814 1.9095459 4.6101074l0 0c0 3.6007385 -2.9189453 6.519684 -6.5196533 6.519684l0 0c-3.600769 0 -6.5197144 -2.9189453 -6.5197144 -6.519684z" fill-rule="evenodd"/><path fill="#000000" fill-opacity="0.0" d="m664.77795 331.82462l-10.960632 -25.35431" fill-rule="evenodd"/><path stroke="#000000" stroke-width="1.0" stroke-linejoin="round" stroke-linecap="butt" d="m664.77795 331.82462l-10.960632 -25.35431" fill-rule="evenodd"/><path fill="#000000" fill-opacity="0.0" d="m669.38806 342.95444l0 48.944855" fill-rule="evenodd"/><path stroke="#000000" stroke-width="1.0" stroke-linejoin="round" stroke-linecap="butt" d="m669.38806 342.95444l0 48.944855" fill-rule="evenodd"/><path fill="#b45f06" d="m706.72314 355.18893l0 0c0 -3.6007385 2.9190063 -6.519684 6.5197144 -6.519684l0 0c1.729126 0 3.3874512 0.68688965 4.6101074 1.9095764c1.2226562 1.2226562 1.9095459 2.8809814 1.9095459 4.6101074l0 0c0 3.600708 -2.9189453 6.519684 -6.5196533 6.519684l0 0c-3.600708 0 -6.5197144 -2.9189758 -6.5197144 -6.519684z" fill-rule="evenodd"/><path stroke="#000000" stroke-width="1.0" stroke-linejoin="round" stroke-linecap="butt" d="m706.72314 355.18893l0 0c0 -3.6007385 2.9190063 -6.519684 6.5197144 -6.519684l0 0c1.729126 0 3.3874512 0.68688965 4.6101074 1.9095764c1.2226562 1.2226562 1.9095459 2.8809814 1.9095459 4.6101074l0 0c0 3.600708 -2.9189453 6.519684 -6.5196533 6.519684l0 0c-3.600708 0 -6.5197144 -2.9189758 -6.5197144 -6.519684z" fill-rule="evenodd"/><path fill="#a64d79" d="m745.9482 301.8738l0 0c0 -3.600708 2.9189453 -6.519684 6.5196533 -6.519684l0 0c1.729126 0 3.3874512 0.68688965 4.6101074 1.9095764c1.2227173 1.2226868 1.9096069 2.8809814 1.9096069 4.6101074l0 0c0 3.6007385 -2.9189453 6.519684 -6.5197144 6.519684l0 0c-3.600708 0 -6.5196533 -2.9189453 -6.5196533 -6.519684z" fill-rule="evenodd"/><path stroke="#000000" stroke-width="1.0" stroke-linejoin="round" stroke-linecap="butt" d="m745.9482 301.8738l0 0c0 -3.600708 2.9189453 -6.519684 6.5196533 -6.519684l0 0c1.729126 0 3.3874512 0.68688965 4.6101074 1.9095764c1.2227173 1.2226868 1.9096069 2.8809814 1.9096069 4.6101074l0 0c0 3.6007385 -2.9189453 6.519684 -6.5197144 6.519684l0 0c-3.600708 0 -6.5196533 -2.9189453 -6.5196533 -6.519684z" fill-rule="evenodd"/><path fill="#f6b26b" d="m574.5219 463.85654l0 0c0 -3.600708 2.9190063 -6.519684 6.5197144 -6.519684l0 0c1.729126 0 3.3874512 0.68688965 4.6101074 1.9095764c1.2226562 1.2226868 1.9095459 2.8809814 1.9095459 4.6101074l0 0c0 3.6007385 -2.9189453 6.519684 -6.5196533 6.519684l0 0c-3.600708 0 -6.5197144 -2.9189453 -6.5197144 -6.519684z" fill-rule="evenodd"/><path stroke="#000000" stroke-width="1.0" stroke-linejoin="round" stroke-linecap="butt" d="m574.5219 463.85654l0 0c0 -3.600708 2.9190063 -6.519684 6.5197144 -6.519684l0 0c1.729126 0 3.3874512 0.68688965 4.6101074 1.9095764c1.2226562 1.2226868 1.9095459 2.8809814 1.9095459 4.6101074l0 0c0 3.6007385 -2.9189453 6.519684 -6.5196533 6.519684l0 0c-3.600708 0 -6.5197144 -2.9189453 -6.5197144 -6.519684z" fill-rule="evenodd"/><path fill="#000000" fill-opacity="0.0" d="m673.99817 331.82462l73.85828 -25.35431" fill-rule="evenodd"/><path stroke="#000000" stroke-width="1.0" stroke-linejoin="round" stroke-linecap="butt" d="m673.99817 331.82462l73.85828 -25.35431" fill-rule="evenodd"/><path fill="#000000" fill-opacity="0.0" d="m653.8304 297.2637l92.12598 4.598419" fill-rule="evenodd"/><path stroke="#000000" stroke-width="1.0" stroke-linejoin="round" stroke-linecap="butt" d="m653.8304 297.2637l92.12598 4.598419" fill-rule="evenodd"/><path fill="#000000" fill-opacity="0.0" d="m675.9078 336.43475l30.803162 18.740143" fill-rule="evenodd"/><path stroke="#000000" stroke-width="1.0" stroke-linejoin="round" stroke-linecap="butt" d="m675.9078 336.43475l30.803162 18.740143" fill-rule="evenodd"/><path fill="#000000" fill-opacity="0.0" d="m673.9973 393.8185l39.24408 -32.094482" fill-rule="evenodd"/><path stroke="#000000" stroke-width="1.0" stroke-linejoin="round" stroke-linecap="butt" d="m673.9973 393.8185l39.24408 -32.094482" fill-rule="evenodd"/><path fill="#000000" fill-opacity="0.0" d="m529.2651 349.19244l103.55908 0.72442627" fill-rule="evenodd"/><path stroke="#000000" stroke-width="1.0" stroke-linejoin="round" stroke-linecap="butt" d="m529.2651 349.19244l103.55908 0.72442627" fill-rule="evenodd"/><path fill="#000000" fill-opacity="0.0" d="m564.99524 463.87485l0 0c0 -8.871338 7.1916504 -16.062988 16.062988 -16.062988l0 0c4.260193 0 8.345886 1.6923523 11.358276 4.7047424c3.0123901 3.0123901 4.704712 7.0980835 4.704712 11.358246l0 0c0 8.871338 -7.1916504 16.062988 -16.062988 16.062988l0 0c-8.871338 0 -16.062988 -7.1916504 -16.062988 -16.062988z" fill-rule="evenodd"/><path stroke="#ff0000" stroke-width="1.0" stroke-linejoin="round" stroke-linecap="butt" stroke-dasharray="1.0,3.0" d="m564.99524 463.87485l0 0c0 -8.871338 7.1916504 -16.062988 16.062988 -16.062988l0 0c4.260193 0 8.345886 1.6923523 11.358276 4.7047424c3.0123901 3.0123901 4.704712 7.0980835 4.704712 11.358246l0 0c0 8.871338 -7.1916504 16.062988 -16.062988 16.062988l0 0c-8.871338 0 -16.062988 -7.1916504 -16.062988 -16.062988z" fill-rule="evenodd"/><path fill="#000000" fill-opacity="0.0" d="m702.73175 414.5066l-117.07086 44.724396" fill-rule="evenodd"/><path stroke="#000000" stroke-width="1.0" stroke-linejoin="round" stroke-linecap="butt" stroke-dasharray="4.0,3.0" d="m702.73175 414.5066l-117.07086 44.724396" fill-rule="evenodd"/><path fill="#000000" fill-opacity="0.0" d="m616.3596 435.64453l26.236206 0l0 29.228333l-26.236206 0z" fill-rule="evenodd"/><path fill="#000000" d="m629.6565 459.28326q0 -0.328125 0 -0.5q0 -0.96875 0.265625 -1.671875q0.203125 -0.515625 0.640625 -1.0625q0.328125 -0.390625 1.171875 -1.140625q0.859375 -0.75 1.109375 -1.1875q0.265625 -0.453125 0.265625 -0.984375q0 -0.953125 -0.75 -1.671875q-0.734375 -0.734375 -1.828125 -0.734375q-1.046875 0 -1.75 0.65625q-0.703125 0.65625 -0.921875 2.046875l-1.6875 -0.203125q0.234375 -1.859375 1.359375 -2.84375q1.125 -1.0 2.96875 -1.0q1.96875 0 3.125 1.0625q1.171875 1.0625 1.171875 2.578125q0 0.875 -0.40625 1.609375q-0.40625 0.734375 -1.609375 1.796875q-0.796875 0.703125 -1.046875 1.046875q-0.25 0.34375 -0.375 0.78125q-0.109375 0.4375 -0.125 1.421875l-1.578125 0zm-0.09375 3.28125l0 -1.875l1.859375 0l0 1.875l-1.859375 0z" fill-rule="nonzero"/><path fill="#cfe2f3" d="m154.77827 320.51367l0 0c0 -12.840515 10.4092865 -23.249786 23.249802 -23.249786l104.429504 0c6.1662292 0 12.079926 2.449524 16.440094 6.8096924c4.360199 4.360199 6.809723 10.273865 6.809723 16.440094l0 92.99646c0 12.840515 -10.409302 23.249817 -23.249817 23.249817l-104.429504 0c-12.840515 0 -23.249802 -10.409302 -23.249802 -23.249817z" fill-rule="evenodd"/><path stroke="#000000" stroke-width="1.0" stroke-linejoin="round" stroke-linecap="butt" d="m154.77827 320.51367l0 0c0 -12.840515 10.4092865 -23.249786 23.249802 -23.249786l104.429504 0c6.1662292 0 12.079926 2.449524 16.440094 6.8096924c4.360199 4.360199 6.809723 10.273865 6.809723 16.440094l0 92.99646c0 12.840515 -10.409302 23.249817 -23.249817 23.249817l-104.429504 0c-12.840515 0 -23.249802 -10.409302 -23.249802 -23.249817z" fill-rule="evenodd"/><path fill="#38761d" d="m187.21239 419.4095l0 0c0 -3.8964233 3.1586761 -7.0551147 7.0551147 -7.0551147l0 0c1.8711395 0 3.6656342 0.74331665 4.9887238 2.0664062c1.3230896 1.3230896 2.066391 3.1175842 2.066391 4.9887085l0 0c0 3.8964539 -3.1586761 7.0551147 -7.0551147 7.0551147l0 0c-3.8964386 0 -7.0551147 -3.158661 -7.0551147 -7.0551147z" fill-rule="evenodd"/><path stroke="#000000" stroke-width="1.0" stroke-linejoin="round" stroke-linecap="butt" d="m187.21239 419.4095l0 0c0 -3.8964233 3.1586761 -7.0551147 7.0551147 -7.0551147l0 0c1.8711395 0 3.6656342 0.74331665 4.9887238 2.0664062c1.3230896 1.3230896 2.066391 3.1175842 2.066391 4.9887085l0 0c0 3.8964539 -3.1586761 7.0551147 -7.0551147 7.0551147l0 0c-3.8964386 0 -7.0551147 -3.158661 -7.0551147 -7.0551147z" fill-rule="evenodd"/><path fill="#ff00ff" d="m187.21335 352.4774l0 0c0 -3.8964233 3.1586914 -7.0551147 7.05513 -7.0551147l0 0c1.8711243 0 3.665619 0.74331665 4.9887085 2.0664062c1.3231049 1.3230896 2.0664062 3.1175842 2.0664062 4.9887085l0 0c0 3.8964539 -3.1586914 7.0551453 -7.0551147 7.0551453l0 0c-3.8964386 0 -7.05513 -3.1586914 -7.05513 -7.0551453z" fill-rule="evenodd"/><path stroke="#000000" stroke-width="1.0" stroke-linejoin="round" stroke-linecap="butt" d="m187.21335 352.4774l0 0c0 -3.8964233 3.1586914 -7.0551147 7.05513 -7.0551147l0 0c1.8711243 0 3.665619 0.74331665 4.9887085 2.0664062c1.3231049 1.3230896 2.0664062 3.1175842 2.0664062 4.9887085l0 0c0 3.8964539 -3.1586914 7.0551453 -7.0551147 7.0551453l0 0c-3.8964386 0 -7.05513 -3.1586914 -7.05513 -7.0551453z" fill-rule="evenodd"/><path fill="#9900ff" d="m165.43912 315.16348l0 0c0 -3.8964233 3.1586914 -7.0551147 7.0551147 -7.0551147l0 0c1.8711395 0 3.6656342 0.74331665 4.9887238 2.0664062c1.3230896 1.3230896 2.0664062 3.1175842 2.0664062 4.9887085l0 0c0 3.8964539 -3.1586914 7.0551147 -7.05513 7.0551147l0 0c-3.8964233 0 -7.0551147 -3.158661 -7.0551147 -7.0551147z" fill-rule="evenodd"/><path stroke="#000000" stroke-width="1.0" stroke-linejoin="round" stroke-linecap="butt" d="m165.43912 315.16348l0 0c0 -3.8964233 3.1586914 -7.0551147 7.0551147 -7.0551147l0 0c1.8711395 0 3.6656342 0.74331665 4.9887238 2.0664062c1.3230896 1.3230896 2.0664062 3.1175842 2.0664062 4.9887085l0 0c0 3.8964539 -3.1586914 7.0551147 -7.05513 7.0551147l0 0c-3.8964233 0 -7.0551147 -3.158661 -7.0551147 -7.0551147z" fill-rule="evenodd"/><path fill="#0000ff" d="m28.890175 366.25134l0 0c0 -3.8964233 3.1586838 -7.0551147 7.0551186 -7.0551147l0 0c1.8711319 0 3.6656303 0.74331665 4.98872 2.0664062c1.3230934 1.3230896 2.0663986 3.1175842 2.0663986 4.9887085l0 0c0 3.8964539 -3.1586838 7.0551147 -7.0551186 7.0551147l0 0c-3.8964348 0 -7.0551186 -3.158661 -7.0551186 -7.0551147z" fill-rule="evenodd"/><path stroke="#000000" stroke-width="1.0" stroke-linejoin="round" stroke-linecap="butt" d="m28.890175 366.25134l0 0c0 -3.8964233 3.1586838 -7.0551147 7.0551186 -7.0551147l0 0c1.8711319 0 3.6656303 0.74331665 4.98872 2.0664062c1.3230934 1.3230896 2.0663986 3.1175842 2.0663986 4.9887085l0 0c0 3.8964539 -3.1586838 7.0551147 -7.0551186 7.0551147l0 0c-3.8964348 0 -7.0551186 -3.158661 -7.0551186 -7.0551147z" fill-rule="evenodd"/><path fill="#000000" fill-opacity="0.0" d="m189.27975 347.48868l-11.811035 -27.338593" fill-rule="evenodd"/><path stroke="#000000" stroke-width="1.0" stroke-linejoin="round" stroke-linecap="butt" d="m189.27975 347.48868l-11.811035 -27.338593" fill-rule="evenodd"/><path fill="#000000" fill-opacity="0.0" d="m194.26848 359.53253l0 52.81888" fill-rule="evenodd"/><path stroke="#000000" stroke-width="1.0" stroke-linejoin="round" stroke-linecap="butt" d="m194.26848 359.53253l0 52.81888" fill-rule="evenodd"/><path fill="#b45f06" d="m234.56128 372.72546l0 0c0 -3.8964233 3.1586761 -7.0551147 7.0551147 -7.0551147l0 0c1.8711395 0 3.6656342 0.74331665 4.9887238 2.0664062c1.3230896 1.3230896 2.066391 3.1175842 2.066391 4.9887085l0 0c0 3.8964539 -3.1586761 7.0551453 -7.0551147 7.0551453l0 0c-3.8964386 0 -7.0551147 -3.1586914 -7.0551147 -7.0551453z" fill-rule="evenodd"/><path stroke="#000000" stroke-width="1.0" stroke-linejoin="round" stroke-linecap="butt" d="m234.56128 372.72546l0 0c0 -3.8964233 3.1586761 -7.0551147 7.0551147 -7.0551147l0 0c1.8711395 0 3.6656342 0.74331665 4.9887238 2.0664062c1.3230896 1.3230896 2.066391 3.1175842 2.066391 4.9887085l0 0c0 3.8964539 -3.1586761 7.0551453 -7.0551147 7.0551453l0 0c-3.8964386 0 -7.0551147 -3.1586914 -7.0551147 -7.0551453z" fill-rule="evenodd"/><path fill="#a64d79" d="m276.91068 315.16348l0 0c0 -3.8964233 3.158661 -7.0551147 7.0551147 -7.0551147l0 0c1.8711243 0 3.665619 0.74331665 4.9887085 2.0664062c1.3230896 1.3230896 2.0664062 3.1175842 2.0664062 4.9887085l0 0c0 3.8964539 -3.1586914 7.0551147 -7.0551147 7.0551147l0 0c-3.8964539 0 -7.0551147 -3.158661 -7.0551147 -7.0551147z" fill-rule="evenodd"/><path stroke="#000000" stroke-width="1.0" stroke-linejoin="round" stroke-linecap="butt" d="m276.91068 315.16348l0 0c0 -3.8964233 3.158661 -7.0551147 7.0551147 -7.0551147l0 0c1.8711243 0 3.665619 0.74331665 4.9887085 2.0664062c1.3230896 1.3230896 2.0664062 3.1175842 2.0664062 4.9887085l0 0c0 3.8964539 -3.1586914 7.0551147 -7.0551147 7.0551147l0 0c-3.8964539 0 -7.0551147 -3.158661 -7.0551147 -7.0551147z" fill-rule="evenodd"/><path fill="#f6b26b" d="m91.82985 490.04916l0 0c0 -3.8964539 3.1586838 -7.0551453 7.0551224 -7.0551453l0 0c1.8711319 0 3.6656265 0.74331665 4.988716 2.0664062c1.3230896 1.3230896 2.0663986 3.1175842 2.0663986 4.988739l0 0c0 3.8964233 -3.1586838 7.0551147 -7.0551147 7.0551147l0 0c-3.8964386 0 -7.0551224 -3.1586914 -7.0551224 -7.0551147z" fill-rule="evenodd"/><path stroke="#000000" stroke-width="1.0" stroke-linejoin="round" stroke-linecap="butt" d="m91.82985 490.04916l0 0c0 -3.8964539 3.1586838 -7.0551453 7.0551224 -7.0551453l0 0c1.8711319 0 3.6656265 0.74331665 4.988716 2.0664062c1.3230896 1.3230896 2.0663986 3.1175842 2.0663986 4.988739l0 0c0 3.8964233 -3.1586838 7.0551147 -7.0551147 7.0551147l0 0c-3.8964386 0 -7.0551224 -3.1586914 -7.0551224 -7.0551147z" fill-rule="evenodd"/><path fill="#000000" fill-opacity="0.0" d="m199.25719 347.48868l79.71654 -27.338593" fill-rule="evenodd"/><path stroke="#000000" stroke-width="1.0" stroke-linejoin="round" stroke-linecap="butt" d="m199.25719 347.48868l79.71654 -27.338593" fill-rule="evenodd"/><path fill="#000000" fill-opacity="0.0" d="m177.48296 310.17477l99.43306 4.9763794" fill-rule="evenodd"/><path stroke="#000000" stroke-width="1.0" stroke-linejoin="round" stroke-linecap="butt" d="m177.48296 310.17477l99.43306 4.9763794" fill-rule="evenodd"/><path fill="#000000" fill-opacity="0.0" d="m201.3236 352.4774l33.228348 20.251984" fill-rule="evenodd"/><path stroke="#000000" stroke-width="1.0" stroke-linejoin="round" stroke-linecap="butt" d="m201.3236 352.4774l33.228348 20.251984" fill-rule="evenodd"/><path fill="#000000" fill-opacity="0.0" d="m199.25623 414.42078l42.362198 -34.64566" fill-rule="evenodd"/><path stroke="#000000" stroke-width="1.0" stroke-linejoin="round" stroke-linecap="butt" d="m199.25623 414.42078l42.362198 -34.64566" fill-rule="evenodd"/><path fill="#000000" fill-opacity="0.0" d="m43.000412 366.25134l111.779526 0.7559204" fill-rule="evenodd"/><path stroke="#000000" stroke-width="1.0" stroke-linejoin="round" stroke-linecap="butt" d="m43.000412 366.25134l111.779526 0.7559204" fill-rule="evenodd"/><path fill="#000000" fill-opacity="0.0" d="m223.47643 408.5449l51.779526 0l0 31.559052l-51.779526 0z" fill-rule="evenodd"/><path fill="#000000" d="m238.42955 431.62488l0 -1.109375q-0.890625 1.28125 -2.421875 1.28125q-0.671875 0 -1.25 -0.25q-0.578125 -0.265625 -0.875 -0.65625q-0.28125 -0.390625 -0.390625 -0.953125q-0.078125 -0.375 -0.078125 -1.203125l0 -4.703125l1.28125 0l0 4.203125q0 1.015625 0.078125 1.359375q0.125 0.515625 0.515625 0.8125q0.40625 0.28125 0.984375 0.28125q0.578125 0 1.078125 -0.296875q0.515625 -0.296875 0.71875 -0.8125q0.21875 -0.515625 0.21875 -1.484375l0 -4.0625l1.28125 0l0 7.59375l-1.140625 0zm9.572983 -1.234375l0 1.234375l-6.9375 0q-0.015625 -0.46875 0.15625 -0.890625q0.265625 -0.71875 0.84375 -1.40625q0.59375 -0.6875 1.6875 -1.578125q1.71875 -1.40625 2.3125 -2.21875q0.609375 -0.828125 0.609375 -1.5625q0 -0.765625 -0.5625 -1.28125q-0.546875 -0.53125 -1.421875 -0.53125q-0.921875 0 -1.484375 0.5625q-0.5625 0.5625 -0.5625 1.546875l-1.328125 -0.140625q0.140625 -1.484375 1.015625 -2.25q0.890625 -0.78125 2.390625 -0.78125q1.515625 0 2.390625 0.84375q0.875 0.828125 0.875 2.0625q0 0.640625 -0.265625 1.25q-0.25 0.59375 -0.84375 1.265625q-0.59375 0.671875 -1.984375 1.859375q-1.15625 0.96875 -1.484375 1.3125q-0.328125 0.34375 -0.546875 0.703125l5.140625 0z" fill-rule="nonzero"/><path fill="#000000" fill-opacity="0.0" d="m58.71591 473.8069l51.779526 0l0 31.559052l-51.779526 0z" fill-rule="evenodd"/><path fill="#000000" d="m73.88779 494.43378l1.328125 0.171875q-0.3125 1.171875 -1.171875 1.8125q-0.84375 0.640625 -2.171875 0.640625q-1.671875 0 -2.65625 -1.015625q-0.96875 -1.03125 -0.96875 -2.890625q0 -1.921875 0.984375 -2.96875q1.0 -1.0625 2.578125 -1.0625q1.515625 0 2.484375 1.03125q0.96875 1.03125 0.96875 2.921875q0 0.109375 -0.015625 0.34375l-5.65625 0q0.0625 1.25 0.703125 1.921875q0.640625 0.65625 1.59375 0.65625q0.703125 0 1.203125 -0.359375q0.5 -0.375 0.796875 -1.203125zm-4.234375 -2.078125l4.25 0q-0.09375 -0.953125 -0.484375 -1.4375q-0.625 -0.75 -1.609375 -0.75q-0.875 0 -1.484375 0.59375q-0.609375 0.59375 -0.671875 1.59375zm13.588608 3.296875l0 1.234375l-6.9375 0q-0.015625 -0.46875 0.15625 -0.890625q0.265625 -0.71875 0.84375 -1.40625q0.59375 -0.6875 1.6875 -1.578125q1.71875 -1.40625 2.3125 -2.21875q0.609375 -0.828125 0.609375 -1.5625q0 -0.765625 -0.5625 -1.28125q-0.546875 -0.53125 -1.421875 -0.53125q-0.921875 0 -1.484375 0.5625q-0.5625 0.5625 -0.5625 1.546875l-1.328125 -0.140625q0.140625 -1.484375 1.015625 -2.25q0.890625 -0.78125 2.390625 -0.78125q1.515625 0 2.390625 0.84375q0.875 0.828125 0.875 2.0625q0 0.640625 -0.265625 1.25q-0.25 0.59375 -0.84375 1.265625q-0.59375 0.671875 -1.984375 1.859375q-1.15625 0.96875 -1.484375 1.3125q-0.328125 0.34375 -0.546875 0.703125l5.140625 0z" fill-rule="nonzero"/><path fill="#000000" fill-opacity="0.0" d="m27.436716 325.07758l51.779526 0l0 31.559052l-51.779526 0z" fill-rule="evenodd"/><path fill="#000000" d="m42.60859 345.70444l1.328125 0.171875q-0.3125 1.171875 -1.171875 1.8125q-0.84375 0.640625 -2.171875 0.640625q-1.671875 0 -2.65625 -1.015625q-0.96875 -1.03125 -0.96875 -2.890625q0 -1.921875 0.984375 -2.96875q1.0 -1.0625 2.578125 -1.0625q1.515625 0 2.484375 1.03125q0.96875 1.03125 0.96875 2.921875q0 0.109375 -0.015625 0.34375l-5.65625 0q0.0625 1.25 0.703125 1.921875q0.640625 0.65625 1.59375 0.65625q0.703125 0 1.203125 -0.359375q0.5 -0.375 0.796875 -1.203125zm-4.234375 -2.078125l4.25 0q-0.09375 -0.953125 -0.484375 -1.4375q-0.625 -0.75 -1.609375 -0.75q-0.875 0 -1.484375 0.59375q-0.609375 0.59375 -0.671875 1.59375zm11.666733 4.53125l-1.28125 0l0 -8.203125q-0.46875 0.4375 -1.21875 0.890625q-0.75 0.4375 -1.359375 0.65625l0 -1.25q1.078125 -0.5 1.890625 -1.21875q0.8125 -0.734375 1.140625 -1.40625l0.828125 0l0 10.53125z" fill-rule="nonzero"/><path fill="#000000" fill-opacity="0.0" d="m522.7454 355.71213l54.92914 103.52759" fill-rule="evenodd"/><path stroke="#000000" stroke-width="1.0" stroke-linejoin="round" stroke-linecap="butt" stroke-dasharray="4.0,3.0" d="m522.7454 355.71213l54.92914 103.52759" fill-rule="evenodd"/><path fill="#000000" fill-opacity="0.0" d="m512.14014 310.33215l51.77954 0l0 31.559052l-51.77954 0z" fill-rule="evenodd"/><path fill="#000000" d="m527.312 330.95905l1.328125 0.171875q-0.3125 1.171875 -1.171875 1.8125q-0.84375 0.640625 -2.171875 0.640625q-1.671875 0 -2.65625 -1.015625q-0.96875 -1.03125 -0.96875 -2.890625q0 -1.921875 0.984375 -2.96875q1.0 -1.0625 2.578125 -1.0625q1.515625 0 2.484375 1.03125q0.96875 1.03125 0.96875 2.921875q0 0.109375 -0.015625 0.34375l-5.65625 0q0.0625 1.25 0.703125 1.921875q0.640625 0.65625 1.59375 0.65625q0.703125 0 1.203125 -0.359375q0.5 -0.375 0.796875 -1.203125zm-4.234375 -2.078125l4.25 0q-0.09375 -0.953125 -0.484375 -1.4375q-0.625 -0.75 -1.609375 -0.75q-0.875 0 -1.484375 0.59375q-0.609375 0.59375 -0.671875 1.59375zm11.666748 4.53125l-1.28125 0l0 -8.203125q-0.46875 0.4375 -1.21875 0.890625q-0.75 0.4375 -1.359375 0.65625l0 -1.25q1.078125 -0.5 1.890625 -1.21875q0.8125 -0.734375 1.140625 -1.40625l0.828125 0l0 10.53125z" fill-rule="nonzero"/><path fill="#000000" fill-opacity="0.0" d="m544.3596 379.64453l26.236206 0l0 29.228333l-26.236206 0z" fill-rule="evenodd"/><path fill="#000000" d="m557.6565 403.28326q0 -0.328125 0 -0.5q0 -0.96875 0.265625 -1.671875q0.203125 -0.515625 0.640625 -1.0625q0.328125 -0.390625 1.171875 -1.140625q0.859375 -0.75 1.109375 -1.1875q0.265625 -0.453125 0.265625 -0.984375q0 -0.953125 -0.75 -1.671875q-0.734375 -0.734375 -1.828125 -0.734375q-1.046875 0 -1.75 0.65625q-0.703125 0.65625 -0.921875 2.046875l-1.6875 -0.203125q0.234375 -1.859375 1.359375 -2.84375q1.125 -1.0 2.96875 -1.0q1.96875 0 3.125 1.0625q1.171875 1.0625 1.171875 2.578125q0 0.875 -0.40625 1.609375q-0.40625 0.734375 -1.609375 1.796875q-0.796875 0.703125 -1.046875 1.046875q-0.25 0.34375 -0.375 0.78125q-0.109375 0.4375 -0.125 1.421875l-1.578125 0zm-0.09375 3.28125l0 -1.875l1.859375 0l0 1.875l-1.859375 0z" fill-rule="nonzero"/><path fill="#000000" fill-opacity="0.0" d="m530.7159 449.8069l51.77954 0l0 31.559052l-51.77954 0z" fill-rule="evenodd"/><path fill="#000000" d="m545.88776 470.43378l1.328125 0.171875q-0.3125 1.171875 -1.171875 1.8125q-0.84375 0.640625 -2.171875 0.640625q-1.671875 0 -2.65625 -1.015625q-0.96875 -1.03125 -0.96875 -2.890625q0 -1.921875 0.984375 -2.96875q1.0 -1.0625 2.578125 -1.0625q1.515625 0 2.484375 1.03125q0.96875 1.03125 0.96875 2.921875q0 0.109375 -0.015625 0.34375l-5.65625 0q0.0625 1.25 0.703125 1.921875q0.640625 0.65625 1.59375 0.65625q0.703125 0 1.203125 -0.359375q0.5 -0.375 0.796875 -1.203125zm-4.234375 -2.078125l4.25 0q-0.09375 -0.953125 -0.484375 -1.4375q-0.625 -0.75 -1.609375 -0.75q-0.875 0 -1.484375 0.59375q-0.609375 0.59375 -0.671875 1.59375zm13.588623 3.296875l0 1.234375l-6.9375 0q-0.015625 -0.46875 0.15625 -0.890625q0.265625 -0.71875 0.84375 -1.40625q0.59375 -0.6875 1.6875 -1.578125q1.71875 -1.40625 2.3125 -2.21875q0.609375 -0.828125 0.609375 -1.5625q0 -0.765625 -0.5625 -1.28125q-0.546875 -0.53125 -1.421875 -0.53125q-0.921875 0 -1.484375 0.5625q-0.5625 0.5625 -0.5625 1.546875l-1.328125 -0.140625q0.140625 -1.484375 1.015625 -2.25q0.890625 -0.78125 2.390625 -0.78125q1.515625 0 2.390625 0.84375q0.875 0.828125 0.875 2.0625q0 0.640625 -0.265625 1.25q-0.25 0.59375 -0.84375 1.265625q-0.59375 0.671875 -1.984375 1.859375q-1.15625 0.96875 -1.484375 1.3125q-0.328125 0.34375 -0.546875 0.703125l5.140625 0z" fill-rule="nonzero"/><path fill="#000000" fill-opacity="0.0" d="m687.47644 384.5449l51.77954 0l0 31.559052l-51.77954 0z" fill-rule="evenodd"/><path fill="#000000" d="m702.42957 407.62488l0 -1.109375q-0.890625 1.28125 -2.421875 1.28125q-0.671875 0 -1.25 -0.25q-0.578125 -0.265625 -0.875 -0.65625q-0.28125 -0.390625 -0.390625 -0.953125q-0.078125 -0.375 -0.078125 -1.203125l0 -4.703125l1.28125 0l0 4.203125q0 1.015625 0.078125 1.359375q0.125 0.515625 0.515625 0.8125q0.40625 0.28125 0.984375 0.28125q0.578125 0 1.078125 -0.296875q0.515625 -0.296875 0.71875 -0.8125q0.21875 -0.515625 0.21875 -1.484375l0 -4.0625l1.28125 0l0 7.59375l-1.140625 0zm9.572998 -1.234375l0 1.234375l-6.9375 0q-0.015625 -0.46875 0.15625 -0.890625q0.265625 -0.71875 0.84375 -1.40625q0.59375 -0.6875 1.6875 -1.578125q1.71875 -1.40625 2.3125 -2.21875q0.609375 -0.828125 0.609375 -1.5625q0 -0.765625 -0.5625 -1.28125q-0.546875 -0.53125 -1.421875 -0.53125q-0.921875 0 -1.484375 0.5625q-0.5625 0.5625 -0.5625 1.546875l-1.328125 -0.140625q0.140625 -1.484375 1.015625 -2.25q0.890625 -0.78125 2.390625 -0.78125q1.515625 0 2.390625 0.84375q0.875 0.828125 0.875 2.0625q0 0.640625 -0.265625 1.25q-0.25 0.59375 -0.84375 1.265625q-0.59375 0.671875 -1.984375 1.859375q-1.15625 0.96875 -1.484375 1.3125q-0.328125 0.34375 -0.546875 0.703125l5.140625 0z" fill-rule="nonzero"/><path fill="#000000" fill-opacity="0.0" d="m-8.574803 250.01575l861.41736 0" fill-rule="evenodd"/><path stroke="#b7b7b7" stroke-width="1.0" stroke-linejoin="round" stroke-linecap="butt" d="m-8.574803 250.01575l861.41736 0" fill-rule="evenodd"/><path fill="#000000" fill-opacity="0.0" d="m0.64041996 -3.67979l402.6142 0l0 44.72441l-402.6142 0z" fill-rule="evenodd"/><path fill="#000000" d="m11.343545 17.646458q0 -3.578125 2.0625 -5.78125q2.0625 -2.203125 4.999999 -2.203125q2.5 0 4.0625 1.625q1.578125 1.625 1.578125 4.359375q0 1.953125 -0.78125 3.609375q-0.59375 1.25 -1.5 2.15625q-0.90625 0.90625 -1.9375 1.40625q-1.359375 0.65625 -2.890625 0.65625q-1.609374 0 -2.921874 -0.765625q-1.3125 -0.765625 -2.0 -2.140625q-0.671875 -1.375 -0.671875 -2.921875zm1.765625 0.09375q0 1.171875 0.484375 2.15625q0.484375 0.984375 1.453125 1.546875q0.96874905 0.546875 2.031249 0.546875q1.03125 0 1.953125 -0.484375q0.9375 -0.484375 1.65625 -1.359375q0.734375 -0.875 1.15625 -2.140625q0.4375 -1.265625 0.4375 -2.5q0 -2.0 -1.125 -3.171875q-1.109375 -1.1875 -2.75 -1.1875q-2.09375 0 -3.703124 1.796875q-1.59375 1.78125 -1.59375 4.796875zm18.261429 3.75q-1.734375 1.96875 -3.5625 1.96875q-1.109375 0 -1.796875 -0.640625q-0.6875 -0.640625 -0.6875 -1.578125q0 -0.609375 0.296875 -2.09375l1.171875 -5.578125l1.65625 0l-1.296875 6.1875q-0.171875 0.765625 -0.171875 1.203125q0 0.546875 0.328125 0.859375q0.34375 0.296875 0.984375 0.296875q0.703125 0 1.359375 -0.328125q0.65625 -0.34375 1.125 -0.921875q0.484375 -0.578125 0.796875 -1.359375q0.1875 -0.5 0.453125 -1.765625l0.875 -4.171875l1.65625 0l-2.03125 9.671875l-1.515625 0l0.359375 -1.75zm7.625717 0.40625l-0.265625 1.359375q-0.59375 0.140625 -1.15625 0.140625q-0.984375 0 -1.5625 -0.46875q-0.4375 -0.375 -0.4375 -1.0q0 -0.3125 0.234375 -1.46875l1.171875 -5.625l-1.296875 0l0.265625 -1.265625l1.296875 0l0.5 -2.375l1.890625 -1.140625l-0.734375 3.515625l1.625 0l-0.28125 1.265625l-1.609375 0l-1.125 5.359375q-0.203125 1.015625 -0.203125 1.21875q0 0.28125 0.15625 0.4375q0.171875 0.15625 0.5625 0.15625q0.546875 0 0.96875 -0.109375zm8.011429 -2.1875l1.65625 0.171875q-0.625 1.8125 -1.765625 2.703125q-1.140625 0.875 -2.609375 0.875q-1.578125 0 -2.5625 -1.015625q-0.96875 -1.03125 -0.96875 -2.859375q0 -1.578125 0.625 -3.109375q0.640625 -1.53125 1.796875 -2.328125q1.171875 -0.796875 2.6875 -0.796875q1.546875 0 2.453125 0.875q0.921875 0.875 0.921875 2.328125l-1.625 0.109375q-0.015625 -0.921875 -0.546875 -1.4375q-0.515625 -0.515625 -1.359375 -0.515625q-1.0 0 -1.734375 0.625q-0.71875 0.625 -1.140625 1.90625q-0.40625 1.28125 -0.40625 2.46875q0 1.234375 0.546875 1.859375q0.546875 0.609375 1.34375 0.609375q0.796875 0 1.53125 -0.609375q0.734375 -0.609375 1.15625 -1.859375zm2.9375 -0.140625q0 -2.828125 1.671875 -4.6875q1.375 -1.53125 3.609375 -1.53125q1.75 0 2.8125 1.09375q1.078125 1.09375 1.078125 2.953125q0 1.65625 -0.671875 3.09375q-0.671875 1.4375 -1.921875 2.203125q-1.25 0.765625 -2.625 0.765625q-1.125 0 -2.046875 -0.484375q-0.921875 -0.484375 -1.421875 -1.359375q-0.484375 -0.890625 -0.484375 -2.046875zm1.65625 -0.15625q0 1.359375 0.65625 2.0625q0.65625 0.703125 1.65625 0.703125q0.53125 0 1.046875 -0.203125q0.53125 -0.21875 0.96875 -0.65625q0.453125 -0.4375 0.765625 -1.0q0.3125 -0.5625 0.5 -1.203125q0.28125 -0.90625 0.28125 -1.734375q0 -1.3125 -0.65625 -2.03125q-0.65625 -0.734375 -1.65625 -0.734375q-0.78125 0 -1.421875 0.375q-0.625 0.375 -1.140625 1.09375q-0.515625 0.703125 -0.765625 1.640625q-0.234375 0.9375 -0.234375 1.6875zm8.422592 3.828125l2.015625 -9.671875l1.65625 0l-0.34375 1.59375q0.921875 -1.03125 1.640625 -1.421875q0.734375 -0.390625 1.578125 -0.390625q0.90625 0 1.515625 0.484375q0.609375 0.46875 0.796875 1.328125q0.734375 -0.90625 1.546875 -1.359375q0.8125 -0.453125 1.71875 -0.453125q1.21875 0 1.8125 0.578125q0.609375 0.5625 0.609375 1.609375q0 0.4375 -0.203125 1.46875l-1.3125 6.234375l-1.640625 0l1.328125 -6.390625q0.171875 -0.78125 0.171875 -1.125q0 -0.46875 -0.296875 -0.734375q-0.296875 -0.28125 -0.84375 -0.28125q-0.75 0 -1.515625 0.453125q-0.765625 0.4375 -1.1875 1.171875q-0.421875 0.71875 -0.734375 2.21875l-0.984375 4.6875l-1.65625 0l1.375 -6.53125q0.140625 -0.671875 0.140625 -0.953125q0 -0.46875 -0.296875 -0.75q-0.296875 -0.296875 -0.765625 -0.296875q-0.703125 0 -1.484375 0.453125q-0.765625 0.4375 -1.25 1.234375q-0.46875 0.796875 -0.78125 2.265625l-0.953125 4.578125l-1.65625 0zm22.650177 -3.28125l1.609375 0.15625q-0.34375 1.1875 -1.59375 2.265625q-1.234375 1.078125 -2.96875 1.078125q-1.0625 0 -1.96875 -0.5q-0.890625 -0.5 -1.359375 -1.4375q-0.46875 -0.953125 -0.46875 -2.15625q0 -1.59375 0.734375 -3.078125q0.734375 -1.484375 1.890625 -2.203125q1.171875 -0.734375 2.53125 -0.734375q1.734375 0 2.765625 1.078125q1.03125 1.0625 1.03125 2.921875q0 0.71875 -0.125 1.46875l-7.125 0q-0.046875 0.28125 -0.046875 0.5q0 1.359375 0.625 2.078125q0.625 0.71875 1.53125 0.71875q0.84375 0 1.65625 -0.546875q0.828125 -0.5625 1.28125 -1.609375zm-4.78125 -2.40625l5.421875 0q0.015625 -0.25 0.015625 -0.359375q0 -1.234375 -0.625 -1.890625q-0.625 -0.671875 -1.59375 -0.671875q-1.0625 0 -1.9375 0.734375q-0.859375 0.71875 -1.28125 2.1875zm11.922592 5.6875l2.125 -10.078125q-1.375 1.0625 -3.84375 1.71875l0.296875 -1.5q1.234375 -0.484375 2.4375 -1.28125q1.203125 -0.796875 1.796875 -1.390625q0.359375 -0.359375 0.6875 -0.875l0.96875 0l-2.796875 13.40625l-1.671875 0z" fill-rule="nonzero"/><path fill="#000000" fill-opacity="0.0" d="m0.64041996 252.3202l402.6142 0l0 44.72441l-402.6142 0z" fill-rule="evenodd"/><path fill="#000000" d="m11.343545 273.64645q0 -3.578125 2.0625 -5.78125q2.0625 -2.203125 4.999999 -2.203125q2.5 0 4.0625 1.625q1.578125 1.625 1.578125 4.359375q0 1.953125 -0.78125 3.609375q-0.59375 1.25 -1.5 2.15625q-0.90625 0.90625 -1.9375 1.40625q-1.359375 0.65625 -2.890625 0.65625q-1.609374 0 -2.921874 -0.765625q-1.3125 -0.765625 -2.0 -2.140625q-0.671875 -1.375 -0.671875 -2.921875zm1.765625 0.09375q0 1.171875 0.484375 2.15625q0.484375 0.984375 1.453125 1.546875q0.96874905 0.546875 2.031249 0.546875q1.03125 0 1.953125 -0.484375q0.9375 -0.484375 1.65625 -1.359375q0.734375 -0.875 1.15625 -2.140625q0.4375 -1.265625 0.4375 -2.5q0 -2.0 -1.125 -3.171875q-1.109375 -1.1875 -2.75 -1.1875q-2.09375 0 -3.703124 1.796875q-1.59375 1.78125 -1.59375 4.796875zm18.261429 3.75q-1.734375 1.96875 -3.5625 1.96875q-1.109375 0 -1.796875 -0.640625q-0.6875 -0.640625 -0.6875 -1.578125q0 -0.609375 0.296875 -2.09375l1.171875 -5.578125l1.65625 0l-1.296875 6.1875q-0.171875 0.765625 -0.171875 1.203125q0 0.546875 0.328125 0.859375q0.34375 0.296875 0.984375 0.296875q0.703125 0 1.359375 -0.328125q0.65625 -0.34375 1.125 -0.921875q0.484375 -0.578125 0.796875 -1.359375q0.1875 -0.5 0.453125 -1.765625l0.875 -4.171875l1.65625 0l-2.03125 9.671875l-1.515625 0l0.359375 -1.75zm7.625717 0.40625l-0.265625 1.359375q-0.59375 0.140625 -1.15625 0.140625q-0.984375 0 -1.5625 -0.46875q-0.4375 -0.375 -0.4375 -1.0q0 -0.3125 0.234375 -1.46875l1.171875 -5.625l-1.296875 0l0.265625 -1.265625l1.296875 0l0.5 -2.375l1.890625 -1.140625l-0.734375 3.515625l1.625 0l-0.28125 1.265625l-1.609375 0l-1.125 5.359375q-0.203125 1.015625 -0.203125 1.21875q0 0.28125 0.15625 0.4375q0.171875 0.15625 0.5625 0.15625q0.546875 0 0.96875 -0.109375zm8.011429 -2.1875l1.65625 0.171875q-0.625 1.8125 -1.765625 2.703125q-1.140625 0.875 -2.609375 0.875q-1.578125 0 -2.5625 -1.015625q-0.96875 -1.03125 -0.96875 -2.859375q0 -1.578125 0.625 -3.109375q0.640625 -1.53125 1.796875 -2.328125q1.171875 -0.796875 2.6875 -0.796875q1.546875 0 2.453125 0.875q0.921875 0.875 0.921875 2.328125l-1.625 0.109375q-0.015625 -0.921875 -0.546875 -1.4375q-0.515625 -0.515625 -1.359375 -0.515625q-1.0 0 -1.734375 0.625q-0.71875 0.625 -1.140625 1.90625q-0.40625 1.28125 -0.40625 2.46875q0 1.234375 0.546875 1.859375q0.546875 0.609375 1.34375 0.609375q0.796875 0 1.53125 -0.609375q0.734375 -0.609375 1.15625 -1.859375zm2.9375 -0.140625q0 -2.828125 1.671875 -4.6875q1.375 -1.53125 3.609375 -1.53125q1.75 0 2.8125 1.09375q1.078125 1.09375 1.078125 2.953125q0 1.65625 -0.671875 3.09375q-0.671875 1.4375 -1.921875 2.203125q-1.25 0.765625 -2.625 0.765625q-1.125 0 -2.046875 -0.484375q-0.921875 -0.484375 -1.421875 -1.359375q-0.484375 -0.890625 -0.484375 -2.046875zm1.65625 -0.15625q0 1.359375 0.65625 2.0625q0.65625 0.703125 1.65625 0.703125q0.53125 0 1.046875 -0.203125q0.53125 -0.21875 0.96875 -0.65625q0.453125 -0.4375 0.765625 -1.0q0.3125 -0.5625 0.5 -1.203125q0.28125 -0.90625 0.28125 -1.734375q0 -1.3125 -0.65625 -2.03125q-0.65625 -0.734375 -1.65625 -0.734375q-0.78125 0 -1.421875 0.375q-0.625 0.375 -1.140625 1.09375q-0.515625 0.703125 -0.765625 1.640625q-0.234375 0.9375 -0.234375 1.6875zm8.422592 3.828125l2.015625 -9.671875l1.65625 0l-0.34375 1.59375q0.921875 -1.03125 1.640625 -1.421875q0.734375 -0.390625 1.578125 -0.390625q0.90625 0 1.515625 0.484375q0.609375 0.46875 0.796875 1.328125q0.734375 -0.90625 1.546875 -1.359375q0.8125 -0.453125 1.71875 -0.453125q1.21875 0 1.8125 0.578125q0.609375 0.5625 0.609375 1.609375q0 0.4375 -0.203125 1.46875l-1.3125 6.234375l-1.640625 0l1.328125 -6.390625q0.171875 -0.78125 0.171875 -1.125q0 -0.46875 -0.296875 -0.734375q-0.296875 -0.28125 -0.84375 -0.28125q-0.75 0 -1.515625 0.453125q-0.765625 0.4375 -1.1875 1.171875q-0.421875 0.71875 -0.734375 2.21875l-0.984375 4.6875l-1.65625 0l1.375 -6.53125q0.140625 -0.671875 0.140625 -0.953125q0 -0.46875 -0.296875 -0.75q-0.296875 -0.296875 -0.765625 -0.296875q-0.703125 0 -1.484375 0.453125q-0.765625 0.4375 -1.25 1.234375q-0.46875 0.796875 -0.78125 2.265625l-0.953125 4.578125l-1.65625 0zm22.650177 -3.28125l1.609375 0.15625q-0.34375 1.1875 -1.59375 2.265625q-1.234375 1.078125 -2.96875 1.078125q-1.0625 0 -1.96875 -0.5q-0.890625 -0.5 -1.359375 -1.4375q-0.46875 -0.953125 -0.46875 -2.15625q0 -1.59375 0.734375 -3.078125q0.734375 -1.484375 1.890625 -2.203125q1.171875 -0.734375 2.53125 -0.734375q1.734375 0 2.765625 1.078125q1.03125 1.0625 1.03125 2.921875q0 0.71875 -0.125 1.46875l-7.125 0q-0.046875 0.28125 -0.046875 0.5q0 1.359375 0.625 2.078125q0.625 0.71875 1.53125 0.71875q0.84375 0 1.65625 -0.546875q0.828125 -0.5625 1.28125 -1.609375zm-4.78125 -2.40625l5.421875 0q0.015625 -0.25 0.015625 -0.359375q0 -1.234375 -0.625 -1.890625q-0.625 -0.671875 -1.59375 -0.671875q-1.0625 0 -1.9375 0.734375q-0.859375 0.71875 -1.28125 2.1875zm8.531967 5.6875q0.25 -1.1875 0.703125 -2.0q0.453125 -0.8125 1.203125 -1.53125q0.75 -0.71875 2.875 -2.421875q1.296875 -1.03125 1.765625 -1.53125q0.6875 -0.703125 1.0 -1.390625q0.203125 -0.46875 0.203125 -1.015625q0 -0.90625 -0.65625 -1.546875q-0.640625 -0.65625 -1.59375 -0.65625q-0.9375 0 -1.640625 0.65625q-0.703125 0.65625 -1.0 2.09375l-1.609375 -0.234375q0.234375 -1.78125 1.375 -2.796875q1.140625 -1.03125 2.84375 -1.03125q1.140625 0 2.0625 0.46875q0.9375 0.46875 1.390625 1.328125q0.46875 0.859375 0.46875 1.765625q0 1.328125 -0.953125 2.5625q-0.578125 0.765625 -3.421875 3.015625q-1.21875 0.96875 -1.8125 1.59375q-0.59375 0.609375 -0.90625 1.15625l5.984375 0l-0.3125 1.515625l-7.96875 0z" fill-rule="nonzero"/><path fill="#000000" fill-opacity="0.0" d="m361.15222 124.414696l112.31497 0" fill-rule="evenodd"/><path stroke="#b7b7b7" stroke-width="1.0" stroke-linejoin="round" stroke-linecap="butt" d="m361.15222 124.414696l106.31497 0" fill-rule="evenodd"/><path fill="#b7b7b7" stroke="#b7b7b7" stroke-width="1.0" stroke-linecap="butt" d="m467.4672 126.06643l4.538086 -1.6517334l-4.538086 -1.6517334z" fill-rule="evenodd"/><path fill="#000000" fill-opacity="0.0" d="m361.15222 364.4147l112.31497 0" fill-rule="evenodd"/><path stroke="#b7b7b7" stroke-width="1.0" stroke-linejoin="round" stroke-linecap="butt" d="m361.15222 364.4147l106.31497 0" fill-rule="evenodd"/><path fill="#b7b7b7" stroke="#b7b7b7" stroke-width="1.0" stroke-linecap="butt" d="m467.4672 366.06644l4.538086 -1.6517334l-4.538086 -1.6517334z" fill-rule="evenodd"/></g></svg>