<svg version="1.1" viewBox="0.0 0.0 778.0 241.0" fill="none" stroke="none" stroke-linecap="square" stroke-miterlimit="10" xmlns:xlink="http://www.w3.org/1999/xlink" xmlns="http://www.w3.org/2000/svg"><clipPath id="p.0"><path d="m0 0l778.0 0l0 241.0l-778.0 0l0 -241.0z" clip-rule="nonzero"/></clipPath><g clip-path="url(#p.0)"><path fill="#000000" fill-opacity="0.0" d="m0 0l778.0 0l0 241.0l-778.0 0z" fill-rule="evenodd"/><path fill="#38761d" d="m86.317894 189.45872l0 0c0 -5.1314697 4.159874 -9.291336 9.291336 -9.291336l0 0c2.4642181 0 4.827507 0.9788971 6.569969 2.7213593c1.7424622 1.7424774 2.721367 4.1057587 2.721367 6.569977l0 0c0 5.1314697 -4.159874 9.291336 -9.291336 9.291336l0 0c-5.131462 0 -9.291336 -4.1598663 -9.291336 -9.291336z" fill-rule="evenodd"/><path stroke="#000000" stroke-width="1.0" stroke-linejoin="round" stroke-linecap="butt" d="m86.317894 189.45872l0 0c0 -5.1314697 4.159874 -9.291336 9.291336 -9.291336l0 0c2.4642181 0 4.827507 0.9788971 6.569969 2.7213593c1.7424622 1.7424774 2.721367 4.1057587 2.721367 6.569977l0 0c0 5.1314697 -4.159874 9.291336 -9.291336 9.291336l0 0c-5.131462 0 -9.291336 -4.1598663 -9.291336 -9.291336z" fill-rule="evenodd"/><path fill="#ff00ff" d="m86.31917 101.21756l0 0c0 -5.131462 4.159874 -9.291336 9.291336 -9.291336l0 0c2.4642181 0 4.827507 0.9789047 6.569969 2.721367c1.7424698 1.7424622 2.7213745 4.105751 2.7213745 6.569969l0 0c0 5.131462 -4.159874 9.291336 -9.291344 9.291336l0 0c-5.131462 0 -9.291336 -4.159874 -9.291336 -9.291336z" fill-rule="evenodd"/><path stroke="#000000" stroke-width="1.0" stroke-linejoin="round" stroke-linecap="butt" d="m86.31917 101.21756l0 0c0 -5.131462 4.159874 -9.291336 9.291336 -9.291336l0 0c2.4642181 0 4.827507 0.9789047 6.569969 2.721367c1.7424698 1.7424622 2.7213745 4.105751 2.7213745 6.569969l0 0c0 5.131462 -4.159874 9.291336 -9.291344 9.291336l0 0c-5.131462 0 -9.291336 -4.159874 -9.291336 -9.291336z" fill-rule="evenodd"/><path fill="#9900ff" d="m57.612686 52.02408l0 0c0 -5.131466 4.159874 -9.29134 9.291336 -9.29134l0 0c2.4642181 0 4.827507 0.9789047 6.569969 2.7213707c1.7424622 1.7424622 2.721367 4.105751 2.721367 6.569969l0 0c0 5.131462 -4.159874 9.291336 -9.291336 9.291336l0 0c-5.131462 0 -9.291336 -4.159874 -9.291336 -9.291336z" fill-rule="evenodd"/><path stroke="#000000" stroke-width="1.0" stroke-linejoin="round" stroke-linecap="butt" d="m57.612686 52.02408l0 0c0 -5.131466 4.159874 -9.29134 9.291336 -9.29134l0 0c2.4642181 0 4.827507 0.9789047 6.569969 2.7213707c1.7424622 1.7424622 2.721367 4.105751 2.721367 6.569969l0 0c0 5.131462 -4.159874 9.291336 -9.291336 9.291336l0 0c-5.131462 0 -9.291336 -4.159874 -9.291336 -9.291336z" fill-rule="evenodd"/><path fill="#0000ff" d="m21.191788 152.03024l0 0c0 -5.1314545 4.159874 -9.291336 9.291338 -9.291336l0 0c2.4642162 0 4.827505 0.97891235 6.5699673 2.7213745c1.742466 1.7424622 2.7213707 4.1057434 2.7213707 6.5699615l0 0c0 5.1314697 -4.159874 9.291336 -9.291338 9.291336l0 0c-5.131464 0 -9.291338 -4.1598663 -9.291338 -9.291336z" fill-rule="evenodd"/><path stroke="#000000" stroke-width="1.0" stroke-linejoin="round" stroke-linecap="butt" d="m21.191788 152.03024l0 0c0 -5.1314545 4.159874 -9.291336 9.291338 -9.291336l0 0c2.4642162 0 4.827505 0.97891235 6.5699673 2.7213745c1.742466 1.7424622 2.7213707 4.1057434 2.7213707 6.5699615l0 0c0 5.1314697 -4.159874 9.291336 -9.291338 9.291336l0 0c-5.131464 0 -9.291338 -4.1598663 -9.291338 -9.291336z" fill-rule="evenodd"/><path fill="#000000" fill-opacity="0.0" d="m89.040535 94.64759l-15.5590515 -36.062992" fill-rule="evenodd"/><path stroke="#000000" stroke-width="1.0" stroke-linejoin="round" stroke-linecap="butt" d="m89.040535 94.64759l-15.5590515 -36.062992" fill-rule="evenodd"/><path fill="#000000" fill-opacity="0.0" d="m60.334053 58.594048l-29.858267 84.15748" fill-rule="evenodd"/><path stroke="#000000" stroke-width="1.0" stroke-linejoin="round" stroke-linecap="butt" d="m60.334053 58.594048l-29.858267 84.15748" fill-rule="evenodd"/><path fill="#000000" fill-opacity="0.0" d="m95.610504 110.508896l0 69.6693" fill-rule="evenodd"/><path stroke="#000000" stroke-width="1.0" stroke-linejoin="round" stroke-linecap="butt" d="m95.610504 110.508896l0 69.6693" fill-rule="evenodd"/><path fill="#b45f06" d="m148.74121 127.91199l0 0c0 -5.131462 4.1598816 -9.291336 9.291351 -9.291336l0 0c2.464203 0 4.8274994 0.9789047 6.5699615 2.721367c1.7424622 1.7424622 2.7213745 4.105751 2.7213745 6.569969l0 0c0 5.1314697 -4.1598816 9.291336 -9.291336 9.291336l0 0c-5.1314697 0 -9.291351 -4.1598663 -9.291351 -9.291336z" fill-rule="evenodd"/><path stroke="#000000" stroke-width="1.0" stroke-linejoin="round" stroke-linecap="butt" d="m148.74121 127.91199l0 0c0 -5.131462 4.1598816 -9.291336 9.291351 -9.291336l0 0c2.464203 0 4.8274994 0.9789047 6.5699615 2.721367c1.7424622 1.7424622 2.7213745 4.105751 2.7213745 6.569969l0 0c0 5.1314697 -4.1598816 9.291336 -9.291336 9.291336l0 0c-5.1314697 0 -9.291351 -4.1598663 -9.291351 -9.291336z" fill-rule="evenodd"/><path fill="#a64d79" d="m204.57335 52.02408l0 0c0 -5.131466 4.1598816 -9.29134 9.291351 -9.29134l0 0c2.464203 0 4.8274994 0.9789047 6.5699615 2.7213707c1.7424622 1.7424622 2.7213745 4.105751 2.7213745 6.569969l0 0c0 5.131462 -4.1598816 9.291336 -9.291336 9.291336l0 0c-5.1314697 0 -9.291351 -4.159874 -9.291351 -9.291336z" fill-rule="evenodd"/><path stroke="#000000" stroke-width="1.0" stroke-linejoin="round" stroke-linecap="butt" d="m204.57335 52.02408l0 0c0 -5.131466 4.1598816 -9.29134 9.291351 -9.29134l0 0c2.464203 0 4.8274994 0.9789047 6.5699615 2.7213707c1.7424622 1.7424622 2.7213745 4.105751 2.7213745 6.569969l0 0c0 5.131462 -4.1598816 9.291336 -9.291336 9.291336l0 0c-5.1314697 0 -9.291351 -4.159874 -9.291351 -9.291336z" fill-rule="evenodd"/><path fill="#f6b26b" d="m212.56323 189.45659l0 0c0 -5.1314697 4.1598663 -9.291336 9.291336 -9.291336l0 0c2.4642181 0 4.8274994 0.9788971 6.5699615 2.7213593c1.7424622 1.7424622 2.7213745 4.1057587 2.7213745 6.569977l0 0c0 5.1314545 -4.1598663 9.291336 -9.291336 9.291336l0 0c-5.1314697 0 -9.291336 -4.1598816 -9.291336 -9.291336z" fill-rule="evenodd"/><path stroke="#000000" stroke-width="1.0" stroke-linejoin="round" stroke-linecap="butt" d="m212.56323 189.45659l0 0c0 -5.1314697 4.1598663 -9.291336 9.291336 -9.291336l0 0c2.4642181 0 4.8274994 0.9788971 6.5699615 2.7213593c1.7424622 1.7424622 2.7213745 4.1057587 2.7213745 6.569977l0 0c0 5.1314545 -4.1598663 9.291336 -9.291336 9.291336l0 0c-5.1314697 0 -9.291336 -4.1598816 -9.291336 -9.291336z" fill-rule="evenodd"/><path fill="#000000" fill-opacity="0.0" d="m102.18047 94.64759l105.10236 -36.062992" fill-rule="evenodd"/><path stroke="#000000" stroke-width="1.0" stroke-linejoin="round" stroke-linecap="butt" d="m102.18047 94.64759l105.10236 -36.062992" fill-rule="evenodd"/><path fill="#000000" fill-opacity="0.0" d="m73.47399 45.45411l131.08661 6.582676" fill-rule="evenodd"/><path stroke="#000000" stroke-width="1.0" stroke-linejoin="round" stroke-linecap="butt" d="m73.47399 45.45411l131.08661 6.582676" fill-rule="evenodd"/><path fill="#000000" fill-opacity="0.0" d="m104.90185 101.21756l43.84252 26.708664" fill-rule="evenodd"/><path stroke="#000000" stroke-width="1.0" stroke-linejoin="round" stroke-linecap="butt" d="m104.90185 101.21756l43.84252 26.708664" fill-rule="evenodd"/><path fill="#000000" fill-opacity="0.0" d="m102.1792 182.88875l55.842514 -45.700775" fill-rule="evenodd"/><path stroke="#000000" stroke-width="1.0" stroke-linejoin="round" stroke-linecap="butt" d="m102.1792 182.88875l55.842514 -45.700775" fill-rule="evenodd"/><path fill="#000000" fill-opacity="0.0" d="m104.900566 189.45872l110.3937 6.582672" fill-rule="evenodd"/><path stroke="#000000" stroke-width="1.0" stroke-linejoin="round" stroke-linecap="butt" d="m104.900566 189.45872l110.3937 6.582672" fill-rule="evenodd"/><path fill="#000000" fill-opacity="0.0" d="m221.85457 180.16525l-1.4173279 -121.574814" fill-rule="evenodd"/><path stroke="#000000" stroke-width="1.0" stroke-linejoin="round" stroke-linecap="butt" d="m221.85457 180.16525l-1.4173279 -121.574814" fill-rule="evenodd"/><path fill="#000000" fill-opacity="0.0" d="m7.6356516 152.03008l0 0c0 -12.619919 10.23047 -22.850388 22.850395 -22.850388l0 0c6.060299 0 11.872387 2.4074402 16.15767 6.692734c4.2852783 4.2852783 6.6927223 10.097366 6.6927223 16.157654l0 0c0 12.619934 -10.230469 22.850403 -22.850391 22.850403l0 0c-12.619925 0 -22.850395 -10.230469 -22.850395 -22.850403z" fill-rule="evenodd"/><path stroke="#ff0000" stroke-width="1.0" stroke-linejoin="round" stroke-linecap="butt" stroke-dasharray="1.0,3.0" d="m7.6356516 152.03008l0 0c0 -12.619919 10.23047 -22.850388 22.850395 -22.850388l0 0c6.060299 0 11.872387 2.4074402 16.15767 6.692734c4.2852783 4.2852783 6.6927223 10.097366 6.6927223 16.157654l0 0c0 12.619934 -10.230469 22.850403 -22.850391 22.850403l0 0c-12.619925 0 -22.850395 -10.230469 -22.850395 -22.850403z" fill-rule="evenodd"/><path fill="#cfe2f3" d="m551.7034 56.965233l0 0c0 -18.34608 14.872437 -33.218513 33.218506 -33.218513l141.56299 0l0 0c8.810059 0 17.259338 3.4997978 23.489014 9.729477c6.2296753 6.229679 9.729492 14.678936 9.729492 23.489037l0 132.87006c0 18.34607 -14.872437 33.218506 -33.218506 33.218506l-141.56299 0c-18.34607 0 -33.218506 -14.872437 -33.218506 -33.218506z" fill-rule="evenodd"/><path stroke="#000000" stroke-width="1.0" stroke-linejoin="round" stroke-linecap="butt" d="m551.7034 56.965233l0 0c0 -18.34608 14.872437 -33.218513 33.218506 -33.218513l141.56299 0l0 0c8.810059 0 17.259338 3.4997978 23.489014 9.729477c6.2296753 6.229679 9.729492 14.678936 9.729492 23.489037l0 132.87006c0 18.34607 -14.872437 33.218506 -33.218506 33.218506l-141.56299 0c-18.34607 0 -33.218506 -14.872437 -33.218506 -33.218506z" fill-rule="evenodd"/><path fill="#38761d" d="m594.46356 192.76974l0 0c0 -5.1314697 4.159851 -9.291336 9.291321 -9.291336l0 0c2.4642334 0 4.8275146 0.97891235 6.5700073 2.7213745c1.7424316 1.7424622 2.7213745 4.1057434 2.7213745 6.5699615l0 0c0 5.1314697 -4.159912 9.291336 -9.291382 9.291336l0 0c-5.1314697 0 -9.291321 -4.1598663 -9.291321 -9.291336z" fill-rule="evenodd"/><path stroke="#000000" stroke-width="1.0" stroke-linejoin="round" stroke-linecap="butt" d="m594.46356 192.76974l0 0c0 -5.1314697 4.159851 -9.291336 9.291321 -9.291336l0 0c2.4642334 0 4.8275146 0.97891235 6.5700073 2.7213745c1.7424316 1.7424622 2.7213745 4.1057434 2.7213745 6.5699615l0 0c0 5.1314697 -4.159912 9.291336 -9.291382 9.291336l0 0c-5.1314697 0 -9.291321 -4.1598663 -9.291321 -9.291336z" fill-rule="evenodd"/><path fill="#ff00ff" d="m594.46484 104.52859l0 0c0 -5.1314697 4.159851 -9.291344 9.291321 -9.291344l0 0c2.4642334 0 4.8275146 0.9789047 6.5700073 2.7213745c1.7424316 1.7424622 2.7213135 4.105751 2.7213135 6.569969l0 0c0 5.131462 -4.159851 9.291336 -9.291321 9.291336l0 0c-5.1314697 0 -9.291321 -4.159874 -9.291321 -9.291336z" fill-rule="evenodd"/><path stroke="#000000" stroke-width="1.0" stroke-linejoin="round" stroke-linecap="butt" d="m594.46484 104.52859l0 0c0 -5.1314697 4.159851 -9.291344 9.291321 -9.291344l0 0c2.4642334 0 4.8275146 0.9789047 6.5700073 2.7213745c1.7424316 1.7424622 2.7213135 4.105751 2.7213135 6.569969l0 0c0 5.131462 -4.159851 9.291336 -9.291321 9.291336l0 0c-5.1314697 0 -9.291321 -4.159874 -9.291321 -9.291336z" fill-rule="evenodd"/><path fill="#9900ff" d="m565.75836 55.335102l0 0c0 -5.131466 4.159851 -9.29134 9.291321 -9.29134l0 0c2.4642334 0 4.8275146 0.9789047 6.5700073 2.7213707c1.7424316 1.7424622 2.7213135 4.105751 2.7213135 6.569969l0 0c0 5.131462 -4.159851 9.29134 -9.291321 9.29134l0 0c-5.1314697 0 -9.291321 -4.159878 -9.291321 -9.29134z" fill-rule="evenodd"/><path stroke="#000000" stroke-width="1.0" stroke-linejoin="round" stroke-linecap="butt" d="m565.75836 55.335102l0 0c0 -5.131466 4.159851 -9.29134 9.291321 -9.29134l0 0c2.4642334 0 4.8275146 0.9789047 6.5700073 2.7213707c1.7424316 1.7424622 2.7213135 4.105751 2.7213135 6.569969l0 0c0 5.131462 -4.159851 9.29134 -9.291321 9.29134l0 0c-5.1314697 0 -9.291321 -4.159878 -9.291321 -9.29134z" fill-rule="evenodd"/><path fill="#0000ff" d="m385.73642 122.68773l0 0c0 -5.131462 4.159851 -9.291336 9.291321 -9.291336l0 0c2.4642334 0 4.8275146 0.9789047 6.569977 2.721367c1.7424622 1.7424622 2.7213745 4.105751 2.7213745 6.569969l0 0c0 5.131462 -4.1598816 9.291336 -9.291351 9.291336l0 0c-5.1314697 0 -9.291321 -4.159874 -9.291321 -9.291336z" fill-rule="evenodd"/><path stroke="#000000" stroke-width="1.0" stroke-linejoin="round" stroke-linecap="butt" d="m385.73642 122.68773l0 0c0 -5.131462 4.159851 -9.291336 9.291321 -9.291336l0 0c2.4642334 0 4.8275146 0.9789047 6.569977 2.721367c1.7424622 1.7424622 2.7213745 4.105751 2.7213745 6.569969l0 0c0 5.131462 -4.1598816 9.291336 -9.291351 9.291336l0 0c-5.1314697 0 -9.291321 -4.159874 -9.291321 -9.291336z" fill-rule="evenodd"/><path fill="#000000" fill-opacity="0.0" d="m597.1862 97.95862l-15.559082 -36.062996" fill-rule="evenodd"/><path stroke="#000000" stroke-width="1.0" stroke-linejoin="round" stroke-linecap="butt" d="m597.1862 97.95862l-15.559082 -36.062996" fill-rule="evenodd"/><path fill="#000000" fill-opacity="0.0" d="m603.75616 113.81992l0 69.66929" fill-rule="evenodd"/><path stroke="#000000" stroke-width="1.0" stroke-linejoin="round" stroke-linecap="butt" d="m603.75616 113.81992l0 69.66929" fill-rule="evenodd"/><path fill="#b45f06" d="m656.8869 131.223l0 0c0 -5.131462 4.159851 -9.291336 9.291321 -9.291336l0 0c2.4642334 0 4.8275146 0.9789047 6.5699463 2.721367c1.7424927 1.7424698 2.7213745 4.105751 2.7213745 6.569969l0 0c0 5.1314697 -4.159851 9.291336 -9.291321 9.291336l0 0c-5.1314697 0 -9.291321 -4.1598663 -9.291321 -9.291336z" fill-rule="evenodd"/><path stroke="#000000" stroke-width="1.0" stroke-linejoin="round" stroke-linecap="butt" d="m656.8869 131.223l0 0c0 -5.131462 4.159851 -9.291336 9.291321 -9.291336l0 0c2.4642334 0 4.8275146 0.9789047 6.5699463 2.721367c1.7424927 1.7424698 2.7213745 4.105751 2.7213745 6.569969l0 0c0 5.1314697 -4.159851 9.291336 -9.291321 9.291336l0 0c-5.1314697 0 -9.291321 -4.1598663 -9.291321 -9.291336z" fill-rule="evenodd"/><path fill="#a64d79" d="m712.719 55.335102l0 0c0 -5.131466 4.159912 -9.29134 9.291382 -9.29134l0 0c2.4641724 0 4.8275146 0.9789047 6.5699463 2.7213707c1.7424927 1.7424622 2.7213745 4.105751 2.7213745 6.569969l0 0c0 5.131462 -4.159851 9.29134 -9.291321 9.29134l0 0c-5.1314697 0 -9.291382 -4.159878 -9.291382 -9.29134z" fill-rule="evenodd"/><path stroke="#000000" stroke-width="1.0" stroke-linejoin="round" stroke-linecap="butt" d="m712.719 55.335102l0 0c0 -5.131466 4.159912 -9.29134 9.291382 -9.29134l0 0c2.4641724 0 4.8275146 0.9789047 6.5699463 2.7213707c1.7424927 1.7424622 2.7213745 4.105751 2.7213745 6.569969l0 0c0 5.131462 -4.159851 9.29134 -9.291321 9.29134l0 0c-5.1314697 0 -9.291382 -4.159878 -9.291382 -9.29134z" fill-rule="evenodd"/><path fill="#f6b26b" d="m720.7089 192.76761l0 0c0 -5.1314697 4.159851 -9.291336 9.291321 -9.291336l0 0c2.4642334 0 4.8275146 0.9788971 6.5699463 2.7213593c1.7424927 1.7424774 2.7213745 4.1057587 2.7213745 6.569977l0 0c0 5.1314697 -4.159851 9.291336 -9.291321 9.291336l0 0c-5.1314697 0 -9.291321 -4.1598663 -9.291321 -9.291336z" fill-rule="evenodd"/><path stroke="#000000" stroke-width="1.0" stroke-linejoin="round" stroke-linecap="butt" d="m720.7089 192.76761l0 0c0 -5.1314697 4.159851 -9.291336 9.291321 -9.291336l0 0c2.4642334 0 4.8275146 0.9788971 6.5699463 2.7213593c1.7424927 1.7424774 2.7213745 4.1057587 2.7213745 6.569977l0 0c0 5.1314697 -4.159851 9.291336 -9.291321 9.291336l0 0c-5.1314697 0 -9.291321 -4.1598663 -9.291321 -9.291336z" fill-rule="evenodd"/><path fill="#000000" fill-opacity="0.0" d="m610.3262 97.95862l105.102356 -36.062996" fill-rule="evenodd"/><path stroke="#000000" stroke-width="1.0" stroke-linejoin="round" stroke-linecap="butt" d="m610.3262 97.95862l105.102356 -36.062996" fill-rule="evenodd"/><path fill="#000000" fill-opacity="0.0" d="m581.6197 48.765133l131.08661 6.582676" fill-rule="evenodd"/><path stroke="#000000" stroke-width="1.0" stroke-linejoin="round" stroke-linecap="butt" d="m581.6197 48.765133l131.08661 6.582676" fill-rule="evenodd"/><path fill="#000000" fill-opacity="0.0" d="m613.0475 104.52859l43.84253 26.708656" fill-rule="evenodd"/><path stroke="#000000" stroke-width="1.0" stroke-linejoin="round" stroke-linecap="butt" d="m613.0475 104.52859l43.84253 26.708656" fill-rule="evenodd"/><path fill="#000000" fill-opacity="0.0" d="m610.3249 186.19978l55.84247 -45.70079" fill-rule="evenodd"/><path stroke="#000000" stroke-width="1.0" stroke-linejoin="round" stroke-linecap="butt" d="m610.3249 186.19978l55.84247 -45.70079" fill-rule="evenodd"/><path fill="#000000" fill-opacity="0.0" d="m613.04626 192.76974l110.39368 6.582672" fill-rule="evenodd"/><path stroke="#000000" stroke-width="1.0" stroke-linejoin="round" stroke-linecap="butt" d="m613.04626 192.76974l110.39368 6.582672" fill-rule="evenodd"/><path fill="#000000" fill-opacity="0.0" d="m730.00024 183.47627l-1.4173584 -121.57481" fill-rule="evenodd"/><path stroke="#000000" stroke-width="1.0" stroke-linejoin="round" stroke-linecap="butt" d="m730.00024 183.47627l-1.4173584 -121.57481" fill-rule="evenodd"/><path fill="#000000" fill-opacity="0.0" d="m404.3191 122.68773l147.37006 0.724411" fill-rule="evenodd"/><path stroke="#000000" stroke-width="1.0" stroke-linejoin="round" stroke-linecap="butt" d="m404.3191 122.68773l147.37006 0.724411" fill-rule="evenodd"/><path fill="#000000" fill-opacity="0.0" d="m706.4414 192.76892l0 0c0 -12.619919 10.230469 -22.850388 22.850403 -22.850388l0 0c6.0603027 0 11.8723755 2.4074402 16.157654 6.6927185c4.2852783 4.2852936 6.692749 10.097382 6.692749 16.15767l0 0c0 12.619934 -10.230469 22.850403 -22.850403 22.850403l0 0c-12.619934 0 -22.850403 -10.230469 -22.850403 -22.850403z" fill-rule="evenodd"/><path stroke="#ff0000" stroke-width="1.0" stroke-linejoin="round" stroke-linecap="butt" stroke-dasharray="1.0,3.0" d="m706.4414 192.76892l0 0c0 -12.619919 10.230469 -22.850388 22.850403 -22.850388l0 0c6.0603027 0 11.8723755 2.4074402 16.157654 6.6927185c4.2852783 4.2852936 6.692749 10.097382 6.692749 16.15767l0 0c0 12.619934 -10.230469 22.850403 -22.850403 22.850403l0 0c-12.619934 0 -22.850403 -10.230469 -22.850403 -22.850403z" fill-rule="evenodd"/><path fill="#000000" fill-opacity="0.0" d="m381.96063 71.7021l68.28345 0l0 41.606293l-68.28345 0z" fill-rule="evenodd"/><path fill="#000000" d="m398.82 95.512726l1.6875 0.203125q-0.40625 1.484375 -1.484375 2.3125q-1.078125 0.8125 -2.765625 0.8125q-2.125 0 -3.375 -1.296875q-1.234375 -1.3125 -1.234375 -3.671875q0 -2.453125 1.25 -3.796875q1.265625 -1.34375 3.265625 -1.34375q1.9375 0 3.15625 1.328125q1.234375 1.3125 1.234375 3.703125q0 0.15625 0 0.4375l-7.21875 0q0.09375 1.59375 0.90625 2.453125q0.8125 0.84375 2.015625 0.84375q0.90625 0 1.546875 -0.46875q0.640625 -0.484375 1.015625 -1.515625zm-5.390625 -2.65625l5.40625 0q-0.109375 -1.21875 -0.625 -1.828125q-0.78125 -0.953125 -2.03125 -0.953125q-1.125 0 -1.90625 0.765625q-0.765625 0.75 -0.84375 2.015625zm14.860077 5.765625l-1.640625 0l0 -10.453125q-0.59375 0.5625 -1.5625 1.140625q-0.953125 0.5625 -1.71875 0.84375l0 -1.59375q1.375 -0.640625 2.40625 -1.5625q1.03125 -0.921875 1.453125 -1.78125l1.0625 0l0 13.40625z" fill-rule="nonzero"/><path fill="#000000" fill-opacity="0.0" d="m637.96063 15.7021l68.28345 0l0 41.6063l-68.28345 0z" fill-rule="evenodd"/><path fill="#000000" d="m654.52313 42.622097l0 -1.421875q-1.125 1.640625 -3.0625 1.640625q-0.859375 0 -1.609375 -0.328125q-0.734375 -0.328125 -1.09375 -0.828125q-0.359375 -0.5 -0.5 -1.21875q-0.109375 -0.46875 -0.109375 -1.53125l0 -5.984375l1.640625 0l0 5.359375q0 1.28125 0.109375 1.734375q0.15625 0.640625 0.65625 1.015625q0.5 0.375 1.234375 0.375q0.734375 0 1.375 -0.375q0.65625 -0.390625 0.921875 -1.03125q0.265625 -0.65625 0.265625 -1.890625l0 -5.1875l1.640625 0l0 9.671875l-1.46875 0zm9.766357 0l-1.640625 0l0 -10.453125q-0.59375 0.5625 -1.5625 1.140625q-0.953125 0.5625 -1.71875 0.84375l0 -1.59375q1.375 -0.640625 2.40625 -1.5625q1.03125 -0.921875 1.453125 -1.78125l1.0625 0l0 13.40625z" fill-rule="nonzero"/></g></svg>