<svg version="1.1" viewBox="0.0 0.0 818.0 238.0" fill="none" stroke="none" stroke-linecap="square" stroke-miterlimit="10" xmlns:xlink="http://www.w3.org/1999/xlink" xmlns="http://www.w3.org/2000/svg"><clipPath id="p.0"><path d="m0 0l818.0 0l0 238.0l-818.0 0l0 -238.0z" clip-rule="nonzero"/></clipPath><g clip-path="url(#p.0)"><path fill="#000000" fill-opacity="0.0" d="m0 0l818.0 0l0 238.0l-818.0 0z" fill-rule="evenodd"/><path fill="#ff0000" d="m24.30025 176.10599l0 0c0 -3.6790009 2.982418 -6.6614227 6.661417 -6.6614227l0 0c1.7667198 0 3.4610748 0.701828 4.710335 1.9510803c1.2492561 1.2492676 1.9510841 2.9436188 1.9510841 4.7103424l0 0c0 3.6790009 -2.982418 6.6614075 -6.661419 6.6614075l0 0c-3.678999 0 -6.661417 -2.9824066 -6.661417 -6.6614075z" fill-rule="evenodd"/><path stroke="#000000" stroke-width="1.0" stroke-linejoin="round" stroke-linecap="butt" d="m24.30025 176.10599l0 0c0 -3.6790009 2.982418 -6.6614227 6.661417 -6.6614227l0 0c1.7667198 0 3.4610748 0.701828 4.710335 1.9510803c1.2492561 1.2492676 1.9510841 2.9436188 1.9510841 4.7103424l0 0c0 3.6790009 -2.982418 6.6614075 -6.661419 6.6614075l0 0c-3.678999 0 -6.661417 -2.9824066 -6.661417 -6.6614075z" fill-rule="evenodd"/><path fill="#38761d" d="m114.45272 143.6735l0 0c0 -3.6790009 2.9824219 -6.6614227 6.661415 -6.6614227l0 0c1.7667236 0 3.4610748 0.701828 4.710335 1.9510803c1.24926 1.2492676 1.951088 2.9436188 1.951088 4.7103424l0 0c0 3.6790009 -2.9824219 6.6614075 -6.6614227 6.6614075l0 0c-3.6789932 0 -6.661415 -2.9824066 -6.661415 -6.6614075z" fill-rule="evenodd"/><path stroke="#000000" stroke-width="1.0" stroke-linejoin="round" stroke-linecap="butt" d="m114.45272 143.6735l0 0c0 -3.6790009 2.9824219 -6.6614227 6.661415 -6.6614227l0 0c1.7667236 0 3.4610748 0.701828 4.710335 1.9510803c1.24926 1.2492676 1.951088 2.9436188 1.951088 4.7103424l0 0c0 3.6790009 -2.9824219 6.6614075 -6.6614227 6.6614075l0 0c-3.6789932 0 -6.661415 -2.9824066 -6.661415 -6.6614075z" fill-rule="evenodd"/><path fill="#ff00ff" d="m100.635925 65.82948l0 0c0 -3.6790009 2.9824142 -6.661419 6.661415 -6.661419l0 0c1.766716 0 3.4610748 0.7018242 4.710335 1.9510841c1.24926 1.2492561 1.951088 2.9436188 1.951088 4.710335l0 0c0 3.6790009 -2.9824219 6.661415 -6.6614227 6.661415l0 0c-3.6790009 0 -6.661415 -2.9824142 -6.661415 -6.661415z" fill-rule="evenodd"/><path stroke="#000000" stroke-width="1.0" stroke-linejoin="round" stroke-linecap="butt" d="m100.635925 65.82948l0 0c0 -3.6790009 2.9824142 -6.661419 6.661415 -6.661419l0 0c1.766716 0 3.4610748 0.7018242 4.710335 1.9510841c1.24926 1.2492561 1.951088 2.9436188 1.951088 4.710335l0 0c0 3.6790009 -2.9824219 6.661415 -6.6614227 6.661415l0 0c-3.6790009 0 -6.661415 -2.9824142 -6.661415 -6.661415z" fill-rule="evenodd"/><path fill="#9900ff" d="m66.45609 48.341473l0 0c0 -3.6790009 2.9824219 -6.661419 6.6614227 -6.661419l0 0c1.766716 0 3.4610748 0.701828 4.710327 1.9510841c1.24926 1.24926 1.951088 2.9436188 1.951088 4.710335l0 0c0 3.6790009 -2.9824219 6.661419 -6.661415 6.661419l0 0c-3.6790009 0 -6.6614227 -2.982418 -6.6614227 -6.661419z" fill-rule="evenodd"/><path stroke="#000000" stroke-width="1.0" stroke-linejoin="round" stroke-linecap="butt" d="m66.45609 48.341473l0 0c0 -3.6790009 2.9824219 -6.661419 6.6614227 -6.661419l0 0c1.766716 0 3.4610748 0.701828 4.710327 1.9510841c1.24926 1.24926 1.951088 2.9436188 1.951088 4.710335l0 0c0 3.6790009 -2.9824219 6.661419 -6.661415 6.661419l0 0c-3.6790009 0 -6.6614227 -2.982418 -6.6614227 -6.661419z" fill-rule="evenodd"/><path fill="#0000ff" d="m30.946419 74.64514l0 0c0 -3.6790009 2.982418 -6.661415 6.661415 -6.661415l0 0c1.7667198 0 3.4610748 0.7018204 4.710335 1.9510803c1.2492561 1.24926 1.9510841 2.9436188 1.9510841 4.710335l0 0c0 3.6790009 -2.982418 6.661415 -6.661419 6.661415l0 0c-3.678997 0 -6.661415 -2.9824142 -6.661415 -6.661415z" fill-rule="evenodd"/><path stroke="#000000" stroke-width="1.0" stroke-linejoin="round" stroke-linecap="butt" d="m30.946419 74.64514l0 0c0 -3.6790009 2.982418 -6.661415 6.661415 -6.661415l0 0c1.7667198 0 3.4610748 0.7018204 4.710335 1.9510803c1.2492561 1.24926 1.9510841 2.9436188 1.9510841 4.710335l0 0c0 3.6790009 -2.982418 6.661415 -6.661419 6.661415l0 0c-3.678997 0 -6.661415 -2.9824142 -6.661415 -6.661415z" fill-rule="evenodd"/><path fill="#000000" fill-opacity="0.0" d="m33.20134 167.35808l40.97638 0l0 46.614166l-40.97638 0z" fill-rule="evenodd"/><path fill="#000000" d="m42.98259 187.68433q0 -2.359375 0.484375 -3.796875q0.484375 -1.453125 1.4375 -2.234375q0.96875 -0.78125 2.421875 -0.78125q1.078125 0 1.890625 0.4375q0.8125 0.421875 1.328125 1.25q0.53125 0.8125 0.828125 1.984375q0.3125 1.15625 0.3125 3.140625q0 2.359375 -0.484375 3.8125q-0.484375 1.4375 -1.453125 2.234375q-0.953125 0.78125 -2.421875 0.78125q-1.921875 0 -3.03125 -1.390625q-1.3125 -1.671875 -1.3125 -5.4375zm1.671875 0q0 3.296875 0.765625 4.390625q0.78125 1.078125 1.90625 1.078125q1.140625 0 1.90625 -1.09375q0.765625 -1.09375 0.765625 -4.375q0 -3.296875 -0.765625 -4.375q-0.765625 -1.078125 -1.921875 -1.078125q-1.125 0 -1.796875 0.953125q-0.859375 1.21875 -0.859375 4.5z" fill-rule="nonzero"/><path fill="#000000" fill-opacity="0.0" d="m10.039256 36.106712l40.976376 0l0 46.614174l-40.976376 0z" fill-rule="evenodd"/><path fill="#000000" d="m25.99238 63.02671l-1.640625 0l0 -10.453125q-0.59375 0.5625 -1.5625 1.140625q-0.953125 0.5625 -1.71875 0.84375l0 -1.59375q1.375 -0.640625 2.40625 -1.5625q1.03125 -0.921875 1.453125 -1.78125l1.0625 0l0 13.40625z" fill-rule="nonzero"/><path fill="#000000" fill-opacity="0.0" d="m71.80481 12.944706l40.97638 0l0 46.614174l-40.97638 0z" fill-rule="evenodd"/><path fill="#000000" d="m90.195435 38.28658l0 1.578125l-8.828125 0q-0.015625 -0.59375 0.1875 -1.140625q0.34375 -0.90625 1.078125 -1.78125q0.75 -0.875 2.15625 -2.015625q2.171875 -1.78125 2.9375 -2.828125q0.765625 -1.046875 0.765625 -1.96875q0 -0.984375 -0.703125 -1.640625q-0.6875 -0.671875 -1.8125 -0.671875q-1.1875 0 -1.90625 0.71875q-0.703125 0.703125 -0.703125 1.953125l-1.6875 -0.171875q0.171875 -1.890625 1.296875 -2.875q1.140625 -0.984375 3.03125 -0.984375q1.921875 0 3.046875 1.0625q1.125 1.0625 1.125 2.640625q0 0.796875 -0.328125 1.578125q-0.328125 0.78125 -1.09375 1.640625q-0.75 0.84375 -2.53125 2.34375q-1.46875 1.234375 -1.890625 1.6875q-0.421875 0.4375 -0.6875 0.875l6.546875 0z" fill-rule="nonzero"/><path fill="#000000" fill-opacity="0.0" d="m125.84967 121.034065l40.97638 0l0 46.614174l-40.97638 0z" fill-rule="evenodd"/><path fill="#000000" d="m140.88092 147.95406l0 -3.203125l-5.796875 0l0 -1.5l6.09375 -8.65625l1.34375 0l0 8.65625l1.796875 0l0 1.5l-1.796875 0l0 3.203125l-1.640625 0zm0 -4.703125l0 -6.015625l-4.1875 6.015625l4.1875 0z" fill-rule="nonzero"/><path fill="#000000" fill-opacity="0.0" d="m110.40828 43.82738l40.97638 0l0 46.61417l-40.97638 0z" fill-rule="evenodd"/><path fill="#000000" d="m120.18953 67.216125l1.640625 -0.21875q0.28125 1.40625 0.953125 2.015625q0.6875 0.609375 1.65625 0.609375q1.15625 0 1.953125 -0.796875q0.796875 -0.796875 0.796875 -1.984375q0 -1.125 -0.734375 -1.859375q-0.734375 -0.734375 -1.875 -0.734375q-0.46875 0 -1.15625 0.171875l0.1875 -1.4374962q0.15625 0.015625 0.265625 0.015625q1.046875 0 1.875 -0.546875q0.84375 -0.546875 0.84375 -1.671875q0 -0.90625 -0.609375 -1.5q-0.609375 -0.59375 -1.578125 -0.59375q-0.953125 0 -1.59375 0.609375q-0.640625 0.59375 -0.8125 1.796875l-1.640625 -0.296875q0.296875 -1.640625 1.359375 -2.546875q1.0625 -0.90625 2.65625 -0.90625q1.09375 0 2.0 0.46875q0.921875 0.46875 1.40625 1.28125q0.5 0.8125 0.5 1.71875q0 0.859375 -0.46875 1.578125q-0.46875 0.703125 -1.375 1.125q1.1875 0.28125 1.84375 1.1406212q0.65625 0.859375 0.65625 2.15625q0 1.734375 -1.28125 2.953125q-1.265625 1.21875 -3.21875 1.21875q-1.765625 0 -2.921875 -1.046875q-1.15625 -1.046875 -1.328125 -2.71875z" fill-rule="nonzero"/><path fill="#000000" fill-opacity="0.0" d="m32.2303 79.19858c-2.6804123 6.5023956 -15.04011 23.677032 -16.082468 39.01436c-1.0423594 15.337326 8.190262 44.174637 9.828314 53.009567" fill-rule="evenodd"/><path stroke="#000000" stroke-width="1.0" stroke-linejoin="round" stroke-linecap="butt" d="m32.2303 79.19858c-2.6804123 6.5023956 -15.04011 23.67704 -16.082468 39.01436c-0.5211792 7.668663 1.5263863 18.712326 3.9090023 28.943176c1.191309 5.1154327 2.466381 10.027664 3.5460033 14.213226c0.5398121 2.0927734 1.0307617 4.003891 1.4379463 5.6678925l0.20171738 0.8376465" fill-rule="evenodd"/><path fill="#000000" stroke="#000000" stroke-width="1.0" stroke-linecap="butt" d="m25.242502 167.87488l-1.3392563 -0.8577728l1.7599487 2.7773895l0.43707848 -3.2588806z" fill-rule="evenodd"/><path fill="#000000" fill-opacity="0.0" d="m28.955969 168.83887c0.5956936 -8.239227 2.3485794 -34.698853 3.5741634 -49.43541c1.2255859 -14.736565 3.1494522 -32.486633 3.7793427 -38.983963" fill-rule="evenodd"/><path stroke="#000000" stroke-width="1.0" stroke-linejoin="round" stroke-linecap="butt" d="m28.95597 168.83887c0.5956917 -8.239227 2.3485775 -34.698853 3.5741615 -49.43541c0.61279297 -7.3682785 1.4001541 -15.489937 2.1130562 -22.581703c0.35644913 -3.545868 0.69428635 -6.8342743 0.9823761 -9.642281l0.34248734 -3.3499374" fill-rule="evenodd"/><path fill="#000000" stroke="#000000" stroke-width="1.0" stroke-linecap="butt" d="m35.96805 83.82954l1.0069542 1.2310257l-0.8111687 -3.1864395l-1.4268112 2.9623642z" fill-rule="evenodd"/><path fill="#000000" fill-opacity="0.0" d="m45.33458 73.54269c2.2337494 -0.7447281 9.630314 -0.99381256 13.402481 -4.468338c3.7721634 -3.474533 7.692093 -13.649033 9.230507 -16.378838" fill-rule="evenodd"/><path stroke="#000000" stroke-width="1.0" stroke-linejoin="round" stroke-linecap="butt" d="m45.33458 73.54268c2.2337494 -0.74472046 9.630314 -0.99380493 13.402481 -4.4683304c1.8860855 -1.7372665 3.809101 -5.1495247 5.4529114 -8.468697c0.8218994 -1.6595802 1.5739975 -3.2958908 2.216774 -4.6879196l0.064445496 -0.13908005" fill-rule="evenodd"/><path fill="#000000" stroke="#000000" stroke-width="1.0" stroke-linecap="butt" d="m66.47119 55.778652l0.5206909 1.5027504l0.33737183 -3.27071l-2.3608093 2.2886467z" fill-rule="evenodd"/><path fill="#000000" fill-opacity="0.0" d="m67.36843 52.38712c-2.2869186 0.55979156 -9.678528 0.20409775 -13.721489 3.3587532c-4.042961 3.1546516 -8.780228 12.974304 -10.536274 15.56916" fill-rule="evenodd"/><path stroke="#000000" stroke-width="1.0" stroke-linejoin="round" stroke-linecap="butt" d="m67.36843 52.38712c-2.2869186 0.55979156 -9.678528 0.20409775 -13.721489 3.3587532c-2.0214806 1.5773277 -4.2165375 4.820904 -6.1257286 7.994507c-0.9545975 1.5867996 -1.8377266 3.156105 -2.591961 4.4908905l-0.0754509 0.13311005" fill-rule="evenodd"/><path fill="#000000" stroke="#000000" stroke-width="1.0" stroke-linecap="butt" d="m44.8538 68.36438l-0.39624405 -1.5402527l-0.60331726 3.2322388l2.5398102 -2.088234z" fill-rule="evenodd"/><path fill="#000000" fill-opacity="0.0" d="m79.88013 51.80135c1.4890213 2.2337456 5.2611923 11.615398 8.934143 13.402477c3.6729507 1.7870865 10.919647 -2.2333221 13.103577 -2.6799889" fill-rule="evenodd"/><path stroke="#000000" stroke-width="1.0" stroke-linejoin="round" stroke-linecap="butt" d="m79.88013 51.80135c1.4890213 2.2337456 5.2611923 11.615398 8.934143 13.402477c1.8364868 0.8935394 4.566391 0.3352127 7.1101685 -0.5023346c0.6359482 -0.20938873 1.2602615 -0.43623352 1.8560715 -0.6622009c0.2979126 -0.112976074 0.5886841 -0.22574615 0.8702316 -0.33600235l0.043190002 -0.017009735" fill-rule="evenodd"/><path fill="#000000" stroke="#000000" stroke-width="1.0" stroke-linecap="butt" d="m98.693924 63.68628l-0.67646027 1.4393616l2.5251465 -2.105938l-3.2880478 -0.009887695z" fill-rule="evenodd"/><path fill="#000000" fill-opacity="0.0" d="m101.91754 62.701794c-1.4890213 -2.2337456 -5.2611847 -11.615395 -8.934143 -13.402477c-3.6729507 -1.7870827 -10.91964 2.233326 -13.103569 2.6799889" fill-rule="evenodd"/><path stroke="#000000" stroke-width="1.0" stroke-linejoin="round" stroke-linecap="butt" d="m101.91754 62.701794c-1.4890213 -2.2337456 -5.2611923 -11.615395 -8.934143 -13.402477c-1.8364792 -0.8935394 -4.5663834 -0.3352127 -7.1101685 0.5023422c-0.63594055 0.20938492 -1.2602539 0.43622208 -1.8560715 0.6621895c-0.29790497 0.1129837 -0.5886841 0.22574997 -0.8702316 0.33600616l-0.043182373 0.017009735" fill-rule="evenodd"/><path fill="#000000" stroke="#000000" stroke-width="1.0" stroke-linecap="butt" d="m83.103745 50.816864l0.67646027 -1.4393654l-2.5251465 2.1059418l3.2880478 0.009887695z" fill-rule="evenodd"/><path fill="#000000" fill-opacity="0.0" d="m37.59109 176.28241c9.529835 -1.4890289 44.025616 -4.2686462 57.179005 -8.934143c13.153397 -4.665497 18.11779 -15.882355 21.741348 -19.058823" fill-rule="evenodd"/><path stroke="#ff0000" stroke-width="1.0" stroke-linejoin="round" stroke-linecap="butt" d="m37.59109 176.2824c9.529835 -1.4889984 44.025616 -4.268631 57.179005 -8.934128c6.5766983 -2.3327484 11.106148 -6.3033447 14.444366 -10.087799c1.6691055 -1.8922272 3.0404053 -3.737915 4.2209015 -5.3090973c0.14756012 -0.19639587 0.29214478 -0.38850403 0.43395996 -0.57588196l0.38598633 -0.5063629" fill-rule="evenodd"/><path fill="#ff0000" stroke="#ff0000" stroke-width="1.0" stroke-linecap="butt" d="m114.25531 150.86913l0.106170654 1.586853l1.1875534 -3.0661163l-2.880577 1.585434z" fill-rule="evenodd"/><path fill="#000000" fill-opacity="0.0" d="m116.51036 148.28896c-9.529831 1.4890289 -44.02561 4.2686615 -57.179005 8.934143c-13.153393 4.665497 -18.11779 15.882355 -21.741348 19.058838" fill-rule="evenodd"/><path stroke="#000000" stroke-width="1.0" stroke-linejoin="round" stroke-linecap="butt" d="m116.51037 148.28896c-9.529839 1.4890289 -44.02562 4.2686462 -57.179012 8.934158c-6.576702 2.3327484 -11.106148 6.3033295 -14.444366 10.087784c-1.6691055 1.8922272 -3.040409 3.7379303 -4.2209053 5.3090973c-0.14756012 0.19639587 -0.29214478 0.3885193 -0.43394852 0.5758667l-0.38599014 0.5063782" fill-rule="evenodd"/><path fill="#000000" stroke="#000000" stroke-width="1.0" stroke-linecap="butt" d="m39.84614 173.70224l-0.106170654 -1.586853l-1.1875572 3.0661163l2.8805847 -1.585434z" fill-rule="evenodd"/><path fill="#000000" fill-opacity="0.0" d="m122.16679 137.27188c3.2761078 -7.544327 21.542503 -34.39615 19.65664 -45.265976c-1.8858795 -10.869827 -25.80989 -16.627495 -30.971863 -19.952995" fill-rule="evenodd"/><path stroke="#000000" stroke-width="1.0" stroke-linejoin="round" stroke-linecap="butt" d="m122.16679 137.27188c3.2761078 -7.544327 21.542503 -34.39614 19.65664 -45.265976c-0.9429474 -5.4349136 -7.3954163 -9.591789 -14.2574005 -12.805618c-3.4309845 -1.6069183 -6.964363 -2.9780731 -9.962608 -4.155342c-0.37477112 -0.14716339 -0.74118805 -0.2912979 -1.0979996 -0.43247223l-0.19178772 -0.07646179" fill-rule="evenodd"/><path fill="#000000" stroke="#000000" stroke-width="1.0" stroke-linecap="butt" d="m116.9972 73.032364l-4.814804 -0.37444305l3.4476624 3.3817368z" fill-rule="evenodd"/><path fill="#000000" fill-opacity="0.0" d="m112.37645 72.49112c0.93512726 8.171684 3.9292145 38.332542 5.6107483 49.03012c1.6815414 10.697586 3.7320633 12.629471 4.47847 15.155365" fill-rule="evenodd"/><path stroke="#000000" stroke-width="1.0" stroke-linejoin="round" stroke-linecap="butt" d="m112.37644 72.49112c0.9351349 8.171684 3.929222 38.332535 5.6107635 49.03012c0.42037964 2.6744003 0.86382294 4.8009415 1.3041916 6.5258636c0.22019196 0.86247253 0.43959808 1.624527 0.65496826 2.3044739c0.053848267 0.16998291 0.107437134 0.33483887 0.16072083 0.49484253l0.09353638 0.2741394" fill-rule="evenodd"/><path fill="#000000" stroke="#000000" stroke-width="1.0" stroke-linecap="butt" d="m118.671104 131.74411l3.242691 3.5787659l-0.18366241 -4.8258514z" fill-rule="evenodd"/><path fill="#000000" fill-opacity="0.0" d="m34.315872 171.81819c5.807068 -11.416138 28.240788 -49.089653 34.842392 -68.49677c6.6016083 -19.40712 3.972702 -39.95497 4.7672424 -47.945965" fill-rule="evenodd"/><path stroke="#000000" stroke-width="1.0" stroke-linejoin="round" stroke-linecap="butt" d="m34.315872 171.81819c5.807068 -11.416138 28.240788 -49.089653 34.842392 -68.49677c3.3008041 -9.7035675 4.293976 -19.692307 4.5612717 -28.254036c0.1336441 -4.280861 0.08581543 -8.204971 0.054237366 -11.5583c-0.015785217 -1.6766624 -0.027511597 -3.2106323 -0.010467529 -4.575157l0.002532959 -0.13510895" fill-rule="evenodd"/><path fill="#000000" stroke="#000000" stroke-width="1.0" stroke-linecap="butt" d="m73.76584 58.798817l1.0709763 1.1757545l-0.9794159 -3.1388054l-1.2673111 3.0340195z" fill-rule="evenodd"/><path fill="#000000" fill-opacity="0.0" d="m73.92553 55.375454c-3.5243454 6.303547 -14.197014 18.662395 -21.146072 37.821278c-6.9490585 19.158882 -17.123562 64.27667 -20.548271 77.132" fill-rule="evenodd"/><path stroke="#000000" stroke-width="1.0" stroke-linejoin="round" stroke-linecap="butt" d="m73.92553 55.37545c-3.5243454 6.3035507 -14.197014 18.6624 -21.146072 37.82129c-3.474533 9.579437 -7.7554207 25.648598 -11.595764 40.929832c-1.9201736 7.6406097 -3.7302132 15.0842285 -5.27425 21.421158c-0.77202225 3.1684723 -1.4775391 6.060257 -2.0970764 8.561661c-0.15488434 0.6253662 -0.30439377 1.2263184 -0.44822693 1.8011017l-0.27705002 1.099762" fill-rule="evenodd"/><path fill="#000000" stroke="#000000" stroke-width="1.0" stroke-linecap="butt" d="m33.08709 167.01025l-0.8080864 -1.369812l0.31728745 3.2727203l1.8606071 -2.7109985z" fill-rule="evenodd"/><path fill="#ff0000" d="m240.30025 176.10599l0 0c0 -3.6790009 2.9824219 -6.6614227 6.6614227 -6.6614227l0 0c1.7667084 0 3.4610748 0.701828 4.710327 1.9510803c1.2492676 1.2492676 1.9510803 2.9436188 1.9510803 4.7103424l0 0c0 3.6790009 -2.9824066 6.6614075 -6.6614075 6.6614075l0 0c-3.6790009 0 -6.6614227 -2.9824066 -6.6614227 -6.6614075z" fill-rule="evenodd"/><path stroke="#000000" stroke-width="1.0" stroke-linejoin="round" stroke-linecap="butt" d="m240.30025 176.10599l0 0c0 -3.6790009 2.9824219 -6.6614227 6.6614227 -6.6614227l0 0c1.7667084 0 3.4610748 0.701828 4.710327 1.9510803c1.2492676 1.2492676 1.9510803 2.9436188 1.9510803 4.7103424l0 0c0 3.6790009 -2.9824066 6.6614075 -6.6614075 6.6614075l0 0c-3.6790009 0 -6.6614227 -2.9824066 -6.6614227 -6.6614075z" fill-rule="evenodd"/><path fill="#38761d" d="m330.45273 143.6735l0 0c0 -3.6790009 2.9824219 -6.6614227 6.6614075 -6.6614227l0 0c1.7667236 0 3.46109 0.701828 4.710327 1.9510803c1.2492676 1.2492676 1.9510803 2.9436188 1.9510803 4.7103424l0 0c0 3.6790009 -2.9823914 6.6614075 -6.6614075 6.6614075l0 0c-3.6789856 0 -6.6614075 -2.9824066 -6.6614075 -6.6614075z" fill-rule="evenodd"/><path stroke="#000000" stroke-width="1.0" stroke-linejoin="round" stroke-linecap="butt" d="m330.45273 143.6735l0 0c0 -3.6790009 2.9824219 -6.6614227 6.6614075 -6.6614227l0 0c1.7667236 0 3.46109 0.701828 4.710327 1.9510803c1.2492676 1.2492676 1.9510803 2.9436188 1.9510803 4.7103424l0 0c0 3.6790009 -2.9823914 6.6614075 -6.6614075 6.6614075l0 0c-3.6789856 0 -6.6614075 -2.9824066 -6.6614075 -6.6614075z" fill-rule="evenodd"/><path fill="#ff00ff" d="m316.63593 65.82948l0 0c0 -3.6790009 2.9824219 -6.661419 6.6614075 -6.661419l0 0c1.7667236 0 3.46109 0.7018242 4.7103577 1.9510841c1.2492371 1.2492561 1.9510803 2.9436188 1.9510803 4.710335l0 0c0 3.6790009 -2.9824219 6.661415 -6.661438 6.661415l0 0c-3.6789856 0 -6.6614075 -2.9824142 -6.6614075 -6.661415z" fill-rule="evenodd"/><path stroke="#000000" stroke-width="1.0" stroke-linejoin="round" stroke-linecap="butt" d="m316.63593 65.82948l0 0c0 -3.6790009 2.9824219 -6.661419 6.6614075 -6.661419l0 0c1.7667236 0 3.46109 0.7018242 4.7103577 1.9510841c1.2492371 1.2492561 1.9510803 2.9436188 1.9510803 4.710335l0 0c0 3.6790009 -2.9824219 6.661415 -6.661438 6.661415l0 0c-3.6789856 0 -6.6614075 -2.9824142 -6.6614075 -6.661415z" fill-rule="evenodd"/><path fill="#9900ff" d="m282.4561 48.341473l0 0c0 -3.6790009 2.9824219 -6.661419 6.661438 -6.661419l0 0c1.7666931 0 3.4610596 0.701828 4.710327 1.9510841c1.2492676 1.24926 1.9510803 2.9436188 1.9510803 4.710335l0 0c0 3.6790009 -2.9824219 6.661419 -6.6614075 6.661419l0 0c-3.679016 0 -6.661438 -2.982418 -6.661438 -6.661419z" fill-rule="evenodd"/><path stroke="#000000" stroke-width="1.0" stroke-linejoin="round" stroke-linecap="butt" d="m282.4561 48.341473l0 0c0 -3.6790009 2.9824219 -6.661419 6.661438 -6.661419l0 0c1.7666931 0 3.4610596 0.701828 4.710327 1.9510841c1.2492676 1.24926 1.9510803 2.9436188 1.9510803 4.710335l0 0c0 3.6790009 -2.9824219 6.661419 -6.6614075 6.661419l0 0c-3.679016 0 -6.661438 -2.982418 -6.661438 -6.661419z" fill-rule="evenodd"/><path fill="#0000ff" d="m246.94641 74.64514l0 0c0 -3.6790009 2.9824219 -6.661415 6.6614227 -6.661415l0 0c1.7667236 0 3.4610748 0.7018204 4.7103424 1.9510803c1.2492371 1.24926 1.9510803 2.9436188 1.9510803 4.710335l0 0c0 3.6790009 -2.9824219 6.661415 -6.6614227 6.661415l0 0c-3.6790009 0 -6.6614227 -2.9824142 -6.6614227 -6.661415z" fill-rule="evenodd"/><path stroke="#000000" stroke-width="1.0" stroke-linejoin="round" stroke-linecap="butt" d="m246.94641 74.64514l0 0c0 -3.6790009 2.9824219 -6.661415 6.6614227 -6.661415l0 0c1.7667236 0 3.4610748 0.7018204 4.7103424 1.9510803c1.2492371 1.24926 1.9510803 2.9436188 1.9510803 4.710335l0 0c0 3.6790009 -2.9824219 6.661415 -6.6614227 6.661415l0 0c-3.6790009 0 -6.6614227 -2.9824142 -6.6614227 -6.661415z" fill-rule="evenodd"/><path fill="#000000" fill-opacity="0.0" d="m249.20134 167.35808l40.976364 0l0 46.614166l-40.976364 0z" fill-rule="evenodd"/><path fill="#000000" d="m258.98257 187.68433q0 -2.359375 0.484375 -3.796875q0.484375 -1.453125 1.4375 -2.234375q0.96875 -0.78125 2.421875 -0.78125q1.078125 0 1.890625 0.4375q0.8125 0.421875 1.328125 1.25q0.53125 0.8125 0.828125 1.984375q0.3125 1.15625 0.3125 3.140625q0 2.359375 -0.484375 3.8125q-0.484375 1.4375 -1.453125 2.234375q-0.953125 0.78125 -2.421875 0.78125q-1.921875 0 -3.03125 -1.390625q-1.3125 -1.671875 -1.3125 -5.4375zm1.671875 0q0 3.296875 0.765625 4.390625q0.78125 1.078125 1.90625 1.078125q1.140625 0 1.90625 -1.09375q0.765625 -1.09375 0.765625 -4.375q0 -3.296875 -0.765625 -4.375q-0.765625 -1.078125 -1.921875 -1.078125q-1.125 0 -1.796875 0.953125q-0.859375 1.21875 -0.859375 4.5z" fill-rule="nonzero"/><path fill="#000000" fill-opacity="0.0" d="m226.03926 36.106712l40.976364 0l0 46.614174l-40.976364 0z" fill-rule="evenodd"/><path fill="#000000" d="m241.99239 63.02671l-1.640625 0l0 -10.453125q-0.59375 0.5625 -1.5625 1.140625q-0.953125 0.5625 -1.71875 0.84375l0 -1.59375q1.375 -0.640625 2.40625 -1.5625q1.03125 -0.921875 1.453125 -1.78125l1.0625 0l0 13.40625z" fill-rule="nonzero"/><path fill="#000000" fill-opacity="0.0" d="m287.8048 12.944706l40.97638 0l0 46.614174l-40.97638 0z" fill-rule="evenodd"/><path fill="#000000" d="m306.19543 38.28658l0 1.578125l-8.828125 0q-0.015625 -0.59375 0.1875 -1.140625q0.34375 -0.90625 1.078125 -1.78125q0.75 -0.875 2.15625 -2.015625q2.171875 -1.78125 2.9375 -2.828125q0.765625 -1.046875 0.765625 -1.96875q0 -0.984375 -0.703125 -1.640625q-0.6875 -0.671875 -1.8125 -0.671875q-1.1875 0 -1.90625 0.71875q-0.703125 0.703125 -0.703125 1.953125l-1.6875 -0.171875q0.171875 -1.890625 1.296875 -2.875q1.140625 -0.984375 3.03125 -0.984375q1.921875 0 3.046875 1.0625q1.125 1.0625 1.125 2.640625q0 0.796875 -0.328125 1.578125q-0.328125 0.78125 -1.09375 1.640625q-0.75 0.84375 -2.53125 2.34375q-1.46875 1.234375 -1.890625 1.6875q-0.421875 0.4375 -0.6875 0.875l6.546875 0z" fill-rule="nonzero"/><path fill="#000000" fill-opacity="0.0" d="m341.84967 121.034065l40.97638 0l0 46.614174l-40.97638 0z" fill-rule="evenodd"/><path fill="#000000" d="m356.88092 147.95406l0 -3.203125l-5.796875 0l0 -1.5l6.09375 -8.65625l1.34375 0l0 8.65625l1.796875 0l0 1.5l-1.796875 0l0 3.203125l-1.640625 0zm0 -4.703125l0 -6.015625l-4.1875 6.015625l4.1875 0z" fill-rule="nonzero"/><path fill="#000000" fill-opacity="0.0" d="m326.4083 43.82738l40.97635 0l0 46.61417l-40.97635 0z" fill-rule="evenodd"/><path fill="#000000" d="m336.18954 67.216125l1.640625 -0.21875q0.28125 1.40625 0.953125 2.015625q0.6875 0.609375 1.65625 0.609375q1.15625 0 1.953125 -0.796875q0.796875 -0.796875 0.796875 -1.984375q0 -1.125 -0.734375 -1.859375q-0.734375 -0.734375 -1.875 -0.734375q-0.46875 0 -1.15625 0.171875l0.1875 -1.4374962q0.15625 0.015625 0.265625 0.015625q1.046875 0 1.875 -0.546875q0.84375 -0.546875 0.84375 -1.671875q0 -0.90625 -0.609375 -1.5q-0.609375 -0.59375 -1.578125 -0.59375q-0.953125 0 -1.59375 0.609375q-0.640625 0.59375 -0.8125 1.796875l-1.640625 -0.296875q0.296875 -1.640625 1.359375 -2.546875q1.0625 -0.90625 2.65625 -0.90625q1.09375 0 2.0 0.46875q0.921875 0.46875 1.40625 1.28125q0.5 0.8125 0.5 1.71875q0 0.859375 -0.46875 1.578125q-0.46875 0.703125 -1.375 1.125q1.1875 0.28125 1.84375 1.1406212q0.65625 0.859375 0.65625 2.15625q0 1.734375 -1.28125 2.953125q-1.265625 1.21875 -3.21875 1.21875q-1.765625 0 -2.921875 -1.046875q-1.15625 -1.046875 -1.328125 -2.71875z" fill-rule="nonzero"/><path fill="#000000" fill-opacity="0.0" d="m248.2303 79.19858c-2.68042 6.5023956 -15.040115 23.677032 -16.082474 39.01436c-1.0423584 15.337326 8.190262 44.174637 9.828323 53.009567" fill-rule="evenodd"/><path stroke="#000000" stroke-width="1.0" stroke-linejoin="round" stroke-linecap="butt" d="m248.2303 79.19858c-2.6804047 6.5023956 -15.040115 23.67704 -16.082474 39.01436c-0.5211792 7.668663 1.5263824 18.712326 3.9090118 28.943176c1.1913147 5.1154327 2.4663696 10.027664 3.54599 14.213226c0.53982544 2.0927734 1.0307617 4.003891 1.4379578 5.6678925l0.20170593 0.8376465" fill-rule="evenodd"/><path fill="#000000" stroke="#000000" stroke-width="1.0" stroke-linecap="butt" d="m241.24251 167.87488l-1.3392639 -0.8577728l1.7599487 2.7773895l0.437088 -3.2588806z" fill-rule="evenodd"/><path fill="#000000" fill-opacity="0.0" d="m244.95596 168.83887c0.5957031 -8.239227 2.348587 -34.698853 3.574173 -49.43541c1.2255859 -14.736565 3.1494446 -32.486633 3.7793427 -38.983963" fill-rule="evenodd"/><path stroke="#ff0000" stroke-width="1.0" stroke-linejoin="round" stroke-linecap="butt" d="m244.95598 168.83887c0.59568787 -8.239227 2.3485718 -34.698853 3.5741577 -49.43541c0.61279297 -7.3682785 1.4001465 -15.489937 2.1130524 -22.581703c0.3564453 -3.545868 0.69429016 -6.8342743 0.98236084 -9.642281l0.34249878 -3.3499374" fill-rule="evenodd"/><path fill="#ff0000" stroke="#ff0000" stroke-width="1.0" stroke-linecap="butt" d="m251.96805 83.82954l1.0069427 1.2310257l-0.8111725 -3.1864395l-1.4268036 2.9623642z" fill-rule="evenodd"/><path fill="#000000" fill-opacity="0.0" d="m261.3346 73.54269c2.2337341 -0.7447281 9.63031 -0.99381256 13.402466 -4.468338c3.7721558 -3.474533 7.6920776 -13.649033 9.230499 -16.378838" fill-rule="evenodd"/><path stroke="#ff0000" stroke-width="1.0" stroke-linejoin="round" stroke-linecap="butt" d="m261.3346 73.54268c2.2337341 -0.74472046 9.63031 -0.99380493 13.402466 -4.4683304c1.8861084 -1.7372665 3.8091125 -5.1495247 5.4529114 -8.468697c0.8218994 -1.6595802 1.5740051 -3.2958908 2.2167664 -4.6879196l0.064453125 -0.13907623" fill-rule="evenodd"/><path fill="#ff0000" stroke="#ff0000" stroke-width="1.0" stroke-linecap="butt" d="m282.4712 55.778652l0.5206909 1.5027504l0.33737183 -3.27071l-2.3608093 2.2886543z" fill-rule="evenodd"/><path fill="#000000" fill-opacity="0.0" d="m283.36844 52.38712c-2.2869263 0.55979156 -9.678528 0.20409775 -13.721497 3.3587532c-4.0429688 3.1546516 -8.780243 12.974304 -10.536285 15.56916" fill-rule="evenodd"/><path stroke="#000000" stroke-width="1.0" stroke-linejoin="round" stroke-linecap="butt" d="m283.36844 52.38712c-2.2869263 0.55979156 -9.678528 0.20409775 -13.721497 3.3587532c-2.0214844 1.5773277 -4.216522 4.820904 -6.1257324 7.994507c-0.95458984 1.5867996 -1.837738 3.156105 -2.5919495 4.4908905l-0.07546997 0.13311005" fill-rule="evenodd"/><path fill="#000000" stroke="#000000" stroke-width="1.0" stroke-linecap="butt" d="m260.8538 68.36438l-0.39624023 -1.5402527l-0.603302 3.2322388l2.539795 -2.088234z" fill-rule="evenodd"/><path fill="#000000" fill-opacity="0.0" d="m295.88013 51.80135c1.4890137 2.2337456 5.2612 11.615398 8.934143 13.402477c3.672943 1.7870865 10.919647 -2.2333221 13.103577 -2.6799889" fill-rule="evenodd"/><path stroke="#ff0000" stroke-width="1.0" stroke-linejoin="round" stroke-linecap="butt" d="m295.88013 51.80135c1.4890442 2.2337456 5.2612 11.615398 8.934143 13.402477c1.8364868 0.8935394 4.5663757 0.3352127 7.1101685 -0.5023346c0.6359558 -0.20938873 1.2602844 -0.43623352 1.8560791 -0.6622009c0.29788208 -0.112976074 0.5886841 -0.22574615 0.87023926 -0.33600235l0.043151855 -0.017002106" fill-rule="evenodd"/><path fill="#ff0000" stroke="#ff0000" stroke-width="1.0" stroke-linecap="butt" d="m314.6939 63.686283l-0.67645264 1.4393654l2.5251465 -2.1059418l-3.2880554 -0.009887695z" fill-rule="evenodd"/><path fill="#000000" fill-opacity="0.0" d="m317.91754 62.701794c-1.4890137 -2.2337456 -5.2612 -11.615395 -8.934143 -13.402477c-3.672943 -1.7870827 -10.919647 2.233326 -13.103577 2.6799889" fill-rule="evenodd"/><path stroke="#000000" stroke-width="1.0" stroke-linejoin="round" stroke-linecap="butt" d="m317.91754 62.701794c-1.4890137 -2.2337456 -5.2612 -11.615395 -8.934143 -13.402477c-1.8364563 -0.8935394 -4.5663757 -0.3352127 -7.1101685 0.5023422c-0.6359558 0.20938492 -1.2602539 0.43622208 -1.8560791 0.6621895c-0.2979126 0.1129837 -0.5886841 0.22574997 -0.87023926 0.33600616l-0.043182373 0.017009735" fill-rule="evenodd"/><path fill="#000000" stroke="#000000" stroke-width="1.0" stroke-linecap="butt" d="m299.10373 50.816864l0.67648315 -1.4393654l-2.5251465 2.1059418l3.288025 0.00989151z" fill-rule="evenodd"/><path fill="#000000" fill-opacity="0.0" d="m253.5911 176.28241c9.529816 -1.4890289 44.025604 -4.2686462 57.179016 -8.934143c13.153381 -4.665497 18.117767 -15.882355 21.741333 -19.058823" fill-rule="evenodd"/><path stroke="#000000" stroke-width="1.0" stroke-linejoin="round" stroke-linecap="butt" d="m253.59108 176.2824c9.529831 -1.4889984 44.02565 -4.268631 57.179 -8.934128c6.5766907 -2.3327484 11.106171 -6.3033447 14.444397 -10.087799c1.6690979 -1.8922272 3.0404053 -3.737915 4.220886 -5.3090973c0.14755249 -0.19639587 0.29214478 -0.38850403 0.43395996 -0.57588196l0.38598633 -0.5063629" fill-rule="evenodd"/><path fill="#000000" stroke="#000000" stroke-width="1.0" stroke-linecap="butt" d="m330.2553 150.86913l0.106170654 1.586853l1.187561 -3.0661163l-2.8805847 1.585434z" fill-rule="evenodd"/><path fill="#000000" fill-opacity="0.0" d="m332.51038 148.28896c-9.529846 1.4890289 -44.025635 4.2686615 -57.179016 8.934143c-13.153412 4.665497 -18.117798 15.882355 -21.741348 19.058838" fill-rule="evenodd"/><path stroke="#000000" stroke-width="1.0" stroke-linejoin="round" stroke-linecap="butt" d="m332.51035 148.28896c-9.529816 1.4890289 -44.025604 4.2686462 -57.178986 8.934158c-6.5766907 2.3327484 -11.10614 6.3033295 -14.444366 10.087784c-1.6690979 1.8922272 -3.0404053 3.7379303 -4.220886 5.3090973c-0.14758301 0.19639587 -0.29214478 0.3885193 -0.43395996 0.5758667l-0.3860016 0.5063782" fill-rule="evenodd"/><path fill="#000000" stroke="#000000" stroke-width="1.0" stroke-linecap="butt" d="m255.84615 173.70224l-0.106170654 -1.586853l-1.1875458 3.0661163l2.8805847 -1.585434z" fill-rule="evenodd"/><path fill="#000000" fill-opacity="0.0" d="m338.16678 137.27188c3.276123 -7.544327 21.542511 -34.39615 19.656647 -45.265976c-1.8858643 -10.869827 -25.809875 -16.627495 -30.971863 -19.952995" fill-rule="evenodd"/><path stroke="#000000" stroke-width="1.0" stroke-linejoin="round" stroke-linecap="butt" d="m338.16678 137.27188c3.276123 -7.544327 21.542511 -34.39614 19.656616 -45.265976c-0.9429016 -5.4349136 -7.3954163 -9.591789 -14.257355 -12.805618c-3.4309998 -1.6069183 -6.964386 -2.9780731 -9.962616 -4.155342c-0.37478638 -0.14716339 -0.74121094 -0.2912979 -1.0980225 -0.43247223l-0.19177246 -0.07646179" fill-rule="evenodd"/><path fill="#000000" stroke="#000000" stroke-width="1.0" stroke-linecap="butt" d="m332.9972 73.032364l-4.814789 -0.37444305l3.4476624 3.3817368z" fill-rule="evenodd"/><path fill="#000000" fill-opacity="0.0" d="m328.37643 72.49112c0.93515015 8.171684 3.9292297 38.332542 5.610779 49.03012c1.6815186 10.697586 3.7320557 12.629471 4.4784546 15.155365" fill-rule="evenodd"/><path stroke="#ff0000" stroke-width="1.0" stroke-linejoin="round" stroke-linecap="butt" d="m328.37646 72.49112c0.9351196 8.171684 3.9291992 38.332535 5.6107483 49.03012c0.42037964 2.6744003 0.86383057 4.8009415 1.3041992 6.5258636c0.22018433 0.86247253 0.4395752 1.624527 0.65493774 2.3044739c0.053863525 0.16998291 0.10745239 0.33483887 0.16073608 0.49484253l0.09353638 0.2741394" fill-rule="evenodd"/><path fill="#ff0000" stroke="#ff0000" stroke-width="1.0" stroke-linecap="butt" d="m334.6711 131.74411l3.2426758 3.5787659l-0.18365479 -4.8258514z" fill-rule="evenodd"/><path fill="#000000" fill-opacity="0.0" d="m250.31587 171.81819c5.8070526 -11.416138 28.240799 -49.089653 34.842392 -68.49677c6.601593 -19.40712 3.9726868 -39.95497 4.7672424 -47.945965" fill-rule="evenodd"/><path stroke="#000000" stroke-width="1.0" stroke-linejoin="round" stroke-linecap="butt" d="m250.31589 171.81819c5.8070374 -11.416138 28.240784 -49.089653 34.842377 -68.49677c3.3008118 -9.7035675 4.293976 -19.692307 4.5612793 -28.254036c0.13363647 -4.280861 0.08581543 -8.204971 0.054229736 -11.5583c-0.015777588 -1.6766624 -0.027496338 -3.2106323 -0.010467529 -4.575157l0.002532959 -0.13510895" fill-rule="evenodd"/><path fill="#000000" stroke="#000000" stroke-width="1.0" stroke-linecap="butt" d="m289.76584 58.798817l1.0709839 1.1757545l-0.97943115 -3.1388054l-1.2673035 3.0340195z" fill-rule="evenodd"/><path fill="#000000" fill-opacity="0.0" d="m289.92554 55.375454c-3.524353 6.303547 -14.1970215 18.662395 -21.146088 37.821278c-6.949066 19.158882 -17.12355 64.27667 -20.548264 77.132" fill-rule="evenodd"/><path stroke="#000000" stroke-width="1.0" stroke-linejoin="round" stroke-linecap="butt" d="m289.92554 55.37545c-3.524353 6.3035507 -14.1970215 18.6624 -21.146057 37.82129c-3.4745483 9.579437 -7.7554626 25.648598 -11.595795 40.929832c-1.920166 7.6406097 -3.7302094 15.0842285 -5.274231 21.421158c-0.7720337 3.1684723 -1.4775543 6.060257 -2.0970917 8.561661c-0.15487671 0.6253662 -0.30441284 1.2263184 -0.44822693 1.8011017l-0.27705383 1.099762" fill-rule="evenodd"/><path fill="#000000" stroke="#000000" stroke-width="1.0" stroke-linecap="butt" d="m249.08708 167.01025l-0.8080902 -1.369812l0.31729126 3.2727203l1.860611 -2.7109985z" fill-rule="evenodd"/><path fill="#ff0000" d="m456.30026 176.10599l0 0c0 -3.6790009 2.9823914 -6.6614227 6.6614075 -6.6614227l0 0c1.7667236 0 3.4610596 0.701828 4.710327 1.9510803c1.2492676 1.2492676 1.9510803 2.9436188 1.9510803 4.7103424l0 0c0 3.6790009 -2.9824219 6.6614075 -6.6614075 6.6614075l0 0c-3.679016 0 -6.6614075 -2.9824066 -6.6614075 -6.6614075z" fill-rule="evenodd"/><path stroke="#000000" stroke-width="1.0" stroke-linejoin="round" stroke-linecap="butt" d="m456.30026 176.10599l0 0c0 -3.6790009 2.9823914 -6.6614227 6.6614075 -6.6614227l0 0c1.7667236 0 3.4610596 0.701828 4.710327 1.9510803c1.2492676 1.2492676 1.9510803 2.9436188 1.9510803 4.7103424l0 0c0 3.6790009 -2.9824219 6.6614075 -6.6614075 6.6614075l0 0c-3.679016 0 -6.6614075 -2.9824066 -6.6614075 -6.6614075z" fill-rule="evenodd"/><path fill="#38761d" d="m546.4527 143.6735l0 0c0 -3.6790009 2.9824219 -6.6614227 6.661438 -6.6614227l0 0c1.7667236 0 3.4610596 0.701828 4.710327 1.9510803c1.2492676 1.2492676 1.9511108 2.9436188 1.9511108 4.7103424l0 0c0 3.6790009 -2.9824219 6.6614075 -6.661438 6.6614075l0 0c-3.679016 0 -6.661438 -2.9824066 -6.661438 -6.6614075z" fill-rule="evenodd"/><path stroke="#000000" stroke-width="1.0" stroke-linejoin="round" stroke-linecap="butt" d="m546.4527 143.6735l0 0c0 -3.6790009 2.9824219 -6.6614227 6.661438 -6.6614227l0 0c1.7667236 0 3.4610596 0.701828 4.710327 1.9510803c1.2492676 1.2492676 1.9511108 2.9436188 1.9511108 4.7103424l0 0c0 3.6790009 -2.9824219 6.6614075 -6.661438 6.6614075l0 0c-3.679016 0 -6.661438 -2.9824066 -6.661438 -6.6614075z" fill-rule="evenodd"/><path fill="#ff00ff" d="m532.6359 65.82948l0 0c0 -3.6790009 2.9824219 -6.661419 6.661438 -6.661419l0 0c1.7667236 0 3.4610596 0.7018242 4.710327 1.9510841c1.2492676 1.2492561 1.9510498 2.9436188 1.9510498 4.710335l0 0c0 3.6790009 -2.9824219 6.661415 -6.661377 6.661415l0 0c-3.679016 0 -6.661438 -2.9824142 -6.661438 -6.661415z" fill-rule="evenodd"/><path stroke="#000000" stroke-width="1.0" stroke-linejoin="round" stroke-linecap="butt" d="m532.6359 65.82948l0 0c0 -3.6790009 2.9824219 -6.661419 6.661438 -6.661419l0 0c1.7667236 0 3.4610596 0.7018242 4.710327 1.9510841c1.2492676 1.2492561 1.9510498 2.9436188 1.9510498 4.710335l0 0c0 3.6790009 -2.9824219 6.661415 -6.661377 6.661415l0 0c-3.679016 0 -6.661438 -2.9824142 -6.661438 -6.661415z" fill-rule="evenodd"/><path fill="#9900ff" d="m498.4561 48.341473l0 0c0 -3.6790009 2.9824219 -6.661419 6.661438 -6.661419l0 0c1.7666931 0 3.4610596 0.701828 4.710327 1.9510841c1.2492676 1.24926 1.9510803 2.9436188 1.9510803 4.710335l0 0c0 3.6790009 -2.9824219 6.661419 -6.6614075 6.661419l0 0c-3.679016 0 -6.661438 -2.982418 -6.661438 -6.661419z" fill-rule="evenodd"/><path stroke="#000000" stroke-width="1.0" stroke-linejoin="round" stroke-linecap="butt" d="m498.4561 48.341473l0 0c0 -3.6790009 2.9824219 -6.661419 6.661438 -6.661419l0 0c1.7666931 0 3.4610596 0.701828 4.710327 1.9510841c1.2492676 1.24926 1.9510803 2.9436188 1.9510803 4.710335l0 0c0 3.6790009 -2.9824219 6.661419 -6.6614075 6.661419l0 0c-3.679016 0 -6.661438 -2.982418 -6.661438 -6.661419z" fill-rule="evenodd"/><path fill="#0000ff" d="m462.9464 74.64514l0 0c0 -3.6790009 2.9824219 -6.661415 6.661438 -6.661415l0 0c1.7666931 0 3.4610596 0.7018204 4.710327 1.9510803c1.2492371 1.24926 1.9510803 2.9436188 1.9510803 4.710335l0 0c0 3.6790009 -2.9824219 6.661415 -6.6614075 6.661415l0 0c-3.679016 0 -6.661438 -2.9824142 -6.661438 -6.661415z" fill-rule="evenodd"/><path stroke="#000000" stroke-width="1.0" stroke-linejoin="round" stroke-linecap="butt" d="m462.9464 74.64514l0 0c0 -3.6790009 2.9824219 -6.661415 6.661438 -6.661415l0 0c1.7666931 0 3.4610596 0.7018204 4.710327 1.9510803c1.2492371 1.24926 1.9510803 2.9436188 1.9510803 4.710335l0 0c0 3.6790009 -2.9824219 6.661415 -6.6614075 6.661415l0 0c-3.679016 0 -6.661438 -2.9824142 -6.661438 -6.661415z" fill-rule="evenodd"/><path fill="#000000" fill-opacity="0.0" d="m465.20132 167.35808l40.97638 0l0 46.614166l-40.97638 0z" fill-rule="evenodd"/><path fill="#000000" d="m474.98257 187.68433q0 -2.359375 0.484375 -3.796875q0.484375 -1.453125 1.4375 -2.234375q0.96875 -0.78125 2.421875 -0.78125q1.078125 0 1.890625 0.4375q0.8125 0.421875 1.328125 1.25q0.53125 0.8125 0.828125 1.984375q0.3125 1.15625 0.3125 3.140625q0 2.359375 -0.484375 3.8125q-0.484375 1.4375 -1.453125 2.234375q-0.953125 0.78125 -2.421875 0.78125q-1.921875 0 -3.03125 -1.390625q-1.3125 -1.671875 -1.3125 -5.4375zm1.671875 0q0 3.296875 0.765625 4.390625q0.78125 1.078125 1.90625 1.078125q1.140625 0 1.90625 -1.09375q0.765625 -1.09375 0.765625 -4.375q0 -3.296875 -0.765625 -4.375q-0.765625 -1.078125 -1.921875 -1.078125q-1.125 0 -1.796875 0.953125q-0.859375 1.21875 -0.859375 4.5z" fill-rule="nonzero"/><path fill="#000000" fill-opacity="0.0" d="m442.03925 36.106712l40.97638 0l0 46.614174l-40.97638 0z" fill-rule="evenodd"/><path fill="#000000" d="m457.99237 63.02671l-1.640625 0l0 -10.453125q-0.59375 0.5625 -1.5625 1.140625q-0.953125 0.5625 -1.71875 0.84375l0 -1.59375q1.375 -0.640625 2.40625 -1.5625q1.03125 -0.921875 1.453125 -1.78125l1.0625 0l0 13.40625z" fill-rule="nonzero"/><path fill="#000000" fill-opacity="0.0" d="m503.8048 12.944706l40.97638 0l0 46.614174l-40.97638 0z" fill-rule="evenodd"/><path fill="#000000" d="m522.19543 38.28658l0 1.578125l-8.828125 0q-0.015625 -0.59375 0.1875 -1.140625q0.34375 -0.90625 1.078125 -1.78125q0.75 -0.875 2.15625 -2.015625q2.171875 -1.78125 2.9375 -2.828125q0.765625 -1.046875 0.765625 -1.96875q0 -0.984375 -0.703125 -1.640625q-0.6875 -0.671875 -1.8125 -0.671875q-1.1875 0 -1.90625 0.71875q-0.703125 0.703125 -0.703125 1.953125l-1.6875 -0.171875q0.171875 -1.890625 1.296875 -2.875q1.140625 -0.984375 3.03125 -0.984375q1.921875 0 3.046875 1.0625q1.125 1.0625 1.125 2.640625q0 0.796875 -0.328125 1.578125q-0.328125 0.78125 -1.09375 1.640625q-0.75 0.84375 -2.53125 2.34375q-1.46875 1.234375 -1.890625 1.6875q-0.421875 0.4375 -0.6875 0.875l6.546875 0z" fill-rule="nonzero"/><path fill="#000000" fill-opacity="0.0" d="m557.8497 121.034065l40.97638 0l0 46.614174l-40.97638 0z" fill-rule="evenodd"/><path fill="#000000" d="m572.8809 147.95406l0 -3.203125l-5.796875 0l0 -1.5l6.09375 -8.65625l1.34375 0l0 8.65625l1.796875 0l0 1.5l-1.796875 0l0 3.203125l-1.640625 0zm0 -4.703125l0 -6.015625l-4.1875 6.015625l4.1875 0z" fill-rule="nonzero"/><path fill="#000000" fill-opacity="0.0" d="m542.40826 43.82738l40.97638 0l0 46.61417l-40.97638 0z" fill-rule="evenodd"/><path fill="#000000" d="m552.1895 67.216125l1.640625 -0.21875q0.28125 1.40625 0.953125 2.015625q0.6875 0.609375 1.65625 0.609375q1.15625 0 1.953125 -0.796875q0.796875 -0.796875 0.796875 -1.984375q0 -1.125 -0.734375 -1.859375q-0.734375 -0.734375 -1.875 -0.734375q-0.46875 0 -1.15625 0.171875l0.1875 -1.4374962q0.15625 0.015625 0.265625 0.015625q1.046875 0 1.875 -0.546875q0.84375 -0.546875 0.84375 -1.671875q0 -0.90625 -0.609375 -1.5q-0.609375 -0.59375 -1.578125 -0.59375q-0.953125 0 -1.59375 0.609375q-0.640625 0.59375 -0.8125 1.796875l-1.640625 -0.296875q0.296875 -1.640625 1.359375 -2.546875q1.0625 -0.90625 2.65625 -0.90625q1.09375 0 2.0 0.46875q0.921875 0.46875 1.40625 1.28125q0.5 0.8125 0.5 1.71875q0 0.859375 -0.46875 1.578125q-0.46875 0.703125 -1.375 1.125q1.1875 0.28125 1.84375 1.1406212q0.65625 0.859375 0.65625 2.15625q0 1.734375 -1.28125 2.953125q-1.265625 1.21875 -3.21875 1.21875q-1.765625 0 -2.921875 -1.046875q-1.15625 -1.046875 -1.328125 -2.71875z" fill-rule="nonzero"/><path fill="#000000" fill-opacity="0.0" d="m464.2303 79.19858c-2.6803894 6.5023956 -15.0401 23.677032 -16.082458 39.01436c-1.0423584 15.337326 8.190277 44.174637 9.828308 53.009567" fill-rule="evenodd"/><path stroke="#000000" stroke-width="1.0" stroke-linejoin="round" stroke-linecap="butt" d="m464.23032 79.19858c-2.6804504 6.5023956 -15.0401 23.67704 -16.082458 39.01436c-0.5212097 7.668663 1.5263672 18.712326 3.9089966 28.943176c1.1913147 5.1154327 2.4663696 10.027664 3.5459595 14.213226c0.53982544 2.0927734 1.0307617 4.003891 1.4379578 5.6678925l0.20172119 0.8376465" fill-rule="evenodd"/><path fill="#000000" stroke="#000000" stroke-width="1.0" stroke-linecap="butt" d="m457.2425 167.87488l-1.3392639 -0.8577728l1.7599487 2.7773895l0.43707275 -3.2588806z" fill-rule="evenodd"/><path fill="#000000" fill-opacity="0.0" d="m460.95596 168.83887c0.5957031 -8.239227 2.3485718 -34.698853 3.5741577 -49.43541c1.2255859 -14.736565 3.149475 -32.486633 3.779358 -38.983963" fill-rule="evenodd"/><path stroke="#ff0000" stroke-width="1.0" stroke-linejoin="round" stroke-linecap="butt" d="m460.95596 168.83887c0.5957031 -8.239227 2.3485718 -34.698853 3.5741882 -49.43541c0.61276245 -7.3682785 1.400116 -15.489937 2.1130066 -22.581703c0.35647583 -3.545868 0.6943054 -6.8342743 0.9824219 -9.642281l0.34246826 -3.3499374" fill-rule="evenodd"/><path fill="#ff0000" stroke="#ff0000" stroke-width="1.0" stroke-linecap="butt" d="m467.96805 83.82954l1.006958 1.2310257l-0.81118774 -3.1864395l-1.4267883 2.9623642z" fill-rule="evenodd"/><path fill="#000000" fill-opacity="0.0" d="m477.3346 73.54269c2.2337341 -0.7447281 9.63031 -0.99381256 13.402466 -4.468338c3.7721558 -3.474533 7.6920776 -13.649033 9.230499 -16.378838" fill-rule="evenodd"/><path stroke="#ff0000" stroke-width="1.0" stroke-linejoin="round" stroke-linecap="butt" d="m477.33456 73.54268c2.2337646 -0.74472046 9.630341 -0.99380493 13.402466 -4.4683304c1.8860779 -1.7372665 3.809143 -5.1495247 5.452942 -8.468697c0.8218689 -1.6595802 1.5739746 -3.2958908 2.2167664 -4.6879196l0.06442261 -0.13908005" fill-rule="evenodd"/><path fill="#ff0000" stroke="#ff0000" stroke-width="1.0" stroke-linecap="butt" d="m498.4712 55.77865l0.5206909 1.5027504l0.33737183 -3.2707062l-2.3608093 2.2886467z" fill-rule="evenodd"/><path fill="#000000" fill-opacity="0.0" d="m499.36844 52.38712c-2.2869263 0.55979156 -9.678528 0.20409775 -13.721497 3.3587532c-4.0429688 3.1546516 -8.780243 12.974304 -10.536285 15.56916" fill-rule="evenodd"/><path stroke="#000000" stroke-width="1.0" stroke-linejoin="round" stroke-linecap="butt" d="m499.36844 52.38712c-2.2868958 0.55979156 -9.678528 0.20409775 -13.721497 3.3587532c-2.0214844 1.5773277 -4.216522 4.820904 -6.1257324 7.994507c-0.95462036 1.5867996 -1.837738 3.156105 -2.5919495 4.4908905l-0.07546997 0.13309479" fill-rule="evenodd"/><path fill="#000000" stroke="#000000" stroke-width="1.0" stroke-linecap="butt" d="m476.85382 68.36437l-0.39627075 -1.5402527l-0.603302 3.2322464l2.5398254 -2.0882492z" fill-rule="evenodd"/><path fill="#000000" fill-opacity="0.0" d="m511.88013 51.80135c1.4890137 2.2337456 5.2611694 11.615398 8.934143 13.402477c3.6729736 1.7870865 10.919617 -2.2333221 13.103577 -2.6799889" fill-rule="evenodd"/><path stroke="#000000" stroke-width="1.0" stroke-linejoin="round" stroke-linecap="butt" d="m511.88013 51.80135c1.4890137 2.2337456 5.2611694 11.615398 8.934143 13.402477c1.8364868 0.8935394 4.5664062 0.3352127 7.1101685 -0.5023346c0.6359253 -0.20938873 1.2602539 -0.43623352 1.8560791 -0.6622009c0.2979126 -0.112976074 0.5886841 -0.22574615 0.87023926 -0.33600235l0.043151855 -0.01701355" fill-rule="evenodd"/><path fill="#000000" stroke="#000000" stroke-width="1.0" stroke-linecap="butt" d="m530.6939 63.686275l-0.67645264 1.4393654l2.5251465 -2.105938l-3.288025 -0.00989151z" fill-rule="evenodd"/><path fill="#000000" fill-opacity="0.0" d="m533.91754 62.701794c-1.4890137 -2.2337456 -5.2611694 -11.615395 -8.934143 -13.402477c-3.6729736 -1.7870827 -10.919617 2.233326 -13.103577 2.6799889" fill-rule="evenodd"/><path stroke="#000000" stroke-width="1.0" stroke-linejoin="round" stroke-linecap="butt" d="m533.91754 62.701794c-1.4890137 -2.2337456 -5.2611694 -11.615395 -8.934143 -13.402477c-1.8364868 -0.8935394 -4.5664062 -0.3352127 -7.1101685 0.5023422c-0.6359253 0.20938492 -1.2602539 0.43622208 -1.8560181 0.6621895c-0.2979126 0.1129837 -0.5887451 0.22574997 -0.8703003 0.33600616l-0.043151855 0.017009735" fill-rule="evenodd"/><path fill="#000000" stroke="#000000" stroke-width="1.0" stroke-linecap="butt" d="m515.10376 50.816864l0.67645264 -1.4393654l-2.5251465 2.1059418l3.288086 0.009887695z" fill-rule="evenodd"/><path fill="#000000" fill-opacity="0.0" d="m469.5911 176.28241c9.529816 -1.4890289 44.025604 -4.2686462 57.178986 -8.934143c13.153381 -4.665497 18.117798 -15.882355 21.741394 -19.058823" fill-rule="evenodd"/><path stroke="#ff0000" stroke-width="1.0" stroke-linejoin="round" stroke-linecap="butt" d="m469.5911 176.2824c9.529846 -1.4889984 44.025604 -4.268631 57.178986 -8.934128c6.576721 -2.3327484 11.10614 -6.3033447 14.444336 -10.087799c1.6691284 -1.8922272 3.0404663 -3.737915 4.2209473 -5.3090973c0.14758301 -0.19639587 0.29211426 -0.38850403 0.43395996 -0.57588196l0.38598633 -0.5063629" fill-rule="evenodd"/><path fill="#ff0000" stroke="#ff0000" stroke-width="1.0" stroke-linecap="butt" d="m546.2553 150.86913l0.10614014 1.586853l1.187561 -3.0661163l-2.8805542 1.585434z" fill-rule="evenodd"/><path fill="#000000" fill-opacity="0.0" d="m548.5104 148.28896c-9.529846 1.4890289 -44.025635 4.2686615 -57.179016 8.934143c-13.153412 4.665497 -18.117798 15.882355 -21.741364 19.058838" fill-rule="evenodd"/><path stroke="#000000" stroke-width="1.0" stroke-linejoin="round" stroke-linecap="butt" d="m548.5104 148.28896c-9.529846 1.4890289 -44.025635 4.2686462 -57.179016 8.934158c-6.5766907 2.3327484 -11.10614 6.3033295 -14.444397 10.087784c-1.6690674 1.8922272 -3.0403748 3.7379303 -4.2208557 5.3090973c-0.14758301 0.19639587 -0.2921753 0.3885193 -0.43395996 0.5758667l-0.38598633 0.5063782" fill-rule="evenodd"/><path fill="#000000" stroke="#000000" stroke-width="1.0" stroke-linecap="butt" d="m471.84616 173.70224l-0.106170654 -1.586853l-1.187561 3.0661163l2.8805847 -1.585434z" fill-rule="evenodd"/><path fill="#000000" fill-opacity="0.0" d="m554.1668 137.27188c3.276062 -7.544327 21.54248 -34.39615 19.656616 -45.265976c-1.8858643 -10.869827 -25.809875 -16.627495 -30.971863 -19.952995" fill-rule="evenodd"/><path stroke="#000000" stroke-width="1.0" stroke-linejoin="round" stroke-linecap="butt" d="m554.1668 137.27188c3.276123 -7.544327 21.54248 -34.39614 19.656616 -45.265976c-0.9429321 -5.4349136 -7.395447 -9.591789 -14.257385 -12.805618c-3.4309692 -1.6069183 -6.9643555 -2.9780731 -9.962585 -4.155342c-0.3748169 -0.14716339 -0.741272 -0.2912979 -1.0980225 -0.43247223l-0.1918335 -0.07646179" fill-rule="evenodd"/><path fill="#000000" stroke="#000000" stroke-width="1.0" stroke-linecap="butt" d="m548.9972 73.032364l-4.8148193 -0.37445068l3.4476929 3.3817444z" fill-rule="evenodd"/><path fill="#000000" fill-opacity="0.0" d="m544.37646 72.49112c0.9351196 8.171684 3.9291992 38.332542 5.610718 49.03012c1.6815796 10.697586 3.7320557 12.629471 4.4785156 15.155365" fill-rule="evenodd"/><path stroke="#000000" stroke-width="1.0" stroke-linejoin="round" stroke-linecap="butt" d="m544.37646 72.49112c0.9351196 8.171684 3.9291992 38.332535 5.610718 49.03012c0.42041016 2.6744003 0.86383057 4.8009415 1.3041992 6.5258636c0.22015381 0.86247253 0.4395752 1.624527 0.65496826 2.3044739c0.053833008 0.16998291 0.10748291 0.33483887 0.16070557 0.49484253l0.093566895 0.27415466" fill-rule="evenodd"/><path fill="#000000" stroke="#000000" stroke-width="1.0" stroke-linecap="butt" d="m550.6711 131.74413l3.2427368 3.5787506l-0.18371582 -4.8258514z" fill-rule="evenodd"/><path fill="#000000" fill-opacity="0.0" d="m466.3159 171.81819c5.8070374 -11.416138 28.240784 -49.089653 34.842377 -68.49677c6.601593 -19.40712 3.9726868 -39.95497 4.7672424 -47.945965" fill-rule="evenodd"/><path stroke="#000000" stroke-width="1.0" stroke-linejoin="round" stroke-linecap="butt" d="m466.31586 171.81819c5.8070984 -11.416138 28.240814 -49.089653 34.842407 -68.49677c3.3008118 -9.7035675 4.2940063 -19.692307 4.5612793 -28.254036c0.13363647 -4.280861 0.08581543 -8.204971 0.05419922 -11.5583c-0.015777588 -1.6766624 -0.027526855 -3.2106323 -0.010467529 -4.575157l0.0025634766 -0.13510895" fill-rule="evenodd"/><path fill="#000000" stroke="#000000" stroke-width="1.0" stroke-linecap="butt" d="m505.76584 58.798817l1.0709534 1.1757545l-0.97940063 -3.1388054l-1.267334 3.0340233z" fill-rule="evenodd"/><path fill="#000000" fill-opacity="0.0" d="m505.92554 55.375454c-3.524353 6.303547 -14.1970215 18.662395 -21.146088 37.821278c-6.949066 19.158882 -17.123566 64.27667 -20.548279 77.132" fill-rule="evenodd"/><path stroke="#ff0000" stroke-width="1.0" stroke-linejoin="round" stroke-linecap="butt" d="m505.92554 55.37545c-3.5243225 6.3035507 -14.1970215 18.6624 -21.146088 37.82129c-3.4745483 9.579437 -7.755432 25.648598 -11.595764 40.929832c-1.9201965 7.6406097 -3.7302246 15.0842285 -5.274231 21.421158c-0.7720337 3.1684723 -1.4775696 6.060257 -2.097107 8.561661c-0.15487671 0.6253662 -0.30438232 1.2263184 -0.44821167 1.8011017l-0.2770691 1.099762" fill-rule="evenodd"/><path fill="#ff0000" stroke="#ff0000" stroke-width="1.0" stroke-linecap="butt" d="m465.08707 167.01025l-0.80807495 -1.369812l0.31729126 3.2727203l1.8605957 -2.7109985z" fill-rule="evenodd"/><path fill="#ff0000" d="m672.30023 176.10599l0 0c0 -3.6790009 2.9824219 -6.6614227 6.661438 -6.6614227l0 0c1.7667236 0 3.4610596 0.701828 4.710327 1.9510803c1.2492676 1.2492676 1.9511108 2.9436188 1.9511108 4.7103424l0 0c0 3.6790009 -2.9824219 6.6614075 -6.661438 6.6614075l0 0c-3.679016 0 -6.661438 -2.9824066 -6.661438 -6.6614075z" fill-rule="evenodd"/><path stroke="#000000" stroke-width="1.0" stroke-linejoin="round" stroke-linecap="butt" d="m672.30023 176.10599l0 0c0 -3.6790009 2.9824219 -6.6614227 6.661438 -6.6614227l0 0c1.7667236 0 3.4610596 0.701828 4.710327 1.9510803c1.2492676 1.2492676 1.9511108 2.9436188 1.9511108 4.7103424l0 0c0 3.6790009 -2.9824219 6.6614075 -6.661438 6.6614075l0 0c-3.679016 0 -6.661438 -2.9824066 -6.661438 -6.6614075z" fill-rule="evenodd"/><path fill="#38761d" d="m762.4527 143.6735l0 0c0 -3.6790009 2.9824219 -6.6614227 6.661438 -6.6614227l0 0c1.7667236 0 3.4610596 0.701828 4.710327 1.9510803c1.2492676 1.2492676 1.9511108 2.9436188 1.9511108 4.7103424l0 0c0 3.6790009 -2.9824219 6.6614075 -6.661438 6.6614075l0 0c-3.679016 0 -6.661438 -2.9824066 -6.661438 -6.6614075z" fill-rule="evenodd"/><path stroke="#000000" stroke-width="1.0" stroke-linejoin="round" stroke-linecap="butt" d="m762.4527 143.6735l0 0c0 -3.6790009 2.9824219 -6.6614227 6.661438 -6.6614227l0 0c1.7667236 0 3.4610596 0.701828 4.710327 1.9510803c1.2492676 1.2492676 1.9511108 2.9436188 1.9511108 4.7103424l0 0c0 3.6790009 -2.9824219 6.6614075 -6.661438 6.6614075l0 0c-3.679016 0 -6.661438 -2.9824066 -6.661438 -6.6614075z" fill-rule="evenodd"/><path fill="#ff00ff" d="m748.6359 65.82948l0 0c0 -3.6790009 2.9824219 -6.661419 6.661438 -6.661419l0 0c1.7667236 0 3.4610596 0.7018242 4.710327 1.9510841c1.2492676 1.2492561 1.9510498 2.9436188 1.9510498 4.710335l0 0c0 3.6790009 -2.9824219 6.661415 -6.661377 6.661415l0 0c-3.679016 0 -6.661438 -2.9824142 -6.661438 -6.661415z" fill-rule="evenodd"/><path stroke="#000000" stroke-width="1.0" stroke-linejoin="round" stroke-linecap="butt" d="m748.6359 65.82948l0 0c0 -3.6790009 2.9824219 -6.661419 6.661438 -6.661419l0 0c1.7667236 0 3.4610596 0.7018242 4.710327 1.9510841c1.2492676 1.2492561 1.9510498 2.9436188 1.9510498 4.710335l0 0c0 3.6790009 -2.9824219 6.661415 -6.661377 6.661415l0 0c-3.679016 0 -6.661438 -2.9824142 -6.661438 -6.661415z" fill-rule="evenodd"/><path fill="#9900ff" d="m714.4561 48.341473l0 0c0 -3.6790009 2.9824219 -6.661419 6.661377 -6.661419l0 0c1.7667236 0 3.4611206 0.701828 4.710327 1.9510841c1.2492676 1.24926 1.9511108 2.9436188 1.9511108 4.710335l0 0c0 3.6790009 -2.9824219 6.661419 -6.661438 6.661419l0 0c-3.678955 0 -6.661377 -2.982418 -6.661377 -6.661419z" fill-rule="evenodd"/><path stroke="#000000" stroke-width="1.0" stroke-linejoin="round" stroke-linecap="butt" d="m714.4561 48.341473l0 0c0 -3.6790009 2.9824219 -6.661419 6.661377 -6.661419l0 0c1.7667236 0 3.4611206 0.701828 4.710327 1.9510841c1.2492676 1.24926 1.9511108 2.9436188 1.9511108 4.710335l0 0c0 3.6790009 -2.9824219 6.661419 -6.661438 6.661419l0 0c-3.678955 0 -6.661377 -2.982418 -6.661377 -6.661419z" fill-rule="evenodd"/><path fill="#0000ff" d="m678.9464 74.64514l0 0c0 -3.6790009 2.9824219 -6.661415 6.661438 -6.661415l0 0c1.7667236 0 3.4610596 0.7018204 4.710327 1.9510803c1.2492676 1.24926 1.9510498 2.9436188 1.9510498 4.710335l0 0c0 3.6790009 -2.9824219 6.661415 -6.661377 6.661415l0 0c-3.679016 0 -6.661438 -2.9824142 -6.661438 -6.661415z" fill-rule="evenodd"/><path stroke="#000000" stroke-width="1.0" stroke-linejoin="round" stroke-linecap="butt" d="m678.9464 74.64514l0 0c0 -3.6790009 2.9824219 -6.661415 6.661438 -6.661415l0 0c1.7667236 0 3.4610596 0.7018204 4.710327 1.9510803c1.2492676 1.24926 1.9510498 2.9436188 1.9510498 4.710335l0 0c0 3.6790009 -2.9824219 6.661415 -6.661377 6.661415l0 0c-3.679016 0 -6.661438 -2.9824142 -6.661438 -6.661415z" fill-rule="evenodd"/><path fill="#000000" fill-opacity="0.0" d="m681.20135 167.35808l40.97638 0l0 46.614166l-40.97638 0z" fill-rule="evenodd"/><path fill="#000000" d="m690.9826 187.68433q0 -2.359375 0.484375 -3.796875q0.484375 -1.453125 1.4375 -2.234375q0.96875 -0.78125 2.421875 -0.78125q1.078125 0 1.890625 0.4375q0.8125 0.421875 1.328125 1.25q0.53125 0.8125 0.828125 1.984375q0.3125 1.15625 0.3125 3.140625q0 2.359375 -0.484375 3.8125q-0.484375 1.4375 -1.453125 2.234375q-0.953125 0.78125 -2.421875 0.78125q-1.921875 0 -3.03125 -1.390625q-1.3125 -1.671875 -1.3125 -5.4375zm1.671875 0q0 3.296875 0.765625 4.390625q0.78125 1.078125 1.90625 1.078125q1.140625 0 1.90625 -1.09375q0.765625 -1.09375 0.765625 -4.375q0 -3.296875 -0.765625 -4.375q-0.765625 -1.078125 -1.921875 -1.078125q-1.125 0 -1.796875 0.953125q-0.859375 1.21875 -0.859375 4.5z" fill-rule="nonzero"/><path fill="#000000" fill-opacity="0.0" d="m658.03925 36.106712l40.97638 0l0 46.614174l-40.97638 0z" fill-rule="evenodd"/><path fill="#000000" d="m673.9924 63.02671l-1.640625 0l0 -10.453125q-0.59375 0.5625 -1.5625 1.140625q-0.953125 0.5625 -1.71875 0.84375l0 -1.59375q1.375 -0.640625 2.40625 -1.5625q1.03125 -0.921875 1.453125 -1.78125l1.0625 0l0 13.40625z" fill-rule="nonzero"/><path fill="#000000" fill-opacity="0.0" d="m719.8048 12.944706l40.97638 0l0 46.614174l-40.97638 0z" fill-rule="evenodd"/><path fill="#000000" d="m738.19543 38.28658l0 1.578125l-8.828125 0q-0.015625 -0.59375 0.1875 -1.140625q0.34375 -0.90625 1.078125 -1.78125q0.75 -0.875 2.15625 -2.015625q2.171875 -1.78125 2.9375 -2.828125q0.765625 -1.046875 0.765625 -1.96875q0 -0.984375 -0.703125 -1.640625q-0.6875 -0.671875 -1.8125 -0.671875q-1.1875 0 -1.90625 0.71875q-0.703125 0.703125 -0.703125 1.953125l-1.6875 -0.171875q0.171875 -1.890625 1.296875 -2.875q1.140625 -0.984375 3.03125 -0.984375q1.921875 0 3.046875 1.0625q1.125 1.0625 1.125 2.640625q0 0.796875 -0.328125 1.578125q-0.328125 0.78125 -1.09375 1.640625q-0.75 0.84375 -2.53125 2.34375q-1.46875 1.234375 -1.890625 1.6875q-0.421875 0.4375 -0.6875 0.875l6.546875 0z" fill-rule="nonzero"/><path fill="#000000" fill-opacity="0.0" d="m773.8497 121.034065l40.97638 0l0 46.614174l-40.97638 0z" fill-rule="evenodd"/><path fill="#000000" d="m788.8809 147.95406l0 -3.203125l-5.796875 0l0 -1.5l6.09375 -8.65625l1.34375 0l0 8.65625l1.796875 0l0 1.5l-1.796875 0l0 3.203125l-1.640625 0zm0 -4.703125l0 -6.015625l-4.1875 6.015625l4.1875 0z" fill-rule="nonzero"/><path fill="#000000" fill-opacity="0.0" d="m758.40826 43.82738l40.97638 0l0 46.61417l-40.97638 0z" fill-rule="evenodd"/><path fill="#000000" d="m768.1895 67.216125l1.640625 -0.21875q0.28125 1.40625 0.953125 2.015625q0.6875 0.609375 1.65625 0.609375q1.15625 0 1.953125 -0.796875q0.796875 -0.796875 0.796875 -1.984375q0 -1.125 -0.734375 -1.859375q-0.734375 -0.734375 -1.875 -0.734375q-0.46875 0 -1.15625 0.171875l0.1875 -1.4374962q0.15625 0.015625 0.265625 0.015625q1.046875 0 1.875 -0.546875q0.84375 -0.546875 0.84375 -1.671875q0 -0.90625 -0.609375 -1.5q-0.609375 -0.59375 -1.578125 -0.59375q-0.953125 0 -1.59375 0.609375q-0.640625 0.59375 -0.8125 1.796875l-1.640625 -0.296875q0.296875 -1.640625 1.359375 -2.546875q1.0625 -0.90625 2.65625 -0.90625q1.09375 0 2.0 0.46875q0.921875 0.46875 1.40625 1.28125q0.5 0.8125 0.5 1.71875q0 0.859375 -0.46875 1.578125q-0.46875 0.703125 -1.375 1.125q1.1875 0.28125 1.84375 1.1406212q0.65625 0.859375 0.65625 2.15625q0 1.734375 -1.28125 2.953125q-1.265625 1.21875 -3.21875 1.21875q-1.765625 0 -2.921875 -1.046875q-1.15625 -1.046875 -1.328125 -2.71875z" fill-rule="nonzero"/><path fill="#000000" fill-opacity="0.0" d="m680.2303 79.19858c-2.68042 6.5023956 -15.0401 23.677032 -16.082458 39.01436c-1.0423584 15.337326 8.190247 44.174637 9.828308 53.009567" fill-rule="evenodd"/><path stroke="#000000" stroke-width="1.0" stroke-linejoin="round" stroke-linecap="butt" d="m680.2303 79.19858c-2.68042 6.5023956 -15.0401 23.67704 -16.082458 39.01436c-0.5211792 7.668663 1.5263672 18.712326 3.9089966 28.943176c1.1913452 5.1154327 2.4663696 10.027664 3.5459595 14.213226c0.53985596 2.0927734 1.0307617 4.003891 1.4379883 5.6678925l0.20172119 0.8376465" fill-rule="evenodd"/><path fill="#000000" stroke="#000000" stroke-width="1.0" stroke-linecap="butt" d="m673.2425 167.87488l-1.3392334 -0.8577728l1.7599487 2.7773895l0.43707275 -3.2588806z" fill-rule="evenodd"/><path fill="#000000" fill-opacity="0.0" d="m676.956 168.83887c0.5956421 -8.239227 2.3485718 -34.698853 3.5741577 -49.43541c1.2255859 -14.736565 3.149414 -32.486633 3.7792969 -38.983963" fill-rule="evenodd"/><path stroke="#ff0000" stroke-width="1.0" stroke-linejoin="round" stroke-linecap="butt" d="m676.95593 168.83887c0.59576416 -8.239227 2.3486328 -34.698853 3.5742188 -49.43541c0.61279297 -7.3682785 1.4001465 -15.489937 2.113037 -22.581703c0.3564453 -3.545868 0.6942749 -6.8342743 0.98236084 -9.642281l0.3425293 -3.3499374" fill-rule="evenodd"/><path fill="#ff0000" stroke="#ff0000" stroke-width="1.0" stroke-linecap="butt" d="m683.968 83.82954l1.006958 1.2310257l-0.8111572 -3.1864395l-1.4268188 2.9623642z" fill-rule="evenodd"/><path fill="#000000" fill-opacity="0.0" d="m693.3346 73.54269c2.2337036 -0.7447281 9.63031 -0.99381256 13.402466 -4.468338c3.7721558 -3.474533 7.6920776 -13.649033 9.23053 -16.378838" fill-rule="evenodd"/><path stroke="#ff0000" stroke-width="1.0" stroke-linejoin="round" stroke-linecap="butt" d="m693.33453 73.54268c2.2337646 -0.74472046 9.630371 -0.99380493 13.402527 -4.4683304c1.8860474 -1.7372665 3.809021 -5.1495247 5.452881 -8.468697c0.82196045 -1.6595802 1.5739746 -3.2958908 2.2167969 -4.6879196l0.064453125 -0.13909149" fill-rule="evenodd"/><path fill="#ff0000" stroke="#ff0000" stroke-width="1.0" stroke-linecap="butt" d="m714.4712 55.77864l0.5206909 1.5027542l0.33740234 -3.2707062l-2.3608398 2.2886276z" fill-rule="evenodd"/><path fill="#000000" fill-opacity="0.0" d="m715.3684 52.38712c-2.2868652 0.55979156 -9.678528 0.20409775 -13.721497 3.3587532c-4.0429077 3.1546516 -8.780212 12.974304 -10.536255 15.56916" fill-rule="evenodd"/><path stroke="#000000" stroke-width="1.0" stroke-linejoin="round" stroke-linecap="butt" d="m715.3684 52.38712c-2.2868652 0.55979156 -9.678528 0.20409775 -13.721436 3.3587532c-2.0214844 1.5773277 -4.2165527 4.820904 -6.1257324 7.994507c-0.9546509 1.5867996 -1.8377686 3.156105 -2.592041 4.4908905l-0.07543945 0.13311005" fill-rule="evenodd"/><path fill="#000000" stroke="#000000" stroke-width="1.0" stroke-linecap="butt" d="m692.8538 68.36438l-0.39624023 -1.540245l-0.6033325 3.2322311l2.539795 -2.0882187z" fill-rule="evenodd"/><path fill="#000000" fill-opacity="0.0" d="m727.8801 51.80135c1.4890137 2.2337456 5.2611694 11.615398 8.934143 13.402477c3.6729736 1.7870865 10.919617 -2.2333221 13.103577 -2.6799889" fill-rule="evenodd"/><path stroke="#ff0000" stroke-width="1.0" stroke-linejoin="round" stroke-linecap="butt" d="m727.8802 51.80135c1.4890137 2.2337456 5.2611084 11.615398 8.934143 13.402477c1.8364258 0.8935394 4.566345 0.3352127 7.1101074 -0.5023346c0.6359253 -0.20938873 1.2602539 -0.43623352 1.8560791 -0.6622009c0.2979126 -0.112976074 0.5886841 -0.22574615 0.87023926 -0.33600235l0.043151855 -0.017002106" fill-rule="evenodd"/><path fill="#ff0000" stroke="#ff0000" stroke-width="1.0" stroke-linecap="butt" d="m746.6939 63.686287l-0.67645264 1.4393692l2.5251465 -2.1059494l-3.288086 -0.009880066z" fill-rule="evenodd"/><path fill="#000000" fill-opacity="0.0" d="m749.91754 62.701794c-1.4890137 -2.2337456 -5.2611694 -11.615395 -8.934143 -13.402477c-3.6729736 -1.7870827 -10.919617 2.233326 -13.103577 2.6799889" fill-rule="evenodd"/><path stroke="#ff0000" stroke-width="1.0" stroke-linejoin="round" stroke-linecap="butt" d="m749.91754 62.701794c-1.4889526 -2.2337456 -5.2612305 -11.615395 -8.934082 -13.402477c-1.8364868 -0.8935394 -4.5664673 -0.3352127 -7.1102905 0.5023422c-0.63586426 0.20938492 -1.2602539 0.43622208 -1.8560181 0.6621895c-0.2979126 0.1129837 -0.5886841 0.22574997 -0.87023926 0.33600616l-0.043151855 0.017002106" fill-rule="evenodd"/><path fill="#ff0000" stroke="#ff0000" stroke-width="1.0" stroke-linecap="butt" d="m731.10376 50.816856l0.67645264 -1.4393654l-2.5251465 2.1059456l3.288086 0.009883881z" fill-rule="evenodd"/><path fill="#000000" fill-opacity="0.0" d="m685.59106 176.28241c9.529846 -1.4890289 44.025635 -4.2686462 57.179016 -8.934143c13.153381 -4.665497 18.117798 -15.882355 21.741394 -19.058823" fill-rule="evenodd"/><path stroke="#000000" stroke-width="1.0" stroke-linejoin="round" stroke-linecap="butt" d="m685.59106 176.2824c9.529846 -1.4889984 44.025635 -4.268631 57.179016 -8.934128c6.576721 -2.3327484 11.10614 -6.3033447 14.444397 -10.087799c1.6690674 -1.8922272 3.0403442 -3.737915 4.220886 -5.3090973c0.14758301 -0.19639587 0.2921753 -0.38850403 0.43395996 -0.57588196l0.38598633 -0.5063782" fill-rule="evenodd"/><path fill="#000000" stroke="#000000" stroke-width="1.0" stroke-linecap="butt" d="m762.2553 150.86911l0.10620117 1.586853l1.187561 -3.066101l-2.8806152 1.5854187z" fill-rule="evenodd"/><path fill="#000000" fill-opacity="0.0" d="m764.5104 148.28896c-9.529846 1.4890289 -44.025635 4.2686615 -57.179016 8.934143c-13.153381 4.665497 -18.117798 15.882355 -21.741333 19.058838" fill-rule="evenodd"/><path stroke="#000000" stroke-width="1.0" stroke-linejoin="round" stroke-linecap="butt" d="m764.5103 148.28896c-9.529724 1.4890289 -44.025574 4.2686462 -57.178955 8.934158c-6.57666 2.3327484 -11.10614 6.3033295 -14.444397 10.087784c-1.6690063 1.8922272 -3.0403442 3.7379303 -4.220886 5.3090973c-0.14752197 0.19639587 -0.29211426 0.3885193 -0.43395996 0.5758667l-0.3859253 0.5063782" fill-rule="evenodd"/><path fill="#000000" stroke="#000000" stroke-width="1.0" stroke-linecap="butt" d="m687.8461 173.70224l-0.10614014 -1.586853l-1.187561 3.0661163l2.8805542 -1.585434z" fill-rule="evenodd"/><path fill="#000000" fill-opacity="0.0" d="m770.1668 137.27188c3.276062 -7.544327 21.54248 -34.39615 19.656616 -45.265976c-1.8858643 -10.869827 -25.809875 -16.627495 -30.971863 -19.952995" fill-rule="evenodd"/><path stroke="#000000" stroke-width="1.0" stroke-linejoin="round" stroke-linecap="butt" d="m770.16675 137.27188c3.276184 -7.544327 21.542542 -34.39614 19.656677 -45.265976c-0.9429321 -5.4349136 -7.395447 -9.591789 -14.257385 -12.805618c-3.4310303 -1.6069183 -6.9643555 -2.9780731 -9.962585 -4.155342c-0.37475586 -0.14716339 -0.741272 -0.2912979 -1.0980225 -0.43247223l-0.19177246 -0.07646179" fill-rule="evenodd"/><path fill="#000000" stroke="#000000" stroke-width="1.0" stroke-linecap="butt" d="m764.9972 73.03236l-4.8148193 -0.37444305l3.4476929 3.3817368z" fill-rule="evenodd"/><path fill="#000000" fill-opacity="0.0" d="m760.37646 72.49112c0.9351196 8.171684 3.9291992 38.332542 5.610718 49.03012c1.6815796 10.697586 3.7320557 12.629471 4.4785156 15.155365" fill-rule="evenodd"/><path stroke="#ff0000" stroke-width="1.0" stroke-linejoin="round" stroke-linecap="butt" d="m760.37646 72.49112c0.9351196 8.171684 3.9291992 38.332535 5.610718 49.03012c0.42041016 2.6744003 0.8638916 4.8009415 1.3042603 6.5258636c0.22009277 0.86247253 0.43951416 1.624527 0.6549072 2.3044739c0.053833008 0.16998291 0.10748291 0.33483887 0.16070557 0.49484253l0.093566895 0.2741394" fill-rule="evenodd"/><path fill="#ff0000" stroke="#ff0000" stroke-width="1.0" stroke-linecap="butt" d="m766.6711 131.7441l3.2426758 3.5787811l-0.18365479 -4.8258514z" fill-rule="evenodd"/><path fill="#000000" fill-opacity="0.0" d="m682.31586 171.81819c5.807068 -11.416138 28.240784 -49.089653 34.842407 -68.49677c6.6016235 -19.40712 3.9727173 -39.95497 4.767212 -47.945965" fill-rule="evenodd"/><path stroke="#000000" stroke-width="1.0" stroke-linejoin="round" stroke-linecap="butt" d="m682.31586 171.81819c5.807068 -11.416138 28.240845 -49.089653 34.84247 -68.49677c3.3007202 -9.7035675 4.2939453 -19.692307 4.5612183 -28.254036c0.13366699 -4.280861 0.08581543 -8.204971 0.054260254 -11.5583c-0.01574707 -1.6766624 -0.02746582 -3.2106323 -0.010437012 -4.575157l0.0024414062 -0.13510895" fill-rule="evenodd"/><path fill="#000000" stroke="#000000" stroke-width="1.0" stroke-linecap="butt" d="m721.76587 58.798817l1.0709839 1.1757545l-0.97943115 -3.1388054l-1.267334 3.0340195z" fill-rule="evenodd"/><path fill="#000000" fill-opacity="0.0" d="m721.92554 55.375454c-3.524353 6.303547 -14.1970215 18.662395 -21.146057 37.821278c-6.9490967 19.158882 -17.123596 64.27667 -20.548279 77.132" fill-rule="evenodd"/><path stroke="#000000" stroke-width="1.0" stroke-linejoin="round" stroke-linecap="butt" d="m721.92554 55.37545c-3.524353 6.3035507 -14.1970215 18.6624 -21.146118 37.82129c-3.4744873 9.579437 -7.755371 25.648598 -11.595764 40.929832c-1.920166 7.6406097 -3.7302246 15.0842285 -5.274231 21.421158c-0.77197266 3.1684723 -1.4775391 6.060257 -2.097107 8.561661c-0.15484619 0.6253662 -0.30438232 1.2263184 -0.44818115 1.8011017l-0.2770996 1.099762" fill-rule="evenodd"/><path fill="#000000" stroke="#000000" stroke-width="1.0" stroke-linecap="butt" d="m681.0871 167.01025l-0.80810547 -1.369812l0.31726074 3.2727203l1.8606567 -2.7109985z" fill-rule="evenodd"/><path fill="#000000" fill-opacity="0.0" d="m-4.0 -8.0l47.02362 0l0 46.614174l-47.02362 0z" fill-rule="evenodd"/><path fill="#000000" d="m8.921875 6.977501l9.609375 0l-0.46875 2.65625l-3.234375 0l-2.03125 11.75l3.234375 0l-0.46875 2.65625l-9.59375 0l0.46875 -2.65625l3.140625 0l2.03125 -11.75l-3.15625 0l0.46875 -2.65625z" fill-rule="nonzero"/><path fill="#000000" fill-opacity="0.0" d="m204.0 -8.0l78.92914 0l0 46.614174l-78.92914 0z" fill-rule="evenodd"/><path fill="#000000" d="m216.92188 6.977501l9.609375 0l-0.46875 2.65625l-3.234375 0l-2.03125 11.75l3.234375 0l-0.46875 2.65625l-9.59375 0l0.46875 -2.65625l3.140625 0l2.03125 -11.75l-3.15625 0l0.46875 -2.65625zm14.0859375 0l9.609375 0l-0.46875 2.65625l-3.234375 0l-2.03125 11.75l3.234375 0l-0.46875 2.65625l-9.59375 0l0.46875 -2.65625l3.140625 0l2.03125 -11.75l-3.15625 0l0.46875 -2.65625z" fill-rule="nonzero"/><path fill="#000000" fill-opacity="0.0" d="m404.0 -8.0l78.92914 0l0 46.614174l-78.92914 0z" fill-rule="evenodd"/><path fill="#000000" d="m416.92188 6.977501l9.609375 0l-0.46875 2.65625l-3.234375 0l-2.03125 11.75l3.234375 0l-0.46875 2.65625l-9.59375 0l0.46875 -2.65625l3.140625 0l2.03125 -11.75l-3.15625 0l0.46875 -2.65625zm14.0859375 0l9.609375 0l-0.46875 2.65625l-3.234375 0l-2.03125 11.75l3.234375 0l-0.46875 2.65625l-9.59375 0l0.46875 -2.65625l3.140625 0l2.03125 -11.75l-3.15625 0l0.46875 -2.65625zm14.0859375 0l9.609375 0l-0.46875 2.65625l-3.234375 0l-2.03125 11.75l3.234375 0l-0.46875 2.65625l-9.59375 0l0.46875 -2.65625l3.140625 0l2.03125 -11.75l-3.15625 0l0.46875 -2.65625z" fill-rule="nonzero"/><path fill="#000000" fill-opacity="0.0" d="m628.0 -8.0l78.92914 0l0 46.614174l-78.92914 0z" fill-rule="evenodd"/><path fill="#000000" d="m640.9219 6.977501l9.609375 0l-0.46875 2.65625l-3.234375 0l-2.03125 11.75l3.234375 0l-0.46875 2.65625l-9.59375 0l0.46875 -2.65625l3.140625 0l2.03125 -11.75l-3.15625 0l0.46875 -2.65625zm16.742188 12.25l5.03125 -12.25l3.640625 0l-7.6875 17.0625l-3.265625 0l-2.34375 -17.0625l3.46875 0l1.15625 12.25z" fill-rule="nonzero"/></g></svg>