<svg version="1.1" viewBox="0.0 0.0 633.1049868766404 488.4278215223097" fill="none" stroke="none" stroke-linecap="square" stroke-miterlimit="10" xmlns:xlink="http://www.w3.org/1999/xlink" xmlns="http://www.w3.org/2000/svg"><clipPath id="p.0"><path d="m0 0l633.105 0l0 488.42783l-633.105 0l0 -488.42783z" clip-rule="nonzero"/></clipPath><g clip-path="url(#p.0)"><path fill="#000000" fill-opacity="0.0" d="m0 0l633.105 0l0 488.42783l-633.105 0z" fill-rule="evenodd"/><g filter="url(#shadowFilter-p.1)"><use xlink:href="#p.1" transform="matrix(1.0 0.0 0.0 1.0 0.0 2.0)"/></g><defs><filter id="shadowFilter-p.1" filterUnits="userSpaceOnUse"><feGaussianBlur in="SourceAlpha" stdDeviation="2.0" result="blur"/><feComponentTransfer in="blur" color-interpolation-filters="sRGB"><feFuncR type="linear" slope="0" intercept="0.0"/><feFuncG type="linear" slope="0" intercept="0.0"/><feFuncB type="linear" slope="0" intercept="0.0"/><feFuncA type="linear" slope="0.5" intercept="0"/></feComponentTransfer></filter></defs><g id="p.1"><path fill="#e6b8af" d="m104.24907 26.752542c24.5 -2.7502193 71.00044 1.6233597 96.750656 9.748034c25.750214 8.124672 43.375763 19.0 57.75067 38.999996c14.374878 20.0 34.12378 60.874886 28.498688 81.00001c-5.625122 20.125107 -43.24936 42.500427 -62.24936 39.750656c-19.0 -2.7497864 -32.00087 -58.374466 -51.750656 -56.249344c-19.749786 2.1251068 -39.498245 68.75021 -66.74803 69.0c-27.249779 0.24977112 -101.500435 -44.376205 -96.750656 -67.50131c4.7497816 -23.125114 117.87445 -56.499565 125.249344 -71.24935c7.374893 -14.749779 -75.87489 -9.999561 -81.0 -17.24934c-5.125107 -7.2497826 25.749344 -23.499126 50.249344 -26.249346z" fill-rule="evenodd"/><path stroke="#000000" stroke-width="3.0" stroke-linejoin="round" stroke-linecap="butt" d="m104.24907 26.752542c24.5 -2.7502193 71.00044 1.6233597 96.750656 9.748034c25.750214 8.124672 43.375763 19.0 57.75067 38.999996c14.374878 20.0 34.12378 60.874886 28.498688 81.00001c-5.625122 20.125107 -43.24936 42.500427 -62.24936 39.750656c-19.0 -2.7497864 -32.00087 -58.374466 -51.750656 -56.249344c-19.749786 2.1251068 -39.498245 68.75021 -66.74803 69.0c-27.249779 0.24977112 -101.500435 -44.376205 -96.750656 -67.50131c4.7497816 -23.125114 117.87445 -56.499565 125.249344 -71.24935c7.374893 -14.749779 -75.87489 -9.999561 -81.0 -17.24934c-5.125107 -7.2497826 25.749344 -23.499126 50.249344 -26.249346z" fill-rule="evenodd"/></g><g filter="url(#shadowFilter-p.2)"><use xlink:href="#p.2" transform="matrix(1.0 0.0 0.0 1.0 0.0 2.0)"/></g><defs><filter id="shadowFilter-p.2" filterUnits="userSpaceOnUse"><feGaussianBlur in="SourceAlpha" stdDeviation="2.0" result="blur"/><feComponentTransfer in="blur" color-interpolation-filters="sRGB"><feFuncR type="linear" slope="0" intercept="0.0"/><feFuncG type="linear" slope="0" intercept="0.0"/><feFuncB type="linear" slope="0" intercept="0.0"/><feFuncA type="linear" slope="0.5" intercept="0"/></feComponentTransfer></filter></defs><g id="p.2"><path fill="#cfe2f3" d="m117.00055 279.501c25.0 -4.3749084 77.12555 -10.249359 99.750656 -2.2493591c22.625107 8.0 32.374893 23.624237 36.0 50.24936c3.6251068 26.625092 7.625534 85.2511 -14.249344 109.50131c-21.874893 24.250214 -86.37489 42.874878 -117.0 36.0c-30.625107 -6.8749084 -57.625546 -48.999146 -66.750656 -77.24936c-9.125107 -28.250214 1.6251106 -72.87665 12.0 -92.25195c10.374893 -19.375336 25.249344 -19.625122 50.249344 -24.0z" fill-rule="evenodd"/><path stroke="#000000" stroke-width="3.0" stroke-linejoin="round" stroke-linecap="butt" d="m117.00055 279.501c25.0 -4.3749084 77.12555 -10.249359 99.750656 -2.2493591c22.625107 8.0 32.374893 23.624237 36.0 50.24936c3.6251068 26.625092 7.625534 85.2511 -14.249344 109.50131c-21.874893 24.250214 -86.37489 42.874878 -117.0 36.0c-30.625107 -6.8749084 -57.625546 -48.999146 -66.750656 -77.24936c-9.125107 -28.250214 1.6251106 -72.87665 12.0 -92.25195c10.374893 -19.375336 25.249344 -19.625122 50.249344 -24.0z" fill-rule="evenodd"/></g><path fill="#000000" fill-opacity="0.0" d="m329.26285 6.5013123l0 0c15.124786 0 27.385834 2.0434275 27.385834 4.564122l0 98.87175c0 2.5206985 12.261047 4.564125 27.385834 4.564125l0 0c-15.124786 0 -27.385834 2.0434265 -27.385834 4.564125l0 98.87176c0 2.520691 -12.261047 4.5641174 -27.385834 4.5641174z" fill-rule="evenodd"/><path fill="#000000" fill-opacity="0.0" d="m329.26285 6.5013123l0 0c15.124786 0 27.385834 2.0434275 27.385834 4.564122l0 98.87175c0 2.5206985 12.261047 4.564125 27.385834 4.564125l0 0c-15.124786 0 -27.385834 2.0434265 -27.385834 4.564125l0 98.87176c0 2.520691 -12.261047 4.5641174 -27.385834 4.5641174" fill-rule="evenodd"/><path stroke="#000000" stroke-width="2.0" stroke-linejoin="round" stroke-linecap="butt" d="m329.26285 6.5013123l0 0c15.124786 0 27.385834 2.0434275 27.385834 4.564122l0 98.87175c0 2.5206985 12.261047 4.564125 27.385834 4.564125l0 0c-15.124786 0 -27.385834 2.0434265 -27.385834 4.564125l0 98.87176c0 2.520691 -12.261047 4.5641174 -27.385834 4.5641174" fill-rule="evenodd"/><path fill="#000000" fill-opacity="0.0" d="m329.26285 254.50131l0 0c15.124786 0 27.385834 2.0434265 27.385834 4.5641174l0 98.871765c0 2.520691 12.261047 4.5641174 27.385834 4.5641174l0 0c-15.124786 0 -27.385834 2.0434265 -27.385834 4.5641174l0 98.871765c0 2.520691 -12.261047 4.5641174 -27.385834 4.5641174z" fill-rule="evenodd"/><path fill="#000000" fill-opacity="0.0" d="m329.26285 254.50131l0 0c15.124786 0 27.385834 2.0434265 27.385834 4.5641174l0 98.871765c0 2.520691 12.261047 4.5641174 27.385834 4.5641174l0 0c-15.124786 0 -27.385834 2.0434265 -27.385834 4.5641174l0 98.871765c0 2.520691 -12.261047 4.5641174 -27.385834 4.5641174" fill-rule="evenodd"/><path stroke="#000000" stroke-width="2.0" stroke-linejoin="round" stroke-linecap="butt" d="m329.26285 254.50131l0 0c15.124786 0 27.385834 2.0434265 27.385834 4.5641174l0 98.871765c0 2.520691 12.261047 4.5641174 27.385834 4.5641174l0 0c-15.124786 0 -27.385834 2.0434265 -27.385834 4.5641174l0 98.871765c0 2.520691 -12.261047 4.5641174 -27.385834 4.5641174" fill-rule="evenodd"/><path fill="#000000" fill-opacity="0.0" d="m120.76378 86.0l133.00787 0l0 43.496063l-133.00787 0z" fill-rule="evenodd"/><path fill="#000000" d="m134.12315 112.92l0 -11.09375l-3.953125 0l0 -2.265625l10.609375 0l0 2.265625l-3.953125 0l0 11.09375l-2.703125 0zm8.043121 -10.984375l0 -2.375l2.5625 0l0 2.375l-2.5625 0zm0 10.984375l0 -9.671875l2.5625 0l0 9.671875l-2.5625 0zm4.277054 -2.765625l2.5625 -0.390625q0.171875 0.75 0.671875 1.140625q0.5 0.390625 1.40625 0.390625q0.984375 0 1.484375 -0.375q0.34375 -0.25 0.34375 -0.671875q0 -0.296875 -0.1875 -0.484375q-0.1875 -0.1875 -0.859375 -0.34375q-3.09375 -0.6875 -3.921875 -1.25q-1.140625 -0.78125 -1.140625 -2.171875q0 -1.265625 0.984375 -2.109375q1.0 -0.859375 3.078125 -0.859375q1.984375 0 2.953125 0.65625q0.96875 0.640625 1.328125 1.90625l-2.40625 0.4375q-0.15625 -0.5625 -0.59375 -0.859375q-0.421875 -0.296875 -1.234375 -0.296875q-1.0 0 -1.4375 0.28125q-0.296875 0.203125 -0.296875 0.515625q0 0.265625 0.25 0.46875q0.34375 0.25 2.390625 0.71875q2.046875 0.453125 2.859375 1.140625q0.796875 0.671875 0.796875 1.890625q0 1.34375 -1.109375 2.296875q-1.109375 0.953125 -3.28125 0.953125q-1.984375 0 -3.140625 -0.796875q-1.140625 -0.8125 -1.5 -2.1875zm10.375717 0l2.5625 -0.390625q0.171875 0.75 0.671875 1.140625q0.5 0.390625 1.40625 0.390625q0.984375 0 1.484375 -0.375q0.34375 -0.25 0.34375 -0.671875q0 -0.296875 -0.1875 -0.484375q-0.1875 -0.1875 -0.859375 -0.34375q-3.09375 -0.6875 -3.921875 -1.25q-1.140625 -0.78125 -1.140625 -2.171875q0 -1.265625 0.984375 -2.109375q1.0 -0.859375 3.078125 -0.859375q1.984375 0 2.953125 0.65625q0.96875 0.640625 1.328125 1.90625l-2.40625 0.4375q-0.15625 -0.5625 -0.59375 -0.859375q-0.421875 -0.296875 -1.234375 -0.296875q-1.0 0 -1.4375 0.28125q-0.296875 0.203125 -0.296875 0.515625q0 0.265625 0.25 0.46875q0.34375 0.25 2.390625 0.71875q2.046875 0.453125 2.859375 1.140625q0.796875 0.671875 0.796875 1.890625q0 1.34375 -1.109375 2.296875q-1.109375 0.953125 -3.28125 0.953125q-1.984375 0 -3.140625 -0.796875q-1.140625 -0.8125 -1.5 -2.1875zm17.641342 2.765625l0 -1.453125q-0.53125 0.78125 -1.390625 1.234375q-0.859375 0.4375 -1.8125 0.4375q-0.96875 0 -1.75 -0.421875q-0.765625 -0.4375 -1.125 -1.203125q-0.34375 -0.78125 -0.34375 -2.140625l0 -6.125l2.5625 0l0 4.4375q0 2.046875 0.140625 2.515625q0.140625 0.453125 0.515625 0.71875q0.375 0.265625 0.953125 0.265625q0.65625 0 1.171875 -0.359375q0.515625 -0.359375 0.703125 -0.890625q0.203125 -0.53125 0.203125 -2.609375l0 -4.078125l2.546875 0l0 9.671875l-2.375 0zm10.630356 -3.078125l2.546875 0.421875q-0.484375 1.40625 -1.546875 2.140625q-1.0625 0.734375 -2.65625 0.734375q-2.515625 0 -3.734375 -1.65625q-0.953125 -1.3125 -0.953125 -3.328125q0 -2.40625 1.25 -3.765625q1.265625 -1.359375 3.1875 -1.359375q2.15625 0 3.40625 1.421875q1.25 1.421875 1.1875 4.375l-6.40625 0q0.03125 1.140625 0.609375 1.78125q0.59375 0.625 1.484375 0.625q0.59375 0 1.0 -0.328125q0.421875 -0.328125 0.625 -1.0625zm0.15625 -2.59375q-0.03125 -1.109375 -0.578125 -1.6875q-0.546875 -0.578125 -1.328125 -0.578125q-0.84375 0 -1.390625 0.609375q-0.546875 0.609375 -0.53125 1.65625l3.828125 0zm21.178818 5.671875l-2.9375 0l-1.171875 -3.03125l-5.328125 0l-1.109375 3.03125l-2.859375 0l5.203125 -13.359375l2.84375 0l5.359375 13.359375zm-4.96875 -5.28125l-1.84375 -4.953125l-1.796875 4.953125l3.640625 0z" fill-rule="nonzero"/><path fill="#000000" fill-opacity="0.0" d="m100.514435 352.06824l133.00787 0l0 43.496063l-133.00787 0z" fill-rule="evenodd"/><path fill="#000000" d="m113.87381 378.98825l0 -11.09375l-3.953125 0l0 -2.265625l10.609375 0l0 2.265625l-3.953125 0l0 11.09375l-2.703125 0zm8.043121 -10.984375l0 -2.375l2.5625 0l0 2.375l-2.5625 0zm0 10.984375l0 -9.671875l2.5625 0l0 9.671875l-2.5625 0zm4.277054 -2.765625l2.5625 -0.390625q0.171875 0.75 0.671875 1.140625q0.5 0.390625 1.40625 0.390625q0.984375 0 1.484375 -0.375q0.34375 -0.25 0.34375 -0.671875q0 -0.296875 -0.1875 -0.484375q-0.1875 -0.1875 -0.859375 -0.34375q-3.09375 -0.6875 -3.921875 -1.25q-1.140625 -0.78125 -1.140625 -2.171875q0 -1.265625 0.984375 -2.109375q1.0 -0.859375 3.078125 -0.859375q1.984375 0 2.953125 0.65625q0.96875 0.640625 1.328125 1.90625l-2.40625 0.4375q-0.15625 -0.5625 -0.59375 -0.859375q-0.421875 -0.296875 -1.234375 -0.296875q-1.0 0 -1.4375 0.28125q-0.296875 0.203125 -0.296875 0.515625q0 0.265625 0.25 0.46875q0.34375 0.25 2.390625 0.71875q2.046875 0.453125 2.859375 1.140625q0.796875 0.671875 0.796875 1.890625q0 1.34375 -1.109375 2.296875q-1.109375 0.953125 -3.28125 0.953125q-1.984375 0 -3.140625 -0.796875q-1.140625 -0.8125 -1.5 -2.1875zm10.375717 0l2.5625 -0.390625q0.171875 0.75 0.671875 1.140625q0.5 0.390625 1.40625 0.390625q0.984375 0 1.484375 -0.375q0.34375 -0.25 0.34375 -0.671875q0 -0.296875 -0.1875 -0.484375q-0.1875 -0.1875 -0.859375 -0.34375q-3.09375 -0.6875 -3.921875 -1.25q-1.140625 -0.78125 -1.140625 -2.171875q0 -1.265625 0.984375 -2.109375q1.0 -0.859375 3.078125 -0.859375q1.984375 0 2.953125 0.65625q0.96875 0.640625 1.328125 1.90625l-2.40625 0.4375q-0.15625 -0.5625 -0.59375 -0.859375q-0.421875 -0.296875 -1.234375 -0.296875q-1.0 0 -1.4375 0.28125q-0.296875 0.203125 -0.296875 0.515625q0 0.265625 0.25 0.46875q0.34375 0.25 2.390625 0.71875q2.046875 0.453125 2.859375 1.140625q0.796875 0.671875 0.796875 1.890625q0 1.34375 -1.109375 2.296875q-1.109375 0.953125 -3.28125 0.953125q-1.984375 0 -3.140625 -0.796875q-1.140625 -0.8125 -1.5 -2.1875zm17.641342 2.765625l0 -1.453125q-0.53125 0.78125 -1.390625 1.234375q-0.859375 0.4375 -1.8125 0.4375q-0.96875 0 -1.75 -0.421875q-0.765625 -0.4375 -1.125 -1.203125q-0.34375 -0.78125 -0.34375 -2.140625l0 -6.125l2.5625 0l0 4.4375q0 2.046875 0.140625 2.515625q0.140625 0.453125 0.515625 0.71875q0.375 0.265625 0.953125 0.265625q0.65625 0 1.171875 -0.359375q0.515625 -0.359375 0.703125 -0.890625q0.203125 -0.53125 0.203125 -2.609375l0 -4.078125l2.546875 0l0 9.671875l-2.375 0zm10.630356 -3.078125l2.546875 0.421875q-0.484375 1.40625 -1.546875 2.140625q-1.0625 0.734375 -2.65625 0.734375q-2.515625 0 -3.734375 -1.65625q-0.953125 -1.3125 -0.953125 -3.328125q0 -2.40625 1.25 -3.765625q1.265625 -1.359375 3.1875 -1.359375q2.15625 0 3.40625 1.421875q1.25 1.421875 1.1875 4.375l-6.40625 0q0.03125 1.140625 0.609375 1.78125q0.59375 0.625 1.484375 0.625q0.59375 0 1.0 -0.328125q0.421875 -0.328125 0.625 -1.0625zm0.15625 -2.59375q-0.03125 -1.109375 -0.578125 -1.6875q-0.546875 -0.578125 -1.328125 -0.578125q-0.84375 0 -1.390625 0.609375q-0.546875 0.609375 -0.53125 1.65625l3.828125 0zm9.824646 -7.6875l5.34375 0q1.59375 0 2.359375 0.140625q0.78125 0.125 1.390625 0.546875q0.625 0.421875 1.03125 1.125q0.40625 0.6875 0.40625 1.546875q0 0.9375 -0.5 1.734375q-0.5 0.78125 -1.375 1.171875q1.21875 0.359375 1.875 1.21875q0.65625 0.84375 0.65625 2.0q0 0.921875 -0.421875 1.78125q-0.421875 0.859375 -1.15625 1.375q-0.734375 0.515625 -1.796875 0.625q-0.6875 0.078125 -3.265625 0.09375l-4.546875 0l0 -13.359375zm2.703125 2.234375l0 3.078125l1.765625 0q1.578125 0 1.953125 -0.046875q0.703125 -0.078125 1.09375 -0.46875q0.40625 -0.40625 0.40625 -1.046875q0 -0.625 -0.34375 -1.0q-0.34375 -0.390625 -1.015625 -0.484375q-0.40625 -0.03125 -2.3125 -0.03125l-1.546875 0zm0 5.296875l0 3.578125l2.5 0q1.453125 0 1.84375 -0.078125q0.609375 -0.109375 0.984375 -0.53125q0.375 -0.421875 0.375 -1.140625q0 -0.59375 -0.296875 -1.015625q-0.28125 -0.421875 -0.84375 -0.609375q-0.546875 -0.203125 -2.390625 -0.203125l-2.171875 0z" fill-rule="nonzero"/><path fill="#000000" fill-opacity="0.0" d="m398.7638 43.249344l96.75589 0l0 153.76378l-96.75589 0z" fill-rule="evenodd"/><path fill="#dd7e6b" d="m418.0763 68.62247q-0.25 0.296875 -0.6875 0.609375q-0.421875 0.3125 -1.015625 0.5625q-0.578125 0.25 -1.3125 0.40625q-0.71875 0.15625 -1.5625 0.15625q-1.125 0 -2.046875 -0.40625q-0.90625 -0.40625 -1.546875 -1.15625q-0.640625 -0.75 -1.0 -1.84375q-0.34375 -1.109375 -0.34375 -2.5l0 -1.8125q0 -1.390625 0.359375 -2.484375q0.375 -1.09375 1.015625 -1.859375q0.65625 -0.765625 1.53125 -1.171875q0.890625 -0.40625 1.921875 -0.40625q1.109375 0 1.9375 0.296875q0.84375 0.28125 1.421875 0.8125q0.578125 0.53125 0.890625 1.296875q0.328125 0.765625 0.421875 1.71875l-2.484375 0q-0.140625 -1.015625 -0.625 -1.53125q-0.484375 -0.515625 -1.5 -0.515625q-0.5 0 -0.921875 0.25q-0.40625 0.25 -0.71875 0.734375q-0.3125 0.484375 -0.5 1.203125q-0.171875 0.703125 -0.171875 1.640625l0 1.828125q0 1.859375 0.609375 2.84375q0.609375 0.984375 1.875 1.0q0.296875 0 0.578125 -0.046875q0.296875 -0.046875 0.546875 -0.125q0.265625 -0.078125 0.453125 -0.1875q0.203125 -0.109375 0.3125 -0.21875l0 -2.40625l-2.1875 0l0 -1.921875l4.734375 0l0.015625 5.234375zm6.9455566 1.734375q-1.140625 0 -2.078125 -0.375q-0.921875 -0.375 -1.59375 -1.015625q-0.65625 -0.640625 -1.015625 -1.515625q-0.359375 -0.875 -0.359375 -1.859375l0 -0.375q0 -1.125 0.359375 -2.046875q0.359375 -0.9375 0.984375 -1.609375q0.640625 -0.6875 1.515625 -1.046875q0.875 -0.375 1.90625 -0.375q1.0625 0 1.890625 0.34375q0.84375 0.34375 1.421875 0.984375q0.578125 0.640625 0.875 1.546875q0.3125 0.890625 0.3125 1.96875l0 1.078125l-6.6875 0q0.0625 0.5 0.28125 0.921875q0.234375 0.40625 0.578125 0.71875q0.34375 0.296875 0.78125 0.46875q0.453125 0.15625 0.984375 0.15625q0.375 0 0.734375 -0.078125q0.375 -0.078125 0.703125 -0.21875q0.34375 -0.140625 0.640625 -0.34375q0.296875 -0.21875 0.515625 -0.5l1.265625 1.375q-0.234375 0.328125 -0.625 0.65625q-0.375 0.328125 -0.890625 0.578125q-0.515625 0.25 -1.140625 0.40625q-0.625 0.15625 -1.359375 0.15625zm-0.296875 -8.171875q-0.421875 0 -0.78125 0.15625q-0.359375 0.140625 -0.625 0.421875q-0.265625 0.28125 -0.453125 0.671875q-0.1875 0.390625 -0.265625 0.875l4.140625 0l0 -0.203125q-0.015625 -0.390625 -0.15625 -0.75q-0.125 -0.359375 -0.390625 -0.609375q-0.25 -0.265625 -0.625 -0.40625q-0.359375 -0.15625 -0.84375 -0.15625zm9.008087 -1.875l0.15625 1.375q0.53125 -0.75 1.28125 -1.140625q0.765625 -0.40625 1.6875 -0.40625q0.734375 0 1.359375 0.21875q0.625 0.21875 1.0625 0.703125q0.453125 0.46875 0.703125 1.21875q0.25 0.75 0.25 1.828125l0 6.0625l-2.53125 0l0 -6.03125q0 -0.578125 -0.140625 -0.953125q-0.125 -0.390625 -0.375 -0.609375q-0.234375 -0.21875 -0.578125 -0.296875q-0.34375 -0.09375 -0.78125 -0.09375q-0.65625 0 -1.109375 0.265625q-0.453125 0.265625 -0.734375 0.71875l0 7.0l-2.546875 0l0 -9.859375l2.296875 0zm13.679932 10.046875q-1.140625 0 -2.078125 -0.375q-0.921875 -0.375 -1.59375 -1.015625q-0.65625 -0.640625 -1.015625 -1.515625q-0.359375 -0.875 -0.359375 -1.859375l0 -0.375q0 -1.125 0.359375 -2.046875q0.359375 -0.9375 0.984375 -1.609375q0.640625 -0.6875 1.515625 -1.046875q0.875 -0.375 1.90625 -0.375q1.0625 0 1.890625 0.34375q0.84375 0.34375 1.421875 0.984375q0.578125 0.640625 0.875 1.546875q0.3125 0.890625 0.3125 1.96875l0 1.078125l-6.6875 0q0.0625 0.5 0.28125 0.921875q0.234375 0.40625 0.578125 0.71875q0.34375 0.296875 0.78125 0.46875q0.453125 0.15625 0.984375 0.15625q0.375 0 0.734375 -0.078125q0.375 -0.078125 0.703125 -0.21875q0.34375 -0.140625 0.640625 -0.34375q0.296875 -0.21875 0.515625 -0.5l1.265625 1.375q-0.234375 0.328125 -0.625 0.65625q-0.375 0.328125 -0.890625 0.578125q-0.515625 0.25 -1.140625 0.40625q-0.625 0.15625 -1.359375 0.15625zm-0.296875 -8.171875q-0.421875 0 -0.78125 0.15625q-0.359375 0.140625 -0.625 0.421875q-0.265625 0.28125 -0.453125 0.671875q-0.1875 0.390625 -0.265625 0.875l4.140625 0l0 -0.203125q-0.015625 -0.390625 -0.15625 -0.75q-0.125 -0.359375 -0.390625 -0.609375q-0.25 -0.265625 -0.625 -0.40625q-0.359375 -0.15625 -0.84375 -0.15625zm13.148712 5.21875l-3.984375 0l-0.78125 2.765625l-2.703125 0l4.34375 -13.265625l2.328125 0l4.265625 13.265625l-2.703125 0l-0.765625 -2.765625zm-3.359375 -2.1875l2.75 0l-1.359375 -4.875l-1.390625 4.875z" fill-rule="nonzero"/><path fill="#dd7e6b" d="m418.0763 90.62247q-0.25 0.296875 -0.6875 0.609375q-0.421875 0.3125 -1.015625 0.5625q-0.578125 0.25 -1.3125 0.40625q-0.71875 0.15625 -1.5625 0.15625q-1.125 0 -2.046875 -0.40625q-0.90625 -0.40625 -1.546875 -1.15625q-0.640625 -0.75 -1.0 -1.84375q-0.34375 -1.109375 -0.34375 -2.5l0 -1.8125q0 -1.390625 0.359375 -2.484375q0.375 -1.09375 1.015625 -1.859375q0.65625 -0.765625 1.53125 -1.171875q0.890625 -0.40625 1.921875 -0.40625q1.109375 0 1.9375 0.296875q0.84375 0.28125 1.421875 0.8125q0.578125 0.53125 0.890625 1.296875q0.328125 0.765625 0.421875 1.71875l-2.484375 0q-0.140625 -1.015625 -0.625 -1.53125q-0.484375 -0.515625 -1.5 -0.515625q-0.5 0 -0.921875 0.25q-0.40625 0.25 -0.71875 0.734375q-0.3125 0.484375 -0.5 1.203125q-0.171875 0.703125 -0.171875 1.640625l0 1.828125q0 1.859375 0.609375 2.84375q0.609375 0.984375 1.875 1.0q0.296875 0 0.578125 -0.046875q0.296875 -0.046875 0.546875 -0.125q0.265625 -0.078125 0.453125 -0.1875q0.203125 -0.109375 0.3125 -0.21875l0 -2.40625l-2.1875 0l0 -1.921875l4.734375 0l0.015625 5.234375zm6.9455566 1.734375q-1.140625 0 -2.078125 -0.375q-0.921875 -0.375 -1.59375 -1.015625q-0.65625 -0.640625 -1.015625 -1.515625q-0.359375 -0.875 -0.359375 -1.859375l0 -0.375q0 -1.125 0.359375 -2.046875q0.359375 -0.9375 0.984375 -1.609375q0.640625 -0.6875 1.515625 -1.046875q0.875 -0.375 1.90625 -0.375q1.0625 0 1.890625 0.34375q0.84375 0.34375 1.421875 0.984375q0.578125 0.640625 0.875 1.546875q0.3125 0.890625 0.3125 1.96875l0 1.078125l-6.6875 0q0.0625 0.5 0.28125 0.921875q0.234375 0.40625 0.578125 0.71875q0.34375 0.296875 0.78125 0.46875q0.453125 0.15625 0.984375 0.15625q0.375 0 0.734375 -0.078125q0.375 -0.078125 0.703125 -0.21875q0.34375 -0.140625 0.640625 -0.34375q0.296875 -0.21875 0.515625 -0.5l1.265625 1.375q-0.234375 0.328125 -0.625 0.65625q-0.375 0.328125 -0.890625 0.578125q-0.515625 0.25 -1.140625 0.40625q-0.625 0.15625 -1.359375 0.15625zm-0.296875 -8.171875q-0.421875 0 -0.78125 0.15625q-0.359375 0.140625 -0.625 0.421875q-0.265625 0.28125 -0.453125 0.671875q-0.1875 0.390625 -0.265625 0.875l4.140625 0l0 -0.203125q-0.015625 -0.390625 -0.15625 -0.75q-0.125 -0.359375 -0.390625 -0.609375q-0.25 -0.265625 -0.625 -0.40625q-0.359375 -0.15625 -0.84375 -0.15625zm9.008087 -1.875l0.15625 1.375q0.53125 -0.75 1.28125 -1.140625q0.765625 -0.40625 1.6875 -0.40625q0.734375 0 1.359375 0.21875q0.625 0.21875 1.0625 0.703125q0.453125 0.46875 0.703125 1.21875q0.25 0.75 0.25 1.828125l0 6.0625l-2.53125 0l0 -6.03125q0 -0.578125 -0.140625 -0.953125q-0.125 -0.390625 -0.375 -0.609375q-0.234375 -0.21875 -0.578125 -0.296875q-0.34375 -0.09375 -0.78125 -0.09375q-0.65625 0 -1.109375 0.265625q-0.453125 0.265625 -0.734375 0.71875l0 7.0l-2.546875 0l0 -9.859375l2.296875 0zm13.679932 10.046875q-1.140625 0 -2.078125 -0.375q-0.921875 -0.375 -1.59375 -1.015625q-0.65625 -0.640625 -1.015625 -1.515625q-0.359375 -0.875 -0.359375 -1.859375l0 -0.375q0 -1.125 0.359375 -2.046875q0.359375 -0.9375 0.984375 -1.609375q0.640625 -0.6875 1.515625 -1.046875q0.875 -0.375 1.90625 -0.375q1.0625 0 1.890625 0.34375q0.84375 0.34375 1.421875 0.984375q0.578125 0.640625 0.875 1.546875q0.3125 0.890625 0.3125 1.96875l0 1.078125l-6.6875 0q0.0625 0.5 0.28125 0.921875q0.234375 0.40625 0.578125 0.71875q0.34375 0.296875 0.78125 0.46875q0.453125 0.15625 0.984375 0.15625q0.375 0 0.734375 -0.078125q0.375 -0.078125 0.703125 -0.21875q0.34375 -0.140625 0.640625 -0.34375q0.296875 -0.21875 0.515625 -0.5l1.265625 1.375q-0.234375 0.328125 -0.625 0.65625q-0.375 0.328125 -0.890625 0.578125q-0.515625 0.25 -1.140625 0.40625q-0.625 0.15625 -1.359375 0.15625zm-0.296875 -8.171875q-0.421875 0 -0.78125 0.15625q-0.359375 0.140625 -0.625 0.421875q-0.265625 0.28125 -0.453125 0.671875q-0.1875 0.390625 -0.265625 0.875l4.140625 0l0 -0.203125q-0.015625 -0.390625 -0.15625 -0.75q-0.125 -0.359375 -0.390625 -0.609375q-0.25 -0.265625 -0.625 -0.40625q-0.359375 -0.15625 -0.84375 -0.15625zm6.601837 7.984375l0 -13.265625l4.453125 0q1.09375 0 1.96875 0.21875q0.890625 0.21875 1.515625 0.671875q0.640625 0.4375 0.984375 1.125q0.34375 0.6875 0.34375 1.609375q-0.015625 0.9375 -0.5 1.671875q-0.484375 0.734375 -1.4375 1.125q0.578125 0.140625 0.984375 0.4375q0.421875 0.28125 0.703125 0.6875q0.28125 0.390625 0.40625 0.859375q0.140625 0.46875 0.140625 0.96875q0 0.953125 -0.328125 1.6875q-0.328125 0.734375 -0.9375 1.234375q-0.609375 0.484375 -1.484375 0.734375q-0.875 0.234375 -1.96875 0.234375l-4.84375 0zm2.578125 -5.84375l0 3.78125l2.265625 0q1.046875 -0.015625 1.59375 -0.515625q0.5625 -0.515625 0.5625 -1.328125q0.015625 -0.90625 -0.5 -1.421875q-0.5 -0.515625 -1.546875 -0.515625l-2.375 0zm0 -1.859375l1.890625 0q1.078125 0 1.640625 -0.4375q0.578125 -0.4375 0.59375 -1.28125q0 -0.9375 -0.578125 -1.34375q-0.578125 -0.40625 -1.65625 -0.40625l-1.890625 0l0 3.46875z" fill-rule="nonzero"/><path fill="#dd7e6b" d="m418.0763 112.62247q-0.25 0.296875 -0.6875 0.609375q-0.421875 0.3125 -1.015625 0.5625q-0.578125 0.25 -1.3125 0.40625q-0.71875 0.15625 -1.5625 0.15625q-1.125 0 -2.046875 -0.40625q-0.90625 -0.40625 -1.546875 -1.15625q-0.640625 -0.75 -1.0 -1.84375q-0.34375 -1.109375 -0.34375 -2.5l0 -1.8125q0 -1.390625 0.359375 -2.484375q0.375 -1.09375 1.015625 -1.859375q0.65625 -0.765625 1.53125 -1.171875q0.890625 -0.40625 1.921875 -0.40625q1.109375 0 1.9375 0.296875q0.84375 0.28125 1.421875 0.8125q0.578125 0.53125 0.890625 1.296875q0.328125 0.765625 0.421875 1.71875l-2.484375 0q-0.140625 -1.015625 -0.625 -1.53125q-0.484375 -0.515625 -1.5 -0.515625q-0.5 0 -0.921875 0.25q-0.40625 0.25 -0.71875 0.734375q-0.3125 0.484375 -0.5 1.203125q-0.171875 0.703125 -0.171875 1.640625l0 1.828125q0 1.859375 0.609375 2.84375q0.609375 0.984375 1.875 1.0q0.296875 0 0.578125 -0.046875q0.296875 -0.046875 0.546875 -0.125q0.265625 -0.078125 0.453125 -0.1875q0.203125 -0.109375 0.3125 -0.21875l0 -2.40625l-2.1875 0l0 -1.921875l4.734375 0l0.015625 5.234375zm6.9455566 1.734375q-1.140625 0 -2.078125 -0.375q-0.921875 -0.375 -1.59375 -1.015625q-0.65625 -0.640625 -1.015625 -1.515625q-0.359375 -0.875 -0.359375 -1.859375l0 -0.375q0 -1.125 0.359375 -2.046875q0.359375 -0.9375 0.984375 -1.609375q0.640625 -0.6875 1.515625 -1.046875q0.875 -0.375 1.90625 -0.375q1.0625 0 1.890625 0.34375q0.84375 0.34375 1.421875 0.984375q0.578125 0.640625 0.875 1.546875q0.3125 0.890625 0.3125 1.96875l0 1.078125l-6.6875 0q0.0625 0.5 0.28125 0.921875q0.234375 0.40625 0.578125 0.71875q0.34375 0.296875 0.78125 0.46875q0.453125 0.15625 0.984375 0.15625q0.375 0 0.734375 -0.078125q0.375 -0.078125 0.703125 -0.21875q0.34375 -0.140625 0.640625 -0.34375q0.296875 -0.21875 0.515625 -0.5l1.265625 1.375q-0.234375 0.328125 -0.625 0.65625q-0.375 0.328125 -0.890625 0.578125q-0.515625 0.25 -1.140625 0.40625q-0.625 0.15625 -1.359375 0.15625zm-0.296875 -8.171875q-0.421875 0 -0.78125 0.15625q-0.359375 0.140625 -0.625 0.421875q-0.265625 0.28125 -0.453125 0.671875q-0.1875 0.390625 -0.265625 0.875l4.140625 0l0 -0.203125q-0.015625 -0.390625 -0.15625 -0.75q-0.125 -0.359375 -0.390625 -0.609375q-0.25 -0.265625 -0.625 -0.40625q-0.359375 -0.15625 -0.84375 -0.15625zm9.008087 -1.875l0.15625 1.375q0.53125 -0.75 1.28125 -1.140625q0.765625 -0.40625 1.6875 -0.40625q0.734375 0 1.359375 0.21875q0.625 0.21875 1.0625 0.703125q0.453125 0.46875 0.703125 1.21875q0.25 0.75 0.25 1.828125l0 6.0625l-2.53125 0l0 -6.03125q0 -0.578125 -0.140625 -0.953125q-0.125 -0.390625 -0.375 -0.609375q-0.234375 -0.21875 -0.578125 -0.296875q-0.34375 -0.09375 -0.78125 -0.09375q-0.65625 0 -1.109375 0.265625q-0.453125 0.265625 -0.734375 0.71875l0 7.0l-2.546875 0l0 -9.859375l2.296875 0zm13.679932 10.046875q-1.140625 0 -2.078125 -0.375q-0.921875 -0.375 -1.59375 -1.015625q-0.65625 -0.640625 -1.015625 -1.515625q-0.359375 -0.875 -0.359375 -1.859375l0 -0.375q0 -1.125 0.359375 -2.046875q0.359375 -0.9375 0.984375 -1.609375q0.640625 -0.6875 1.515625 -1.046875q0.875 -0.375 1.90625 -0.375q1.0625 0 1.890625 0.34375q0.84375 0.34375 1.421875 0.984375q0.578125 0.640625 0.875 1.546875q0.3125 0.890625 0.3125 1.96875l0 1.078125l-6.6875 0q0.0625 0.5 0.28125 0.921875q0.234375 0.40625 0.578125 0.71875q0.34375 0.296875 0.78125 0.46875q0.453125 0.15625 0.984375 0.15625q0.375 0 0.734375 -0.078125q0.375 -0.078125 0.703125 -0.21875q0.34375 -0.140625 0.640625 -0.34375q0.296875 -0.21875 0.515625 -0.5l1.265625 1.375q-0.234375 0.328125 -0.625 0.65625q-0.375 0.328125 -0.890625 0.578125q-0.515625 0.25 -1.140625 0.40625q-0.625 0.15625 -1.359375 0.15625zm-0.296875 -8.171875q-0.421875 0 -0.78125 0.15625q-0.359375 0.140625 -0.625 0.421875q-0.265625 0.28125 -0.453125 0.671875q-0.1875 0.390625 -0.265625 0.875l4.140625 0l0 -0.203125q-0.015625 -0.390625 -0.15625 -0.75q-0.125 -0.359375 -0.390625 -0.609375q-0.25 -0.265625 -0.625 -0.40625q-0.359375 -0.15625 -0.84375 -0.15625zm11.117462 -0.53125l2.359375 -4.75l3.0 0l-3.734375 6.578125l3.828125 6.6875l-2.984375 0l-2.4375 -4.828125l-2.421875 4.828125l-3.03125 0l3.828125 -6.6875l-3.71875 -6.578125l2.984375 0l2.328125 4.75z" fill-rule="nonzero"/><path fill="#dd7e6b" d="m433.9987 134.70059q0 -0.359375 0.109375 -0.65625q0.125 -0.3125 0.34375 -0.53125q0.234375 -0.21875 0.5625 -0.34375q0.328125 -0.140625 0.75 -0.140625q0.40625 0 0.734375 0.140625q0.328125 0.125 0.546875 0.34375q0.21875 0.21875 0.34375 0.53125q0.125 0.296875 0.125 0.65625q0 0.34375 -0.125 0.65625q-0.125 0.296875 -0.34375 0.515625q-0.21875 0.21875 -0.546875 0.34375q-0.328125 0.140625 -0.734375 0.140625q-0.421875 0 -0.75 -0.140625q-0.328125 -0.125 -0.5625 -0.34375q-0.21875 -0.21875 -0.34375 -0.515625q-0.109375 -0.3125 -0.109375 -0.65625z" fill-rule="nonzero"/><path fill="#dd7e6b" d="m433.9987 156.70059q0 -0.359375 0.109375 -0.65625q0.125 -0.3125 0.34375 -0.53125q0.234375 -0.21875 0.5625 -0.34375q0.328125 -0.140625 0.75 -0.140625q0.40625 0 0.734375 0.140625q0.328125 0.125 0.546875 0.34375q0.21875 0.21875 0.34375 0.53125q0.125 0.296875 0.125 0.65625q0 0.34375 -0.125 0.65625q-0.125 0.296875 -0.34375 0.515625q-0.21875 0.21875 -0.546875 0.34375q-0.328125 0.140625 -0.734375 0.140625q-0.421875 0 -0.75 -0.140625q-0.328125 -0.125 -0.5625 -0.34375q-0.21875 -0.21875 -0.34375 -0.515625q-0.109375 -0.3125 -0.109375 -0.65625z" fill-rule="nonzero"/><path fill="#dd7e6b" d="m433.9987 178.70059q0 -0.359375 0.109375 -0.65625q0.125 -0.3125 0.34375 -0.53125q0.234375 -0.21875 0.5625 -0.34375q0.328125 -0.140625 0.75 -0.140625q0.40625 0 0.734375 0.140625q0.328125 0.125 0.546875 0.34375q0.21875 0.21875 0.34375 0.53125q0.125 0.296875 0.125 0.65625q0 0.34375 -0.125 0.65625q-0.125 0.296875 -0.34375 0.515625q-0.21875 0.21875 -0.546875 0.34375q-0.328125 0.140625 -0.734375 0.140625q-0.421875 0 -0.75 -0.140625q-0.328125 -0.125 -0.5625 -0.34375q-0.21875 -0.21875 -0.34375 -0.515625q-0.109375 -0.3125 -0.109375 -0.65625z" fill-rule="nonzero"/><path fill="#000000" fill-opacity="0.0" d="m398.7638 267.24933l96.75589 0l0 153.7638l-96.75589 0z" fill-rule="evenodd"/><path fill="#6fa8dc" d="m418.0763 292.62247q-0.25 0.296875 -0.6875 0.609375q-0.421875 0.3125 -1.015625 0.5625q-0.578125 0.25 -1.3125 0.40625q-0.71875 0.15625 -1.5625 0.15625q-1.125 0 -2.046875 -0.40625q-0.90625 -0.40625 -1.546875 -1.15625q-0.640625 -0.75 -1.0 -1.84375q-0.34375 -1.109375 -0.34375 -2.5l0 -1.8125q0 -1.390625 0.359375 -2.484375q0.375 -1.09375 1.015625 -1.859375q0.65625 -0.765625 1.53125 -1.171875q0.890625 -0.40625 1.921875 -0.40625q1.109375 0 1.9375 0.296875q0.84375 0.28125 1.421875 0.8125q0.578125 0.53125 0.890625 1.296875q0.328125 0.765625 0.421875 1.71875l-2.484375 0q-0.140625 -1.015625 -0.625 -1.53125q-0.484375 -0.515625 -1.5 -0.515625q-0.5 0 -0.921875 0.25q-0.40625 0.25 -0.71875 0.734375q-0.3125 0.484375 -0.5 1.203125q-0.171875 0.703125 -0.171875 1.640625l0 1.828125q0 1.859375 0.609375 2.84375q0.609375 0.984375 1.875 1.0q0.296875 0 0.578125 -0.046875q0.296875 -0.046875 0.546875 -0.125q0.265625 -0.078125 0.453125 -0.1875q0.203125 -0.109375 0.3125 -0.21875l0 -2.40625l-2.1875 0l0 -1.921875l4.734375 0l0.015625 5.234375zm6.9455566 1.734375q-1.140625 0 -2.078125 -0.375q-0.921875 -0.375 -1.59375 -1.015625q-0.65625 -0.640625 -1.015625 -1.515625q-0.359375 -0.875 -0.359375 -1.859375l0 -0.375q0 -1.125 0.359375 -2.046875q0.359375 -0.9375 0.984375 -1.609375q0.640625 -0.6875 1.515625 -1.046875q0.875 -0.375 1.90625 -0.375q1.0625 0 1.890625 0.34375q0.84375 0.34375 1.421875 0.984375q0.578125 0.640625 0.875 1.546875q0.3125 0.890625 0.3125 1.96875l0 1.078125l-6.6875 0q0.0625 0.5 0.28125 0.921875q0.234375 0.40625 0.578125 0.71875q0.34375 0.296875 0.78125 0.46875q0.453125 0.15625 0.984375 0.15625q0.375 0 0.734375 -0.078125q0.375 -0.078125 0.703125 -0.21875q0.34375 -0.140625 0.640625 -0.34375q0.296875 -0.21875 0.515625 -0.5l1.265625 1.375q-0.234375 0.328125 -0.625 0.65625q-0.375 0.328125 -0.890625 0.578125q-0.515625 0.25 -1.140625 0.40625q-0.625 0.15625 -1.359375 0.15625zm-0.296875 -8.171875q-0.421875 0 -0.78125 0.15625q-0.359375 0.140625 -0.625 0.421875q-0.265625 0.28125 -0.453125 0.671875q-0.1875 0.390625 -0.265625 0.875l4.140625 0l0 -0.203125q-0.015625 -0.390625 -0.15625 -0.75q-0.125 -0.359375 -0.390625 -0.609375q-0.25 -0.265625 -0.625 -0.40625q-0.359375 -0.15625 -0.84375 -0.15625zm9.008087 -1.875l0.15625 1.375q0.53125 -0.75 1.28125 -1.140625q0.765625 -0.40625 1.6875 -0.40625q0.734375 0 1.359375 0.21875q0.625 0.21875 1.0625 0.703125q0.453125 0.46875 0.703125 1.21875q0.25 0.75 0.25 1.828125l0 6.0625l-2.53125 0l0 -6.03125q0 -0.578125 -0.140625 -0.953125q-0.125 -0.390625 -0.375 -0.609375q-0.234375 -0.21875 -0.578125 -0.296875q-0.34375 -0.09375 -0.78125 -0.09375q-0.65625 0 -1.109375 0.265625q-0.453125 0.265625 -0.734375 0.71875l0 7.0l-2.546875 0l0 -9.859375l2.296875 0zm13.679932 10.046875q-1.140625 0 -2.078125 -0.375q-0.921875 -0.375 -1.59375 -1.015625q-0.65625 -0.640625 -1.015625 -1.515625q-0.359375 -0.875 -0.359375 -1.859375l0 -0.375q0 -1.125 0.359375 -2.046875q0.359375 -0.9375 0.984375 -1.609375q0.640625 -0.6875 1.515625 -1.046875q0.875 -0.375 1.90625 -0.375q1.0625 0 1.890625 0.34375q0.84375 0.34375 1.421875 0.984375q0.578125 0.640625 0.875 1.546875q0.3125 0.890625 0.3125 1.96875l0 1.078125l-6.6875 0q0.0625 0.5 0.28125 0.921875q0.234375 0.40625 0.578125 0.71875q0.34375 0.296875 0.78125 0.46875q0.453125 0.15625 0.984375 0.15625q0.375 0 0.734375 -0.078125q0.375 -0.078125 0.703125 -0.21875q0.34375 -0.140625 0.640625 -0.34375q0.296875 -0.21875 0.515625 -0.5l1.265625 1.375q-0.234375 0.328125 -0.625 0.65625q-0.375 0.328125 -0.890625 0.578125q-0.515625 0.25 -1.140625 0.40625q-0.625 0.15625 -1.359375 0.15625zm-0.296875 -8.171875q-0.421875 0 -0.78125 0.15625q-0.359375 0.140625 -0.625 0.421875q-0.265625 0.28125 -0.453125 0.671875q-0.1875 0.390625 -0.265625 0.875l4.140625 0l0 -0.203125q-0.015625 -0.390625 -0.15625 -0.75q-0.125 -0.359375 -0.390625 -0.609375q-0.25 -0.265625 -0.625 -0.40625q-0.359375 -0.15625 -0.84375 -0.15625zm13.148712 5.21875l-3.984375 0l-0.78125 2.765625l-2.703125 0l4.34375 -13.265625l2.328125 0l4.265625 13.265625l-2.703125 0l-0.765625 -2.765625zm-3.359375 -2.1875l2.75 0l-1.359375 -4.875l-1.390625 4.875z" fill-rule="nonzero"/><path fill="#6fa8dc" d="m418.0763 314.62247q-0.25 0.296875 -0.6875 0.609375q-0.421875 0.3125 -1.015625 0.5625q-0.578125 0.25 -1.3125 0.40625q-0.71875 0.15625 -1.5625 0.15625q-1.125 0 -2.046875 -0.40625q-0.90625 -0.40625 -1.546875 -1.15625q-0.640625 -0.75 -1.0 -1.84375q-0.34375 -1.109375 -0.34375 -2.5l0 -1.8125q0 -1.390625 0.359375 -2.484375q0.375 -1.09375 1.015625 -1.859375q0.65625 -0.765625 1.53125 -1.171875q0.890625 -0.40625 1.921875 -0.40625q1.109375 0 1.9375 0.296875q0.84375 0.28125 1.421875 0.8125q0.578125 0.53125 0.890625 1.296875q0.328125 0.765625 0.421875 1.71875l-2.484375 0q-0.140625 -1.015625 -0.625 -1.53125q-0.484375 -0.515625 -1.5 -0.515625q-0.5 0 -0.921875 0.25q-0.40625 0.25 -0.71875 0.734375q-0.3125 0.484375 -0.5 1.203125q-0.171875 0.703125 -0.171875 1.640625l0 1.828125q0 1.859375 0.609375 2.84375q0.609375 0.984375 1.875 1.0q0.296875 0 0.578125 -0.046875q0.296875 -0.046875 0.546875 -0.125q0.265625 -0.078125 0.453125 -0.1875q0.203125 -0.109375 0.3125 -0.21875l0 -2.40625l-2.1875 0l0 -1.921875l4.734375 0l0.015625 5.234375zm6.9455566 1.734375q-1.140625 0 -2.078125 -0.375q-0.921875 -0.375 -1.59375 -1.015625q-0.65625 -0.640625 -1.015625 -1.515625q-0.359375 -0.875 -0.359375 -1.859375l0 -0.375q0 -1.125 0.359375 -2.046875q0.359375 -0.9375 0.984375 -1.609375q0.640625 -0.6875 1.515625 -1.046875q0.875 -0.375 1.90625 -0.375q1.0625 0 1.890625 0.34375q0.84375 0.34375 1.421875 0.984375q0.578125 0.640625 0.875 1.546875q0.3125 0.890625 0.3125 1.96875l0 1.078125l-6.6875 0q0.0625 0.5 0.28125 0.921875q0.234375 0.40625 0.578125 0.71875q0.34375 0.296875 0.78125 0.46875q0.453125 0.15625 0.984375 0.15625q0.375 0 0.734375 -0.078125q0.375 -0.078125 0.703125 -0.21875q0.34375 -0.140625 0.640625 -0.34375q0.296875 -0.21875 0.515625 -0.5l1.265625 1.375q-0.234375 0.328125 -0.625 0.65625q-0.375 0.328125 -0.890625 0.578125q-0.515625 0.25 -1.140625 0.40625q-0.625 0.15625 -1.359375 0.15625zm-0.296875 -8.171875q-0.421875 0 -0.78125 0.15625q-0.359375 0.140625 -0.625 0.421875q-0.265625 0.28125 -0.453125 0.671875q-0.1875 0.390625 -0.265625 0.875l4.140625 0l0 -0.203125q-0.015625 -0.390625 -0.15625 -0.75q-0.125 -0.359375 -0.390625 -0.609375q-0.25 -0.265625 -0.625 -0.40625q-0.359375 -0.15625 -0.84375 -0.15625zm9.008087 -1.875l0.15625 1.375q0.53125 -0.75 1.28125 -1.140625q0.765625 -0.40625 1.6875 -0.40625q0.734375 0 1.359375 0.21875q0.625 0.21875 1.0625 0.703125q0.453125 0.46875 0.703125 1.21875q0.25 0.75 0.25 1.828125l0 6.0625l-2.53125 0l0 -6.03125q0 -0.578125 -0.140625 -0.953125q-0.125 -0.390625 -0.375 -0.609375q-0.234375 -0.21875 -0.578125 -0.296875q-0.34375 -0.09375 -0.78125 -0.09375q-0.65625 0 -1.109375 0.265625q-0.453125 0.265625 -0.734375 0.71875l0 7.0l-2.546875 0l0 -9.859375l2.296875 0zm13.679932 10.046875q-1.140625 0 -2.078125 -0.375q-0.921875 -0.375 -1.59375 -1.015625q-0.65625 -0.640625 -1.015625 -1.515625q-0.359375 -0.875 -0.359375 -1.859375l0 -0.375q0 -1.125 0.359375 -2.046875q0.359375 -0.9375 0.984375 -1.609375q0.640625 -0.6875 1.515625 -1.046875q0.875 -0.375 1.90625 -0.375q1.0625 0 1.890625 0.34375q0.84375 0.34375 1.421875 0.984375q0.578125 0.640625 0.875 1.546875q0.3125 0.890625 0.3125 1.96875l0 1.078125l-6.6875 0q0.0625 0.5 0.28125 0.921875q0.234375 0.40625 0.578125 0.71875q0.34375 0.296875 0.78125 0.46875q0.453125 0.15625 0.984375 0.15625q0.375 0 0.734375 -0.078125q0.375 -0.078125 0.703125 -0.21875q0.34375 -0.140625 0.640625 -0.34375q0.296875 -0.21875 0.515625 -0.5l1.265625 1.375q-0.234375 0.328125 -0.625 0.65625q-0.375 0.328125 -0.890625 0.578125q-0.515625 0.25 -1.140625 0.40625q-0.625 0.15625 -1.359375 0.15625zm-0.296875 -8.171875q-0.421875 0 -0.78125 0.15625q-0.359375 0.140625 -0.625 0.421875q-0.265625 0.28125 -0.453125 0.671875q-0.1875 0.390625 -0.265625 0.875l4.140625 0l0 -0.203125q-0.015625 -0.390625 -0.15625 -0.75q-0.125 -0.359375 -0.390625 -0.609375q-0.25 -0.265625 -0.625 -0.40625q-0.359375 -0.15625 -0.84375 -0.15625zm6.601837 7.984375l0 -13.265625l4.453125 0q1.09375 0 1.96875 0.21875q0.890625 0.21875 1.515625 0.671875q0.640625 0.4375 0.984375 1.125q0.34375 0.6875 0.34375 1.609375q-0.015625 0.9375 -0.5 1.671875q-0.484375 0.734375 -1.4375 1.125q0.578125 0.140625 0.984375 0.4375q0.421875 0.28125 0.703125 0.6875q0.28125 0.390625 0.40625 0.859375q0.140625 0.46875 0.140625 0.96875q0 0.953125 -0.328125 1.6875q-0.328125 0.734375 -0.9375 1.234375q-0.609375 0.484375 -1.484375 0.734375q-0.875 0.234375 -1.96875 0.234375l-4.84375 0zm2.578125 -5.84375l0 3.78125l2.265625 0q1.046875 -0.015625 1.59375 -0.515625q0.5625 -0.515625 0.5625 -1.328125q0.015625 -0.90625 -0.5 -1.421875q-0.5 -0.515625 -1.546875 -0.515625l-2.375 0zm0 -1.859375l1.890625 0q1.078125 0 1.640625 -0.4375q0.578125 -0.4375 0.59375 -1.28125q0 -0.9375 -0.578125 -1.34375q-0.578125 -0.40625 -1.65625 -0.40625l-1.890625 0l0 3.46875z" fill-rule="nonzero"/><path fill="#6fa8dc" d="m418.0763 336.62247q-0.25 0.296875 -0.6875 0.609375q-0.421875 0.3125 -1.015625 0.5625q-0.578125 0.25 -1.3125 0.40625q-0.71875 0.15625 -1.5625 0.15625q-1.125 0 -2.046875 -0.40625q-0.90625 -0.40625 -1.546875 -1.15625q-0.640625 -0.75 -1.0 -1.84375q-0.34375 -1.109375 -0.34375 -2.5l0 -1.8125q0 -1.390625 0.359375 -2.484375q0.375 -1.09375 1.015625 -1.859375q0.65625 -0.765625 1.53125 -1.171875q0.890625 -0.40625 1.921875 -0.40625q1.109375 0 1.9375 0.296875q0.84375 0.28125 1.421875 0.8125q0.578125 0.53125 0.890625 1.296875q0.328125 0.765625 0.421875 1.71875l-2.484375 0q-0.140625 -1.015625 -0.625 -1.53125q-0.484375 -0.515625 -1.5 -0.515625q-0.5 0 -0.921875 0.25q-0.40625 0.25 -0.71875 0.734375q-0.3125 0.484375 -0.5 1.203125q-0.171875 0.703125 -0.171875 1.640625l0 1.828125q0 1.859375 0.609375 2.84375q0.609375 0.984375 1.875 1.0q0.296875 0 0.578125 -0.046875q0.296875 -0.046875 0.546875 -0.125q0.265625 -0.078125 0.453125 -0.1875q0.203125 -0.109375 0.3125 -0.21875l0 -2.40625l-2.1875 0l0 -1.921875l4.734375 0l0.015625 5.234375zm6.9455566 1.734375q-1.140625 0 -2.078125 -0.375q-0.921875 -0.375 -1.59375 -1.015625q-0.65625 -0.640625 -1.015625 -1.515625q-0.359375 -0.875 -0.359375 -1.859375l0 -0.375q0 -1.125 0.359375 -2.046875q0.359375 -0.9375 0.984375 -1.609375q0.640625 -0.6875 1.515625 -1.046875q0.875 -0.375 1.90625 -0.375q1.0625 0 1.890625 0.34375q0.84375 0.34375 1.421875 0.984375q0.578125 0.640625 0.875 1.546875q0.3125 0.890625 0.3125 1.96875l0 1.078125l-6.6875 0q0.0625 0.5 0.28125 0.921875q0.234375 0.40625 0.578125 0.71875q0.34375 0.296875 0.78125 0.46875q0.453125 0.15625 0.984375 0.15625q0.375 0 0.734375 -0.078125q0.375 -0.078125 0.703125 -0.21875q0.34375 -0.140625 0.640625 -0.34375q0.296875 -0.21875 0.515625 -0.5l1.265625 1.375q-0.234375 0.328125 -0.625 0.65625q-0.375 0.328125 -0.890625 0.578125q-0.515625 0.25 -1.140625 0.40625q-0.625 0.15625 -1.359375 0.15625zm-0.296875 -8.171875q-0.421875 0 -0.78125 0.15625q-0.359375 0.140625 -0.625 0.421875q-0.265625 0.28125 -0.453125 0.671875q-0.1875 0.390625 -0.265625 0.875l4.140625 0l0 -0.203125q-0.015625 -0.390625 -0.15625 -0.75q-0.125 -0.359375 -0.390625 -0.609375q-0.25 -0.265625 -0.625 -0.40625q-0.359375 -0.15625 -0.84375 -0.15625zm9.008087 -1.875l0.15625 1.375q0.53125 -0.75 1.28125 -1.140625q0.765625 -0.40625 1.6875 -0.40625q0.734375 0 1.359375 0.21875q0.625 0.21875 1.0625 0.703125q0.453125 0.46875 0.703125 1.21875q0.25 0.75 0.25 1.828125l0 6.0625l-2.53125 0l0 -6.03125q0 -0.578125 -0.140625 -0.953125q-0.125 -0.390625 -0.375 -0.609375q-0.234375 -0.21875 -0.578125 -0.296875q-0.34375 -0.09375 -0.78125 -0.09375q-0.65625 0 -1.109375 0.265625q-0.453125 0.265625 -0.734375 0.71875l0 7.0l-2.546875 0l0 -9.859375l2.296875 0zm13.679932 10.046875q-1.140625 0 -2.078125 -0.375q-0.921875 -0.375 -1.59375 -1.015625q-0.65625 -0.640625 -1.015625 -1.515625q-0.359375 -0.875 -0.359375 -1.859375l0 -0.375q0 -1.125 0.359375 -2.046875q0.359375 -0.9375 0.984375 -1.609375q0.640625 -0.6875 1.515625 -1.046875q0.875 -0.375 1.90625 -0.375q1.0625 0 1.890625 0.34375q0.84375 0.34375 1.421875 0.984375q0.578125 0.640625 0.875 1.546875q0.3125 0.890625 0.3125 1.96875l0 1.078125l-6.6875 0q0.0625 0.5 0.28125 0.921875q0.234375 0.40625 0.578125 0.71875q0.34375 0.296875 0.78125 0.46875q0.453125 0.15625 0.984375 0.15625q0.375 0 0.734375 -0.078125q0.375 -0.078125 0.703125 -0.21875q0.34375 -0.140625 0.640625 -0.34375q0.296875 -0.21875 0.515625 -0.5l1.265625 1.375q-0.234375 0.328125 -0.625 0.65625q-0.375 0.328125 -0.890625 0.578125q-0.515625 0.25 -1.140625 0.40625q-0.625 0.15625 -1.359375 0.15625zm-0.296875 -8.171875q-0.421875 0 -0.78125 0.15625q-0.359375 0.140625 -0.625 0.421875q-0.265625 0.28125 -0.453125 0.671875q-0.1875 0.390625 -0.265625 0.875l4.140625 0l0 -0.203125q-0.015625 -0.390625 -0.15625 -0.75q-0.125 -0.359375 -0.390625 -0.609375q-0.25 -0.265625 -0.625 -0.40625q-0.359375 -0.15625 -0.84375 -0.15625zm11.117462 -0.53125l2.359375 -4.75l3.0 0l-3.734375 6.578125l3.828125 6.6875l-2.984375 0l-2.4375 -4.828125l-2.421875 4.828125l-3.03125 0l3.828125 -6.6875l-3.71875 -6.578125l2.984375 0l2.328125 4.75z" fill-rule="nonzero"/><path fill="#6fa8dc" d="m433.9987 358.7006q0 -0.359375 0.109375 -0.65625q0.125 -0.3125 0.34375 -0.53125q0.234375 -0.21875 0.5625 -0.34375q0.328125 -0.140625 0.75 -0.140625q0.40625 0 0.734375 0.140625q0.328125 0.125 0.546875 0.34375q0.21875 0.21875 0.34375 0.53125q0.125 0.296875 0.125 0.65625q0 0.34375 -0.125 0.65625q-0.125 0.296875 -0.34375 0.515625q-0.21875 0.21875 -0.546875 0.34375q-0.328125 0.140625 -0.734375 0.140625q-0.421875 0 -0.75 -0.140625q-0.328125 -0.125 -0.5625 -0.34375q-0.21875 -0.21875 -0.34375 -0.515625q-0.109375 -0.3125 -0.109375 -0.65625z" fill-rule="nonzero"/><path fill="#6fa8dc" d="m433.9987 380.7006q0 -0.359375 0.109375 -0.65625q0.125 -0.3125 0.34375 -0.53125q0.234375 -0.21875 0.5625 -0.34375q0.328125 -0.140625 0.75 -0.140625q0.40625 0 0.734375 0.140625q0.328125 0.125 0.546875 0.34375q0.21875 0.21875 0.34375 0.53125q0.125 0.296875 0.125 0.65625q0 0.34375 -0.125 0.65625q-0.125 0.296875 -0.34375 0.515625q-0.21875 0.21875 -0.546875 0.34375q-0.328125 0.140625 -0.734375 0.140625q-0.421875 0 -0.75 -0.140625q-0.328125 -0.125 -0.5625 -0.34375q-0.21875 -0.21875 -0.34375 -0.515625q-0.109375 -0.3125 -0.109375 -0.65625z" fill-rule="nonzero"/><path fill="#6fa8dc" d="m433.9987 402.7006q0 -0.359375 0.109375 -0.65625q0.125 -0.3125 0.34375 -0.53125q0.234375 -0.21875 0.5625 -0.34375q0.328125 -0.140625 0.75 -0.140625q0.40625 0 0.734375 0.140625q0.328125 0.125 0.546875 0.34375q0.21875 0.21875 0.34375 0.53125q0.125 0.296875 0.125 0.65625q0 0.34375 -0.125 0.65625q-0.125 0.296875 -0.34375 0.515625q-0.21875 0.21875 -0.546875 0.34375q-0.328125 0.140625 -0.734375 0.140625q-0.421875 0 -0.75 -0.140625q-0.328125 -0.125 -0.5625 -0.34375q-0.21875 -0.21875 -0.34375 -0.515625q-0.109375 -0.3125 -0.109375 -0.65625z" fill-rule="nonzero"/><path fill="#666666" d="m476.7638 59.750656l117.763794 0l0 9.763779l-117.763794 0z" fill-rule="evenodd"/><path stroke="#ffffff" stroke-width="1.0" stroke-linejoin="round" stroke-linecap="butt" d="m476.7638 59.750656l117.763794 0l0 9.763779l-117.763794 0z" fill-rule="evenodd"/><path fill="#666666" d="m476.7638 81.0l46.48816 0l0 9.763779l-46.48816 0z" fill-rule="evenodd"/><path stroke="#ffffff" stroke-width="1.0" stroke-linejoin="round" stroke-linecap="butt" d="m476.7638 81.0l46.48816 0l0 9.763779l-46.48816 0z" fill-rule="evenodd"/><path fill="#666666" d="m476.7638 102.750656l80.25195 0l0 9.763779l-80.25195 0z" fill-rule="evenodd"/><path stroke="#ffffff" stroke-width="1.0" stroke-linejoin="round" stroke-linecap="butt" d="m476.7638 102.750656l80.25195 0l0 9.763779l-80.25195 0z" fill-rule="evenodd"/><path fill="#666666" d="m476.7638 283.75067l26.236206 0l0 9.763763l-26.236206 0z" fill-rule="evenodd"/><path stroke="#ffffff" stroke-width="1.0" stroke-linejoin="round" stroke-linecap="butt" d="m476.7638 283.75067l26.236206 0l0 9.763763l-26.236206 0z" fill-rule="evenodd"/><path fill="#666666" d="m476.7638 305.0l88.0 0l0 9.763794l-88.0 0z" fill-rule="evenodd"/><path stroke="#ffffff" stroke-width="1.0" stroke-linejoin="round" stroke-linecap="butt" d="m476.7638 305.0l88.0 0l0 9.763794l-88.0 0z" fill-rule="evenodd"/><path fill="#666666" d="m476.7638 326.75067l80.25195 0l0 9.763763l-80.25195 0z" fill-rule="evenodd"/><path stroke="#ffffff" stroke-width="1.0" stroke-linejoin="round" stroke-linecap="butt" d="m476.7638 326.75067l80.25195 0l0 9.763763l-80.25195 0z" fill-rule="evenodd"/><path fill="#000000" fill-opacity="0.0" d="m470.75592 52.875328l0 135.24408" fill-rule="evenodd"/><path stroke="#999999" stroke-width="2.0" stroke-linejoin="round" stroke-linecap="butt" d="m470.75592 52.875328l0 135.24408" fill-rule="evenodd"/><path fill="#000000" fill-opacity="0.0" d="m470.75592 53.437008l143.24408 0" fill-rule="evenodd"/><path stroke="#999999" stroke-width="2.0" stroke-linejoin="round" stroke-linecap="butt" d="m470.75592 53.437008l136.3899 0" fill-rule="evenodd"/><path fill="#999999" stroke="#999999" stroke-width="2.0" stroke-linecap="butt" d="m607.1458 53.437008l-2.2491455 2.2491684l6.1795044 -2.2491684l-6.1795044 -2.2491684z" fill-rule="evenodd"/><path fill="#000000" fill-opacity="0.0" d="m470.75592 276.87534l0 135.24408" fill-rule="evenodd"/><path stroke="#999999" stroke-width="2.0" stroke-linejoin="round" stroke-linecap="butt" d="m470.75592 276.87534l0 135.24408" fill-rule="evenodd"/><path fill="#000000" fill-opacity="0.0" d="m470.75592 277.437l143.24408 0" fill-rule="evenodd"/><path stroke="#999999" stroke-width="2.0" stroke-linejoin="round" stroke-linecap="butt" d="m470.75592 277.437l136.3899 0" fill-rule="evenodd"/><path fill="#999999" stroke="#999999" stroke-width="2.0" stroke-linecap="butt" d="m607.1458 277.437l-2.2491455 2.249176l6.1795044 -2.249176l-6.1795044 -2.249176z" fill-rule="evenodd"/><path fill="#000000" fill-opacity="0.0" d="m465.49878 27.87664l186.74017 0l0 20.503937l-186.74017 0z" fill-rule="evenodd"/><path fill="#000000" d="m474.28003 47.116642l4.328125 -7.625l1.203125 0l1.265625 7.625l-1.0 0l-0.359375 -2.203125l-3.09375 0l-1.21875 2.203125l-1.125 0zm2.78125 -2.984375l2.53125 0l-0.296875 -1.90625q-0.171875 -1.140625 -0.21875 -1.90625q-0.265625 0.65625 -0.765625 1.5625l-1.25 2.25zm6.1024475 2.984375l-0.90625 -5.53125l0.921875 0l0.46875 3.046875q0.078125 0.5 0.1875 1.625q0.265625 -0.578125 0.6875 -1.34375l1.859375 -3.328125l0.984375 0l-3.15625 5.53125l-1.046875 0zm7.984375 -1.875l0.921875 0.09375q-0.203125 0.671875 -0.921875 1.296875q-0.703125 0.609375 -1.6875 0.609375q-0.609375 0 -1.125 -0.28125q-0.5 -0.28125 -0.78125 -0.828125q-0.265625 -0.546875 -0.265625 -1.234375q0 -0.90625 0.421875 -1.75q0.421875 -0.859375 1.078125 -1.265625q0.671875 -0.421875 1.453125 -0.421875q0.984375 0 1.578125 0.625q0.59375 0.609375 0.59375 1.671875q0 0.40625 -0.078125 0.828125l-4.0625 0q-0.03125 0.15625 -0.03125 0.296875q0 0.765625 0.359375 1.1875q0.359375 0.40625 0.875 0.40625q0.484375 0 0.953125 -0.3125q0.46875 -0.328125 0.71875 -0.921875zm-2.734375 -1.375l3.109375 0q0 -0.140625 0 -0.203125q0 -0.703125 -0.359375 -1.078125q-0.34375 -0.390625 -0.90625 -0.390625q-0.609375 0 -1.109375 0.421875q-0.484375 0.421875 -0.734375 1.25zm4.613983 3.25l1.15625 -5.53125l0.828125 0l-0.234375 1.140625q0.421875 -0.640625 0.828125 -0.953125q0.40625 -0.3125 0.84375 -0.3125q0.28125 0 0.6875 0.203125l-0.390625 0.875q-0.234375 -0.171875 -0.53125 -0.171875q-0.5 0 -1.015625 0.5625q-0.515625 0.546875 -0.8125 1.96875l-0.46875 2.21875l-0.890625 0zm7.2673645 -0.6875q-0.484375 0.421875 -0.9375 0.625q-0.453125 0.1875 -0.96875 0.1875q-0.765625 0 -1.234375 -0.453125q-0.46875 -0.453125 -0.46875 -1.15625q0 -0.453125 0.203125 -0.8125q0.21875 -0.359375 0.5625 -0.5625q0.359375 -0.21875 0.859375 -0.3125q0.3125 -0.0625 1.203125 -0.09375q0.890625 -0.046875 1.265625 -0.203125q0.109375 -0.375 0.109375 -0.640625q0 -0.328125 -0.234375 -0.515625q-0.328125 -0.25 -0.953125 -0.25q-0.59375 0 -0.96875 0.265625q-0.375 0.25 -0.546875 0.734375l-0.953125 -0.078125q0.28125 -0.828125 0.90625 -1.265625q0.640625 -0.4375 1.609375 -0.4375q1.015625 0 1.625 0.5q0.453125 0.359375 0.453125 0.9375q0 0.453125 -0.125 1.03125l-0.3125 1.375q-0.140625 0.65625 -0.140625 1.0625q0 0.265625 0.109375 0.75l-0.953125 0q-0.078125 -0.265625 -0.109375 -0.6875zm0.34375 -2.109375q-0.1875 0.078125 -0.421875 0.125q-0.21875 0.03125 -0.75 0.078125q-0.828125 0.078125 -1.171875 0.1875q-0.328125 0.109375 -0.5 0.359375q-0.171875 0.234375 -0.171875 0.53125q0 0.40625 0.265625 0.65625q0.28125 0.25 0.78125 0.25q0.46875 0 0.890625 -0.234375q0.4375 -0.25 0.6875 -0.6875q0.25 -0.453125 0.390625 -1.265625zm1.8015137 3.296875l0.953125 0.09375q0 0.3125 0.078125 0.46875q0.09375 0.171875 0.28125 0.265625q0.265625 0.109375 0.671875 0.109375q0.84375 0 1.21875 -0.4375q0.25 -0.296875 0.453125 -1.296875l0.09375 -0.453125q-0.734375 0.75 -1.5625 0.75q-0.828125 0 -1.40625 -0.609375q-0.5625 -0.625 -0.5625 -1.75q0 -0.9375 0.4375 -1.71875q0.453125 -0.78125 1.0625 -1.171875q0.625 -0.40625 1.265625 -0.40625q1.09375 0 1.6875 1.03125l0.1875 -0.90625l0.859375 0l-1.109375 5.34375q-0.1875 0.875 -0.484375 1.359375q-0.296875 0.5 -0.828125 0.765625q-0.53125 0.28125 -1.21875 0.28125q-0.65625 0 -1.140625 -0.171875q-0.484375 -0.171875 -0.71875 -0.515625q-0.234375 -0.328125 -0.234375 -0.75q0 -0.125 0.015625 -0.28125zm1.1875 -2.953125q0 0.578125 0.109375 0.859375q0.15625 0.40625 0.4375 0.625q0.296875 0.203125 0.640625 0.203125q0.46875 0 0.921875 -0.328125q0.453125 -0.328125 0.734375 -1.0q0.296875 -0.6875 0.296875 -1.3125q0 -0.671875 -0.390625 -1.078125q-0.375 -0.40625 -0.921875 -0.40625q-0.34375 0 -0.671875 0.1875q-0.3125 0.1875 -0.59375 0.5625q-0.28125 0.375 -0.421875 0.90625q-0.140625 0.515625 -0.140625 0.78125zm8.848358 0.578125l0.921875 0.09375q-0.203125 0.671875 -0.921875 1.296875q-0.703125 0.609375 -1.6875 0.609375q-0.609375 0 -1.125 -0.28125q-0.5 -0.28125 -0.78125 -0.828125q-0.265625 -0.546875 -0.265625 -1.234375q0 -0.90625 0.421875 -1.75q0.421875 -0.859375 1.078125 -1.265625q0.671875 -0.421875 1.453125 -0.421875q0.984375 0 1.578125 0.625q0.59375 0.609375 0.59375 1.671875q0 0.40625 -0.078125 0.828125l-4.0625 0q-0.03125 0.15625 -0.03125 0.296875q0 0.765625 0.359375 1.1875q0.359375 0.40625 0.875 0.40625q0.484375 0 0.953125 -0.3125q0.46875 -0.328125 0.71875 -0.921875zm-2.734375 -1.375l3.109375 0q0 -0.140625 0 -0.203125q0 -0.703125 -0.359375 -1.078125q-0.34375 -0.390625 -0.90625 -0.390625q-0.609375 0 -1.109375 0.421875q-0.484375 0.421875 -0.734375 1.25zm7.699646 3.25l1.59375 -7.625l5.5 0l-0.171875 0.859375l-4.5 0l-0.484375 2.375l4.359375 0l-0.171875 0.875l-4.375 0l-0.546875 2.65625l4.796875 0l-0.1875 0.859375l-5.8125 0zm6.607666 0l2.40625 -2.796875l-1.375 -2.734375l1.03125 0l0.46875 0.984375q0.265625 0.5625 0.46875 1.0625l1.59375 -2.046875l1.15625 0l-2.328125 2.796875l1.390625 2.734375l-1.03125 0l-0.5625 -1.125q-0.171875 -0.359375 -0.390625 -0.890625l-1.640625 2.015625l-1.1875 0zm5.234375 2.125l1.59375 -7.65625l0.875 0l-0.15625 0.78125q0.46875 -0.515625 0.84375 -0.703125q0.390625 -0.203125 0.828125 -0.203125q0.78125 0 1.296875 0.578125q0.53125 0.578125 0.53125 1.65625q0 0.859375 -0.296875 1.578125q-0.28125 0.703125 -0.703125 1.140625q-0.40625 0.421875 -0.84375 0.625q-0.421875 0.203125 -0.859375 0.203125q-1.0 0 -1.546875 -1.015625l-0.625 3.015625l-0.9375 0zm1.859375 -4.390625q0 0.625 0.09375 0.859375q0.125 0.34375 0.421875 0.5625q0.296875 0.203125 0.6875 0.203125q0.8125 0 1.3125 -0.90625q0.5 -0.921875 0.5 -1.875q0 -0.703125 -0.34375 -1.078125q-0.328125 -0.390625 -0.828125 -0.390625q-0.359375 0 -0.671875 0.1875q-0.296875 0.1875 -0.5625 0.578125q-0.265625 0.375 -0.4375 0.921875q-0.171875 0.53125 -0.171875 0.9375zm4.5358276 2.265625l1.15625 -5.53125l0.828125 0l-0.234375 1.140625q0.421875 -0.640625 0.828125 -0.953125q0.40625 -0.3125 0.84375 -0.3125q0.28125 0 0.6875 0.203125l-0.390625 0.875q-0.234375 -0.171875 -0.53125 -0.171875q-0.5 0 -1.015625 0.5625q-0.515625 0.546875 -0.8125 1.96875l-0.46875 2.21875l-0.890625 0zm7.59552 -1.875l0.921875 0.09375q-0.203125 0.671875 -0.921875 1.296875q-0.703125 0.609375 -1.6875 0.609375q-0.609375 0 -1.125 -0.28125q-0.5 -0.28125 -0.78125 -0.828125q-0.265625 -0.546875 -0.265625 -1.234375q0 -0.90625 0.421875 -1.75q0.421875 -0.859375 1.078125 -1.265625q0.671875 -0.421875 1.453125 -0.421875q0.984375 0 1.578125 0.625q0.59375 0.609375 0.59375 1.671875q0 0.40625 -0.078125 0.828125l-4.0625 0q-0.03125 0.15625 -0.03125 0.296875q0 0.765625 0.359375 1.1875q0.359375 0.40625 0.875 0.40625q0.484375 0 0.953125 -0.3125q0.46875 -0.328125 0.71875 -0.921875zm-2.734375 -1.375l3.109375 0q0 -0.140625 0 -0.203125q0 -0.703125 -0.359375 -1.078125q-0.34375 -0.390625 -0.90625 -0.390625q-0.609375 0 -1.109375 0.421875q-0.484375 0.421875 -0.734375 1.25zm4.6921387 1.359375l0.953125 -0.0625q0 0.40625 0.125 0.703125q0.125 0.28125 0.453125 0.46875q0.34375 0.171875 0.78125 0.171875q0.625 0 0.9375 -0.25q0.3125 -0.25 0.3125 -0.578125q0 -0.25 -0.1875 -0.46875q-0.1875 -0.21875 -0.9375 -0.53125q-0.75 -0.328125 -0.953125 -0.453125q-0.34375 -0.21875 -0.53125 -0.5q-0.171875 -0.296875 -0.171875 -0.671875q0 -0.65625 0.515625 -1.125q0.53125 -0.46875 1.453125 -0.46875q1.046875 0 1.59375 0.484375q0.546875 0.484375 0.5625 1.265625l-0.921875 0.0625q-0.015625 -0.5 -0.359375 -0.78125q-0.328125 -0.296875 -0.9375 -0.296875q-0.484375 0 -0.765625 0.234375q-0.265625 0.21875 -0.265625 0.46875q0 0.265625 0.234375 0.46875q0.15625 0.125 0.8125 0.40625q1.078125 0.46875 1.359375 0.734375q0.453125 0.4375 0.453125 1.0625q0 0.40625 -0.265625 0.8125q-0.25 0.390625 -0.765625 0.625q-0.515625 0.234375 -1.21875 0.234375q-0.953125 0 -1.625 -0.46875q-0.671875 -0.484375 -0.640625 -1.546875zm5.328125 0l0.953125 -0.0625q0 0.40625 0.125 0.703125q0.125 0.28125 0.453125 0.46875q0.34375 0.171875 0.78125 0.171875q0.625 0 0.9375 -0.25q0.3125 -0.25 0.3125 -0.578125q0 -0.25 -0.1875 -0.46875q-0.1875 -0.21875 -0.9375 -0.53125q-0.75 -0.328125 -0.953125 -0.453125q-0.34375 -0.21875 -0.53125 -0.5q-0.171875 -0.296875 -0.171875 -0.671875q0 -0.65625 0.515625 -1.125q0.53125 -0.46875 1.453125 -0.46875q1.046875 0 1.59375 0.484375q0.546875 0.484375 0.5625 1.265625l-0.921875 0.0625q-0.015625 -0.5 -0.359375 -0.78125q-0.328125 -0.296875 -0.9375 -0.296875q-0.484375 0 -0.765625 0.234375q-0.265625 0.21875 -0.265625 0.46875q0 0.265625 0.234375 0.46875q0.15625 0.125 0.8125 0.40625q1.078125 0.46875 1.359375 0.734375q0.453125 0.4375 0.453125 1.0625q0 0.40625 -0.265625 0.8125q-0.25 0.390625 -0.765625 0.625q-0.515625 0.234375 -1.21875 0.234375q-0.953125 0 -1.625 -0.46875q-0.671875 -0.484375 -0.640625 -1.546875zm6.578125 -4.671875l0.234375 -1.0625l0.921875 0l-0.21875 1.0625l-0.9375 0zm-1.375 6.5625l1.15625 -5.53125l0.953125 0l-1.15625 5.53125l-0.953125 0zm2.5705566 -2.09375q0 -1.625 0.953125 -2.6875q0.796875 -0.875 2.0625 -0.875q1.0 0 1.609375 0.625q0.609375 0.625 0.609375 1.6875q0 0.953125 -0.390625 1.78125q-0.375 0.8125 -1.09375 1.25q-0.703125 0.4375 -1.484375 0.4375q-0.640625 0 -1.171875 -0.265625q-0.53125 -0.28125 -0.8125 -0.78125q-0.28125 -0.515625 -0.28125 -1.171875zm0.953125 -0.09375q0 0.78125 0.375 1.1875q0.375 0.390625 0.9375 0.390625q0.3125 0 0.609375 -0.109375q0.296875 -0.125 0.546875 -0.375q0.25 -0.25 0.421875 -0.5625q0.1875 -0.328125 0.296875 -0.703125q0.171875 -0.515625 0.171875 -0.984375q0 -0.75 -0.390625 -1.15625q-0.375 -0.421875 -0.9375 -0.421875q-0.453125 0 -0.8125 0.21875q-0.359375 0.203125 -0.65625 0.609375q-0.296875 0.40625 -0.4375 0.953125q-0.125 0.53125 -0.125 0.953125zm4.8171387 2.1875l1.15625 -5.53125l0.84375 0l-0.203125 0.96875q0.5625 -0.5625 1.046875 -0.828125q0.484375 -0.265625 0.984375 -0.265625q0.671875 0 1.046875 0.375q0.390625 0.359375 0.390625 0.96875q0 0.3125 -0.140625 0.96875l-0.703125 3.34375l-0.9375 0l0.734375 -3.5q0.109375 -0.515625 0.109375 -0.75q0 -0.28125 -0.1875 -0.453125q-0.1875 -0.171875 -0.546875 -0.171875q-0.734375 0 -1.296875 0.53125q-0.5625 0.515625 -0.828125 1.765625l-0.53125 2.578125l-0.9375 0zm9.043396 -2.09375q0 -1.625 0.953125 -2.6875q0.796875 -0.875 2.0625 -0.875q1.0 0 1.609375 0.625q0.609375 0.625 0.609375 1.6875q0 0.953125 -0.390625 1.78125q-0.375 0.8125 -1.09375 1.25q-0.703125 0.4375 -1.484375 0.4375q-0.640625 0 -1.171875 -0.265625q-0.53125 -0.28125 -0.8125 -0.78125q-0.28125 -0.515625 -0.28125 -1.171875zm0.953125 -0.09375q0 0.78125 0.375 1.1875q0.375 0.390625 0.9375 0.390625q0.3125 0 0.609375 -0.109375q0.296875 -0.125 0.546875 -0.375q0.25 -0.25 0.421875 -0.5625q0.1875 -0.328125 0.296875 -0.703125q0.171875 -0.515625 0.171875 -0.984375q0 -0.75 -0.390625 -1.15625q-0.375 -0.421875 -0.9375 -0.421875q-0.453125 0 -0.8125 0.21875q-0.359375 0.203125 -0.65625 0.609375q-0.296875 0.40625 -0.4375 0.953125q-0.125 0.53125 -0.125 0.953125zm4.9421387 2.1875l1.0 -4.796875l-0.84375 0l0.15625 -0.734375l0.84375 0l0.15625 -0.78125q0.125 -0.59375 0.25 -0.84375q0.140625 -0.265625 0.4375 -0.4375q0.296875 -0.171875 0.8125 -0.171875q0.359375 0 1.046875 0.15625l-0.171875 0.828125q-0.484375 -0.125 -0.796875 -0.125q-0.28125 0 -0.421875 0.140625q-0.140625 0.125 -0.25 0.640625l-0.125 0.59375l1.046875 0l-0.140625 0.734375l-1.046875 0l-1.015625 4.796875l-0.9375 0zm9.796265 -3.0l0.1875 -0.875l3.34375 0l-0.65625 3.109375q-0.625 0.390625 -1.4375 0.640625q-0.796875 0.25 -1.578125 0.25q-1.671875 0 -2.484375 -1.0q-0.703125 -0.84375 -0.703125 -2.171875q0 -1.375 0.609375 -2.5q0.609375 -1.140625 1.53125 -1.671875q0.921875 -0.546875 2.046875 -0.546875q0.8125 0 1.453125 0.296875q0.65625 0.296875 1.0 0.796875q0.34375 0.484375 0.484375 1.28125l-0.984375 0.109375q-0.171875 -0.796875 -0.6875 -1.203125q-0.5 -0.421875 -1.296875 -0.421875q-0.828125 0 -1.546875 0.453125q-0.71875 0.4375 -1.140625 1.359375q-0.421875 0.90625 -0.421875 2.0625q0 1.140625 0.5625 1.734375q0.5625 0.578125 1.5625 0.578125q1.0 0 2.140625 -0.65625l0.34375 -1.625l-2.328125 0zm8.335693 1.125l0.921875 0.09375q-0.203125 0.671875 -0.921875 1.296875q-0.703125 0.609375 -1.6875 0.609375q-0.609375 0 -1.125 -0.28125q-0.5 -0.28125 -0.78125 -0.828125q-0.265625 -0.546875 -0.265625 -1.234375q0 -0.90625 0.421875 -1.75q0.421875 -0.859375 1.078125 -1.265625q0.671875 -0.421875 1.453125 -0.421875q0.984375 0 1.578125 0.625q0.59375 0.609375 0.59375 1.671875q0 0.40625 -0.078125 0.828125l-4.0625 0q-0.03125 0.15625 -0.03125 0.296875q0 0.765625 0.359375 1.1875q0.359375 0.40625 0.875 0.40625q0.484375 0 0.953125 -0.3125q0.46875 -0.328125 0.71875 -0.921875zm-2.734375 -1.375l3.109375 0q0 -0.140625 0 -0.203125q0 -0.703125 -0.359375 -1.078125q-0.34375 -0.390625 -0.90625 -0.390625q-0.609375 0 -1.109375 0.421875q-0.484375 0.421875 -0.734375 1.25zm4.6139526 3.25l1.15625 -5.53125l0.84375 0l-0.203125 0.96875q0.5625 -0.5625 1.046875 -0.828125q0.484375 -0.265625 0.984375 -0.265625q0.671875 0 1.046875 0.375q0.390625 0.359375 0.390625 0.96875q0 0.3125 -0.140625 0.96875l-0.703125 3.34375l-0.9375 0l0.734375 -3.5q0.109375 -0.515625 0.109375 -0.75q0 -0.28125 -0.1875 -0.453125q-0.1875 -0.171875 -0.546875 -0.171875q-0.734375 0 -1.296875 0.53125q-0.5625 0.515625 -0.828125 1.765625l-0.53125 2.578125l-0.9375 0zm9.973389 -1.875l0.921875 0.09375q-0.203125 0.671875 -0.921875 1.296875q-0.703125 0.609375 -1.6875 0.609375q-0.609375 0 -1.125 -0.28125q-0.5 -0.28125 -0.78125 -0.828125q-0.265625 -0.546875 -0.265625 -1.234375q0 -0.90625 0.421875 -1.75q0.421875 -0.859375 1.078125 -1.265625q0.671875 -0.421875 1.453125 -0.421875q0.984375 0 1.578125 0.625q0.59375 0.609375 0.59375 1.671875q0 0.40625 -0.078125 0.828125l-4.0625 0q-0.03125 0.15625 -0.03125 0.296875q0 0.765625 0.359375 1.1875q0.359375 0.40625 0.875 0.40625q0.484375 0 0.953125 -0.3125q0.46875 -0.328125 0.71875 -0.921875zm-2.734375 -1.375l3.109375 0q0 -0.140625 0 -0.203125q0 -0.703125 -0.359375 -1.078125q-0.34375 -0.390625 -0.90625 -0.390625q-0.609375 0 -1.109375 0.421875q-0.484375 0.421875 -0.734375 1.25z" fill-rule="nonzero"/><path fill="#000000" fill-opacity="0.0" d="m465.49878 251.87665l186.74017 0l0 20.503937l-186.74017 0z" fill-rule="evenodd"/><path fill="#000000" d="m474.28003 271.11664l4.328125 -7.625l1.203125 0l1.265625 7.625l-1.0 0l-0.359375 -2.203125l-3.09375 0l-1.21875 2.203125l-1.125 0zm2.78125 -2.984375l2.53125 0l-0.296875 -1.90625q-0.171875 -1.140625 -0.21875 -1.90625q-0.265625 0.65625 -0.765625 1.5625l-1.25 2.25zm6.1024475 2.984375l-0.90625 -5.53125l0.921875 0l0.46875 3.046875q0.078125 0.5 0.1875 1.625q0.265625 -0.578125 0.6875 -1.34375l1.859375 -3.328125l0.984375 0l-3.15625 5.53125l-1.046875 0zm7.984375 -1.875l0.921875 0.09375q-0.203125 0.671875 -0.921875 1.296875q-0.703125 0.609375 -1.6875 0.609375q-0.609375 0 -1.125 -0.28125q-0.5 -0.28125 -0.78125 -0.828125q-0.265625 -0.546875 -0.265625 -1.234375q0 -0.90625 0.421875 -1.75q0.421875 -0.859375 1.078125 -1.265625q0.671875 -0.421875 1.453125 -0.421875q0.984375 0 1.578125 0.625q0.59375 0.609375 0.59375 1.671875q0 0.40625 -0.078125 0.828125l-4.0625 0q-0.03125 0.15625 -0.03125 0.296875q0 0.765625 0.359375 1.1875q0.359375 0.40625 0.875 0.40625q0.484375 0 0.953125 -0.3125q0.46875 -0.328125 0.71875 -0.921875zm-2.734375 -1.375l3.109375 0q0 -0.140625 0 -0.203125q0 -0.703125 -0.359375 -1.078125q-0.34375 -0.390625 -0.90625 -0.390625q-0.609375 0 -1.109375 0.421875q-0.484375 0.421875 -0.734375 1.25zm4.613983 3.25l1.15625 -5.53125l0.828125 0l-0.234375 1.140625q0.421875 -0.640625 0.828125 -0.953125q0.40625 -0.3125 0.84375 -0.3125q0.28125 0 0.6875 0.203125l-0.390625 0.875q-0.234375 -0.171875 -0.53125 -0.171875q-0.5 0 -1.015625 0.5625q-0.515625 0.546875 -0.8125 1.96875l-0.46875 2.21875l-0.890625 0zm7.2673645 -0.6875q-0.484375 0.421875 -0.9375 0.625q-0.453125 0.1875 -0.96875 0.1875q-0.765625 0 -1.234375 -0.453125q-0.46875 -0.453125 -0.46875 -1.15625q0 -0.453125 0.203125 -0.8125q0.21875 -0.359375 0.5625 -0.5625q0.359375 -0.21875 0.859375 -0.3125q0.3125 -0.0625 1.203125 -0.09375q0.890625 -0.046875 1.265625 -0.203125q0.109375 -0.375 0.109375 -0.640625q0 -0.328125 -0.234375 -0.515625q-0.328125 -0.25 -0.953125 -0.25q-0.59375 0 -0.96875 0.265625q-0.375 0.25 -0.546875 0.734375l-0.953125 -0.078125q0.28125 -0.828125 0.90625 -1.265625q0.640625 -0.4375 1.609375 -0.4375q1.015625 0 1.625 0.5q0.453125 0.359375 0.453125 0.9375q0 0.453125 -0.125 1.03125l-0.3125 1.375q-0.140625 0.65625 -0.140625 1.0625q0 0.265625 0.109375 0.75l-0.953125 0q-0.078125 -0.265625 -0.109375 -0.6875zm0.34375 -2.109375q-0.1875 0.078125 -0.421875 0.125q-0.21875 0.03125 -0.75 0.078125q-0.828125 0.078125 -1.171875 0.1875q-0.328125 0.109375 -0.5 0.359375q-0.171875 0.234375 -0.171875 0.53125q0 0.40625 0.265625 0.65625q0.28125 0.25 0.78125 0.25q0.46875 0 0.890625 -0.234375q0.4375 -0.25 0.6875 -0.6875q0.25 -0.453125 0.390625 -1.265625zm1.8015137 3.296875l0.953125 0.09375q0 0.3125 0.078125 0.46875q0.09375 0.171875 0.28125 0.265625q0.265625 0.109375 0.671875 0.109375q0.84375 0 1.21875 -0.4375q0.25 -0.296875 0.453125 -1.296875l0.09375 -0.453125q-0.734375 0.75 -1.5625 0.75q-0.828125 0 -1.40625 -0.609375q-0.5625 -0.625 -0.5625 -1.75q0 -0.9375 0.4375 -1.71875q0.453125 -0.78125 1.0625 -1.171875q0.625 -0.40625 1.265625 -0.40625q1.09375 0 1.6875 1.03125l0.1875 -0.90625l0.859375 0l-1.109375 5.34375q-0.1875 0.875 -0.484375 1.359375q-0.296875 0.5 -0.828125 0.765625q-0.53125 0.28125 -1.21875 0.28125q-0.65625 0 -1.140625 -0.171875q-0.484375 -0.171875 -0.71875 -0.515625q-0.234375 -0.328125 -0.234375 -0.75q0 -0.125 0.015625 -0.28125zm1.1875 -2.953125q0 0.578125 0.109375 0.859375q0.15625 0.40625 0.4375 0.625q0.296875 0.203125 0.640625 0.203125q0.46875 0 0.921875 -0.328125q0.453125 -0.328125 0.734375 -1.0q0.296875 -0.6875 0.296875 -1.3125q0 -0.671875 -0.390625 -1.078125q-0.375 -0.40625 -0.921875 -0.40625q-0.34375 0 -0.671875 0.1875q-0.3125 0.1875 -0.59375 0.5625q-0.28125 0.375 -0.421875 0.90625q-0.140625 0.515625 -0.140625 0.78125zm8.848358 0.578125l0.921875 0.09375q-0.203125 0.671875 -0.921875 1.296875q-0.703125 0.609375 -1.6875 0.609375q-0.609375 0 -1.125 -0.28125q-0.5 -0.28125 -0.78125 -0.828125q-0.265625 -0.546875 -0.265625 -1.234375q0 -0.90625 0.421875 -1.75q0.421875 -0.859375 1.078125 -1.265625q0.671875 -0.421875 1.453125 -0.421875q0.984375 0 1.578125 0.625q0.59375 0.609375 0.59375 1.671875q0 0.40625 -0.078125 0.828125l-4.0625 0q-0.03125 0.15625 -0.03125 0.296875q0 0.765625 0.359375 1.1875q0.359375 0.40625 0.875 0.40625q0.484375 0 0.953125 -0.3125q0.46875 -0.328125 0.71875 -0.921875zm-2.734375 -1.375l3.109375 0q0 -0.140625 0 -0.203125q0 -0.703125 -0.359375 -1.078125q-0.34375 -0.390625 -0.90625 -0.390625q-0.609375 0 -1.109375 0.421875q-0.484375 0.421875 -0.734375 1.25zm7.699646 3.25l1.59375 -7.625l5.5 0l-0.171875 0.859375l-4.5 0l-0.484375 2.375l4.359375 0l-0.171875 0.875l-4.375 0l-0.546875 2.65625l4.796875 0l-0.1875 0.859375l-5.8125 0zm6.607666 0l2.40625 -2.796875l-1.375 -2.734375l1.03125 0l0.46875 0.984375q0.265625 0.5625 0.46875 1.0625l1.59375 -2.046875l1.15625 0l-2.328125 2.796875l1.390625 2.734375l-1.03125 0l-0.5625 -1.125q-0.171875 -0.359375 -0.390625 -0.890625l-1.640625 2.015625l-1.1875 0zm5.234375 2.125l1.59375 -7.65625l0.875 0l-0.15625 0.78125q0.46875 -0.515625 0.84375 -0.703125q0.390625 -0.203125 0.828125 -0.203125q0.78125 0 1.296875 0.578125q0.53125 0.578125 0.53125 1.65625q0 0.859375 -0.296875 1.578125q-0.28125 0.703125 -0.703125 1.140625q-0.40625 0.421875 -0.84375 0.625q-0.421875 0.203125 -0.859375 0.203125q-1.0 0 -1.546875 -1.015625l-0.625 3.015625l-0.9375 0zm1.859375 -4.390625q0 0.625 0.09375 0.859375q0.125 0.34375 0.421875 0.5625q0.296875 0.203125 0.6875 0.203125q0.8125 0 1.3125 -0.90625q0.5 -0.921875 0.5 -1.875q0 -0.703125 -0.34375 -1.078125q-0.328125 -0.390625 -0.828125 -0.390625q-0.359375 0 -0.671875 0.1875q-0.296875 0.1875 -0.5625 0.578125q-0.265625 0.375 -0.4375 0.921875q-0.171875 0.53125 -0.171875 0.9375zm4.5358276 2.265625l1.15625 -5.53125l0.828125 0l-0.234375 1.140625q0.421875 -0.640625 0.828125 -0.953125q0.40625 -0.3125 0.84375 -0.3125q0.28125 0 0.6875 0.203125l-0.390625 0.875q-0.234375 -0.171875 -0.53125 -0.171875q-0.5 0 -1.015625 0.5625q-0.515625 0.546875 -0.8125 1.96875l-0.46875 2.21875l-0.890625 0zm7.59552 -1.875l0.921875 0.09375q-0.203125 0.671875 -0.921875 1.296875q-0.703125 0.609375 -1.6875 0.609375q-0.609375 0 -1.125 -0.28125q-0.5 -0.28125 -0.78125 -0.828125q-0.265625 -0.546875 -0.265625 -1.234375q0 -0.90625 0.421875 -1.75q0.421875 -0.859375 1.078125 -1.265625q0.671875 -0.421875 1.453125 -0.421875q0.984375 0 1.578125 0.625q0.59375 0.609375 0.59375 1.671875q0 0.40625 -0.078125 0.828125l-4.0625 0q-0.03125 0.15625 -0.03125 0.296875q0 0.765625 0.359375 1.1875q0.359375 0.40625 0.875 0.40625q0.484375 0 0.953125 -0.3125q0.46875 -0.328125 0.71875 -0.921875zm-2.734375 -1.375l3.109375 0q0 -0.140625 0 -0.203125q0 -0.703125 -0.359375 -1.078125q-0.34375 -0.390625 -0.90625 -0.390625q-0.609375 0 -1.109375 0.421875q-0.484375 0.421875 -0.734375 1.25zm4.6921387 1.359375l0.953125 -0.0625q0 0.40625 0.125 0.703125q0.125 0.28125 0.453125 0.46875q0.34375 0.171875 0.78125 0.171875q0.625 0 0.9375 -0.25q0.3125 -0.25 0.3125 -0.578125q0 -0.25 -0.1875 -0.46875q-0.1875 -0.21875 -0.9375 -0.53125q-0.75 -0.328125 -0.953125 -0.453125q-0.34375 -0.21875 -0.53125 -0.5q-0.171875 -0.296875 -0.171875 -0.671875q0 -0.65625 0.515625 -1.125q0.53125 -0.46875 1.453125 -0.46875q1.046875 0 1.59375 0.484375q0.546875 0.484375 0.5625 1.265625l-0.921875 0.0625q-0.015625 -0.5 -0.359375 -0.78125q-0.328125 -0.296875 -0.9375 -0.296875q-0.484375 0 -0.765625 0.234375q-0.265625 0.21875 -0.265625 0.46875q0 0.265625 0.234375 0.46875q0.15625 0.125 0.8125 0.40625q1.078125 0.46875 1.359375 0.734375q0.453125 0.4375 0.453125 1.0625q0 0.40625 -0.265625 0.8125q-0.25 0.390625 -0.765625 0.625q-0.515625 0.234375 -1.21875 0.234375q-0.953125 0 -1.625 -0.46875q-0.671875 -0.484375 -0.640625 -1.546875zm5.328125 0l0.953125 -0.0625q0 0.40625 0.125 0.703125q0.125 0.28125 0.453125 0.46875q0.34375 0.171875 0.78125 0.171875q0.625 0 0.9375 -0.25q0.3125 -0.25 0.3125 -0.578125q0 -0.25 -0.1875 -0.46875q-0.1875 -0.21875 -0.9375 -0.53125q-0.75 -0.328125 -0.953125 -0.453125q-0.34375 -0.21875 -0.53125 -0.5q-0.171875 -0.296875 -0.171875 -0.671875q0 -0.65625 0.515625 -1.125q0.53125 -0.46875 1.453125 -0.46875q1.046875 0 1.59375 0.484375q0.546875 0.484375 0.5625 1.265625l-0.921875 0.0625q-0.015625 -0.5 -0.359375 -0.78125q-0.328125 -0.296875 -0.9375 -0.296875q-0.484375 0 -0.765625 0.234375q-0.265625 0.21875 -0.265625 0.46875q0 0.265625 0.234375 0.46875q0.15625 0.125 0.8125 0.40625q1.078125 0.46875 1.359375 0.734375q0.453125 0.4375 0.453125 1.0625q0 0.40625 -0.265625 0.8125q-0.25 0.390625 -0.765625 0.625q-0.515625 0.234375 -1.21875 0.234375q-0.953125 0 -1.625 -0.46875q-0.671875 -0.484375 -0.640625 -1.546875zm6.578125 -4.671875l0.234375 -1.0625l0.921875 0l-0.21875 1.0625l-0.9375 0zm-1.375 6.5625l1.15625 -5.53125l0.953125 0l-1.15625 5.53125l-0.953125 0zm2.5705566 -2.09375q0 -1.625 0.953125 -2.6875q0.796875 -0.875 2.0625 -0.875q1.0 0 1.609375 0.625q0.609375 0.625 0.609375 1.6875q0 0.953125 -0.390625 1.78125q-0.375 0.8125 -1.09375 1.25q-0.703125 0.4375 -1.484375 0.4375q-0.640625 0 -1.171875 -0.265625q-0.53125 -0.28125 -0.8125 -0.78125q-0.28125 -0.515625 -0.28125 -1.171875zm0.953125 -0.09375q0 0.78125 0.375 1.1875q0.375 0.390625 0.9375 0.390625q0.3125 0 0.609375 -0.109375q0.296875 -0.125 0.546875 -0.375q0.25 -0.25 0.421875 -0.5625q0.1875 -0.328125 0.296875 -0.703125q0.171875 -0.515625 0.171875 -0.984375q0 -0.75 -0.390625 -1.15625q-0.375 -0.421875 -0.9375 -0.421875q-0.453125 0 -0.8125 0.21875q-0.359375 0.203125 -0.65625 0.609375q-0.296875 0.40625 -0.4375 0.953125q-0.125 0.53125 -0.125 0.953125zm4.8171387 2.1875l1.15625 -5.53125l0.84375 0l-0.203125 0.96875q0.5625 -0.5625 1.046875 -0.828125q0.484375 -0.265625 0.984375 -0.265625q0.671875 0 1.046875 0.375q0.390625 0.359375 0.390625 0.96875q0 0.3125 -0.140625 0.96875l-0.703125 3.34375l-0.9375 0l0.734375 -3.5q0.109375 -0.515625 0.109375 -0.75q0 -0.28125 -0.1875 -0.453125q-0.1875 -0.171875 -0.546875 -0.171875q-0.734375 0 -1.296875 0.53125q-0.5625 0.515625 -0.828125 1.765625l-0.53125 2.578125l-0.9375 0zm9.043396 -2.09375q0 -1.625 0.953125 -2.6875q0.796875 -0.875 2.0625 -0.875q1.0 0 1.609375 0.625q0.609375 0.625 0.609375 1.6875q0 0.953125 -0.390625 1.78125q-0.375 0.8125 -1.09375 1.25q-0.703125 0.4375 -1.484375 0.4375q-0.640625 0 -1.171875 -0.265625q-0.53125 -0.28125 -0.8125 -0.78125q-0.28125 -0.515625 -0.28125 -1.171875zm0.953125 -0.09375q0 0.78125 0.375 1.1875q0.375 0.390625 0.9375 0.390625q0.3125 0 0.609375 -0.109375q0.296875 -0.125 0.546875 -0.375q0.25 -0.25 0.421875 -0.5625q0.1875 -0.328125 0.296875 -0.703125q0.171875 -0.515625 0.171875 -0.984375q0 -0.75 -0.390625 -1.15625q-0.375 -0.421875 -0.9375 -0.421875q-0.453125 0 -0.8125 0.21875q-0.359375 0.203125 -0.65625 0.609375q-0.296875 0.40625 -0.4375 0.953125q-0.125 0.53125 -0.125 0.953125zm4.9421387 2.1875l1.0 -4.796875l-0.84375 0l0.15625 -0.734375l0.84375 0l0.15625 -0.78125q0.125 -0.59375 0.25 -0.84375q0.140625 -0.265625 0.4375 -0.4375q0.296875 -0.171875 0.8125 -0.171875q0.359375 0 1.046875 0.15625l-0.171875 0.828125q-0.484375 -0.125 -0.796875 -0.125q-0.28125 0 -0.421875 0.140625q-0.140625 0.125 -0.25 0.640625l-0.125 0.59375l1.046875 0l-0.140625 0.734375l-1.046875 0l-1.015625 4.796875l-0.9375 0zm9.796265 -3.0l0.1875 -0.875l3.34375 0l-0.65625 3.109375q-0.625 0.390625 -1.4375 0.640625q-0.796875 0.25 -1.578125 0.25q-1.671875 0 -2.484375 -1.0q-0.703125 -0.84375 -0.703125 -2.171875q0 -1.375 0.609375 -2.5q0.609375 -1.140625 1.53125 -1.671875q0.921875 -0.546875 2.046875 -0.546875q0.8125 0 1.453125 0.296875q0.65625 0.296875 1.0 0.796875q0.34375 0.484375 0.484375 1.28125l-0.984375 0.109375q-0.171875 -0.796875 -0.6875 -1.203125q-0.5 -0.421875 -1.296875 -0.421875q-0.828125 0 -1.546875 0.453125q-0.71875 0.4375 -1.140625 1.359375q-0.421875 0.90625 -0.421875 2.0625q0 1.140625 0.5625 1.734375q0.5625 0.578125 1.5625 0.578125q1.0 0 2.140625 -0.65625l0.34375 -1.625l-2.328125 0zm8.335693 1.125l0.921875 0.09375q-0.203125 0.671875 -0.921875 1.296875q-0.703125 0.609375 -1.6875 0.609375q-0.609375 0 -1.125 -0.28125q-0.5 -0.28125 -0.78125 -0.828125q-0.265625 -0.546875 -0.265625 -1.234375q0 -0.90625 0.421875 -1.75q0.421875 -0.859375 1.078125 -1.265625q0.671875 -0.421875 1.453125 -0.421875q0.984375 0 1.578125 0.625q0.59375 0.609375 0.59375 1.671875q0 0.40625 -0.078125 0.828125l-4.0625 0q-0.03125 0.15625 -0.03125 0.296875q0 0.765625 0.359375 1.1875q0.359375 0.40625 0.875 0.40625q0.484375 0 0.953125 -0.3125q0.46875 -0.328125 0.71875 -0.921875zm-2.734375 -1.375l3.109375 0q0 -0.140625 0 -0.203125q0 -0.703125 -0.359375 -1.078125q-0.34375 -0.390625 -0.90625 -0.390625q-0.609375 0 -1.109375 0.421875q-0.484375 0.421875 -0.734375 1.25zm4.6139526 3.25l1.15625 -5.53125l0.84375 0l-0.203125 0.96875q0.5625 -0.5625 1.046875 -0.828125q0.484375 -0.265625 0.984375 -0.265625q0.671875 0 1.046875 0.375q0.390625 0.359375 0.390625 0.96875q0 0.3125 -0.140625 0.96875l-0.703125 3.34375l-0.9375 0l0.734375 -3.5q0.109375 -0.515625 0.109375 -0.75q0 -0.28125 -0.1875 -0.453125q-0.1875 -0.171875 -0.546875 -0.171875q-0.734375 0 -1.296875 0.53125q-0.5625 0.515625 -0.828125 1.765625l-0.53125 2.578125l-0.9375 0zm9.973389 -1.875l0.921875 0.09375q-0.203125 0.671875 -0.921875 1.296875q-0.703125 0.609375 -1.6875 0.609375q-0.609375 0 -1.125 -0.28125q-0.5 -0.28125 -0.78125 -0.828125q-0.265625 -0.546875 -0.265625 -1.234375q0 -0.90625 0.421875 -1.75q0.421875 -0.859375 1.078125 -1.265625q0.671875 -0.421875 1.453125 -0.421875q0.984375 0 1.578125 0.625q0.59375 0.609375 0.59375 1.671875q0 0.40625 -0.078125 0.828125l-4.0625 0q-0.03125 0.15625 -0.03125 0.296875q0 0.765625 0.359375 1.1875q0.359375 0.40625 0.875 0.40625q0.484375 0 0.953125 -0.3125q0.46875 -0.328125 0.71875 -0.921875zm-2.734375 -1.375l3.109375 0q0 -0.140625 0 -0.203125q0 -0.703125 -0.359375 -1.078125q-0.34375 -0.390625 -0.90625 -0.390625q-0.609375 0 -1.109375 0.421875q-0.484375 0.421875 -0.734375 1.25z" fill-rule="nonzero"/></g></svg>