<?xml version="1.0" encoding="UTF-8" standalone="no"?>
<svg
   xmlns:dc="http://purl.org/dc/elements/1.1/"
   xmlns:cc="http://creativecommons.org/ns#"
   xmlns:rdf="http://www.w3.org/1999/02/22-rdf-syntax-ns#"
   xmlns:svg="http://www.w3.org/2000/svg"
   xmlns="http://www.w3.org/2000/svg"
   xmlns:sodipodi="http://sodipodi.sourceforge.net/DTD/sodipodi-0.dtd"
   xmlns:inkscape="http://www.inkscape.org/namespaces/inkscape"
   version="1.1"
   viewBox="0 0 899.99995 1070"
   stroke-miterlimit="10"
   id="svg22681"
   sodipodi:docname="scran_pooling_left.svg"
   width="900"
   height="1070"
   style="fill:none;stroke:none;stroke-linecap:square;stroke-miterlimit:10"
   inkscape:version="0.92.4 5da689c313, 2019-01-14">
  <metadata
     id="metadata22687">
    <rdf:RDF>
      <cc:Work
         rdf:about="">
        <dc:format>image/svg+xml</dc:format>
        <dc:type
           rdf:resource="http://purl.org/dc/dcmitype/StillImage" />
        <dc:title></dc:title>
      </cc:Work>
    </rdf:RDF>
  </metadata>
  <defs
     id="defs22685" />
  <sodipodi:namedview
     pagecolor="#ffffff"
     bordercolor="#666666"
     borderopacity="1"
     objecttolerance="10"
     gridtolerance="10"
     guidetolerance="10"
     inkscape:pageopacity="0"
     inkscape:pageshadow="2"
     inkscape:window-width="1916"
     inkscape:window-height="1032"
     id="namedview22683"
     showgrid="false"
     inkscape:zoom="0.80503809"
     inkscape:cx="885.19293"
     inkscape:cy="532.27295"
     inkscape:window-x="0"
     inkscape:window-y="20"
     inkscape:window-maximized="0"
     inkscape:current-layer="g22679" />
  <clipPath
     id="p.0">
    <path
       d="M 0,0 H 1770.3859 V 1064.5459 H 0 Z"
       id="path21984"
       inkscape:connector-curvature="0"
       style="clip-rule:nonzero" />
  </clipPath>
  <g
     clip-path="url(#p.0)"
     id="g22679"
     transform="translate(0,5.454109)">
    <path
       d="M 0,0 H 1770.3859 V 1064.5459 H 0 Z"
       id="path21987"
       inkscape:connector-curvature="0"
       style="fill:#000000;fill-opacity:0;fill-rule:evenodd" />
    <path
       d="m 309.90814,960.56036 v 0 c 0,-14.23761 11.54187,-25.77954 25.77951,-25.77954 v 0 c 6.83716,0 13.39429,2.71606 18.22888,7.55066 4.8346,4.83459 7.55066,11.39172 7.55066,18.22888 v 0 c 0,14.23767 -11.5419,25.77954 -25.77954,25.77954 v 0 c -14.23764,0 -25.77951,-11.54187 -25.77951,-25.77954 z"
       id="path22019"
       inkscape:connector-curvature="0"
       style="fill:#3d85c6;fill-rule:evenodd" />
    <path
       d="m 309.90814,960.56036 v 0 c 0,-14.23761 11.54187,-25.77954 25.77951,-25.77954 v 0 c 6.83716,0 13.39429,2.71606 18.22888,7.55066 4.8346,4.83459 7.55066,11.39172 7.55066,18.22888 v 0 c 0,14.23767 -11.5419,25.77954 -25.77954,25.77954 v 0 c -14.23764,0 -25.77951,-11.54187 -25.77951,-25.77954 z"
       id="path22021"
       inkscape:connector-curvature="0"
       style="fill-rule:evenodd;stroke:#000000;stroke-width:2;stroke-linecap:butt;stroke-linejoin:round" />
    <path
       d="m 261.7454,908.4344 v 0 c 0,-17.79486 14.4256,-32.22046 32.22049,-32.22046 v 0 c 8.54541,0 16.74081,3.39465 22.78332,9.43713 6.04252,6.04255 9.43714,14.23792 9.43714,22.78333 v 0 c 0,17.79486 -14.4256,32.22046 -32.22046,32.22046 v 0 c -17.79489,0 -32.22049,-14.4256 -32.22049,-32.22046 z"
       id="path22023"
       inkscape:connector-curvature="0"
       style="fill:#3d85c6;fill-rule:evenodd" />
    <path
       d="m 261.7454,908.4344 v 0 c 0,-17.79486 14.4256,-32.22046 32.22049,-32.22046 v 0 c 8.54541,0 16.74081,3.39465 22.78332,9.43713 6.04252,6.04255 9.43714,14.23792 9.43714,22.78333 v 0 c 0,17.79486 -14.4256,32.22046 -32.22046,32.22046 v 0 c -17.79489,0 -32.22049,-14.4256 -32.22049,-32.22046 z"
       id="path22025"
       inkscape:connector-curvature="0"
       style="fill-rule:evenodd;stroke:#000000;stroke-width:2;stroke-linecap:butt;stroke-linejoin:round" />
    <path
       d="m 367.90814,966.4344 v 0 c 0,-14.23767 11.54187,-25.77954 25.77951,-25.77954 v 0 c 6.83716,0 13.39429,2.71606 18.22888,7.55066 4.8346,4.83459 7.55066,11.39172 7.55066,18.22888 v 0 c 0,14.23761 -11.5419,25.77954 -25.77954,25.77954 v 0 c -14.23764,0 -25.77951,-11.54193 -25.77951,-25.77954 z"
       id="path22027"
       inkscape:connector-curvature="0"
       style="fill:#e06666;fill-rule:evenodd" />
    <path
       d="m 367.90814,966.4344 v 0 c 0,-14.23767 11.54187,-25.77954 25.77951,-25.77954 v 0 c 6.83716,0 13.39429,2.71606 18.22888,7.55066 4.8346,4.83459 7.55066,11.39172 7.55066,18.22888 v 0 c 0,14.23761 -11.5419,25.77954 -25.77954,25.77954 v 0 c -14.23764,0 -25.77951,-11.54193 -25.77951,-25.77954 z"
       id="path22029"
       inkscape:connector-curvature="0"
       style="fill-rule:evenodd;stroke:#000000;stroke-width:2;stroke-linecap:butt;stroke-linejoin:round" />
    <path
       d="m 346.33334,997.126 v 0 c 0,-5.9577 4.82968,-10.78742 10.78738,-10.78742 v 0 c 2.861,0 5.60483,1.13654 7.62784,3.15961 2.02304,2.02301 3.15958,4.76685 3.15958,7.62781 v 0 c 0,5.9577 -4.82968,10.7874 -10.78742,10.7874 v 0 c -5.9577,0 -10.78738,-4.8297 -10.78738,-10.7874 z"
       id="path22031"
       inkscape:connector-curvature="0"
       style="fill:#e06666;fill-rule:evenodd" />
    <path
       d="m 346.33334,997.126 v 0 c 0,-5.9577 4.82968,-10.78742 10.78738,-10.78742 v 0 c 2.861,0 5.60483,1.13654 7.62784,3.15961 2.02304,2.02301 3.15958,4.76685 3.15958,7.62781 v 0 c 0,5.9577 -4.82968,10.7874 -10.78742,10.7874 v 0 c -5.9577,0 -10.78738,-4.8297 -10.78738,-10.7874 z"
       id="path22033"
       inkscape:connector-curvature="0"
       style="fill-rule:evenodd;stroke:#000000;stroke-width:2;stroke-linecap:butt;stroke-linejoin:round" />
    <path
       d="m 412.1916,931.5656 v 0 c 0,-10.99353 8.91202,-19.90552 19.90552,-19.90552 v 0 c 5.27926,0 10.34231,2.09717 14.07531,5.8302 3.73304,3.73303 5.8302,8.79608 5.8302,14.07532 v 0 c 0,10.99353 -8.91198,19.90552 -19.90551,19.90552 v 0 c -10.9935,0 -19.90552,-8.91199 -19.90552,-19.90552 z"
       id="path22035"
       inkscape:connector-curvature="0"
       style="fill:#e06666;fill-rule:evenodd" />
    <path
       d="m 412.1916,931.5656 v 0 c 0,-10.99353 8.91202,-19.90552 19.90552,-19.90552 v 0 c 5.27926,0 10.34231,2.09717 14.07531,5.8302 3.73304,3.73303 5.8302,8.79608 5.8302,14.07532 v 0 c 0,10.99353 -8.91198,19.90552 -19.90551,19.90552 v 0 c -10.9935,0 -19.90552,-8.91199 -19.90552,-19.90552 z"
       id="path22037"
       inkscape:connector-curvature="0"
       style="fill-rule:evenodd;stroke:#000000;stroke-width:2;stroke-linecap:butt;stroke-linejoin:round" />
    <path
       d="m 404.67453,885.96454 v 0 c 0,-10.99347 8.91202,-19.90546 19.90552,-19.90546 v 0 c 5.27926,0 10.34231,2.09717 14.07532,5.83014 3.73303,3.73303 5.83019,8.79608 5.83019,14.07532 v 0 c 0,10.99353 -8.91198,19.90552 -19.90551,19.90552 v 0 c -10.9935,0 -19.90552,-8.91199 -19.90552,-19.90552 z"
       id="path22039"
       inkscape:connector-curvature="0"
       style="fill:#3d85c6;fill-rule:evenodd" />
    <path
       d="m 404.67453,885.96454 v 0 c 0,-10.99347 8.91202,-19.90546 19.90552,-19.90546 v 0 c 5.27926,0 10.34231,2.09717 14.07532,5.83014 3.73303,3.73303 5.83019,8.79608 5.83019,14.07532 v 0 c 0,10.99353 -8.91198,19.90552 -19.90551,19.90552 v 0 c -10.9935,0 -19.90552,-8.91199 -19.90552,-19.90552 z"
       id="path22041"
       inkscape:connector-curvature="0"
       style="fill-rule:evenodd;stroke:#000000;stroke-width:2;stroke-linecap:butt;stroke-linejoin:round" />
    <path
       d="m 425.90814,975.07745 v 0 c 0,-7.21014 5.83792,-13.05512 13.03937,-13.05512 v 0 c 3.45825,0 6.77487,1.37543 9.22021,3.82374 2.44538,2.4483 3.81916,5.76892 3.81916,9.23138 v 0 c 0,7.21014 -5.83793,13.05511 -13.03937,13.05511 v 0 c -7.20145,0 -13.03937,-5.84497 -13.03937,-13.05511 z"
       id="path22043"
       inkscape:connector-curvature="0"
       style="fill:#e06666;fill-rule:evenodd" />
    <path
       d="m 425.90814,975.07745 v 0 c 0,-7.21014 5.83792,-13.05512 13.03937,-13.05512 v 0 c 3.45825,0 6.77487,1.37543 9.22021,3.82374 2.44538,2.4483 3.81916,5.76892 3.81916,9.23138 v 0 c 0,7.21014 -5.83793,13.05511 -13.03937,13.05511 v 0 c -7.20145,0 -13.03937,-5.84497 -13.03937,-13.05511 z"
       id="path22045"
       inkscape:connector-curvature="0"
       style="fill-rule:evenodd;stroke:#000000;stroke-width:2;stroke-linecap:butt;stroke-linejoin:round" />
    <path
       d="m 336.9685,898.27954 v 0 c 0,-17.79486 14.4256,-32.22046 32.22046,-32.22046 v 0 c 8.54541,0 16.74081,3.39459 22.78332,9.43713 6.04252,6.04248 9.43717,14.23792 9.43717,22.78333 v 0 c 0,17.79486 -14.4256,32.22046 -32.22049,32.22046 v 0 c -17.79486,0 -32.22046,-14.4256 -32.22046,-32.22046 z"
       id="path22047"
       inkscape:connector-curvature="0"
       style="fill:#e06666;fill-rule:evenodd" />
    <path
       d="m 336.9685,898.27954 v 0 c 0,-17.79486 14.4256,-32.22046 32.22046,-32.22046 v 0 c 8.54541,0 16.74081,3.39459 22.78332,9.43713 6.04252,6.04248 9.43717,14.23792 9.43717,22.78333 v 0 c 0,17.79486 -14.4256,32.22046 -32.22049,32.22046 v 0 c -17.79486,0 -32.22046,-14.4256 -32.22046,-32.22046 z"
       id="path22049"
       inkscape:connector-curvature="0"
       style="fill-rule:evenodd;stroke:#000000;stroke-width:2;stroke-linecap:butt;stroke-linejoin:round" />
    <path
       d="m 466.64722,881.2852 v 0 c 10.43686,-2.80054 21.16794,3.38989 23.96851,13.82678 v 0 c 1.34484,5.01197 0.64367,10.35291 -1.94938,14.84784 -2.59301,4.495 -6.86544,7.77576 -11.87741,9.12067 v 0 c -10.43689,2.80053 -21.16793,-3.3899 -23.9685,-13.82678 v 0 c -2.80057,-10.43689 3.38989,-21.16797 13.82678,-23.96851 z"
       id="path22051"
       inkscape:connector-curvature="0"
       style="fill:#3d85c6;fill-rule:evenodd" />
    <path
       d="m 466.64722,881.2852 v 0 c 10.43686,-2.80054 21.16794,3.38989 23.96851,13.82678 v 0 c 1.34484,5.01197 0.64367,10.35291 -1.94938,14.84784 -2.59301,4.495 -6.86544,7.77576 -11.87741,9.12067 v 0 c -10.43689,2.80053 -21.16793,-3.3899 -23.9685,-13.82678 v 0 c -2.80057,-10.43689 3.38989,-21.16797 13.82678,-23.96851 z"
       id="path22053"
       inkscape:connector-curvature="0"
       style="fill-rule:evenodd;stroke:#000000;stroke-width:2;stroke-linecap:butt;stroke-linejoin:round" />
    <path
       d="m 475.60938,930.4815 v 0 c 13.03741,-3.49634 26.44064,4.23822 29.93701,17.27557 v 0 c 1.67902,6.26081 0.80216,12.93213 -2.43765,18.54645 -3.23978,5.61426 -8.57715,9.71155 -14.83795,11.39057 v 0 c -13.03739,3.4964 -26.44065,-4.23816 -29.93701,-17.27558 v 0 c -3.49634,-13.03741 4.23822,-26.44067 17.2756,-29.93701 z"
       id="path22055"
       inkscape:connector-curvature="0"
       style="fill:#e06666;fill-rule:evenodd" />
    <path
       d="m 475.60938,930.4815 v 0 c 13.03741,-3.49634 26.44064,4.23822 29.93701,17.27557 v 0 c 1.67902,6.26081 0.80216,12.93213 -2.43765,18.54645 -3.23978,5.61426 -8.57715,9.71155 -14.83795,11.39057 v 0 c -13.03739,3.4964 -26.44065,-4.23816 -29.93701,-17.27558 v 0 c -3.49634,-13.03741 4.23822,-26.44067 17.2756,-29.93701 z"
       id="path22057"
       inkscape:connector-curvature="0"
       style="fill-rule:evenodd;stroke:#000000;stroke-width:2;stroke-linecap:butt;stroke-linejoin:round" />
    <path
       d="m 307.92957,995.69196 v 0 c 10.43686,-2.8006 21.16794,3.38989 23.96851,13.82674 v 0 c 1.34488,5.012 0.64367,10.3529 -1.94938,14.8479 -2.59301,4.495 -6.86544,7.7757 -11.87741,9.1206 v 0 c -10.43689,2.8006 -21.16793,-3.3899 -23.9685,-13.8267 v 0 c -2.80057,-10.4369 3.38989,-21.168 13.82678,-23.96854 z"
       id="path22059"
       inkscape:connector-curvature="0"
       style="fill:#3d85c6;fill-rule:evenodd" />
    <path
       d="m 307.92957,995.69196 v 0 c 10.43686,-2.8006 21.16794,3.38989 23.96851,13.82674 v 0 c 1.34488,5.012 0.64367,10.3529 -1.94938,14.8479 -2.59301,4.495 -6.86544,7.7757 -11.87741,9.1206 v 0 c -10.43689,2.8006 -21.16793,-3.3899 -23.9685,-13.8267 v 0 c -2.80057,-10.4369 3.38989,-21.168 13.82678,-23.96854 z"
       id="path22061"
       inkscape:connector-curvature="0"
       style="fill-rule:evenodd;stroke:#000000;stroke-width:2;stroke-linecap:butt;stroke-linejoin:round" />
    <path
       d="m 466.3325,986.1341 v 0 c 4.36609,-1.16547 8.85028,1.4292 10.01575,5.79529 v 0 c 0.55966,2.09668 0.26352,4.32977 -0.82331,6.20813 -1.08682,1.87828 -2.8753,3.24788 -4.97198,3.80758 v 0 c -4.36609,1.1655 -8.85028,-1.4292 -10.01575,-5.79525 v 0 c -1.16543,-4.36609 1.4292,-8.85028 5.79529,-10.01575 z"
       id="path22063"
       inkscape:connector-curvature="0"
       style="fill:#e06666;fill-rule:evenodd" />
    <path
       d="m 466.3325,986.1341 v 0 c 4.36609,-1.16547 8.85028,1.4292 10.01575,5.79529 v 0 c 0.55966,2.09668 0.26352,4.32977 -0.82331,6.20813 -1.08682,1.87828 -2.8753,3.24788 -4.97198,3.80758 v 0 c -4.36609,1.1655 -8.85028,-1.4292 -10.01575,-5.79525 v 0 c -1.16543,-4.36609 1.4292,-8.85028 5.79529,-10.01575 z"
       id="path22065"
       inkscape:connector-curvature="0"
       style="fill-rule:evenodd;stroke:#000000;stroke-width:2;stroke-linecap:butt;stroke-linejoin:round" />
    <path
       d="m 322.07993,843.1432 v 0 c 8.0538,-2.15698 16.33124,2.62335 18.48819,10.67718 v 0 c 1.03583,3.86756 0.49283,7.98816 -1.50955,11.45539 -2.00235,3.46722 -5.30005,5.99695 -9.16761,7.03277 v 0 c -8.0538,2.15699 -16.33123,-2.62335 -18.48818,-10.67718 v 0 c -2.15696,-8.05377 2.62338,-16.33124 10.67715,-18.48816 z"
       id="path22067"
       inkscape:connector-curvature="0"
       style="fill:#e06666;fill-rule:evenodd" />
    <path
       d="m 322.07993,843.1432 v 0 c 8.0538,-2.15698 16.33124,2.62335 18.48819,10.67718 v 0 c 1.03583,3.86756 0.49283,7.98816 -1.50955,11.45539 -2.00235,3.46722 -5.30005,5.99695 -9.16761,7.03277 v 0 c -8.0538,2.15699 -16.33123,-2.62335 -18.48818,-10.67718 v 0 c -2.15696,-8.05377 2.62338,-16.33124 10.67715,-18.48816 z"
       id="path22069"
       inkscape:connector-curvature="0"
       style="fill-rule:evenodd;stroke:#000000;stroke-width:2;stroke-linecap:butt;stroke-linejoin:round" />
    <path
       d="m 382.49036,1000.0061 v 0 c 8.0538,-2.15692 16.33124,2.6234 18.48819,10.6772 v 0 c 1.03583,3.8675 0.4928,7.9881 -1.50955,11.4554 -2.00235,3.4671 -5.30005,5.9969 -9.1676,7.0328 v 0 c -8.05381,2.1569 -16.33124,-2.6234 -18.48819,-10.6772 v 0 c -2.15696,-8.0538 2.62338,-16.3312 10.67715,-18.4882 z"
       id="path22071"
       inkscape:connector-curvature="0"
       style="fill:#3d85c6;fill-rule:evenodd" />
    <path
       d="m 382.49036,1000.0061 v 0 c 8.0538,-2.15692 16.33124,2.6234 18.48819,10.6772 v 0 c 1.03583,3.8675 0.4928,7.9881 -1.50955,11.4554 -2.00235,3.4671 -5.30005,5.9969 -9.1676,7.0328 v 0 c -8.05381,2.1569 -16.33124,-2.6234 -18.48819,-10.6772 v 0 c -2.15696,-8.0538 2.62338,-16.3312 10.67715,-18.4882 z"
       id="path22073"
       inkscape:connector-curvature="0"
       style="fill-rule:evenodd;stroke:#000000;stroke-width:2;stroke-linecap:butt;stroke-linejoin:round" />
    <path
       d="m 391.1357,848.16656 v 0 c 5.28802,-1.41766 10.71701,1.71283 12.12598,6.99213 v 0 c 0.67663,2.53521 0.31677,5.23706 -1.00043,7.5111 -1.31717,2.27411 -3.4838,3.93409 -6.02319,4.61487 v 0 c -5.288,1.41773 -10.71701,-1.71277 -12.12598,-6.99212 v 0 c -1.40897,-5.2793 1.7356,-10.70826 7.02362,-12.12598 z"
       id="path22075"
       inkscape:connector-curvature="0"
       style="fill:#e06666;fill-rule:evenodd" />
    <path
       d="m 391.1357,848.16656 v 0 c 5.28802,-1.41766 10.71701,1.71283 12.12598,6.99213 v 0 c 0.67663,2.53521 0.31677,5.23706 -1.00043,7.5111 -1.31717,2.27411 -3.4838,3.93409 -6.02319,4.61487 v 0 c -5.288,1.41773 -10.71701,-1.71277 -12.12598,-6.99212 v 0 c -1.40897,-5.2793 1.7356,-10.70826 7.02362,-12.12598 z"
       id="path22077"
       inkscape:connector-curvature="0"
       style="fill-rule:evenodd;stroke:#000000;stroke-width:2;stroke-linecap:butt;stroke-linejoin:round" />
    <path
       d="m 271.22705,951.4706 v 0 c 13.03742,-3.49634 26.44067,4.23822 29.93701,17.27563 v 0 c 1.67902,6.26075 0.80216,12.93207 -2.43762,18.54639 -3.23981,5.61426 -8.57718,9.71161 -14.83795,11.39063 v 0 c -13.03742,3.49635 -26.44068,-4.23822 -29.93703,-17.27564 v 0 c -3.49635,-13.03735 4.23821,-26.44061 17.27559,-29.93701 z"
       id="path22079"
       inkscape:connector-curvature="0"
       style="fill:#e06666;fill-rule:evenodd" />
    <path
       d="m 271.22705,951.4706 v 0 c 13.03742,-3.49634 26.44067,4.23822 29.93701,17.27563 v 0 c 1.67902,6.26075 0.80216,12.93207 -2.43762,18.54639 -3.23981,5.61426 -8.57718,9.71161 -14.83795,11.39063 v 0 c -13.03742,3.49635 -26.44068,-4.23822 -29.93703,-17.27564 v 0 c -3.49635,-13.03735 4.23821,-26.44061 17.27559,-29.93701 z"
       id="path22081"
       inkscape:connector-curvature="0"
       style="fill-rule:evenodd;stroke:#000000;stroke-width:2;stroke-linecap:butt;stroke-linejoin:round" />
    <path
       d="m 122.02887,618.75195 v 0 c 0,-14.23761 11.54188,-25.77954 25.77953,-25.77954 v 0 c 6.83715,0 13.39428,2.71606 18.22888,7.55066 4.83459,4.83459 7.55064,11.39172 7.55064,18.22888 v 0 c 0,14.23767 -11.54188,25.77954 -25.77952,25.77954 v 0 c -14.23764,0 -25.77953,-11.54187 -25.77953,-25.77954 z"
       id="path22083"
       inkscape:connector-curvature="0"
       style="fill:#3d85c6;fill-rule:evenodd" />
    <path
       d="m 122.02887,618.75195 v 0 c 0,-14.23761 11.54188,-25.77954 25.77953,-25.77954 v 0 c 6.83715,0 13.39428,2.71606 18.22888,7.55066 4.83459,4.83459 7.55064,11.39172 7.55064,18.22888 v 0 c 0,14.23767 -11.54188,25.77954 -25.77952,25.77954 v 0 c -14.23764,0 -25.77953,-11.54187 -25.77953,-25.77954 z"
       id="path22085"
       inkscape:connector-curvature="0"
       style="fill-rule:evenodd;stroke:#000000;stroke-width:2;stroke-linecap:butt;stroke-linejoin:round" />
    <path
       d="m 73.86614,566.626 v 0 c 0,-17.79486 14.425598,-32.22046 32.22047,-32.22046 v 0 c 8.5454,0 16.7408,3.39465 22.78332,9.43713 6.04251,6.04255 9.43715,14.23792 9.43715,22.78333 v 0 c 0,17.79486 -14.42559,32.22046 -32.22047,32.22046 v 0 c -17.794872,0 -32.22047,-14.4256 -32.22047,-32.22046 z"
       id="path22087"
       inkscape:connector-curvature="0"
       style="fill:#3d85c6;fill-rule:evenodd" />
    <path
       d="m 73.86614,566.626 v 0 c 0,-17.79486 14.425598,-32.22046 32.22047,-32.22046 v 0 c 8.5454,0 16.7408,3.39465 22.78332,9.43713 6.04251,6.04255 9.43715,14.23792 9.43715,22.78333 v 0 c 0,17.79486 -14.42559,32.22046 -32.22047,32.22046 v 0 c -17.794872,0 -32.22047,-14.4256 -32.22047,-32.22046 z"
       id="path22089"
       inkscape:connector-curvature="0"
       style="fill-rule:evenodd;stroke:#000000;stroke-width:2;stroke-linecap:butt;stroke-linejoin:round" />
    <path
       d="m 216.79527,544.1562 v 0 c 0,-10.99353 8.912,-19.90552 19.90552,-19.90552 v 0 c 5.27926,0 10.34231,2.09717 14.07531,5.8302 3.73302,3.73297 5.83019,8.79602 5.83019,14.07532 v 0 c 0,10.99347 -8.91199,19.90552 -19.9055,19.90552 v 0 c -10.99352,0 -19.90552,-8.91205 -19.90552,-19.90552 z"
       id="path22091"
       inkscape:connector-curvature="0"
       style="fill:#3d85c6;fill-rule:evenodd" />
    <path
       d="m 216.79527,544.1562 v 0 c 0,-10.99353 8.912,-19.90552 19.90552,-19.90552 v 0 c 5.27926,0 10.34231,2.09717 14.07531,5.8302 3.73302,3.73297 5.83019,8.79602 5.83019,14.07532 v 0 c 0,10.99347 -8.91199,19.90552 -19.9055,19.90552 v 0 c -10.99352,0 -19.90552,-8.91205 -19.90552,-19.90552 z"
       id="path22093"
       inkscape:connector-curvature="0"
       style="fill-rule:evenodd;stroke:#000000;stroke-width:2;stroke-linecap:butt;stroke-linejoin:round" />
    <path
       d="m 278.76794,539.4768 v 0 c 10.43686,-2.80054 21.16794,3.38989 23.96851,13.82678 v 0 c 1.34488,5.01197 0.64367,10.35291 -1.94934,14.84784 -2.59305,4.495 -6.86548,7.77576 -11.87745,9.12067 v 0 c -10.43685,2.80053 -21.16793,-3.3899 -23.9685,-13.82678 v 0 c -2.80057,-10.43689 3.38989,-21.16791 13.82678,-23.96851 z"
       id="path22095"
       inkscape:connector-curvature="0"
       style="fill:#3d85c6;fill-rule:evenodd" />
    <path
       d="m 278.76794,539.4768 v 0 c 10.43686,-2.80054 21.16794,3.38989 23.96851,13.82678 v 0 c 1.34488,5.01197 0.64367,10.35291 -1.94934,14.84784 -2.59305,4.495 -6.86548,7.77576 -11.87745,9.12067 v 0 c -10.43685,2.80053 -21.16793,-3.3899 -23.9685,-13.82678 v 0 c -2.80057,-10.43689 3.38989,-21.16791 13.82678,-23.96851 z"
       id="path22097"
       inkscape:connector-curvature="0"
       style="fill-rule:evenodd;stroke:#000000;stroke-width:2;stroke-linecap:butt;stroke-linejoin:round" />
    <path
       d="m 120.05029,653.88354 v 0 c 10.43687,-2.80054 21.16794,3.38989 23.96851,13.82678 v 0 c 1.34488,5.01197 0.64367,10.35291 -1.94936,14.84784 -2.59302,4.495 -6.86545,7.77576 -11.87743,9.12067 v 0 c -10.43687,2.80053 -21.16793,-3.3899 -23.96849,-13.82678 v 0 c -2.80056,-10.43689 3.38989,-21.16797 13.82677,-23.96851 z"
       id="path22099"
       inkscape:connector-curvature="0"
       style="fill:#3d85c6;fill-rule:evenodd" />
    <path
       d="m 120.05029,653.88354 v 0 c 10.43687,-2.80054 21.16794,3.38989 23.96851,13.82678 v 0 c 1.34488,5.01197 0.64367,10.35291 -1.94936,14.84784 -2.59302,4.495 -6.86545,7.77576 -11.87743,9.12067 v 0 c -10.43687,2.80053 -21.16793,-3.3899 -23.96849,-13.82678 v 0 c -2.80056,-10.43689 3.38989,-21.16797 13.82677,-23.96851 z"
       id="path22101"
       inkscape:connector-curvature="0"
       style="fill-rule:evenodd;stroke:#000000;stroke-width:2;stroke-linecap:butt;stroke-linejoin:round" />
    <path
       d="m 194.6111,658.1977 v 0 c 8.05379,-2.15692 16.33124,2.62341 18.48819,10.67719 v 0 c 1.03581,3.86755 0.4928,7.98822 -1.50955,11.45538 -2.00237,3.46722 -5.30005,5.99701 -9.16762,7.03277 v 0 c -8.05379,2.15699 -16.33124,-2.62335 -18.48819,-10.67712 v 0 c -2.15695,-8.05377 2.62338,-16.33124 10.67717,-18.48822 z"
       id="path22103"
       inkscape:connector-curvature="0"
       style="fill:#3d85c6;fill-rule:evenodd" />
    <path
       d="m 194.6111,658.1977 v 0 c 8.05379,-2.15692 16.33124,2.62341 18.48819,10.67719 v 0 c 1.03581,3.86755 0.4928,7.98822 -1.50955,11.45538 -2.00237,3.46722 -5.30005,5.99701 -9.16762,7.03277 v 0 c -8.05379,2.15699 -16.33124,-2.62335 -18.48819,-10.67712 v 0 c -2.15695,-8.05377 2.62338,-16.33124 10.67717,-18.48822 z"
       id="path22105"
       inkscape:connector-curvature="0"
       style="fill-rule:evenodd;stroke:#000000;stroke-width:2;stroke-linecap:butt;stroke-linejoin:round" />
    <path
       d="m 563.0266,641.8373 v 0 c 0,-14.23767 11.54187,-25.77954 25.77954,-25.77954 v 0 c 6.83716,0 13.39429,2.71606 18.22888,7.55066 4.8346,4.83459 7.5506,11.39172 7.5506,18.22888 v 0 c 0,14.23761 -11.54187,25.77954 -25.77948,25.77954 v 0 c -14.23767,0 -25.77954,-11.54193 -25.77954,-25.77954 z"
       id="path22107"
       inkscape:connector-curvature="0"
       style="fill:#e06666;fill-rule:evenodd" />
    <path
       d="m 563.0266,641.8373 v 0 c 0,-14.23767 11.54187,-25.77954 25.77954,-25.77954 v 0 c 6.83716,0 13.39429,2.71606 18.22888,7.55066 4.8346,4.83459 7.5506,11.39172 7.5506,18.22888 v 0 c 0,14.23761 -11.54187,25.77954 -25.77948,25.77954 v 0 c -14.23767,0 -25.77954,-11.54193 -25.77954,-25.77954 z"
       id="path22109"
       inkscape:connector-curvature="0"
       style="fill-rule:evenodd;stroke:#000000;stroke-width:2;stroke-linecap:butt;stroke-linejoin:round" />
    <path
       d="m 541.4518,672.5289 v 0 c 0,-5.9577 4.82971,-10.78742 10.78742,-10.78742 v 0 c 2.86102,0 5.60479,1.13654 7.62786,3.15955 2.02301,2.02307 3.15955,4.76685 3.15955,7.62787 v 0 c 0,5.9577 -4.82971,10.78741 -10.78742,10.78741 v 0 c -5.9577,0 -10.78741,-4.82971 -10.78741,-10.78741 z"
       id="path22111"
       inkscape:connector-curvature="0"
       style="fill:#e06666;fill-rule:evenodd" />
    <path
       d="m 541.4518,672.5289 v 0 c 0,-5.9577 4.82971,-10.78742 10.78742,-10.78742 v 0 c 2.86102,0 5.60479,1.13654 7.62786,3.15955 2.02301,2.02307 3.15955,4.76685 3.15955,7.62787 v 0 c 0,5.9577 -4.82971,10.78741 -10.78742,10.78741 v 0 c -5.9577,0 -10.78741,-4.82971 -10.78741,-10.78741 z"
       id="path22113"
       inkscape:connector-curvature="0"
       style="fill-rule:evenodd;stroke:#000000;stroke-width:2;stroke-linecap:butt;stroke-linejoin:round" />
    <path
       d="m 607.31006,606.9685 v 0 c 0,-10.99353 8.91199,-19.90552 19.90552,-19.90552 v 0 c 5.2793,0 10.34234,2.09717 14.07532,5.8302 3.73303,3.73297 5.8302,8.79602 5.8302,14.07532 v 0 c 0,10.99353 -8.91199,19.90552 -19.90552,19.90552 v 0 c -10.99353,0 -19.90552,-8.91199 -19.90552,-19.90552 z"
       id="path22115"
       inkscape:connector-curvature="0"
       style="fill:#e06666;fill-rule:evenodd" />
    <path
       d="m 607.31006,606.9685 v 0 c 0,-10.99353 8.91199,-19.90552 19.90552,-19.90552 v 0 c 5.2793,0 10.34234,2.09717 14.07532,5.8302 3.73303,3.73297 5.8302,8.79602 5.8302,14.07532 v 0 c 0,10.99353 -8.91199,19.90552 -19.90552,19.90552 v 0 c -10.99353,0 -19.90552,-8.91199 -19.90552,-19.90552 z"
       id="path22117"
       inkscape:connector-curvature="0"
       style="fill-rule:evenodd;stroke:#000000;stroke-width:2;stroke-linecap:butt;stroke-linejoin:round" />
    <path
       d="m 621.0266,650.4803 v 0 c 0,-7.21008 5.83789,-13.05511 13.03937,-13.05511 v 0 c 3.45825,0 6.77484,1.37548 9.22021,3.82379 2.44538,2.4483 3.81916,5.76892 3.81916,9.23132 v 0 c 0,7.21014 -5.83796,13.05518 -13.03937,13.05518 v 0 c -7.20148,0 -13.03937,-5.84504 -13.03937,-13.05518 z"
       id="path22119"
       inkscape:connector-curvature="0"
       style="fill:#e06666;fill-rule:evenodd" />
    <path
       d="m 621.0266,650.4803 v 0 c 0,-7.21008 5.83789,-13.05511 13.03937,-13.05511 v 0 c 3.45825,0 6.77484,1.37548 9.22021,3.82379 2.44538,2.4483 3.81916,5.76892 3.81916,9.23132 v 0 c 0,7.21014 -5.83796,13.05518 -13.03937,13.05518 v 0 c -7.20148,0 -13.03937,-5.84504 -13.03937,-13.05518 z"
       id="path22121"
       inkscape:connector-curvature="0"
       style="fill-rule:evenodd;stroke:#000000;stroke-width:2;stroke-linecap:butt;stroke-linejoin:round" />
    <path
       d="m 532.087,573.68243 v 0 c 0,-17.79492 14.4256,-32.22052 32.22046,-32.22052 v 0 c 8.54541,0 16.74085,3.39465 22.78332,9.43719 6.04255,6.04249 9.43714,14.23792 9.43714,22.78333 v 0 c 0,17.79486 -14.4256,32.22046 -32.22046,32.22046 v 0 c -17.79486,0 -32.22046,-14.4256 -32.22046,-32.22046 z"
       id="path22123"
       inkscape:connector-curvature="0"
       style="fill:#e06666;fill-rule:evenodd" />
    <path
       d="m 532.087,573.68243 v 0 c 0,-17.79492 14.4256,-32.22052 32.22046,-32.22052 v 0 c 8.54541,0 16.74085,3.39465 22.78332,9.43719 6.04255,6.04249 9.43714,14.23792 9.43714,22.78333 v 0 c 0,17.79486 -14.4256,32.22046 -32.22046,32.22046 v 0 c -17.79486,0 -32.22046,-14.4256 -32.22046,-32.22046 z"
       id="path22125"
       inkscape:connector-curvature="0"
       style="fill-rule:evenodd;stroke:#000000;stroke-width:2;stroke-linecap:butt;stroke-linejoin:round" />
    <path
       d="m 670.72784,605.8844 v 0 c 13.03742,-3.49634 26.44067,4.23822 29.93701,17.27557 v 0 c 1.67902,6.26081 0.80219,12.93213 -2.43762,18.54639 -3.23981,5.61432 -8.57721,9.71161 -14.83795,11.39063 v 0 c -13.03742,3.49633 -26.44068,-4.23816 -29.93701,-17.27558 v 0 c -3.49634,-13.03741 4.23815,-26.44067 17.27557,-29.93701 z"
       id="path22127"
       inkscape:connector-curvature="0"
       style="fill:#e06666;fill-rule:evenodd" />
    <path
       d="m 670.72784,605.8844 v 0 c 13.03742,-3.49634 26.44067,4.23822 29.93701,17.27557 v 0 c 1.67902,6.26081 0.80219,12.93213 -2.43762,18.54639 -3.23981,5.61432 -8.57721,9.71161 -14.83795,11.39063 v 0 c -13.03742,3.49633 -26.44068,-4.23816 -29.93701,-17.27558 v 0 c -3.49634,-13.03741 4.23815,-26.44067 17.27557,-29.93701 z"
       id="path22129"
       inkscape:connector-curvature="0"
       style="fill-rule:evenodd;stroke:#000000;stroke-width:2;stroke-linecap:butt;stroke-linejoin:round" />
    <path
       d="m 661.4509,661.537 v 0 c 4.36615,-1.16547 8.85034,1.4292 10.01575,5.79529 v 0 c 0.55969,2.09668 0.26355,4.32977 -0.82331,6.20813 -1.08679,1.87829 -2.87524,3.24792 -4.97192,3.80762 v 0 c -4.36609,1.16546 -8.85034,-1.4292 -10.01575,-5.79529 v 0 c -1.16546,-4.36609 1.42914,-8.85028 5.79523,-10.01575 z"
       id="path22131"
       inkscape:connector-curvature="0"
       style="fill:#e06666;fill-rule:evenodd" />
    <path
       d="m 661.4509,661.537 v 0 c 4.36615,-1.16547 8.85034,1.4292 10.01575,5.79529 v 0 c 0.55969,2.09668 0.26355,4.32977 -0.82331,6.20813 -1.08679,1.87829 -2.87524,3.24792 -4.97192,3.80762 v 0 c -4.36609,1.16546 -8.85034,-1.4292 -10.01575,-5.79529 v 0 c -1.16546,-4.36609 1.42914,-8.85028 5.79523,-10.01575 z"
       id="path22133"
       inkscape:connector-curvature="0"
       style="fill-rule:evenodd;stroke:#000000;stroke-width:2;stroke-linecap:butt;stroke-linejoin:round" />
    <path
       d="m 517.1984,518.5461 v 0 c 8.05377,-2.15698 16.33124,2.62335 18.48816,10.67712 v 0 c 1.03583,3.86762 0.4928,7.98822 -1.50952,11.45545 -2.00238,3.46722 -5.30005,5.99695 -9.1676,7.03277 v 0 c -8.05384,2.15693 -16.33127,-2.62335 -18.48822,-10.67718 v 0 c -2.15696,-8.05377 2.62338,-16.33124 10.67718,-18.48816 z"
       id="path22135"
       inkscape:connector-curvature="0"
       style="fill:#e06666;fill-rule:evenodd" />
    <path
       d="m 517.1984,518.5461 v 0 c 8.05377,-2.15698 16.33124,2.62335 18.48816,10.67712 v 0 c 1.03583,3.86762 0.4928,7.98822 -1.50952,11.45545 -2.00238,3.46722 -5.30005,5.99695 -9.1676,7.03277 v 0 c -8.05384,2.15693 -16.33127,-2.62335 -18.48822,-10.67718 v 0 c -2.15696,-8.05377 2.62338,-16.33124 10.67718,-18.48816 z"
       id="path22137"
       inkscape:connector-curvature="0"
       style="fill-rule:evenodd;stroke:#000000;stroke-width:2;stroke-linecap:butt;stroke-linejoin:round" />
    <path
       d="m 586.2542,523.56946 v 0 c 5.28796,-1.41766 10.71698,1.71283 12.12598,6.99213 v 0 c 0.67657,2.53521 0.31671,5.23706 -1.00043,7.5111 -1.3172,2.27411 -3.48383,3.93409 -6.02319,4.61487 v 0 c -5.28803,1.41773 -10.71704,-1.71277 -12.12598,-6.99212 v 0 c -1.409,-5.2793 1.7356,-10.70832 7.02362,-12.12598 z"
       id="path22139"
       inkscape:connector-curvature="0"
       style="fill:#e06666;fill-rule:evenodd" />
    <path
       d="m 586.2542,523.56946 v 0 c 5.28796,-1.41766 10.71698,1.71283 12.12598,6.99213 v 0 c 0.67657,2.53521 0.31671,5.23706 -1.00043,7.5111 -1.3172,2.27411 -3.48383,3.93409 -6.02319,4.61487 v 0 c -5.28803,1.41773 -10.71704,-1.71277 -12.12598,-6.99212 v 0 c -1.409,-5.2793 1.7356,-10.70832 7.02362,-12.12598 z"
       id="path22141"
       inkscape:connector-curvature="0"
       style="fill-rule:evenodd;stroke:#000000;stroke-width:2;stroke-linecap:butt;stroke-linejoin:round" />
    <path
       d="m 466.34552,626.8735 v 0 c 13.03742,-3.49634 26.44067,4.23822 29.93701,17.27563 v 0 c 1.67902,6.26075 0.80219,12.93207 -2.43762,18.54639 -3.23981,5.61426 -8.57718,9.71161 -14.83795,11.39063 v 0 c -13.03742,3.49634 -26.44068,-4.23822 -29.93701,-17.27564 v 0 c -3.49637,-13.03741 4.23819,-26.44061 17.27557,-29.93701 z"
       id="path22143"
       inkscape:connector-curvature="0"
       style="fill:#e06666;fill-rule:evenodd" />
    <path
       d="m 466.34552,626.8735 v 0 c 13.03742,-3.49634 26.44067,4.23822 29.93701,17.27563 v 0 c 1.67902,6.26075 0.80219,12.93207 -2.43762,18.54639 -3.23981,5.61426 -8.57718,9.71161 -14.83795,11.39063 v 0 c -13.03742,3.49634 -26.44068,-4.23822 -29.93701,-17.27564 v 0 c -3.49637,-13.03741 4.23819,-26.44061 17.27557,-29.93701 z"
       id="path22145"
       inkscape:connector-curvature="0"
       style="fill-rule:evenodd;stroke:#000000;stroke-width:2;stroke-linecap:butt;stroke-linejoin:round" />
    <path
       d="M 451.75067,841.98505 524.09711,720.69373"
       id="path22147"
       inkscape:connector-curvature="0"
       style="fill:#000000;fill-opacity:0;fill-rule:evenodd" />
    <path
       d="m 451.75067,841.98505 63.12567,-105.8324"
       id="path22149"
       inkscape:connector-curvature="0"
       style="fill-rule:evenodd;stroke:#000000;stroke-width:3;stroke-linecap:butt;stroke-linejoin:round" />
    <path
       d="m 519.132,738.691 2.71844,-14.23065 -11.22976,9.15393 z"
       id="path22151"
       inkscape:connector-curvature="0"
       style="fill:#000000;fill-rule:evenodd;stroke:#000000;stroke-width:3;stroke-linecap:butt" />
    <path
       d="M 271.75854,841.03674 211.66404,720.06036"
       id="path22153"
       inkscape:connector-curvature="0"
       style="fill:#000000;fill-opacity:0;fill-rule:evenodd" />
    <path
       d="M 271.75854,841.03674 219.67188,736.18103"
       id="path22155"
       inkscape:connector-curvature="0"
       style="fill-rule:evenodd;stroke:#000000;stroke-width:3;stroke-linecap:butt;stroke-linejoin:round" />
    <path
       d="m 224.10971,733.9765 -10.49455,-9.98834 1.61891,14.39728 z"
       id="path22157"
       inkscape:connector-curvature="0"
       style="fill:#000000;fill-rule:evenodd;stroke:#000000;stroke-width:3;stroke-linecap:butt" />
    <path
       d="M 552.04724,959.8189 H 674.25195"
       id="path22219"
       inkscape:connector-curvature="0"
       style="fill:#000000;fill-opacity:0;fill-rule:evenodd" />
    <path
       d="M 552.04724,959.8189 H 656.25195"
       id="path22221"
       inkscape:connector-curvature="0"
       style="fill-rule:evenodd;stroke:#000000;stroke-width:3;stroke-linecap:butt;stroke-linejoin:round" />
    <path
       d="m 656.25195,964.7741 13.61432,-4.9552 -13.61432,-4.9552 z"
       id="path22223"
       inkscape:connector-curvature="0"
       style="fill:#000000;fill-rule:evenodd;stroke:#000000;stroke-width:3;stroke-linecap:butt" />
    <path
       d="m 759.0011,960.92084 v 0 c 0,-14.23767 11.54187,-25.77954 25.77954,-25.77954 v 0 c 6.83716,0 13.39429,2.71606 18.22888,7.55066 4.8346,4.83459 7.55066,11.39172 7.55066,18.22888 v 0 c 0,14.23761 -11.54193,25.77954 -25.77954,25.77954 v 0 c -14.23767,0 -25.77954,-11.54193 -25.77954,-25.77954 z"
       id="path22225"
       inkscape:connector-curvature="0"
       style="fill:#8e7cc3;fill-rule:evenodd" />
    <path
       d="m 759.0011,960.92084 v 0 c 0,-14.23767 11.54187,-25.77954 25.77954,-25.77954 v 0 c 6.83716,0 13.39429,2.71606 18.22888,7.55066 4.8346,4.83459 7.55066,11.39172 7.55066,18.22888 v 0 c 0,14.23761 -11.54193,25.77954 -25.77954,25.77954 v 0 c -14.23767,0 -25.77954,-11.54193 -25.77954,-25.77954 z"
       id="path22227"
       inkscape:connector-curvature="0"
       style="fill-rule:evenodd;stroke:#000000;stroke-width:2;stroke-linecap:butt;stroke-linejoin:round;stroke-dasharray:8, 6" />
    <path
       d="M 682.93823,879.17847 H 933.99334 V 946.9895 H 682.93823 Z"
       id="path22301"
       inkscape:connector-curvature="0"
       style="fill:#000000;fill-opacity:0;fill-rule:evenodd" />
    <path
       d="m 704.907,894.6404 q 3.625,0 5.48438,2.42187 1.875,2.42188 1.09375,6.09375 -0.79688,3.71875 -3.6875,6.125 -2.89063,2.39063 -6.625,2.39063 -3.71875,0 -5.59375,-2.375 -1.875,-2.39063 -1.09375,-6.125 0.79687,-3.73438 3.71875,-6.125 2.92187,-2.40625 6.70312,-2.40625 z m 2.48438,7.70312 q 0.40625,-1.95312 0.29687,-3.45312 -0.10937,-1.51563 -0.92187,-2.48438 -0.8125,-0.98437 -2.29688,-0.98437 -1.28125,0 -2.42187,0.98437 -1.14063,0.96875 -1.9375,2.51563 -0.78125,1.54687 -1.17188,3.42187 z m -0.23438,1.125 h -8.48437 q -0.76563,3.625 -0.0781,5.51563 0.6875,1.89062 2.76563,1.89062 2.03125,0 3.53125,-1.92187 1.51562,-1.9375 2.26562,-5.48438 z"
       id="path22303"
       inkscape:connector-curvature="0"
       style="fill:#000000;fill-rule:nonzero" />
    <path
       d="m 712.4247,920.2185 h -2.35937 l 2.40625,-11.45313 h 5.07812 q 1.3125,0 2.04688,0.26563 0.73437,0.26562 1.17187,0.98437 0.45313,0.71875 0.45313,1.75 0,1.45313 -0.875,2.40625 -0.875,0.95313 -2.64063,1.17188 0.45313,0.40625 0.84375,1.07812 0.79688,1.34375 1.76563,3.79688 h -2.53125 q -0.3125,-0.96875 -1.20313,-3.03125 -0.48437,-1.10938 -1.03125,-1.48438 -0.32812,-0.23437 -1.17187,-0.23437 h -0.95313 z m 1.35938,-6.46875 h 1.25 q 1.89062,0 2.51562,-0.21875 0.625,-0.23438 0.96875,-0.71875 0.35938,-0.48438 0.35938,-1.01563 0,-0.625 -0.51563,-0.9375 -0.3125,-0.1875 -1.34375,-0.1875 h -2.59375 z m 7.78906,6.46875 2.39062,-11.45313 h 8.5 l -0.40625,1.90625 h -6.125 l -0.54687,2.60938 h 5.92187 l -0.39062,1.90625 h -5.9375 l -0.71875,3.10937 h 6.67187 l -0.40625,1.92188 z m 10.64062,0 2.40625,-11.45313 h 8.01563 l -0.40625,1.90625 h -5.65625 l -0.57813,2.75 h 5.54688 l -0.40625,1.92188 h -5.54688 l -1.01562,4.875 z"
       id="path22305"
       inkscape:connector-curvature="0"
       style="fill:#000000;fill-rule:nonzero" />
    <path
       d="m 749.96765,901.656 v -3.03125 h 12.01563 v 3.03125 z m 0,5.20312 v -3.03125 h 12.01563 v 3.03125 z m 21.30859,-13.10937 h 14.5 v 1.92187 h -11.57812 l 7.10937,9.07813 -7.59375,9.64062 h 12.1875 v 1.875 h -14.8125 v -2.1875 l 7.26563,-9.23437 -7.07813,-9.04688 z"
       id="path22307"
       inkscape:connector-curvature="0"
       style="fill:#000000;fill-rule:nonzero" />
    <path
       d="m 798.7919,894.6404 q 3.625,0 5.48438,2.42187 1.875,2.42188 1.09375,6.09375 -0.79688,3.71875 -3.6875,6.125 -2.89063,2.39063 -6.625,2.39063 -3.71875,0 -5.59375,-2.375 -1.875,-2.39063 -1.09375,-6.125 0.79687,-3.73438 3.71875,-6.125 2.92187,-2.40625 6.70312,-2.40625 z m 2.48438,7.70312 q 0.40625,-1.95312 0.29687,-3.45312 -0.10937,-1.51563 -0.92187,-2.48438 -0.8125,-0.98437 -2.29688,-0.98437 -1.28125,0 -2.42187,0.98437 -1.14063,0.96875 -1.9375,2.51563 -0.78125,1.54687 -1.17188,3.42187 z m -0.23438,1.125 h -8.48437 q -0.76563,3.625 -0.0781,5.51563 0.6875,1.89062 2.76563,1.89062 2.03125,0 3.53125,-1.92187 1.51562,-1.9375 2.26562,-5.48438 z"
       id="path22309"
       inkscape:connector-curvature="0"
       style="fill:#000000;fill-rule:nonzero" />
    <path
       d="m 811.0908,911.5154 8.51562,-17.76563 h 2.34375 l -8.5,17.76563 z m 29.10156,-0.29688 h -3.29687 l -4.64063,-11.54687 -2.40625,11.54687 h -3.29687 l 3.59375,-17.1875 h 3.29687 l 4.65625,11.5 2.40625,-11.5 h 3.28125 z"
       id="path22311"
       inkscape:connector-curvature="0"
       style="fill:#000000;fill-rule:nonzero" />
    <path
       d="m 1428.5001,876.57745 h 446.5826 v 67.81097 h -446.5826 z"
       id="path22449"
       inkscape:connector-curvature="0"
       style="fill:#000000;fill-opacity:0;fill-rule:evenodd" />
    <path
       d="M 346.7789,400.8364 V 33.52933"
       id="path22467"
       inkscape:connector-curvature="0"
       style="fill:#000000;fill-opacity:0;fill-rule:evenodd" />
    <path
       d="M 346.7789,400.8364 V 33.52933"
       id="path22469"
       inkscape:connector-curvature="0"
       style="fill-rule:evenodd;stroke:#000000;stroke-width:2;stroke-linecap:butt;stroke-linejoin:round;stroke-dasharray:2, 6" />
    <path
       d="m 343.4232,364.59296 v 0 C 263.83046,363.98832 199.67135,299.21125 199.82972,219.61635 199.98808,140.02147 264.4044,75.5002 343.99891,75.21227 Z"
       id="path22471"
       inkscape:connector-curvature="0"
       style="fill:#000000;fill-opacity:0;fill-rule:evenodd" />
    <path
       d="m 343.4232,364.59296 v 0 C 263.83046,363.98832 199.67135,299.21125 199.82972,219.61635 199.98808,140.02147 264.4044,75.5002 343.99891,75.21227 Z"
       id="path22473"
       inkscape:connector-curvature="0"
       style="fill-rule:evenodd;stroke:#4a86e8;stroke-width:8;stroke-linecap:butt;stroke-linejoin:round" />
    <path
       d="m 349.94083,75.215485 v 0 c 79.59274,0.604637 143.75183,65.381725 143.59348,144.976605 -0.15836,79.5949 -64.57471,144.11617 -144.16922,144.4041 z"
       id="path22475"
       inkscape:connector-curvature="0"
       style="fill:#000000;fill-opacity:0;fill-rule:evenodd" />
    <path
       d="m 349.94083,75.215485 v 0 c 79.59274,0.604637 143.75183,65.381725 143.59348,144.976605 -0.15836,79.5949 -64.57471,144.11617 -144.16922,144.4041 z"
       id="path22477"
       inkscape:connector-curvature="0"
       style="fill-rule:evenodd;stroke:#980000;stroke-width:8;stroke-linecap:butt;stroke-linejoin:round" />
    <path
       d="m 420.68542,109.78611 v 0 c 0,-14.23764 11.54187,-25.779526 25.77951,-25.779526 v 0 c 6.83716,0 13.39429,2.716049 18.22888,7.550652 4.83463,4.834594 7.55066,11.391714 7.55066,18.228874 v 0 c 0,14.23764 -11.5419,25.77953 -25.77954,25.77953 v 0 c -14.23764,0 -25.77951,-11.54189 -25.77951,-25.77953 z"
       id="path22479"
       inkscape:connector-curvature="0"
       style="fill:#e06666;fill-rule:evenodd" />
    <path
       d="m 420.68542,109.78611 v 0 c 0,-14.23764 11.54187,-25.779526 25.77951,-25.779526 v 0 c 6.83716,0 13.39429,2.716049 18.22888,7.550652 4.83463,4.834594 7.55066,11.391714 7.55066,18.228874 v 0 c 0,14.23764 -11.5419,25.77953 -25.77954,25.77953 v 0 c -14.23764,0 -25.77951,-11.54189 -25.77951,-25.77953 z"
       id="path22481"
       inkscape:connector-curvature="0"
       style="fill-rule:evenodd;stroke:#000000;stroke-width:2;stroke-linecap:butt;stroke-linejoin:round" />
    <path
       d="m 409.51852,344.20627 v 0 c 0,-5.9577 4.82968,-10.78738 10.78742,-10.78738 v 0 c 2.86099,0 5.60482,1.1365 7.62783,3.15954 2.02304,2.02304 3.15958,4.76685 3.15958,7.62784 v 0 c 0,5.95773 -4.82971,10.78742 -10.78742,10.78742 v 0 c -5.95773,0 -10.78741,-4.82969 -10.78741,-10.78742 z"
       id="path22483"
       inkscape:connector-curvature="0"
       style="fill:#e06666;fill-rule:evenodd" />
    <path
       d="m 409.51852,344.20627 v 0 c 0,-5.9577 4.82968,-10.78738 10.78742,-10.78738 v 0 c 2.86099,0 5.60482,1.1365 7.62783,3.15954 2.02304,2.02304 3.15958,4.76685 3.15958,7.62784 v 0 c 0,5.95773 -4.82971,10.78742 -10.78742,10.78742 v 0 c -5.95773,0 -10.78741,-4.82969 -10.78741,-10.78742 z"
       id="path22485"
       inkscape:connector-curvature="0"
       style="fill-rule:evenodd;stroke:#000000;stroke-width:2;stroke-linecap:butt;stroke-linejoin:round" />
    <path
       d="m 469.00497,265.62558 v 0 c 0,-10.99353 8.91202,-19.90553 19.90552,-19.90553 v 0 c 5.27926,0 10.34231,2.09718 14.07531,5.8302 3.73301,3.733 5.8302,8.79603 5.8302,14.07533 v 0 c 0,10.9935 -8.91201,19.90549 -19.90551,19.90549 v 0 c -10.9935,0 -19.90552,-8.91199 -19.90552,-19.90549 z"
       id="path22487"
       inkscape:connector-curvature="0"
       style="fill:#e06666;fill-rule:evenodd" />
    <path
       d="m 469.00497,265.62558 v 0 c 0,-10.99353 8.91202,-19.90553 19.90552,-19.90553 v 0 c 5.27926,0 10.34231,2.09718 14.07531,5.8302 3.73301,3.733 5.8302,8.79603 5.8302,14.07533 v 0 c 0,10.9935 -8.91201,19.90549 -19.90551,19.90549 v 0 c -10.9935,0 -19.90552,-8.91199 -19.90552,-19.90549 z"
       id="path22489"
       inkscape:connector-curvature="0"
       style="fill-rule:evenodd;stroke:#000000;stroke-width:2;stroke-linecap:butt;stroke-linejoin:round" />
    <path
       d="m 433.25214,327.11398 v 0 c 0,-7.21014 5.83792,-13.05511 13.03937,-13.05511 v 0 c 3.45825,0 6.77487,1.37545 9.22021,3.82376 2.44535,2.4483 3.81916,5.76892 3.81916,9.23135 v 0 c 0,7.21014 -5.83793,13.05512 -13.03937,13.05512 v 0 c -7.20145,0 -13.03937,-5.84498 -13.03937,-13.05512 z"
       id="path22491"
       inkscape:connector-curvature="0"
       style="fill:#e06666;fill-rule:evenodd" />
    <path
       d="m 433.25214,327.11398 v 0 c 0,-7.21014 5.83792,-13.05511 13.03937,-13.05511 v 0 c 3.45825,0 6.77487,1.37545 9.22021,3.82376 2.44535,2.4483 3.81916,5.76892 3.81916,9.23135 v 0 c 0,7.21014 -5.83793,13.05512 -13.03937,13.05512 v 0 c -7.20145,0 -13.03937,-5.84498 -13.03937,-13.05512 z"
       id="path22493"
       inkscape:connector-curvature="0"
       style="fill-rule:evenodd;stroke:#000000;stroke-width:2;stroke-linecap:butt;stroke-linejoin:round" />
    <path
       d="m 356.24448,74.74674 v 0 c 0,-17.794876 14.4256,-32.220474 32.22046,-32.220474 v 0 c 8.54541,0 16.74081,3.394649 22.78332,9.43716 6.04252,6.042507 9.43717,14.237911 9.43717,22.783315 v 0 c 0,17.794876 -14.4256,32.220469 -32.22049,32.220469 v 0 c -17.79486,0 -32.22046,-14.425593 -32.22046,-32.22047 z"
       id="path22495"
       inkscape:connector-curvature="0"
       style="fill:#e06666;fill-rule:evenodd" />
    <path
       d="m 356.24448,74.74674 v 0 c 0,-17.794876 14.4256,-32.220474 32.22046,-32.220474 v 0 c 8.54541,0 16.74081,3.394649 22.78332,9.43716 6.04252,6.042507 9.43717,14.237911 9.43717,22.783315 v 0 c 0,17.794876 -14.4256,32.220469 -32.22049,32.220469 v 0 c -17.79486,0 -32.22046,-14.425593 -32.22046,-32.22047 z"
       id="path22497"
       inkscape:connector-curvature="0"
       style="fill-rule:evenodd;stroke:#000000;stroke-width:2;stroke-linecap:butt;stroke-linejoin:round" />
    <path
       d="m 488.15634,188.93779 v 0 c 13.03741,-3.49635 26.44064,4.2382 29.93698,17.2756 v 0 c 1.67902,6.26078 0.80219,12.93212 -2.43762,18.54639 -3.23981,5.61427 -8.57715,9.71161 -14.83795,11.39061 v 0 c -13.03739,3.49635 -26.44065,-4.23819 -29.93702,-17.27559 v 0 c -3.49633,-13.0374 4.23822,-26.44066 17.27561,-29.93701 z"
       id="path22499"
       inkscape:connector-curvature="0"
       style="fill:#e06666;fill-rule:evenodd" />
    <path
       d="m 488.15634,188.93779 v 0 c 13.03741,-3.49635 26.44064,4.2382 29.93698,17.2756 v 0 c 1.67902,6.26078 0.80219,12.93212 -2.43762,18.54639 -3.23981,5.61427 -8.57715,9.71161 -14.83795,11.39061 v 0 c -13.03739,3.49635 -26.44065,-4.23819 -29.93702,-17.27559 v 0 c -3.49633,-13.0374 4.23822,-26.44066 17.27561,-29.93701 z"
       id="path22501"
       inkscape:connector-curvature="0"
       style="fill-rule:evenodd;stroke:#000000;stroke-width:2;stroke-linecap:butt;stroke-linejoin:round" />
    <path
       d="m 368.8204,356.0228 v 0 c 4.36609,-1.16544 8.85028,1.42917 10.01575,5.79529 v 0 c 0.55966,2.09665 0.26352,4.32977 -0.82331,6.2081 -1.08682,1.87832 -2.8753,3.24795 -4.97198,3.80765 v 0 c -4.36609,1.16543 -8.85028,-1.4292 -10.01575,-5.79529 v 0 c -1.16543,-4.36609 1.4292,-8.85028 5.79529,-10.01575 z"
       id="path22503"
       inkscape:connector-curvature="0"
       style="fill:#e06666;fill-rule:evenodd" />
    <path
       d="m 368.8204,356.0228 v 0 c 4.36609,-1.16544 8.85028,1.42917 10.01575,5.79529 v 0 c 0.55966,2.09665 0.26352,4.32977 -0.82331,6.2081 -1.08682,1.87832 -2.8753,3.24795 -4.97198,3.80765 v 0 c -4.36609,1.16543 -8.85028,-1.4292 -10.01575,-5.79529 v 0 c -1.16543,-4.36609 1.4292,-8.85028 5.79529,-10.01575 z"
       id="path22505"
       inkscape:connector-curvature="0"
       style="fill-rule:evenodd;stroke:#000000;stroke-width:2;stroke-linecap:butt;stroke-linejoin:round" />
    <path
       d="m 463.6897,287.1469 v 0 c 8.05377,-2.15695 16.33121,2.62338 18.48819,10.67719 v 0 c 1.0358,3.86755 0.4928,7.98818 -1.50958,11.45538 -2.00235,3.46722 -5.30002,5.99698 -9.16761,7.0328 v 0 c -8.05377,2.15696 -16.33123,-2.62338 -18.48819,-10.67718 v 0 c -2.15695,-8.05377 2.62339,-16.33124 10.67719,-18.48819 z"
       id="path22507"
       inkscape:connector-curvature="0"
       style="fill:#e06666;fill-rule:evenodd" />
    <path
       d="m 463.6897,287.1469 v 0 c 8.05377,-2.15695 16.33121,2.62338 18.48819,10.67719 v 0 c 1.0358,3.86755 0.4928,7.98818 -1.50958,11.45538 -2.00235,3.46722 -5.30002,5.99698 -9.16761,7.0328 v 0 c -8.05377,2.15696 -16.33123,-2.62338 -18.48819,-10.67718 v 0 c -2.15695,-8.05377 2.62339,-16.33124 10.67719,-18.48819 z"
       id="path22509"
       inkscape:connector-curvature="0"
       style="fill-rule:evenodd;stroke:#000000;stroke-width:2;stroke-linecap:butt;stroke-linejoin:round" />
    <path
       d="m 393.7623,346.42273 v 0 c 5.28802,-1.41766 10.71701,1.7128 12.12598,6.99213 v 0 c 0.67663,2.53521 0.31677,5.23706 -1.00043,7.5111 -1.31717,2.27408 -3.4838,3.93409 -6.02319,4.61487 v 0 c -5.288,1.4177 -10.71701,-1.7128 -12.12598,-6.99212 v 0 c -1.40897,-5.2793 1.7356,-10.70829 7.02362,-12.12598 z"
       id="path22511"
       inkscape:connector-curvature="0"
       style="fill:#e06666;fill-rule:evenodd" />
    <path
       d="m 393.7623,346.42273 v 0 c 5.28802,-1.41766 10.71701,1.7128 12.12598,6.99213 v 0 c 0.67663,2.53521 0.31677,5.23706 -1.00043,7.5111 -1.31717,2.27408 -3.4838,3.93409 -6.02319,4.61487 v 0 c -5.288,1.4177 -10.71701,-1.7128 -12.12598,-6.99212 v 0 c -1.40897,-5.2793 1.7356,-10.70829 7.02362,-12.12598 z"
       id="path22513"
       inkscape:connector-curvature="0"
       style="fill-rule:evenodd;stroke:#000000;stroke-width:2;stroke-linecap:butt;stroke-linejoin:round" />
    <path
       d="m 474.8836,134.8197 v 0 c 13.03741,-3.49635 26.44064,4.2382 29.93701,17.2756 v 0 c 1.67902,6.26078 0.80216,12.93212 -2.43765,18.54639 -3.23978,5.61427 -8.57715,9.71161 -14.83795,11.39061 v 0 c -13.03739,3.49635 -26.44065,-4.23819 -29.93698,-17.27559 v 0 c -3.49637,-13.0374 4.23819,-26.44066 17.27557,-29.93701 z"
       id="path22515"
       inkscape:connector-curvature="0"
       style="fill:#e06666;fill-rule:evenodd" />
    <path
       d="m 474.8836,134.8197 v 0 c 13.03741,-3.49635 26.44064,4.2382 29.93701,17.2756 v 0 c 1.67902,6.26078 0.80216,12.93212 -2.43765,18.54639 -3.23978,5.61427 -8.57715,9.71161 -14.83795,11.39061 v 0 c -13.03739,3.49635 -26.44065,-4.23819 -29.93698,-17.27559 v 0 c -3.49637,-13.0374 4.23819,-26.44066 17.27557,-29.93701 z"
       id="path22517"
       inkscape:connector-curvature="0"
       style="fill-rule:evenodd;stroke:#000000;stroke-width:2;stroke-linecap:butt;stroke-linejoin:round" />
    <path
       d="m 204.48494,128.57831 v 0 c 0,-14.23763 11.54188,-25.77953 25.77953,-25.77953 v 0 c 6.83715,0 13.39427,2.71605 18.22888,7.55066 4.83459,4.8346 7.55063,11.39172 7.55063,18.22887 v 0 c 0,14.23764 -11.54187,25.77953 -25.77951,25.77953 v 0 c -14.23764,0 -25.77953,-11.54189 -25.77953,-25.77953 z"
       id="path22519"
       inkscape:connector-curvature="0"
       style="fill:#3d85c6;fill-rule:evenodd" />
    <path
       d="m 204.48494,128.57831 v 0 c 0,-14.23763 11.54188,-25.77953 25.77953,-25.77953 v 0 c 6.83715,0 13.39427,2.71605 18.22888,7.55066 4.83459,4.8346 7.55063,11.39172 7.55063,18.22887 v 0 c 0,14.23764 -11.54187,25.77953 -25.77951,25.77953 v 0 c -14.23764,0 -25.77953,-11.54189 -25.77953,-25.77953 z"
       id="path22521"
       inkscape:connector-curvature="0"
       style="fill-rule:evenodd;stroke:#000000;stroke-width:2;stroke-linecap:butt;stroke-linejoin:round" />
    <path
       d="m 267.8841,79.675 v 0 c 0,-17.794876 14.4256,-32.220474 32.22049,-32.220474 v 0 c 8.54538,0 16.74078,3.394649 22.78329,9.43716 6.04252,6.042511 9.43717,14.237911 9.43717,22.783314 v 0 c 0,17.794876 -14.4256,32.22047 -32.22046,32.22047 v 0 c -17.79489,0 -32.22049,-14.425594 -32.22049,-32.22047 z"
       id="path22523"
       inkscape:connector-curvature="0"
       style="fill:#3d85c6;fill-rule:evenodd" />
    <path
       d="m 267.8841,79.675 v 0 c 0,-17.794876 14.4256,-32.220474 32.22049,-32.220474 v 0 c 8.54538,0 16.74078,3.394649 22.78329,9.43716 6.04252,6.042511 9.43717,14.237911 9.43717,22.783314 v 0 c 0,17.794876 -14.4256,32.22047 -32.22046,32.22047 v 0 c -17.79489,0 -32.22049,-14.425594 -32.22049,-32.22047 z"
       id="path22525"
       inkscape:connector-curvature="0"
       style="fill-rule:evenodd;stroke:#000000;stroke-width:2;stroke-linecap:butt;stroke-linejoin:round" />
    <path
       d="m 227.51009,326.14328 v 0 c 0,-10.9935 8.912,-19.90552 19.90552,-19.90552 v 0 c 5.27926,0 10.3423,2.0972 14.07533,5.8302 3.733,3.733 5.83017,8.79605 5.83017,14.07532 v 0 c 0,10.99353 -8.91199,19.90552 -19.9055,19.90552 v 0 c -10.99352,0 -19.90552,-8.91199 -19.90552,-19.90552 z"
       id="path22527"
       inkscape:connector-curvature="0"
       style="fill:#3d85c6;fill-rule:evenodd" />
    <path
       d="m 227.51009,326.14328 v 0 c 0,-10.9935 8.912,-19.90552 19.90552,-19.90552 v 0 c 5.27926,0 10.3423,2.0972 14.07533,5.8302 3.733,3.733 5.83017,8.79605 5.83017,14.07532 v 0 c 0,10.99353 -8.91199,19.90552 -19.9055,19.90552 v 0 c -10.99352,0 -19.90552,-8.91199 -19.90552,-19.90552 z"
       id="path22529"
       inkscape:connector-curvature="0"
       style="fill-rule:evenodd;stroke:#000000;stroke-width:2;stroke-linecap:butt;stroke-linejoin:round" />
    <path
       d="m 193.88214,181.48384 v 0 c 10.43687,-2.80057 21.16794,3.38989 23.96851,13.82677 v 0 c 1.34488,5.01196 0.64367,10.3529 -1.94934,14.84787 -2.59304,4.49496 -6.86547,7.77575 -11.87743,9.12063 v 0 c -10.43689,2.80057 -21.16795,-3.38989 -23.96851,-13.82676 v 0 c -2.80056,-10.43688 3.3899,-21.16794 13.82677,-23.96851 z"
       id="path22531"
       inkscape:connector-curvature="0"
       style="fill:#3d85c6;fill-rule:evenodd" />
    <path
       d="m 193.88214,181.48384 v 0 c 10.43687,-2.80057 21.16794,3.38989 23.96851,13.82677 v 0 c 1.34488,5.01196 0.64367,10.3529 -1.94934,14.84787 -2.59304,4.49496 -6.86547,7.77575 -11.87743,9.12063 v 0 c -10.43689,2.80057 -21.16795,-3.38989 -23.96851,-13.82676 v 0 c -2.80056,-10.43688 3.3899,-21.16794 13.82677,-23.96851 z"
       id="path22533"
       inkscape:connector-curvature="0"
       style="fill-rule:evenodd;stroke:#000000;stroke-width:2;stroke-linecap:butt;stroke-linejoin:round" />
    <path
       d="m 201.88257,250.39758 v 0 c 10.43687,-2.80057 21.16794,3.38989 23.96849,13.82675 v 0 c 1.34488,5.01196 0.64368,10.35291 -1.94934,14.84787 -2.59302,4.49497 -6.86546,7.77576 -11.87743,9.12064 v 0 c -10.43687,2.80057 -21.16793,-3.38989 -23.9685,-13.82675 v 0 c -2.80056,-10.43689 3.38989,-21.16796 13.82678,-23.96851 z"
       id="path22535"
       inkscape:connector-curvature="0"
       style="fill:#3d85c6;fill-rule:evenodd" />
    <path
       d="m 201.88257,250.39758 v 0 c 10.43687,-2.80057 21.16794,3.38989 23.96849,13.82675 v 0 c 1.34488,5.01196 0.64368,10.35291 -1.94934,14.84787 -2.59302,4.49497 -6.86546,7.77576 -11.87743,9.12064 v 0 c -10.43687,2.80057 -21.16793,-3.38989 -23.9685,-13.82675 v 0 c -2.80056,-10.43689 3.38989,-21.16796 13.82678,-23.96851 z"
       id="path22537"
       inkscape:connector-curvature="0"
       style="fill-rule:evenodd;stroke:#000000;stroke-width:2;stroke-linecap:butt;stroke-linejoin:round" />
    <path
       d="m 299.9823,343.45255 v 0 c 8.05377,-2.15695 16.33124,2.62338 18.48819,10.67715 v 0 c 1.0358,3.86759 0.4928,7.98823 -1.50955,11.45542 -2.00238,3.46722 -5.30005,5.99698 -9.16764,7.03278 v 0 c -8.05377,2.15695 -16.33123,-2.62336 -18.48819,-10.67716 v 0 c -2.15695,-8.0538 2.62339,-16.33124 10.67719,-18.48819 z"
       id="path22539"
       inkscape:connector-curvature="0"
       style="fill:#3d85c6;fill-rule:evenodd" />
    <path
       d="m 299.9823,343.45255 v 0 c 8.05377,-2.15695 16.33124,2.62338 18.48819,10.67715 v 0 c 1.0358,3.86759 0.4928,7.98823 -1.50955,11.45542 -2.00238,3.46722 -5.30005,5.99698 -9.16764,7.03278 v 0 c -8.05377,2.15695 -16.33123,-2.62336 -18.48819,-10.67716 v 0 c -2.15695,-8.0538 2.62339,-16.33124 10.67719,-18.48819 z"
       id="path22541"
       inkscape:connector-curvature="0"
       style="fill-rule:evenodd;stroke:#000000;stroke-width:2;stroke-linecap:butt;stroke-linejoin:round" />
    <path
       d="M 319.64352,-1.3477653 H 367.5805 V 38.463259 h -47.93698 z"
       id="path22543"
       inkscape:connector-curvature="0"
       style="fill:#000000;fill-opacity:0;fill-rule:evenodd" />
    <path
       d="m 337.58102,30.692236 h -2.10937 v -13.4375 q -0.75,0.71875 -2,1.453125 -1.23438,0.71875 -2.21875,1.078125 v -2.03125 q 1.78125,-0.828125 3.09375,-2.015625 1.32812,-1.1875 1.875,-2.296875 h 1.35937 z m 16.48828,-2.03125 v 2.03125 h -11.34375 q -0.0312,-0.765625 0.23438,-1.46875 0.4375,-1.15625 1.39062,-2.28125 0.95313,-1.125 2.76563,-2.609375 2.79687,-2.296875 3.78125,-3.625 0.98437,-1.34375 0.98437,-2.546875 0,-1.25 -0.90625,-2.109375 -0.89062,-0.859375 -2.32812,-0.859375 -1.51563,0 -2.4375,0.921875 -0.90625,0.90625 -0.92188,2.515625 l -2.17187,-0.21875 q 0.21875,-2.421875 1.67187,-3.6875 1.45313,-1.28125 3.90625,-1.28125 2.46875,0 3.90625,1.375 1.45313,1.359375 1.45313,3.390625 0,1.03125 -0.42188,2.03125 -0.42187,1 -1.40625,2.109375 -0.96875,1.09375 -3.25,3.015625 -1.89062,1.59375 -2.4375,2.15625 -0.53125,0.5625 -0.89062,1.140625 z"
       id="path22545"
       inkscape:connector-curvature="0"
       style="fill:#000000;fill-rule:nonzero" />
    <path
       d="m 334.74887,400.8016 h 47.93701 v 39.81103 h -47.93701 z"
       id="path22547"
       inkscape:connector-curvature="0"
       style="fill:#000000;fill-opacity:0;fill-rule:evenodd" />
    <path
       d="m 355.68637,419.87286 -2.09375,0.15625 q -0.28125,-1.23438 -0.79688,-1.79688 -0.85937,-0.90625 -2.10937,-0.90625 -1,0 -1.76563,0.5625 -1,0.71875 -1.57812,2.125 -0.5625,1.39063 -0.59375,3.96875 0.76562,-1.15625 1.85937,-1.71875 1.10938,-0.5625 2.3125,-0.5625 2.10938,0 3.59375,1.54688 1.48438,1.54687 1.48438,4.01562 0,1.60938 -0.70313,3 -0.6875,1.39063 -1.90625,2.14063 -1.21875,0.73437 -2.76562,0.73437 -2.64063,0 -4.3125,-1.9375 -1.65625,-1.95312 -1.65625,-6.40625 0,-4.96875 1.84375,-7.23437 1.59375,-1.96875 4.3125,-1.96875 2.03125,0 3.32812,1.14062 1.29688,1.125 1.54688,3.14063 z m -8.60938,7.40625 q 0,1.07812 0.45313,2.07812 0.46875,1 1.29687,1.53125 0.84375,0.51563 1.75,0.51563 1.34375,0 2.29688,-1.07813 0.96875,-1.07812 0.96875,-2.9375 0,-1.78125 -0.95313,-2.79687 -0.95312,-1.03125 -2.39062,-1.03125 -1.42188,0 -2.42188,1.03125 -1,1.01562 -1,2.6875 z"
       id="path22549"
       inkscape:connector-curvature="0"
       style="fill:#000000;fill-rule:nonzero" />
    <path
       d="m 1266.3765,-0.62914723 h 47.937 V 39.181877 h -47.937 z"
       id="path22555"
       inkscape:connector-curvature="0"
       style="fill:#000000;fill-opacity:0;fill-rule:evenodd" />
    <path
       d="M 724.4252,189.90552 H 964.4567"
       id="path22655"
       inkscape:connector-curvature="0"
       style="fill:#000000;fill-opacity:0;fill-rule:evenodd" />
    <path
       d="m 174.55905,503.44882 63.27559,-112.8504"
       id="path22661"
       inkscape:connector-curvature="0"
       style="fill:#000000;fill-opacity:0;fill-rule:evenodd" />
    <path
       d="m 174.55905,503.44882 54.47232,-97.14996"
       id="path22663"
       inkscape:connector-curvature="0"
       style="fill-rule:evenodd;stroke:#000000;stroke-width:3;stroke-linecap:butt;stroke-linejoin:round" />
    <path
       d="m 233.35353,408.72226 2.3362,-14.29843 -10.98049,9.45157 z"
       id="path22665"
       inkscape:connector-curvature="0"
       style="fill:#000000;fill-rule:evenodd;stroke:#000000;stroke-width:3;stroke-linecap:butt" />
    <path
       d="M 566.5591,503.44882 493.14174,391.88977"
       id="path22667"
       inkscape:connector-curvature="0"
       style="fill:#000000;fill-opacity:0;fill-rule:evenodd" />
    <path
       d="M 566.5591,503.44882 503.037,406.92584"
       id="path22669"
       inkscape:connector-curvature="0"
       style="fill-rule:evenodd;stroke:#000000;stroke-width:3;stroke-linecap:butt;stroke-linejoin:round" />
    <path
       d="m 507.17627,404.20178 -11.62354,-8.64847 3.34501,14.09659 z"
       id="path22671"
       inkscape:connector-curvature="0"
       style="fill:#000000;fill-rule:evenodd;stroke:#000000;stroke-width:3;stroke-linecap:butt" />
  </g>
</svg>
