<svg version="1.1" viewBox="0.0 0.0 894.4409448818898 508.81889763779526" fill="none" stroke="none" stroke-linecap="square" stroke-miterlimit="10" xmlns:xlink="http://www.w3.org/1999/xlink" xmlns="http://www.w3.org/2000/svg"><clipPath id="p.0"><path d="m0 0l894.4409 0l0 508.8189l-894.4409 0l0 -508.8189z" clip-rule="nonzero"/></clipPath><g clip-path="url(#p.0)"><path fill="#000000" fill-opacity="0.0" d="m0 0l894.4409 0l0 508.8189l-894.4409 0z" fill-rule="evenodd"/><g filter="url(#shadowFilter-p.1)"><use xlink:href="#p.1" transform="matrix(1.0 0.0 0.0 1.0 0.0 2.0)"/></g><defs><filter id="shadowFilter-p.1" filterUnits="userSpaceOnUse"><feGaussianBlur in="SourceAlpha" stdDeviation="2.0" result="blur"/><feComponentTransfer in="blur" color-interpolation-filters="sRGB"><feFuncR type="linear" slope="0" intercept="0.0"/><feFuncG type="linear" slope="0" intercept="0.0"/><feFuncB type="linear" slope="0" intercept="0.0"/><feFuncA type="linear" slope="0.5" intercept="0"/></feComponentTransfer></filter></defs><g id="p.1"><path fill="#e9edee" d="m95.83816 189.71l0 0c0 -100.55931 81.51943 -182.07874 182.07874 -182.07874l0 0c48.290283 0 94.60272 19.18324 128.74911 53.329628c34.146393 34.14639 53.32962 80.45883 53.32962 128.74911l0 0c0 100.55931 -81.51944 182.07875 -182.07874 182.07875l0 0c-100.55931 0 -182.07874 -81.51944 -182.07874 -182.07875z" fill-rule="evenodd"/><path stroke="#999999" stroke-width="2.0" stroke-linejoin="round" stroke-linecap="butt" d="m95.83816 189.71l0 0c0 -100.55931 81.51943 -182.07874 182.07874 -182.07874l0 0c48.290283 0 94.60272 19.18324 128.74911 53.329628c34.146393 34.14639 53.32962 80.45883 53.32962 128.74911l0 0c0 100.55931 -81.51944 182.07875 -182.07874 182.07875l0 0c-100.55931 0 -182.07874 -81.51944 -182.07874 -182.07875z" fill-rule="evenodd"/></g><g filter="url(#shadowFilter-p.2)"><use xlink:href="#p.2" transform="matrix(1.0 0.0 0.0 1.0 0.0 2.0)"/></g><defs><filter id="shadowFilter-p.2" filterUnits="userSpaceOnUse"><feGaussianBlur in="SourceAlpha" stdDeviation="2.0" result="blur"/><feComponentTransfer in="blur" color-interpolation-filters="sRGB"><feFuncR type="linear" slope="0" intercept="0.0"/><feFuncG type="linear" slope="0" intercept="0.0"/><feFuncB type="linear" slope="0" intercept="0.0"/><feFuncA type="linear" slope="0.5" intercept="0"/></feComponentTransfer></filter></defs><g id="p.2"><path fill="#000000" fill-opacity="0.0" d="m870.66956 49.93176c-20.049744 0 -42.71881 0.8866501 -58.758972 13.773132c-11.555908 9.283825 -20.58789 25.346096 -34.887085 27.535275c-33.54309 5.135414 -61.59369 -37.373226 -95.4776 -37.373226" fill-rule="evenodd"/><path stroke="#ff0000" stroke-width="8.0" stroke-linejoin="round" stroke-linecap="butt" d="m870.66956 49.93176c-20.049744 0 -42.71881 0.8866501 -58.758972 13.773132c-11.555908 9.283825 -20.58789 25.346096 -34.887085 27.535275c-33.54309 5.135414 -61.59369 -37.373226 -95.4776 -37.373226" fill-rule="evenodd"/></g><g filter="url(#shadowFilter-p.3)"><use xlink:href="#p.3" transform="matrix(1.0 0.0 0.0 1.0 0.0 2.0)"/></g><defs><filter id="shadowFilter-p.3" filterUnits="userSpaceOnUse"><feGaussianBlur in="SourceAlpha" stdDeviation="2.0" result="blur"/><feComponentTransfer in="blur" color-interpolation-filters="sRGB"><feFuncR type="linear" slope="0" intercept="0.0"/><feFuncG type="linear" slope="0" intercept="0.0"/><feFuncB type="linear" slope="0" intercept="0.0"/><feFuncA type="linear" slope="0.5" intercept="0"/></feComponentTransfer></filter></defs><g id="p.3"><path fill="#000000" fill-opacity="0.0" d="m870.66956 78.34292c-20.049744 0 -42.71881 0.8866501 -58.758972 13.773132c-11.555908 9.283829 -20.58789 25.346092 -34.887085 27.535278c-33.54309 5.1354065 -61.59369 -37.37323 -95.4776 -37.37323" fill-rule="evenodd"/><path stroke="#ff0000" stroke-width="8.0" stroke-linejoin="round" stroke-linecap="butt" d="m870.66956 78.34292c-20.049744 0 -42.71881 0.8866501 -58.758972 13.773132c-11.555908 9.283829 -20.58789 25.346092 -34.887085 27.535278c-33.54309 5.1354065 -61.59369 -37.37323 -95.4776 -37.37323" fill-rule="evenodd"/></g><g filter="url(#shadowFilter-p.4)"><use xlink:href="#p.4" transform="matrix(1.0 0.0 0.0 1.0 0.0 2.0)"/></g><defs><filter id="shadowFilter-p.4" filterUnits="userSpaceOnUse"><feGaussianBlur in="SourceAlpha" stdDeviation="2.0" result="blur"/><feComponentTransfer in="blur" color-interpolation-filters="sRGB"><feFuncR type="linear" slope="0" intercept="0.0"/><feFuncG type="linear" slope="0" intercept="0.0"/><feFuncB type="linear" slope="0" intercept="0.0"/><feFuncA type="linear" slope="0.5" intercept="0"/></feComponentTransfer></filter></defs><g id="p.4"><path fill="#000000" fill-opacity="0.0" d="m872.0372 108.72101c-20.049683 0 -42.71875 0.8866501 -58.758972 13.773132c-11.555908 9.283829 -20.58789 25.3461 -34.887024 27.535278c-33.54315 5.1354065 -61.59369 -37.37323 -95.47766 -37.37323" fill-rule="evenodd"/><path stroke="#ff0000" stroke-width="8.0" stroke-linejoin="round" stroke-linecap="butt" d="m872.0372 108.72101c-20.049683 0 -42.71875 0.8866501 -58.758972 13.773132c-11.555908 9.283829 -20.58789 25.3461 -34.887024 27.535278c-33.54315 5.1354065 -61.59369 -37.37323 -95.47766 -37.37323" fill-rule="evenodd"/></g><g filter="url(#shadowFilter-p.5)"><use xlink:href="#p.5" transform="matrix(1.0 0.0 0.0 1.0 0.0 2.0)"/></g><defs><filter id="shadowFilter-p.5" filterUnits="userSpaceOnUse"><feGaussianBlur in="SourceAlpha" stdDeviation="2.0" result="blur"/><feComponentTransfer in="blur" color-interpolation-filters="sRGB"><feFuncR type="linear" slope="0" intercept="0.0"/><feFuncG type="linear" slope="0" intercept="0.0"/><feFuncB type="linear" slope="0" intercept="0.0"/><feFuncA type="linear" slope="0.5" intercept="0"/></feComponentTransfer></filter></defs><g id="p.5"><path fill="#000000" fill-opacity="0.0" d="m872.0372 135.70477c-20.049683 0 -42.71875 0.8866577 -58.758972 13.773132c-11.555908 9.283829 -20.58789 25.3461 -34.887024 27.535278c-33.54315 5.1354065 -61.59369 -37.37323 -95.47766 -37.37323" fill-rule="evenodd"/><path stroke="#ff0000" stroke-width="8.0" stroke-linejoin="round" stroke-linecap="butt" d="m872.0372 135.70477c-20.049683 0 -42.71875 0.8866577 -58.758972 13.773132c-11.555908 9.283829 -20.58789 25.3461 -34.887024 27.535278c-33.54315 5.1354065 -61.59369 -37.37323 -95.47766 -37.37323" fill-rule="evenodd"/></g><g filter="url(#shadowFilter-p.6)"><use xlink:href="#p.6" transform="matrix(1.0 0.0 0.0 1.0 0.0 2.0)"/></g><defs><filter id="shadowFilter-p.6" filterUnits="userSpaceOnUse"><feGaussianBlur in="SourceAlpha" stdDeviation="2.0" result="blur"/><feComponentTransfer in="blur" color-interpolation-filters="sRGB"><feFuncR type="linear" slope="0" intercept="0.0"/><feFuncG type="linear" slope="0" intercept="0.0"/><feFuncB type="linear" slope="0" intercept="0.0"/><feFuncA type="linear" slope="0.5" intercept="0"/></feComponentTransfer></filter></defs><g id="p.6"><path fill="#000000" fill-opacity="0.0" d="m396.68958 110.17375l212.81891 0" fill-rule="evenodd"/><path stroke="#1a1a1a" stroke-width="2.0" stroke-linejoin="round" stroke-linecap="butt" d="m396.68954 110.17375l200.81888 0" fill-rule="evenodd"/><path fill="#1a1a1a" stroke="#1a1a1a" stroke-width="2.0" stroke-linecap="butt" d="m597.5084 113.47722l9.076233 -3.3034668l-9.076233 -3.3034668z" fill-rule="evenodd"/></g><g filter="url(#shadowFilter-p.7)"><use xlink:href="#p.7" transform="matrix(1.0 0.0 0.0 1.0 0.0 2.0)"/></g><defs><filter id="shadowFilter-p.7" filterUnits="userSpaceOnUse"><feGaussianBlur in="SourceAlpha" stdDeviation="2.0" result="blur"/><feComponentTransfer in="blur" color-interpolation-filters="sRGB"><feFuncR type="linear" slope="0" intercept="0.0"/><feFuncG type="linear" slope="0" intercept="0.0"/><feFuncB type="linear" slope="0" intercept="0.0"/><feFuncA type="linear" slope="0.5" intercept="0"/></feComponentTransfer></filter></defs><g id="p.7"><path fill="#000000" fill-opacity="0.0" d="m396.68958 281.89374l212.81891 0" fill-rule="evenodd"/><path stroke="#1a1a1a" stroke-width="2.0" stroke-linejoin="round" stroke-linecap="butt" d="m396.68954 281.89374l200.81888 0" fill-rule="evenodd"/><path fill="#1a1a1a" stroke="#1a1a1a" stroke-width="2.0" stroke-linecap="butt" d="m597.5084 285.1972l9.076233 -3.3034668l-9.076233 -3.3034668z" fill-rule="evenodd"/></g><g filter="url(#shadowFilter-p.8)"><use xlink:href="#p.8" transform="matrix(1.0 0.0 0.0 1.0 0.0 2.0)"/></g><defs><filter id="shadowFilter-p.8" filterUnits="userSpaceOnUse"><feGaussianBlur in="SourceAlpha" stdDeviation="2.0" result="blur"/><feComponentTransfer in="blur" color-interpolation-filters="sRGB"><feFuncR type="linear" slope="0" intercept="0.0"/><feFuncG type="linear" slope="0" intercept="0.0"/><feFuncB type="linear" slope="0" intercept="0.0"/><feFuncA type="linear" slope="0.5" intercept="0"/></feComponentTransfer></filter></defs><g id="p.8"><path fill="#666666" d="m208.76187 78.33756l0 0c0 -20.108383 16.301056 -36.40945 36.40944 -36.40945l0 0c9.656387 0 18.917282 3.8359833 25.745377 10.664082c6.8280945 6.8280945 10.6640625 16.088982 10.6640625 25.745369l0 0c0 20.108383 -16.301056 36.409447 -36.40944 36.409447l0 0c-20.108383 0 -36.40944 -16.301064 -36.40944 -36.409447z" fill-rule="evenodd"/><path stroke="#999999" stroke-width="2.0" stroke-linejoin="round" stroke-linecap="butt" d="m208.76187 78.33756l0 0c0 -20.108383 16.301056 -36.40945 36.40944 -36.40945l0 0c9.656387 0 18.917282 3.8359833 25.745377 10.664082c6.8280945 6.8280945 10.6640625 16.088982 10.6640625 25.745369l0 0c0 20.108383 -16.301056 36.409447 -36.40944 36.409447l0 0c-20.108383 0 -36.40944 -16.301064 -36.40944 -36.409447z" fill-rule="evenodd"/></g><g filter="url(#shadowFilter-p.9)"><use xlink:href="#p.9" transform="matrix(1.0 0.0 0.0 1.0 0.0 2.0)"/></g><defs><filter id="shadowFilter-p.9" filterUnits="userSpaceOnUse"><feGaussianBlur in="SourceAlpha" stdDeviation="2.0" result="blur"/><feComponentTransfer in="blur" color-interpolation-filters="sRGB"><feFuncR type="linear" slope="0" intercept="0.0"/><feFuncG type="linear" slope="0" intercept="0.0"/><feFuncB type="linear" slope="0" intercept="0.0"/><feFuncA type="linear" slope="0.5" intercept="0"/></feComponentTransfer></filter></defs><g id="p.9"><path fill="#000000" fill-opacity="0.0" d="m378.68933 254.99744c-19.920471 0 -42.44342 0.8223419 -58.38025 12.774017c-11.481384 8.610382 -20.45517 23.507477 -34.66214 25.537872c-33.32689 4.7628784 -61.19667 -34.66217 -94.86217 -34.66217" fill-rule="evenodd"/><path stroke="#0000ff" stroke-width="8.0" stroke-linejoin="round" stroke-linecap="butt" d="m378.68933 254.99744c-19.920471 0 -42.44342 0.8223419 -58.38025 12.774017c-11.481384 8.610382 -20.45517 23.507477 -34.66214 25.537872c-33.32689 4.7628784 -61.19667 -34.66217 -94.86217 -34.66217" fill-rule="evenodd"/></g><g filter="url(#shadowFilter-p.10)"><use xlink:href="#p.10" transform="matrix(1.0 0.0 0.0 1.0 0.0 2.0)"/></g><defs><filter id="shadowFilter-p.10" filterUnits="userSpaceOnUse"><feGaussianBlur in="SourceAlpha" stdDeviation="2.0" result="blur"/><feComponentTransfer in="blur" color-interpolation-filters="sRGB"><feFuncR type="linear" slope="0" intercept="0.0"/><feFuncG type="linear" slope="0" intercept="0.0"/><feFuncB type="linear" slope="0" intercept="0.0"/><feFuncA type="linear" slope="0.5" intercept="0"/></feComponentTransfer></filter></defs><g id="p.10"><path fill="#000000" fill-opacity="0.0" d="m193.87401 135.38583l-40.755905 0" fill-rule="evenodd"/><path stroke="#ff00ff" stroke-width="4.0" stroke-linejoin="round" stroke-linecap="butt" d="m193.87401 135.38583l-40.755905 0" fill-rule="evenodd"/></g><g filter="url(#shadowFilter-p.11)"><use xlink:href="#p.11" transform="matrix(1.0 0.0 0.0 1.0 0.0 2.0)"/></g><defs><filter id="shadowFilter-p.11" filterUnits="userSpaceOnUse"><feGaussianBlur in="SourceAlpha" stdDeviation="2.0" result="blur"/><feComponentTransfer in="blur" color-interpolation-filters="sRGB"><feFuncR type="linear" slope="0" intercept="0.0"/><feFuncG type="linear" slope="0" intercept="0.0"/><feFuncB type="linear" slope="0" intercept="0.0"/><feFuncA type="linear" slope="0.5" intercept="0"/></feComponentTransfer></filter></defs><g id="p.11"><path fill="#000000" fill-opacity="0.0" d="m188.90834 224.86359l-35.149597 0" fill-rule="evenodd"/><path stroke="#ff00ff" stroke-width="4.0" stroke-linejoin="round" stroke-linecap="butt" d="m188.90834 224.86359l-35.149597 0" fill-rule="evenodd"/></g><g filter="url(#shadowFilter-p.12)"><use xlink:href="#p.12" transform="matrix(1.0 0.0 0.0 1.0 0.0 2.0)"/></g><defs><filter id="shadowFilter-p.12" filterUnits="userSpaceOnUse"><feGaussianBlur in="SourceAlpha" stdDeviation="2.0" result="blur"/><feComponentTransfer in="blur" color-interpolation-filters="sRGB"><feFuncR type="linear" slope="0" intercept="0.0"/><feFuncG type="linear" slope="0" intercept="0.0"/><feFuncB type="linear" slope="0" intercept="0.0"/><feFuncA type="linear" slope="0.5" intercept="0"/></feComponentTransfer></filter></defs><g id="p.12"><path fill="#000000" fill-opacity="0.0" d="m191.06299 259.99738l-37.007874 0" fill-rule="evenodd"/><path stroke="#6aa84f" stroke-width="4.0" stroke-linejoin="round" stroke-linecap="butt" d="m191.06299 259.99738l-37.007874 0" fill-rule="evenodd"/></g><g filter="url(#shadowFilter-p.13)"><use xlink:href="#p.13" transform="matrix(1.0 0.0 0.0 1.0 0.0 2.0)"/></g><defs><filter id="shadowFilter-p.13" filterUnits="userSpaceOnUse"><feGaussianBlur in="SourceAlpha" stdDeviation="2.0" result="blur"/><feComponentTransfer in="blur" color-interpolation-filters="sRGB"><feFuncR type="linear" slope="0" intercept="0.0"/><feFuncG type="linear" slope="0" intercept="0.0"/><feFuncB type="linear" slope="0" intercept="0.0"/><feFuncA type="linear" slope="0.5" intercept="0"/></feComponentTransfer></filter></defs><g id="p.13"><path fill="#000000" fill-opacity="0.0" d="m373.9308 220.588c-19.920471 0 -42.44342 0.82232666 -58.38022 12.774017c-11.481384 8.610367 -20.45517 23.507462 -34.66217 25.537857c-33.326874 4.7628784 -61.196655 -34.662155 -94.86215 -34.662155" fill-rule="evenodd"/><path stroke="#0000ff" stroke-width="8.0" stroke-linejoin="round" stroke-linecap="butt" d="m373.9308 220.588c-19.920471 0 -42.44342 0.82232666 -58.38022 12.774017c-11.481384 8.610367 -20.45517 23.507462 -34.66217 25.537857c-33.326874 4.7628784 -61.196655 -34.662155 -94.86215 -34.662155" fill-rule="evenodd"/></g><g filter="url(#shadowFilter-p.14)"><use xlink:href="#p.14" transform="matrix(1.0 0.0 0.0 1.0 0.0 2.0)"/></g><defs><filter id="shadowFilter-p.14" filterUnits="userSpaceOnUse"><feGaussianBlur in="SourceAlpha" stdDeviation="2.0" result="blur"/><feComponentTransfer in="blur" color-interpolation-filters="sRGB"><feFuncR type="linear" slope="0" intercept="0.0"/><feFuncG type="linear" slope="0" intercept="0.0"/><feFuncB type="linear" slope="0" intercept="0.0"/><feFuncA type="linear" slope="0.5" intercept="0"/></feComponentTransfer></filter></defs><g id="p.14"><path fill="#000000" fill-opacity="0.0" d="m367.20633 132.07335c-18.49472 0 -39.40564 0.7634735 -54.201843 11.859756c-10.659637 7.99411 -18.99115 21.824997 -32.181305 23.710052c-30.94162 4.421997 -56.816696 -32.181305 -88.07269 -32.181305" fill-rule="evenodd"/><path stroke="#ff0000" stroke-width="8.0" stroke-linejoin="round" stroke-linecap="butt" d="m367.20633 132.07335c-18.49472 0 -39.40564 0.7634735 -54.201843 11.859756c-10.659637 7.99411 -18.99115 21.824997 -32.181305 23.710052c-30.94162 4.421997 -56.816696 -32.181305 -88.07269 -32.181305" fill-rule="evenodd"/></g><g filter="url(#shadowFilter-p.15)"><use xlink:href="#p.15" transform="matrix(1.0 0.0 0.0 1.0 0.0 2.0)"/></g><defs><filter id="shadowFilter-p.15" filterUnits="userSpaceOnUse"><feGaussianBlur in="SourceAlpha" stdDeviation="2.0" result="blur"/><feComponentTransfer in="blur" color-interpolation-filters="sRGB"><feFuncR type="linear" slope="0" intercept="0.0"/><feFuncG type="linear" slope="0" intercept="0.0"/><feFuncB type="linear" slope="0" intercept="0.0"/><feFuncA type="linear" slope="0.5" intercept="0"/></feComponentTransfer></filter></defs><g id="p.15"><path fill="#000000" fill-opacity="0.0" d="m870.66956 161.93054c-20.049744 0 -42.71881 0.88664246 -58.758972 13.773132c-11.555908 9.283829 -20.58789 25.346085 -34.887085 27.535278c-33.54309 5.1354065 -61.59369 -37.37323 -95.4776 -37.37323" fill-rule="evenodd"/><path stroke="#ff0000" stroke-width="8.0" stroke-linejoin="round" stroke-linecap="butt" d="m870.66956 161.93054c-20.049744 0 -42.71881 0.88664246 -58.758972 13.773132c-11.555908 9.283829 -20.58789 25.346085 -34.887085 27.535278c-33.54309 5.1354065 -61.59369 -37.37323 -95.4776 -37.37323" fill-rule="evenodd"/></g><g filter="url(#shadowFilter-p.16)"><use xlink:href="#p.16" transform="matrix(1.0 0.0 0.0 1.0 0.0 2.0)"/></g><defs><filter id="shadowFilter-p.16" filterUnits="userSpaceOnUse"><feGaussianBlur in="SourceAlpha" stdDeviation="2.0" result="blur"/><feComponentTransfer in="blur" color-interpolation-filters="sRGB"><feFuncR type="linear" slope="0" intercept="0.0"/><feFuncG type="linear" slope="0" intercept="0.0"/><feFuncB type="linear" slope="0" intercept="0.0"/><feFuncA type="linear" slope="0.5" intercept="0"/></feComponentTransfer></filter></defs><g id="p.16"><path fill="#000000" fill-opacity="0.0" d="m870.6696 254.34383c-20.049744 0 -42.71881 0.8866577 -58.759033 13.773148c-11.555847 9.283813 -20.58783 25.34607 -34.887024 27.535278c-33.54309 5.1354065 -61.59369 -37.37323 -95.4776 -37.37323" fill-rule="evenodd"/><path stroke="#0000ff" stroke-width="8.0" stroke-linejoin="round" stroke-linecap="butt" d="m870.6696 254.34383c-20.049744 0 -42.71881 0.8866577 -58.759033 13.773148c-11.555847 9.283813 -20.58783 25.34607 -34.887024 27.535278c-33.54309 5.1354065 -61.59369 -37.37323 -95.4776 -37.37323" fill-rule="evenodd"/></g><g filter="url(#shadowFilter-p.17)"><use xlink:href="#p.17" transform="matrix(1.0 0.0 0.0 1.0 0.0 2.0)"/></g><defs><filter id="shadowFilter-p.17" filterUnits="userSpaceOnUse"><feGaussianBlur in="SourceAlpha" stdDeviation="2.0" result="blur"/><feComponentTransfer in="blur" color-interpolation-filters="sRGB"><feFuncR type="linear" slope="0" intercept="0.0"/><feFuncG type="linear" slope="0" intercept="0.0"/><feFuncB type="linear" slope="0" intercept="0.0"/><feFuncA type="linear" slope="0.5" intercept="0"/></feComponentTransfer></filter></defs><g id="p.17"><path fill="#000000" fill-opacity="0.0" d="m872.50574 284.72217c-20.049744 0 -42.71881 0.8866272 -58.759033 13.773132c-11.555847 9.283813 -20.58789 25.34607 -34.887024 27.535278c-33.54309 5.1354065 -61.59369 -37.37323 -95.4776 -37.37323" fill-rule="evenodd"/><path stroke="#0000ff" stroke-width="8.0" stroke-linejoin="round" stroke-linecap="butt" d="m872.50574 284.72217c-20.049744 0 -42.71881 0.8866272 -58.759033 13.773132c-11.555847 9.283813 -20.58789 25.34607 -34.887024 27.535278c-33.54309 5.1354065 -61.59369 -37.37323 -95.4776 -37.37323" fill-rule="evenodd"/></g><g filter="url(#shadowFilter-p.18)"><use xlink:href="#p.18" transform="matrix(1.0 0.0 0.0 1.0 0.0 2.0)"/></g><defs><filter id="shadowFilter-p.18" filterUnits="userSpaceOnUse"><feGaussianBlur in="SourceAlpha" stdDeviation="2.0" result="blur"/><feComponentTransfer in="blur" color-interpolation-filters="sRGB"><feFuncR type="linear" slope="0" intercept="0.0"/><feFuncG type="linear" slope="0" intercept="0.0"/><feFuncB type="linear" slope="0" intercept="0.0"/><feFuncA type="linear" slope="0.5" intercept="0"/></feComponentTransfer></filter></defs><g id="p.18"><path fill="#000000" fill-opacity="0.0" d="m872.50574 311.23767c-20.049744 0 -42.71881 0.8866272 -58.759033 13.773132c-11.555847 9.283813 -20.58789 25.34607 -34.887024 27.535278c-33.54309 5.1354065 -61.59369 -37.37323 -95.4776 -37.37323" fill-rule="evenodd"/><path stroke="#0000ff" stroke-width="8.0" stroke-linejoin="round" stroke-linecap="butt" d="m872.50574 311.23767c-20.049744 0 -42.71881 0.8866272 -58.759033 13.773132c-11.555847 9.283813 -20.58789 25.34607 -34.887024 27.535278c-33.54309 5.1354065 -61.59369 -37.37323 -95.4776 -37.37323" fill-rule="evenodd"/></g><g filter="url(#shadowFilter-p.19)"><use xlink:href="#p.19" transform="matrix(1.0 0.0 0.0 1.0 0.0 2.0)"/></g><defs><filter id="shadowFilter-p.19" filterUnits="userSpaceOnUse"><feGaussianBlur in="SourceAlpha" stdDeviation="2.0" result="blur"/><feComponentTransfer in="blur" color-interpolation-filters="sRGB"><feFuncR type="linear" slope="0" intercept="0.0"/><feFuncG type="linear" slope="0" intercept="0.0"/><feFuncB type="linear" slope="0" intercept="0.0"/><feFuncA type="linear" slope="0.5" intercept="0"/></feComponentTransfer></filter></defs><g id="p.19"><path fill="#000000" fill-opacity="0.0" d="m683.3832 315.34787l-37.007874 0" fill-rule="evenodd"/><path stroke="#6aa84f" stroke-width="4.0" stroke-linejoin="round" stroke-linecap="butt" d="m683.3832 315.34787l-37.007874 0" fill-rule="evenodd"/></g><g filter="url(#shadowFilter-p.20)"><use xlink:href="#p.20" transform="matrix(1.0 0.0 0.0 1.0 0.0 2.0)"/></g><defs><filter id="shadowFilter-p.20" filterUnits="userSpaceOnUse"><feGaussianBlur in="SourceAlpha" stdDeviation="2.0" result="blur"/><feComponentTransfer in="blur" color-interpolation-filters="sRGB"><feFuncR type="linear" slope="0" intercept="0.0"/><feFuncG type="linear" slope="0" intercept="0.0"/><feFuncB type="linear" slope="0" intercept="0.0"/><feFuncA type="linear" slope="0.5" intercept="0"/></feComponentTransfer></filter></defs><g id="p.20"><path fill="#000000" fill-opacity="0.0" d="m683.3832 289.00555l-37.007874 0" fill-rule="evenodd"/><path stroke="#6aa84f" stroke-width="4.0" stroke-linejoin="round" stroke-linecap="butt" d="m683.3832 289.00555l-37.007874 0" fill-rule="evenodd"/></g><g filter="url(#shadowFilter-p.21)"><use xlink:href="#p.21" transform="matrix(1.0 0.0 0.0 1.0 0.0 2.0)"/></g><defs><filter id="shadowFilter-p.21" filterUnits="userSpaceOnUse"><feGaussianBlur in="SourceAlpha" stdDeviation="2.0" result="blur"/><feComponentTransfer in="blur" color-interpolation-filters="sRGB"><feFuncR type="linear" slope="0" intercept="0.0"/><feFuncG type="linear" slope="0" intercept="0.0"/><feFuncB type="linear" slope="0" intercept="0.0"/><feFuncA type="linear" slope="0.5" intercept="0"/></feComponentTransfer></filter></defs><g id="p.21"><path fill="#000000" fill-opacity="0.0" d="m682.453 258.2767l-35.149597 0" fill-rule="evenodd"/><path stroke="#ff00ff" stroke-width="4.0" stroke-linejoin="round" stroke-linecap="butt" d="m682.453 258.2767l-35.149597 0" fill-rule="evenodd"/></g><g filter="url(#shadowFilter-p.22)"><use xlink:href="#p.22" transform="matrix(1.0 0.0 0.0 1.0 0.0 2.0)"/></g><defs><filter id="shadowFilter-p.22" filterUnits="userSpaceOnUse"><feGaussianBlur in="SourceAlpha" stdDeviation="2.0" result="blur"/><feComponentTransfer in="blur" color-interpolation-filters="sRGB"><feFuncR type="linear" slope="0" intercept="0.0"/><feFuncG type="linear" slope="0" intercept="0.0"/><feFuncB type="linear" slope="0" intercept="0.0"/><feFuncA type="linear" slope="0.5" intercept="0"/></feComponentTransfer></filter></defs><g id="p.22"><path fill="#000000" fill-opacity="0.0" d="m682.4528 166.48811l-39.811035 0" fill-rule="evenodd"/><path stroke="#ff00ff" stroke-width="4.0" stroke-linejoin="round" stroke-linecap="butt" d="m682.4528 166.48811l-39.811035 0" fill-rule="evenodd"/></g><g filter="url(#shadowFilter-p.23)"><use xlink:href="#p.23" transform="matrix(1.0 0.0 0.0 1.0 0.0 2.0)"/></g><defs><filter id="shadowFilter-p.23" filterUnits="userSpaceOnUse"><feGaussianBlur in="SourceAlpha" stdDeviation="2.0" result="blur"/><feComponentTransfer in="blur" color-interpolation-filters="sRGB"><feFuncR type="linear" slope="0" intercept="0.0"/><feFuncG type="linear" slope="0" intercept="0.0"/><feFuncB type="linear" slope="0" intercept="0.0"/><feFuncA type="linear" slope="0.5" intercept="0"/></feComponentTransfer></filter></defs><g id="p.23"><path fill="#000000" fill-opacity="0.0" d="m682.92126 140.14578l-39.811035 0" fill-rule="evenodd"/><path stroke="#ff00ff" stroke-width="4.0" stroke-linejoin="round" stroke-linecap="butt" d="m682.92126 140.14578l-39.811035 0" fill-rule="evenodd"/></g><g filter="url(#shadowFilter-p.24)"><use xlink:href="#p.24" transform="matrix(1.0 0.0 0.0 1.0 0.0 2.0)"/></g><defs><filter id="shadowFilter-p.24" filterUnits="userSpaceOnUse"><feGaussianBlur in="SourceAlpha" stdDeviation="2.0" result="blur"/><feComponentTransfer in="blur" color-interpolation-filters="sRGB"><feFuncR type="linear" slope="0" intercept="0.0"/><feFuncG type="linear" slope="0" intercept="0.0"/><feFuncB type="linear" slope="0" intercept="0.0"/><feFuncA type="linear" slope="0.5" intercept="0"/></feComponentTransfer></filter></defs><g id="p.24"><path fill="#000000" fill-opacity="0.0" d="m682.92126 112.866516l-39.811035 0" fill-rule="evenodd"/><path stroke="#ff00ff" stroke-width="4.0" stroke-linejoin="round" stroke-linecap="butt" d="m682.92126 112.866516l-39.811035 0" fill-rule="evenodd"/></g><g filter="url(#shadowFilter-p.25)"><use xlink:href="#p.25" transform="matrix(1.0 0.0 0.0 1.0 0.0 2.0)"/></g><defs><filter id="shadowFilter-p.25" filterUnits="userSpaceOnUse"><feGaussianBlur in="SourceAlpha" stdDeviation="2.0" result="blur"/><feComponentTransfer in="blur" color-interpolation-filters="sRGB"><feFuncR type="linear" slope="0" intercept="0.0"/><feFuncG type="linear" slope="0" intercept="0.0"/><feFuncB type="linear" slope="0" intercept="0.0"/><feFuncA type="linear" slope="0.5" intercept="0"/></feComponentTransfer></filter></defs><g id="p.25"><path fill="#000000" fill-opacity="0.0" d="m681.51587 82.27192l-39.811035 0" fill-rule="evenodd"/><path stroke="#ff00ff" stroke-width="4.0" stroke-linejoin="round" stroke-linecap="butt" d="m681.51587 82.27192l-39.811035 0" fill-rule="evenodd"/></g><g filter="url(#shadowFilter-p.26)"><use xlink:href="#p.26" transform="matrix(1.0 0.0 0.0 1.0 0.0 2.0)"/></g><defs><filter id="shadowFilter-p.26" filterUnits="userSpaceOnUse"><feGaussianBlur in="SourceAlpha" stdDeviation="2.0" result="blur"/><feComponentTransfer in="blur" color-interpolation-filters="sRGB"><feFuncR type="linear" slope="0" intercept="0.0"/><feFuncG type="linear" slope="0" intercept="0.0"/><feFuncB type="linear" slope="0" intercept="0.0"/><feFuncA type="linear" slope="0.5" intercept="0"/></feComponentTransfer></filter></defs><g id="p.26"><path fill="#000000" fill-opacity="0.0" d="m681.9895 54.2138l-40.75592 0" fill-rule="evenodd"/><path stroke="#ff00ff" stroke-width="4.0" stroke-linejoin="round" stroke-linecap="butt" d="m681.9895 54.2138l-40.75592 0" fill-rule="evenodd"/></g><g filter="url(#shadowFilter-p.27)"><use xlink:href="#p.27" transform="matrix(1.0 0.0 0.0 1.0 0.0 2.0)"/></g><defs><filter id="shadowFilter-p.27" filterUnits="userSpaceOnUse"><feGaussianBlur in="SourceAlpha" stdDeviation="2.0" result="blur"/><feComponentTransfer in="blur" color-interpolation-filters="sRGB"><feFuncR type="linear" slope="0" intercept="0.0"/><feFuncG type="linear" slope="0" intercept="0.0"/><feFuncB type="linear" slope="0" intercept="0.0"/><feFuncA type="linear" slope="0.5" intercept="0"/></feComponentTransfer></filter></defs><g id="p.27"><path fill="#000000" fill-opacity="0.0" d="m870.66956 25.931759c-20.049744 0 -42.71881 0.8866482 -58.758972 13.773132c-11.555908 9.283829 -20.58789 25.346096 -34.887085 27.535275c-33.54309 5.135414 -61.59369 -37.373226 -95.4776 -37.373226" fill-rule="evenodd"/><path stroke="#ff0000" stroke-width="8.0" stroke-linejoin="round" stroke-linecap="butt" d="m870.66956 25.931759c-20.049744 0 -42.71881 0.8866482 -58.758972 13.773132c-11.555908 9.283829 -20.58789 25.346096 -34.887085 27.535275c-33.54309 5.135414 -61.59369 -37.373226 -95.4776 -37.373226" fill-rule="evenodd"/></g><g filter="url(#shadowFilter-p.28)"><use xlink:href="#p.28" transform="matrix(1.0 0.0 0.0 1.0 0.0 2.0)"/></g><defs><filter id="shadowFilter-p.28" filterUnits="userSpaceOnUse"><feGaussianBlur in="SourceAlpha" stdDeviation="2.0" result="blur"/><feComponentTransfer in="blur" color-interpolation-filters="sRGB"><feFuncR type="linear" slope="0" intercept="0.0"/><feFuncG type="linear" slope="0" intercept="0.0"/><feFuncB type="linear" slope="0" intercept="0.0"/><feFuncA type="linear" slope="0.5" intercept="0"/></feComponentTransfer></filter></defs><g id="p.28"><path fill="#000000" fill-opacity="0.0" d="m681.9895 30.213797l-40.75592 0" fill-rule="evenodd"/><path stroke="#ff00ff" stroke-width="4.0" stroke-linejoin="round" stroke-linecap="butt" d="m681.9895 30.213797l-40.75592 0" fill-rule="evenodd"/></g><g filter="url(#shadowFilter-p.29)"><use xlink:href="#p.29" transform="matrix(1.0 0.0 0.0 1.0 0.0 2.0)"/></g><defs><filter id="shadowFilter-p.29" filterUnits="userSpaceOnUse"><feGaussianBlur in="SourceAlpha" stdDeviation="2.0" result="blur"/><feComponentTransfer in="blur" color-interpolation-filters="sRGB"><feFuncR type="linear" slope="0" intercept="0.0"/><feFuncG type="linear" slope="0" intercept="0.0"/><feFuncB type="linear" slope="0" intercept="0.0"/><feFuncA type="linear" slope="0.5" intercept="0"/></feComponentTransfer></filter></defs><g id="p.29"><path fill="#000000" fill-opacity="0.0" d="m193.87401 166.57472l-40.755905 0" fill-rule="evenodd"/><path stroke="#ff00ff" stroke-width="4.0" stroke-linejoin="round" stroke-linecap="butt" d="m193.87401 166.57472l-40.755905 0" fill-rule="evenodd"/></g><g filter="url(#shadowFilter-p.30)"><use xlink:href="#p.30" transform="matrix(1.0 0.0 0.0 1.0 0.0 2.0)"/></g><defs><filter id="shadowFilter-p.30" filterUnits="userSpaceOnUse"><feGaussianBlur in="SourceAlpha" stdDeviation="2.0" result="blur"/><feComponentTransfer in="blur" color-interpolation-filters="sRGB"><feFuncR type="linear" slope="0" intercept="0.0"/><feFuncG type="linear" slope="0" intercept="0.0"/><feFuncB type="linear" slope="0" intercept="0.0"/><feFuncA type="linear" slope="0.5" intercept="0"/></feComponentTransfer></filter></defs><g id="p.30"><path fill="#000000" fill-opacity="0.0" d="m367.20633 162.31432c-18.49472 0 -39.40564 0.7634735 -54.201843 11.859756c-10.659637 7.99411 -18.99115 21.824997 -32.181305 23.710052c-30.94162 4.421997 -56.816696 -32.18132 -88.07269 -32.18132" fill-rule="evenodd"/><path stroke="#ff0000" stroke-width="8.0" stroke-linejoin="round" stroke-linecap="butt" d="m367.20633 162.31432c-18.49472 0 -39.40564 0.7634735 -54.201843 11.859756c-10.659637 7.99411 -18.99115 21.824997 -32.181305 23.710052c-30.94162 4.421997 -56.816696 -32.18132 -88.07269 -32.18132" fill-rule="evenodd"/></g><path fill="#000000" fill-opacity="0.0" d="m151.88452 132.47769l-77.62993 0l0 327.50656l114.74803 -0.32284546" fill-rule="evenodd"/><path stroke="#999999" stroke-width="1.0" stroke-linejoin="round" stroke-linecap="butt" stroke-dasharray="4.0,3.0" d="m148.09451 132.47769l-73.83992 0l0 327.50656l114.74803 -0.32284546" fill-rule="evenodd"/><path fill="#999999" stroke="#999999" stroke-width="1.0" stroke-linecap="butt" d="m151.38452 132.47769c0 0.9085083 -0.736496 1.6450043 -1.6450043 1.6450043c-0.9085083 0 -1.6450043 -0.736496 -1.6450043 -1.6450043c0 -0.9085083 0.736496 -1.6450043 1.6450043 -1.6450043c0.9085083 0 1.6450043 0.736496 1.6450043 1.6450043z" fill-rule="nonzero"/><path fill="#000000" fill-opacity="0.0" d="m151.88452 162.31496l-77.62993 0l0 297.69556l114.74803 -0.34909058" fill-rule="evenodd"/><path stroke="#999999" stroke-width="1.0" stroke-linejoin="round" stroke-linecap="butt" stroke-dasharray="4.0,3.0" d="m148.09451 162.31496l-73.83992 0l0 297.69556l114.74803 -0.34909058" fill-rule="evenodd"/><path fill="#999999" stroke="#999999" stroke-width="1.0" stroke-linecap="butt" d="m151.38452 162.31496c0 0.9085083 -0.736496 1.6450043 -1.6450043 1.6450043c-0.9085083 0 -1.6450043 -0.736496 -1.6450043 -1.6450043c0 -0.9085083 0.736496 -1.644989 1.6450043 -1.644989c0.9085083 0 1.6450043 0.7364807 1.6450043 1.644989z" fill-rule="nonzero"/><path fill="#000000" fill-opacity="0.0" d="m151.58829 224.86353l-49.892746 0l0 185.73627l87.31273 0" fill-rule="evenodd"/><path stroke="#999999" stroke-width="1.0" stroke-linejoin="round" stroke-linecap="butt" stroke-dasharray="4.0,3.0" d="m147.7983 224.86351l-46.102753 0l0 185.73628l87.31273 0" fill-rule="evenodd"/><path fill="#999999" stroke="#999999" stroke-width="1.0" stroke-linecap="butt" d="m151.08829 224.86351c0 0.9085083 -0.736496 1.6450043 -1.6450043 1.6450043c-0.9085083 0 -1.6450043 -0.736496 -1.6450043 -1.6450043c0 -0.9085083 0.736496 -1.644989 1.6450043 -1.644989c0.9085083 0 1.6450043 0.7364807 1.6450043 1.644989z" fill-rule="nonzero"/><path fill="#000000" fill-opacity="0.0" d="m151.58829 171.29396l-49.892746 0l0 239.31349l87.31273 0" fill-rule="evenodd"/><path stroke="#999999" stroke-width="1.0" stroke-linejoin="round" stroke-linecap="butt" stroke-dasharray="4.0,3.0" d="m147.7983 171.29396l-46.102753 0l0 239.31349l87.31273 0" fill-rule="evenodd"/><path fill="#999999" stroke="#999999" stroke-width="1.0" stroke-linecap="butt" d="m151.08829 171.29396c0 0.9085083 -0.736496 1.6450043 -1.6450043 1.6450043c-0.9085083 0 -1.6450043 -0.736496 -1.6450043 -1.6450043c0 -0.9085083 0.736496 -1.6450043 1.6450043 -1.6450043c0.9085083 0 1.6450043 0.736496 1.6450043 1.6450043z" fill-rule="nonzero"/><path fill="#000000" fill-opacity="0.0" d="m187.42519 437.87665l662.01575 0l0 42.141724l-662.01575 0z" fill-rule="evenodd"/><path fill="#000000" d="m197.26894 466.07663l3.0 -14.3125l1.90625 0l-1.25 5.9375l7.421875 0l1.25 -5.9375l1.90625 0l-2.984375 14.3125l-1.921875 0l1.40625 -6.75l-7.40625 0l-1.421875 6.75l-1.90625 0zm13.599609 4.0l0.109375 -1.65625q0.546875 0.15625 1.0625 0.15625q0.53125 0 0.875 -0.25q0.421875 -0.3125 0.9375 -1.203125l0.5625 -1.015625l-1.734375 -10.40625l1.75 0l0.78125 5.25q0.234375 1.546875 0.390625 3.109375l4.640625 -8.359375l1.84375 0l-6.609375 11.75q-0.953125 1.71875 -1.703125 2.265625q-0.734375 0.5625 -1.703125 0.5625q-0.609375 0 -1.203125 -0.203125zm9.796875 -0.03125l3.0 -14.34375l1.625 0l-0.296875 1.453125q0.90625 -0.953125 1.625 -1.3125q0.71875 -0.375 1.515625 -0.375q1.484375 0 2.453125 1.078125q0.984375 1.078125 0.984375 3.09375q0 1.625 -0.546875 2.953125q-0.53125 1.328125 -1.3125 2.140625q-0.78125 0.8125 -1.578125 1.203125q-0.796875 0.375 -1.640625 0.375q-1.859375 0 -2.890625 -1.890625l-1.171875 5.625l-1.765625 0zm3.5 -8.203125q0 1.15625 0.15625 1.609375q0.25 0.625 0.796875 1.015625q0.5625 0.390625 1.296875 0.390625q1.53125 0 2.46875 -1.703125q0.9375 -1.71875 0.9375 -3.5q0 -1.328125 -0.640625 -2.046875q-0.625 -0.71875 -1.5625 -0.71875q-0.671875 0 -1.25 0.359375q-0.578125 0.359375 -1.078125 1.078125q-0.484375 0.703125 -0.8125 1.734375q-0.3125 1.015625 -0.3125 1.78125zm8.810547 0.296875q0 -3.03125 1.78125 -5.03125q1.46875 -1.640625 3.859375 -1.640625q1.875 0 3.015625 1.171875q1.15625 1.171875 1.15625 3.171875q0 1.78125 -0.71875 3.328125q-0.71875 1.53125 -2.0625 2.359375q-1.328125 0.8125 -2.796875 0.8125q-1.21875 0 -2.21875 -0.515625q-0.984375 -0.515625 -1.5 -1.46875q-0.515625 -0.953125 -0.515625 -2.1875zm1.765625 -0.171875q0 1.46875 0.703125 2.21875q0.703125 0.75 1.78125 0.75q0.5625 0 1.125 -0.21875q0.5625 -0.234375 1.03125 -0.703125q0.484375 -0.46875 0.8125 -1.0625q0.34375 -0.609375 0.546875 -1.296875q0.296875 -0.96875 0.296875 -1.859375q0 -1.40625 -0.703125 -2.171875q-0.703125 -0.78125 -1.78125 -0.78125q-0.828125 0 -1.515625 0.390625q-0.6875 0.390625 -1.234375 1.15625q-0.546875 0.765625 -0.8125 1.78125q-0.25 1.0 -0.25 1.796875zm13.169922 2.671875l-0.296875 1.453125q-0.625 0.15625 -1.234375 0.15625q-1.046875 0 -1.671875 -0.515625q-0.46875 -0.390625 -0.46875 -1.0625q0 -0.34375 0.25 -1.578125l1.265625 -6.015625l-1.40625 0l0.296875 -1.375l1.390625 0l0.53125 -2.546875l2.03125 -1.21875l-0.796875 3.765625l1.734375 0l-0.28125 1.375l-1.734375 0l-1.203125 5.734375q-0.21875 1.09375 -0.21875 1.296875q0 0.3125 0.171875 0.484375q0.1875 0.171875 0.59375 0.171875q0.59375 0 1.046875 -0.125zm1.4316406 1.4375l2.984375 -14.3125l1.765625 0l-1.140625 5.5q0.984375 -0.96875 1.828125 -1.375q0.859375 -0.421875 1.7500153 -0.421875q1.296875 0 2.0 0.6875q0.71875 0.671875 0.71875 1.78125q0 0.546875 -0.3125 2.015625l-1.28125 6.125l-1.7656403 0l1.3125153 -6.28125q0.28125 -1.359375 0.28125 -1.71875q0 -0.5 -0.359375 -0.828125q-0.34375 -0.328125 -1.0 -0.328125q-0.95314026 0 -1.8281403 0.515625q-0.875 0.5 -1.375 1.375q-0.484375 0.875 -0.890625 2.8125l-0.921875 4.453125l-1.765625 0zm18.732437 -3.53125l1.71875 0.1875q-0.375 1.265625 -1.703125 2.421875q-1.328125 1.15625 -3.171875 1.15625q-1.15625 0 -2.125 -0.53125q-0.953125 -0.53125 -1.46875 -1.546875q-0.5 -1.015625 -0.5 -2.3125q0 -1.703125 0.78125 -3.296875q0.796875 -1.59375 2.046875 -2.375q1.25 -0.78125 2.703125 -0.78125q1.859375 0 2.96875 1.15625q1.109375 1.15625 1.109375 3.140625q0 0.765625 -0.140625 1.5625l-7.640625 0q-0.03125 0.3125 -0.03125 0.546875q0 1.453125 0.65625 2.21875q0.671875 0.765625 1.640625 0.765625q0.90625 0 1.78125 -0.59375q0.890625 -0.59375 1.375 -1.71875zm-5.140625 -2.5625l5.828125 0q0 -0.28125 0 -0.390625q0 -1.328125 -0.671875 -2.03125q-0.65625 -0.71875 -1.6875 -0.71875q-1.140625 0 -2.078125 0.78125q-0.921875 0.78125 -1.390625 2.359375zm12.779297 4.65625l-0.296875 1.453125q-0.625 0.15625 -1.234375 0.15625q-1.046875 0 -1.671875 -0.515625q-0.46875 -0.390625 -0.46875 -1.0625q0 -0.34375 0.25 -1.578125l1.265625 -6.015625l-1.40625 0l0.296875 -1.375l1.390625 0l0.53125 -2.546875l2.03125 -1.21875l-0.796875 3.765625l1.734375 0l-0.28125 1.375l-1.734375 0l-1.203125 5.734375q-0.21875 1.09375 -0.21875 1.296875q0 0.3125 0.171875 0.484375q0.1875 0.171875 0.59375 0.171875q0.59375 0 1.046875 -0.125zm3.9316406 -10.875l0.421875 -2.0l1.765625 0l-0.421875 2.0l-1.765625 0zm-2.578125 12.3125l2.171875 -10.375l1.765625 0l-2.171875 10.375l-1.765625 0zm11.677734 -3.78125l1.765625 0.1875q-0.671875 1.9375 -1.90625 2.890625q-1.21875 0.9375 -2.78125 0.9375q-1.6875 0 -2.734375 -1.09375q-1.046875 -1.09375 -1.046875 -3.0625q0 -1.6875 0.671875 -3.328125q0.671875 -1.640625 1.921875 -2.5q1.265625 -0.859375 2.875 -0.859375q1.671875 0 2.640625 0.953125q0.984375 0.9375 0.984375 2.484375l-1.734375 0.125q-0.015625 -0.984375 -0.578125 -1.546875q-0.5625 -0.5625 -1.484375 -0.5625q-1.0625 0 -1.84375 0.6875q-0.78125 0.671875 -1.234375 2.046875q-0.4375 1.359375 -0.4375 2.625q0 1.328125 0.578125 2.0q0.59375 0.65625 1.453125 0.65625q0.859375 0 1.640625 -0.640625q0.796875 -0.65625 1.25 -2.0zm9.828125 2.484375q-0.921875 0.796875 -1.765625 1.171875q-0.84375 0.359375 -1.8125 0.359375q-1.4375 0 -2.328125 -0.84375q-0.875 -0.84375 -0.875 -2.171875q0 -0.859375 0.390625 -1.53125q0.40625 -0.671875 1.0625 -1.078125q0.65625 -0.40625 1.59375 -0.578125q0.59375 -0.109375 2.265625 -0.171875q1.671875 -0.078125 2.390625 -0.359375q0.203125 -0.734375 0.203125 -1.203125q0 -0.625 -0.453125 -0.96875q-0.609375 -0.484375 -1.796875 -0.484375q-1.109375 0 -1.828125 0.5q-0.703125 0.484375 -1.015625 1.390625l-1.796875 -0.15625q0.546875 -1.546875 1.734375 -2.359375q1.1875 -0.828125 3.0 -0.828125q1.921875 0 3.046875 0.921875q0.859375 0.6875 0.859375 1.78125q0 0.828125 -0.25 1.921875l-0.578125 2.578125q-0.265625 1.234375 -0.265625 2.0q0 0.484375 0.21875 1.40625l-1.796875 0q-0.140625 -0.515625 -0.203125 -1.296875zm0.65625 -3.953125q-0.375 0.140625 -0.796875 0.21875q-0.421875 0.078125 -1.421875 0.171875q-1.546875 0.125 -2.1875 0.34375q-0.625 0.203125 -0.953125 0.671875q-0.3125 0.453125 -0.3125 1.015625q0 0.734375 0.5 1.21875q0.515625 0.46875 1.46875 0.46875q0.875 0 1.6875 -0.453125q0.8125 -0.46875 1.28125 -1.296875q0.46875 -0.828125 0.734375 -2.359375zm3.3417969 5.25l2.984375 -14.3125l1.765625 0l-2.984375 14.3125l-1.765625 0zm10.640625 0q0.28125 -1.28125 0.75 -2.140625q0.484375 -0.875 1.28125 -1.640625q0.8125 -0.78125 3.09375 -2.609375q1.390625 -1.09375 1.890625 -1.625q0.734375 -0.765625 1.078125 -1.5q0.21875 -0.5 0.21875 -1.078125q0 -0.984375 -0.703125 -1.671875q-0.6875 -0.6875 -1.703125 -0.6875q-1.015625 0 -1.765625 0.703125q-0.75 0.6875 -1.078125 2.234375l-1.71875 -0.265625q0.25 -1.890625 1.46875 -2.984375q1.234375 -1.109375 3.0625 -1.109375q1.21875 0 2.203125 0.515625q1.0 0.5 1.484375 1.421875q0.5 0.90625 0.5 1.890625q0 1.421875 -1.015625 2.75q-0.625 0.8125 -3.671875 3.21875q-1.296875 1.046875 -1.9375 1.71875q-0.640625 0.65625 -0.96875 1.234375l6.40625 0l-0.34375 1.625l-8.53125 0zm12.841797 -8.375l0.421875 -2.0l1.984375 0l-0.40625 2.0l-2.0 0zm-1.75 8.375l0.421875 -2.0l2.0 0l-0.421875 2.0l-2.0 0zm10.832031 0l3.0 -14.3125l5.96875 0q1.5625 0 2.328125 0.359375q0.78125 0.34375 1.28125 1.21875q0.515625 0.859375 0.515625 1.9375q0 0.890625 -0.359375 1.8125q-0.359375 0.90625 -0.921875 1.5q-0.546875 0.59375 -1.109375 0.90625q-0.5625 0.296875 -1.203125 0.4375q-1.390625 0.328125 -2.796875 0.328125l-3.578125 0l-1.203125 5.8125l-1.921875 0zm3.46875 -7.4375l3.15625 0q1.828125 0 2.6875 -0.390625q0.859375 -0.390625 1.375 -1.203125q0.53125 -0.8125 0.53125 -1.71875q0 -0.703125 -0.28125 -1.140625q-0.265625 -0.453125 -0.765625 -0.65625q-0.5 -0.21875 -1.921875 -0.21875l-3.671875 0l-1.109375 5.328125zm12.183594 -4.875l0.421875 -2.0l1.765625 0l-0.421875 2.0l-1.765625 0zm-2.578125 12.3125l2.171875 -10.375l1.765625 0l-2.171875 10.375l-1.765625 0zm4.5214844 0l2.15625 -10.375l1.609375 0l-0.390625 1.8125q1.046875 -1.0625 1.953125 -1.546875q0.921875 -0.5 1.859375 -0.5q1.265625 0 1.984375 0.6875q0.71875 0.6875 0.71875 1.828125q0 0.578125 -0.265625 1.8125l-1.3125 6.28125l-1.765625 0l1.375 -6.578125q0.203125 -0.953125 0.203125 -1.40625q0 -0.515625 -0.359375 -0.84375q-0.34375 -0.328125 -1.03125 -0.328125q-1.34375 0 -2.40625 0.984375q-1.0625 0.96875 -1.5625 3.34375l-1.0 4.828125l-1.765625 0zm11.138672 0l3.0 -14.3125l1.75 0l-1.859375 8.875l5.15625 -4.9375l2.34375 0l-4.421875 3.875l2.671875 6.5l-1.9375 0l-2.0625 -5.328125l-2.15625 1.859375l-0.71875 3.46875l-1.765625 0zm18.83789 -14.3125l1.90625 0l-1.828125 8.796875q-0.234375 1.09375 -0.234375 1.625q0 1.140625 0.90625 1.84375q0.921875 0.703125 2.296875 0.703125q1.09375 0 2.03125 -0.5q0.9375 -0.5 1.484375 -1.46875q0.546875 -0.984375 1.0 -3.125l1.640625 -7.875l1.921875 0l-1.75 8.390625q-0.453125 2.15625 -1.1875 3.40625q-0.734375 1.25 -2.03125 2.015625q-1.296875 0.75 -3.015625 0.75q-1.625 0 -2.8125 -0.53125q-1.1875 -0.546875 -1.78125 -1.484375q-0.578125 -0.953125 -0.578125 -2.15625q0 -0.75 0.390625 -2.578125l1.640625 -7.8125zm11.349609 14.3125l3.0 -14.3125l2.34375 0l1.453125 9.265625q0.28125 1.828125 0.359375 3.515625q0.609375 -1.453125 2.0 -3.921875l5.015625 -8.859375l2.390625 0l-2.984375 14.3125l-1.890625 0l1.5 -6.96875q0.515625 -2.40625 1.484375 -5.40625q-0.609375 1.390625 -1.515625 3.015625l-5.34375 9.359375l-1.84375 0l-1.4375 -9.1875q-0.1875 -1.25 -0.28125 -2.9375q-0.234375 1.890625 -0.46875 3.0l-1.90625 9.125l-1.875 0zm16.925781 0l3.0 -14.3125l1.90625 0l-2.984375 14.3125l-1.921875 0zm17.800781 -3.78125l1.765625 0.1875q-0.671875 1.9375 -1.90625 2.890625q-1.21875 0.9375 -2.78125 0.9375q-1.6875 0 -2.734375 -1.09375q-1.046875 -1.09375 -1.046875 -3.0625q0 -1.6875 0.671875 -3.328125q0.671875 -1.640625 1.921875 -2.5q1.265625 -0.859375 2.875 -0.859375q1.671875 0 2.640625 0.953125q0.984375 0.9375 0.984375 2.484375l-1.734375 0.125q-0.015625 -0.984375 -0.578125 -1.546875q-0.5625 -0.5625 -1.484375 -0.5625q-1.0625 0 -1.84375 0.6875q-0.78125 0.671875 -1.234375 2.046875q-0.4375 1.359375 -0.4375 2.625q0 1.328125 0.578125 2.0q0.59375 0.65625 1.453125 0.65625q0.859375 0 1.640625 -0.640625q0.796875 -0.65625 1.25 -2.0zm9.828125 2.484375q-0.921875 0.796875 -1.765625 1.171875q-0.84375 0.359375 -1.8125 0.359375q-1.4375 0 -2.328125 -0.84375q-0.875 -0.84375 -0.875 -2.171875q0 -0.859375 0.390625 -1.53125q0.40625 -0.671875 1.0625 -1.078125q0.65625 -0.40625 1.59375 -0.578125q0.59375 -0.109375 2.265625 -0.171875q1.671875 -0.078125 2.390625 -0.359375q0.203125 -0.734375 0.203125 -1.203125q0 -0.625 -0.453125 -0.96875q-0.609375 -0.484375 -1.796875 -0.484375q-1.109375 0 -1.828125 0.5q-0.703125 0.484375 -1.015625 1.390625l-1.796875 -0.15625q0.546875 -1.546875 1.734375 -2.359375q1.1875 -0.828125 3.0 -0.828125q1.921875 0 3.046875 0.921875q0.859375 0.6875 0.859375 1.78125q0 0.828125 -0.25 1.921875l-0.578125 2.578125q-0.265625 1.234375 -0.265625 2.0q0 0.484375 0.21875 1.40625l-1.796875 0q-0.140625 -0.515625 -0.203125 -1.296875zm0.65625 -3.953125q-0.375 0.140625 -0.796875 0.21875q-0.421875 0.078125 -1.421875 0.171875q-1.546875 0.125 -2.1875 0.34375q-0.625 0.203125 -0.953125 0.671875q-0.3125 0.453125 -0.3125 1.015625q0 0.734375 0.5 1.21875q0.515625 0.46875 1.46875 0.46875q0.875 0 1.6875 -0.453125q0.8125 -0.46875 1.28125 -1.296875q0.46875 -0.828125 0.734375 -2.359375zm2.6074219 9.21875l3.0 -14.34375l1.625 0l-0.296875 1.453125q0.90625 -0.953125 1.625 -1.3125q0.71875 -0.375 1.515625 -0.375q1.484375 0 2.453125 1.078125q0.984375 1.078125 0.984375 3.09375q0 1.625 -0.546875 2.953125q-0.53125 1.328125 -1.3125 2.140625q-0.78125 0.8125 -1.578125 1.203125q-0.796875 0.375 -1.640625 0.375q-1.859375 0 -2.890625 -1.890625l-1.171875 5.625l-1.765625 0zm3.5 -8.203125q0 1.15625 0.15625 1.609375q0.25 0.625 0.796875 1.015625q0.5625 0.390625 1.296875 0.390625q1.53125 0 2.46875 -1.703125q0.9375 -1.71875 0.9375 -3.5q0 -1.328125 -0.640625 -2.046875q-0.625 -0.71875 -1.5625 -0.71875q-0.671875 0 -1.25 0.359375q-0.578125 0.359375 -1.078125 1.078125q-0.484375 0.703125 -0.8125 1.734375q-0.3125 1.015625 -0.3125 1.78125zm12.623047 2.796875l-0.296875 1.453125q-0.625 0.15625 -1.234375 0.15625q-1.046875 0 -1.671875 -0.515625q-0.46875 -0.390625 -0.46875 -1.0625q0 -0.34375 0.25 -1.578125l1.265625 -6.015625l-1.40625 0l0.296875 -1.375l1.390625 0l0.53125 -2.546875l2.03125 -1.21875l-0.796875 3.765625l1.734375 0l-0.28125 1.375l-1.734375 0l-1.203125 5.734375q-0.21875 1.09375 -0.21875 1.296875q0 0.3125 0.171875 0.484375q0.1875 0.171875 0.59375 0.171875q0.59375 0 1.046875 -0.125zm8.509766 -0.4375q-1.875 2.109375 -3.828125 2.109375q-1.203125 0 -1.9375 -0.6875q-0.734375 -0.6875 -0.734375 -1.6875q0 -0.65625 0.328125 -2.25l1.25 -5.984375l1.765625 0l-1.375 6.640625q-0.1875 0.828125 -0.1875 1.28125q0 0.59375 0.359375 0.921875q0.359375 0.3125 1.046875 0.3125q0.75 0 1.453125 -0.359375q0.71875 -0.359375 1.21875 -0.96875q0.515625 -0.625 0.84375 -1.453125q0.21875 -0.546875 0.5 -1.890625l0.9375 -4.484375l1.765625 0l-2.171875 10.375l-1.625 0l0.390625 -1.875zm4.044922 1.875l2.15625 -10.375l1.5625 0l-0.4375 2.125q0.796875 -1.203125 1.5625 -1.78125q0.78125 -0.578125 1.578125 -0.578125q0.53125 0 1.296875 0.390625l-0.71875 1.640625q-0.46875 -0.34375 -1.015625 -0.34375q-0.921875 0 -1.90625 1.046875q-0.96875 1.03125 -1.53125 3.71875l-0.875 4.15625l-1.671875 0zm14.269531 -3.53125l1.71875 0.1875q-0.375 1.265625 -1.703125 2.421875q-1.328125 1.15625 -3.171875 1.15625q-1.15625 0 -2.125 -0.53125q-0.953125 -0.53125 -1.46875 -1.546875q-0.5 -1.015625 -0.5 -2.3125q0 -1.703125 0.78125 -3.296875q0.796875 -1.59375 2.046875 -2.375q1.25 -0.78125 2.703125 -0.78125q1.859375 0 2.96875 1.15625q1.109375 1.15625 1.109375 3.140625q0 0.765625 -0.140625 1.5625l-7.640625 0q-0.03125 0.3125 -0.03125 0.546875q0 1.453125 0.65625 2.21875q0.671875 0.765625 1.640625 0.765625q0.90625 0 1.78125 -0.59375q0.890625 -0.59375 1.375 -1.71875zm-5.140625 -2.5625l5.828125 0q0 -0.28125 0 -0.390625q0 -1.328125 -0.671875 -2.03125q-0.65625 -0.71875 -1.6875 -0.71875q-1.140625 0 -2.078125 0.78125q-0.921875 0.78125 -1.390625 2.359375zm8.810547 2.546875l1.765625 -0.109375q0 0.765625 0.234375 1.3125q0.234375 0.53125 0.859375 0.875q0.640625 0.328125 1.484375 0.328125q1.171875 0 1.75 -0.46875q0.59375 -0.46875 0.59375 -1.09375q0 -0.46875 -0.359375 -0.875q-0.359375 -0.40625 -1.765625 -1.0q-1.390625 -0.609375 -1.78125 -0.859375q-0.65625 -0.390625 -1.0 -0.9375q-0.328125 -0.546875 -0.328125 -1.25q0 -1.21875 0.96875 -2.09375q0.984375 -0.890625 2.75 -0.890625q1.953125 0 2.96875 0.90625q1.015625 0.90625 1.0625 2.375l-1.734375 0.125q-0.03125 -0.9375 -0.65625 -1.484375q-0.625 -0.546875 -1.765625 -0.546875q-0.921875 0 -1.4375 0.421875q-0.5 0.40625 -0.5 0.90625q0 0.484375 0.4375 0.859375q0.296875 0.25 1.515625 0.78125q2.03125 0.875 2.5625 1.375q0.828125 0.8125 0.828125 1.984375q0 0.765625 -0.46875 1.515625q-0.46875 0.734375 -1.453125 1.1875q-0.96875 0.4375 -2.28125 0.4375q-1.796875 0 -3.0625 -0.890625q-1.25 -0.890625 -1.1875 -2.890625zm15.900391 3.546875q0.28125 -1.28125 0.75 -2.140625q0.484375 -0.875 1.28125 -1.640625q0.8125 -0.78125 3.09375 -2.609375q1.390625 -1.09375 1.890625 -1.625q0.7343445 -0.765625 1.0780945 -1.5q0.21875 -0.5 0.21875 -1.078125q0 -0.984375 -0.703125 -1.671875q-0.6874695 -0.6875 -1.7030945 -0.6875q-1.015625 0 -1.765625 0.703125q-0.75 0.6875 -1.078125 2.234375l-1.71875 -0.265625q0.25 -1.890625 1.46875 -2.984375q1.234375 -1.109375 3.0625 -1.109375q1.21875 0 2.2030945 0.515625q1.0 0.5 1.484375 1.421875q0.5 0.90625 0.5 1.890625q0 1.421875 -1.015625 2.75q-0.625 0.8125 -3.6718445 3.21875q-1.296875 1.046875 -1.9375 1.71875q-0.640625 0.65625 -0.96875 1.234375l6.4062195 0l-0.34375 1.625l-8.5312195 0zm16.179657 0l2.15625 -10.375l1.5625 0l-0.4375 2.125q0.796875 -1.203125 1.5625 -1.78125q0.78125 -0.578125 1.578125 -0.578125q0.53125 0 1.296875 0.390625l-0.71875 1.640625q-0.46875 -0.34375 -1.015625 -0.34375q-0.921875 0 -1.90625 1.046875q-0.96875 1.03125 -1.53125 3.71875l-0.875 4.15625l-1.671875 0zm14.269531 -3.53125l1.71875 0.1875q-0.375 1.265625 -1.703125 2.421875q-1.328125 1.15625 -3.171875 1.15625q-1.15625 0 -2.125 -0.53125q-0.953125 -0.53125 -1.46875 -1.546875q-0.5 -1.015625 -0.5 -2.3125q0 -1.703125 0.78125 -3.296875q0.796875 -1.59375 2.046875 -2.375q1.25 -0.78125 2.703125 -0.78125q1.859375 0 2.96875 1.15625q1.109375 1.15625 1.109375 3.140625q0 0.765625 -0.140625 1.5625l-7.640625 0q-0.03125 0.3125 -0.03125 0.546875q0 1.453125 0.65625 2.21875q0.671875 0.765625 1.640625 0.765625q0.90625 0 1.78125 -0.59375q0.890625 -0.59375 1.375 -1.71875zm-5.140625 -2.5625l5.828125 0q0 -0.28125 0 -0.390625q0 -1.328125 -0.671875 -2.03125q-0.65625 -0.71875 -1.6875 -0.71875q-1.140625 0 -2.078125 0.78125q-0.921875 0.78125 -1.390625 2.359375zm15.638672 4.796875q-0.921875 0.796875 -1.765625 1.171875q-0.84375 0.359375 -1.8125 0.359375q-1.4375 0 -2.328125 -0.84375q-0.875 -0.84375 -0.875 -2.171875q0 -0.859375 0.390625 -1.53125q0.40625 -0.671875 1.0625 -1.078125q0.65625 -0.40625 1.59375 -0.578125q0.59375 -0.109375 2.265625 -0.171875q1.671875 -0.078125 2.390625 -0.359375q0.203125 -0.734375 0.203125 -1.203125q0 -0.625 -0.453125 -0.96875q-0.609375 -0.484375 -1.796875 -0.484375q-1.109375 0 -1.828125 0.5q-0.703125 0.484375 -1.015625 1.390625l-1.796875 -0.15625q0.546875 -1.546875 1.734375 -2.359375q1.1875 -0.828125 3.0 -0.828125q1.921875 0 3.046875 0.921875q0.859375 0.6875 0.859375 1.78125q0 0.828125 -0.25 1.921875l-0.578125 2.578125q-0.265625 1.234375 -0.265625 2.0q0 0.484375 0.21875 1.40625l-1.796875 0q-0.140625 -0.515625 -0.203125 -1.296875zm0.65625 -3.953125q-0.375 0.140625 -0.796875 0.21875q-0.421875 0.078125 -1.421875 0.171875q-1.546875 0.125 -2.1875 0.34375q-0.625 0.203125 -0.953125 0.671875q-0.3125 0.453125 -0.3125 1.015625q0 0.734375 0.5 1.21875q0.515625 0.46875 1.46875 0.46875q0.875 0 1.6875 -0.453125q0.8125 -0.46875 1.28125 -1.296875q0.46875 -0.828125 0.734375 -2.359375zm10.466797 3.75q-1.515625 1.734375 -3.15625 1.734375q-1.484375 0 -2.46875 -1.078125q-0.96875 -1.09375 -0.96875 -3.171875q0 -1.890625 0.765625 -3.453125q0.78125 -1.578125 1.9375 -2.359375q1.171875 -0.78125 2.34375 -0.78125q1.9375 0 2.921875 1.875l1.171875 -5.578125l1.765625 0l-3.0 14.3125l-1.625 0l0.3125 -1.5zm-4.84375 -2.84375q0 1.078125 0.21875 1.703125q0.21875 0.625 0.734375 1.046875q0.515625 0.40625 1.234375 0.40625q1.203125 0 2.171875 -1.25q1.3125 -1.65625 1.3125 -4.09375q0 -1.234375 -0.640625 -1.921875q-0.640625 -0.703125 -1.625 -0.703125q-0.625 0 -1.15625 0.296875q-0.515625 0.28125 -1.03125 0.953125q-0.515625 0.671875 -0.875 1.71875q-0.34375 1.046875 -0.34375 1.84375zm9.138672 0.796875l1.765625 -0.109375q0 0.765625 0.234375 1.3125q0.234375 0.53125 0.859375 0.875q0.640625 0.328125 1.484375 0.328125q1.171875 0 1.75 -0.46875q0.59375 -0.46875 0.59375 -1.09375q0 -0.46875 -0.359375 -0.875q-0.359375 -0.40625 -1.765625 -1.0q-1.390625 -0.609375 -1.78125 -0.859375q-0.65625 -0.390625 -1.0 -0.9375q-0.328125 -0.546875 -0.328125 -1.25q0 -1.21875 0.96875 -2.09375q0.984375 -0.890625 2.75 -0.890625q1.953125 0 2.96875 0.90625q1.015625 0.90625 1.0625 2.375l-1.734375 0.125q-0.03125 -0.9375 -0.65625 -1.484375q-0.625 -0.546875 -1.765625 -0.546875q-0.921875 0 -1.4375 0.421875q-0.5 0.40625 -0.5 0.90625q0 0.484375 0.4375 0.859375q0.296875 0.25 1.515625 0.78125q2.03125 0.875 2.5625 1.375q0.828125 0.8125 0.828125 1.984375q0 0.765625 -0.46875 1.515625q-0.46875 0.734375 -1.453125 1.1875q-0.96875 0.4375 -2.28125 0.4375q-1.796875 0 -3.0625 -0.890625q-1.25 -0.890625 -1.1875 -2.890625zm15.712891 -0.390625q0 -3.03125 1.78125 -5.03125q1.46875 -1.640625 3.859375 -1.640625q1.875 0 3.015625 1.171875q1.15625 1.171875 1.15625 3.171875q0 1.78125 -0.71875 3.328125q-0.71875 1.53125 -2.0625 2.359375q-1.328125 0.8125 -2.796875 0.8125q-1.21875 0 -2.21875 -0.515625q-0.984375 -0.515625 -1.5 -1.46875q-0.515625 -0.953125 -0.515625 -2.1875zm1.765625 -0.171875q0 1.46875 0.703125 2.21875q0.703125 0.75 1.78125 0.75q0.5625 0 1.125 -0.21875q0.5625 -0.234375 1.03125 -0.703125q0.484375 -0.46875 0.8125 -1.0625q0.34375 -0.609375 0.546875 -1.296875q0.296875 -0.96875 0.296875 -1.859375q0 -1.40625 -0.703125 -2.171875q-0.703125 -0.78125 -1.78125 -0.78125q-0.828125 0 -1.515625 0.390625q-0.6875 0.390625 -1.234375 1.15625q-0.546875 0.765625 -0.8125 1.78125q-0.25 1.0 -0.25 1.796875zm9.279297 4.109375l1.890625 -9.0l-1.578125 0l0.28125 -1.375l1.578125 0l0.296875 -1.46875q0.234375 -1.109375 0.484375 -1.59375q0.25 -0.484375 0.8125 -0.796875q0.5625 -0.328125 1.53125 -0.328125q0.671875 0 1.953125 0.28125l-0.328125 1.546875q-0.890625 -0.234375 -1.5 -0.234375q-0.515625 0 -0.78125 0.265625q-0.265625 0.25 -0.46875 1.21875l-0.234375 1.109375l1.96875 0l-0.28125 1.375l-1.96875 0l-1.890625 9.0l-1.765625 0zm15.003906 -1.4375l-0.296875 1.453125q-0.625 0.15625 -1.234375 0.15625q-1.046875 0 -1.671875 -0.515625q-0.46875 -0.390625 -0.46875 -1.0625q0 -0.34375 0.25 -1.578125l1.265625 -6.015625l-1.40625 0l0.296875 -1.375l1.390625 0l0.53125 -2.546875l2.03125 -1.21875l-0.796875 3.765625l1.734375 0l-0.28125 1.375l-1.734375 0l-1.203125 5.734375q-0.21875 1.09375 -0.21875 1.296875q0 0.3125 0.171875 0.484375q0.1875 0.171875 0.59375 0.171875q0.59375 0 1.046875 -0.125zm1.4316406 1.4375l2.984375 -14.3125l1.765625 0l-1.140625 5.5q0.984375 -0.96875 1.828125 -1.375q0.859375 -0.421875 1.75 -0.421875q1.296875 0 2.0 0.6875q0.71875 0.671875 0.71875 1.78125q0 0.546875 -0.3125 2.015625l-1.28125 6.125l-1.765625 0l1.3125 -6.28125q0.28125 -1.359375 0.28125 -1.71875q0 -0.5 -0.359375 -0.828125q-0.34375 -0.328125 -1.0 -0.328125q-0.953125 0 -1.828125 0.515625q-0.875 0.5 -1.375 1.375q-0.484375 0.875 -0.890625 2.8125l-0.921875 4.453125l-1.765625 0zm18.732422 -3.53125l1.71875 0.1875q-0.375 1.265625 -1.703125 2.421875q-1.328125 1.15625 -3.171875 1.15625q-1.15625 0 -2.125 -0.53125q-0.953125 -0.53125 -1.46875 -1.546875q-0.5 -1.015625 -0.5 -2.3125q0 -1.703125 0.78125 -3.296875q0.796875 -1.59375 2.046875 -2.375q1.25 -0.78125 2.703125 -0.78125q1.859375 0 2.96875 1.15625q1.109375 1.15625 1.109375 3.140625q0 0.765625 -0.140625 1.5625l-7.640625 0q-0.03125 0.3125 -0.03125 0.546875q0 1.453125 0.65625 2.21875q0.671875 0.765625 1.640625 0.765625q0.90625 0 1.78125 -0.59375q0.890625 -0.59375 1.375 -1.71875zm-5.140625 -2.5625l5.828125 0q0 -0.28125 0 -0.390625q0 -1.328125 -0.671875 -2.03125q-0.65625 -0.71875 -1.6875 -0.71875q-1.140625 0 -2.078125 0.78125q-0.921875 0.78125 -1.390625 2.359375z" fill-rule="nonzero"/><path fill="#000000" d="m631.5209 463.17038l2.71875 -0.421875q0.359375 0.859375 0.890625 1.21875q0.546875 0.34375 1.46875 0.34375q0.953125 0 1.53125 -0.421875q0.40625 -0.296875 0.40625 -0.71875q0 -0.28125 -0.203125 -0.5q-0.21875 -0.21875 -1.171875 -0.53125q-2.53125 -0.84375 -3.140625 -1.328125q-0.9375 -0.765625 -0.9375 -1.984375q0 -1.234375 0.90625 -2.125q1.28125 -1.234375 3.796875 -1.234375q2.015625 0 3.03125 0.734375q1.03125 0.71875 1.296875 1.96875l-2.578125 0.453125q-0.203125 -0.5625 -0.671875 -0.84375q-0.625 -0.390625 -1.5 -0.390625q-0.875 0 -1.265625 0.296875q-0.390625 0.296875 -0.390625 0.671875q0 0.390625 0.390625 0.640625q0.25 0.15625 1.578125 0.546875q2.046875 0.609375 2.75 1.171875q0.96875 0.8125 0.96875 1.953125q0 1.484375 -1.25 2.578125q-1.234375 1.078125 -3.484375 1.078125q-2.25 0 -3.484375 -0.828125q-1.21875 -0.828125 -1.65625 -2.328125zm15.435547 -4.53125l-2.734375 -0.234375q0.46875 -1.375 1.640625 -2.15625q1.171875 -0.78125 3.09375 -0.78125q2.0 0 2.953125 0.8125q0.96875 0.796875 0.96875 1.953125q0 0.46875 -0.09375 1.0q-0.078125 0.53125 -0.578125 2.765625q-0.40625 1.859375 -0.40625 2.609375q0 0.65625 0.234375 1.46875l-2.734375 0q-0.15625 -0.5625 -0.203125 -1.171875q-0.609375 0.6875 -1.421875 1.0625q-0.796875 0.359375 -1.59375 0.359375q-1.296875 0 -2.140625 -0.84375q-0.828125 -0.859375 -0.828125 -2.1875q0 -1.484375 0.921875 -2.359375q0.921875 -0.890625 3.296875 -1.078125q2.0 -0.171875 2.671875 -0.40625q0.171875 -0.578125 0.171875 -0.9375q0 -0.453125 -0.359375 -0.75q-0.359375 -0.296875 -1.078125 -0.296875q-0.75 0 -1.1875 0.3125q-0.4375 0.296875 -0.59375 0.859375zm2.671875 2.609375q-0.25 0.0625 -0.671875 0.125q-2.109375 0.25 -2.75 0.734375q-0.46875 0.359375 -0.46875 0.953125q0 0.484375 0.34375 0.828125q0.359375 0.328125 0.9375 0.328125q0.640625 0 1.203125 -0.296875q0.5625 -0.3125 0.828125 -0.796875q0.28125 -0.484375 0.5 -1.515625l0.078125 -0.359375zm6.576172 -5.546875l2.640625 0l-0.265625 1.265625q1.546875 -1.5 3.25 -1.5q1.171875 0 1.796875 0.484375q0.640625 0.484375 0.8125 1.34375q0.546875 -0.78125 1.546875 -1.296875q1.0 -0.53125 2.09375 -0.53125q1.234375 0 1.921875 0.671875q0.703125 0.65625 0.703125 1.75q0 0.53125 -0.28125 1.84375l-1.328125 6.34375l-2.796875 0l1.328125 -6.34375q0.25 -1.1875 0.25 -1.34375q0 -0.421875 -0.265625 -0.671875q-0.25 -0.25 -0.78125 -0.25q-1.03125 0 -1.859375 1.09375q-0.59375 0.796875 -1.015625 2.8125l-0.984375 4.703125l-2.796875 0l1.296875 -6.265625q0.234375 -1.09375 0.234375 -1.40625q0 -0.421875 -0.28125 -0.671875q-0.28125 -0.265625 -0.765625 -0.265625q-0.46875 0 -0.953125 0.28125q-0.484375 0.265625 -0.859375 0.75q-0.359375 0.46875 -0.625 1.21875q-0.109375 0.359375 -0.375 1.59375l-1.0 4.765625l-2.796875 0l2.15625 -10.375zm25.814453 6.0625l-7.03125 0q-0.015625 0.15625 -0.015625 0.25q0 1.03125 0.59375 1.671875q0.59375 0.625 1.4375 0.625q1.390625 0 2.171875 -1.4375l2.515625 0.421875q-0.734375 1.515625 -1.96875 2.28125q-1.21875 0.75 -2.734375 0.75q-2.09375 0 -3.40625 -1.328125q-1.3125 -1.328125 -1.3125 -3.5q0 -2.125 1.1875 -3.796875q1.609375 -2.234375 4.59375 -2.234375q1.90625 0 3.03125 1.171875q1.125 1.171875 1.125 3.296875q0 1.015625 -0.1875 1.828125zm-2.375 -1.71875q0.015625 -0.1875 0.015625 -0.28125q0 -1.15625 -0.515625 -1.71875q-0.515625 -0.578125 -1.390625 -0.578125q-0.875 0 -1.5625 0.65625q-0.6875 0.640625 -0.921875 1.921875l4.375 0z" fill-rule="nonzero"/><path fill="#000000" d="m692.58923 464.63913l-0.296875 1.453125q-0.625 0.15625 -1.234375 0.15625q-1.046875 0 -1.671875 -0.515625q-0.46875 -0.390625 -0.46875 -1.0625q0 -0.34375 0.25 -1.578125l1.265625 -6.015625l-1.40625 0l0.296875 -1.375l1.390625 0l0.53125 -2.546875l2.03125 -1.21875l-0.796875 3.765625l1.734375 0l-0.28125 1.375l-1.734375 0l-1.203125 5.734375q-0.21875 1.09375 -0.21875 1.296875q0 0.3125 0.171875 0.484375q0.1875 0.171875 0.59375 0.171875q0.59375 0 1.046875 -0.125zm1.4316406 1.4375l2.15625 -10.375l1.5625 0l-0.4375 2.125q0.796875 -1.203125 1.5625 -1.78125q0.78125 -0.578125 1.578125 -0.578125q0.53125 0 1.296875 0.390625l-0.71875 1.640625q-0.46875 -0.34375 -1.015625 -0.34375q-0.921875 0 -1.90625 1.046875q-0.96875 1.03125 -1.53125 3.71875l-0.875 4.15625l-1.671875 0zm13.644531 -1.296875q-0.921875 0.796875 -1.765625 1.171875q-0.84375 0.359375 -1.8125 0.359375q-1.4375 0 -2.328125 -0.84375q-0.875 -0.84375 -0.875 -2.171875q0 -0.859375 0.390625 -1.53125q0.40625 -0.671875 1.0625 -1.078125q0.65625 -0.40625 1.59375 -0.578125q0.59375 -0.109375 2.265625 -0.171875q1.671875 -0.078125 2.390625 -0.359375q0.203125 -0.734375 0.203125 -1.203125q0 -0.625 -0.453125 -0.96875q-0.609375 -0.484375 -1.796875 -0.484375q-1.109375 0 -1.828125 0.5q-0.703125 0.484375 -1.015625 1.390625l-1.796875 -0.15625q0.546875 -1.546875 1.734375 -2.359375q1.1875 -0.828125 3.0 -0.828125q1.921875 0 3.046875 0.921875q0.859375 0.6875 0.859375 1.78125q0 0.828125 -0.25 1.921875l-0.578125 2.578125q-0.265625 1.234375 -0.265625 2.0q0 0.484375 0.21875 1.40625l-1.796875 0q-0.140625 -0.515625 -0.203125 -1.296875zm0.65625 -3.953125q-0.375 0.140625 -0.796875 0.21875q-0.421875 0.078125 -1.421875 0.171875q-1.546875 0.125 -2.1875 0.34375q-0.625 0.203125 -0.953125 0.671875q-0.3125 0.453125 -0.3125 1.015625q0 0.734375 0.5 1.21875q0.515625 0.46875 1.46875 0.46875q0.875 0 1.6875 -0.453125q0.8125 -0.46875 1.28125 -1.296875q0.46875 -0.828125 0.734375 -2.359375zm3.4824219 5.25l2.15625 -10.375l1.609375 0l-0.390625 1.8125q1.046875 -1.0625 1.953125 -1.546875q0.921875 -0.5 1.859375 -0.5q1.265625 0 1.984375 0.6875q0.71875 0.6875 0.71875 1.828125q0 0.578125 -0.265625 1.8125l-1.3125 6.28125l-1.765625 0l1.375 -6.578125q0.203125 -0.953125 0.203125 -1.40625q0 -0.515625 -0.359375 -0.84375q-0.34375 -0.328125 -1.03125 -0.328125q-1.34375 0 -2.40625 0.984375q-1.0625 0.96875 -1.5625 3.34375l-1.0 4.828125l-1.765625 0zm11.279297 -3.546875l1.765625 -0.109375q0 0.765625 0.234375 1.3125q0.234375 0.53125 0.859375 0.875q0.640625 0.328125 1.484375 0.328125q1.171875 0 1.75 -0.46875q0.59375 -0.46875 0.59375 -1.09375q0 -0.46875 -0.359375 -0.875q-0.359375 -0.40625 -1.765625 -1.0q-1.390625 -0.609375 -1.78125 -0.859375q-0.65625 -0.390625 -1.0 -0.9375q-0.328125 -0.546875 -0.328125 -1.25q0 -1.21875 0.96875 -2.09375q0.984375 -0.890625 2.75 -0.890625q1.953125 0 2.96875 0.90625q1.015625 0.90625 1.0625 2.375l-1.734375 0.125q-0.03125 -0.9375 -0.65625 -1.484375q-0.625 -0.546875 -1.765625 -0.546875q-0.921875 0 -1.4375 0.421875q-0.5 0.40625 -0.5 0.90625q0 0.484375 0.4375 0.859375q0.296875 0.25 1.515625 0.78125q2.03125 0.875 2.5625 1.375q0.828125 0.8125 0.828125 1.984375q0 0.765625 -0.46875 1.515625q-0.46875 0.734375 -1.453125 1.1875q-0.96875 0.4375 -2.28125 0.4375q-1.796875 0 -3.0625 -0.890625q-1.25 -0.890625 -1.1875 -2.890625zm17.0 -0.234375l1.765625 0.1875q-0.671875 1.9375 -1.90625 2.890625q-1.21875 0.9375 -2.78125 0.9375q-1.6875 0 -2.734375 -1.09375q-1.046875 -1.09375 -1.046875 -3.0625q0 -1.6875 0.671875 -3.328125q0.671875 -1.640625 1.921875 -2.5q1.265625 -0.859375 2.875 -0.859375q1.671875 0 2.640625 0.953125q0.984375 0.9375 0.984375 2.484375l-1.734375 0.125q-0.015625 -0.984375 -0.578125 -1.546875q-0.5625 -0.5625 -1.484375 -0.5625q-1.0625 0 -1.84375 0.6875q-0.78125 0.671875 -1.234375 2.046875q-0.4375 1.359375 -0.4375 2.625q0 1.328125 0.578125 2.0q0.59375 0.65625 1.453125 0.65625q0.859375 0 1.640625 -0.640625q0.796875 -0.65625 1.25 -2.0zm2.84375 3.78125l2.15625 -10.375l1.5625 0l-0.4375 2.125q0.796875 -1.203125 1.5625 -1.78125q0.78125 -0.578125 1.578125 -0.578125q0.53125 0 1.296875 0.390625l-0.71875 1.640625q-0.46875 -0.34375 -1.015625 -0.34375q-0.921875 0 -1.90625 1.046875q-0.96875 1.03125 -1.53125 3.71875l-0.875 4.15625l-1.671875 0zm9.160156 -12.3125l0.421875 -2.0l1.765625 0l-0.421875 2.0l-1.765625 0zm-2.578125 12.3125l2.171875 -10.375l1.765625 0l-2.171875 10.375l-1.765625 0zm3.6464844 3.96875l3.0 -14.34375l1.625 0l-0.296875 1.453125q0.90625 -0.953125 1.625 -1.3125q0.71875 -0.375 1.515625 -0.375q1.484375 0 2.453125 1.078125q0.984375 1.078125 0.984375 3.09375q0 1.625 -0.546875 2.953125q-0.53125 1.328125 -1.3125 2.140625q-0.78125 0.8125 -1.578125 1.203125q-0.796875 0.375 -1.640625 0.375q-1.859375 0 -2.890625 -1.890625l-1.171875 5.625l-1.765625 0zm3.5 -8.203125q0 1.15625 0.15625 1.609375q0.25 0.625 0.796875 1.015625q0.5625 0.390625 1.296875 0.390625q1.53125 0 2.46875 -1.703125q0.9375 -1.71875 0.9375 -3.5q0 -1.328125 -0.640625 -2.046875q-0.625 -0.71875 -1.5625 -0.71875q-0.671875 0 -1.25 0.359375q-0.578125 0.359375 -1.078125 1.078125q-0.484375 0.703125 -0.8125 1.734375q-0.3125 1.015625 -0.3125 1.78125zm12.623047 2.796875l-0.296875 1.453125q-0.625 0.15625 -1.234375 0.15625q-1.046875 0 -1.671875 -0.515625q-0.46875 -0.390625 -0.46875 -1.0625q0 -0.34375 0.25 -1.578125l1.265625 -6.015625l-1.40625 0l0.296875 -1.375l1.390625 0l0.53125 -2.546875l2.03125 -1.21875l-0.796875 3.765625l1.734375 0l-0.28125 1.375l-1.734375 0l-1.203125 5.734375q-0.21875 1.09375 -0.21875 1.296875q0 0.3125 0.171875 0.484375q0.1875 0.171875 0.59375 0.171875q0.59375 0 1.046875 -0.125z" fill-rule="nonzero"/><path fill="#000000" fill-opacity="0.0" d="m187.42519 389.87665l683.24414 0l0 42.141724l-683.24414 0z" fill-rule="evenodd"/><path fill="#000000" d="m197.26894 418.07663l3.0 -14.3125l1.90625 0l-1.25 5.9375l7.421875 0l1.25 -5.9375l1.90625 0l-2.984375 14.3125l-1.921875 0l1.40625 -6.75l-7.40625 0l-1.421875 6.75l-1.90625 0zm13.599609 4.0l0.109375 -1.65625q0.546875 0.15625 1.0625 0.15625q0.53125 0 0.875 -0.25q0.421875 -0.3125 0.9375 -1.203125l0.5625 -1.015625l-1.734375 -10.40625l1.75 0l0.78125 5.25q0.234375 1.546875 0.390625 3.109375l4.640625 -8.359375l1.84375 0l-6.609375 11.75q-0.953125 1.71875 -1.703125 2.265625q-0.734375 0.5625 -1.703125 0.5625q-0.609375 0 -1.203125 -0.203125zm9.796875 -0.03125l3.0 -14.34375l1.625 0l-0.296875 1.453125q0.90625 -0.953125 1.625 -1.3125q0.71875 -0.375 1.515625 -0.375q1.484375 0 2.453125 1.078125q0.984375 1.078125 0.984375 3.09375q0 1.625 -0.546875 2.953125q-0.53125 1.328125 -1.3125 2.140625q-0.78125 0.8125 -1.578125 1.203125q-0.796875 0.375 -1.640625 0.375q-1.859375 0 -2.890625 -1.890625l-1.171875 5.625l-1.765625 0zm3.5 -8.203125q0 1.15625 0.15625 1.609375q0.25 0.625 0.796875 1.015625q0.5625 0.390625 1.296875 0.390625q1.53125 0 2.46875 -1.703125q0.9375 -1.71875 0.9375 -3.5q0 -1.328125 -0.640625 -2.046875q-0.625 -0.71875 -1.5625 -0.71875q-0.671875 0 -1.25 0.359375q-0.578125 0.359375 -1.078125 1.078125q-0.484375 0.703125 -0.8125 1.734375q-0.3125 1.015625 -0.3125 1.78125zm8.810547 0.296875q0 -3.03125 1.78125 -5.03125q1.46875 -1.640625 3.859375 -1.640625q1.875 0 3.015625 1.171875q1.15625 1.171875 1.15625 3.171875q0 1.78125 -0.71875 3.328125q-0.71875 1.53125 -2.0625 2.359375q-1.328125 0.8125 -2.796875 0.8125q-1.21875 0 -2.21875 -0.515625q-0.984375 -0.515625 -1.5 -1.46875q-0.515625 -0.953125 -0.515625 -2.1875zm1.765625 -0.171875q0 1.46875 0.703125 2.21875q0.703125 0.75 1.78125 0.75q0.5625 0 1.125 -0.21875q0.5625 -0.234375 1.03125 -0.703125q0.484375 -0.46875 0.8125 -1.0625q0.34375 -0.609375 0.546875 -1.296875q0.296875 -0.96875 0.296875 -1.859375q0 -1.40625 -0.703125 -2.171875q-0.703125 -0.78125 -1.78125 -0.78125q-0.828125 0 -1.515625 0.390625q-0.6875 0.390625 -1.234375 1.15625q-0.546875 0.765625 -0.8125 1.78125q-0.25 1.0 -0.25 1.796875zm13.169922 2.671875l-0.296875 1.453125q-0.625 0.15625 -1.234375 0.15625q-1.046875 0 -1.671875 -0.515625q-0.46875 -0.390625 -0.46875 -1.0625q0 -0.34375 0.25 -1.578125l1.265625 -6.015625l-1.40625 0l0.296875 -1.375l1.390625 0l0.53125 -2.546875l2.03125 -1.21875l-0.796875 3.765625l1.734375 0l-0.28125 1.375l-1.734375 0l-1.203125 5.734375q-0.21875 1.09375 -0.21875 1.296875q0 0.3125 0.171875 0.484375q0.1875 0.171875 0.59375 0.171875q0.59375 0 1.046875 -0.125zm1.4316406 1.4375l2.984375 -14.3125l1.765625 0l-1.140625 5.5q0.984375 -0.96875 1.828125 -1.375q0.859375 -0.421875 1.7500153 -0.421875q1.296875 0 2.0 0.6875q0.71875 0.671875 0.71875 1.78125q0 0.546875 -0.3125 2.015625l-1.28125 6.125l-1.7656403 0l1.3125153 -6.28125q0.28125 -1.359375 0.28125 -1.71875q0 -0.5 -0.359375 -0.828125q-0.34375 -0.328125 -1.0 -0.328125q-0.95314026 0 -1.8281403 0.515625q-0.875 0.5 -1.375 1.375q-0.484375 0.875 -0.890625 2.8125l-0.921875 4.453125l-1.765625 0zm18.732437 -3.53125l1.71875 0.1875q-0.375 1.265625 -1.703125 2.421875q-1.328125 1.15625 -3.171875 1.15625q-1.15625 0 -2.125 -0.53125q-0.953125 -0.53125 -1.46875 -1.546875q-0.5 -1.015625 -0.5 -2.3125q0 -1.703125 0.78125 -3.296875q0.796875 -1.59375 2.046875 -2.375q1.25 -0.78125 2.703125 -0.78125q1.859375 0 2.96875 1.15625q1.109375 1.15625 1.109375 3.140625q0 0.765625 -0.140625 1.5625l-7.640625 0q-0.03125 0.3125 -0.03125 0.546875q0 1.453125 0.65625 2.21875q0.671875 0.765625 1.640625 0.765625q0.90625 0 1.78125 -0.59375q0.890625 -0.59375 1.375 -1.71875zm-5.140625 -2.5625l5.828125 0q0 -0.28125 0 -0.390625q0 -1.328125 -0.671875 -2.03125q-0.65625 -0.71875 -1.6875 -0.71875q-1.140625 0 -2.078125 0.78125q-0.921875 0.78125 -1.390625 2.359375zm12.779297 4.65625l-0.296875 1.453125q-0.625 0.15625 -1.234375 0.15625q-1.046875 0 -1.671875 -0.515625q-0.46875 -0.390625 -0.46875 -1.0625q0 -0.34375 0.25 -1.578125l1.265625 -6.015625l-1.40625 0l0.296875 -1.375l1.390625 0l0.53125 -2.546875l2.03125 -1.21875l-0.796875 3.765625l1.734375 0l-0.28125 1.375l-1.734375 0l-1.203125 5.734375q-0.21875 1.09375 -0.21875 1.296875q0 0.3125 0.171875 0.484375q0.1875 0.171875 0.59375 0.171875q0.59375 0 1.046875 -0.125zm3.9316406 -10.875l0.421875 -2.0l1.765625 0l-0.421875 2.0l-1.765625 0zm-2.578125 12.3125l2.171875 -10.375l1.765625 0l-2.171875 10.375l-1.765625 0zm11.677734 -3.78125l1.765625 0.1875q-0.671875 1.9375 -1.90625 2.890625q-1.21875 0.9375 -2.78125 0.9375q-1.6875 0 -2.734375 -1.09375q-1.046875 -1.09375 -1.046875 -3.0625q0 -1.6875 0.671875 -3.328125q0.671875 -1.640625 1.921875 -2.5q1.265625 -0.859375 2.875 -0.859375q1.671875 0 2.640625 0.953125q0.984375 0.9375 0.984375 2.484375l-1.734375 0.125q-0.015625 -0.984375 -0.578125 -1.546875q-0.5625 -0.5625 -1.484375 -0.5625q-1.0625 0 -1.84375 0.6875q-0.78125 0.671875 -1.234375 2.046875q-0.4375 1.359375 -0.4375 2.625q0 1.328125 0.578125 2.0q0.59375 0.65625 1.453125 0.65625q0.859375 0 1.640625 -0.640625q0.796875 -0.65625 1.25 -2.0zm9.828125 2.484375q-0.921875 0.796875 -1.765625 1.171875q-0.84375 0.359375 -1.8125 0.359375q-1.4375 0 -2.328125 -0.84375q-0.875 -0.84375 -0.875 -2.171875q0 -0.859375 0.390625 -1.53125q0.40625 -0.671875 1.0625 -1.078125q0.65625 -0.40625 1.59375 -0.578125q0.59375 -0.109375 2.265625 -0.171875q1.671875 -0.078125 2.390625 -0.359375q0.203125 -0.734375 0.203125 -1.203125q0 -0.625 -0.453125 -0.96875q-0.609375 -0.484375 -1.796875 -0.484375q-1.109375 0 -1.828125 0.5q-0.703125 0.484375 -1.015625 1.390625l-1.796875 -0.15625q0.546875 -1.546875 1.734375 -2.359375q1.1875 -0.828125 3.0 -0.828125q1.921875 0 3.046875 0.921875q0.859375 0.6875 0.859375 1.78125q0 0.828125 -0.25 1.921875l-0.578125 2.578125q-0.265625 1.234375 -0.265625 2.0q0 0.484375 0.21875 1.40625l-1.796875 0q-0.140625 -0.515625 -0.203125 -1.296875zm0.65625 -3.953125q-0.375 0.140625 -0.796875 0.21875q-0.421875 0.078125 -1.421875 0.171875q-1.546875 0.125 -2.1875 0.34375q-0.625 0.203125 -0.953125 0.671875q-0.3125 0.453125 -0.3125 1.015625q0 0.734375 0.5 1.21875q0.515625 0.46875 1.46875 0.46875q0.875 0 1.6875 -0.453125q0.8125 -0.46875 1.28125 -1.296875q0.46875 -0.828125 0.734375 -2.359375zm3.3417969 5.25l2.984375 -14.3125l1.765625 0l-2.984375 14.3125l-1.765625 0zm14.28125 0l2.265625 -10.8125q-1.46875 1.15625 -4.125 1.84375l0.34375 -1.59375q1.3125 -0.53125 2.59375 -1.375q1.28125 -0.859375 1.9375 -1.484375q0.390625 -0.390625 0.734375 -0.953125l1.03125 0l-3.0 14.375l-1.78125 0zm9.201172 -8.375l0.421875 -2.0l1.984375 0l-0.40625 2.0l-2.0 0zm-1.75 8.375l0.421875 -2.0l2.0 0l-0.421875 2.0l-2.0 0zm10.832031 0l3.0 -14.3125l5.96875 0q1.5625 0 2.328125 0.359375q0.78125 0.34375 1.28125 1.21875q0.515625 0.859375 0.515625 1.9375q0 0.890625 -0.359375 1.8125q-0.359375 0.90625 -0.921875 1.5q-0.546875 0.59375 -1.109375 0.90625q-0.5625 0.296875 -1.203125 0.4375q-1.390625 0.328125 -2.796875 0.328125l-3.578125 0l-1.203125 5.8125l-1.921875 0zm3.46875 -7.4375l3.15625 0q1.828125 0 2.6875 -0.390625q0.859375 -0.390625 1.375 -1.203125q0.53125 -0.8125 0.53125 -1.71875q0 -0.703125 -0.28125 -1.140625q-0.265625 -0.453125 -0.765625 -0.65625q-0.5 -0.21875 -1.921875 -0.21875l-3.671875 0l-1.109375 5.328125zm12.183594 -4.875l0.421875 -2.0l1.765625 0l-0.421875 2.0l-1.765625 0zm-2.578125 12.3125l2.171875 -10.375l1.765625 0l-2.171875 10.375l-1.765625 0zm4.5214844 0l2.15625 -10.375l1.609375 0l-0.390625 1.8125q1.046875 -1.0625 1.953125 -1.546875q0.921875 -0.5 1.859375 -0.5q1.265625 0 1.984375 0.6875q0.71875 0.6875 0.71875 1.828125q0 0.578125 -0.265625 1.8125l-1.3125 6.28125l-1.765625 0l1.375 -6.578125q0.203125 -0.953125 0.203125 -1.40625q0 -0.515625 -0.359375 -0.84375q-0.34375 -0.328125 -1.03125 -0.328125q-1.34375 0 -2.40625 0.984375q-1.0625 0.96875 -1.5625 3.34375l-1.0 4.828125l-1.765625 0zm11.138672 0l3.0 -14.3125l1.75 0l-1.859375 8.875l5.15625 -4.9375l2.34375 0l-4.421875 3.875l2.671875 6.5l-1.9375 0l-2.0625 -5.328125l-2.15625 1.859375l-0.71875 3.46875l-1.765625 0zm18.83789 -14.3125l1.90625 0l-1.828125 8.796875q-0.234375 1.09375 -0.234375 1.625q0 1.140625 0.90625 1.84375q0.921875 0.703125 2.296875 0.703125q1.09375 0 2.03125 -0.5q0.9375 -0.5 1.484375 -1.46875q0.546875 -0.984375 1.0 -3.125l1.640625 -7.875l1.921875 0l-1.75 8.390625q-0.453125 2.15625 -1.1875 3.40625q-0.734375 1.25 -2.03125 2.015625q-1.296875 0.75 -3.015625 0.75q-1.625 0 -2.8125 -0.53125q-1.1875 -0.546875 -1.78125 -1.484375q-0.578125 -0.953125 -0.578125 -2.15625q0 -0.75 0.390625 -2.578125l1.640625 -7.8125zm11.349609 14.3125l3.0 -14.3125l2.34375 0l1.453125 9.265625q0.28125 1.828125 0.359375 3.515625q0.609375 -1.453125 2.0 -3.921875l5.015625 -8.859375l2.390625 0l-2.984375 14.3125l-1.890625 0l1.5 -6.96875q0.515625 -2.40625 1.484375 -5.40625q-0.609375 1.390625 -1.515625 3.015625l-5.34375 9.359375l-1.84375 0l-1.4375 -9.1875q-0.1875 -1.25 -0.28125 -2.9375q-0.234375 1.890625 -0.46875 3.0l-1.90625 9.125l-1.875 0zm16.925781 0l3.0 -14.3125l1.90625 0l-2.984375 14.3125l-1.921875 0zm17.800781 -3.78125l1.765625 0.1875q-0.671875 1.9375 -1.90625 2.890625q-1.21875 0.9375 -2.78125 0.9375q-1.6875 0 -2.734375 -1.09375q-1.046875 -1.09375 -1.046875 -3.0625q0 -1.6875 0.671875 -3.328125q0.671875 -1.640625 1.921875 -2.5q1.265625 -0.859375 2.875 -0.859375q1.671875 0 2.640625 0.953125q0.984375 0.9375 0.984375 2.484375l-1.734375 0.125q-0.015625 -0.984375 -0.578125 -1.546875q-0.5625 -0.5625 -1.484375 -0.5625q-1.0625 0 -1.84375 0.6875q-0.78125 0.671875 -1.234375 2.046875q-0.4375 1.359375 -0.4375 2.625q0 1.328125 0.578125 2.0q0.59375 0.65625 1.453125 0.65625q0.859375 0 1.640625 -0.640625q0.796875 -0.65625 1.25 -2.0zm9.828125 2.484375q-0.921875 0.796875 -1.765625 1.171875q-0.84375 0.359375 -1.8125 0.359375q-1.4375 0 -2.328125 -0.84375q-0.875 -0.84375 -0.875 -2.171875q0 -0.859375 0.390625 -1.53125q0.40625 -0.671875 1.0625 -1.078125q0.65625 -0.40625 1.59375 -0.578125q0.59375 -0.109375 2.265625 -0.171875q1.671875 -0.078125 2.390625 -0.359375q0.203125 -0.734375 0.203125 -1.203125q0 -0.625 -0.453125 -0.96875q-0.609375 -0.484375 -1.796875 -0.484375q-1.109375 0 -1.828125 0.5q-0.703125 0.484375 -1.015625 1.390625l-1.796875 -0.15625q0.546875 -1.546875 1.734375 -2.359375q1.1875 -0.828125 3.0 -0.828125q1.921875 0 3.046875 0.921875q0.859375 0.6875 0.859375 1.78125q0 0.828125 -0.25 1.921875l-0.578125 2.578125q-0.265625 1.234375 -0.265625 2.0q0 0.484375 0.21875 1.40625l-1.796875 0q-0.140625 -0.515625 -0.203125 -1.296875zm0.65625 -3.953125q-0.375 0.140625 -0.796875 0.21875q-0.421875 0.078125 -1.421875 0.171875q-1.546875 0.125 -2.1875 0.34375q-0.625 0.203125 -0.953125 0.671875q-0.3125 0.453125 -0.3125 1.015625q0 0.734375 0.5 1.21875q0.515625 0.46875 1.46875 0.46875q0.875 0 1.6875 -0.453125q0.8125 -0.46875 1.28125 -1.296875q0.46875 -0.828125 0.734375 -2.359375zm2.6074219 9.21875l3.0 -14.34375l1.625 0l-0.296875 1.453125q0.90625 -0.953125 1.625 -1.3125q0.71875 -0.375 1.515625 -0.375q1.484375 0 2.453125 1.078125q0.984375 1.078125 0.984375 3.09375q0 1.625 -0.546875 2.953125q-0.53125 1.328125 -1.3125 2.140625q-0.78125 0.8125 -1.578125 1.203125q-0.796875 0.375 -1.640625 0.375q-1.859375 0 -2.890625 -1.890625l-1.171875 5.625l-1.765625 0zm3.5 -8.203125q0 1.15625 0.15625 1.609375q0.25 0.625 0.796875 1.015625q0.5625 0.390625 1.296875 0.390625q1.53125 0 2.46875 -1.703125q0.9375 -1.71875 0.9375 -3.5q0 -1.328125 -0.640625 -2.046875q-0.625 -0.71875 -1.5625 -0.71875q-0.671875 0 -1.25 0.359375q-0.578125 0.359375 -1.078125 1.078125q-0.484375 0.703125 -0.8125 1.734375q-0.3125 1.015625 -0.3125 1.78125zm12.623047 2.796875l-0.296875 1.453125q-0.625 0.15625 -1.234375 0.15625q-1.046875 0 -1.671875 -0.515625q-0.46875 -0.390625 -0.46875 -1.0625q0 -0.34375 0.25 -1.578125l1.265625 -6.015625l-1.40625 0l0.296875 -1.375l1.390625 0l0.53125 -2.546875l2.03125 -1.21875l-0.796875 3.765625l1.734375 0l-0.28125 1.375l-1.734375 0l-1.203125 5.734375q-0.21875 1.09375 -0.21875 1.296875q0 0.3125 0.171875 0.484375q0.1875 0.171875 0.59375 0.171875q0.59375 0 1.046875 -0.125zm8.509766 -0.4375q-1.875 2.109375 -3.828125 2.109375q-1.203125 0 -1.9375 -0.6875q-0.734375 -0.6875 -0.734375 -1.6875q0 -0.65625 0.328125 -2.25l1.25 -5.984375l1.765625 0l-1.375 6.640625q-0.1875 0.828125 -0.1875 1.28125q0 0.59375 0.359375 0.921875q0.359375 0.3125 1.046875 0.3125q0.75 0 1.453125 -0.359375q0.71875 -0.359375 1.21875 -0.96875q0.515625 -0.625 0.84375 -1.453125q0.21875 -0.546875 0.5 -1.890625l0.9375 -4.484375l1.765625 0l-2.171875 10.375l-1.625 0l0.390625 -1.875zm4.044922 1.875l2.15625 -10.375l1.5625 0l-0.4375 2.125q0.796875 -1.203125 1.5625 -1.78125q0.78125 -0.578125 1.578125 -0.578125q0.53125 0 1.296875 0.390625l-0.71875 1.640625q-0.46875 -0.34375 -1.015625 -0.34375q-0.921875 0 -1.90625 1.046875q-0.96875 1.03125 -1.53125 3.71875l-0.875 4.15625l-1.671875 0zm14.269531 -3.53125l1.71875 0.1875q-0.375 1.265625 -1.703125 2.421875q-1.328125 1.15625 -3.171875 1.15625q-1.15625 0 -2.125 -0.53125q-0.953125 -0.53125 -1.46875 -1.546875q-0.5 -1.015625 -0.5 -2.3125q0 -1.703125 0.78125 -3.296875q0.796875 -1.59375 2.046875 -2.375q1.25 -0.78125 2.703125 -0.78125q1.859375 0 2.96875 1.15625q1.109375 1.15625 1.109375 3.140625q0 0.765625 -0.140625 1.5625l-7.640625 0q-0.03125 0.3125 -0.03125 0.546875q0 1.453125 0.65625 2.21875q0.671875 0.765625 1.640625 0.765625q0.90625 0 1.78125 -0.59375q0.890625 -0.59375 1.375 -1.71875zm-5.140625 -2.5625l5.828125 0q0 -0.28125 0 -0.390625q0 -1.328125 -0.671875 -2.03125q-0.65625 -0.71875 -1.6875 -0.71875q-1.140625 0 -2.078125 0.78125q-0.921875 0.78125 -1.390625 2.359375zm8.810547 2.546875l1.765625 -0.109375q0 0.765625 0.234375 1.3125q0.234375 0.53125 0.859375 0.875q0.640625 0.328125 1.484375 0.328125q1.171875 0 1.75 -0.46875q0.59375 -0.46875 0.59375 -1.09375q0 -0.46875 -0.359375 -0.875q-0.359375 -0.40625 -1.765625 -1.0q-1.390625 -0.609375 -1.78125 -0.859375q-0.65625 -0.390625 -1.0 -0.9375q-0.328125 -0.546875 -0.328125 -1.25q0 -1.21875 0.96875 -2.09375q0.984375 -0.890625 2.75 -0.890625q1.953125 0 2.96875 0.90625q1.015625 0.90625 1.0625 2.375l-1.734375 0.125q-0.03125 -0.9375 -0.65625 -1.484375q-0.625 -0.546875 -1.765625 -0.546875q-0.921875 0 -1.4375 0.421875q-0.5 0.40625 -0.5 0.90625q0 0.484375 0.4375 0.859375q0.296875 0.25 1.515625 0.78125q2.03125 0.875 2.5625 1.375q0.828125 0.8125 0.828125 1.984375q0 0.765625 -0.46875 1.515625q-0.46875 0.734375 -1.453125 1.1875q-0.96875 0.4375 -2.28125 0.4375q-1.796875 0 -3.0625 -0.890625q-1.25 -0.890625 -1.1875 -2.890625zm15.900391 3.546875q0.28125 -1.28125 0.75 -2.140625q0.484375 -0.875 1.28125 -1.640625q0.8125 -0.78125 3.09375 -2.609375q1.390625 -1.09375 1.890625 -1.625q0.7343445 -0.765625 1.0780945 -1.5q0.21875 -0.5 0.21875 -1.078125q0 -0.984375 -0.703125 -1.671875q-0.6874695 -0.6875 -1.7030945 -0.6875q-1.015625 0 -1.765625 0.703125q-0.75 0.6875 -1.078125 2.234375l-1.71875 -0.265625q0.25 -1.890625 1.46875 -2.984375q1.234375 -1.109375 3.0625 -1.109375q1.21875 0 2.2030945 0.515625q1.0 0.5 1.484375 1.421875q0.5 0.90625 0.5 1.890625q0 1.421875 -1.015625 2.75q-0.625 0.8125 -3.6718445 3.21875q-1.296875 1.046875 -1.9375 1.71875q-0.640625 0.65625 -0.96875 1.234375l6.4062195 0l-0.34375 1.625l-8.5312195 0zm16.179657 0l2.15625 -10.375l1.5625 0l-0.4375 2.125q0.796875 -1.203125 1.5625 -1.78125q0.78125 -0.578125 1.578125 -0.578125q0.53125 0 1.296875 0.390625l-0.71875 1.640625q-0.46875 -0.34375 -1.015625 -0.34375q-0.921875 0 -1.90625 1.046875q-0.96875 1.03125 -1.53125 3.71875l-0.875 4.15625l-1.671875 0zm14.269531 -3.53125l1.71875 0.1875q-0.375 1.265625 -1.703125 2.421875q-1.328125 1.15625 -3.171875 1.15625q-1.15625 0 -2.125 -0.53125q-0.953125 -0.53125 -1.46875 -1.546875q-0.5 -1.015625 -0.5 -2.3125q0 -1.703125 0.78125 -3.296875q0.796875 -1.59375 2.046875 -2.375q1.25 -0.78125 2.703125 -0.78125q1.859375 0 2.96875 1.15625q1.109375 1.15625 1.109375 3.140625q0 0.765625 -0.140625 1.5625l-7.640625 0q-0.03125 0.3125 -0.03125 0.546875q0 1.453125 0.65625 2.21875q0.671875 0.765625 1.640625 0.765625q0.90625 0 1.78125 -0.59375q0.890625 -0.59375 1.375 -1.71875zm-5.140625 -2.5625l5.828125 0q0 -0.28125 0 -0.390625q0 -1.328125 -0.671875 -2.03125q-0.65625 -0.71875 -1.6875 -0.71875q-1.140625 0 -2.078125 0.78125q-0.921875 0.78125 -1.390625 2.359375zm15.638672 4.796875q-0.921875 0.796875 -1.765625 1.171875q-0.84375 0.359375 -1.8125 0.359375q-1.4375 0 -2.328125 -0.84375q-0.875 -0.84375 -0.875 -2.171875q0 -0.859375 0.390625 -1.53125q0.40625 -0.671875 1.0625 -1.078125q0.65625 -0.40625 1.59375 -0.578125q0.59375 -0.109375 2.265625 -0.171875q1.671875 -0.078125 2.390625 -0.359375q0.203125 -0.734375 0.203125 -1.203125q0 -0.625 -0.453125 -0.96875q-0.609375 -0.484375 -1.796875 -0.484375q-1.109375 0 -1.828125 0.5q-0.703125 0.484375 -1.015625 1.390625l-1.796875 -0.15625q0.546875 -1.546875 1.734375 -2.359375q1.1875 -0.828125 3.0 -0.828125q1.921875 0 3.046875 0.921875q0.859375 0.6875 0.859375 1.78125q0 0.828125 -0.25 1.921875l-0.578125 2.578125q-0.265625 1.234375 -0.265625 2.0q0 0.484375 0.21875 1.40625l-1.796875 0q-0.140625 -0.515625 -0.203125 -1.296875zm0.65625 -3.953125q-0.375 0.140625 -0.796875 0.21875q-0.421875 0.078125 -1.421875 0.171875q-1.546875 0.125 -2.1875 0.34375q-0.625 0.203125 -0.953125 0.671875q-0.3125 0.453125 -0.3125 1.015625q0 0.734375 0.5 1.21875q0.515625 0.46875 1.46875 0.46875q0.875 0 1.6875 -0.453125q0.8125 -0.46875 1.28125 -1.296875q0.46875 -0.828125 0.734375 -2.359375zm10.466797 3.75q-1.515625 1.734375 -3.15625 1.734375q-1.484375 0 -2.46875 -1.078125q-0.96875 -1.09375 -0.96875 -3.171875q0 -1.890625 0.765625 -3.453125q0.78125 -1.578125 1.9375 -2.359375q1.171875 -0.78125 2.34375 -0.78125q1.9375 0 2.921875 1.875l1.171875 -5.578125l1.765625 0l-3.0 14.3125l-1.625 0l0.3125 -1.5zm-4.84375 -2.84375q0 1.078125 0.21875 1.703125q0.21875 0.625 0.734375 1.046875q0.515625 0.40625 1.234375 0.40625q1.203125 0 2.171875 -1.25q1.3125 -1.65625 1.3125 -4.09375q0 -1.234375 -0.640625 -1.921875q-0.640625 -0.703125 -1.625 -0.703125q-0.625 0 -1.15625 0.296875q-0.515625 0.28125 -1.03125 0.953125q-0.515625 0.671875 -0.875 1.71875q-0.34375 1.046875 -0.34375 1.84375zm9.138672 0.796875l1.765625 -0.109375q0 0.765625 0.234375 1.3125q0.234375 0.53125 0.859375 0.875q0.640625 0.328125 1.484375 0.328125q1.171875 0 1.75 -0.46875q0.59375 -0.46875 0.59375 -1.09375q0 -0.46875 -0.359375 -0.875q-0.359375 -0.40625 -1.765625 -1.0q-1.390625 -0.609375 -1.78125 -0.859375q-0.65625 -0.390625 -1.0 -0.9375q-0.328125 -0.546875 -0.328125 -1.25q0 -1.21875 0.96875 -2.09375q0.984375 -0.890625 2.75 -0.890625q1.953125 0 2.96875 0.90625q1.015625 0.90625 1.0625 2.375l-1.734375 0.125q-0.03125 -0.9375 -0.65625 -1.484375q-0.625 -0.546875 -1.765625 -0.546875q-0.921875 0 -1.4375 0.421875q-0.5 0.40625 -0.5 0.90625q0 0.484375 0.4375 0.859375q0.296875 0.25 1.515625 0.78125q2.03125 0.875 2.5625 1.375q0.828125 0.8125 0.828125 1.984375q0 0.765625 -0.46875 1.515625q-0.46875 0.734375 -1.453125 1.1875q-0.96875 0.4375 -2.28125 0.4375q-1.796875 0 -3.0625 -0.890625q-1.25 -0.890625 -1.1875 -2.890625zm15.634766 3.546875l1.890625 -9.0l-1.578125 0l0.28125 -1.375l1.578125 0l0.296875 -1.46875q0.234375 -1.109375 0.484375 -1.59375q0.25 -0.484375 0.8125 -0.796875q0.5625 -0.328125 1.53125 -0.328125q0.671875 0 1.953125 0.28125l-0.328125 1.546875q-0.890625 -0.234375 -1.5 -0.234375q-0.515625 0 -0.78125 0.265625q-0.265625 0.25 -0.46875 1.21875l-0.234375 1.109375l1.96875 0l-0.28125 1.375l-1.96875 0l-1.890625 9.0l-1.765625 0zm5.3222656 0l2.15625 -10.375l1.5625 0l-0.4375 2.125q0.796875 -1.203125 1.5625 -1.78125q0.78125 -0.578125 1.578125 -0.578125q0.53125 0 1.296875 0.390625l-0.71875 1.640625q-0.46875 -0.34375 -1.015625 -0.34375q-0.921875 0 -1.90625 1.046875q-0.96875 1.03125 -1.53125 3.71875l-0.875 4.15625l-1.671875 0zm6.9726562 -3.9375q0 -3.03125 1.78125 -5.03125q1.46875 -1.640625 3.859375 -1.640625q1.875 0 3.015625 1.171875q1.15625 1.171875 1.15625 3.171875q0 1.78125 -0.71875 3.328125q-0.71875 1.53125 -2.0625 2.359375q-1.328125 0.8125 -2.796875 0.8125q-1.21875 0 -2.21875 -0.515625q-0.984375 -0.515625 -1.5 -1.46875q-0.515625 -0.953125 -0.515625 -2.1875zm1.765625 -0.171875q0 1.46875 0.703125 2.21875q0.703125 0.75 1.78125 0.75q0.5625 0 1.125 -0.21875q0.5625 -0.234375 1.03125 -0.703125q0.484375 -0.46875 0.8125 -1.0625q0.34375 -0.609375 0.546875 -1.296875q0.296875 -0.96875 0.296875 -1.859375q0 -1.40625 -0.703125 -2.171875q-0.703125 -0.78125 -1.78125 -0.78125q-0.828125 0 -1.515625 0.390625q-0.6875 0.390625 -1.234375 1.15625q-0.546875 0.765625 -0.8125 1.78125q-0.25 1.0 -0.25 1.796875zm9.029297 4.109375l2.171875 -10.375l1.765625 0l-0.359375 1.71875q0.984375 -1.109375 1.75 -1.53125q0.78125 -0.421875 1.6875 -0.421875q0.96875 0 1.609375 0.515625q0.65625 0.515625 0.859375 1.4375q0.796875 -0.984375 1.671875 -1.46875q0.875 -0.484375 1.84375 -0.484375q1.296875 0 1.9375 0.625q0.65625 0.609375 0.65625 1.71875q0 0.484375 -0.21875 1.578125l-1.40625 6.6875l-1.765625 0l1.421875 -6.859375q0.1875 -0.84375 0.1875 -1.203125q0 -0.5 -0.328125 -0.796875q-0.3125 -0.296875 -0.890625 -0.296875q-0.796875 0 -1.625 0.484375q-0.8125 0.484375 -1.265625 1.265625q-0.453125 0.765625 -0.796875 2.375l-1.0625 5.03125l-1.765625 0l1.46875 -7.0q0.15625 -0.71875 0.15625 -1.015625q0 -0.515625 -0.328125 -0.828125q-0.3125 -0.3125 -0.8125 -0.3125q-0.75 0 -1.578125 0.484375q-0.828125 0.484375 -1.34375 1.34375q-0.515625 0.84375 -0.84375 2.421875l-1.03125 4.90625l-1.765625 0z" fill-rule="nonzero"/><path fill="#000000" d="m631.4193 418.07663l-2.65625 0l0.234375 -1.125q-0.75 0.734375 -1.5 1.0625q-0.734375 0.3125 -1.65625 0.3125q-1.609375 0 -2.609375 -1.09375q-1.0 -1.109375 -1.0 -3.265625q0 -2.484375 1.40625 -4.484375q1.40625 -2.015625 3.71875 -2.015625q2.09375 0 3.125 1.65625l1.125 -5.359375l2.8125 0l-3.0 14.3125zm-6.46875 -4.21875q0 1.109375 0.5625 1.734375q0.5625 0.625 1.375 0.625q0.765625 0 1.421875 -0.515625q0.671875 -0.53125 1.0625 -1.59375q0.390625 -1.078125 0.390625 -2.0625q0 -1.125 -0.609375 -1.8125q-0.59375 -0.703125 -1.390625 -0.703125q-1.234375 0 -2.03125 1.375q-0.78125 1.359375 -0.78125 2.953125zm12.107422 -10.09375l2.796875 0l-0.53125 2.53125l-2.796875 0l0.53125 -2.53125zm-0.828125 3.9375l2.796875 0l-2.15625 10.375l-2.8125 0l2.171875 -10.375zm10.619141 0l-0.4375 2.046875l-1.984375 0l-1.734375 8.328125l-2.796875 0l1.734375 -8.328125l-1.5625 0l0.4375 -2.046875l1.5625 0l0.21875 -1.0625q0.265625 -1.3125 0.515625 -1.765625q0.328125 -0.625 0.984375 -0.984375q0.671875 -0.375 1.734375 -0.375q1.28125 0 2.71875 0.46875l-0.546875 2.0q-1.015625 -0.34375 -1.640625 -0.34375q-0.46875 0 -0.703125 0.3125q-0.15625 0.1875 -0.328125 1.015625l-0.15625 0.734375l1.984375 0zm6.298828 0l-0.4375 2.046875l-1.984375 0l-1.734375 8.328125l-2.796875 0l1.734375 -8.328125l-1.5625 0l0.4375 -2.046875l1.5625 0l0.21875 -1.0625q0.265625 -1.3125 0.515625 -1.765625q0.328125 -0.625 0.984375 -0.984375q0.671875 -0.375 1.734375 -0.375q1.28125 0 2.71875 0.46875l-0.546875 2.0q-1.015625 -0.34375 -1.640625 -0.34375q-0.46875 0 -0.703125 0.3125q-0.15625 0.1875 -0.328125 1.015625l-0.15625 0.734375l1.984375 0zm9.535156 6.0625l-7.03125 0q-0.015625 0.15625 -0.015625 0.25q0 1.03125 0.59375 1.671875q0.59375 0.625 1.4375 0.625q1.390625 0 2.171875 -1.4375l2.515625 0.421875q-0.734375 1.515625 -1.96875 2.28125q-1.21875 0.75 -2.734375 0.75q-2.09375 0 -3.40625 -1.328125q-1.3125 -1.328125 -1.3125 -3.5q0 -2.125 1.1875 -3.796875q1.609375 -2.234375 4.59375 -2.234375q1.90625 0 3.03125 1.171875q1.125 1.171875 1.125 3.296875q0 1.015625 -0.1875 1.828125zm-2.375 -1.71875q0.015625 -0.1875 0.015625 -0.28125q0 -1.15625 -0.515625 -1.71875q-0.515625 -0.578125 -1.390625 -0.578125q-0.875 0 -1.5625 0.65625q-0.6875 0.640625 -0.921875 1.921875l4.375 0zm5.404297 -4.34375l2.625 0l-0.421875 2.015625q1.453125 -2.25 3.171875 -2.25q0.609375 0 1.296875 0.296875l-1.078125 2.296875q-0.375 -0.140625 -0.8125 -0.140625q-0.71875 0 -1.46875 0.546875q-0.75 0.546875 -1.171875 1.46875q-0.40625 0.90625 -0.828125 2.890625l-0.671875 3.25l-2.8125 0l2.171875 -10.375zm15.876953 6.0625l-7.03125 0q-0.015625 0.15625 -0.015625 0.25q0 1.03125 0.59375 1.671875q0.59375 0.625 1.4375 0.625q1.390625 0 2.171875 -1.4375l2.515625 0.421875q-0.734375 1.515625 -1.96875 2.28125q-1.21875 0.75 -2.734375 0.75q-2.09375 0 -3.40625 -1.328125q-1.3125 -1.328125 -1.3125 -3.5q0 -2.125 1.1875 -3.796875q1.609375 -2.234375 4.59375 -2.234375q1.90625 0 3.03125 1.171875q1.125 1.171875 1.125 3.296875q0 1.015625 -0.1875 1.828125zm-2.375 -1.71875q0.015625 -0.1875 0.015625 -0.28125q0 -1.15625 -0.515625 -1.71875q-0.515625 -0.578125 -1.390625 -0.578125q-0.875 0 -1.5625 0.65625q-0.6875 0.640625 -0.921875 1.921875l4.375 0zm5.607422 -4.34375l2.65625 0l-0.28125 1.34375q1.0 -0.859375 1.859375 -1.21875q0.859375 -0.359375 1.828125 -0.359375q1.28125 0 2.015625 0.734375q0.734375 0.71875 0.734375 1.9375q0 0.546875 -0.328125 2.0625l-1.21875 5.875l-2.796875 0l1.234375 -5.890625q0.265625 -1.3125 0.265625 -1.578125q0 -0.53125 -0.328125 -0.828125q-0.3125 -0.3125 -0.875 -0.3125q-0.609375 0 -1.359375 0.515625q-0.75 0.515625 -1.1875 1.359375q-0.3125 0.609375 -0.703125 2.46875l-0.890625 4.265625l-2.796875 0l2.171875 -10.375zm10.701172 2.078125l0.4375 -2.078125l1.359375 0l0.34375 -1.65625l3.21875 -1.9375l-0.75 3.59375l1.703125 0l-0.421875 2.078125l-1.71875 0l-0.921875 4.34375q-0.234375 1.1875 -0.234375 1.359375q0 0.3125 0.203125 0.5q0.203125 0.171875 0.734375 0.171875q0.1875 0 0.9375 -0.0625l-0.4375 2.078125q-0.734375 0.15625 -1.484375 0.15625q-1.484375 0 -2.171875 -0.578125q-0.671875 -0.578125 -0.671875 -1.59375q0 -0.46875 0.375 -2.203125l0.859375 -4.171875l-1.359375 0z" fill-rule="nonzero"/><path fill="#000000" d="m711.0365 416.63913l-0.296875 1.453125q-0.625 0.15625 -1.234375 0.15625q-1.046875 0 -1.671875 -0.515625q-0.46875 -0.390625 -0.46875 -1.0625q0 -0.34375 0.25 -1.578125l1.265625 -6.015625l-1.40625 0l0.296875 -1.375l1.390625 0l0.53125 -2.546875l2.03125 -1.21875l-0.796875 3.765625l1.734375 0l-0.28125 1.375l-1.734375 0l-1.203125 5.734375q-0.21875 1.09375 -0.21875 1.296875q0 0.3125 0.171875 0.484375q0.1875 0.171875 0.59375 0.171875q0.59375 0 1.046875 -0.125zm1.4316406 1.4375l2.15625 -10.375l1.5625 0l-0.4375 2.125q0.796875 -1.203125 1.5625 -1.78125q0.78125 -0.578125 1.578125 -0.578125q0.53125 0 1.296875 0.390625l-0.71875 1.640625q-0.46875 -0.34375 -1.015625 -0.34375q-0.921875 0 -1.90625 1.046875q-0.96875 1.03125 -1.53125 3.71875l-0.875 4.15625l-1.671875 0zm13.644531 -1.296875q-0.921875 0.796875 -1.765625 1.171875q-0.84375 0.359375 -1.8125 0.359375q-1.4375 0 -2.328125 -0.84375q-0.875 -0.84375 -0.875 -2.171875q0 -0.859375 0.390625 -1.53125q0.40625 -0.671875 1.0625 -1.078125q0.65625 -0.40625 1.59375 -0.578125q0.59375 -0.109375 2.265625 -0.171875q1.671875 -0.078125 2.390625 -0.359375q0.203125 -0.734375 0.203125 -1.203125q0 -0.625 -0.453125 -0.96875q-0.609375 -0.484375 -1.796875 -0.484375q-1.109375 0 -1.828125 0.5q-0.703125 0.484375 -1.015625 1.390625l-1.796875 -0.15625q0.546875 -1.546875 1.734375 -2.359375q1.1875 -0.828125 3.0 -0.828125q1.921875 0 3.046875 0.921875q0.859375 0.6875 0.859375 1.78125q0 0.828125 -0.25 1.921875l-0.578125 2.578125q-0.265625 1.234375 -0.265625 2.0q0 0.484375 0.21875 1.40625l-1.796875 0q-0.140625 -0.515625 -0.203125 -1.296875zm0.65625 -3.953125q-0.375 0.140625 -0.796875 0.21875q-0.421875 0.078125 -1.421875 0.171875q-1.546875 0.125 -2.1875 0.34375q-0.625 0.203125 -0.953125 0.671875q-0.3125 0.453125 -0.3125 1.015625q0 0.734375 0.5 1.21875q0.515625 0.46875 1.46875 0.46875q0.875 0 1.6875 -0.453125q0.8125 -0.46875 1.28125 -1.296875q0.46875 -0.828125 0.734375 -2.359375zm3.4824219 5.25l2.15625 -10.375l1.609375 0l-0.390625 1.8125q1.046875 -1.0625 1.953125 -1.546875q0.921875 -0.5 1.859375 -0.5q1.265625 0 1.984375 0.6875q0.71875 0.6875 0.71875 1.828125q0 0.578125 -0.265625 1.8125l-1.3125 6.28125l-1.765625 0l1.375 -6.578125q0.203125 -0.953125 0.203125 -1.40625q0 -0.515625 -0.359375 -0.84375q-0.34375 -0.328125 -1.03125 -0.328125q-1.34375 0 -2.40625 0.984375q-1.0625 0.96875 -1.5625 3.34375l-1.0 4.828125l-1.765625 0zm11.279297 -3.546875l1.765625 -0.109375q0 0.765625 0.234375 1.3125q0.234375 0.53125 0.859375 0.875q0.640625 0.328125 1.484375 0.328125q1.171875 0 1.75 -0.46875q0.59375 -0.46875 0.59375 -1.09375q0 -0.46875 -0.359375 -0.875q-0.359375 -0.40625 -1.765625 -1.0q-1.390625 -0.609375 -1.78125 -0.859375q-0.65625 -0.390625 -1.0 -0.9375q-0.328125 -0.546875 -0.328125 -1.25q0 -1.21875 0.96875 -2.09375q0.984375 -0.890625 2.75 -0.890625q1.953125 0 2.96875 0.90625q1.015625 0.90625 1.0625 2.375l-1.734375 0.125q-0.03125 -0.9375 -0.65625 -1.484375q-0.625 -0.546875 -1.765625 -0.546875q-0.921875 0 -1.4375 0.421875q-0.5 0.40625 -0.5 0.90625q0 0.484375 0.4375 0.859375q0.296875 0.25 1.515625 0.78125q2.03125 0.875 2.5625 1.375q0.828125 0.8125 0.828125 1.984375q0 0.765625 -0.46875 1.515625q-0.46875 0.734375 -1.453125 1.1875q-0.96875 0.4375 -2.28125 0.4375q-1.796875 0 -3.0625 -0.890625q-1.25 -0.890625 -1.1875 -2.890625zm17.0 -0.234375l1.765625 0.1875q-0.671875 1.9375 -1.90625 2.890625q-1.21875 0.9375 -2.78125 0.9375q-1.6875 0 -2.734375 -1.09375q-1.046875 -1.09375 -1.046875 -3.0625q0 -1.6875 0.671875 -3.328125q0.671875 -1.640625 1.921875 -2.5q1.265625 -0.859375 2.875 -0.859375q1.671875 0 2.640625 0.953125q0.984375 0.9375 0.984375 2.484375l-1.734375 0.125q-0.015625 -0.984375 -0.578125 -1.546875q-0.5625 -0.5625 -1.484375 -0.5625q-1.0625 0 -1.84375 0.6875q-0.78125 0.671875 -1.234375 2.046875q-0.4375 1.359375 -0.4375 2.625q0 1.328125 0.578125 2.0q0.59375 0.65625 1.453125 0.65625q0.859375 0 1.640625 -0.640625q0.796875 -0.65625 1.25 -2.0zm2.84375 3.78125l2.15625 -10.375l1.5625 0l-0.4375 2.125q0.796875 -1.203125 1.5625 -1.78125q0.78125 -0.578125 1.578125 -0.578125q0.53125 0 1.296875 0.390625l-0.71875 1.640625q-0.46875 -0.34375 -1.015625 -0.34375q-0.921875 0 -1.90625 1.046875q-0.96875 1.03125 -1.53125 3.71875l-0.875 4.15625l-1.671875 0zm9.160156 -12.3125l0.421875 -2.0l1.765625 0l-0.421875 2.0l-1.765625 0zm-2.578125 12.3125l2.171875 -10.375l1.765625 0l-2.171875 10.375l-1.765625 0zm3.6464844 3.96875l3.0 -14.34375l1.625 0l-0.296875 1.453125q0.90625 -0.953125 1.625 -1.3125q0.71875 -0.375 1.515625 -0.375q1.484375 0 2.453125 1.078125q0.984375 1.078125 0.984375 3.09375q0 1.625 -0.546875 2.953125q-0.53125 1.328125 -1.3125 2.140625q-0.78125 0.8125 -1.578125 1.203125q-0.796875 0.375 -1.640625 0.375q-1.859375 0 -2.890625 -1.890625l-1.171875 5.625l-1.765625 0zm3.5 -8.203125q0 1.15625 0.15625 1.609375q0.25 0.625 0.796875 1.015625q0.5625 0.390625 1.296875 0.390625q1.53125 0 2.46875 -1.703125q0.9375 -1.71875 0.9375 -3.5q0 -1.328125 -0.640625 -2.046875q-0.625 -0.71875 -1.5625 -0.71875q-0.671875 0 -1.25 0.359375q-0.578125 0.359375 -1.078125 1.078125q-0.484375 0.703125 -0.8125 1.734375q-0.3125 1.015625 -0.3125 1.78125zm12.623047 2.796875l-0.296875 1.453125q-0.625 0.15625 -1.234375 0.15625q-1.046875 0 -1.671875 -0.515625q-0.46875 -0.390625 -0.46875 -1.0625q0 -0.34375 0.25 -1.578125l1.265625 -6.015625l-1.40625 0l0.296875 -1.375l1.390625 0l0.53125 -2.546875l2.03125 -1.21875l-0.796875 3.765625l1.734375 0l-0.28125 1.375l-1.734375 0l-1.203125 5.734375q-0.21875 1.09375 -0.21875 1.296875q0 0.3125 0.171875 0.484375q0.1875 0.171875 0.59375 0.171875q0.59375 0 1.046875 -0.125zm1.5878906 -2.109375l1.765625 -0.109375q0 0.765625 0.234375 1.3125q0.234375 0.53125 0.859375 0.875q0.640625 0.328125 1.484375 0.328125q1.171875 0 1.75 -0.46875q0.59375 -0.46875 0.59375 -1.09375q0 -0.46875 -0.359375 -0.875q-0.359375 -0.40625 -1.765625 -1.0q-1.390625 -0.609375 -1.78125 -0.859375q-0.65625 -0.390625 -1.0 -0.9375q-0.328125 -0.546875 -0.328125 -1.25q0 -1.21875 0.96875 -2.09375q0.984375 -0.890625 2.75 -0.890625q1.953125 0 2.96875 0.90625q1.015625 0.90625 1.0625 2.375l-1.734375 0.125q-0.03125 -0.9375 -0.65625 -1.484375q-0.625 -0.546875 -1.765625 -0.546875q-0.921875 0 -1.4375 0.421875q-0.5 0.40625 -0.5 0.90625q0 0.484375 0.4375 0.859375q0.296875 0.25 1.515625 0.78125q2.03125 0.875 2.5625 1.375q0.828125 0.8125 0.828125 1.984375q0 0.765625 -0.46875 1.515625q-0.46875 0.734375 -1.453125 1.1875q-0.96875 0.4375 -2.28125 0.4375q-1.796875 0 -3.0625 -0.890625q-1.25 -0.890625 -1.1875 -2.890625z" fill-rule="nonzero"/></g></svg>