<svg version="1.1" viewBox="0.0 0.0 899.2598425196851 213.33333333333334" fill="none" stroke="none" stroke-linecap="square" stroke-miterlimit="10" xmlns:xlink="http://www.w3.org/1999/xlink" xmlns="http://www.w3.org/2000/svg"><clipPath id="p.0"><path d="m0 0l899.2598 0l0 213.33333l-899.2598 0l0 -213.33333z" clip-rule="nonzero"/></clipPath><g clip-path="url(#p.0)"><path fill="#000000" fill-opacity="0.0" d="m0 0l899.2598 0l0 213.33333l-899.2598 0z" fill-rule="evenodd"/><g filter="url(#shadowFilter-p.1)"><use xlink:href="#p.1" transform="matrix(1.0 0.0 0.0 1.0 0.0 2.0)"/></g><defs><filter id="shadowFilter-p.1" filterUnits="userSpaceOnUse"><feGaussianBlur in="SourceAlpha" stdDeviation="2.0" result="blur"/><feComponentTransfer in="blur" color-interpolation-filters="sRGB"><feFuncR type="linear" slope="0" intercept="0.0"/><feFuncG type="linear" slope="0" intercept="0.0"/><feFuncB type="linear" slope="0" intercept="0.0"/><feFuncA type="linear" slope="0.5" intercept="0"/></feComponentTransfer></filter></defs><g id="p.1"><path fill="#0000ff" d="m20.968504 66.685036l107.590546 0l0 29.354332l-107.590546 0z" fill-rule="evenodd"/></g><g filter="url(#shadowFilter-p.2)"><use xlink:href="#p.2" transform="matrix(1.0 0.0 0.0 1.0 0.0 2.0)"/></g><defs><filter id="shadowFilter-p.2" filterUnits="userSpaceOnUse"><feGaussianBlur in="SourceAlpha" stdDeviation="2.0" result="blur"/><feComponentTransfer in="blur" color-interpolation-filters="sRGB"><feFuncR type="linear" slope="0" intercept="0.0"/><feFuncG type="linear" slope="0" intercept="0.0"/><feFuncB type="linear" slope="0" intercept="0.0"/><feFuncA type="linear" slope="0.5" intercept="0"/></feComponentTransfer></filter></defs><g id="p.2"><path fill="#000000" d="m128.55905 66.685036l114.48819 0l0 29.354332l-114.48819 0z" fill-rule="evenodd"/></g><g filter="url(#shadowFilter-p.3)"><use xlink:href="#p.3" transform="matrix(1.0 0.0 0.0 1.0 0.0 2.0)"/></g><defs><filter id="shadowFilter-p.3" filterUnits="userSpaceOnUse"><feGaussianBlur in="SourceAlpha" stdDeviation="2.0" result="blur"/><feComponentTransfer in="blur" color-interpolation-filters="sRGB"><feFuncR type="linear" slope="0" intercept="0.0"/><feFuncG type="linear" slope="0" intercept="0.0"/><feFuncB type="linear" slope="0" intercept="0.0"/><feFuncA type="linear" slope="0.5" intercept="0"/></feComponentTransfer></filter></defs><g id="p.3"><path fill="#3c78d8" d="m347.5538 66.685036l139.62204 0l0 29.354332l-139.62204 0z" fill-rule="evenodd"/></g><g filter="url(#shadowFilter-p.4)"><use xlink:href="#p.4" transform="matrix(1.0 0.0 0.0 1.0 0.0 2.0)"/></g><defs><filter id="shadowFilter-p.4" filterUnits="userSpaceOnUse"><feGaussianBlur in="SourceAlpha" stdDeviation="2.0" result="blur"/><feComponentTransfer in="blur" color-interpolation-filters="sRGB"><feFuncR type="linear" slope="0" intercept="0.0"/><feFuncG type="linear" slope="0" intercept="0.0"/><feFuncB type="linear" slope="0" intercept="0.0"/><feFuncA type="linear" slope="0.5" intercept="0"/></feComponentTransfer></filter></defs><g id="p.4"><path fill="#cfe2f3" d="m487.17584 76.7769l114.48822 0l0 9.1653595l-114.48822 0z" fill-rule="evenodd"/></g><g filter="url(#shadowFilter-p.5)"><use xlink:href="#p.5" transform="matrix(1.0 0.0 0.0 1.0 0.0 2.0)"/></g><defs><filter id="shadowFilter-p.5" filterUnits="userSpaceOnUse"><feGaussianBlur in="SourceAlpha" stdDeviation="2.0" result="blur"/><feComponentTransfer in="blur" color-interpolation-filters="sRGB"><feFuncR type="linear" slope="0" intercept="0.0"/><feFuncG type="linear" slope="0" intercept="0.0"/><feFuncB type="linear" slope="0" intercept="0.0"/><feFuncA type="linear" slope="0.5" intercept="0"/></feComponentTransfer></filter></defs><g id="p.5"><path fill="#000000" d="m601.66406 66.685036l114.48816 0l0 29.354332l-114.48816 0z" fill-rule="evenodd"/></g><g filter="url(#shadowFilter-p.6)"><use xlink:href="#p.6" transform="matrix(1.0 0.0 0.0 1.0 0.0 2.0)"/></g><defs><filter id="shadowFilter-p.6" filterUnits="userSpaceOnUse"><feGaussianBlur in="SourceAlpha" stdDeviation="2.0" result="blur"/><feComponentTransfer in="blur" color-interpolation-filters="sRGB"><feFuncR type="linear" slope="0" intercept="0.0"/><feFuncG type="linear" slope="0" intercept="0.0"/><feFuncB type="linear" slope="0" intercept="0.0"/><feFuncA type="linear" slope="0.5" intercept="0"/></feComponentTransfer></filter></defs><g id="p.6"><path fill="#999999" d="m716.1522 66.685036l39.338562 0l0 29.354332l-39.338562 0z" fill-rule="evenodd"/></g><g filter="url(#shadowFilter-p.7)"><use xlink:href="#p.7" transform="matrix(1.0 0.0 0.0 1.0 0.0 2.0)"/></g><defs><filter id="shadowFilter-p.7" filterUnits="userSpaceOnUse"><feGaussianBlur in="SourceAlpha" stdDeviation="2.0" result="blur"/><feComponentTransfer in="blur" color-interpolation-filters="sRGB"><feFuncR type="linear" slope="0" intercept="0.0"/><feFuncG type="linear" slope="0" intercept="0.0"/><feFuncB type="linear" slope="0" intercept="0.0"/><feFuncA type="linear" slope="0.5" intercept="0"/></feComponentTransfer></filter></defs><g id="p.7"><path fill="#f1c232" d="m755.4908 66.685036l114.48822 0l0 29.354332l-114.48822 0z" fill-rule="evenodd"/></g><g filter="url(#shadowFilter-p.8)"><use xlink:href="#p.8" transform="matrix(1.0 0.0 0.0 1.0 0.0 2.0)"/></g><defs><filter id="shadowFilter-p.8" filterUnits="userSpaceOnUse"><feGaussianBlur in="SourceAlpha" stdDeviation="2.0" result="blur"/><feComponentTransfer in="blur" color-interpolation-filters="sRGB"><feFuncR type="linear" slope="0" intercept="0.0"/><feFuncG type="linear" slope="0" intercept="0.0"/><feFuncB type="linear" slope="0" intercept="0.0"/><feFuncA type="linear" slope="0.5" intercept="0"/></feComponentTransfer></filter></defs><g id="p.8"><path fill="#0000ff" d="m20.968504 130.68504l107.590546 0l0 29.354324l-107.590546 0z" fill-rule="evenodd"/></g><g filter="url(#shadowFilter-p.9)"><use xlink:href="#p.9" transform="matrix(1.0 0.0 0.0 1.0 0.0 2.0)"/></g><defs><filter id="shadowFilter-p.9" filterUnits="userSpaceOnUse"><feGaussianBlur in="SourceAlpha" stdDeviation="2.0" result="blur"/><feComponentTransfer in="blur" color-interpolation-filters="sRGB"><feFuncR type="linear" slope="0" intercept="0.0"/><feFuncG type="linear" slope="0" intercept="0.0"/><feFuncB type="linear" slope="0" intercept="0.0"/><feFuncA type="linear" slope="0.5" intercept="0"/></feComponentTransfer></filter></defs><g id="p.9"><path fill="#000000" d="m128.55905 130.68504l114.48819 0l0 29.354324l-114.48819 0z" fill-rule="evenodd"/></g><g filter="url(#shadowFilter-p.10)"><use xlink:href="#p.10" transform="matrix(1.0 0.0 0.0 1.0 0.0 2.0)"/></g><defs><filter id="shadowFilter-p.10" filterUnits="userSpaceOnUse"><feGaussianBlur in="SourceAlpha" stdDeviation="2.0" result="blur"/><feComponentTransfer in="blur" color-interpolation-filters="sRGB"><feFuncR type="linear" slope="0" intercept="0.0"/><feFuncG type="linear" slope="0" intercept="0.0"/><feFuncB type="linear" slope="0" intercept="0.0"/><feFuncA type="linear" slope="0.5" intercept="0"/></feComponentTransfer></filter></defs><g id="p.10"><path fill="#3c78d8" d="m347.5538 130.68504l139.62204 0l0 29.354324l-139.62204 0z" fill-rule="evenodd"/></g><g filter="url(#shadowFilter-p.11)"><use xlink:href="#p.11" transform="matrix(1.0 0.0 0.0 1.0 0.0 2.0)"/></g><defs><filter id="shadowFilter-p.11" filterUnits="userSpaceOnUse"><feGaussianBlur in="SourceAlpha" stdDeviation="2.0" result="blur"/><feComponentTransfer in="blur" color-interpolation-filters="sRGB"><feFuncR type="linear" slope="0" intercept="0.0"/><feFuncG type="linear" slope="0" intercept="0.0"/><feFuncB type="linear" slope="0" intercept="0.0"/><feFuncA type="linear" slope="0.5" intercept="0"/></feComponentTransfer></filter></defs><g id="p.11"><path fill="#cfe2f3" d="m487.17584 140.7769l114.48822 0l0 9.1653595l-114.48822 0z" fill-rule="evenodd"/></g><g filter="url(#shadowFilter-p.12)"><use xlink:href="#p.12" transform="matrix(1.0 0.0 0.0 1.0 0.0 2.0)"/></g><defs><filter id="shadowFilter-p.12" filterUnits="userSpaceOnUse"><feGaussianBlur in="SourceAlpha" stdDeviation="2.0" result="blur"/><feComponentTransfer in="blur" color-interpolation-filters="sRGB"><feFuncR type="linear" slope="0" intercept="0.0"/><feFuncG type="linear" slope="0" intercept="0.0"/><feFuncB type="linear" slope="0" intercept="0.0"/><feFuncA type="linear" slope="0.5" intercept="0"/></feComponentTransfer></filter></defs><g id="p.12"><path fill="#000000" d="m601.66406 130.68504l114.48816 0l0 29.354324l-114.48816 0z" fill-rule="evenodd"/></g><g filter="url(#shadowFilter-p.13)"><use xlink:href="#p.13" transform="matrix(1.0 0.0 0.0 1.0 0.0 2.0)"/></g><defs><filter id="shadowFilter-p.13" filterUnits="userSpaceOnUse"><feGaussianBlur in="SourceAlpha" stdDeviation="2.0" result="blur"/><feComponentTransfer in="blur" color-interpolation-filters="sRGB"><feFuncR type="linear" slope="0" intercept="0.0"/><feFuncG type="linear" slope="0" intercept="0.0"/><feFuncB type="linear" slope="0" intercept="0.0"/><feFuncA type="linear" slope="0.5" intercept="0"/></feComponentTransfer></filter></defs><g id="p.13"><path fill="#999999" d="m716.1522 130.68504l39.338562 0l0 29.354324l-39.338562 0z" fill-rule="evenodd"/></g><g filter="url(#shadowFilter-p.14)"><use xlink:href="#p.14" transform="matrix(1.0 0.0 0.0 1.0 0.0 2.0)"/></g><defs><filter id="shadowFilter-p.14" filterUnits="userSpaceOnUse"><feGaussianBlur in="SourceAlpha" stdDeviation="2.0" result="blur"/><feComponentTransfer in="blur" color-interpolation-filters="sRGB"><feFuncR type="linear" slope="0" intercept="0.0"/><feFuncG type="linear" slope="0" intercept="0.0"/><feFuncB type="linear" slope="0" intercept="0.0"/><feFuncA type="linear" slope="0.5" intercept="0"/></feComponentTransfer></filter></defs><g id="p.14"><path fill="#f1c232" d="m755.4908 130.68504l114.48822 0l0 29.354324l-114.48822 0z" fill-rule="evenodd"/></g><path fill="#000000" fill-opacity="0.0" d="m22.498688 101.55905l107.590546 0l0 23.874016l-107.590546 0z" fill-rule="evenodd"/><path fill="#999999" d="m71.52429 113.26481l0.65625 0q0.9375 0 1.390625 -0.359375q0.46875 -0.375 0.46875 -1.078125q0 -0.71875 -0.390625 -1.046875q-0.390625 -0.34375 -1.21875 -0.34375l-0.90625 0l0 2.828125zm4.546875 -1.515625q0 1.53125 -0.96875 2.34375q-0.953125 0.8125 -2.71875 0.8125l-0.859375 0l0 3.390625l-2.015625 0l0 -9.515625l3.03125 0q1.734375 0 2.625 0.75q0.90625 0.734375 0.90625 2.21875zm4.6035004 0.46875q1.375 0 2.1875 0.78125q0.828125 0.765625 0.828125 2.109375q0 1.59375 -0.984375 2.453125q-0.984375 0.859375 -2.8125 0.859375q-1.59375 0 -2.5625 -0.515625l0 -1.734375q0.515625 0.28125 1.1875 0.453125q0.6875 0.171875 1.296875 0.171875q1.84375 0 1.84375 -1.515625q0 -1.4375 -1.90625 -1.4375q-0.34375 0 -0.765625 0.078125q-0.40625 0.0625 -0.671875 0.140625l-0.796875 -0.4375l0.359375 -4.84375l5.15625 0l0 1.703125l-3.390625 0l-0.1875 1.875l0.234375 -0.046875q0.390625 -0.09375 0.984375 -0.09375z" fill-rule="nonzero"/><path fill="#000000" fill-opacity="0.0" d="m130.08923 23.394518l114.48819 0l0 23.874014l-114.48819 0z" fill-rule="evenodd"/><path fill="#000000" d="m168.43832 34.83465l0.640625 0q0.96875 0 1.421875 -0.3125q0.453125 -0.3125 0.453125 -1.0q0 -0.671875 -0.46875 -0.953125q-0.46875 -0.296875 -1.4375 -0.296875l-0.609375 0l0 2.5625zm0 1.640625l0 3.65625l-2.015625 0l0 -9.515623l2.765625 0q1.9375 0 2.859375 0.703125q0.9375 0.7031231 0.9375 2.140623q0 0.84375 -0.46875 1.5q-0.453125 0.65625 -1.296875 1.03125q2.140625 3.203125 2.796875 4.140625l-2.234375 0l-2.28125 -3.65625l-1.0625 0zm9.62677 -2.34375q-0.625 0 -0.984375 0.40625q-0.359375 0.390625 -0.40625 1.125l2.78125 0q-0.015625 -0.734375 -0.390625 -1.125q-0.359375 -0.40625 -1.0 -0.40625zm0.28125 6.125q-1.75 0 -2.75 -0.96875q-0.984375 -0.96875 -0.984375 -2.734375q0 -1.84375 0.90625 -2.828125q0.921875 -1.0 2.546875 -1.0q1.53125 0 2.390625 0.875q0.859375 0.875 0.859375 2.421875l0 0.96875l-4.6875 0q0.03125 0.84375 0.5 1.328125q0.46875 0.46875 1.3125 0.46875q0.65625 0 1.234375 -0.140625q0.59375 -0.140625 1.234375 -0.4375l0 1.53125q-0.515625 0.265625 -1.109375 0.390625q-0.59375 0.125 -1.453125 0.125zm9.202652 -0.125l-0.375 -0.984375l-0.0625 0q-0.5 0.625 -1.03125 0.875q-0.53125 0.234375 -1.375 0.234375q-1.046875 0 -1.65625 -0.59375q-0.59375 -0.59375 -0.59375 -1.703125q0 -1.15625 0.8125 -1.703125q0.8125 -0.5625 2.4375 -0.609375l1.265625 -0.046875l0 -0.3125q0 -1.109375 -1.140625 -1.109375q-0.859375 0 -2.046875 0.53125l-0.65625 -1.34375q1.265625 -0.65625 2.78125 -0.65625q1.46875 0 2.25 0.640625q0.78125 0.625 0.78125 1.9375l0 4.84375l-1.390625 0zm-0.578125 -3.375l-0.765625 0.03125q-0.875 0.03125 -1.296875 0.3125q-0.421875 0.28125 -0.421875 0.875q0 0.828125 0.96875 0.828125q0.6875 0 1.09375 -0.390625q0.421875 -0.390625 0.421875 -1.046875l0 -0.609375zm6.315872 3.5q-1.28125 0 -2.015625 -0.984375q-0.734375 -1.0 -0.734375 -2.765625q0 -1.796875 0.75 -2.78125q0.75 -1.0 2.046875 -1.0q1.375 0 2.109375 1.0625l0.0625 0q-0.15625 -0.8125 -0.15625 -1.453125l0 -2.328123l2.0 0l0 10.124998l-1.53125 0l-0.375 -0.9375l-0.09375 0q-0.671875 1.0625 -2.0625 1.0625zm0.703125 -1.578125q0.75 0 1.109375 -0.4375q0.359375 -0.453125 0.390625 -1.5l0 -0.21875q0 -1.171875 -0.359375 -1.671875q-0.359375 -0.515625 -1.171875 -0.515625q-0.671875 0 -1.046875 0.5625q-0.359375 0.5625 -0.359375 1.640625q0 1.0625 0.359375 1.609375q0.375 0.53125 1.078125 0.53125zm13.349518 1.453125l-2.0 0l0 -5.5l0.015625 -0.90625l0.03125 -1.0q-0.5 0.515625 -0.703125 0.671875l-1.09375 0.875l-0.96875 -1.21875l3.078125 -2.437498l1.640625 0l0 9.515623z" fill-rule="nonzero"/><path fill="#000000" fill-opacity="0.0" d="m234.54077 23.394518l87.18109 0l0 23.874014l-87.18109 0z" fill-rule="evenodd"/><path fill="#000000" d="m272.17096 32.131523l-2.0 0l0 -5.499998l0.015625 -0.90625l0.03125 -1.0q-0.5 0.515625 -0.703125 0.671875l-1.09375 0.875l-0.96875 -1.21875l3.078125 -2.4375l1.640625 0l0 9.515623zm9.232697 -4.749998q0 2.484375 -0.8125 3.6875q-0.8125 1.1874981 -2.515625 1.1874981q-1.640625 0 -2.484375 -1.2343731q-0.828125 -1.234375 -0.828125 -3.640625q0 -2.53125 0.8125 -3.71875q0.8125 -1.203125 2.5 -1.203125q1.65625 0 2.484375 1.25q0.84375 1.25 0.84375 3.671875zm-4.640625 0q0 1.75 0.296875 2.515625q0.296875 0.75 1.015625 0.75q0.703125 0 1.015625 -0.765625q0.3125 -0.78125 0.3125 -2.5q0 -1.765625 -0.3125 -2.515625q-0.3125 -0.765625 -1.015625 -0.765625q-0.703125 0 -1.015625 0.765625q-0.296875 0.75 -0.296875 2.515625zm7.654602 1.03125l-2.34375 -3.5625l2.25 0l1.421875 2.328125l1.421875 -2.328125l2.25 0l-2.375 3.5625l2.484375 3.718748l-2.265625 0l-1.515625 -2.499998l-1.546875 2.499998l-2.25 0l2.46875 -3.718748z" fill-rule="nonzero"/><path fill="#000000" d="m252.09898 38.6159l2.953125 0q2.0312653 0 2.9375153 0.578125q0.921875 0.578125 0.921875 1.828125q0 0.859375 -0.40625 1.40625q-0.40625 0.546875 -1.0625 0.65625l0 0.0625q0.90625 0.203125 1.296875 0.765625q0.40625 0.546875 0.40625 1.453125q0 1.3125 -0.9375 2.046875q-0.9375 0.71875 -2.5625153 0.71875l-3.546875 0l0 -9.515625zm2.015625 3.765625l1.171875 0q0.81251526 0 1.1718903 -0.25q0.375 -0.25 0.375 -0.84375q0 -0.546875 -0.40625 -0.78125q-0.390625 -0.234375 -1.2500153 -0.234375l-1.0625 0l0 2.109375zm0 1.609375l0 2.46875l1.3125 0q0.82814026 0 1.2187653 -0.3125q0.40625 -0.3125 0.40625 -0.984375q0 -1.171875 -1.6875153 -1.171875l-1.25 0zm11.392349 4.140625l-0.375 -0.984375l-0.0625 0q-0.5 0.625 -1.03125 0.875q-0.53125 0.234375 -1.375 0.234375q-1.046875 0 -1.65625 -0.59375q-0.59375 -0.59375 -0.59375 -1.703125q0 -1.15625 0.8125 -1.703125q0.8125 -0.5625 2.4375 -0.609375l1.265625 -0.046875l0 -0.3125q0 -1.109375 -1.140625 -1.109375q-0.859375 0 -2.046875 0.53125l-0.65625 -1.34375q1.265625 -0.65625 2.78125 -0.65625q1.46875 0 2.25 0.640625q0.78125 0.625 0.78125 1.9375l0 4.84375l-1.390625 0zm-0.578125 -3.375l-0.765625 0.03125q-0.875 0.03125 -1.296875 0.3125q-0.421875 0.28125 -0.421875 0.875q0 0.828125 0.96875 0.828125q0.6875 0 1.09375 -0.390625q0.421875 -0.390625 0.421875 -1.046875l0 -0.609375zm8.081482 -4.03125q0.390625 0 0.65625 0.046875l-0.140625 1.859375q-0.25 -0.0625 -0.59375 -0.0625q-0.9375 0 -1.46875 0.5q-0.53125 0.484375 -0.53125 1.359375l0 3.703125l-1.984375 0l0 -7.28125l1.5 0l0.296875 1.234375l0.09375 0q0.34375 -0.625 0.90625 -0.984375q0.578125 -0.375 1.265625 -0.375zm4.9429626 7.53125q-3.40625 0 -3.40625 -3.71875q0 -1.859375 0.921875 -2.828125q0.9375 -0.984375 2.65625 -0.984375q1.265625 0 2.265625 0.484375l-0.59375 1.546875q-0.46875 -0.203125 -0.875 -0.3125q-0.390625 -0.125 -0.796875 -0.125q-1.546875 0 -1.546875 2.203125q0 2.125 1.546875 2.125q0.578125 0 1.0625 -0.140625q0.484375 -0.15625 0.96875 -0.484375l0 1.703125q-0.46875 0.296875 -0.96875 0.40625q-0.484375 0.125 -1.234375 0.125zm5.477783 -3.78125q0 1.078125 0.34375 1.640625q0.359375 0.546875 1.15625 0.546875q0.796875 0 1.140625 -0.546875q0.359375 -0.546875 0.359375 -1.640625q0 -1.078125 -0.359375 -1.609375q-0.34375 -0.546875 -1.140625 -0.546875q-0.796875 0 -1.15625 0.546875q-0.34375 0.53125 -0.34375 1.609375zm5.03125 0q0 1.78125 -0.9375 2.78125q-0.9375 1.0 -2.609375 1.0q-1.046875 0 -1.859375 -0.453125q-0.796875 -0.453125 -1.234375 -1.3125q-0.421875 -0.859375 -0.421875 -2.015625q0 -1.78125 0.921875 -2.765625q0.9375 -0.984375 2.625 -0.984375q1.046875 0 1.84375 0.453125q0.8125 0.453125 1.234375 1.3125q0.4375 0.84375 0.4375 1.984375zm3.9394836 3.78125q-1.28125 0 -2.015625 -0.984375q-0.734375 -1.0 -0.734375 -2.765625q0 -1.796875 0.75 -2.78125q0.75 -1.0 2.046875 -1.0q1.375 0 2.109375 1.0625l0.0625 0q-0.15625 -0.8125 -0.15625 -1.453125l0 -2.328125l2.0 0l0 10.125l-1.53125 0l-0.375 -0.9375l-0.09375 0q-0.671875 1.0625 -2.0625 1.0625zm0.703125 -1.578125q0.75 0 1.109375 -0.4375q0.359375 -0.453125 0.390625 -1.5l0 -0.21875q0 -1.171875 -0.359375 -1.671875q-0.359375 -0.515625 -1.171875 -0.515625q-0.671875 0 -1.046875 0.5625q-0.359375 0.5625 -0.359375 1.640625q0 1.0625 0.359375 1.609375q0.375 0.53125 1.078125 0.53125zm8.434204 -4.546875q-0.625 0 -0.984375 0.40625q-0.359375 0.390625 -0.40625 1.125l2.78125 0q-0.015625 -0.734375 -0.390625 -1.125q-0.359375 -0.40625 -1.0 -0.40625zm0.28125 6.125q-1.75 0 -2.75 -0.96875q-0.984375 -0.96875 -0.984375 -2.734375q0 -1.84375 0.90625 -2.828125q0.921875 -1.0 2.546875 -1.0q1.53125 0 2.390625 0.875q0.859375 0.875 0.859375 2.421875l0 0.96875l-4.6875 0q0.03125 0.84375 0.5 1.328125q0.46875 0.46875 1.3125 0.46875q0.65625 0 1.234375 -0.140625q0.59375 -0.140625 1.234375 -0.4375l0 1.53125q-0.515625 0.265625 -1.109375 0.390625q-0.59375 0.125 -1.453125 0.125z" fill-rule="nonzero"/><path fill="#000000" fill-opacity="0.0" d="m298.12335 23.394518l60.566925 0l0 23.874014l-60.566925 0z" fill-rule="evenodd"/><path fill="#000000" d="m323.81772 30.6159l0 6.156248q0 1.0625 -0.46875 1.859375q-0.46875 0.78125 -1.359375 1.203125q-0.890625 0.421875 -2.109375 0.421875q-1.84375 0 -2.859375 -0.9375q-1.015625 -0.9375 -1.015625 -2.578125l0 -6.124998l2.015625 0l0 5.828123q0 1.09375 0.4375 1.609375q0.453125 0.515625 1.46875 0.515625q1.0 0 1.4375 -0.515625q0.453125 -0.515625 0.453125 -1.625l0 -5.812498l2.0 0zm6.3554077 9.515623l-2.2812195 -7.46875l-0.0625 0q0.125 2.28125 0.125 3.046875l0 4.421875l-1.796875 0l0 -9.515623l2.734375 0l2.2655945 7.281248l0.03125 0l2.390625 -7.281248l2.75 0l0 9.515623l-1.890625 0l0 -4.5q0 -0.328125 0.015625 -0.734375q0.015625 -0.421875 0.09375 -2.21875l-0.0625 0l-2.453125 7.453125l-1.859375 0zm8.551086 0l0 -9.515623l2.015625 0l0 9.515623l-2.015625 0z" fill-rule="nonzero"/><path fill="#000000" fill-opacity="0.0" d="m347.55118 101.55905l139.62204 0l0 23.874016l-139.62204 0z" fill-rule="evenodd"/><path fill="#999999" d="m382.3732 113.26481l0.65625 0q0.9375 0 1.390625 -0.359375q0.46875 -0.375 0.46875 -1.078125q0 -0.71875 -0.390625 -1.046875q-0.390625 -0.34375 -1.21875 -0.34375l-0.90625 0l0 2.828125zm4.546875 -1.515625q0 1.53125 -0.96875 2.34375q-0.953125 0.8125 -2.71875 0.8125l-0.859375 0l0 3.390625l-2.015625 0l0 -9.515625l3.03125 0q1.734375 0 2.625 0.75q0.90625 0.734375 0.90625 2.21875zm3.2285156 2.890625q0 1.078125 0.34375 1.640625q0.359375 0.546875 1.15625 0.546875q0.796875 0 1.140625 -0.546875q0.359375 -0.546875 0.359375 -1.640625q0 -1.078125 -0.359375 -1.609375q-0.34375 -0.546875 -1.140625 -0.546875q-0.796875 0 -1.15625 0.546875q-0.34375 0.53125 -0.34375 1.609375zm5.03125 0q0 1.78125 -0.9375 2.78125q-0.9375 1.0 -2.609375 1.0q-1.046875 0 -1.859375 -0.453125q-0.796875 -0.453125 -1.234375 -1.3125q-0.421875 -0.859375 -0.421875 -2.015625q0 -1.78125 0.921875 -2.765625q0.9375 -0.984375 2.625 -0.984375q1.046875 0 1.84375 0.453125q0.8125 0.453125 1.234375 1.3125q0.4375 0.84375 0.4375 1.984375zm3.6269836 3.65625l-1.984375 0l0 -10.125l1.984375 0l0 10.125zm1.0361633 -7.28125l2.171875 0l1.375 4.09375q0.171875 0.53125 0.234375 1.265625l0.046875 0q0.0625 -0.671875 0.28125 -1.265625l1.34375 -4.09375l2.125 0l-3.078125 8.21875q-0.421875 1.125 -1.203125 1.6875q-0.78125 0.578125 -1.828125 0.578125q-0.515625 0 -1.015625 -0.109375l0 -1.578125q0.359375 0.078125 0.78125 0.078125q0.53125 0 0.921875 -0.328125q0.390625 -0.3125 0.609375 -0.953125l0.125 -0.359375l-2.890625 -7.234375zm8.112946 3.625q0 -1.71875 0.5 -3.21875q0.515625 -1.5 1.46875 -2.640625l1.625 0q-0.921875 1.25 -1.390625 2.765625q-0.46875 1.5 -0.46875 3.09375q0 1.59375 0.46875 3.078125q0.484375 1.484375 1.375 2.6875l-1.609375 0q-0.96875 -1.109375 -1.46875 -2.578125q-0.5 -1.484375 -0.5 -3.1875zm7.3289795 3.78125q-1.28125 0 -2.015625 -0.984375q-0.734375 -1.0 -0.734375 -2.765625q0 -1.796875 0.75 -2.78125q0.75 -1.0 2.046875 -1.0q1.375 0 2.109375 1.0625l0.0625 0q-0.15625 -0.8125 -0.15625 -1.453125l0 -2.328125l2.0 0l0 10.125l-1.53125 0l-0.375 -0.9375l-0.09375 0q-0.671875 1.0625 -2.0625 1.0625zm0.703125 -1.578125q0.75 0 1.109375 -0.4375q0.359375 -0.453125 0.390625 -1.5l0 -0.21875q0 -1.171875 -0.359375 -1.671875q-0.359375 -0.515625 -1.171875 -0.515625q-0.671875 0 -1.046875 0.5625q-0.359375 0.5625 -0.359375 1.640625q0 1.0625 0.359375 1.609375q0.375 0.53125 1.078125 0.53125zm9.262329 1.453125l-2.03125 0l0 -7.828125l-2.578125 0l0 -1.6875l7.1875 0l0 1.6875l-2.578125 0l0 7.828125zm6.8276978 -3.65625q0 1.71875 -0.515625 3.203125q-0.5 1.46875 -1.4375 2.5625l-1.625 0q0.875 -1.203125 1.359375 -2.6875q0.484375 -1.484375 0.484375 -3.078125q0 -1.59375 -0.46875 -3.09375q-0.46875 -1.515625 -1.390625 -2.765625l1.640625 0q0.953125 1.140625 1.453125 2.65625q0.5 1.5 0.5 3.203125zm10.619293 -5.859375l2.03125 0l-3.234375 9.515625l-2.1875 0l-3.234375 -9.515625l2.03125 0l1.796875 5.65625q0.140625 0.515625 0.296875 1.1875q0.171875 0.65625 0.203125 0.921875q0.078125 -0.609375 0.5 -2.109375l1.796875 -5.65625zm11.677612 9.515625l-2.5625 0l-4.140625 -7.203125l-0.0625 0q0.125 1.90625 0.125 2.71875l0 4.484375l-1.796875 0l0 -9.515625l2.53125 0l4.140625 7.125l0.046875 0q-0.09375 -1.859375 -0.09375 -2.625l0 -4.5l1.8125 0l0 9.515625z" fill-rule="nonzero"/><path fill="#000000" fill-opacity="0.0" d="m601.66406 173.55905l114.48816 0l0 23.874023l-114.48816 0z" fill-rule="evenodd"/><path fill="#000000" d="m640.0131 184.99919l0.640625 0q0.96875 0 1.421875 -0.3125q0.453125 -0.3125 0.453125 -1.0q0 -0.671875 -0.46875 -0.953125q-0.46875 -0.296875 -1.4375 -0.296875l-0.609375 0l0 2.5625zm0 1.640625l0 3.65625l-2.015625 0l0 -9.515625l2.765625 0q1.9375 0 2.859375 0.703125q0.9375 0.703125 0.9375 2.140625q0 0.84375 -0.46875 1.5q-0.453125 0.65625 -1.296875 1.03125q2.140625 3.203125 2.796875 4.140625l-2.234375 0l-2.28125 -3.65625l-1.0625 0zm9.62677 -2.34375q-0.625 0 -0.984375 0.40625q-0.359375 0.390625 -0.40625 1.125l2.78125 0q-0.015625 -0.734375 -0.390625 -1.125q-0.359375 -0.40625 -1.0 -0.40625zm0.28125 6.125q-1.75 0 -2.75 -0.96875q-0.984375 -0.96875 -0.984375 -2.734375q0 -1.84375 0.90625 -2.828125q0.921875 -1.0 2.546875 -1.0q1.53125 0 2.390625 0.875q0.859375 0.875 0.859375 2.421875l0 0.96875l-4.6875 0q0.03125 0.84375 0.5 1.328125q0.46875 0.46875 1.3125 0.46875q0.65625 0 1.234375 -0.140625q0.59375 -0.140625 1.234375 -0.4375l0 1.53125q-0.515625 0.265625 -1.109375 0.390625q-0.59375 0.125 -1.453125 0.125zm9.202637 -0.125l-0.375 -0.984375l-0.0625 0q-0.5 0.625 -1.03125 0.875q-0.53125 0.234375 -1.375 0.234375q-1.046875 0 -1.65625 -0.59375q-0.59375 -0.59375 -0.59375 -1.703125q0 -1.15625 0.8125 -1.703125q0.8125 -0.5625 2.4375 -0.609375l1.265625 -0.046875l0 -0.3125q0 -1.109375 -1.140625 -1.109375q-0.859375 0 -2.046875 0.53125l-0.65625 -1.34375q1.265625 -0.65625 2.78125 -0.65625q1.46875 0 2.25 0.640625q0.78125 0.625 0.78125 1.9375l0 4.84375l-1.390625 0zm-0.578125 -3.375l-0.765625 0.03125q-0.875 0.03125 -1.296875 0.3125q-0.421875 0.28125 -0.421875 0.875q0 0.828125 0.96875 0.828125q0.6875 0 1.09375 -0.390625q0.421875 -0.390625 0.421875 -1.046875l0 -0.609375zm6.315918 3.5q-1.28125 0 -2.015625 -0.984375q-0.734375 -1.0 -0.734375 -2.765625q0 -1.796875 0.75 -2.78125q0.75 -1.0 2.046875 -1.0q1.375 0 2.109375 1.0625l0.0625 0q-0.15625 -0.8125 -0.15625 -1.453125l0 -2.328125l2.0 0l0 10.125l-1.53125 0l-0.375 -0.9375l-0.09375 0q-0.671875 1.0625 -2.0625 1.0625zm0.703125 -1.578125q0.75 0 1.109375 -0.4375q0.359375 -0.453125 0.390625 -1.5l0 -0.21875q0 -1.171875 -0.359375 -1.671875q-0.359375 -0.515625 -1.171875 -0.515625q-0.671875 0 -1.046875 0.5625q-0.359375 0.5625 -0.359375 1.640625q0 1.0625 0.359375 1.609375q0.375 0.53125 1.078125 0.53125zm15.036987 1.453125l-6.65625 0l0 -1.40625l2.390625 -2.40625q1.0625 -1.09375 1.390625 -1.5q0.328125 -0.421875 0.46875 -0.78125q0.140625 -0.359375 0.140625 -0.75q0 -0.5625 -0.328125 -0.84375q-0.3125 -0.28125 -0.828125 -0.28125q-0.5625 0 -1.078125 0.25q-0.515625 0.25 -1.09375 0.71875l-1.09375 -1.296875q0.703125 -0.59375 1.171875 -0.84375q0.46875 -0.25 1.015625 -0.375q0.546875 -0.140625 1.21875 -0.140625q0.890625 0 1.5625 0.328125q0.6875 0.328125 1.0625 0.921875q0.390625 0.578125 0.390625 1.328125q0 0.65625 -0.234375 1.234375q-0.234375 0.578125 -0.71875 1.1875q-0.484375 0.609375 -1.703125 1.71875l-1.21875 1.15625l0 0.09375l4.140625 0l0 1.6875z" fill-rule="nonzero"/><path fill="#000000" fill-opacity="0.0" d="m753.66406 101.55905l114.48816 0l0 23.874016l-114.48816 0z" fill-rule="evenodd"/><path fill="#999999" d="m806.1385 113.26481l0.65625 0q0.9375 0 1.390625 -0.359375q0.46875 -0.375 0.46875 -1.078125q0 -0.71875 -0.390625 -1.046875q-0.390625 -0.34375 -1.21875 -0.34375l-0.90625 0l0 2.828125zm4.546875 -1.515625q0 1.53125 -0.96875 2.34375q-0.953125 0.8125 -2.71875 0.8125l-0.859375 0l0 3.390625l-2.015625 0l0 -9.515625l3.03125 0q1.734375 0 2.625 0.75q0.90625 0.734375 0.90625 2.21875zm2.0878296 6.546875l3.5625 -7.8125l-4.6875 0l0 -1.6875l6.828125 0l0 1.265625l-3.609375 8.234375l-2.09375 0z" fill-rule="nonzero"/><path fill="#000000" fill-opacity="0.0" d="m667.5512 101.55905l139.62201 0l0 23.874016l-139.62201 0z" fill-rule="evenodd"/><path fill="#999999" d="m719.7474 107.65543q0 1.28125 -0.9375 2.03125q-0.921875 0.734375 -2.5625 0.734375q-1.53125 0 -2.703125 -0.5625l0 -1.875q0.96875 0.421875 1.625 0.609375q0.671875 0.171875 1.234375 0.171875q0.65625 0 1.0 -0.25q0.359375 -0.265625 0.359375 -0.765625q0 -0.28125 -0.15625 -0.5q-0.15625 -0.21875 -0.453125 -0.40625q-0.296875 -0.203125 -1.234375 -0.65625q-0.875 -0.40625 -1.3125 -0.78125q-0.421875 -0.375 -0.6875 -0.875q-0.265625 -0.515625 -0.265625 -1.171875q0 -1.265625 0.859375 -1.984375q0.859375 -0.734375 2.359375 -0.734375q0.75 0 1.421875 0.1875q0.671875 0.171875 1.40625 0.484375l-0.640625 1.578125q-0.765625 -0.3125 -1.265625 -0.4375q-0.5 -0.125 -0.984375 -0.125q-0.5625 0 -0.875 0.265625q-0.3125 0.265625 -0.3125 0.6875q0 0.28125 0.125 0.484375q0.125 0.1875 0.390625 0.375q0.28125 0.1875 1.28125 0.65625q1.34375 0.640625 1.828125 1.28125q0.5 0.640625 0.5 1.578125zm6.1846313 2.640625l-0.375 -0.984375l-0.0625 0q-0.5 0.625 -1.03125 0.875q-0.53125 0.234375 -1.375 0.234375q-1.046875 0 -1.65625 -0.59375q-0.59375 -0.59375 -0.59375 -1.703125q0 -1.15625 0.8125 -1.703125q0.8125 -0.5625 2.4375 -0.609375l1.265625 -0.046875l0 -0.3125q0 -1.109375 -1.140625 -1.109375q-0.859375 0 -2.046875 0.53125l-0.65625 -1.34375q1.265625 -0.65625 2.78125 -0.65625q1.46875 0 2.25 0.640625q0.78125 0.625 0.78125 1.9375l0 4.84375l-1.390625 0zm-0.578125 -3.375l-0.765625 0.03125q-0.875 0.03125 -1.296875 0.3125q-0.421875 0.28125 -0.421875 0.875q0 0.828125 0.96875 0.828125q0.6875 0 1.09375 -0.390625q0.421875 -0.390625 0.421875 -1.046875l0 -0.609375zm10.534668 3.375l-1.984375 0l0 -4.25q0 -0.78125 -0.265625 -1.171875q-0.265625 -0.40625 -0.828125 -0.40625q-0.765625 0 -1.109375 0.5625q-0.34381104 0.5625 -0.34381104 1.84375l0 3.421875l-1.984375 0l0 -7.28125l1.515625 0l0.265625 0.9375l0.109375 0q0.29693604 -0.5 0.84381104 -0.78125q0.546875 -0.28125 1.265625 -0.28125q1.640625 0 2.21875 1.0625l0.171875 0q0.296875 -0.515625 0.859375 -0.78125q0.578125 -0.28125 1.296875 -0.28125q1.234375 0 1.859375 0.640625q0.640625 0.625 0.640625 2.015625l0 4.75l-2.0 0l0 -4.25q0 -0.78125 -0.265625 -1.171875q-0.25 -0.40625 -0.828125 -0.40625q-0.71875 0 -1.078125 0.53125q-0.359375 0.515625 -0.359375 1.640625l0 3.65625zm10.556091 0.125q-1.28125 0 -2.0 -0.921875l-0.109375 0q0.109375 0.90625 0.109375 1.046875l0 2.953125l-1.984375 0l0 -10.484375l1.609375 0l0.28125 0.953125l0.09375 0q0.6875 -1.078125 2.0625 -1.078125q1.28125 0 2.0 1.0q0.734375 0.984375 0.734375 2.75q0 1.171875 -0.34375 2.03125q-0.328125 0.859375 -0.96875 1.3125q-0.625 0.4375 -1.484375 0.4375zm-0.578125 -5.953125q-0.734375 0 -1.078125 0.453125q-0.328125 0.453125 -0.34375 1.5l0 0.21875q0 1.15625 0.34375 1.671875q0.34375 0.5 1.109375 0.5q1.328125 0 1.328125 -2.1875q0 -1.078125 -0.328125 -1.609375q-0.328125 -0.546875 -1.03125 -0.546875zm7.012329 5.828125l-1.984375 0l0 -10.125l1.984375 0l0 10.125zm5.083008 -6.0q-0.625 0 -0.984375 0.40625q-0.359375 0.390625 -0.40625 1.125l2.78125 0q-0.015625 -0.734375 -0.390625 -1.125q-0.359375 -0.40625 -1.0 -0.40625zm0.28125 6.125q-1.75 0 -2.75 -0.96875q-0.984375 -0.96875 -0.984375 -2.734375q0 -1.84375 0.90625 -2.828125q0.921875 -1.0 2.546875 -1.0q1.53125 0 2.390625 0.875q0.859375 0.875 0.859375 2.421875l0 0.96875l-4.6875 0q0.03125 0.84375 0.5 1.328125q0.46875 0.46875 1.3125 0.46875q0.65625 0 1.234375 -0.140625q0.59375 -0.140625 1.234375 -0.4375l0 1.53125q-0.515625 0.265625 -1.109375 0.390625q-0.59375 0.125 -1.453125 0.125z" fill-rule="nonzero"/><path fill="#999999" d="m719.97235 126.29606l0 -9.515625l2.015625 0l0 9.515625l-2.015625 0zm10.9591675 0l-1.984375 0l0 -4.25q0 -0.78125 -0.28125 -1.171875q-0.265625 -0.40625 -0.890625 -0.40625q-0.828125 0 -1.203125 0.5625q-0.359375 0.546875 -0.359375 1.84375l0 3.421875l-1.984375 0l0 -7.28125l1.515625 0l0.265625 0.9375l0.109375 0q0.328125 -0.53125 0.90625 -0.796875q0.59375 -0.265625 1.328125 -0.265625q1.265625 0 1.921875 0.6875q0.65625 0.671875 0.65625 1.96875l0 4.75zm4.3533936 0.125q-1.28125 0 -2.015625 -0.984375q-0.734375 -1.0 -0.734375 -2.765625q0 -1.796875 0.75 -2.78125q0.75 -1.0 2.046875 -1.0q1.375 0 2.109375 1.0625l0.0625 0q-0.15625 -0.8125 -0.15625 -1.453125l0 -2.328125l2.0 0l0 10.125l-1.53125 0l-0.375 -0.9375l-0.09375 0q-0.671875 1.0625 -2.0625 1.0625zm0.703125 -1.578125q0.75 0 1.109375 -0.4375q0.359375 -0.453125 0.390625 -1.5l0 -0.21875q0 -1.171875 -0.359375 -1.671875q-0.359375 -0.515625 -1.171875 -0.515625q-0.671875 0 -1.046875 0.5625q-0.359375 0.5625 -0.359375 1.640625q0 1.0625 0.359375 1.609375q0.375 0.53125 1.078125 0.53125zm8.434204 -4.546875q-0.625 0 -0.984375 0.40625q-0.359375 0.390625 -0.40625 1.125l2.78125 0q-0.015625 -0.734375 -0.390625 -1.125q-0.359375 -0.40625 -1.0 -0.40625zm0.28125 6.125q-1.75 0 -2.75 -0.96875q-0.984375 -0.96875 -0.984375 -2.734375q0 -1.84375 0.90625 -2.828125q0.921875 -1.0 2.546875 -1.0q1.53125 0 2.390625 0.875q0.859375 0.875 0.859375 2.421875l0 0.96875l-4.6875 0q0.03125 0.84375 0.5 1.328125q0.46875 0.46875 1.3125 0.46875q0.65625 0 1.234375 -0.140625q0.59375 -0.140625 1.234375 -0.4375l0 1.53125q-0.515625 0.265625 -1.109375 0.390625q-0.59375 0.125 -1.453125 0.125zm6.0776367 -3.84375l-2.34375 -3.5625l2.25 0l1.421875 2.328125l1.421875 -2.328125l2.25 0l-2.375 3.5625l2.484375 3.71875l-2.265625 0l-1.515625 -2.5l-1.546875 2.5l-2.25 0l2.46875 -3.71875z" fill-rule="nonzero"/><path fill="#000000" fill-opacity="0.0" d="m129.25984 53.93506l585.51184 0" fill-rule="evenodd"/><path stroke="#434343" stroke-width="3.0" stroke-linejoin="round" stroke-linecap="butt" d="m129.25984 53.93506l575.2306 0" fill-rule="evenodd"/><path fill="#434343" stroke="#434343" stroke-width="3.0" stroke-linecap="butt" d="m704.4904 53.93506l-3.3737793 3.3737526l9.269287 -3.3737526l-9.269287 -3.3737488z" fill-rule="evenodd"/><path fill="#000000" fill-opacity="0.0" d="m129.25984 173.93506l585.51184 0" fill-rule="evenodd"/><path stroke="#434343" stroke-width="3.0" stroke-linejoin="round" stroke-linecap="butt" d="m139.5411 173.93506l575.2306 0" fill-rule="evenodd"/><path fill="#434343" stroke="#434343" stroke-width="3.0" stroke-linecap="butt" d="m139.5411 173.93506l3.3737488 -3.3737488l-9.269302 3.3737488l9.269302 3.3737488z" fill-rule="evenodd"/><g filter="url(#shadowFilter-p.15)"><use xlink:href="#p.15" transform="matrix(1.0 0.0 0.0 1.0 0.0 2.0)"/></g><defs><filter id="shadowFilter-p.15" filterUnits="userSpaceOnUse"><feGaussianBlur in="SourceAlpha" stdDeviation="2.0" result="blur"/><feComponentTransfer in="blur" color-interpolation-filters="sRGB"><feFuncR type="linear" slope="0" intercept="0.0"/><feFuncG type="linear" slope="0" intercept="0.0"/><feFuncB type="linear" slope="0" intercept="0.0"/><feFuncA type="linear" slope="0.5" intercept="0"/></feComponentTransfer></filter></defs><g id="p.15"><path fill="#6aa84f" d="m243.04724 66.685036l65.165344 0l0 29.354332l-65.165344 0z" fill-rule="evenodd"/></g><g filter="url(#shadowFilter-p.16)"><use xlink:href="#p.16" transform="matrix(1.0 0.0 0.0 1.0 0.0 2.0)"/></g><defs><filter id="shadowFilter-p.16" filterUnits="userSpaceOnUse"><feGaussianBlur in="SourceAlpha" stdDeviation="2.0" result="blur"/><feComponentTransfer in="blur" color-interpolation-filters="sRGB"><feFuncR type="linear" slope="0" intercept="0.0"/><feFuncG type="linear" slope="0" intercept="0.0"/><feFuncB type="linear" slope="0" intercept="0.0"/><feFuncA type="linear" slope="0.5" intercept="0"/></feComponentTransfer></filter></defs><g id="p.16"><path fill="#6aa84f" d="m243.04724 130.68504l65.165344 0l0 29.354324l-65.165344 0z" fill-rule="evenodd"/></g><g filter="url(#shadowFilter-p.17)"><use xlink:href="#p.17" transform="matrix(1.0 0.0 0.0 1.0 0.0 2.0)"/></g><defs><filter id="shadowFilter-p.17" filterUnits="userSpaceOnUse"><feGaussianBlur in="SourceAlpha" stdDeviation="2.0" result="blur"/><feComponentTransfer in="blur" color-interpolation-filters="sRGB"><feFuncR type="linear" slope="0" intercept="0.0"/><feFuncG type="linear" slope="0" intercept="0.0"/><feFuncB type="linear" slope="0" intercept="0.0"/><feFuncA type="linear" slope="0.5" intercept="0"/></feComponentTransfer></filter></defs><g id="p.17"><path fill="#ff0000" d="m308.2126 66.685036l39.338593 0l0 29.354332l-39.338593 0z" fill-rule="evenodd"/></g><g filter="url(#shadowFilter-p.18)"><use xlink:href="#p.18" transform="matrix(1.0 0.0 0.0 1.0 0.0 2.0)"/></g><defs><filter id="shadowFilter-p.18" filterUnits="userSpaceOnUse"><feGaussianBlur in="SourceAlpha" stdDeviation="2.0" result="blur"/><feComponentTransfer in="blur" color-interpolation-filters="sRGB"><feFuncR type="linear" slope="0" intercept="0.0"/><feFuncG type="linear" slope="0" intercept="0.0"/><feFuncB type="linear" slope="0" intercept="0.0"/><feFuncA type="linear" slope="0.5" intercept="0"/></feComponentTransfer></filter></defs><g id="p.18"><path fill="#ff0000" d="m308.2126 130.68504l39.338593 0l0 29.354324l-39.338593 0z" fill-rule="evenodd"/></g></g></svg>