<svg xmlns="http://www.w3.org/2000/svg" xml:space="preserve" width="566.233" height="106.957" viewBox="0 0 566.233 106.957"><defs><clipPath clipPathUnits="userSpaceOnUse" id="a"><path d="M0 595.28h841.89V0H0Z"/></clipPath></defs><path d="M0 0v-80.218h55.579v18.481H21.974v12.135h11.118v18.92H21.974v12.201h33.605V0Z" style="fill:#c61f16;fill-opacity:1;fill-rule:nonzero;stroke:none" transform="scale(1.33333 -1.33333)"/><path d="M219.524 322.892h-10.5v-18.919h10.5z" style="fill:#c61f16;fill-opacity:1;fill-rule:nonzero;stroke:none" transform="matrix(1.33333 0 0 -1.33333 -218.595 471.431)"/><g clip-path="url(#a)" transform="matrix(1.33333 0 0 -1.33333 -218.595 471.431)"><path d="M0 0c-1.103-.101-2.005.139-2.613.694-.6.548-.905 1.386-.905 2.489l.013 24.54-4.584.017.05-24.994c0-4.42 2.535-6.954 6.955-6.954.684 0 1.275.172 1.3.179l.416.123V.057z" style="fill:#4e515a;fill-opacity:1;fill-rule:nonzero;stroke:none" transform="translate(318.683 301.606)"/><path d="M0 0v4.128h-7.162v6.812h-4.521V4.128h-3.144V0h3.144v-13.045c0-4.42 2.536-6.955 6.955-6.955 1.603 0 2.978.326 4.328 1.026l.313.163v4.154l-.831-.399c-1.075-.517-1.951-.728-3.023-.728-2.228 0-3.221.98-3.221 3.176V0Z" style="fill:#4e515a;fill-opacity:1;fill-rule:nonzero;stroke:none" transform="translate(496.631 317.288)"/><path d="m0 0-.085.026c-2.732.831-5.313 1.616-5.313 3.307v.087c0 1.612 1.522 2.696 3.787 2.696 1.99 0 4.311-.762 6.368-2.091l.501-.324 2.124 3.52-.464.307c-2.45 1.618-5.606 2.585-8.441 2.585-4.866 0-8.265-2.896-8.265-7.043v-.087c0-4.693 4.559-5.988 7.891-6.933 2.952-.825 5.21-1.6 5.21-3.416v-.087c0-1.795-1.645-3.002-4.093-3.002-2.474 0-5.057.957-7.47 2.767l-.476.356-2.36-3.33.422-.341c2.624-2.127 6.344-3.448 9.709-3.448 5.153 0 8.614 2.953 8.614 7.348v.087C7.659-2.297 3.048-.915 0 0" style="fill:#4e515a;fill-opacity:1;fill-rule:nonzero;stroke:none" transform="translate(471.926 311.696)"/><path d="M0 0c-2.943 0-5.34-1.072-7.15-3.193v2.712h-4.521v-23.734h4.521v13.505c0 3.824 2.545 6.494 6.189 6.494 3.6 0 5.665-2.272 5.665-6.232v-13.767h4.521v14.596C9.225-3.776 5.604 0 0 0" style="fill:#4e515a;fill-opacity:1;fill-rule:nonzero;stroke:none" transform="translate(449.153 321.897)"/><path d="M0 0v-13.504c0-3.825-2.545-6.495-6.189-6.495-3.6 0-5.665 2.271-5.665 6.232V0h-4.521v-14.597c0-5.842 3.622-9.618 9.226-9.618 2.954 0 5.308 1.055 7.149 3.212v-2.732h4.478V0Z" style="fill:#4e515a;fill-opacity:1;fill-rule:nonzero;stroke:none" transform="translate(542.652 321.416)"/><path d="M0 0v4.128h-7.162v6.812h-4.521V4.128h-3.144V0h3.144v-13.045c0-4.42 2.535-6.955 6.955-6.955 1.603 0 2.979.326 4.327 1.026l.313.163v4.155l-.83-.4c-1.075-.517-1.95-.728-3.023-.728-2.228 0-3.221.98-3.221 3.176V0Z" style="fill:#4e515a;fill-opacity:1;fill-rule:nonzero;stroke:none" transform="translate(564.656 317.288)"/><path d="M0 0v4.128h-7.162v6.812h-4.521V4.128h-3.144V0h3.144v-13.045c0-4.42 2.535-6.955 6.955-6.955 1.603 0 2.978.326 4.327 1.026l.313.163v4.155l-.83-.4c-1.075-.517-1.951-.728-3.024-.728-2.227 0-3.22.98-3.22 3.176V0Z" style="fill:#4e515a;fill-opacity:1;fill-rule:nonzero;stroke:none" transform="translate(523.719 317.288)"/><path d="M500.645 323.355h4.571v4.873h-4.571zm.022-25.674h4.521v23.735h-4.521z" style="fill:#4e515a;fill-opacity:1;fill-rule:nonzero;stroke:none"/><path d="M0 0c-3.289 0-5.877-1.303-7.887-3.978C-9.457-1.404-12.02 0-15.197 0c-3.275 0-5.308-1.469-6.713-3.116v2.635h-4.52v-23.734h4.52v13.46c0 3.789 2.401 6.539 5.71 6.539 3.273 0 5.228-2.297 5.228-6.145v-13.854h4.521v13.592c0 3.833 2.259 6.407 5.621 6.407 3.4 0 5.273-2.213 5.273-6.232v-13.767h4.521v14.553C8.964-3.703 5.529 0 0 0" style="fill:#4e515a;fill-opacity:1;fill-rule:nonzero;stroke:none" transform="translate(398.083 321.853)"/><path d="M0 0h16.681v4.303H0v9.277h18.646v4.303H-4.608v-31.726h23.473v4.303H0Z" style="fill:#4e515a;fill-opacity:1;fill-rule:nonzero;stroke:none" transform="translate(247.7 311.48)"/><path d="M0 0c-3.502.139-6.61-1.547-8.658-4.607v4.215h-4.521v-23.735h4.521v9.575c0 5.935 3.286 9.77 8.372 9.77h.842v4.759z" style="fill:#4e515a;fill-opacity:1;fill-rule:nonzero;stroke:none" transform="translate(306.81 321.765)"/><path d="M0 0c-2.943 0-5.342-1.073-7.151-3.195l-.008 10.686h-4.57l.059-31.706h4.52v13.505c0 3.824 2.545 6.494 6.189 6.494 3.6 0 5.665-2.272 5.665-6.232v-13.767h4.521v14.596C9.225-3.776 5.604 0 0 0" style="fill:#4e515a;fill-opacity:1;fill-rule:nonzero;stroke:none" transform="translate(333.906 321.853)"/><path d="M0 0c.622 3.875 3.297 6.527 6.677 6.527 4.207 0 6.541-3.274 7.052-6.527zm6.765 10.524C.368 10.524-4.644 5.11-4.644-1.802v-.087c0-7.027 5.093-12.326 11.846-12.326 4.096 0 7.634 1.532 10.231 4.428l.387.432-2.946 2.639-.388-.407c-1.851-1.939-4.407-3.008-7.197-3.008-3.789 0-6.65 2.579-7.288 6.483h18.262l.057.516c.047.424.047.715.047 1.155 0 7.244-4.879 12.501-11.602 12.501" style="fill:#4e515a;fill-opacity:1;fill-rule:nonzero;stroke:none" transform="translate(570.254 311.372)"/><path d="M0 0c0-3.155-2.999-5.534-6.975-5.534-2.455 0-5.097 1.226-5.097 3.918v.088c0 2.563 2.248 4.093 6.014 4.093A22.87 22.87 0 0 0 0 1.744zm1.862 12.506c-1.764 1.763-4.355 2.658-7.702 2.658-3.72 0-6.359-.976-8.45-1.93l-.487-.223 1.403-3.843.57.261c1.821.835 3.882 1.607 6.615 1.607 2.803 0 6.145-.967 6.145-5.578v-.029c-1.602.413-3.607.783-6.364.783-6.309 0-10.229-3.016-10.229-7.871v-.088c0-4.995 4.531-7.609 9.006-7.609 3.602 0 6.024 1.417 7.587 2.941v-2.461h4.39V5.501c0 3-.836 5.356-2.484 7.005" style="fill:#4e515a;fill-opacity:1;fill-rule:nonzero;stroke:none" transform="translate(362.908 306.514)"/><path d="M0 0c0-3.155-2.999-5.534-6.975-5.534-2.455 0-5.097 1.226-5.097 3.918v.088c0 2.563 2.248 4.093 6.014 4.093A22.87 22.87 0 0 0 0 1.744zm1.862 12.506c-1.764 1.763-4.355 2.658-7.702 2.658-3.72 0-6.359-.976-8.45-1.93l-.487-.223 1.403-3.843.57.261c1.821.835 3.882 1.607 6.615 1.607 2.803 0 6.145-.967 6.145-5.578v-.029c-1.602.413-3.607.783-6.364.783-6.309 0-10.229-3.016-10.229-7.871v-.088c0-4.995 4.531-7.609 9.006-7.609 3.602 0 6.024 1.417 7.587 2.941v-2.461h4.39V5.501c0 3-.836 5.356-2.484 7.005" style="fill:#4e515a;fill-opacity:1;fill-rule:nonzero;stroke:none" transform="translate(285.623 306.514)"/><path d="M0 0c-1.103-.101-2.005.139-2.613.694-.6.548-.905 1.386-.905 2.489l.013 24.54-4.584.017.05-24.994c0-4.42 2.535-6.954 6.955-6.954.684 0 1.275.172 1.3.179l.416.123V.057z" style="fill:#4e515a;fill-opacity:1;fill-rule:nonzero;stroke:none" transform="translate(318.683 301.606)"/><path d="M0 0v4.128h-7.162v6.812h-4.521V4.128h-3.144V0h3.144v-13.045c0-4.42 2.536-6.955 6.955-6.955 1.603 0 2.978.326 4.328 1.026l.313.163v4.154l-.831-.399c-1.075-.517-1.951-.728-3.023-.728-2.228 0-3.221.98-3.221 3.176V0Z" style="fill:#4e515a;fill-opacity:1;fill-rule:nonzero;stroke:none" transform="translate(496.631 317.288)"/><path d="m0 0-.085.026c-2.732.831-5.313 1.616-5.313 3.307v.087c0 1.612 1.522 2.696 3.787 2.696 1.99 0 4.311-.762 6.368-2.091l.501-.324 2.124 3.52-.464.307c-2.45 1.618-5.606 2.585-8.441 2.585-4.866 0-8.265-2.896-8.265-7.043v-.087c0-4.693 4.559-5.988 7.891-6.933 2.952-.825 5.21-1.6 5.21-3.416v-.087c0-1.795-1.645-3.002-4.093-3.002-2.474 0-5.057.957-7.47 2.767l-.476.356-2.36-3.33.422-.341c2.624-2.127 6.344-3.448 9.709-3.448 5.153 0 8.614 2.953 8.614 7.348v.087C7.659-2.297 3.048-.915 0 0" style="fill:#4e515a;fill-opacity:1;fill-rule:nonzero;stroke:none" transform="translate(471.926 311.696)"/><path d="M0 0c-2.943 0-5.34-1.072-7.15-3.193v2.712h-4.521v-23.734h4.521v13.505c0 3.824 2.545 6.494 6.189 6.494 3.6 0 5.665-2.272 5.665-6.232v-13.767h4.521v14.596C9.225-3.776 5.604 0 0 0" style="fill:#4e515a;fill-opacity:1;fill-rule:nonzero;stroke:none" transform="translate(449.153 321.897)"/><path d="M0 0v-13.504c0-3.825-2.545-6.495-6.189-6.495-3.6 0-5.665 2.271-5.665 6.232V0h-4.521v-14.597c0-5.842 3.622-9.618 9.226-9.618 2.954 0 5.308 1.055 7.149 3.212v-2.732h4.478V0Z" style="fill:#4e515a;fill-opacity:1;fill-rule:nonzero;stroke:none" transform="translate(542.652 321.416)"/><path d="M0 0v4.128h-7.162v6.812h-4.521V4.128h-3.144V0h3.144v-13.045c0-4.42 2.535-6.955 6.955-6.955 1.603 0 2.979.326 4.327 1.026l.313.163v4.155l-.83-.4c-1.075-.517-1.95-.728-3.023-.728-2.228 0-3.221.98-3.221 3.176V0Z" style="fill:#4e515a;fill-opacity:1;fill-rule:nonzero;stroke:none" transform="translate(564.656 317.288)"/><path d="M0 0v4.128h-7.162v6.812h-4.521V4.128h-3.144V0h3.144v-13.045c0-4.42 2.535-6.955 6.955-6.955 1.603 0 2.978.326 4.327 1.026l.313.163v4.155l-.83-.4c-1.075-.517-1.951-.728-3.024-.728-2.227 0-3.22.98-3.22 3.176V0Z" style="fill:#4e515a;fill-opacity:1;fill-rule:nonzero;stroke:none" transform="translate(523.719 317.288)"/><path d="M500.645 323.355h4.571v4.873h-4.571zm.022-25.674h4.521v23.735h-4.521z" style="fill:#4e515a;fill-opacity:1;fill-rule:nonzero;stroke:none"/><path d="M0 0c-3.289 0-5.877-1.303-7.887-3.978C-9.457-1.404-12.02 0-15.197 0c-3.275 0-5.308-1.469-6.713-3.116v2.635h-4.52v-23.734h4.52v13.46c0 3.789 2.401 6.539 5.71 6.539 3.273 0 5.228-2.297 5.228-6.145v-13.854h4.521v13.592c0 3.833 2.259 6.407 5.621 6.407 3.4 0 5.273-2.213 5.273-6.232v-13.767h4.521v14.553C8.964-3.703 5.529 0 0 0" style="fill:#4e515a;fill-opacity:1;fill-rule:nonzero;stroke:none" transform="translate(398.083 321.853)"/><path d="M0 0h16.681v4.303H0v9.277h18.646v4.303H-4.608v-31.726h23.473v4.303H0Z" style="fill:#4e515a;fill-opacity:1;fill-rule:nonzero;stroke:none" transform="translate(247.7 311.48)"/><path d="M0 0c-3.502.139-6.61-1.547-8.658-4.607v4.215h-4.521v-23.735h4.521v9.575c0 5.935 3.286 9.77 8.372 9.77h.842v4.759z" style="fill:#4e515a;fill-opacity:1;fill-rule:nonzero;stroke:none" transform="translate(306.81 321.765)"/><path d="M0 0c-2.943 0-5.342-1.073-7.151-3.195l-.008 10.686h-4.57l.059-31.706h4.52v13.505c0 3.824 2.545 6.494 6.189 6.494 3.6 0 5.665-2.272 5.665-6.232v-13.767h4.521v14.596C9.225-3.776 5.604 0 0 0" style="fill:#4e515a;fill-opacity:1;fill-rule:nonzero;stroke:none" transform="translate(333.906 321.853)"/><path d="M0 0c.622 3.875 3.297 6.527 6.677 6.527 4.207 0 6.541-3.274 7.052-6.527zm6.765 10.524C.368 10.524-4.644 5.11-4.644-1.802v-.087c0-7.027 5.093-12.326 11.846-12.326 4.096 0 7.634 1.532 10.231 4.428l.387.432-2.946 2.639-.388-.407c-1.851-1.939-4.407-3.008-7.197-3.008-3.789 0-6.65 2.579-7.288 6.483h18.262l.057.516c.047.424.047.715.047 1.155 0 7.244-4.879 12.501-11.602 12.501" style="fill:#4e515a;fill-opacity:1;fill-rule:nonzero;stroke:none" transform="translate(570.254 311.372)"/><path d="M0 0c0-3.155-2.999-5.534-6.975-5.534-2.455 0-5.097 1.226-5.097 3.918v.088c0 2.563 2.248 4.093 6.014 4.093A22.87 22.87 0 0 0 0 1.744zm1.862 12.506c-1.764 1.763-4.355 2.658-7.702 2.658-3.72 0-6.359-.976-8.45-1.93l-.487-.223 1.403-3.843.57.261c1.821.835 3.882 1.607 6.615 1.607 2.803 0 6.145-.967 6.145-5.578v-.029c-1.602.413-3.607.783-6.364.783-6.309 0-10.229-3.016-10.229-7.871v-.088c0-4.995 4.531-7.609 9.006-7.609 3.602 0 6.024 1.417 7.587 2.941v-2.461h4.39V5.501c0 3-.836 5.356-2.484 7.005" style="fill:#4e515a;fill-opacity:1;fill-rule:nonzero;stroke:none" transform="translate(362.908 306.514)"/><path d="M0 0c0-3.155-2.999-5.534-6.975-5.534-2.455 0-5.097 1.226-5.097 3.918v.088c0 2.563 2.248 4.093 6.014 4.093A22.87 22.87 0 0 0 0 1.744zm1.862 12.506c-1.764 1.763-4.355 2.658-7.702 2.658-3.72 0-6.359-.976-8.45-1.93l-.487-.223 1.403-3.843.57.261c1.821.835 3.882 1.607 6.615 1.607 2.803 0 6.145-.967 6.145-5.578v-.029c-1.602.413-3.607.783-6.364.783-6.309 0-10.229-3.016-10.229-7.871v-.088c0-4.995 4.531-7.609 9.006-7.609 3.602 0 6.024 1.417 7.587 2.941v-2.461h4.39V5.501c0 3-.836 5.356-2.484 7.005" style="fill:#4e515a;fill-opacity:1;fill-rule:nonzero;stroke:none" transform="translate(285.623 306.514)"/><path d="M0 0v4.02l-14.316.009V-.006l4.91-.006v-23.569l-4.91-.003v-4.038H0v4.038l-4.896.002L-4.908.027z" style="fill:#4e515a;fill-opacity:1;fill-rule:nonzero;stroke:none" transform="translate(433.882 325.325)"/></g></svg>