<?xml version="1.0" encoding="UTF-8" standalone="no"?>
<!DOCTYPE svg PUBLIC "-//W3C//DTD SVG 1.1//EN" "http://www.w3.org/Graphics/SVG/1.1/DTD/svg11.dtd">
<svg width="100%" height="100%" viewBox="0 0 1600 750" version="1.1" xmlns="http://www.w3.org/2000/svg" xmlns:xlink="http://www.w3.org/1999/xlink" xml:space="preserve" xmlns:serif="http://www.serif.com/" style="fill-rule:evenodd;clip-rule:evenodd;stroke-linecap:round;stroke-miterlimit:8;">
    <g transform="matrix(1,0,0,1,-454.157,-70.7805)">
        <g transform="matrix(0.752763,0,0,0.752763,316.145,-874.595)">
            <g transform="matrix(0.989825,0,0,1.04933,-59.7731,-43.4228)">
                <rect x="245.613" y="1238.21" width="2146.14" height="949.297" style="fill:none;"/>
            </g>
            <g transform="matrix(0.500232,0,0,0.499284,250.823,1841.86)">
                <g transform="matrix(667,0,0,667,0,0)">
                    <path d="M0.187,-0.718C0.157,-0.718 0.133,-0.708 0.116,-0.688C0.101,-0.671 0.094,-0.649 0.094,-0.623L0.094,-0.093C0.094,-0.067 0.101,-0.046 0.116,-0.028C0.133,-0.009 0.157,0.001 0.187,0.001L0.326,0.001C0.433,0.001 0.517,-0.035 0.577,-0.106C0.634,-0.172 0.662,-0.256 0.662,-0.358C0.662,-0.461 0.634,-0.545 0.577,-0.61C0.517,-0.682 0.433,-0.718 0.326,-0.718L0.187,-0.718ZM0.197,-0.054C0.183,-0.054 0.172,-0.058 0.164,-0.067C0.158,-0.075 0.154,-0.085 0.154,-0.097L0.154,-0.619C0.154,-0.632 0.158,-0.642 0.164,-0.649C0.172,-0.659 0.183,-0.663 0.197,-0.663L0.326,-0.663C0.413,-0.663 0.482,-0.633 0.531,-0.573C0.577,-0.518 0.601,-0.446 0.601,-0.358C0.601,-0.271 0.577,-0.2 0.531,-0.145C0.482,-0.084 0.413,-0.054 0.326,-0.054L0.197,-0.054Z" style="fill:rgb(79,179,217);fill-rule:nonzero;"/>
                </g>
                <g transform="matrix(667,0,0,667,480.786,0)">
                    <path d="M0.416,-0.125C0.401,-0.098 0.379,-0.077 0.351,-0.063C0.319,-0.046 0.28,-0.037 0.235,-0.037C0.196,-0.037 0.166,-0.046 0.147,-0.063C0.129,-0.078 0.12,-0.102 0.12,-0.134C0.12,-0.167 0.13,-0.192 0.149,-0.209C0.17,-0.227 0.204,-0.24 0.253,-0.246C0.302,-0.253 0.34,-0.26 0.368,-0.269C0.391,-0.276 0.407,-0.283 0.416,-0.291L0.416,-0.125ZM0.282,-0.539C0.228,-0.539 0.184,-0.527 0.15,-0.503C0.117,-0.478 0.096,-0.44 0.088,-0.39C0.086,-0.38 0.088,-0.372 0.094,-0.366C0.099,-0.36 0.105,-0.357 0.113,-0.356C0.122,-0.356 0.129,-0.358 0.135,-0.362C0.142,-0.367 0.146,-0.373 0.147,-0.382C0.151,-0.414 0.162,-0.439 0.182,-0.456C0.204,-0.476 0.237,-0.485 0.281,-0.485C0.327,-0.485 0.361,-0.477 0.384,-0.46C0.405,-0.444 0.416,-0.42 0.416,-0.388C0.416,-0.36 0.406,-0.34 0.387,-0.33C0.367,-0.319 0.322,-0.309 0.252,-0.299C0.173,-0.289 0.119,-0.267 0.089,-0.233C0.069,-0.21 0.059,-0.177 0.059,-0.134C0.059,-0.086 0.073,-0.049 0.103,-0.023C0.132,0.004 0.177,0.018 0.235,0.018C0.278,0.018 0.317,0.01 0.351,-0.005C0.375,-0.016 0.397,-0.031 0.417,-0.05C0.417,-0.03 0.423,-0.015 0.435,-0.007C0.449,0.002 0.475,0.007 0.512,0.007C0.521,0.007 0.528,0.004 0.533,-0.002C0.538,-0.007 0.54,-0.013 0.54,-0.021C0.539,-0.028 0.537,-0.035 0.532,-0.04C0.527,-0.045 0.521,-0.048 0.513,-0.048C0.501,-0.048 0.492,-0.051 0.485,-0.058C0.479,-0.063 0.477,-0.072 0.477,-0.083L0.477,-0.393C0.477,-0.444 0.458,-0.482 0.42,-0.507C0.387,-0.528 0.341,-0.539 0.282,-0.539Z" style="fill:rgb(79,179,217);fill-rule:nonzero;"/>
                </g>
                <g transform="matrix(667,0,0,667,860.122,0)">
                    <path d="M0.111,-0.658L0.111,-0.522L0.059,-0.522C0.044,-0.522 0.036,-0.514 0.036,-0.496C0.036,-0.478 0.044,-0.469 0.059,-0.469L0.111,-0.469L0.111,-0.077C0.111,-0.052 0.119,-0.03 0.135,-0.013C0.152,0.007 0.175,0.018 0.205,0.018L0.251,0.018C0.26,0.018 0.268,0.015 0.273,0.009C0.279,0.004 0.281,-0.003 0.281,-0.01C0.281,-0.018 0.279,-0.024 0.273,-0.029C0.268,-0.035 0.26,-0.037 0.251,-0.037L0.216,-0.037C0.201,-0.037 0.19,-0.042 0.183,-0.052C0.176,-0.06 0.173,-0.069 0.173,-0.081L0.173,-0.469L0.253,-0.469C0.27,-0.469 0.278,-0.478 0.278,-0.496C0.278,-0.514 0.27,-0.522 0.253,-0.522L0.173,-0.522L0.173,-0.658C0.173,-0.668 0.17,-0.675 0.163,-0.681C0.157,-0.685 0.15,-0.688 0.142,-0.688C0.133,-0.688 0.126,-0.685 0.12,-0.681C0.114,-0.675 0.111,-0.668 0.111,-0.658Z" style="fill:rgb(79,179,217);fill-rule:nonzero;"/>
                </g>
                <g transform="matrix(667,0,0,667,1092.78,0)">
                    <path d="M0.416,-0.125C0.401,-0.098 0.379,-0.077 0.351,-0.063C0.319,-0.046 0.28,-0.037 0.235,-0.037C0.196,-0.037 0.166,-0.046 0.147,-0.063C0.129,-0.078 0.12,-0.102 0.12,-0.134C0.12,-0.167 0.13,-0.192 0.149,-0.209C0.17,-0.227 0.204,-0.24 0.253,-0.246C0.302,-0.253 0.34,-0.26 0.368,-0.269C0.391,-0.276 0.407,-0.283 0.416,-0.291L0.416,-0.125ZM0.282,-0.539C0.228,-0.539 0.184,-0.527 0.15,-0.503C0.117,-0.478 0.096,-0.44 0.088,-0.39C0.086,-0.38 0.088,-0.372 0.094,-0.366C0.099,-0.36 0.105,-0.357 0.113,-0.356C0.122,-0.356 0.129,-0.358 0.135,-0.362C0.142,-0.367 0.146,-0.373 0.147,-0.382C0.151,-0.414 0.162,-0.439 0.182,-0.456C0.204,-0.476 0.237,-0.485 0.281,-0.485C0.327,-0.485 0.361,-0.477 0.384,-0.46C0.405,-0.444 0.416,-0.42 0.416,-0.388C0.416,-0.36 0.406,-0.34 0.387,-0.33C0.367,-0.319 0.322,-0.309 0.252,-0.299C0.173,-0.289 0.119,-0.267 0.089,-0.233C0.069,-0.21 0.059,-0.177 0.059,-0.134C0.059,-0.086 0.073,-0.049 0.103,-0.023C0.132,0.004 0.177,0.018 0.235,0.018C0.278,0.018 0.317,0.01 0.351,-0.005C0.375,-0.016 0.397,-0.031 0.417,-0.05C0.417,-0.03 0.423,-0.015 0.435,-0.007C0.449,0.002 0.475,0.007 0.512,0.007C0.521,0.007 0.528,0.004 0.533,-0.002C0.538,-0.007 0.54,-0.013 0.54,-0.021C0.539,-0.028 0.537,-0.035 0.532,-0.04C0.527,-0.045 0.521,-0.048 0.513,-0.048C0.501,-0.048 0.492,-0.051 0.485,-0.058C0.479,-0.063 0.477,-0.072 0.477,-0.083L0.477,-0.393C0.477,-0.444 0.458,-0.482 0.42,-0.507C0.387,-0.528 0.341,-0.539 0.282,-0.539Z" style="fill:rgb(79,179,217);fill-rule:nonzero;"/>
                </g>
                <g transform="matrix(667,0,0,667,1989.5,0)">
                    <path d="M0.381,-0.718L0.187,-0.718C0.157,-0.718 0.133,-0.708 0.116,-0.688C0.101,-0.671 0.094,-0.649 0.094,-0.623L0.094,-0.014C0.094,-0.004 0.097,0.004 0.103,0.01C0.108,0.015 0.116,0.018 0.124,0.018C0.132,0.018 0.139,0.015 0.145,0.01C0.151,0.004 0.154,-0.004 0.154,-0.014L0.154,-0.314L0.381,-0.314C0.444,-0.314 0.494,-0.336 0.531,-0.378C0.565,-0.416 0.582,-0.462 0.582,-0.516C0.582,-0.571 0.565,-0.618 0.531,-0.655C0.494,-0.697 0.444,-0.718 0.381,-0.718ZM0.373,-0.368L0.154,-0.368L0.154,-0.619C0.154,-0.632 0.158,-0.642 0.164,-0.649C0.172,-0.659 0.183,-0.663 0.197,-0.663L0.373,-0.663C0.419,-0.663 0.456,-0.648 0.483,-0.617C0.508,-0.589 0.521,-0.555 0.521,-0.515C0.521,-0.476 0.508,-0.442 0.483,-0.414C0.456,-0.383 0.419,-0.368 0.373,-0.368Z" style="fill:rgb(79,179,217);fill-rule:nonzero;"/>
                </g>
                <g transform="matrix(667,0,0,667,2394.3,0)">
                    <path d="M0.094,-0.702L0.094,-0.093C0.094,-0.067 0.101,-0.046 0.116,-0.028C0.133,-0.009 0.157,0.001 0.187,0.001L0.498,0.001C0.508,0.001 0.516,-0.002 0.521,-0.008C0.527,-0.013 0.529,-0.019 0.529,-0.026C0.529,-0.034 0.527,-0.041 0.521,-0.046C0.516,-0.051 0.508,-0.054 0.498,-0.054L0.197,-0.054C0.183,-0.054 0.172,-0.058 0.164,-0.067C0.158,-0.075 0.154,-0.085 0.154,-0.097L0.154,-0.702C0.154,-0.713 0.151,-0.721 0.145,-0.727C0.139,-0.732 0.132,-0.734 0.124,-0.734C0.116,-0.734 0.108,-0.732 0.103,-0.727C0.097,-0.721 0.094,-0.713 0.094,-0.702Z" style="fill:rgb(79,179,217);fill-rule:nonzero;"/>
                </g>
                <g transform="matrix(667,0,0,667,2747.61,0)">
                    <path d="M0.186,-0.288L0.321,-0.659L0.324,-0.659L0.459,-0.288L0.186,-0.288ZM0.267,-0.688L0.025,-0.026C0.021,-0.016 0.021,-0.007 0.024,0.001C0.028,0.009 0.034,0.014 0.042,0.017C0.05,0.019 0.057,0.019 0.064,0.015C0.073,0.01 0.079,0.003 0.083,-0.007L0.166,-0.234L0.479,-0.234L0.562,-0.007C0.565,0.003 0.571,0.01 0.579,0.015C0.587,0.018 0.595,0.018 0.603,0.016C0.61,0.013 0.616,0.008 0.619,0.001C0.623,-0.007 0.623,-0.017 0.62,-0.026L0.378,-0.688C0.373,-0.703 0.365,-0.715 0.354,-0.723C0.345,-0.73 0.334,-0.733 0.323,-0.733C0.311,-0.733 0.3,-0.73 0.29,-0.723C0.28,-0.715 0.272,-0.703 0.267,-0.688Z" style="fill:rgb(79,179,217);fill-rule:nonzero;"/>
                </g>
                <g transform="matrix(667,0,0,667,3164.28,0)">
                    <path d="M0.094,-0.695L0.094,-0.017C0.094,-0.006 0.097,0.002 0.103,0.009C0.108,0.015 0.116,0.018 0.124,0.019C0.132,0.019 0.14,0.016 0.146,0.01C0.152,0.003 0.155,-0.006 0.155,-0.017L0.155,-0.623L0.486,-0.077L0.541,0.003C0.549,0.017 0.562,0.021 0.579,0.016C0.597,0.011 0.605,-0.002 0.605,-0.024L0.605,-0.708C0.605,-0.716 0.602,-0.723 0.596,-0.728C0.59,-0.732 0.583,-0.734 0.574,-0.734C0.566,-0.734 0.559,-0.732 0.553,-0.729C0.547,-0.723 0.544,-0.716 0.544,-0.708L0.544,-0.095L0.201,-0.665L0.168,-0.714C0.158,-0.73 0.143,-0.737 0.123,-0.734C0.104,-0.731 0.094,-0.718 0.094,-0.695Z" style="fill:rgb(79,179,217);fill-rule:nonzero;"/>
                </g>
                <g transform="matrix(667,0,0,667,3615.08,0)">
                    <path d="M0.51,-0.718L0.044,-0.718C0.028,-0.718 0.021,-0.709 0.021,-0.69C0.021,-0.672 0.028,-0.663 0.044,-0.663L0.251,-0.663L0.251,-0.013C0.251,-0.004 0.254,0.004 0.26,0.01C0.266,0.015 0.273,0.018 0.281,0.018C0.289,0.018 0.296,0.015 0.302,0.01C0.308,0.004 0.312,-0.004 0.312,-0.013L0.312,-0.663L0.51,-0.663C0.52,-0.663 0.527,-0.666 0.533,-0.672C0.539,-0.677 0.542,-0.683 0.542,-0.69C0.542,-0.698 0.539,-0.705 0.533,-0.71C0.527,-0.715 0.52,-0.718 0.51,-0.718Z" style="fill:rgb(79,179,217);fill-rule:nonzero;"/>
                </g>
            </g>
            <g transform="matrix(0.0625289,0,0,0.0624105,50.3566,1303.58)">
                <path d="M14282,3229C16486,6043 15992,10110 13178,12314" style="fill:none;stroke:rgb(172,172,172);stroke-width:300.28px;"/>
            </g>
            <g transform="matrix(0.0625289,0,0,0.0624105,50.3566,1303.58)">
                <path d="M18949,2577C16745,5390 17240,9458 20053,11662" style="fill:none;stroke:rgb(172,172,172);stroke-width:300.28px;"/>
            </g>
            <g transform="matrix(1,0,0,1,50.3566,1303.58)">
                <rect x="200.593" y="0" width="1978.42" height="900.709" style="fill:none;"/>
                <clipPath id="_clip1">
                    <rect x="200.593" y="0" width="1978.42" height="900.709"/>
                </clipPath>
                <g clip-path="url(#_clip1)">
                    <g transform="matrix(0.0625289,0,0,0.0624105,0,0)">
                        <path d="M14421,153C18020,4749 17624,11070 13536,14272" style="fill:none;stroke:rgb(172,172,172);stroke-width:300.28px;"/>
                    </g>
                </g>
            </g>
        </g>
    </g>
</svg>
