<?xml version="1.0" encoding="utf-8"?>
<!-- Generator: Adobe Illustrator 22.1.0, SVG Export Plug-In . SVG Version: 6.00 Build 0)  -->
<svg version="1.1" id="Calque_1" xmlns="http://www.w3.org/2000/svg" xmlns:xlink="http://www.w3.org/1999/xlink" x="0px" y="0px"
	 viewBox="0 0 150 92" style="enable-background:new 0 0 150 92;" xml:space="preserve">
<style type="text/css">
	.st0{fill:#2A2E46;}
	.st1{fill:#E84E0F;}
</style>
<g>
	<path class="st0" d="M22.3,46.6C11,46.6,1.8,37.4,1.8,26V1.7h9.1V26c0,6.3,5.1,11.4,11.4,11.4S33.7,32.3,33.7,26V1.7h9.1V26
		C42.8,37.4,33.6,46.6,22.3,46.6z"/>
	<g>
		<polygon class="st0" points="123.2,20 138.2,45.9 148.8,45.9 123.2,1.7 97.7,45.9 108.3,45.9 		"/>
	</g>
	<path class="st0" d="M73.5,46.6c-4.3,0-8.6-1.2-12.4-3.7C50.5,36,47.5,21.8,54.4,11.3C61.3,0.7,75.4-2.3,86,4.6l-5,7.7
		c-6.3-4.1-14.8-2.3-18.9,4c-4.1,6.3-2.3,14.8,4,18.9c6.3,4.1,14.8,2.3,18.9-4l7.7,5C88.2,42.9,80.9,46.6,73.5,46.6z"/>
	<rect x="73.2" y="19.2" class="st0" width="20.3" height="9.1"/>
	<g>
		<polygon class="st1" points="123.2,39.7 112.4,58.5 134.1,58.5 		"/>
	</g>
	<g>
		<path class="st0" d="M3.3,67.4c-1-1-1.5-2.2-1.5-3.7v-8.1h2.8v8c0,0.8,0.2,1.4,0.7,1.9c0.5,0.5,1.1,0.7,1.8,0.7s1.4-0.2,1.9-0.7
			c0.5-0.5,0.7-1.1,0.7-1.9v-8h2.8v8.1c0,1.5-0.5,2.8-1.5,3.7c-1,1-2.3,1.5-3.9,1.5C5.6,68.8,4.3,68.4,3.3,67.4z"/>
		<path class="st0" d="M23.8,59.4c0.7,0.8,1,1.8,1,3.1v6.1h-2.7v-5.7c0-1.5-0.6-2.3-1.7-2.3c-0.5,0-0.9,0.1-1.2,0.3
			c-0.3,0.2-0.6,0.5-0.8,0.9c-0.2,0.4-0.3,0.9-0.3,1.4v5.3h-2.7v-10h1.9l0.5,1.2c0.2-0.2,0.4-0.4,0.6-0.6c0.2-0.2,0.5-0.3,0.8-0.5
			c0.3-0.1,0.6-0.2,0.9-0.3c0.3-0.1,0.6-0.1,1-0.1C22.2,58.3,23.1,58.7,23.8,59.4z"/>
		<path class="st0" d="M27.7,54.6h2.7v2.5h-2.7V54.6z M27.7,58.5h2.7v10h-2.7V58.5z"/>
		<path class="st0" d="M42.8,58.5l-4,10h-2.5l-4.1-10h2.9l2.5,6.7l2.4-6.7H42.8z"/>
		<path class="st0" d="M53.9,64.3h-7.6c0.1,0.7,0.4,1.2,0.8,1.6c0.4,0.4,1,0.5,1.6,0.5c0.5,0,0.9-0.1,1.2-0.3
			c0.4-0.2,0.7-0.5,0.9-0.8h2.9c-0.4,1.1-1,2-1.9,2.6c-0.9,0.6-1.9,1-3.1,1c-1.5,0-2.7-0.5-3.7-1.5c-1-1-1.5-2.3-1.5-3.8
			c0-0.6,0.1-1.2,0.3-1.7c0.2-0.5,0.4-1,0.7-1.5c0.3-0.4,0.7-0.8,1.1-1.1c0.4-0.3,0.9-0.6,1.4-0.7c0.5-0.2,1.1-0.3,1.7-0.3
			c1,0,1.9,0.2,2.7,0.7c0.8,0.5,1.4,1.1,1.8,1.9c0.4,0.8,0.6,1.7,0.6,2.6C54,63.8,53.9,64,53.9,64.3z M47.2,61
			c-0.4,0.3-0.7,0.8-0.8,1.4h4.9c-0.1-0.4-0.3-0.8-0.5-1c-0.2-0.3-0.5-0.5-0.8-0.6c-0.3-0.1-0.7-0.2-1.1-0.2
			C48.2,60.5,47.6,60.7,47.2,61z"/>
		<path class="st0" d="M62.3,58.5V61h-1.2c-0.8,0-1.3,0.2-1.6,0.5c-0.3,0.4-0.5,0.9-0.5,1.8v5.2h-2.7v-10H58l0.5,1.2
			c0.7-0.9,1.6-1.3,2.9-1.3H62.3z"/>
		<path class="st0" d="M65.5,68.4c-0.6-0.3-1.1-0.7-1.5-1.3c-0.4-0.5-0.5-1.2-0.5-1.9h2.6c0,0.3,0.1,0.5,0.2,0.8
			c0.1,0.2,0.3,0.4,0.6,0.4c0.2,0.1,0.5,0.1,0.9,0.1c0.3,0,0.5,0,0.7-0.1c0.2-0.1,0.4-0.2,0.5-0.3c0.1-0.2,0.2-0.3,0.2-0.5
			c0-0.3-0.2-0.5-0.5-0.7c-0.3-0.1-0.8-0.3-1.5-0.4c-0.4-0.1-0.7-0.1-1-0.2c-0.3-0.1-0.6-0.2-0.9-0.3c-0.4-0.2-0.7-0.3-0.9-0.5
			c-0.2-0.2-0.4-0.5-0.6-0.8c-0.2-0.3-0.2-0.8-0.2-1.2c0-0.9,0.4-1.7,1.1-2.3c0.7-0.6,1.7-0.9,2.9-0.9c1.2,0,2.2,0.3,2.9,0.9
			c0.7,0.6,1.1,1.4,1.1,2.4h-2.6c0-0.8-0.5-1.2-1.5-1.2c-0.4,0-0.8,0.1-1,0.3c-0.2,0.2-0.4,0.4-0.4,0.7c0,0.1,0,0.2,0.1,0.3
			s0.1,0.2,0.2,0.3c0.1,0.1,0.2,0.1,0.4,0.2c0.2,0.1,0.4,0.1,0.5,0.1l0.6,0.1c0.2,0,0.4,0.1,0.5,0.1c0.1,0,0.3,0.1,0.5,0.1
			c0.2,0,0.4,0.1,0.5,0.1c0.1,0,0.3,0.1,0.5,0.2c0.2,0.1,0.4,0.2,0.5,0.2c0.1,0.1,0.2,0.2,0.4,0.3c0.2,0.1,0.3,0.2,0.4,0.4
			c0.1,0.1,0.2,0.3,0.3,0.4c0.1,0.2,0.1,0.3,0.2,0.6c0,0.2,0,0.4,0,0.7c0,1-0.4,1.9-1.2,2.5c-0.8,0.6-1.8,0.9-3.1,0.9
			C66.9,68.8,66.1,68.7,65.5,68.4z"/>
		<path class="st0" d="M74.3,54.6H77v2.5h-2.7V54.6z M74.3,58.5H77v10h-2.7V58.5z"/>
		<path class="st0" d="M86.1,66.1v2.4h-1.9c-0.7,0-1.4-0.1-1.9-0.4c-0.5-0.3-1-0.7-1.2-1.2c-0.3-0.5-0.4-1.2-0.4-1.9v-4.3h-1.8v-0.6
			l4-4.2h0.5v2.6H86v2.2h-2.7v3.9c0,0.5,0.1,0.9,0.4,1.1s0.6,0.4,1.1,0.4H86.1z"/>
		<path class="st0" d="M97.9,64.3h-7.6c0.1,0.7,0.4,1.2,0.8,1.6c0.4,0.4,1,0.5,1.6,0.5c0.5,0,0.9-0.1,1.2-0.3
			c0.4-0.2,0.7-0.5,0.9-0.8h2.9c-0.4,1.1-1,2-1.9,2.6c-0.9,0.6-1.9,1-3.1,1c-1.5,0-2.7-0.5-3.7-1.5c-1-1-1.5-2.3-1.5-3.8
			c0-0.6,0.1-1.2,0.3-1.7c0.2-0.5,0.4-1,0.7-1.5c0.3-0.4,0.7-0.8,1.1-1.1c0.4-0.3,0.9-0.6,1.4-0.7c0.5-0.2,1.1-0.3,1.7-0.3
			c1,0,1.9,0.2,2.7,0.7c0.8,0.5,1.4,1.1,1.8,1.9c0.4,0.8,0.6,1.7,0.6,2.6C98,63.8,98,64,97.9,64.3z M91.3,61
			c-0.4,0.3-0.7,0.8-0.8,1.4h4.9c-0.1-0.4-0.3-0.8-0.5-1c-0.2-0.3-0.5-0.5-0.8-0.6c-0.3-0.1-0.7-0.2-1.1-0.2
			C92.2,60.5,91.7,60.7,91.3,61z M93.6,57.4h-2l1-2.8h2.9L93.6,57.4z"/>
		<path class="st0" d="M14.6,80.6c0,2.1-0.6,3.8-1.9,5.1c-1.2,1.3-2.8,2-4.8,2c-1.9,0-3.5-0.6-4.8-1.9c-1.3-1.3-1.9-2.9-1.9-4.8
			c0-2,0.6-3.6,1.9-4.9c1.3-1.3,2.9-1.9,4.8-1.9c1.6,0,3,0.5,4.3,1.4c1.2,0.9,2,2.1,2.3,3.6h-2.9c-0.2-0.5-0.5-0.9-0.8-1.2
			c-0.3-0.3-0.8-0.6-1.2-0.8c-0.5-0.2-1-0.3-1.5-0.3c-1.2,0-2.1,0.4-2.8,1.2c-0.7,0.8-1.1,1.8-1.1,3c0,0.8,0.2,1.5,0.5,2.1
			c0.3,0.6,0.8,1.1,1.4,1.5c0.6,0.3,1.3,0.5,2,0.5c0.6,0,1.1-0.1,1.6-0.3c0.5-0.2,0.9-0.4,1.3-0.8c0.4-0.3,0.6-0.7,0.8-1.2H7.6v-2.2
			H14.6z"/>
		<path class="st0" d="M22.9,77.3v2.6h-1.2c-0.8,0-1.3,0.2-1.6,0.5c-0.3,0.4-0.5,0.9-0.5,1.8v5.2h-2.7v-10h1.7l0.5,1.2
			c0.7-0.9,1.6-1.3,2.9-1.3H22.9z"/>
		<path class="st0" d="M34.3,83.1h-7.6c0.1,0.7,0.4,1.2,0.8,1.6c0.4,0.4,1,0.5,1.6,0.5c0.5,0,0.9-0.1,1.2-0.3
			c0.4-0.2,0.7-0.5,0.9-0.8h2.9c-0.4,1.1-1,2-1.9,2.6c-0.9,0.6-1.9,1-3.1,1c-1.5,0-2.7-0.5-3.7-1.5s-1.5-2.3-1.5-3.8
			c0-0.6,0.1-1.2,0.3-1.7c0.2-0.5,0.4-1,0.7-1.5c0.3-0.4,0.7-0.8,1.1-1.1c0.4-0.3,0.9-0.6,1.4-0.7c0.5-0.2,1.1-0.3,1.7-0.3
			c1,0,1.9,0.2,2.7,0.7c0.8,0.5,1.4,1.1,1.8,1.9c0.4,0.8,0.6,1.7,0.6,2.6C34.3,82.6,34.3,82.8,34.3,83.1z M27.6,79.9
			c-0.4,0.3-0.7,0.8-0.8,1.4h4.9c-0.1-0.4-0.3-0.8-0.5-1c-0.2-0.3-0.5-0.5-0.8-0.6c-0.3-0.1-0.7-0.2-1.1-0.2
			C28.5,79.4,28,79.5,27.6,79.9z"/>
		<path class="st0" d="M45.1,78.2c0.7,0.8,1,1.8,1,3.1v6.1h-2.7v-5.7c0-1.5-0.6-2.3-1.7-2.3c-0.5,0-0.9,0.1-1.2,0.3
			c-0.3,0.2-0.6,0.5-0.8,0.9c-0.2,0.4-0.3,0.9-0.3,1.4v5.3h-2.7v-10h1.9l0.5,1.2c0.2-0.2,0.4-0.4,0.6-0.6c0.2-0.2,0.5-0.3,0.8-0.5
			c0.3-0.1,0.6-0.2,0.9-0.3c0.3-0.1,0.6-0.1,1-0.1C43.5,77.1,44.4,77.5,45.1,78.2z"/>
		<path class="st0" d="M50.9,87c-0.8-0.5-1.5-1.1-1.9-1.9c-0.5-0.8-0.7-1.7-0.7-2.7c0-1.5,0.5-2.8,1.5-3.8c1-1,2.3-1.5,3.9-1.5
			c1.6,0,2.8,0.5,3.9,1.5c1,1,1.5,2.3,1.5,3.8c0,1.5-0.5,2.8-1.6,3.8c-1,1-2.3,1.5-3.9,1.5C52.7,87.7,51.7,87.4,50.9,87z M55.6,84.3
			c0.5-0.5,0.7-1.2,0.7-2c0-0.8-0.2-1.5-0.7-2c-0.5-0.5-1.1-0.8-1.9-0.8s-1.4,0.3-1.9,0.8c-0.5,0.5-0.7,1.2-0.7,2
			c0,0.4,0.1,0.8,0.2,1.1c0.1,0.3,0.3,0.6,0.5,0.9c0.2,0.2,0.5,0.4,0.8,0.6s0.7,0.2,1.1,0.2C54.5,85.1,55.1,84.8,55.6,84.3z"/>
		<path class="st0" d="M70.7,78.6c1,1,1.5,2.3,1.5,3.8c0,1.5-0.5,2.8-1.5,3.8c-1,1-2.3,1.5-3.8,1.5c-1.2,0-2.3-0.4-3.1-1.1l-0.3,0.8
			h-2V73.7h2.7v4.2c0.8-0.5,1.7-0.8,2.8-0.8C68.4,77,69.7,77.6,70.7,78.6z M68.6,84.3c0.5-0.5,0.8-1.2,0.8-2c0-0.5-0.1-1-0.3-1.4
			c-0.2-0.4-0.6-0.8-1-1c-0.4-0.2-0.9-0.4-1.4-0.4s-1,0.1-1.4,0.4c-0.4,0.2-0.8,0.6-1,1c-0.2,0.4-0.4,0.9-0.4,1.4
			c0,0.8,0.3,1.4,0.8,2c0.5,0.5,1.2,0.8,2,0.8C67.5,85.1,68.1,84.8,68.6,84.3z"/>
		<path class="st0" d="M74.5,73.7h2.7v13.7h-2.7V73.7z"/>
		<path class="st0" d="M89.9,83.1h-7.6c0.1,0.7,0.4,1.2,0.8,1.6c0.4,0.4,1,0.5,1.6,0.5c0.5,0,0.9-0.1,1.2-0.3
			c0.4-0.2,0.7-0.5,0.9-0.8h2.9c-0.4,1.1-1,2-1.9,2.6c-0.9,0.6-1.9,1-3.1,1c-1.5,0-2.7-0.5-3.7-1.5c-1-1-1.5-2.3-1.5-3.8
			c0-0.6,0.1-1.2,0.3-1.7c0.2-0.5,0.4-1,0.7-1.5s0.7-0.8,1.1-1.1c0.4-0.3,0.9-0.6,1.4-0.7s1.1-0.3,1.7-0.3c1,0,1.9,0.2,2.7,0.7
			c0.8,0.5,1.4,1.1,1.8,1.9c0.4,0.8,0.6,1.7,0.6,2.6C89.9,82.6,89.9,82.8,89.9,83.1z M83.2,79.9c-0.4,0.3-0.7,0.8-0.8,1.4h4.9
			c-0.1-0.4-0.3-0.8-0.5-1c-0.2-0.3-0.5-0.5-0.8-0.6c-0.3-0.1-0.7-0.2-1.1-0.2C84.1,79.4,83.6,79.5,83.2,79.9z"/>
		<path class="st0" d="M104.5,84.9h-5.2l-0.9,2.5h-3l5.1-13h2.7l5.3,13h-3.1L104.5,84.9z M100.2,82.4h3.4l-1.7-4.7L100.2,82.4z"/>
		<path class="st0" d="M110.3,73.7h2.7v13.7h-2.7V73.7z"/>
		<path class="st0" d="M125.3,78.6c1,1,1.5,2.3,1.5,3.8c0,1.5-0.5,2.8-1.5,3.8c-1,1-2.3,1.5-3.8,1.5c-1,0-2-0.3-2.8-0.8V91H116V77.3
			h1.8l0.5,0.9c0.9-0.8,2-1.2,3.2-1.2C123,77,124.3,77.6,125.3,78.6z M123.2,84.3c0.5-0.5,0.8-1.2,0.8-2c0-0.5-0.1-1-0.4-1.4
			c-0.2-0.4-0.6-0.8-1-1c-0.4-0.2-0.9-0.4-1.4-0.4c-0.5,0-1,0.1-1.4,0.4c-0.4,0.2-0.7,0.6-1,1c-0.2,0.4-0.3,0.9-0.3,1.4
			c0,0.8,0.3,1.5,0.8,2c0.5,0.5,1.2,0.8,2,0.8C122,85.1,122.7,84.8,123.2,84.3z"/>
		<path class="st0" d="M138.8,83.1h-7.6c0.1,0.7,0.4,1.2,0.8,1.6c0.4,0.4,1,0.5,1.6,0.5c0.5,0,0.9-0.1,1.2-0.3
			c0.4-0.2,0.7-0.5,0.9-0.8h2.9c-0.4,1.1-1,2-1.9,2.6c-0.9,0.6-1.9,1-3.1,1c-1.5,0-2.7-0.5-3.7-1.5s-1.5-2.3-1.5-3.8
			c0-0.6,0.1-1.2,0.3-1.7c0.2-0.5,0.4-1,0.7-1.5c0.3-0.4,0.7-0.8,1.1-1.1c0.4-0.3,0.9-0.6,1.4-0.7c0.5-0.2,1.1-0.3,1.7-0.3
			c1,0,1.9,0.2,2.7,0.7c0.8,0.5,1.4,1.1,1.8,1.9c0.4,0.8,0.6,1.7,0.6,2.6C138.8,82.6,138.8,82.8,138.8,83.1z M132.1,79.9
			c-0.4,0.3-0.7,0.8-0.8,1.4h4.9c-0.1-0.4-0.3-0.8-0.5-1c-0.2-0.3-0.5-0.5-0.8-0.6c-0.3-0.1-0.7-0.2-1.1-0.2
			C133,79.4,132.5,79.5,132.1,79.9z"/>
		<path class="st0" d="M142.5,87.2c-0.6-0.3-1.1-0.7-1.5-1.3c-0.4-0.5-0.5-1.2-0.5-1.9h2.6c0,0.3,0.1,0.5,0.2,0.8
			c0.1,0.2,0.3,0.4,0.6,0.4c0.2,0.1,0.5,0.1,0.9,0.1c0.3,0,0.5,0,0.7-0.1c0.2-0.1,0.4-0.2,0.5-0.3c0.1-0.2,0.2-0.3,0.2-0.5
			c0-0.3-0.2-0.5-0.5-0.7c-0.3-0.1-0.8-0.3-1.5-0.4c-0.4-0.1-0.7-0.1-1-0.2c-0.3-0.1-0.6-0.2-0.9-0.3c-0.4-0.2-0.7-0.3-0.9-0.5
			c-0.2-0.2-0.4-0.5-0.6-0.8c-0.2-0.3-0.2-0.8-0.2-1.2c0-0.9,0.4-1.7,1.1-2.3c0.7-0.6,1.7-0.9,2.9-0.9c1.2,0,2.2,0.3,2.9,0.9
			c0.7,0.6,1.1,1.4,1.1,2.4h-2.6c0-0.8-0.5-1.2-1.5-1.2c-0.4,0-0.8,0.1-1,0.3c-0.2,0.2-0.4,0.4-0.4,0.7c0,0.1,0,0.2,0.1,0.3
			c0.1,0.1,0.1,0.2,0.2,0.3c0.1,0.1,0.2,0.1,0.4,0.2c0.2,0.1,0.4,0.1,0.5,0.1l0.6,0.1c0.2,0,0.4,0.1,0.5,0.1c0.1,0,0.3,0.1,0.5,0.1
			c0.2,0,0.4,0.1,0.5,0.1c0.1,0,0.3,0.1,0.5,0.2c0.2,0.1,0.4,0.2,0.5,0.2c0.1,0.1,0.2,0.2,0.4,0.3c0.2,0.1,0.3,0.2,0.4,0.4
			c0.1,0.1,0.2,0.3,0.3,0.4c0.1,0.2,0.1,0.3,0.2,0.6c0,0.2,0,0.4,0,0.7c0,1-0.4,1.9-1.2,2.5c-0.8,0.6-1.8,0.9-3.1,0.9
			C143.9,87.7,143.1,87.5,142.5,87.2z"/>
	</g>
</g>
</svg>
