<svg height="660" width="660"
    xmlns="http://www.w3.org/2000/svg"
    xmlns:xlink="http://www.w3.org/1999/xlink"
    xmlns:ev="http://www.w3.org/2001/xml-events">
<title>Original Top Strand</title>
<rect x="0" y="0" width="660" height="660" fill="white" />
<text x="330" y="20" text-anchor="middle">Original Top Strand</text>
<line x1="80" y1="80" x2="80" y2="580" stroke="black" />
<line x1="80" y1="580" x2="580" y2="580" stroke="black" />
<text x="15" y="330" transform="rotate(270 15, 330)" text-anchor="middle" dominant-baseline="text-before-edge">CpG Methylation %</text>
<text x="330" y="620" text-anchor="middle">Position along mapped read (5'->3' of + strand)</text>
<line x1="80" y1="580" x2="80" y2="585" stroke="black" />
<text x="80" y="600" text-anchor="middle">0</text>
<line x1="113.333333" y1="80" x2="113.333333" y2="580" stroke-dasharray="5 5" stroke="grey" />
<line x1="113.333333" y1="580" x2="113.333333" y2="585" stroke="black" />
<text x="113.333333" y="600" text-anchor="middle">10</text>
<line x1="146.666667" y1="80" x2="146.666667" y2="580" stroke-dasharray="5 5" stroke="grey" />
<line x1="146.666667" y1="580" x2="146.666667" y2="585" stroke="black" />
<text x="146.666667" y="600" text-anchor="middle">20</text>
<line x1="180.000000" y1="80" x2="180.000000" y2="580" stroke-dasharray="5 5" stroke="grey" />
<line x1="180.000000" y1="580" x2="180.000000" y2="585" stroke="black" />
<text x="180.000000" y="600" text-anchor="middle">30</text>
<line x1="213.333333" y1="80" x2="213.333333" y2="580" stroke-dasharray="5 5" stroke="grey" />
<line x1="213.333333" y1="580" x2="213.333333" y2="585" stroke="black" />
<text x="213.333333" y="600" text-anchor="middle">40</text>
<line x1="246.666667" y1="80" x2="246.666667" y2="580" stroke-dasharray="5 5" stroke="grey" />
<line x1="246.666667" y1="580" x2="246.666667" y2="585" stroke="black" />
<text x="246.666667" y="600" text-anchor="middle">50</text>
<line x1="280.000000" y1="80" x2="280.000000" y2="580" stroke-dasharray="5 5" stroke="grey" />
<line x1="280.000000" y1="580" x2="280.000000" y2="585" stroke="black" />
<text x="280.000000" y="600" text-anchor="middle">60</text>
<line x1="313.333333" y1="80" x2="313.333333" y2="580" stroke-dasharray="5 5" stroke="grey" />
<line x1="313.333333" y1="580" x2="313.333333" y2="585" stroke="black" />
<text x="313.333333" y="600" text-anchor="middle">70</text>
<line x1="346.666667" y1="80" x2="346.666667" y2="580" stroke-dasharray="5 5" stroke="grey" />
<line x1="346.666667" y1="580" x2="346.666667" y2="585" stroke="black" />
<text x="346.666667" y="600" text-anchor="middle">80</text>
<line x1="380.000000" y1="80" x2="380.000000" y2="580" stroke-dasharray="5 5" stroke="grey" />
<line x1="380.000000" y1="580" x2="380.000000" y2="585" stroke="black" />
<text x="380.000000" y="600" text-anchor="middle">90</text>
<line x1="413.333333" y1="80" x2="413.333333" y2="580" stroke-dasharray="5 5" stroke="grey" />
<line x1="413.333333" y1="580" x2="413.333333" y2="585" stroke="black" />
<text x="413.333333" y="600" text-anchor="middle">100</text>
<line x1="446.666667" y1="80" x2="446.666667" y2="580" stroke-dasharray="5 5" stroke="grey" />
<line x1="446.666667" y1="580" x2="446.666667" y2="585" stroke="black" />
<text x="446.666667" y="600" text-anchor="middle">110</text>
<line x1="480.000000" y1="80" x2="480.000000" y2="580" stroke-dasharray="5 5" stroke="grey" />
<line x1="480.000000" y1="580" x2="480.000000" y2="585" stroke="black" />
<text x="480.000000" y="600" text-anchor="middle">120</text>
<line x1="513.333333" y1="80" x2="513.333333" y2="580" stroke-dasharray="5 5" stroke="grey" />
<line x1="513.333333" y1="580" x2="513.333333" y2="585" stroke="black" />
<text x="513.333333" y="600" text-anchor="middle">130</text>
<line x1="546.666667" y1="80" x2="546.666667" y2="580" stroke-dasharray="5 5" stroke="grey" />
<line x1="546.666667" y1="580" x2="546.666667" y2="585" stroke="black" />
<text x="546.666667" y="600" text-anchor="middle">140</text>
<line x1="580.000000" y1="80" x2="580.000000" y2="580" stroke-dasharray="5 5" stroke="grey" />
<line x1="580.000000" y1="580" x2="580.000000" y2="585" stroke="black" />
<text x="580.000000" y="600" text-anchor="middle">150</text>
<line x1="80" y1="580.000000" x2="75" y2="580.000000" stroke="black" />
<text x="55" y="580.000000" text-anchor="middle" dominant-baseline="middle">0.55</text>
<line x1="80" y1="524.444444" x2="75" y2="524.444444" stroke="black" />
<text x="55" y="524.444444" text-anchor="middle" dominant-baseline="middle">0.60</text>
<line x1="80" y1="468.888889" x2="75" y2="468.888889" stroke="black" />
<text x="55" y="468.888889" text-anchor="middle" dominant-baseline="middle">0.65</text>
<line x1="80" y1="413.333333" x2="75" y2="413.333333" stroke="black" />
<text x="55" y="413.333333" text-anchor="middle" dominant-baseline="middle">0.70</text>
<line x1="80" y1="357.777778" x2="75" y2="357.777778" stroke="black" />
<text x="55" y="357.777778" text-anchor="middle" dominant-baseline="middle">0.75</text>
<line x1="80" y1="302.222222" x2="75" y2="302.222222" stroke="black" />
<text x="55" y="302.222222" text-anchor="middle" dominant-baseline="middle">0.80</text>
<line x1="80" y1="246.666667" x2="75" y2="246.666667" stroke="black" />
<text x="55" y="246.666667" text-anchor="middle" dominant-baseline="middle">0.85</text>
<line x1="80" y1="191.111111" x2="75" y2="191.111111" stroke="black" />
<text x="55" y="191.111111" text-anchor="middle" dominant-baseline="middle">0.90</text>
<line x1="80" y1="135.555556" x2="75" y2="135.555556" stroke="black" />
<text x="55" y="135.555556" text-anchor="middle" dominant-baseline="middle">0.95</text>
<line x1="80" y1="80.000000" x2="75" y2="80.000000" stroke="black" />
<text x="55" y="80.000000" text-anchor="middle" dominant-baseline="middle">1.00</text>
<path d="M 83.333333 375.285945
  L 86.666667 464.281516
  L 90.000000 421.013647
  L 93.333333 402.681423
  L 96.666667 422.824967
  L 100.000000 419.133419
  L 103.333333 426.089834
  L 106.666667 420.889633
  L 110.000000 430.227752
  L 113.333333 428.038037
  L 116.666667 407.227721
  L 120.000000 416.151077
  L 123.333333 419.799807
  L 126.666667 408.592800
  L 130.000000 432.327599
  L 133.333333 427.417245
  L 136.666667 382.357181
  L 140.000000 415.750505
  L 143.333333 415.442575
  L 146.666667 422.122873
  L 150.000000 394.608534
  L 153.333333 403.387983
  L 156.666667 426.530327
  L 160.000000 415.905881
  L 163.333333 425.314036
  L 166.666667 430.687271
  L 170.000000 433.418667
  L 173.333333 433.028208
  L 176.666667 401.023767
  L 180.000000 427.920079
  L 183.333333 407.833044
  L 186.666667 403.514413
  L 190.000000 422.523524
  L 193.333333 421.932724
  L 196.666667 415.665695
  L 200.000000 421.319886
  L 203.333333 419.099087
  L 206.666667 416.796332
  L 210.000000 414.550253
  L 213.333333 412.996158
  L 216.666667 415.362620
  L 220.000000 412.325558
  L 223.333333 398.211151
  L 226.666667 413.603482
  L 230.000000 432.134665
  L 233.333333 414.933012
  L 236.666667 397.251424
  L 240.000000 425.157818
  L 243.333333 419.606340
  L 246.666667 415.583062
  L 250.000000 434.012136
  L 253.333333 385.155058
  L 256.666667 416.672622
  L 260.000000 391.372749
  L 263.333333 403.801723
  L 266.666667 396.755349
  L 270.000000 411.812022
  L 273.333333 411.627149
  L 276.666667 428.413438
  L 280.000000 417.775713
  L 283.333333 420.485928
  L 286.666667 400.043452
  L 290.000000 402.621460
  L 293.333333 427.560958
  L 296.666667 406.375343
  L 300.000000 420.535976
  L 303.333333 420.172101
  L 306.666667 425.329014
  L 310.000000 411.449414
  L 313.333333 424.569375
  L 316.666667 409.003095
  L 320.000000 414.503773
  L 323.333333 400.836486
  L 326.666667 410.008896
  L 330.000000 391.910823
  L 333.333333 400.510194
  L 336.666667 414.496551
  L 340.000000 418.020091
  L 343.333333 410.920398
  L 346.666667 400.651619
  L 350.000000 415.573999
  L 353.333333 407.523490
  L 356.666667 419.421962
  L 360.000000 398.364889
  L 363.333333 416.207213
  L 366.666667 435.629174
  L 370.000000 437.467511
  L 373.333333 397.111371
  L 376.666667 419.737073
  L 380.000000 429.305512
  L 383.333333 402.175642
  L 386.666667 423.552476
  L 390.000000 421.549068
  L 393.333333 417.091299
  L 396.666667 416.140480
  L 400.000000 418.744315
  L 403.333333 422.576339
  L 406.666667 412.355262
  L 410.000000 394.595055
  L 413.333333 414.301458
  L 416.666667 415.590670
  L 420.000000 425.318350
  L 423.333333 435.442995
  L 426.666667 394.372594
  L 430.000000 420.706181
  L 433.333333 416.146499
  L 436.666667 416.315295
  L 440.000000 410.638278
  L 443.333333 440.549911
  L 446.666667 399.724174
  L 450.000000 412.272257
  L 453.333333 433.594679
  L 456.666667 424.975504
  L 460.000000 447.879141
  L 463.333333 414.962486
  L 466.666667 433.615029
  L 470.000000 400.261100
  L 473.333333 425.222148
  L 476.666667 418.001631
  L 480.000000 418.076995
  L 483.333333 405.244846
  L 486.666667 420.297017
  L 490.000000 423.363551
  L 493.333333 433.204114
  L 496.666667 434.707146
  L 500.000000 409.273860
  L 503.333333 434.781923
  L 506.666667 429.098302
  L 510.000000 435.418776
  L 513.333333 444.741309
  L 516.666667 435.384321
  L 520.000000 408.485843
  L 523.333333 404.436245
  L 526.666667 434.423868
  L 530.000000 404.034455
  L 533.333333 442.833751
  L 536.666667 444.288378
  L 540.000000 429.661709
  L 543.333333 421.785978
  L 546.666667 451.155279
  L 550.000000 455.052371
  L 553.333333 423.292574
  L 556.666667 453.776571
  L 560.000000 444.108987
  L 563.333333 458.372331
  L 566.666667 496.504923
  L 570.000000 461.623873
  L 573.333333 473.775562
  L 576.666667 490.432749
  L 580.000000 485.945235
  L 580.000000 370.661993
  L 576.666667 382.433669
  L 573.333333 371.256570
  L 570.000000 356.612986
  L 566.666667 388.306997
  L 563.333333 356.904684
  L 560.000000 347.906932
  L 556.666667 358.959666
  L 553.333333 329.536154
  L 550.000000 359.498114
  L 546.666667 359.662363
  L 543.333333 336.795934
  L 540.000000 343.438665
  L 536.666667 356.680572
  L 533.333333 356.265465
  L 530.000000 322.679634
  L 526.666667 350.925093
  L 523.333333 324.354573
  L 520.000000 327.560758
  L 516.666667 352.551696
  L 513.333333 363.358975
  L 510.000000 356.254033
  L 506.666667 350.876278
  L 503.333333 354.311948
  L 500.000000 331.376527
  L 496.666667 354.632773
  L 493.333333 353.104760
  L 490.000000 345.036772
  L 486.666667 343.639864
  L 483.333333 328.691485
  L 480.000000 342.394219
  L 476.666667 341.704100
  L 473.333333 348.701937
  L 470.000000 327.202085
  L 466.666667 357.068075
  L 463.333333 339.929439
  L 460.000000 371.982097
  L 456.666667 350.673470
  L 453.333333 358.215949
  L 450.000000 339.941886
  L 446.666667 328.717730
  L 443.333333 363.899027
  L 440.000000 339.031655
  L 436.666667 343.685084
  L 433.333333 342.925993
  L 430.000000 346.914904
  L 426.666667 323.624288
  L 423.333333 361.575427
  L 420.000000 353.180547
  L 416.666667 344.107915
  L 413.333333 342.694483
  L 410.000000 325.632674
  L 406.666667 342.245449
  L 403.333333 350.797044
  L 400.000000 347.516194
  L 396.666667 345.648256
  L 393.333333 345.980680
  L 390.000000 351.171327
  L 386.666667 354.462186
  L 383.333333 332.691893
  L 380.000000 359.522114
  L 376.666667 349.936042
  L 373.333333 327.445451
  L 370.000000 366.148582
  L 366.666667 364.712638
  L 363.333333 346.310418
  L 360.000000 329.744387
  L 356.666667 350.356114
  L 353.333333 340.071900
  L 350.000000 347.960635
  L 346.666667 332.669946
  L 343.333333 342.782338
  L 340.000000 349.899322
  L 336.666667 346.211176
  L 333.333333 332.715633
  L 330.000000 326.225496
  L 326.666667 343.084525
  L 323.333333 333.410129
  L 320.000000 346.622309
  L 316.666667 340.515384
  L 313.333333 356.879658
  L 310.000000 342.802492
  L 306.666667 357.182315
  L 303.333333 349.920705
  L 300.000000 350.864646
  L 296.666667 339.019601
  L 293.333333 358.414743
  L 290.000000 334.014695
  L 286.666667 332.545722
  L 283.333333 351.137399
  L 280.000000 350.765018
  L 276.666667 357.949850
  L 273.333333 342.576958
  L 270.000000 344.484325
  L 266.666667 330.156502
  L 263.333333 336.273721
  L 260.000000 325.578400
  L 256.666667 348.325152
  L 253.333333 318.684392
  L 250.000000 362.994027
  L 246.666667 347.469521
  L 243.333333 351.321227
  L 240.000000 354.707722
  L 236.666667 331.480677
  L 233.333333 346.675761
  L 230.000000 362.395498
  L 226.666667 344.953744
  L 223.333333 330.719409
  L 220.000000 344.306923
  L 216.666667 347.636245
  L 213.333333 345.218497
  L 210.000000 345.369349
  L 206.666667 347.336820
  L 203.333333 350.293033
  L 200.000000 352.599844
  L 196.666667 346.872532
  L 193.333333 353.361793
  L 190.000000 352.516674
  L 186.666667 337.005498
  L 183.333333 339.175605
  L 180.000000 357.799452
  L 176.666667 333.511448
  L 173.333333 363.738681
  L 170.000000 363.522259
  L 166.666667 360.370028
  L 163.333333 354.837707
  L 160.000000 345.732248
  L 156.666667 356.639672
  L 153.333333 334.754549
  L 150.000000 328.951481
  L 146.666667 351.098580
  L 143.333333 344.903885
  L 140.000000 345.932547
  L 136.666667 315.909975
  L 133.333333 356.641925
  L 130.000000 360.842001
  L 126.666667 338.866934
  L 123.333333 348.215796
  L 120.000000 343.794097
  L 116.666667 336.477854
  L 113.333333 356.561122
  L 110.000000 358.929264
  L 106.666667 347.625708
  L 103.333333 352.579727
  L 100.000000 346.121162
  L 96.666667 351.735963
  L 93.333333 335.349547
  L 90.000000 348.633213
  L 86.666667 386.370753
  L 83.333333 311.136297
Z" fill="rgb(248,118,109)" fill-opacity="0.2"/>
<path d="M 83.333333 489.608771
  L 86.666667 500.948980
  L 90.000000 450.125433
  L 93.333333 468.643726
  L 96.666667 500.689307
  L 100.000000 464.011075
  L 103.333333 450.872993
  L 106.666667 438.785423
  L 110.000000 457.188904
  L 113.333333 438.642319
  L 116.666667 420.894999
  L 120.000000 430.405305
  L 123.333333 440.842325
  L 126.666667 434.141973
  L 130.000000 410.217441
  L 133.333333 415.149850
  L 136.666667 431.712241
  L 140.000000 428.648939
  L 143.333333 414.862744
  L 146.666667 400.279217
  L 150.000000 425.564334
  L 153.333333 430.522616
  L 156.666667 404.745642
  L 160.000000 406.322668
  L 163.333333 421.493889
  L 166.666667 435.368070
  L 170.000000 427.639635
  L 173.333333 441.598775
  L 176.666667 424.842762
  L 180.000000 410.147628
  L 183.333333 431.924172
  L 186.666667 412.036358
  L 190.000000 402.601412
  L 193.333333 422.449295
  L 196.666667 420.957802
  L 200.000000 404.881744
  L 203.333333 406.461699
  L 206.666667 416.001460
  L 210.000000 404.022844
  L 213.333333 418.682109
  L 216.666667 418.634432
  L 220.000000 416.981392
  L 223.333333 421.700882
  L 226.666667 402.226076
  L 230.000000 432.669531
  L 233.333333 414.490084
  L 236.666667 422.794559
  L 240.000000 423.548588
  L 243.333333 407.511706
  L 246.666667 430.092784
  L 250.000000 415.723320
  L 253.333333 405.927197
  L 256.666667 412.509033
  L 260.000000 396.157438
  L 263.333333 409.058820
  L 266.666667 402.564096
  L 270.000000 413.858215
  L 273.333333 410.665980
  L 276.666667 420.432245
  L 280.000000 409.634979
  L 283.333333 410.674751
  L 286.666667 415.507083
  L 290.000000 398.003168
  L 293.333333 406.208309
  L 296.666667 409.047879
  L 300.000000 433.637242
  L 303.333333 409.958359
  L 306.666667 427.787101
  L 310.000000 426.289835
  L 313.333333 411.831895
  L 316.666667 413.253017
  L 320.000000 421.623483
  L 323.333333 407.199192
  L 326.666667 418.587400
  L 330.000000 417.637723
  L 333.333333 428.817882
  L 336.666667 417.046128
  L 340.000000 407.736010
  L 343.333333 413.959644
  L 346.666667 405.018043
  L 350.000000 404.047118
  L 353.333333 403.308305
  L 356.666667 394.907573
  L 360.000000 418.163519
  L 363.333333 418.033020
  L 366.666667 402.694697
  L 370.000000 420.448985
  L 373.333333 406.122579
  L 376.666667 405.750987
  L 380.000000 409.696773
  L 383.333333 416.271592
  L 386.666667 417.339458
  L 390.000000 424.813679
  L 393.333333 418.490070
  L 396.666667 409.547989
  L 400.000000 414.562264
  L 403.333333 431.503093
  L 406.666667 409.128558
  L 410.000000 410.873693
  L 413.333333 394.049490
  L 416.666667 402.310637
  L 420.000000 424.466778
  L 423.333333 396.943047
  L 426.666667 423.078412
  L 430.000000 411.099579
  L 433.333333 428.707350
  L 436.666667 427.485992
  L 440.000000 409.949330
  L 443.333333 408.592800
  L 446.666667 418.481380
  L 450.000000 423.386852
  L 453.333333 408.133849
  L 456.666667 440.681319
  L 460.000000 404.590794
  L 463.333333 402.688658
  L 466.666667 420.736825
  L 470.000000 408.722663
  L 473.333333 396.490566
  L 476.666667 414.129078
  L 480.000000 441.307197
  L 483.333333 417.166841
  L 486.666667 427.172213
  L 490.000000 423.914417
  L 493.333333 420.125292
  L 496.666667 408.604662
  L 500.000000 452.408908
  L 503.333333 447.615941
  L 506.666667 389.501462
  L 510.000000 435.477680
  L 513.333333 415.634529
  L 516.666667 414.009713
  L 520.000000 432.664503
  L 523.333333 413.268804
  L 526.666667 424.584016
  L 530.000000 450.250497
  L 533.333333 428.062983
  L 536.666667 417.370545
  L 540.000000 414.934395
  L 543.333333 428.280788
  L 546.666667 427.851504
  L 550.000000 433.436997
  L 553.333333 417.261842
  L 556.666667 431.685886
  L 560.000000 439.711785
  L 563.333333 434.406252
  L 566.666667 414.106083
  L 570.000000 457.261167
  L 573.333333 461.808909
  L 576.666667 470.734981
  L 580.000000 304.830302
  L 580.000000 132.213693
  L 576.666667 375.481288
  L 573.333333 359.593178
  L 570.000000 363.784923
  L 566.666667 329.452647
  L 563.333333 347.413400
  L 560.000000 353.754033
  L 556.666667 343.846528
  L 553.333333 333.213749
  L 550.000000 346.640653
  L 546.666667 341.607420
  L 543.333333 345.549647
  L 540.000000 330.402616
  L 536.666667 335.684729
  L 533.333333 345.374684
  L 530.000000 366.771843
  L 526.666667 344.639950
  L 523.333333 336.645558
  L 520.000000 355.066968
  L 516.666667 335.412035
  L 513.333333 337.806612
  L 510.000000 358.799648
  L 506.666667 314.673709
  L 503.333333 369.018335
  L 500.000000 373.725150
  L 496.666667 334.562751
  L 493.333333 345.410686
  L 490.000000 349.485018
  L 486.666667 351.576954
  L 483.333333 343.122478
  L 480.000000 364.782278
  L 476.666667 341.023221
  L 473.333333 324.691284
  L 470.000000 336.292992
  L 466.666667 347.376783
  L 463.333333 329.635853
  L 460.000000 334.023735
  L 456.666667 365.628900
  L 453.333333 337.100905
  L 450.000000 349.925576
  L 446.666667 345.339131
  L 443.333333 338.866934
  L 440.000000 339.062287
  L 436.666667 355.148216
  L 433.333333 356.218134
  L 430.000000 339.288287
  L 426.666667 353.554822
  L 423.333333 327.545319
  L 420.000000 353.810776
  L 416.666667 333.144878
  L 413.333333 325.129936
  L 410.000000 341.846910
  L 406.666667 340.512651
  L 403.333333 358.824453
  L 400.000000 345.905005
  L 396.666667 340.752059
  L 393.333333 348.418015
  L 390.000000 354.260811
  L 386.666667 347.518871
  L 383.333333 346.848617
  L 380.000000 339.605453
  L 376.666667 337.777261
  L 373.333333 338.136633
  L 370.000000 350.366355
  L 366.666667 334.457645
  L 363.333333 348.942281
  L 360.000000 349.258044
  L 356.666667 329.147414
  L 353.333333 334.468056
  L 350.000000 335.947674
  L 346.666667 336.639993
  L 343.333333 344.986240
  L 340.000000 339.939527
  L 336.666667 348.483085
  L 333.333333 360.870935
  L 330.000000 349.828289
  L 326.666667 349.816112
  L 323.333333 340.207285
  L 320.000000 351.662384
  L 316.666667 344.922452
  L 313.333333 342.584486
  L 310.000000 357.548910
  L 306.666667 359.339432
  L 303.333333 343.624232
  L 300.000000 364.250307
  L 296.666667 341.940177
  L 293.333333 338.521062
  L 290.000000 330.278720
  L 286.666667 347.657030
  L 283.333333 342.886697
  L 280.000000 342.176582
  L 276.666667 353.505679
  L 273.333333 343.875354
  L 270.000000 346.035409
  L 266.666667 336.219089
  L 263.333333 341.240599
  L 260.000000 330.971686
  L 256.666667 344.964100
  L 253.333333 338.546580
  L 250.000000 347.787066
  L 246.666667 360.634370
  L 243.333333 340.315643
  L 240.000000 355.303989
  L 236.666667 354.181012
  L 233.333333 345.897015
  L 230.000000 362.285886
  L 226.666667 335.588741
  L 223.333333 353.903840
  L 220.000000 348.275473
  L 216.666667 351.906644
  L 213.333333 351.570309
  L 210.000000 337.723859
  L 206.666667 348.316705
  L 203.333333 338.885723
  L 200.000000 338.137362
  L 196.666667 353.040306
  L 193.333333 355.007909
  L 190.000000 336.349217
  L 186.666667 344.819170
  L 183.333333 364.227157
  L 180.000000 343.199813
  L 176.666667 355.991875
  L 173.333333 371.585822
  L 170.000000 359.215746
  L 166.666667 365.753864
  L 163.333333 353.341654
  L 160.000000 338.249073
  L 156.666667 337.364300
  L 153.333333 362.257191
  L 150.000000 357.331284
  L 146.666667 334.329155
  L 143.333333 346.970985
  L 140.000000 359.074243
  L 136.666667 362.827433
  L 133.333333 346.288157
  L 130.000000 342.303032
  L 126.666667 364.723311
  L 123.333333 369.958524
  L 120.000000 361.193885
  L 116.666667 352.144679
  L 113.333333 368.899560
  L 110.000000 384.512784
  L 106.666667 365.226109
  L 103.333333 379.019272
  L 100.000000 392.789132
  L 96.666667 426.695283
  L 93.333333 393.162366
  L 90.000000 376.611299
  L 86.666667 423.049528
  L 83.333333 413.104695
Z" fill="rgb(0,191,196)" fill-opacity="0.2"/>
<path d="M 83.333333 341.857238
  L 86.666667 424.112769
  L 90.000000 383.480125
  L 93.333333 367.737937
  L 96.666667 386.004010
  L 100.000000 381.242061
  L 103.333333 387.986287
  L 106.666667 382.876481
  L 110.000000 393.350073
  L 113.333333 391.047740
  L 116.666667 370.465393
  L 120.000000 378.590299
  L 123.333333 382.687564
  L 126.666667 372.397661
  L 130.000000 395.364870
  L 133.333333 390.800311
  L 136.666667 347.731565
  L 140.000000 379.561743
  L 143.333333 378.861480
  L 146.666667 385.331435
  L 150.000000 360.511577
  L 153.333333 367.744046
  L 156.666667 390.383177
  L 160.000000 379.525968
  L 163.333333 388.842485
  L 166.666667 394.340849
  L 170.000000 397.317767
  L 173.333333 397.250172
  L 176.666667 365.969616
  L 180.000000 391.659307
  L 183.333333 372.211081
  L 186.666667 369.022873
  L 190.000000 386.284195
  L 193.333333 386.462685
  L 196.666667 380.030003
  L 200.000000 385.765153
  L 203.333333 383.481846
  L 206.666667 380.809284
  L 210.000000 378.696688
  L 213.333333 377.888938
  L 216.666667 380.300300
  L 220.000000 377.083272
  L 223.333333 363.146067
  L 226.666667 378.029803
  L 230.000000 396.109120
  L 233.333333 379.581178
  L 236.666667 363.112818
  L 240.000000 388.699237
  L 243.333333 384.273504
  L 246.666667 380.313541
  L 250.000000 397.313141
  L 253.333333 350.540082
  L 256.666667 381.284891
  L 260.000000 357.176267
  L 263.333333 368.760551
  L 266.666667 362.163743
  L 270.000000 376.939021
  L 273.333333 375.821897
  L 276.666667 391.971723
  L 280.000000 383.116014
  L 283.333333 384.586417
  L 286.666667 364.989555
  L 290.000000 366.985881
  L 293.333333 391.821591
  L 296.666667 371.446983
  L 300.000000 384.462743
  L 303.333333 383.783056
  L 306.666667 390.111063
  L 310.000000 375.860960
  L 313.333333 389.591643
  L 316.666667 373.482085
  L 320.000000 379.351567
  L 323.333333 365.827513
  L 326.666667 375.340502
  L 330.000000 357.777778
  L 333.333333 365.298837
  L 336.666667 379.126314
  L 340.000000 382.764370
  L 343.333333 375.603090
  L 346.666667 365.339786
  L 350.000000 380.574130
  L 353.333333 372.551893
  L 356.666667 383.667017
  L 360.000000 362.687339
  L 363.333333 379.979347
  L 366.666667 398.996416
  L 370.000000 400.631970
  L 373.333333 360.853796
  L 376.666667 383.587856
  L 380.000000 393.236105
  L 383.333333 366.059841
  L 386.666667 387.814517
  L 390.000000 385.102305
  L 393.333333 380.213675
  L 396.666667 379.590035
  L 400.000000 381.816239
  L 403.333333 385.380514
  L 406.666667 375.981979
  L 410.000000 358.699752
  L 413.333333 377.132265
  L 416.666667 378.499377
  L 420.000000 387.950425
  L 423.333333 397.221386
  L 426.666667 357.499722
  L 430.000000 382.405498
  L 433.333333 378.116857
  L 436.666667 378.607616
  L 440.000000 373.438839
  L 443.333333 400.868372
  L 446.666667 362.757857
  L 450.000000 374.693284
  L 453.333333 394.542484
  L 456.666667 386.433961
  L 460.000000 408.662861
  L 463.333333 375.936131
  L 466.666667 393.931068
  L 470.000000 362.177637
  L 473.333333 385.479033
  L 476.666667 378.313878
  L 480.000000 378.724954
  L 483.333333 365.293930
  L 486.666667 380.434513
  L 490.000000 382.619693
  L 493.333333 391.588438
  L 496.666667 393.119302
  L 500.000000 368.625904
  L 503.333333 392.979646
  L 506.666667 388.465306
  L 510.000000 394.331723
  L 513.333333 402.537383
  L 516.666667 392.300829
  L 520.000000 366.162849
  L 523.333333 362.533643
  L 526.666667 390.966811
  L 530.000000 361.423155
  L 533.333333 397.788498
  L 536.666667 398.690784
  L 540.000000 384.659498
  L 543.333333 377.372061
  L 546.666667 403.509485
  L 550.000000 405.225723
  L 553.333333 374.034493
  L 556.666667 404.339057
  L 560.000000 393.781593
  L 563.333333 405.330007
  L 566.666667 440.299877
  L 570.000000 406.666667
  L 573.333333 420.368301
  L 576.666667 434.251012
  L 580.000000 425.679012
" stroke="rgb(248,118,109)" stroke-width="2" fill-opacity="0"/>
<path d="M 83.333333 450.370370
  L 86.666667 461.048727
  L 90.000000 412.204483
  L 93.333333 429.804440
  L 96.666667 462.845294
  L 100.000000 427.406751
  L 103.333333 413.845366
  L 106.666667 400.755753
  L 110.000000 419.765536
  L 113.333333 402.659977
  L 116.666667 385.320883
  L 120.000000 394.650934
  L 123.333333 404.264073
  L 126.666667 398.302387
  L 130.000000 375.015760
  L 133.333333 379.473288
  L 136.666667 396.142191
  L 140.000000 392.687014
  L 143.333333 379.707602
  L 146.666667 366.066117
  L 150.000000 390.301629
  L 153.333333 395.276584
  L 156.666667 369.791115
  L 160.000000 371.005291
  L 163.333333 386.246063
  L 166.666667 399.432121
  L 170.000000 392.288831
  L 173.333333 405.491937
  L 176.666667 389.242871
  L 180.000000 375.467585
  L 183.333333 396.992087
  L 186.666667 377.224623
  L 190.000000 368.242009
  L 193.333333 387.590384
  L 196.666667 385.832490
  L 200.000000 370.272972
  L 203.333333 371.414812
  L 206.666667 380.966184
  L 210.000000 369.648623
  L 213.333333 383.974323
  L 216.666667 384.132848
  L 220.000000 381.402566
  L 223.333333 386.645585
  L 226.666667 367.655392
  L 230.000000 396.301703
  L 233.333333 378.953662
  L 236.666667 387.307749
  L 240.000000 388.265583
  L 243.333333 372.678199
  L 246.666667 394.203588
  L 250.000000 380.550441
  L 253.333333 370.982003
  L 256.666667 377.523865
  L 260.000000 362.327687
  L 263.333333 373.900458
  L 266.666667 368.154191
  L 270.000000 378.732943
  L 273.333333 376.074518
  L 276.666667 385.836139
  L 280.000000 374.675419
  L 283.333333 375.544773
  L 286.666667 380.379119
  L 290.000000 362.809984
  L 293.333333 371.099270
  L 296.666667 374.273467
  L 300.000000 397.811180
  L 303.333333 375.608108
  L 306.666667 392.424550
  L 310.000000 390.759308
  L 313.333333 375.921496
  L 316.666667 377.849143
  L 320.000000 385.402087
  L 323.333333 372.473740
  L 326.666667 382.985149
  L 330.000000 382.547001
  L 333.333333 393.731074
  L 336.666667 381.544860
  L 340.000000 372.579436
  L 343.333333 378.213745
  L 346.666667 369.525542
  L 350.000000 368.698097
  L 353.333333 367.551440
  L 356.666667 360.756947
  L 360.000000 382.485774
  L 363.333333 382.254356
  L 366.666667 367.260406
  L 370.000000 384.153157
  L 373.333333 370.851138
  L 376.666667 370.483308
  L 380.000000 373.312270
  L 383.333333 380.300300
  L 386.666667 381.161476
  L 390.000000 388.297124
  L 393.333333 382.185030
  L 396.666667 373.864316
  L 400.000000 378.991714
  L 403.333333 393.891604
  L 406.666667 373.539113
  L 410.000000 375.075295
  L 413.333333 358.172910
  L 416.666667 366.368843
  L 420.000000 387.892004
  L 423.333333 360.830281
  L 426.666667 387.103660
  L 430.000000 373.792799
  L 433.333333 391.176279
  L 436.666667 390.027100
  L 440.000000 373.135036
  L 443.333333 372.397661
  L 446.666667 380.514037
  L 450.000000 385.287512
  L 453.333333 371.225211
  L 456.666667 401.862695
  L 460.000000 367.905796
  L 463.333333 364.631088
  L 466.666667 382.670287
  L 470.000000 371.059116
  L 473.333333 359.061804
  L 476.666667 376.144427
  L 480.000000 401.699905
  L 483.333333 378.698280
  L 486.666667 387.948398
  L 490.000000 385.294867
  L 493.333333 381.318267
  L 496.666667 370.060972
  L 500.000000 411.730176
  L 503.333333 406.943359
  L 506.666667 350.338715
  L 510.000000 395.738732
  L 513.333333 375.088332
  L 516.666667 373.025723
  L 520.000000 392.402956
  L 523.333333 373.358514
  L 526.666667 382.969233
  L 530.000000 406.962123
  L 533.333333 384.982818
  L 536.666667 374.726326
  L 540.000000 370.693191
  L 543.333333 385.179454
  L 546.666667 382.816901
  L 550.000000 388.162785
  L 553.333333 373.315143
  L 556.666667 385.817800
  L 560.000000 394.966606
  L 563.333333 389.035150
  L 566.666667 369.787696
  L 570.000000 408.601472
  L 573.333333 408.402056
  L 576.666667 421.263477
  L 580.000000 194.114114
" stroke="rgb(0,191,196)" stroke-width="2" fill-opacity="0"/>
<text x="650" y="650" text-anchor="end">--OT 0,145,6,149</text>
<line x1="563.333333" y1="580" x2="563.333333" y2="80" stroke-dasharray="5 1" stroke="rgb(248,118,109)" stroke-width="1" />
<line x1="100.000000" y1="580" x2="100.000000" y2="80" stroke-dasharray="5 1" stroke="rgb(0,191,196)" stroke-width="1" />
<line x1="576.666667" y1="580" x2="576.666667" y2="80" stroke-dasharray="5 1" stroke="rgb(0,191,196)" stroke-width="1" />
<rect x="590" y="310" width="20" height="20" fill="rgb(248,118,109)" />
<text x="615" y="320" text-anchor="start" dominant-baseline="middle">#1</text>
<rect x="590" y="330" width="20" height="20" fill="rgb(0,191,196)" />
<text x="615" y="340" text-anchor="start" dominant-baseline="middle">#2</text>
</svg>
