<?xml version="1.0" encoding="UTF-8" standalone="no"?>
<svg
   xmlns:dc="http://purl.org/dc/elements/1.1/"
   xmlns:cc="http://creativecommons.org/ns#"
   xmlns:rdf="http://www.w3.org/1999/02/22-rdf-syntax-ns#"
   xmlns:svg="http://www.w3.org/2000/svg"
   xmlns="http://www.w3.org/2000/svg"
   xmlns:xlink="http://www.w3.org/1999/xlink"
   xmlns:sodipodi="http://sodipodi.sourceforge.net/DTD/sodipodi-0.dtd"
   xmlns:inkscape="http://www.inkscape.org/namespaces/inkscape"
   version="1.1"
   viewBox="0.0 0.0 899.2598425196851 213.33333333333334"
   fill="none"
   stroke="none"
   stroke-linecap="square"
   stroke-miterlimit="10"
   id="svg453"
   sodipodi:docname="tenx_primers_satac.svg"
   inkscape:version="0.92.3 (2405546, 2018-03-11)">
  <metadata
     id="metadata459">
    <rdf:RDF>
      <cc:Work
         rdf:about="">
        <dc:format>image/svg+xml</dc:format>
        <dc:type
           rdf:resource="http://purl.org/dc/dcmitype/StillImage" />
      </cc:Work>
    </rdf:RDF>
  </metadata>
  <defs
     id="defs457">
    <marker
       inkscape:isstock="true"
       style="overflow:visible"
       id="marker1752"
       refX="0.0"
       refY="0.0"
       orient="auto"
       inkscape:stockid="Arrow1Mstart">
      <path
         transform="scale(0.4) translate(10,0)"
         style="fill-rule:evenodd;stroke:#434343;stroke-width:1pt;stroke-opacity:1;fill:#434343;fill-opacity:1"
         d="M 0.0,0.0 L 5.0,-5.0 L -12.5,0.0 L 5.0,5.0 L 0.0,0.0 z "
         id="path1750" />
    </marker>
    <marker
       inkscape:stockid="Arrow1Mstart"
       orient="auto"
       refY="0.0"
       refX="0.0"
       id="Arrow1Mstart"
       style="overflow:visible"
       inkscape:isstock="true"
       inkscape:collect="always">
      <path
         id="path1288"
         d="M 0.0,0.0 L 5.0,-5.0 L -12.5,0.0 L 5.0,5.0 L 0.0,0.0 z "
         style="fill-rule:evenodd;stroke:#434343;stroke-width:1pt;stroke-opacity:1;fill:#434343;fill-opacity:1"
         transform="scale(0.4) translate(10,0)" />
    </marker>
    <marker
       inkscape:stockid="Arrow1Lstart"
       orient="auto"
       refY="0.0"
       refX="0.0"
       id="marker1672"
       style="overflow:visible"
       inkscape:isstock="true">
      <path
         id="path1670"
         d="M 0.0,0.0 L 5.0,-5.0 L -12.5,0.0 L 5.0,5.0 L 0.0,0.0 z "
         style="fill-rule:evenodd;stroke:#434343;stroke-width:1pt;stroke-opacity:1;fill:#434343;fill-opacity:1"
         transform="scale(0.8) translate(12.5,0)" />
    </marker>
    <marker
       inkscape:stockid="Arrow1Lstart"
       orient="auto"
       refY="0.0"
       refX="0.0"
       id="Arrow1Lstart"
       style="overflow:visible"
       inkscape:isstock="true">
      <path
         id="path1282"
         d="M 0.0,0.0 L 5.0,-5.0 L -12.5,0.0 L 5.0,5.0 L 0.0,0.0 z "
         style="fill-rule:evenodd;stroke:#434343;stroke-width:1pt;stroke-opacity:1;fill:#434343;fill-opacity:1"
         transform="scale(0.8) translate(12.5,0)" />
    </marker>
    <marker
       inkscape:stockid="Arrow1Lend"
       orient="auto"
       refY="0.0"
       refX="0.0"
       id="Arrow1Lend"
       style="overflow:visible;"
       inkscape:isstock="true">
      <path
         id="path1285"
         d="M 0.0,0.0 L 5.0,-5.0 L -12.5,0.0 L 5.0,5.0 L 0.0,0.0 z "
         style="fill-rule:evenodd;stroke:#434343;stroke-width:1pt;stroke-opacity:1"
         transform="scale(0.8) rotate(180) translate(12.5,0)" />
    </marker>
  </defs>
  <sodipodi:namedview
     pagecolor="#ffffff"
     bordercolor="#666666"
     borderopacity="1"
     objecttolerance="10"
     gridtolerance="10"
     guidetolerance="10"
     inkscape:pageopacity="0"
     inkscape:pageshadow="2"
     inkscape:window-width="1920"
     inkscape:window-height="1016"
     id="namedview455"
     showgrid="false"
     inkscape:zoom="1.1701637"
     inkscape:cx="452.60931"
     inkscape:cy="195.90948"
     inkscape:window-x="0"
     inkscape:window-y="0"
     inkscape:window-maximized="1"
     inkscape:current-layer="g451" />
  <clipPath
     id="p.0">
    <path
       d="m0 0l899.2598 0l0 213.33333l-899.2598 0l0 -213.33333z"
       clip-rule="nonzero"
       id="path2" />
  </clipPath>
  <g
     clip-path="url(#p.0)"
     id="g451">
    <path
       fill="#000000"
       fill-opacity="0.0"
       d="m0 0l899.2598 0l0 213.33333l-899.2598 0z"
       fill-rule="evenodd"
       id="path5" />
    <g
       filter="url(#shadowFilter-p.1)"
       id="g9">
      <use
         xlink:href="#p.1"
         transform="matrix(1.0 0.0 0.0 1.0 0.0 2.0)"
         id="use7" />
    </g>
    <defs
       id="defs24">
      <filter
         id="shadowFilter-p.1"
         filterUnits="userSpaceOnUse">
        <feGaussianBlur
           in="SourceAlpha"
           stdDeviation="2.0"
           result="blur"
           id="feGaussianBlur11" />
        <feComponentTransfer
           in="blur"
           color-interpolation-filters="sRGB"
           id="feComponentTransfer21">
          <feFuncR
             type="linear"
             slope="0"
             intercept="0.0"
             id="feFuncR13" />
          <feFuncG
             type="linear"
             slope="0"
             intercept="0.0"
             id="feFuncG15" />
          <feFuncB
             type="linear"
             slope="0"
             intercept="0.0"
             id="feFuncB17" />
          <feFuncA
             type="linear"
             slope="0.5"
             intercept="0"
             id="feFuncA19" />
        </feComponentTransfer>
      </filter>
    </defs>
    <g
       id="p.1">
      <path
         d="m20.968504 66.685036l107.590546 0l0 29.354332l-107.590546 0z"
         id="path26"
         fill-rule="evenodd"
         fill="#0000ff" />
    </g>
    <g
       filter="url(#shadowFilter-p.2)"
       id="g31">
      <g
         id="use29"
         transform="translate(0,2)">
        <path
           id="path1266"
           d="M 128.55905,66.685036 H 243.04724 V 96.039368 H 128.55905 Z"
           inkscape:connector-curvature="0"
           style="fill:#000000;fill-rule:evenodd" />
      </g>
    </g>
    <defs
       id="defs46">
      <filter
         id="shadowFilter-p.2"
         filterUnits="userSpaceOnUse">
        <feGaussianBlur
           in="SourceAlpha"
           stdDeviation="2.0"
           result="blur"
           id="feGaussianBlur33" />
        <feComponentTransfer
           in="blur"
           color-interpolation-filters="sRGB"
           id="feComponentTransfer43">
          <feFuncR
             type="linear"
             slope="0"
             intercept="0.0"
             id="feFuncR35" />
          <feFuncG
             type="linear"
             slope="0"
             intercept="0.0"
             id="feFuncG37" />
          <feFuncB
             type="linear"
             slope="0"
             intercept="0.0"
             id="feFuncB39" />
          <feFuncA
             type="linear"
             slope="0.5"
             intercept="0"
             id="feFuncA41" />
        </feComponentTransfer>
      </filter>
    </defs>
    <g
       filter="url(#shadowFilter-p.3)"
       id="g53">
      <use
         xlink:href="#p.3"
         transform="matrix(1.0 0.0 0.0 1.0 0.0 2.0)"
         id="use51" />
    </g>
    <defs
       id="defs68">
      <filter
         id="shadowFilter-p.3"
         filterUnits="userSpaceOnUse">
        <feGaussianBlur
           in="SourceAlpha"
           stdDeviation="2.0"
           result="blur"
           id="feGaussianBlur55" />
        <feComponentTransfer
           in="blur"
           color-interpolation-filters="sRGB"
           id="feComponentTransfer65">
          <feFuncR
             type="linear"
             slope="0"
             intercept="0.0"
             id="feFuncR57" />
          <feFuncG
             type="linear"
             slope="0"
             intercept="0.0"
             id="feFuncG59" />
          <feFuncB
             type="linear"
             slope="0"
             intercept="0.0"
             id="feFuncB61" />
          <feFuncA
             type="linear"
             slope="0.5"
             intercept="0"
             id="feFuncA63" />
        </feComponentTransfer>
      </filter>
    </defs>
    <g
       id="p.3" />
    <g
       filter="url(#shadowFilter-p.4)"
       id="g75">
      <use
         xlink:href="#p.4"
         transform="matrix(1.0 0.0 0.0 1.0 0.0 2.0)"
         id="use73" />
    </g>
    <defs
       id="defs90">
      <filter
         id="shadowFilter-p.4"
         filterUnits="userSpaceOnUse">
        <feGaussianBlur
           in="SourceAlpha"
           stdDeviation="2.0"
           result="blur"
           id="feGaussianBlur77" />
        <feComponentTransfer
           in="blur"
           color-interpolation-filters="sRGB"
           id="feComponentTransfer87">
          <feFuncR
             type="linear"
             slope="0"
             intercept="0.0"
             id="feFuncR79" />
          <feFuncG
             type="linear"
             slope="0"
             intercept="0.0"
             id="feFuncG81" />
          <feFuncB
             type="linear"
             slope="0"
             intercept="0.0"
             id="feFuncB83" />
          <feFuncA
             type="linear"
             slope="0.5"
             intercept="0"
             id="feFuncA85" />
        </feComponentTransfer>
      </filter>
    </defs>
    <g
       id="p.4">
      <path
         d="m 300.44984,76.7769 h 301.21422 v 9.165359 H 300.44984 Z"
         id="path92"
         inkscape:connector-curvature="0"
         style="fill:#cfe2f3;fill-rule:evenodd;stroke-width:1.62202418" />
    </g>
    <g
       filter="url(#shadowFilter-p.5)"
       id="g97">
      <use
         xlink:href="#p.5"
         transform="matrix(1.0 0.0 0.0 1.0 0.0 2.0)"
         id="use95" />
    </g>
    <defs
       id="defs112">
      <filter
         id="shadowFilter-p.5"
         filterUnits="userSpaceOnUse">
        <feGaussianBlur
           in="SourceAlpha"
           stdDeviation="2.0"
           result="blur"
           id="feGaussianBlur99" />
        <feComponentTransfer
           in="blur"
           color-interpolation-filters="sRGB"
           id="feComponentTransfer109">
          <feFuncR
             type="linear"
             slope="0"
             intercept="0.0"
             id="feFuncR101" />
          <feFuncG
             type="linear"
             slope="0"
             intercept="0.0"
             id="feFuncG103" />
          <feFuncB
             type="linear"
             slope="0"
             intercept="0.0"
             id="feFuncB105" />
          <feFuncA
             type="linear"
             slope="0.5"
             intercept="0"
             id="feFuncA107" />
        </feComponentTransfer>
      </filter>
    </defs>
    <g
       id="p.5">
      <path
         fill="#000000"
         d="m601.66406 66.685036l114.48816 0l0 29.354332l-114.48816 0z"
         fill-rule="evenodd"
         id="path114" />
    </g>
    <g
       filter="url(#shadowFilter-p.6)"
       id="g119">
      <use
         xlink:href="#p.6"
         transform="matrix(1.0 0.0 0.0 1.0 0.0 2.0)"
         id="use117" />
    </g>
    <defs
       id="defs134">
      <filter
         id="shadowFilter-p.6"
         filterUnits="userSpaceOnUse">
        <feGaussianBlur
           in="SourceAlpha"
           stdDeviation="2.0"
           result="blur"
           id="feGaussianBlur121" />
        <feComponentTransfer
           in="blur"
           color-interpolation-filters="sRGB"
           id="feComponentTransfer131">
          <feFuncR
             type="linear"
             slope="0"
             intercept="0.0"
             id="feFuncR123" />
          <feFuncG
             type="linear"
             slope="0"
             intercept="0.0"
             id="feFuncG125" />
          <feFuncB
             type="linear"
             slope="0"
             intercept="0.0"
             id="feFuncB127" />
          <feFuncA
             type="linear"
             slope="0.5"
             intercept="0"
             id="feFuncA129" />
        </feComponentTransfer>
      </filter>
    </defs>
    <g
       id="p.6">
      <path
         fill="#999999"
         d="m716.1522 66.685036l39.338562 0l0 29.354332l-39.338562 0z"
         fill-rule="evenodd"
         id="path136" />
    </g>
    <g
       filter="url(#shadowFilter-p.7)"
       id="g141">
      <use
         xlink:href="#p.7"
         transform="matrix(1.0 0.0 0.0 1.0 0.0 2.0)"
         id="use139" />
    </g>
    <defs
       id="defs156">
      <filter
         id="shadowFilter-p.7"
         filterUnits="userSpaceOnUse">
        <feGaussianBlur
           in="SourceAlpha"
           stdDeviation="2.0"
           result="blur"
           id="feGaussianBlur143" />
        <feComponentTransfer
           in="blur"
           color-interpolation-filters="sRGB"
           id="feComponentTransfer153">
          <feFuncR
             type="linear"
             slope="0"
             intercept="0.0"
             id="feFuncR145" />
          <feFuncG
             type="linear"
             slope="0"
             intercept="0.0"
             id="feFuncG147" />
          <feFuncB
             type="linear"
             slope="0"
             intercept="0.0"
             id="feFuncB149" />
          <feFuncA
             type="linear"
             slope="0.5"
             intercept="0"
             id="feFuncA151" />
        </feComponentTransfer>
      </filter>
    </defs>
    <g
       id="p.7">
      <path
         fill="#f1c232"
         d="m755.4908 66.685036l114.48822 0l0 29.354332l-114.48822 0z"
         fill-rule="evenodd"
         id="path158" />
    </g>
    <g
       filter="url(#shadowFilter-p.8)"
       id="g163">
      <use
         xlink:href="#p.8"
         transform="matrix(1.0 0.0 0.0 1.0 0.0 2.0)"
         id="use161" />
    </g>
    <defs
       id="defs178">
      <filter
         id="shadowFilter-p.8"
         filterUnits="userSpaceOnUse">
        <feGaussianBlur
           in="SourceAlpha"
           stdDeviation="2.0"
           result="blur"
           id="feGaussianBlur165" />
        <feComponentTransfer
           in="blur"
           color-interpolation-filters="sRGB"
           id="feComponentTransfer175">
          <feFuncR
             type="linear"
             slope="0"
             intercept="0.0"
             id="feFuncR167" />
          <feFuncG
             type="linear"
             slope="0"
             intercept="0.0"
             id="feFuncG169" />
          <feFuncB
             type="linear"
             slope="0"
             intercept="0.0"
             id="feFuncB171" />
          <feFuncA
             type="linear"
             slope="0.5"
             intercept="0"
             id="feFuncA173" />
        </feComponentTransfer>
      </filter>
    </defs>
    <g
       id="p.8">
      <path
         d="m20.968504 130.68504l107.590546 0l0 29.354324l-107.590546 0z"
         id="path180"
         fill-rule="evenodd"
         fill="#0000ff" />
    </g>
    <g
       filter="url(#shadowFilter-p.9)"
       id="g185">
      <g
         id="use183"
         transform="translate(0,2)">
        <path
           id="path1270"
           d="m 128.55905,130.68504 h 114.48819 v 29.35432 H 128.55905 Z"
           inkscape:connector-curvature="0"
           style="fill:#000000;fill-rule:evenodd" />
      </g>
    </g>
    <defs
       id="defs200">
      <filter
         id="shadowFilter-p.9"
         filterUnits="userSpaceOnUse">
        <feGaussianBlur
           in="SourceAlpha"
           stdDeviation="2.0"
           result="blur"
           id="feGaussianBlur187" />
        <feComponentTransfer
           in="blur"
           color-interpolation-filters="sRGB"
           id="feComponentTransfer197">
          <feFuncR
             type="linear"
             slope="0"
             intercept="0.0"
             id="feFuncR189" />
          <feFuncG
             type="linear"
             slope="0"
             intercept="0.0"
             id="feFuncG191" />
          <feFuncB
             type="linear"
             slope="0"
             intercept="0.0"
             id="feFuncB193" />
          <feFuncA
             type="linear"
             slope="0.5"
             intercept="0"
             id="feFuncA195" />
        </feComponentTransfer>
      </filter>
    </defs>
    <g
       filter="url(#shadowFilter-p.10)"
       id="g207">
      <use
         xlink:href="#p.10"
         transform="matrix(1.0 0.0 0.0 1.0 0.0 2.0)"
         id="use205" />
    </g>
    <defs
       id="defs222">
      <filter
         id="shadowFilter-p.10"
         filterUnits="userSpaceOnUse">
        <feGaussianBlur
           in="SourceAlpha"
           stdDeviation="2.0"
           result="blur"
           id="feGaussianBlur209" />
        <feComponentTransfer
           in="blur"
           color-interpolation-filters="sRGB"
           id="feComponentTransfer219">
          <feFuncR
             type="linear"
             slope="0"
             intercept="0.0"
             id="feFuncR211" />
          <feFuncG
             type="linear"
             slope="0"
             intercept="0.0"
             id="feFuncG213" />
          <feFuncB
             type="linear"
             slope="0"
             intercept="0.0"
             id="feFuncB215" />
          <feFuncA
             type="linear"
             slope="0.5"
             intercept="0"
             id="feFuncA217" />
        </feComponentTransfer>
      </filter>
    </defs>
    <g
       id="p.10" />
    <g
       filter="url(#shadowFilter-p.11)"
       id="g229">
      <use
         xlink:href="#p.11"
         transform="matrix(1.0 0.0 0.0 1.0 0.0 2.0)"
         id="use227" />
    </g>
    <defs
       id="defs244">
      <filter
         id="shadowFilter-p.11"
         filterUnits="userSpaceOnUse">
        <feGaussianBlur
           in="SourceAlpha"
           stdDeviation="2.0"
           result="blur"
           id="feGaussianBlur231" />
        <feComponentTransfer
           in="blur"
           color-interpolation-filters="sRGB"
           id="feComponentTransfer241">
          <feFuncR
             type="linear"
             slope="0"
             intercept="0.0"
             id="feFuncR233" />
          <feFuncG
             type="linear"
             slope="0"
             intercept="0.0"
             id="feFuncG235" />
          <feFuncB
             type="linear"
             slope="0"
             intercept="0.0"
             id="feFuncB237" />
          <feFuncA
             type="linear"
             slope="0.5"
             intercept="0"
             id="feFuncA239" />
        </feComponentTransfer>
      </filter>
    </defs>
    <g
       id="p.11"
       transform="matrix(2.6869453,0,0,1,-1014.9743,0)">
      <path
         d="m 487.17584,140.7769 h 114.48822 v 9.16536 H 487.17584 Z"
         id="path246"
         inkscape:connector-curvature="0"
         style="fill:#cfe2f3;fill-rule:evenodd" />
    </g>
    <g
       filter="url(#shadowFilter-p.12)"
       id="g251">
      <use
         xlink:href="#p.12"
         transform="matrix(1.0 0.0 0.0 1.0 0.0 2.0)"
         id="use249" />
    </g>
    <defs
       id="defs266">
      <filter
         id="shadowFilter-p.12"
         filterUnits="userSpaceOnUse">
        <feGaussianBlur
           in="SourceAlpha"
           stdDeviation="2.0"
           result="blur"
           id="feGaussianBlur253" />
        <feComponentTransfer
           in="blur"
           color-interpolation-filters="sRGB"
           id="feComponentTransfer263">
          <feFuncR
             type="linear"
             slope="0"
             intercept="0.0"
             id="feFuncR255" />
          <feFuncG
             type="linear"
             slope="0"
             intercept="0.0"
             id="feFuncG257" />
          <feFuncB
             type="linear"
             slope="0"
             intercept="0.0"
             id="feFuncB259" />
          <feFuncA
             type="linear"
             slope="0.5"
             intercept="0"
             id="feFuncA261" />
        </feComponentTransfer>
      </filter>
    </defs>
    <g
       id="p.12">
      <path
         fill="#000000"
         d="m601.66406 130.68504l114.48816 0l0 29.354324l-114.48816 0z"
         fill-rule="evenodd"
         id="path268" />
    </g>
    <g
       filter="url(#shadowFilter-p.13)"
       id="g273">
      <use
         xlink:href="#p.13"
         transform="matrix(1.0 0.0 0.0 1.0 0.0 2.0)"
         id="use271" />
    </g>
    <defs
       id="defs288">
      <filter
         id="shadowFilter-p.13"
         filterUnits="userSpaceOnUse">
        <feGaussianBlur
           in="SourceAlpha"
           stdDeviation="2.0"
           result="blur"
           id="feGaussianBlur275" />
        <feComponentTransfer
           in="blur"
           color-interpolation-filters="sRGB"
           id="feComponentTransfer285">
          <feFuncR
             type="linear"
             slope="0"
             intercept="0.0"
             id="feFuncR277" />
          <feFuncG
             type="linear"
             slope="0"
             intercept="0.0"
             id="feFuncG279" />
          <feFuncB
             type="linear"
             slope="0"
             intercept="0.0"
             id="feFuncB281" />
          <feFuncA
             type="linear"
             slope="0.5"
             intercept="0"
             id="feFuncA283" />
        </feComponentTransfer>
      </filter>
    </defs>
    <g
       id="p.13">
      <path
         fill="#999999"
         d="m716.1522 130.68504l39.338562 0l0 29.354324l-39.338562 0z"
         fill-rule="evenodd"
         id="path290" />
    </g>
    <g
       filter="url(#shadowFilter-p.14)"
       id="g295">
      <use
         xlink:href="#p.14"
         transform="matrix(1.0 0.0 0.0 1.0 0.0 2.0)"
         id="use293" />
    </g>
    <defs
       id="defs310">
      <filter
         id="shadowFilter-p.14"
         filterUnits="userSpaceOnUse">
        <feGaussianBlur
           in="SourceAlpha"
           stdDeviation="2.0"
           result="blur"
           id="feGaussianBlur297" />
        <feComponentTransfer
           in="blur"
           color-interpolation-filters="sRGB"
           id="feComponentTransfer307">
          <feFuncR
             type="linear"
             slope="0"
             intercept="0.0"
             id="feFuncR299" />
          <feFuncG
             type="linear"
             slope="0"
             intercept="0.0"
             id="feFuncG301" />
          <feFuncB
             type="linear"
             slope="0"
             intercept="0.0"
             id="feFuncB303" />
          <feFuncA
             type="linear"
             slope="0.5"
             intercept="0"
             id="feFuncA305" />
        </feComponentTransfer>
      </filter>
    </defs>
    <g
       id="p.14">
      <path
         fill="#f1c232"
         d="m755.4908 130.68504l114.48822 0l0 29.354324l-114.48822 0z"
         fill-rule="evenodd"
         id="path312" />
    </g>
    <path
       fill="#000000"
       fill-opacity="0.0"
       d="m22.498688 101.55905l107.590546 0l0 23.874016l-107.590546 0z"
       fill-rule="evenodd"
       id="path315" />
    <path
       fill="#999999"
       d="m71.52429 113.26481l0.65625 0q0.9375 0 1.390625 -0.359375q0.46875 -0.375 0.46875 -1.078125q0 -0.71875 -0.390625 -1.046875q-0.390625 -0.34375 -1.21875 -0.34375l-0.90625 0l0 2.828125zm4.546875 -1.515625q0 1.53125 -0.96875 2.34375q-0.953125 0.8125 -2.71875 0.8125l-0.859375 0l0 3.390625l-2.015625 0l0 -9.515625l3.03125 0q1.734375 0 2.625 0.75q0.90625 0.734375 0.90625 2.21875zm4.6035004 0.46875q1.375 0 2.1875 0.78125q0.828125 0.765625 0.828125 2.109375q0 1.59375 -0.984375 2.453125q-0.984375 0.859375 -2.8125 0.859375q-1.59375 0 -2.5625 -0.515625l0 -1.734375q0.515625 0.28125 1.1875 0.453125q0.6875 0.171875 1.296875 0.171875q1.84375 0 1.84375 -1.515625q0 -1.4375 -1.90625 -1.4375q-0.34375 0 -0.765625 0.078125q-0.40625 0.0625 -0.671875 0.140625l-0.796875 -0.4375l0.359375 -4.84375l5.15625 0l0 1.703125l-3.390625 0l-0.1875 1.875l0.234375 -0.046875q0.390625 -0.09375 0.984375 -0.09375z"
       fill-rule="nonzero"
       id="path317" />
    <path
       fill="#000000"
       fill-opacity="0.0"
       d="m130.08923 23.394518l114.48819 0l0 23.874014l-114.48819 0z"
       fill-rule="evenodd"
       id="path319" />
    <path
       d="m 299.368,35.745428 h 0.64063 q 0.96875,0 1.42187,-0.3125 0.45313,-0.3125 0.45313,-1 0,-0.671875 -0.46875,-0.953125 -0.46875,-0.296875 -1.4375,-0.296875 H 299.368 Z m 0,1.640625 v 3.65625 h -2.01562 V 31.52668 h 2.76562 q 1.9375,0 2.85938,0.703125 0.9375,0.703123 0.9375,2.140623 0,0.84375 -0.46875,1.5 -0.45313,0.65625 -1.29688,1.03125 2.14063,3.203125 2.79688,4.140625 h -2.23438 l -2.28125,-3.65625 z m 9.62677,-2.34375 q -0.625,0 -0.98437,0.40625 -0.35938,0.390625 -0.40625,1.125 h 2.78125 q -0.0156,-0.734375 -0.39063,-1.125 -0.35937,-0.40625 -1,-0.40625 z m 0.28125,6.125 q -1.75,0 -2.75,-0.96875 -0.98437,-0.96875 -0.98437,-2.734375 0,-1.84375 0.90625,-2.828125 0.92187,-1 2.54687,-1 1.53125,0 2.39063,0.875 0.85937,0.875 0.85937,2.421875 v 0.96875 h -4.6875 q 0.0312,0.84375 0.5,1.328125 0.46875,0.46875 1.3125,0.46875 0.65625,0 1.23438,-0.140625 0.59375,-0.140625 1.23437,-0.4375 v 1.53125 q -0.51562,0.265625 -1.10937,0.390625 -0.59375,0.125 -1.45313,0.125 z m 9.20266,-0.125 -0.375,-0.984375 h -0.0625 q -0.5,0.625 -1.03125,0.875 -0.53125,0.234375 -1.375,0.234375 -1.04688,0 -1.65625,-0.59375 -0.59375,-0.59375 -0.59375,-1.703125 0,-1.15625 0.8125,-1.703125 0.8125,-0.5625 2.4375,-0.609375 l 1.26562,-0.04687 v -0.3125 q 0,-1.109375 -1.14062,-1.109375 -0.85938,0 -2.04688,0.53125 l -0.65625,-1.34375 q 1.26563,-0.65625 2.78125,-0.65625 1.46875,0 2.25,0.640625 0.78125,0.625 0.78125,1.9375 v 4.84375 z m -0.57813,-3.375 -0.76562,0.03125 q -0.875,0.03125 -1.29688,0.3125 -0.42187,0.28125 -0.42187,0.875 0,0.828125 0.96875,0.828125 0.6875,0 1.09375,-0.390625 0.42187,-0.390625 0.42187,-1.046875 z m 6.31587,3.5 q -1.28125,0 -2.01562,-0.984375 -0.73438,-1 -0.73438,-2.765625 0,-1.796875 0.75,-2.78125 0.75,-1 2.04688,-1 1.375,0 2.10937,1.0625 h 0.0625 q -0.15625,-0.8125 -0.15625,-1.453125 v -2.328123 h 2 v 10.124998 h -1.53125 l -0.375,-0.9375 h -0.0937 q -0.67187,1.0625 -2.0625,1.0625 z m 0.70313,-1.578125 q 0.75,0 1.10937,-0.4375 0.35938,-0.453125 0.39063,-1.5 v -0.21875 q 0,-1.171875 -0.35938,-1.671875 -0.35937,-0.515625 -1.17187,-0.515625 -0.67188,0 -1.04688,0.5625 -0.35937,0.5625 -0.35937,1.640625 0,1.0625 0.35937,1.609375 0.375,0.53125 1.07813,0.53125 z m 13.34952,1.453125 h -2 v -5.5 l 0.0156,-0.90625 0.0312,-1 q -0.5,0.515625 -0.70312,0.671875 l -1.09375,0.875 -0.96875,-1.21875 3.07812,-2.437498 h 1.64063 z"
       id="path321"
       inkscape:connector-curvature="0"
       style="fill:#000000;fill-rule:nonzero" />
    <path
       fill="#000000"
       fill-opacity="0.0"
       d="m234.54077 23.394518l87.18109 0l0 23.874014l-87.18109 0z"
       fill-rule="evenodd"
       id="path323" />
    <path
       d="m 150.17096,32.131523 h -2 v -5.499998 l 0.0156,-0.90625 0.0312,-1 q -0.5,0.515625 -0.70312,0.671875 l -1.09375,0.875 -0.96875,-1.21875 3.07812,-2.4375 h 1.64063 z m 9.2327,-4.749998 q 0,2.484375 -0.8125,3.6875 -0.8125,1.187498 -2.51563,1.187498 -1.64062,0 -2.48437,-1.234373 -0.82813,-1.234375 -0.82813,-3.640625 0,-2.53125 0.8125,-3.71875 0.8125,-1.203125 2.5,-1.203125 1.65625,0 2.48438,1.25 0.84375,1.25 0.84375,3.671875 z m -4.64063,0 q 0,1.75 0.29688,2.515625 0.29687,0.75 1.01562,0.75 0.70313,0 1.01563,-0.765625 0.3125,-0.78125 0.3125,-2.5 0,-1.765625 -0.3125,-2.515625 -0.3125,-0.765625 -1.01563,-0.765625 -0.70312,0 -1.01562,0.765625 -0.29688,0.75 -0.29688,2.515625 z m 7.6546,1.03125 -2.34375,-3.5625 h 2.25 l 1.42188,2.328125 1.42187,-2.328125 h 2.25 l -2.375,3.5625 2.48438,3.718748 h -2.26563 l -1.51562,-2.499998 -1.54688,2.499998 h -2.25 z"
       id="path325"
       inkscape:connector-curvature="0"
       style="fill:#000000;fill-rule:nonzero" />
    <path
       d="m 130.09898,38.6159 h 2.95312 q 2.03127,0 2.93752,0.578125 0.92188,0.578125 0.92188,1.828125 0,0.859375 -0.40625,1.40625 -0.40625,0.546875 -1.0625,0.65625 v 0.0625 q 0.90625,0.203125 1.29687,0.765625 0.40625,0.546875 0.40625,1.453125 0,1.3125 -0.9375,2.046875 -0.9375,0.71875 -2.56252,0.71875 h -3.54687 z m 2.01562,3.765625 h 1.17188 q 0.81252,0 1.17189,-0.25 0.375,-0.25 0.375,-0.84375 0,-0.546875 -0.40625,-0.78125 -0.39062,-0.234375 -1.25002,-0.234375 h -1.0625 z m 0,1.609375 v 2.46875 h 1.3125 q 0.82815,0 1.21877,-0.3125 0.40625,-0.3125 0.40625,-0.984375 0,-1.171875 -1.68752,-1.171875 z m 11.39235,4.140625 -0.375,-0.984375 h -0.0625 q -0.5,0.625 -1.03125,0.875 -0.53125,0.234375 -1.375,0.234375 -1.04687,0 -1.65625,-0.59375 -0.59375,-0.59375 -0.59375,-1.703125 0,-1.15625 0.8125,-1.703125 0.8125,-0.5625 2.4375,-0.609375 l 1.26563,-0.04687 v -0.3125 q 0,-1.109375 -1.14063,-1.109375 -0.85937,0 -2.04687,0.53125 l -0.65625,-1.34375 q 1.26562,-0.65625 2.78125,-0.65625 1.46875,0 2.25,0.640625 0.78125,0.625 0.78125,1.9375 v 4.84375 z m -0.57812,-3.375 -0.76563,0.03125 q -0.875,0.03125 -1.29687,0.3125 -0.42188,0.28125 -0.42188,0.875 0,0.828125 0.96875,0.828125 0.6875,0 1.09375,-0.390625 0.42188,-0.390625 0.42188,-1.046875 z m 8.08148,-4.03125 q 0.39063,0 0.65625,0.04687 l -0.14062,1.859375 q -0.25,-0.0625 -0.59375,-0.0625 -0.9375,0 -1.46875,0.5 -0.53125,0.484375 -0.53125,1.359375 v 3.703125 h -1.98438 v -7.28125 h 1.5 l 0.29688,1.234375 h 0.0937 q 0.34375,-0.625 0.90625,-0.984375 0.57812,-0.375 1.26562,-0.375 z m 4.94296,7.53125 q -3.40625,0 -3.40625,-3.71875 0,-1.859375 0.92188,-2.828125 0.9375,-0.984375 2.65625,-0.984375 1.26562,0 2.26562,0.484375 l -0.59375,1.546875 q -0.46875,-0.203125 -0.875,-0.3125 -0.39062,-0.125 -0.79687,-0.125 -1.54688,0 -1.54688,2.203125 0,2.125 1.54688,2.125 0.57812,0 1.0625,-0.140625 0.48437,-0.15625 0.96875,-0.484375 v 1.703125 q -0.46875,0.296875 -0.96875,0.40625 -0.48438,0.125 -1.23438,0.125 z m 5.47779,-3.78125 q 0,1.078125 0.34375,1.640625 0.35937,0.546875 1.15625,0.546875 0.79687,0 1.14062,-0.546875 0.35938,-0.546875 0.35938,-1.640625 0,-1.078125 -0.35938,-1.609375 -0.34375,-0.546875 -1.14062,-0.546875 -0.79688,0 -1.15625,0.546875 -0.34375,0.53125 -0.34375,1.609375 z m 5.03125,0 q 0,1.78125 -0.9375,2.78125 -0.9375,1 -2.60938,1 -1.04687,0 -1.85937,-0.453125 -0.79688,-0.453125 -1.23438,-1.3125 -0.42187,-0.859375 -0.42187,-2.015625 0,-1.78125 0.92187,-2.765625 0.9375,-0.984375 2.625,-0.984375 1.04688,0 1.84375,0.453125 0.8125,0.453125 1.23438,1.3125 0.4375,0.84375 0.4375,1.984375 z m 3.93948,3.78125 q -1.28125,0 -2.01562,-0.984375 -0.73438,-1 -0.73438,-2.765625 0,-1.796875 0.75,-2.78125 0.75,-1 2.04688,-1 1.375,0 2.10937,1.0625 h 0.0625 q -0.15625,-0.8125 -0.15625,-1.453125 v -2.328125 h 2 v 10.125 h -1.53125 l -0.375,-0.9375 h -0.0937 q -0.67187,1.0625 -2.0625,1.0625 z m 0.70313,-1.578125 q 0.75,0 1.10937,-0.4375 0.35938,-0.453125 0.39063,-1.5 v -0.21875 q 0,-1.171875 -0.35938,-1.671875 -0.35937,-0.515625 -1.17187,-0.515625 -0.67188,0 -1.04688,0.5625 -0.35937,0.5625 -0.35937,1.640625 0,1.0625 0.35937,1.609375 0.375,0.53125 1.07813,0.53125 z m 8.4342,-4.546875 q -0.625,0 -0.98438,0.40625 -0.35937,0.390625 -0.40625,1.125 h 2.78125 q -0.0156,-0.734375 -0.39062,-1.125 -0.35938,-0.40625 -1,-0.40625 z m 0.28125,6.125 q -1.75,0 -2.75,-0.96875 -0.98438,-0.96875 -0.98438,-2.734375 0,-1.84375 0.90625,-2.828125 0.92188,-1 2.54688,-1 1.53125,0 2.39062,0.875 0.85938,0.875 0.85938,2.421875 v 0.96875 h -4.6875 q 0.0312,0.84375 0.5,1.328125 0.46875,0.46875 1.3125,0.46875 0.65625,0 1.23437,-0.140625 0.59375,-0.140625 1.23438,-0.4375 v 1.53125 q -0.51563,0.265625 -1.10938,0.390625 -0.59375,0.125 -1.45312,0.125 z"
       id="path327"
       inkscape:connector-curvature="0"
       style="fill:#000000;fill-rule:nonzero" />
    <path
       fill="#000000"
       fill-opacity="0.0"
       d="m298.12335 23.394518l60.566925 0l0 23.874014l-60.566925 0z"
       fill-rule="evenodd"
       id="path329" />
    <path
       fill="#000000"
       fill-opacity="0.0"
       d="m347.55118 101.55905l139.62204 0l0 23.874016l-139.62204 0z"
       fill-rule="evenodd"
       id="path333" />
    <path
       fill="#000000"
       fill-opacity="0.0"
       d="m601.66406 173.55905l114.48816 0l0 23.874023l-114.48816 0z"
       fill-rule="evenodd"
       id="path337" />
    <path
       fill="#000000"
       d="m640.0131 184.99919l0.640625 0q0.96875 0 1.421875 -0.3125q0.453125 -0.3125 0.453125 -1.0q0 -0.671875 -0.46875 -0.953125q-0.46875 -0.296875 -1.4375 -0.296875l-0.609375 0l0 2.5625zm0 1.640625l0 3.65625l-2.015625 0l0 -9.515625l2.765625 0q1.9375 0 2.859375 0.703125q0.9375 0.703125 0.9375 2.140625q0 0.84375 -0.46875 1.5q-0.453125 0.65625 -1.296875 1.03125q2.140625 3.203125 2.796875 4.140625l-2.234375 0l-2.28125 -3.65625l-1.0625 0zm9.62677 -2.34375q-0.625 0 -0.984375 0.40625q-0.359375 0.390625 -0.40625 1.125l2.78125 0q-0.015625 -0.734375 -0.390625 -1.125q-0.359375 -0.40625 -1.0 -0.40625zm0.28125 6.125q-1.75 0 -2.75 -0.96875q-0.984375 -0.96875 -0.984375 -2.734375q0 -1.84375 0.90625 -2.828125q0.921875 -1.0 2.546875 -1.0q1.53125 0 2.390625 0.875q0.859375 0.875 0.859375 2.421875l0 0.96875l-4.6875 0q0.03125 0.84375 0.5 1.328125q0.46875 0.46875 1.3125 0.46875q0.65625 0 1.234375 -0.140625q0.59375 -0.140625 1.234375 -0.4375l0 1.53125q-0.515625 0.265625 -1.109375 0.390625q-0.59375 0.125 -1.453125 0.125zm9.202637 -0.125l-0.375 -0.984375l-0.0625 0q-0.5 0.625 -1.03125 0.875q-0.53125 0.234375 -1.375 0.234375q-1.046875 0 -1.65625 -0.59375q-0.59375 -0.59375 -0.59375 -1.703125q0 -1.15625 0.8125 -1.703125q0.8125 -0.5625 2.4375 -0.609375l1.265625 -0.046875l0 -0.3125q0 -1.109375 -1.140625 -1.109375q-0.859375 0 -2.046875 0.53125l-0.65625 -1.34375q1.265625 -0.65625 2.78125 -0.65625q1.46875 0 2.25 0.640625q0.78125 0.625 0.78125 1.9375l0 4.84375l-1.390625 0zm-0.578125 -3.375l-0.765625 0.03125q-0.875 0.03125 -1.296875 0.3125q-0.421875 0.28125 -0.421875 0.875q0 0.828125 0.96875 0.828125q0.6875 0 1.09375 -0.390625q0.421875 -0.390625 0.421875 -1.046875l0 -0.609375zm6.315918 3.5q-1.28125 0 -2.015625 -0.984375q-0.734375 -1.0 -0.734375 -2.765625q0 -1.796875 0.75 -2.78125q0.75 -1.0 2.046875 -1.0q1.375 0 2.109375 1.0625l0.0625 0q-0.15625 -0.8125 -0.15625 -1.453125l0 -2.328125l2.0 0l0 10.125l-1.53125 0l-0.375 -0.9375l-0.09375 0q-0.671875 1.0625 -2.0625 1.0625zm0.703125 -1.578125q0.75 0 1.109375 -0.4375q0.359375 -0.453125 0.390625 -1.5l0 -0.21875q0 -1.171875 -0.359375 -1.671875q-0.359375 -0.515625 -1.171875 -0.515625q-0.671875 0 -1.046875 0.5625q-0.359375 0.5625 -0.359375 1.640625q0 1.0625 0.359375 1.609375q0.375 0.53125 1.078125 0.53125zm15.036987 1.453125l-6.65625 0l0 -1.40625l2.390625 -2.40625q1.0625 -1.09375 1.390625 -1.5q0.328125 -0.421875 0.46875 -0.78125q0.140625 -0.359375 0.140625 -0.75q0 -0.5625 -0.328125 -0.84375q-0.3125 -0.28125 -0.828125 -0.28125q-0.5625 0 -1.078125 0.25q-0.515625 0.25 -1.09375 0.71875l-1.09375 -1.296875q0.703125 -0.59375 1.171875 -0.84375q0.46875 -0.25 1.015625 -0.375q0.546875 -0.140625 1.21875 -0.140625q0.890625 0 1.5625 0.328125q0.6875 0.328125 1.0625 0.921875q0.390625 0.578125 0.390625 1.328125q0 0.65625 -0.234375 1.234375q-0.234375 0.578125 -0.71875 1.1875q-0.484375 0.609375 -1.703125 1.71875l-1.21875 1.15625l0 0.09375l4.140625 0l0 1.6875z"
       fill-rule="nonzero"
       id="path339" />
    <path
       fill="#000000"
       fill-opacity="0.0"
       d="m753.66406 101.55905l114.48816 0l0 23.874016l-114.48816 0z"
       fill-rule="evenodd"
       id="path341" />
    <path
       fill="#999999"
       d="m806.1385 113.26481l0.65625 0q0.9375 0 1.390625 -0.359375q0.46875 -0.375 0.46875 -1.078125q0 -0.71875 -0.390625 -1.046875q-0.390625 -0.34375 -1.21875 -0.34375l-0.90625 0l0 2.828125zm4.546875 -1.515625q0 1.53125 -0.96875 2.34375q-0.953125 0.8125 -2.71875 0.8125l-0.859375 0l0 3.390625l-2.015625 0l0 -9.515625l3.03125 0q1.734375 0 2.625 0.75q0.90625 0.734375 0.90625 2.21875zm2.0878296 6.546875l3.5625 -7.8125l-4.6875 0l0 -1.6875l6.828125 0l0 1.265625l-3.609375 8.234375l-2.09375 0z"
       fill-rule="nonzero"
       id="path343" />
    <path
       fill="#000000"
       fill-opacity="0.0"
       d="m667.5512 101.55905l139.62201 0l0 23.874016l-139.62201 0z"
       fill-rule="evenodd"
       id="path345" />
    <path
       fill="#999999"
       d="m719.7474 107.65543q0 1.28125 -0.9375 2.03125q-0.921875 0.734375 -2.5625 0.734375q-1.53125 0 -2.703125 -0.5625l0 -1.875q0.96875 0.421875 1.625 0.609375q0.671875 0.171875 1.234375 0.171875q0.65625 0 1.0 -0.25q0.359375 -0.265625 0.359375 -0.765625q0 -0.28125 -0.15625 -0.5q-0.15625 -0.21875 -0.453125 -0.40625q-0.296875 -0.203125 -1.234375 -0.65625q-0.875 -0.40625 -1.3125 -0.78125q-0.421875 -0.375 -0.6875 -0.875q-0.265625 -0.515625 -0.265625 -1.171875q0 -1.265625 0.859375 -1.984375q0.859375 -0.734375 2.359375 -0.734375q0.75 0 1.421875 0.1875q0.671875 0.171875 1.40625 0.484375l-0.640625 1.578125q-0.765625 -0.3125 -1.265625 -0.4375q-0.5 -0.125 -0.984375 -0.125q-0.5625 0 -0.875 0.265625q-0.3125 0.265625 -0.3125 0.6875q0 0.28125 0.125 0.484375q0.125 0.1875 0.390625 0.375q0.28125 0.1875 1.28125 0.65625q1.34375 0.640625 1.828125 1.28125q0.5 0.640625 0.5 1.578125zm6.1846313 2.640625l-0.375 -0.984375l-0.0625 0q-0.5 0.625 -1.03125 0.875q-0.53125 0.234375 -1.375 0.234375q-1.046875 0 -1.65625 -0.59375q-0.59375 -0.59375 -0.59375 -1.703125q0 -1.15625 0.8125 -1.703125q0.8125 -0.5625 2.4375 -0.609375l1.265625 -0.046875l0 -0.3125q0 -1.109375 -1.140625 -1.109375q-0.859375 0 -2.046875 0.53125l-0.65625 -1.34375q1.265625 -0.65625 2.78125 -0.65625q1.46875 0 2.25 0.640625q0.78125 0.625 0.78125 1.9375l0 4.84375l-1.390625 0zm-0.578125 -3.375l-0.765625 0.03125q-0.875 0.03125 -1.296875 0.3125q-0.421875 0.28125 -0.421875 0.875q0 0.828125 0.96875 0.828125q0.6875 0 1.09375 -0.390625q0.421875 -0.390625 0.421875 -1.046875l0 -0.609375zm10.534668 3.375l-1.984375 0l0 -4.25q0 -0.78125 -0.265625 -1.171875q-0.265625 -0.40625 -0.828125 -0.40625q-0.765625 0 -1.109375 0.5625q-0.34381104 0.5625 -0.34381104 1.84375l0 3.421875l-1.984375 0l0 -7.28125l1.515625 0l0.265625 0.9375l0.109375 0q0.29693604 -0.5 0.84381104 -0.78125q0.546875 -0.28125 1.265625 -0.28125q1.640625 0 2.21875 1.0625l0.171875 0q0.296875 -0.515625 0.859375 -0.78125q0.578125 -0.28125 1.296875 -0.28125q1.234375 0 1.859375 0.640625q0.640625 0.625 0.640625 2.015625l0 4.75l-2.0 0l0 -4.25q0 -0.78125 -0.265625 -1.171875q-0.25 -0.40625 -0.828125 -0.40625q-0.71875 0 -1.078125 0.53125q-0.359375 0.515625 -0.359375 1.640625l0 3.65625zm10.556091 0.125q-1.28125 0 -2.0 -0.921875l-0.109375 0q0.109375 0.90625 0.109375 1.046875l0 2.953125l-1.984375 0l0 -10.484375l1.609375 0l0.28125 0.953125l0.09375 0q0.6875 -1.078125 2.0625 -1.078125q1.28125 0 2.0 1.0q0.734375 0.984375 0.734375 2.75q0 1.171875 -0.34375 2.03125q-0.328125 0.859375 -0.96875 1.3125q-0.625 0.4375 -1.484375 0.4375zm-0.578125 -5.953125q-0.734375 0 -1.078125 0.453125q-0.328125 0.453125 -0.34375 1.5l0 0.21875q0 1.15625 0.34375 1.671875q0.34375 0.5 1.109375 0.5q1.328125 0 1.328125 -2.1875q0 -1.078125 -0.328125 -1.609375q-0.328125 -0.546875 -1.03125 -0.546875zm7.012329 5.828125l-1.984375 0l0 -10.125l1.984375 0l0 10.125zm5.083008 -6.0q-0.625 0 -0.984375 0.40625q-0.359375 0.390625 -0.40625 1.125l2.78125 0q-0.015625 -0.734375 -0.390625 -1.125q-0.359375 -0.40625 -1.0 -0.40625zm0.28125 6.125q-1.75 0 -2.75 -0.96875q-0.984375 -0.96875 -0.984375 -2.734375q0 -1.84375 0.90625 -2.828125q0.921875 -1.0 2.546875 -1.0q1.53125 0 2.390625 0.875q0.859375 0.875 0.859375 2.421875l0 0.96875l-4.6875 0q0.03125 0.84375 0.5 1.328125q0.46875 0.46875 1.3125 0.46875q0.65625 0 1.234375 -0.140625q0.59375 -0.140625 1.234375 -0.4375l0 1.53125q-0.515625 0.265625 -1.109375 0.390625q-0.59375 0.125 -1.453125 0.125z"
       fill-rule="nonzero"
       id="path347" />
    <path
       fill="#999999"
       d="m719.97235 126.29606l0 -9.515625l2.015625 0l0 9.515625l-2.015625 0zm10.9591675 0l-1.984375 0l0 -4.25q0 -0.78125 -0.28125 -1.171875q-0.265625 -0.40625 -0.890625 -0.40625q-0.828125 0 -1.203125 0.5625q-0.359375 0.546875 -0.359375 1.84375l0 3.421875l-1.984375 0l0 -7.28125l1.515625 0l0.265625 0.9375l0.109375 0q0.328125 -0.53125 0.90625 -0.796875q0.59375 -0.265625 1.328125 -0.265625q1.265625 0 1.921875 0.6875q0.65625 0.671875 0.65625 1.96875l0 4.75zm4.3533936 0.125q-1.28125 0 -2.015625 -0.984375q-0.734375 -1.0 -0.734375 -2.765625q0 -1.796875 0.75 -2.78125q0.75 -1.0 2.046875 -1.0q1.375 0 2.109375 1.0625l0.0625 0q-0.15625 -0.8125 -0.15625 -1.453125l0 -2.328125l2.0 0l0 10.125l-1.53125 0l-0.375 -0.9375l-0.09375 0q-0.671875 1.0625 -2.0625 1.0625zm0.703125 -1.578125q0.75 0 1.109375 -0.4375q0.359375 -0.453125 0.390625 -1.5l0 -0.21875q0 -1.171875 -0.359375 -1.671875q-0.359375 -0.515625 -1.171875 -0.515625q-0.671875 0 -1.046875 0.5625q-0.359375 0.5625 -0.359375 1.640625q0 1.0625 0.359375 1.609375q0.375 0.53125 1.078125 0.53125zm8.434204 -4.546875q-0.625 0 -0.984375 0.40625q-0.359375 0.390625 -0.40625 1.125l2.78125 0q-0.015625 -0.734375 -0.390625 -1.125q-0.359375 -0.40625 -1.0 -0.40625zm0.28125 6.125q-1.75 0 -2.75 -0.96875q-0.984375 -0.96875 -0.984375 -2.734375q0 -1.84375 0.90625 -2.828125q0.921875 -1.0 2.546875 -1.0q1.53125 0 2.390625 0.875q0.859375 0.875 0.859375 2.421875l0 0.96875l-4.6875 0q0.03125 0.84375 0.5 1.328125q0.46875 0.46875 1.3125 0.46875q0.65625 0 1.234375 -0.140625q0.59375 -0.140625 1.234375 -0.4375l0 1.53125q-0.515625 0.265625 -1.109375 0.390625q-0.59375 0.125 -1.453125 0.125zm6.0776367 -3.84375l-2.34375 -3.5625l2.25 0l1.421875 2.328125l1.421875 -2.328125l2.25 0l-2.375 3.5625l2.484375 3.71875l-2.265625 0l-1.515625 -2.5l-1.546875 2.5l-2.25 0l2.46875 -3.71875z"
       fill-rule="nonzero"
       id="path349" />
    <path
       fill="#000000"
       fill-opacity="0.0"
       d="m129.25984 53.93506l585.51184 0"
       fill-rule="evenodd"
       id="path351" />
    <path
       fill="#000000"
       fill-opacity="0.0"
       d="m129.25984 173.93506l585.51184 0"
       fill-rule="evenodd"
       id="path357" />
    <path
       d="M 487.5411,173.93506 H 714.7717"
       id="path359"
       inkscape:connector-curvature="0"
       style="fill-rule:evenodd;stroke:#434343;stroke-width:3;stroke-linecap:butt;stroke-linejoin:round;marker-start:url(#Arrow1Mstart);fill:#434343;fill-opacity:1"
       sodipodi:nodetypes="cc" />
    <g
       filter="url(#shadowFilter-p.15)"
       id="g365">
      <use
         xlink:href="#p.15"
         transform="translate(116,2)"
         id="use363"
         x="0"
         y="0"
         width="100%"
         height="100%" />
    </g>
    <defs
       id="defs380">
      <filter
         id="shadowFilter-p.15"
         filterUnits="userSpaceOnUse">
        <feGaussianBlur
           in="SourceAlpha"
           stdDeviation="2.0"
           result="blur"
           id="feGaussianBlur367" />
        <feComponentTransfer
           in="blur"
           color-interpolation-filters="sRGB"
           id="feComponentTransfer377">
          <feFuncR
             type="linear"
             slope="0"
             intercept="0.0"
             id="feFuncR369" />
          <feFuncG
             type="linear"
             slope="0"
             intercept="0.0"
             id="feFuncG371" />
          <feFuncB
             type="linear"
             slope="0"
             intercept="0.0"
             id="feFuncB373" />
          <feFuncA
             type="linear"
             slope="0.5"
             intercept="0"
             id="feFuncA375" />
        </feComponentTransfer>
      </filter>
    </defs>
    <g
       id="p.15"
       transform="translate(-116)">
      <path
         d="m 243.04724,66.685036 h 65.16534 v 29.354332 h -65.16534 z"
         id="path382"
         inkscape:connector-curvature="0"
         style="fill:#6aa84f;fill-rule:evenodd" />
    </g>
    <g
       filter="url(#shadowFilter-p.16)"
       id="g387">
      <use
         xlink:href="#p.16"
         transform="translate(116,2)"
         id="use385"
         x="0"
         y="0"
         width="100%"
         height="100%" />
    </g>
    <defs
       id="defs402">
      <filter
         id="shadowFilter-p.16"
         filterUnits="userSpaceOnUse">
        <feGaussianBlur
           in="SourceAlpha"
           stdDeviation="2.0"
           result="blur"
           id="feGaussianBlur389" />
        <feComponentTransfer
           in="blur"
           color-interpolation-filters="sRGB"
           id="feComponentTransfer399">
          <feFuncR
             type="linear"
             slope="0"
             intercept="0.0"
             id="feFuncR391" />
          <feFuncG
             type="linear"
             slope="0"
             intercept="0.0"
             id="feFuncG393" />
          <feFuncB
             type="linear"
             slope="0"
             intercept="0.0"
             id="feFuncB395" />
          <feFuncA
             type="linear"
             slope="0.5"
             intercept="0"
             id="feFuncA397" />
        </feComponentTransfer>
      </filter>
    </defs>
    <g
       id="p.16"
       transform="translate(-116)">
      <path
         d="m 243.04724,130.68504 h 65.16534 v 29.35432 h -65.16534 z"
         id="path404"
         inkscape:connector-curvature="0"
         style="fill:#6aa84f;fill-rule:evenodd" />
    </g>
    <g
       filter="url(#shadowFilter-p.17)"
       id="g409">
      <use
         xlink:href="#p.17"
         transform="matrix(1.0 0.0 0.0 1.0 0.0 2.0)"
         id="use407" />
    </g>
    <defs
       id="defs424">
      <filter
         id="shadowFilter-p.17"
         filterUnits="userSpaceOnUse">
        <feGaussianBlur
           in="SourceAlpha"
           stdDeviation="2.0"
           result="blur"
           id="feGaussianBlur411" />
        <feComponentTransfer
           in="blur"
           color-interpolation-filters="sRGB"
           id="feComponentTransfer421">
          <feFuncR
             type="linear"
             slope="0"
             intercept="0.0"
             id="feFuncR413" />
          <feFuncG
             type="linear"
             slope="0"
             intercept="0.0"
             id="feFuncG415" />
          <feFuncB
             type="linear"
             slope="0"
             intercept="0.0"
             id="feFuncB417" />
          <feFuncA
             type="linear"
             slope="0.5"
             intercept="0"
             id="feFuncA419" />
        </feComponentTransfer>
      </filter>
    </defs>
    <g
       id="p.17" />
    <g
       filter="url(#shadowFilter-p.18)"
       id="g431">
      <use
         xlink:href="#p.18"
         transform="matrix(1.0 0.0 0.0 1.0 0.0 2.0)"
         id="use429" />
    </g>
    <defs
       id="defs446">
      <filter
         id="shadowFilter-p.18"
         filterUnits="userSpaceOnUse">
        <feGaussianBlur
           in="SourceAlpha"
           stdDeviation="2.0"
           result="blur"
           id="feGaussianBlur433" />
        <feComponentTransfer
           in="blur"
           color-interpolation-filters="sRGB"
           id="feComponentTransfer443">
          <feFuncR
             type="linear"
             slope="0"
             intercept="0.0"
             id="feFuncR435" />
          <feFuncG
             type="linear"
             slope="0"
             intercept="0.0"
             id="feFuncG437" />
          <feFuncB
             type="linear"
             slope="0"
             intercept="0.0"
             id="feFuncB439" />
          <feFuncA
             type="linear"
             slope="0.5"
             intercept="0"
             id="feFuncA441" />
        </feComponentTransfer>
      </filter>
    </defs>
    <g
       id="p.18" />
    <g
       id="g1276"
       transform="translate(-410)">
      <path
         id="path1274"
         d="M 601.66406,66.685036 H 716.15222 V 96.039368 H 601.66406 Z"
         inkscape:connector-curvature="0"
         style="fill:#000000;fill-rule:evenodd" />
    </g>
    <g
       id="g1280"
       transform="translate(-410)">
      <path
         id="path1278"
         d="m 601.66406,130.68504 h 114.48816 v 29.35432 H 601.66406 Z"
         inkscape:connector-curvature="0"
         style="fill:#000000;fill-rule:evenodd" />
    </g>
    <path
       sodipodi:nodetypes="cc"
       style="fill:#434343;fill-opacity:1;fill-rule:evenodd;stroke:#434343;stroke-width:3;stroke-linecap:butt;stroke-linejoin:round;marker-start:url(#marker1752)"
       inkscape:connector-curvature="0"
       id="path1748"
       d="M 420.618,54.891861 H 193.3874" />
  </g>
</svg>
