<svg version="1.1" viewBox="0.0 0.0 1053.291338582677 348.6692913385827" fill="none" stroke="none" stroke-linecap="square" stroke-miterlimit="10" xmlns:xlink="http://www.w3.org/1999/xlink" xmlns="http://www.w3.org/2000/svg"><clipPath id="p.0"><path d="m0 0l1053.2914 0l0 348.66928l-1053.2914 0l0 -348.66928z" clip-rule="nonzero"/></clipPath><g clip-path="url(#p.0)"><path fill="#000000" fill-opacity="0.0" d="m0 0l1053.2914 0l0 348.66928l-1053.2914 0z" fill-rule="evenodd"/><g filter="url(#shadowFilter-p.1)"><use xlink:href="#p.1" transform="matrix(1.0 0.0 0.0 1.0 0.0 2.0)"/></g><defs><filter id="shadowFilter-p.1" filterUnits="userSpaceOnUse"><feGaussianBlur in="SourceAlpha" stdDeviation="2.0" result="blur"/><feComponentTransfer in="blur" color-interpolation-filters="sRGB"><feFuncR type="linear" slope="0" intercept="0.0"/><feFuncG type="linear" slope="0" intercept="0.0"/><feFuncB type="linear" slope="0" intercept="0.0"/><feFuncA type="linear" slope="0.5" intercept="0"/></feComponentTransfer></filter></defs><g id="p.1"><path fill="#000000" fill-opacity="0.0" d="m9.472441 103.419945l386.2362 0" fill-rule="evenodd"/><path stroke="#783f04" stroke-width="16.0" stroke-linejoin="round" stroke-linecap="butt" d="m9.472441 103.419945l386.2362 0" fill-rule="evenodd"/></g><g filter="url(#shadowFilter-p.2)"><use xlink:href="#p.2" transform="matrix(1.0 0.0 0.0 1.0 0.0 2.0)"/></g><defs><filter id="shadowFilter-p.2" filterUnits="userSpaceOnUse"><feGaussianBlur in="SourceAlpha" stdDeviation="2.0" result="blur"/><feComponentTransfer in="blur" color-interpolation-filters="sRGB"><feFuncR type="linear" slope="0" intercept="0.0"/><feFuncG type="linear" slope="0" intercept="0.0"/><feFuncB type="linear" slope="0" intercept="0.0"/><feFuncA type="linear" slope="0.5" intercept="0"/></feComponentTransfer></filter></defs><g id="p.2"><path fill="#000000" fill-opacity="0.0" d="m349.01315 75.13386l451.3071 0l0 55.811028l-451.3071 0z" fill-rule="evenodd"/><path fill="#000000" d="m409.77878 109.57261l-7.109375 0l-1.5625 5.28125l-3.875 0l7.390625 -22.75l3.296875 0l7.25 22.75l-3.859375 0l-1.53125 -5.28125zm-6.15625 -3.203125l5.21875 0l-2.578125 -8.921875l-2.640625 8.921875zm25.359375 3.203125l-7.109375 0l-1.5625 5.28125l-3.875 0l7.390625 -22.75l3.296875 0l7.25 22.75l-3.859375 0l-1.53125 -5.28125zm-6.15625 -3.203125l5.21875 0l-2.578125 -8.921875l-2.640625 8.921875zm25.359375 3.203125l-7.109375 0l-1.5625 5.28125l-3.875 0l7.390625 -22.75l3.296875 0l7.25 22.75l-3.859375 0l-1.53125 -5.28125zm-6.15625 -3.203125l5.21875 0l-2.578125 -8.921875l-2.640625 8.921875zm25.359375 3.203125l-7.109375 0l-1.5625 5.28125l-3.875 0l7.390625 -22.75l3.296875 0l7.25 22.75l-3.859375 0l-1.53125 -5.28125zm-6.15625 -3.203125l5.21875 0l-2.578125 -8.921875l-2.640625 8.921875zm25.359375 3.203125l-7.109375 0l-1.5625 5.28125l-3.875 0l7.390625 -22.75l3.296875 0l7.25 22.75l-3.859375 0l-1.53125 -5.28125zm-6.15625 -3.203125l5.21875 0l-2.578125 -8.921875l-2.640625 8.921875zm25.359375 3.203125l-7.109375 0l-1.5625 5.28125l-3.875 0l7.390625 -22.75l3.296875 0l7.25 22.75l-3.859375 0l-1.53125 -5.28125zm-6.15625 -3.203125l5.21875 0l-2.578125 -8.921875l-2.640625 8.921875zm25.359406 3.203125l-7.109375 0l-1.5625 5.28125l-3.875 0l7.390625 -22.75l3.296875 0l7.25 22.75l-3.859375 0l-1.53125 -5.28125zm-6.15625 -3.203125l5.21875 0l-2.578125 -8.921875l-2.640625 8.921875zm25.359375 3.203125l-7.109375 0l-1.5625 5.28125l-3.875 0l7.390625 -22.75l3.296875 0l7.25 22.75l-3.859375 0l-1.53125 -5.28125zm-6.15625 -3.203125l5.21875 0l-2.578125 -8.921875l-2.640625 8.921875zm25.359375 3.203125l-7.109375 0l-1.5625 5.28125l-3.875 0l7.390625 -22.75l3.296875 0l7.25 22.75l-3.859375 0l-1.53125 -5.28125zm-6.15625 -3.203125l5.21875 0l-2.578125 -8.921875l-2.640625 8.921875z" fill-rule="nonzero"/></g><g filter="url(#shadowFilter-p.3)"><use xlink:href="#p.3" transform="matrix(1.0 0.0 0.0 1.0 0.0 2.0)"/></g><defs><filter id="shadowFilter-p.3" filterUnits="userSpaceOnUse"><feGaussianBlur in="SourceAlpha" stdDeviation="2.0" result="blur"/><feComponentTransfer in="blur" color-interpolation-filters="sRGB"><feFuncR type="linear" slope="0" intercept="0.0"/><feFuncG type="linear" slope="0" intercept="0.0"/><feFuncB type="linear" slope="0" intercept="0.0"/><feFuncA type="linear" slope="0.5" intercept="0"/></feComponentTransfer></filter></defs><g id="p.3"><path fill="#000000" fill-opacity="0.0" d="m349.01315 107.13386l451.3071 0l0 55.811028l-451.3071 0z" fill-rule="evenodd"/><path fill="#000000" d="m386.77878 141.15074l4.734375 -17.046883l4.09375 0l-7.03125 22.750008l-3.578125 0l-7.015625 -22.750008l4.09375 0l4.703125 17.046883zm28.078125 -13.953133l-6.984375 0l0 19.656258l-3.734375 0l0 -19.656258l-6.9375 0l0 -3.09375l17.65625 0l0 3.09375zm19.203125 0l-6.984375 0l0 19.656258l-3.734375 0l0 -19.656258l-6.9375 0l0 -3.09375l17.65625 0l0 3.09375zm19.203125 0l-6.984375 0l0 19.656258l-3.734375 0l0 -19.656258l-6.9375 0l0 -3.09375l17.65625 0l0 3.09375zm19.203125 0l-6.984375 0l0 19.656258l-3.734375 0l0 -19.656258l-6.9375 0l0 -3.09375l17.65625 0l0 3.09375zm19.203125 0l-6.984375 0l0 19.656258l-3.734375 0l0 -19.656258l-6.9375 0l0 -3.09375l17.65625 0l0 3.09375zm19.203125 0l-6.984375 0l0 19.656258l-3.734375 0l0 -19.656258l-6.9375 0l0 -3.09375l17.65625 0l0 3.09375zm19.203156 0l-6.984375 0l0 19.656258l-3.734375 0l0 -19.656258l-6.9375 0l0 -3.09375l17.65625 0l0 3.09375zm19.203125 0l-6.984375 0l0 19.656258l-3.734375 0l0 -19.656258l-6.9375 0l0 -3.09375l17.65625 0l0 3.09375zm19.203125 0l-6.984375 0l0 19.656258l-3.734375 0l0 -19.656258l-6.9375 0l0 -3.09375l17.65625 0l0 3.09375z" fill-rule="nonzero"/></g><g filter="url(#shadowFilter-p.4)"><use xlink:href="#p.4" transform="matrix(1.0 0.0 0.0 1.0 0.0 2.0)"/></g><defs><filter id="shadowFilter-p.4" filterUnits="userSpaceOnUse"><feGaussianBlur in="SourceAlpha" stdDeviation="2.0" result="blur"/><feComponentTransfer in="blur" color-interpolation-filters="sRGB"><feFuncR type="linear" slope="0" intercept="0.0"/><feFuncG type="linear" slope="0" intercept="0.0"/><feFuncB type="linear" slope="0" intercept="0.0"/><feFuncA type="linear" slope="0.5" intercept="0"/></feComponentTransfer></filter></defs><g id="p.4"><path fill="#000000" fill-opacity="0.0" d="m584.00824 135.4196l113.82672 0" fill-rule="evenodd"/><path stroke="#ff00ff" stroke-width="16.0" stroke-linejoin="round" stroke-linecap="butt" d="m584.00824 135.4196l113.82672 0" fill-rule="evenodd"/></g><g filter="url(#shadowFilter-p.5)"><use xlink:href="#p.5" transform="matrix(1.0 0.0 0.0 1.0 0.0 2.0)"/></g><defs><filter id="shadowFilter-p.5" filterUnits="userSpaceOnUse"><feGaussianBlur in="SourceAlpha" stdDeviation="2.0" result="blur"/><feComponentTransfer in="blur" color-interpolation-filters="sRGB"><feFuncR type="linear" slope="0" intercept="0.0"/><feFuncG type="linear" slope="0" intercept="0.0"/><feFuncB type="linear" slope="0" intercept="0.0"/><feFuncA type="linear" slope="0.5" intercept="0"/></feComponentTransfer></filter></defs><g id="p.5"><path fill="#000000" fill-opacity="0.0" d="m696.00824 135.4196l113.82672 0" fill-rule="evenodd"/><path stroke="#4a86e8" stroke-width="16.0" stroke-linejoin="round" stroke-linecap="butt" d="m696.00824 135.4196l113.82672 0" fill-rule="evenodd"/></g><g filter="url(#shadowFilter-p.6)"><use xlink:href="#p.6" transform="matrix(1.0 0.0 0.0 1.0 0.0 2.0)"/></g><defs><filter id="shadowFilter-p.6" filterUnits="userSpaceOnUse"><feGaussianBlur in="SourceAlpha" stdDeviation="2.0" result="blur"/><feComponentTransfer in="blur" color-interpolation-filters="sRGB"><feFuncR type="linear" slope="0" intercept="0.0"/><feFuncG type="linear" slope="0" intercept="0.0"/><feFuncB type="linear" slope="0" intercept="0.0"/><feFuncA type="linear" slope="0.5" intercept="0"/></feComponentTransfer></filter></defs><g id="p.6"><path fill="#000000" fill-opacity="0.0" d="m808.00824 135.4196l113.82672 0" fill-rule="evenodd"/><path stroke="#980000" stroke-width="16.0" stroke-linejoin="round" stroke-linecap="butt" d="m808.00824 135.4196l113.82672 0" fill-rule="evenodd"/></g><g filter="url(#shadowFilter-p.7)"><use xlink:href="#p.7" transform="matrix(1.0 0.0 0.0 1.0 0.0 2.0)"/></g><defs><filter id="shadowFilter-p.7" filterUnits="userSpaceOnUse"><feGaussianBlur in="SourceAlpha" stdDeviation="2.0" result="blur"/><feComponentTransfer in="blur" color-interpolation-filters="sRGB"><feFuncR type="linear" slope="0" intercept="0.0"/><feFuncG type="linear" slope="0" intercept="0.0"/><feFuncB type="linear" slope="0" intercept="0.0"/><feFuncA type="linear" slope="0.5" intercept="0"/></feComponentTransfer></filter></defs><g id="p.7"><path fill="#000000" fill-opacity="0.0" d="m920.00824 135.4196l113.82672 0" fill-rule="evenodd"/><path stroke="#274e13" stroke-width="16.0" stroke-linejoin="round" stroke-linecap="butt" d="m920.00824 135.4196l113.82672 0" fill-rule="evenodd"/></g><path fill="#000000" fill-opacity="0.0" d="m575.4593 152.03412l544.7559 0l0 55.81102l-544.7559 0z" fill-rule="evenodd"/><path fill="#ff00ff" d="m628.0773 165.68849l0 8.796875q0 1.109375 -0.3125 1.984375q-0.296875 0.859375 -0.875 1.453125q-0.578125 0.59375 -1.40625 0.90625q-0.828125 0.3125 -1.90625 0.3125q-1.0 0 -1.8125 -0.3125q-0.796875 -0.3125 -1.375 -0.90625q-0.5625 -0.59375 -0.890625 -1.453125q-0.3125 -0.875 -0.3125 -1.984375l0.015625 -8.796875l2.5625 0l0 8.796875q0.015625 1.28125 0.46875 1.9375q0.46875 0.65625 1.34375 0.65625q0.953125 0 1.4375 -0.65625q0.5 -0.65625 0.515625 -1.9375l0 -8.796875l2.546875 0zm5.5080566 0l1.25 4.984375l1.421875 -4.984375l3.1875 0l0 13.265625l-2.34375 0l0 -3.921875l0.109375 -6.203125l-1.75 5.75l-1.265625 0l-1.5625 -5.515625l0.109375 5.96875l0 3.921875l-2.34375 0l0 -13.265625l3.1875 0zm8.617493 0l7.65625 0l0 2.0625l-2.578125 0l0 9.140625l2.578125 0l0 2.0625l-7.65625 0l0 -2.0625l2.515625 0l0 -9.140625l-2.515625 0l0 -2.0625z" fill-rule="nonzero"/><path fill="#4a86e8" d="m729.2124 174.79787q-0.0625 1.0 -0.4375 1.8125q-0.375 0.796875 -1.0 1.359375q-0.609375 0.5625 -1.46875 0.875q-0.84375 0.296875 -1.890625 0.296875q-1.171875 0 -2.09375 -0.421875q-0.90625 -0.4375 -1.53125 -1.21875q-0.609375 -0.78125 -0.9375 -1.875q-0.328125 -1.09375 -0.328125 -2.40625l0 -1.78125q0 -1.328125 0.34375 -2.40625q0.34375 -1.09375 0.984375 -1.875q0.640625 -0.796875 1.546875 -1.21875q0.90625 -0.4375 2.03125 -0.4375q1.09375 0 1.9375 0.3125q0.859375 0.3125 1.453125 0.890625q0.609375 0.5625 0.953125 1.390625q0.359375 0.828125 0.4375 1.875l-2.546875 0q-0.03125 -0.59375 -0.171875 -1.03125q-0.140625 -0.453125 -0.421875 -0.75q-0.265625 -0.296875 -0.671875 -0.453125q-0.40625 -0.15625 -0.96875 -0.15625q-0.59375 0 -1.03125 0.265625q-0.4375 0.25 -0.71875 0.75q-0.28125 0.484375 -0.421875 1.203125q-0.140625 0.71875 -0.140625 1.625l0 1.796875q0 1.96875 0.546875 2.90625q0.5625 0.9375 1.75 0.9375q1.0 0 1.578125 -0.53125q0.59375 -0.53125 0.65625 -1.734375l2.5625 0zm6.8518677 4.34375q-1.140625 0 -2.078125 -0.375q-0.921875 -0.375 -1.59375 -1.015625q-0.65625 -0.640625 -1.015625 -1.515625q-0.359375 -0.875 -0.359375 -1.859375l0 -0.375q0 -1.125 0.359375 -2.046875q0.359375 -0.9375 0.984375 -1.609375q0.640625 -0.6875 1.515625 -1.046875q0.875 -0.375 1.90625 -0.375q1.0625 0 1.890625 0.34375q0.84375 0.34375 1.421875 0.984375q0.578125 0.640625 0.875 1.546875q0.3125 0.890625 0.3125 1.96875l0 1.078125l-6.6875 0q0.0625 0.5 0.28125 0.921875q0.234375 0.40625 0.578125 0.71875q0.34375 0.296875 0.78125 0.46875q0.453125 0.15625 0.984375 0.15625q0.375 0 0.734375 -0.078125q0.375 -0.078125 0.703125 -0.21875q0.34375 -0.140625 0.640625 -0.34375q0.296875 -0.21875 0.515625 -0.5l1.265625 1.375q-0.234375 0.328125 -0.625 0.65625q-0.375 0.328125 -0.890625 0.578125q-0.515625 0.25 -1.140625 0.40625q-0.625 0.15625 -1.359375 0.15625zm-0.296875 -8.171875q-0.421875 0 -0.78125 0.15625q-0.359375 0.140625 -0.625 0.421875q-0.265625 0.28125 -0.453125 0.671875q-0.1875 0.390625 -0.265625 0.875l4.140625 0l0 -0.203125q-0.015625 -0.390625 -0.15625 -0.75q-0.125 -0.359375 -0.390625 -0.609375q-0.25 -0.265625 -0.625 -0.40625q-0.359375 -0.15625 -0.84375 -0.15625zm7.2424316 -6.015625l5.515625 0l0 11.9375l2.8125 0l0 2.0625l-8.328125 0l0 -2.0625l2.953125 0l0 -9.859375l-2.953125 0l0 -2.078125zm11.195557 0l5.515625 0l0 11.9375l2.8125 0l0 2.0625l-8.328125 0l0 -2.0625l2.953125 0l0 -9.859375l-2.953125 0l0 -2.078125zm10.554932 14.0l0 -13.265625l4.453125 0q1.09375 0 1.96875 0.21875q0.890625 0.21875 1.515625 0.671875q0.640625 0.4375 0.984375 1.125q0.34375 0.6875 0.34375 1.609375q-0.015625 0.9375 -0.5 1.671875q-0.484375 0.734375 -1.4375 1.125q0.578125 0.140625 0.984375 0.4375q0.421875 0.28125 0.703125 0.6875q0.28125 0.390625 0.40625 0.859375q0.140625 0.46875 0.140625 0.96875q0 0.953125 -0.328125 1.6875q-0.328125 0.734375 -0.9375 1.234375q-0.609375 0.484375 -1.484375 0.734375q-0.875 0.234375 -1.96875 0.234375l-4.84375 0zm2.578125 -5.84375l0 3.78125l2.265625 0q1.046875 -0.015625 1.59375 -0.515625q0.5625 -0.515625 0.5625 -1.328125q0.015625 -0.90625 -0.5 -1.421875q-0.5 -0.515625 -1.546875 -0.515625l-2.375 0zm0 -1.859375l1.890625 0q1.078125 0 1.640625 -0.4375q0.578125 -0.4375 0.59375 -1.28125q0 -0.9375 -0.578125 -1.34375q-0.578125 -0.40625 -1.65625 -0.40625l-1.890625 0l0 3.46875zm17.851868 3.546875q-0.0625 1.0 -0.4375 1.8125q-0.375 0.796875 -1.0 1.359375q-0.609375 0.5625 -1.46875 0.875q-0.84375 0.296875 -1.890625 0.296875q-1.171875 0 -2.09375 -0.421875q-0.90625 -0.4375 -1.53125 -1.21875q-0.609375 -0.78125 -0.9375 -1.875q-0.328125 -1.09375 -0.328125 -2.40625l0 -1.78125q0 -1.328125 0.34375 -2.40625q0.34375 -1.09375 0.984375 -1.875q0.640625 -0.796875 1.546875 -1.21875q0.90625 -0.4375 2.03125 -0.4375q1.09375 0 1.9375 0.3125q0.859375 0.3125 1.453125 0.890625q0.609375 0.5625 0.953125 1.390625q0.359375 0.828125 0.4375 1.875l-2.546875 0q-0.03125 -0.59375 -0.171875 -1.03125q-0.140625 -0.453125 -0.421875 -0.75q-0.265625 -0.296875 -0.671875 -0.453125q-0.40625 -0.15625 -0.96875 -0.15625q-0.59375 0 -1.03125 0.265625q-0.4375 0.25 -0.71875 0.75q-0.28125 0.484375 -0.421875 1.203125q-0.140625 0.71875 -0.140625 1.625l0 1.796875q0 1.96875 0.546875 2.90625q0.5625 0.9375 1.75 0.9375q1.0 0 1.578125 -0.53125q0.59375 -0.53125 0.65625 -1.734375l2.5625 0z" fill-rule="nonzero"/><path fill="#a61c00" d="m832.5275 165.68849l7.65625 0l0 2.0625l-2.578125 0l0 9.140625l2.578125 0l0 2.0625l-7.65625 0l0 -2.0625l2.515625 0l0 -9.140625l-2.515625 0l0 -2.0625zm11.242432 -0.734375l5.515625 0l0 11.9375l2.8125 0l0 2.0625l-8.328125 0l0 -2.0625l2.953125 0l0 -9.859375l-2.953125 0l0 -2.078125zm11.195557 0l5.515625 0l0 11.9375l2.8125 0l0 2.0625l-8.328125 0l0 -2.0625l2.953125 0l0 -9.859375l-2.953125 0l0 -2.078125zm16.945557 12.609375q-0.5 0.75 -1.203125 1.171875q-0.703125 0.40625 -1.546875 0.40625q-0.765625 0 -1.40625 -0.234375q-0.625 -0.234375 -1.078125 -0.75q-0.453125 -0.515625 -0.71875 -1.3125q-0.25 -0.796875 -0.25 -1.921875l0 -5.828125l2.546875 0l0 5.84375q0 0.609375 0.078125 1.015625q0.09375 0.40625 0.28125 0.65625q0.1875 0.25 0.5 0.359375q0.3125 0.109375 0.75 0.109375q0.765625 0 1.234375 -0.28125q0.46875 -0.28125 0.71875 -0.78125l0 -6.921875l2.546875 0l0 9.859375l-2.296875 0l-0.15625 -1.390625zm7.5549927 -3.46875l0 4.859375l-2.5625 0l0 -13.265625l4.53125 0q1.09375 0 1.96875 0.3125q0.875 0.3125 1.484375 0.875q0.609375 0.5625 0.9375 1.34375q0.34375 0.78125 0.34375 1.75q0 0.890625 -0.34375 1.640625q-0.328125 0.75 -0.9375 1.3125q-0.609375 0.546875 -1.484375 0.859375q-0.875 0.3125 -1.96875 0.3125l-1.96875 0zm0 -2.078125l1.96875 0q0.546875 0 0.9375 -0.15625q0.40625 -0.171875 0.671875 -0.453125q0.28125 -0.28125 0.40625 -0.65625q0.140625 -0.375 0.140625 -0.765625q0 -0.46875 -0.140625 -0.859375q-0.125 -0.40625 -0.40625 -0.703125q-0.265625 -0.3125 -0.671875 -0.484375q-0.390625 -0.171875 -0.9375 -0.171875l-1.96875 0l0 4.25zm14.758057 6.9375l-2.5625 0l0 -10.171875l-3.34375 1.203125l0 -2.203125l5.765625 -2.09375l0.140625 0l0 13.265625z" fill-rule="nonzero"/><path fill="#274e13" d="m931.264 167.78224l-4.09375 0l0 11.171875l-2.5625 0l0 -11.171875l-4.03125 0l0 -2.09375l10.6875 0l0 2.09375zm10.211182 -0.671875l-5.171875 11.84375l-2.671875 0l5.171875 -11.203125l-6.65625 0l0 -2.0625l9.328125 0l0 1.421875zm5.1643066 6.984375l0 4.859375l-2.5625 0l0 -13.265625l4.53125 0q1.09375 0 1.96875 0.3125q0.875 0.3125 1.484375 0.875q0.609375 0.5625 0.9375 1.34375q0.34375 0.78125 0.34375 1.75q0 0.890625 -0.34375 1.640625q-0.328125 0.75 -0.9375 1.3125q-0.609375 0.546875 -1.484375 0.859375q-0.875 0.3125 -1.96875 0.3125l-1.96875 0zm0 -2.078125l1.96875 0q0.546875 0 0.9375 -0.15625q0.40625 -0.171875 0.671875 -0.453125q0.28125 -0.28125 0.40625 -0.65625q0.140625 -0.375 0.140625 -0.765625q0 -0.46875 -0.140625 -0.859375q-0.125 -0.40625 -0.40625 -0.703125q-0.265625 -0.3125 -0.671875 -0.484375q-0.390625 -0.171875 -0.9375 -0.171875l-1.96875 0l0 4.25zm15.633057 -3.09375q0.578125 0 1.0625 0.078125q0.484375 0.0625 0.796875 0.15625l-0.375 2.53125q-0.5 -0.125 -1.03125 -0.171875q-0.515625 -0.0625 -1.0 -0.0625q-1.0625 0 -1.703125 0.40625q-0.640625 0.40625 -0.96875 1.171875l0 5.921875l-2.53125 0l0 -9.859375l2.359375 0l0.125 1.609375q0.59375 -0.828125 1.4375 -1.296875q0.84375 -0.484375 1.828125 -0.484375zm3.7737427 5.015625q0 -1.078125 0.3125 -1.984375q0.3125 -0.921875 0.90625 -1.59375q0.59375 -0.6875 1.453125 -1.0625q0.859375 -0.375 1.96875 -0.375q1.125 0 1.984375 0.375q0.859375 0.375 1.453125 1.0625q0.609375 0.671875 0.90625 1.59375q0.3125 0.90625 0.3125 1.984375l0 0.1875q0 1.078125 -0.3125 2.0q-0.296875 0.921875 -0.890625 1.59375q-0.59375 0.671875 -1.46875 1.046875q-0.859375 0.375 -1.953125 0.375q-1.125 0 -2.0 -0.375q-0.859375 -0.375 -1.453125 -1.046875q-0.59375 -0.671875 -0.90625 -1.59375q-0.3125 -0.921875 -0.3125 -2.0l0 -0.1875zm2.53125 0.1875q0 0.625 0.109375 1.171875q0.125 0.53125 0.375 0.9375q0.265625 0.40625 0.671875 0.640625q0.40625 0.234375 0.984375 0.234375q0.546875 0 0.9375 -0.234375q0.40625 -0.234375 0.65625 -0.640625q0.25 -0.40625 0.375 -0.9375q0.125 -0.546875 0.125 -1.171875l0 -0.1875q0 -0.609375 -0.125 -1.140625q-0.125 -0.546875 -0.375 -0.953125q-0.25 -0.40625 -0.65625 -0.640625q-0.390625 -0.234375 -0.96875 -0.234375q-0.5625 0 -0.96875 0.234375q-0.390625 0.234375 -0.65625 0.640625q-0.25 0.40625 -0.375 0.953125q-0.109375 0.53125 -0.109375 1.140625l0 0.1875zm10.586182 -5.03125l0.078125 1.203125q0.28125 -0.640625 0.765625 -1.0q0.5 -0.375 1.21875 -0.375q1.1875 0 1.5625 1.046875q0.28125 -0.5 0.734375 -0.765625q0.453125 -0.28125 1.09375 -0.28125q0.4375 0 0.828125 0.171875q0.390625 0.15625 0.671875 0.515625q0.296875 0.359375 0.453125 0.921875q0.15625 0.5625 0.15625 1.390625l0 7.03125l-2.3125 0l0 -7.046875q0 -0.28125 -0.0625 -0.453125q-0.046875 -0.1875 -0.15625 -0.28125q-0.09375 -0.109375 -0.234375 -0.15625q-0.125 -0.046875 -0.265625 -0.046875q-0.265625 0 -0.453125 0.125q-0.171875 0.125 -0.265625 0.328125l0 7.53125l-2.234375 0l0 -7.046875q0 -0.28125 -0.0625 -0.46875q-0.046875 -0.1875 -0.140625 -0.28125q-0.09375 -0.09375 -0.234375 -0.140625q-0.125 -0.046875 -0.265625 -0.046875q-0.296875 0 -0.46875 0.171875q-0.171875 0.15625 -0.28125 0.4375l0 7.375l-2.296875 0l0 -9.859375l2.171875 0zm9.273682 4.84375q0 -1.078125 0.3125 -1.984375q0.3125 -0.921875 0.90625 -1.59375q0.59375 -0.6875 1.453125 -1.0625q0.859375 -0.375 1.96875 -0.375q1.125 0 1.984375 0.375q0.859375 0.375 1.453125 1.0625q0.609375 0.671875 0.90625 1.59375q0.3125 0.90625 0.3125 1.984375l0 0.1875q0 1.078125 -0.3125 2.0q-0.296875 0.921875 -0.890625 1.59375q-0.59375 0.671875 -1.46875 1.046875q-0.859375 0.375 -1.953125 0.375q-1.125 0 -2.0 -0.375q-0.859375 -0.375 -1.453125 -1.046875q-0.59375 -0.671875 -0.90625 -1.59375q-0.3125 -0.921875 -0.3125 -2.0l0 -0.1875zm2.53125 0.1875q0 0.625 0.109375 1.171875q0.125 0.53125 0.375 0.9375q0.265625 0.40625 0.671875 0.640625q0.40625 0.234375 0.984375 0.234375q0.546875 0 0.9375 -0.234375q0.40625 -0.234375 0.65625 -0.640625q0.25 -0.40625 0.375 -0.9375q0.125 -0.546875 0.125 -1.171875l0 -0.1875q0 -0.609375 -0.125 -1.140625q-0.125 -0.546875 -0.375 -0.953125q-0.25 -0.40625 -0.65625 -0.640625q-0.390625 -0.234375 -0.96875 -0.234375q-0.5625 0 -0.96875 0.234375q-0.390625 0.234375 -0.65625 0.640625q-0.25 0.40625 -0.375 0.953125q-0.109375 0.53125 -0.109375 1.140625l0 0.1875zm13.664307 -7.4375l0 2.40625l3.671875 0l0 1.875l-3.671875 0l0 4.234375q0 0.53125 0.109375 0.890625q0.125 0.359375 0.34375 0.578125q0.234375 0.21875 0.5625 0.3125q0.328125 0.078125 0.71875 0.078125q0.296875 0 0.59375 -0.015625q0.3125 -0.03125 0.59375 -0.0625q0.28125 -0.046875 0.515625 -0.09375q0.25 -0.046875 0.421875 -0.09375l0.234375 1.734375q-0.25 0.15625 -0.609375 0.28125q-0.359375 0.109375 -0.765625 0.171875q-0.390625 0.078125 -0.828125 0.109375q-0.4375 0.046875 -0.84375 0.046875q-0.8125 0 -1.484375 -0.203125q-0.65625 -0.21875 -1.125 -0.671875q-0.46875 -0.453125 -0.734375 -1.140625q-0.25 -0.703125 -0.25 -1.671875l0 -4.484375l-2.25 0l0 -1.875l2.25 0l0 -2.40625l2.546875 0zm11.320618 12.453125q-1.140625 0 -2.078125 -0.375q-0.921875 -0.375 -1.59375 -1.015625q-0.65625 -0.640625 -1.015625 -1.515625q-0.359375 -0.875 -0.359375 -1.859375l0 -0.375q0 -1.125 0.359375 -2.046875q0.359375 -0.9375 0.984375 -1.609375q0.640625 -0.6875 1.515625 -1.046875q0.875 -0.375 1.90625 -0.375q1.0625 0 1.890625 0.34375q0.84375 0.34375 1.421875 0.984375q0.578125 0.640625 0.875 1.546875q0.3125 0.890625 0.3125 1.96875l0 1.078125l-6.6875 0q0.0625 0.5 0.28125 0.921875q0.234375 0.40625 0.578125 0.71875q0.34375 0.296875 0.78125 0.46875q0.453125 0.15625 0.984375 0.15625q0.375 0 0.734375 -0.078125q0.375 -0.078125 0.703125 -0.21875q0.34375 -0.140625 0.640625 -0.34375q0.296875 -0.21875 0.515625 -0.5l1.265625 1.375q-0.234375 0.328125 -0.625 0.65625q-0.375 0.328125 -0.890625 0.578125q-0.515625 0.25 -1.140625 0.40625q-0.625 0.15625 -1.359375 0.15625zm-0.296875 -8.171875q-0.421875 0 -0.78125 0.15625q-0.359375 0.140625 -0.625 0.421875q-0.265625 0.28125 -0.453125 0.671875q-0.1875 0.390625 -0.265625 0.875l4.140625 0l0 -0.203125q-0.015625 -0.390625 -0.15625 -0.75q-0.125 -0.359375 -0.390625 -0.609375q-0.25 -0.265625 -0.625 -0.40625q-0.359375 -0.15625 -0.84375 -0.15625zm13.789368 -2.046875q0.578125 0 1.0625 0.078125q0.484375 0.0625 0.796875 0.15625l-0.375 2.53125q-0.5 -0.125 -1.03125 -0.171875q-0.515625 -0.0625 -1.0 -0.0625q-1.0625 0 -1.703125 0.40625q-0.640625 0.40625 -0.96875 1.171875l0 5.921875l-2.531311 0l0 -9.859375l2.359436 0l0.125 1.609375q0.59375 -0.828125 1.4375 -1.296875q0.84375 -0.484375 1.828125 -0.484375z" fill-rule="nonzero"/><path fill="#000000" fill-opacity="0.0" d="m718.81366 189.2599l238.2677 0l0 55.81102l-238.2677 0z" fill-rule="evenodd"/><path fill="#000000" d="m731.3879 216.75179l2.265625 -0.1875q0.15625 1.359375 0.734375 2.234375q0.59375 0.859375 1.828125 1.40625q1.234375 0.53125 2.78125 0.53125q1.375 0 2.421875 -0.40625q1.0625 -0.40625 1.5625 -1.109375q0.515625 -0.71875 0.515625 -1.5625q0 -0.859375 -0.5 -1.484375q-0.484375 -0.640625 -1.625 -1.078125q-0.71875 -0.28125 -3.21875 -0.875q-2.5 -0.609375 -3.5 -1.140625q-1.296875 -0.671875 -1.9375 -1.671875q-0.640625 -1.015625 -0.640625 -2.265625q0 -1.375 0.78125 -2.5625q0.78125 -1.203125 2.265625 -1.8125q1.5 -0.625 3.34375 -0.625q2.015625 0 3.546875 0.65625q1.546875 0.640625 2.375 1.90625q0.828125 1.25 0.890625 2.859375l-2.3125 0.171875q-0.171875 -1.71875 -1.25 -2.59375q-1.0625 -0.890625 -3.15625 -0.890625q-2.171875 0 -3.171875 0.796875q-1.0 0.796875 -1.0 1.921875q0 0.984375 0.703125 1.609375q0.703125 0.640625 3.625 1.296875q2.921875 0.65625 4.015625 1.15625q1.578125 0.734375 2.328125 1.859375q0.765625 1.109375 0.765625 2.5625q0 1.453125 -0.84375 2.734375q-0.828125 1.28125 -2.375 2.0q-1.546875 0.703125 -3.484375 0.703125q-2.46875 0 -4.140625 -0.71875q-1.65625 -0.71875 -2.609375 -2.15625q-0.9375 -1.4375 -0.984375 -3.265625zm26.409302 1.59375l2.296875 0.296875q-0.53125 2.015625 -2.015625 3.125q-1.46875 1.109375 -3.75 1.109375q-2.890625 0 -4.578125 -1.765625q-1.6875 -1.78125 -1.6875 -4.984375q0 -3.3125 1.703125 -5.140625q1.71875 -1.84375 4.4375 -1.84375q2.640625 0 4.296875 1.796875q1.671875 1.796875 1.671875 5.046875q0 0.203125 -0.015625 0.59375l-9.78125 0q0.109375 2.171875 1.203125 3.328125q1.109375 1.140625 2.765625 1.140625q1.21875 0 2.078125 -0.640625q0.875 -0.640625 1.375 -2.0625zm-7.3125 -3.59375l7.34375 0q-0.15625 -1.65625 -0.84375 -2.484375q-1.0625 -1.28125 -2.75 -1.28125q-1.546875 0 -2.59375 1.03125q-1.03125 1.015625 -1.15625 2.734375zm20.789429 12.859375l0 -6.421875q-0.53125 0.71875 -1.46875 1.203125q-0.921875 0.484375 -1.96875 0.484375q-2.34375 0 -4.03125 -1.859375q-1.6875 -1.875 -1.6875 -5.125q0 -1.984375 0.6875 -3.546875q0.6875 -1.578125 1.984375 -2.390625q1.3125 -0.8125 2.875 -0.8125q2.4375 0 3.828125 2.0625l0 -1.765625l2.0 0l0 18.171875l-2.21875 0zm-6.875 -11.640625q0 2.546875 1.0625 3.8125q1.078125 1.265625 2.5625 1.265625q1.421875 0 2.4375 -1.203125q1.03125 -1.203125 1.03125 -3.671875q0 -2.625 -1.09375 -3.9375q-1.078125 -1.328125 -2.53125 -1.328125q-1.453125 0 -2.46875 1.234375q-1.0 1.21875 -1.0 3.828125zm21.195679 6.609375l0 -1.921875q-1.53125 2.21875 -4.171875 2.21875q-1.15625 0 -2.171875 -0.4375q-1.0 -0.453125 -1.5 -1.125q-0.484375 -0.671875 -0.6875 -1.65625q-0.125 -0.65625 -0.125 -2.078125l0 -8.140625l2.21875 0l0 7.296875q0 1.734375 0.140625 2.34375q0.203125 0.875 0.875 1.375q0.6875 0.5 1.6875 0.5q1.015625 0 1.890625 -0.5q0.875 -0.515625 1.234375 -1.40625q0.375 -0.890625 0.375 -2.5625l0 -7.046875l2.21875 0l0 13.140625l-1.984375 0zm14.461304 -4.234375l2.296875 0.296875q-0.53125 2.015625 -2.015625 3.125q-1.46875 1.109375 -3.75 1.109375q-2.890625 0 -4.578125 -1.765625q-1.6875 -1.78125 -1.6875 -4.984375q0 -3.3125 1.703125 -5.140625q1.71875 -1.84375 4.4375 -1.84375q2.640625 0 4.296875 1.796875q1.671875 1.796875 1.671875 5.046875q0 0.203125 -0.015625 0.59375l-9.78125 0q0.109375 2.171875 1.203125 3.328125q1.109375 1.140625 2.765625 1.140625q1.21875 0 2.078125 -0.640625q0.875 -0.640625 1.375 -2.0625zm-7.3125 -3.59375l7.34375 0q-0.15625 -1.65625 -0.84375 -2.484375q-1.0625 -1.28125 -2.75 -1.28125q-1.546875 0 -2.59375 1.03125q-1.03125 1.015625 -1.15625 2.734375zm12.414429 7.828125l0 -13.140625l2.0 0l0 1.875q1.453125 -2.171875 4.1875 -2.171875q1.1875 0 2.171875 0.4375q1.0 0.421875 1.484375 1.125q0.5 0.6875 0.703125 1.640625q0.125 0.609375 0.125 2.15625l0 8.078125l-2.234375 0l0 -7.984375q0 -1.359375 -0.265625 -2.03125q-0.25 -0.6875 -0.90625 -1.078125q-0.65625 -0.40625 -1.546875 -0.40625q-1.421875 0 -2.46875 0.90625q-1.03125 0.890625 -1.03125 3.421875l0 7.171875l-2.21875 0zm22.648804 -4.8125l2.1875 0.28125q-0.34375 2.265625 -1.828125 3.546875q-1.484375 1.28125 -3.625 1.28125q-2.703125 0 -4.34375 -1.765625q-1.640625 -1.765625 -1.640625 -5.046875q0 -2.125 0.703125 -3.71875q0.71875 -1.59375 2.15625 -2.390625q1.4375 -0.8125 3.125 -0.8125q2.140625 0 3.5 1.09375q1.359375 1.078125 1.75 3.0625l-2.171875 0.34375q-0.296875 -1.328125 -1.09375 -1.984375q-0.78125 -0.671875 -1.890625 -0.671875q-1.6875 0 -2.734375 1.203125q-1.046875 1.203125 -1.046875 3.8125q0 2.640625 1.015625 3.84375q1.015625 1.203125 2.640625 1.203125q1.3125 0 2.1875 -0.796875q0.875 -0.8125 1.109375 -2.484375zm4.1171875 -10.765625l0 -2.546875l2.21875 0l0 2.546875l-2.21875 0zm0 15.578125l0 -13.140625l2.21875 0l0 13.140625l-2.21875 0zm5.611511 0l0 -13.140625l2.0 0l0 1.875q1.453125 -2.171875 4.1875 -2.171875q1.1875 0 2.171875 0.4375q1.0 0.421875 1.484375 1.125q0.5 0.6875 0.703125 1.640625q0.125 0.609375 0.125 2.15625l0 8.078125l-2.234375 0l0 -7.984375q0 -1.359375 -0.265625 -2.03125q-0.25 -0.6875 -0.90625 -1.078125q-0.65625 -0.40625 -1.546875 -0.40625q-1.421875 0 -2.46875 0.90625q-1.03125 0.890625 -1.03125 3.421875l0 7.171875l-2.21875 0zm13.680054 1.09375l2.15625 0.3125q0.140625 1.0 0.765625 1.46875q0.828125 0.609375 2.25 0.609375q1.546875 0 2.390625 -0.625q0.84375 -0.609375 1.140625 -1.71875q0.171875 -0.6875 0.15625 -2.859375q-1.453125 1.71875 -3.625 1.71875q-2.71875 0 -4.203125 -1.953125q-1.484375 -1.953125 -1.484375 -4.6875q0 -1.875 0.671875 -3.46875q0.6875 -1.59375 1.984375 -2.453125q1.296875 -0.875 3.03125 -0.875q2.328125 0 3.84375 1.890625l0 -1.59375l2.046875 0l0 11.359375q0 3.0625 -0.625 4.34375q-0.625 1.28125 -1.984375 2.015625q-1.34375 0.75 -3.328125 0.75q-2.34375 0 -3.796875 -1.0625q-1.4375 -1.046875 -1.390625 -3.171875zm1.84375 -7.890625q0 2.578125 1.015625 3.765625q1.03125 1.1875 2.578125 1.1875q1.53125 0 2.5625 -1.171875q1.046875 -1.1875 1.046875 -3.71875q0 -2.40625 -1.078125 -3.625q-1.0625 -1.234375 -2.5625 -1.234375q-1.484375 0 -2.53125 1.21875q-1.03125 1.203125 -1.03125 3.578125zm19.96698 6.796875l0 -18.125l6.84375 0q1.796875 0 2.75 0.171875q1.34375 0.21875 2.234375 0.84375q0.90625 0.625 1.453125 1.75q0.5625 1.125 0.5625 2.46875q0 2.3125 -1.484375 3.921875q-1.46875 1.59375 -5.3125 1.59375l-4.640625 0l0 7.375l-2.40625 0zm2.40625 -9.515625l4.6875 0q2.3125 0 3.28125 -0.859375q0.984375 -0.859375 0.984375 -2.4375q0 -1.140625 -0.578125 -1.953125q-0.5625 -0.8125 -1.5 -1.0625q-0.609375 -0.15625 -2.25 -0.15625l-4.625 0l0 6.46875zm14.174927 9.515625l0 -13.140625l2.0 0l0 2.0q0.78125 -1.40625 1.421875 -1.84375q0.65625 -0.453125 1.4375 -0.453125q1.125 0 2.28125 0.71875l-0.765625 2.078125q-0.8125 -0.484375 -1.640625 -0.484375q-0.71875 0 -1.3125 0.4375q-0.578125 0.4375 -0.828125 1.21875q-0.359375 1.1875 -0.359375 2.59375l0 6.875l-2.234375 0zm8.481323 -15.578125l0 -2.546875l2.21875 0l0 2.546875l-2.21875 0zm0 15.578125l0 -13.140625l2.21875 0l0 13.140625l-2.21875 0zm5.611511 0l0 -13.140625l1.984375 0l0 1.84375q0.625 -0.953125 1.640625 -1.546875q1.03125 -0.59375 2.34375 -0.59375q1.46875 0 2.390625 0.609375q0.9375 0.609375 1.328125 1.703125q1.546875 -2.3125 4.046875 -2.3125q1.953125 0 3.0 1.09375q1.0625 1.078125 1.0625 3.328125l0 9.015625l-2.21875 0l0 -8.28125q0 -1.328125 -0.21875 -1.90625q-0.21875 -0.59375 -0.78125 -0.953125q-0.5625 -0.359375 -1.328125 -0.359375q-1.390625 0 -2.3125 0.921875q-0.90625 0.921875 -0.90625 2.953125l0 7.625l-2.234375 0l0 -8.53125q0 -1.484375 -0.546875 -2.21875q-0.53125 -0.75 -1.78125 -0.75q-0.9375 0 -1.734375 0.5q-0.796875 0.484375 -1.15625 1.4375q-0.359375 0.953125 -0.359375 2.75l0 6.8125l-2.21875 0zm30.082886 -4.234375l2.296875 0.296875q-0.53125 2.015625 -2.015625 3.125q-1.46875 1.109375 -3.75 1.109375q-2.890625 0 -4.578125 -1.765625q-1.6875 -1.78125 -1.6875 -4.984375q0 -3.3125 1.703125 -5.140625q1.71875 -1.84375 4.4375 -1.84375q2.640625 0 4.296875 1.796875q1.671875 1.796875 1.671875 5.046875q0 0.203125 -0.015625 0.59375l-9.78125 0q0.109375 2.171875 1.203125 3.328125q1.109375 1.140625 2.765625 1.140625q1.21875 0 2.078125 -0.640625q0.875 -0.640625 1.375 -2.0625zm-7.3125 -3.59375l7.34375 0q-0.15625 -1.65625 -0.84375 -2.484375q-1.0625 -1.28125 -2.75 -1.28125q-1.546875 0 -2.59375 1.03125q-1.03125 1.015625 -1.15625 2.734375zm12.383179 7.828125l0 -13.140625l2.0 0l0 2.0q0.78125 -1.40625 1.421875 -1.84375q0.65625 -0.453125 1.4375 -0.453125q1.125 0 2.28125 0.71875l-0.765625 2.078125q-0.8125 -0.484375 -1.640625 -0.484375q-0.71875 0 -1.3125 0.4375q-0.578125 0.4375 -0.828125 1.21875q-0.359375 1.1875 -0.359375 2.59375l0 6.875l-2.234375 0z" fill-rule="nonzero"/><g filter="url(#shadowFilter-p.8)"><use xlink:href="#p.8" transform="matrix(1.0 0.0 0.0 1.0 0.0 2.0)"/></g><defs><filter id="shadowFilter-p.8" filterUnits="userSpaceOnUse"><feGaussianBlur in="SourceAlpha" stdDeviation="2.0" result="blur"/><feComponentTransfer in="blur" color-interpolation-filters="sRGB"><feFuncR type="linear" slope="0" intercept="0.0"/><feFuncG type="linear" slope="0" intercept="0.0"/><feFuncB type="linear" slope="0" intercept="0.0"/><feFuncA type="linear" slope="0.5" intercept="0"/></feComponentTransfer></filter></defs><g id="p.8"><path fill="#000000" fill-opacity="0.0" d="m718.81366 217.16542l-128.3465 0" fill-rule="evenodd"/><path stroke="#000000" stroke-width="1.0" stroke-linejoin="round" stroke-linecap="butt" d="m718.81366 217.16542l-128.3465 0" fill-rule="evenodd"/></g><g filter="url(#shadowFilter-p.9)"><use xlink:href="#p.9" transform="matrix(1.0 0.0 0.0 1.0 0.0 2.0)"/></g><defs><filter id="shadowFilter-p.9" filterUnits="userSpaceOnUse"><feGaussianBlur in="SourceAlpha" stdDeviation="2.0" result="blur"/><feComponentTransfer in="blur" color-interpolation-filters="sRGB"><feFuncR type="linear" slope="0" intercept="0.0"/><feFuncG type="linear" slope="0" intercept="0.0"/><feFuncB type="linear" slope="0" intercept="0.0"/><feFuncA type="linear" slope="0.5" intercept="0"/></feComponentTransfer></filter></defs><g id="p.9"><path fill="#000000" fill-opacity="0.0" d="m590.2887 216.89764l0 -23.496063" fill-rule="evenodd"/><path stroke="#000000" stroke-width="1.0" stroke-linejoin="round" stroke-linecap="butt" d="m590.2887 216.89764l0 -23.496063" fill-rule="evenodd"/></g><g filter="url(#shadowFilter-p.10)"><use xlink:href="#p.10" transform="matrix(1.0 0.0 0.0 1.0 0.0 2.0)"/></g><defs><filter id="shadowFilter-p.10" filterUnits="userSpaceOnUse"><feGaussianBlur in="SourceAlpha" stdDeviation="2.0" result="blur"/><feComponentTransfer in="blur" color-interpolation-filters="sRGB"><feFuncR type="linear" slope="0" intercept="0.0"/><feFuncG type="linear" slope="0" intercept="0.0"/><feFuncB type="linear" slope="0" intercept="0.0"/><feFuncA type="linear" slope="0.5" intercept="0"/></feComponentTransfer></filter></defs><g id="p.10"><path fill="#000000" fill-opacity="0.0" d="m957.08136 217.16542l76.12604 0" fill-rule="evenodd"/><path stroke="#000000" stroke-width="1.0" stroke-linejoin="round" stroke-linecap="butt" d="m957.08136 217.16542l76.12604 0" fill-rule="evenodd"/></g><g filter="url(#shadowFilter-p.11)"><use xlink:href="#p.11" transform="matrix(1.0 0.0 0.0 1.0 0.0 2.0)"/></g><defs><filter id="shadowFilter-p.11" filterUnits="userSpaceOnUse"><feGaussianBlur in="SourceAlpha" stdDeviation="2.0" result="blur"/><feComponentTransfer in="blur" color-interpolation-filters="sRGB"><feFuncR type="linear" slope="0" intercept="0.0"/><feFuncG type="linear" slope="0" intercept="0.0"/><feFuncB type="linear" slope="0" intercept="0.0"/><feFuncA type="linear" slope="0.5" intercept="0"/></feComponentTransfer></filter></defs><g id="p.11"><path fill="#000000" fill-opacity="0.0" d="m1033.4462 216.89764l0 -22.740158" fill-rule="evenodd"/><path stroke="#000000" stroke-width="1.0" stroke-linejoin="round" stroke-linecap="butt" d="m1033.4462 216.89764l0 -22.740158" fill-rule="evenodd"/></g><g filter="url(#shadowFilter-p.12)"><use xlink:href="#p.12" transform="matrix(1.0 0.0 0.0 1.0 0.0 2.0)"/></g><defs><filter id="shadowFilter-p.12" filterUnits="userSpaceOnUse"><feGaussianBlur in="SourceAlpha" stdDeviation="2.0" result="blur"/><feComponentTransfer in="blur" color-interpolation-filters="sRGB"><feFuncR type="linear" slope="0" intercept="0.0"/><feFuncG type="linear" slope="0" intercept="0.0"/><feFuncB type="linear" slope="0" intercept="0.0"/><feFuncA type="linear" slope="0.5" intercept="0"/></feComponentTransfer></filter></defs><g id="p.12"><path fill="#000000" fill-opacity="0.0" d="m576.0079 280.18634l-173.66928 0" fill-rule="evenodd"/><path stroke="#000000" stroke-width="1.0" stroke-linejoin="round" stroke-linecap="butt" d="m576.0079 280.18634l-173.66928 0" fill-rule="evenodd"/></g><g filter="url(#shadowFilter-p.13)"><use xlink:href="#p.13" transform="matrix(1.0 0.0 0.0 1.0 0.0 2.0)"/></g><defs><filter id="shadowFilter-p.13" filterUnits="userSpaceOnUse"><feGaussianBlur in="SourceAlpha" stdDeviation="2.0" result="blur"/><feComponentTransfer in="blur" color-interpolation-filters="sRGB"><feFuncR type="linear" slope="0" intercept="0.0"/><feFuncG type="linear" slope="0" intercept="0.0"/><feFuncB type="linear" slope="0" intercept="0.0"/><feFuncA type="linear" slope="0.5" intercept="0"/></feComponentTransfer></filter></defs><g id="p.13"><path fill="#000000" fill-opacity="0.0" d="m402.28873 279.90814l0 -86.519684" fill-rule="evenodd"/><path stroke="#000000" stroke-width="1.0" stroke-linejoin="round" stroke-linecap="butt" d="m402.28873 279.90814l0 -86.519684" fill-rule="evenodd"/></g><g filter="url(#shadowFilter-p.14)"><use xlink:href="#p.14" transform="matrix(1.0 0.0 0.0 1.0 0.0 2.0)"/></g><defs><filter id="shadowFilter-p.14" filterUnits="userSpaceOnUse"><feGaussianBlur in="SourceAlpha" stdDeviation="2.0" result="blur"/><feComponentTransfer in="blur" color-interpolation-filters="sRGB"><feFuncR type="linear" slope="0" intercept="0.0"/><feFuncG type="linear" slope="0" intercept="0.0"/><feFuncB type="linear" slope="0" intercept="0.0"/><feFuncA type="linear" slope="0.5" intercept="0"/></feComponentTransfer></filter></defs><g id="p.14"><path fill="#000000" fill-opacity="0.0" d="m847.7874 280.18634l185.70074 0" fill-rule="evenodd"/><path stroke="#000000" stroke-width="1.0" stroke-linejoin="round" stroke-linecap="butt" d="m847.7874 280.18634l185.70074 0" fill-rule="evenodd"/></g><path fill="#000000" fill-opacity="0.0" d="m576.0079 252.28084l271.77954 0l0 55.81102l-271.77954 0z" fill-rule="evenodd"/><path fill="#000000" d="m610.29254 285.60083l0 -18.125l7.703125 0q2.90625 0 4.21875 0.484375q1.3125 0.484375 2.109375 1.734375q0.796875 1.25 0.796875 2.859375q0 2.046875 -1.203125 3.375q-1.203125 1.328125 -3.59375 1.671875q1.1875 0.6875 1.953125 1.515625q0.78125 0.828125 2.09375 2.953125l2.21875 3.53125l-4.375 0l-2.65625 -3.9375q-1.40625 -2.125 -1.921875 -2.671875q-0.515625 -0.546875 -1.109375 -0.75q-0.578125 -0.203125 -1.828125 -0.203125l-0.75 0l0 7.5625l-3.65625 0zm3.65625 -10.46875l2.703125 0q2.640625 0 3.296875 -0.21875q0.65625 -0.21875 1.015625 -0.765625q0.375 -0.546875 0.375 -1.359375q0 -0.921875 -0.484375 -1.484375q-0.484375 -0.5625 -1.375 -0.703125q-0.453125 -0.0625 -2.671875 -0.0625l-2.859375 0l0 4.59375zm22.197449 6.28125l3.46875 0.59375q-0.671875 1.90625 -2.109375 2.90625q-1.4375 0.984375 -3.609375 0.984375q-3.421875 0 -5.0625 -2.234375q-1.3125 -1.796875 -1.3125 -4.53125q0 -3.265625 1.703125 -5.109375q1.71875 -1.859375 4.328125 -1.859375q2.921875 0 4.609375 1.9375q1.703125 1.9375 1.640625 5.9375l-8.71875 0q0.046875 1.546875 0.84375 2.40625q0.8125 0.859375 2.0 0.859375q0.828125 0 1.375 -0.4375q0.5625 -0.453125 0.84375 -1.453125zm0.203125 -3.5q-0.046875 -1.515625 -0.796875 -2.296875q-0.734375 -0.78125 -1.796875 -0.78125q-1.125 0 -1.875 0.828125q-0.734375 0.828125 -0.734375 2.25l5.203125 0zm8.883179 -1.4375l-3.15625 -0.578125q0.53125 -1.890625 1.828125 -2.8125q1.296875 -0.921875 3.859375 -0.921875q2.328125 0 3.453125 0.5625q1.140625 0.546875 1.609375 1.390625q0.46875 0.84375 0.46875 3.109375l-0.046875 4.0625q0 1.734375 0.171875 2.5625q0.171875 0.8125 0.625 1.75l-3.4375 0q-0.140625 -0.34375 -0.328125 -1.03125q-0.09375 -0.296875 -0.125 -0.40625q-0.890625 0.875 -1.90625 1.3125q-1.015625 0.421875 -2.171875 0.421875q-2.03125 0 -3.203125 -1.09375q-1.15625 -1.109375 -1.15625 -2.796875q0 -1.109375 0.53125 -1.96875q0.53125 -0.875 1.484375 -1.34375q0.96875 -0.46875 2.765625 -0.8125q2.4375 -0.453125 3.375 -0.859375l0 -0.34375q0 -1.0 -0.5 -1.421875q-0.484375 -0.421875 -1.859375 -0.421875q-0.921875 0 -1.453125 0.359375q-0.515625 0.359375 -0.828125 1.28125zm4.640625 2.8125q-0.671875 0.234375 -2.125 0.546875q-1.4375 0.296875 -1.875 0.59375q-0.6875 0.484375 -0.6875 1.234375q0 0.71875 0.546875 1.25q0.546875 0.53125 1.390625 0.53125q0.9375 0 1.78125 -0.609375q0.640625 -0.46875 0.828125 -1.15625q0.140625 -0.4375 0.140625 -1.6875l0 -0.703125zm18.883179 6.3125l-3.21875 0l0 -1.921875q-0.8125 1.125 -1.90625 1.671875q-1.09375 0.546875 -2.203125 0.546875q-2.265625 0 -3.890625 -1.8125q-1.609375 -1.828125 -1.609375 -5.09375q0 -3.34375 1.578125 -5.078125q1.578125 -1.75 3.96875 -1.75q2.203125 0 3.8125 1.84375l0 -6.53125l3.46875 0l0 18.125zm-9.265625 -6.84375q0 2.09375 0.578125 3.03125q0.84375 1.359375 2.34375 1.359375q1.203125 0 2.046875 -1.015625q0.84375 -1.015625 0.84375 -3.046875q0 -2.265625 -0.828125 -3.25q-0.8125 -1.0 -2.078125 -1.0q-1.234375 0 -2.078125 0.984375q-0.828125 0.96875 -0.828125 2.9375zm20.846436 6.84375l-3.46875 0l0 -13.09375q-1.90625 1.78125 -4.5 2.625l0 -3.140625q1.359375 -0.453125 2.953125 -1.6875q1.59375 -1.25 2.1875 -2.90625l2.828125 0l0 18.203125zm6.6019287 -9.65625l0 -3.484375l3.484375 0l0 3.484375l-3.484375 0zm0 9.65625l0 -3.46875l3.484375 0l0 3.46875l-3.484375 0zm14.846436 -18.125l7.25 0q2.140625 0 3.203125 0.1875q1.0625 0.171875 1.890625 0.734375q0.828125 0.5625 1.390625 1.515625q0.5625 0.953125 0.5625 2.125q0 1.265625 -0.6875 2.328125q-0.6875 1.0625 -1.859375 1.59375q1.65625 0.484375 2.546875 1.65625q0.890625 1.15625 0.890625 2.734375q0 1.234375 -0.578125 2.40625q-0.578125 1.15625 -1.578125 1.859375q-0.984375 0.703125 -2.453125 0.859375q-0.90625 0.09375 -4.40625 0.125l-6.171875 0l0 -18.125zm3.65625 3.015625l0 4.1875l2.40625 0q2.125 0 2.65625 -0.0625q0.9375 -0.109375 1.46875 -0.640625q0.546875 -0.546875 0.546875 -1.421875q0 -0.84375 -0.46875 -1.359375q-0.46875 -0.53125 -1.375 -0.640625q-0.546875 -0.0625 -3.125 -0.0625l-2.109375 0zm0 7.203125l0 4.84375l3.390625 0q1.984375 0 2.515625 -0.109375q0.8125 -0.140625 1.3125 -0.71875q0.515625 -0.578125 0.515625 -1.53125q0 -0.828125 -0.390625 -1.390625q-0.390625 -0.578125 -1.140625 -0.828125q-0.75 -0.265625 -3.25 -0.265625l-2.953125 0zm17.197388 -1.21875l-3.15625 -0.578125q0.53125 -1.890625 1.828125 -2.8125q1.296875 -0.921875 3.859375 -0.921875q2.328125 0 3.453125 0.5625q1.140625 0.546875 1.609375 1.390625q0.46875 0.84375 0.46875 3.109375l-0.046875 4.0625q0 1.734375 0.171875 2.5625q0.171875 0.8125 0.625 1.75l-3.4375 0q-0.140625 -0.34375 -0.328125 -1.03125q-0.09375 -0.296875 -0.125 -0.40625q-0.890625 0.875 -1.90625 1.3125q-1.015625 0.421875 -2.171875 0.421875q-2.03125 0 -3.203125 -1.09375q-1.15625 -1.109375 -1.15625 -2.796875q0 -1.109375 0.53125 -1.96875q0.53125 -0.875 1.484375 -1.34375q0.96875 -0.46875 2.765625 -0.8125q2.4375 -0.453125 3.375 -0.859375l0 -0.34375q0 -1.0 -0.5 -1.421875q-0.484375 -0.421875 -1.859375 -0.421875q-0.921875 0 -1.453125 0.359375q-0.515625 0.359375 -0.828125 1.28125zm4.640625 2.8125q-0.671875 0.234375 -2.125 0.546875q-1.4375 0.296875 -1.875 0.59375q-0.6875 0.484375 -0.6875 1.234375q0 0.71875 0.546875 1.25q0.546875 0.53125 1.390625 0.53125q0.9375 0 1.78125 -0.609375q0.640625 -0.46875 0.828125 -1.15625q0.140625 -0.4375 0.140625 -1.6875l0 -0.703125zm10.164429 6.3125l-3.46875 0l0 -13.140625l3.21875 0l0 1.875q0.828125 -1.328125 1.484375 -1.75q0.671875 -0.421875 1.515625 -0.421875q1.1875 0 2.28125 0.65625l-1.0625 3.03125q-0.890625 -0.5625 -1.640625 -0.5625q-0.734375 0 -1.25 0.40625q-0.5 0.390625 -0.796875 1.453125q-0.28125 1.046875 -0.28125 4.390625l0 4.0625zm17.98175 -9.25l-3.421875 0.625q-0.171875 -1.03125 -0.78125 -1.546875q-0.609375 -0.53125 -1.59375 -0.53125q-1.296875 0 -2.078125 0.90625q-0.765625 0.890625 -0.765625 3.0q0 2.328125 0.78125 3.296875q0.796875 0.96875 2.109375 0.96875q1.0 0 1.625 -0.5625q0.625 -0.5625 0.890625 -1.9375l3.40625 0.578125q-0.53125 2.34375 -2.046875 3.546875q-1.5 1.203125 -4.03125 1.203125q-2.875 0 -4.59375 -1.8125q-1.71875 -1.828125 -1.71875 -5.03125q0 -3.265625 1.71875 -5.078125q1.71875 -1.8125 4.65625 -1.8125q2.390625 0 3.8125 1.046875q1.421875 1.03125 2.03125 3.140625zm1.8363037 2.5q0 -1.734375 0.84375 -3.34375q0.859375 -1.625 2.421875 -2.484375q1.5625 -0.859375 3.5 -0.859375q2.984375 0 4.875 1.9375q1.90625 1.9375 1.90625 4.890625q0 2.984375 -1.921875 4.953125q-1.921875 1.953125 -4.84375 1.953125q-1.796875 0 -3.4375 -0.8125q-1.640625 -0.8125 -2.5 -2.390625q-0.84375 -1.578125 -0.84375 -3.84375zm3.5625 0.1875q0 1.953125 0.921875 3.0q0.9375 1.03125 2.296875 1.03125q1.359375 0 2.28125 -1.03125q0.921875 -1.046875 0.921875 -3.03125q0 -1.921875 -0.921875 -2.953125q-0.921875 -1.046875 -2.28125 -1.046875q-1.359375 0 -2.296875 1.046875q-0.921875 1.03125 -0.921875 2.984375zm24.752686 6.5625l-3.21875 0l0 -1.921875q-0.8125 1.125 -1.90625 1.671875q-1.09375 0.546875 -2.203125 0.546875q-2.265625 0 -3.890625 -1.8125q-1.609375 -1.828125 -1.609375 -5.09375q0 -3.34375 1.578125 -5.078125q1.578125 -1.75 3.96875 -1.75q2.203125 0 3.8125 1.84375l0 -6.53125l3.46875 0l0 18.125zm-9.265625 -6.84375q0 2.09375 0.578125 3.03125q0.84375 1.359375 2.34375 1.359375q1.203125 0 2.046875 -1.015625q0.84375 -1.015625 0.84375 -3.046875q0 -2.265625 -0.828125 -3.25q-0.8125 -1.0 -2.078125 -1.0q-1.234375 0 -2.078125 0.984375q-0.828125 0.96875 -0.828125 2.9375zm20.29956 2.65625l3.46875 0.59375q-0.671875 1.90625 -2.109375 2.90625q-1.4375 0.984375 -3.609375 0.984375q-3.421875 0 -5.0625 -2.234375q-1.3125 -1.796875 -1.3125 -4.53125q0 -3.265625 1.703125 -5.109375q1.71875 -1.859375 4.328125 -1.859375q2.921875 0 4.609375 1.9375q1.703125 1.9375 1.640625 5.9375l-8.71875 0q0.046875 1.546875 0.84375 2.40625q0.8125 0.859375 2.0 0.859375q0.828125 0 1.375 -0.4375q0.5625 -0.453125 0.84375 -1.453125zm0.203125 -3.5q-0.046875 -1.515625 -0.796875 -2.296875q-0.734375 -0.78125 -1.796875 -0.78125q-1.125 0 -1.875 0.828125q-0.734375 0.828125 -0.734375 2.25l5.203125 0zm5.0550537 3.9375l3.484375 -0.53125q0.21875 1.015625 0.90625 1.546875q0.6875 0.515625 1.90625 0.515625q1.34375 0 2.03125 -0.484375q0.453125 -0.359375 0.453125 -0.9375q0 -0.390625 -0.25 -0.65625q-0.25 -0.234375 -1.15625 -0.453125q-4.203125 -0.921875 -5.328125 -1.6875q-1.5625 -1.0625 -1.5625 -2.96875q0 -1.703125 1.34375 -2.859375q1.34375 -1.171875 4.1875 -1.171875q2.6875 0 4.0 0.890625q1.3125 0.875 1.8125 2.59375l-3.28125 0.609375q-0.21875 -0.765625 -0.8125 -1.171875q-0.578125 -0.421875 -1.65625 -0.421875q-1.375 0 -1.96875 0.390625q-0.40625 0.265625 -0.40625 0.703125q0 0.375 0.359375 0.625q0.46875 0.34375 3.234375 0.984375q2.78125 0.625 3.890625 1.546875q1.078125 0.921875 1.078125 2.578125q0 1.8125 -1.515625 3.109375q-1.5 1.296875 -4.453125 1.296875q-2.6875 0 -4.25 -1.078125q-1.5625 -1.09375 -2.046875 -2.96875z" fill-rule="nonzero"/><path fill="#000000" fill-opacity="0.0" d="m61.96063 10.28084l267.1181 0l0 55.811028l-267.1181 0z" fill-rule="evenodd"/><path fill="#000000" d="m91.80599 43.600838l0 -18.124998l7.703125 0q2.90625 0 4.21875 0.484375q1.3125 0.484375 2.109375 1.734375q0.796875 1.25 0.796875 2.859375q0 2.046873 -1.203125 3.374998q-1.203125 1.328125 -3.59375 1.671875q1.1875 0.6875 1.953125 1.515625q0.78125 0.828125 2.09375 2.953125l2.21875 3.53125l-4.375 0l-2.65625 -3.9375q-1.40625 -2.125 -1.921875 -2.671875q-0.515625 -0.546875 -1.109375 -0.75q-0.578125 -0.203125 -1.828125 -0.203125l-0.75 0l0 7.5625l-3.65625 0zm3.65625 -10.46875l2.703125 0q2.640625 0 3.296875 -0.21875q0.65625 -0.21875 1.015625 -0.765625q0.375 -0.5468731 0.375 -1.3593731q0 -0.921875 -0.484375 -1.484375q-0.484375 -0.5625 -1.375 -0.703125q-0.453125 -0.0625 -2.671875 -0.0625l-2.859375 0l0 4.593748zm22.197418 6.28125l3.46875 0.59375q-0.671875 1.90625 -2.109375 2.90625q-1.4375 0.984375 -3.609375 0.984375q-3.421875 0 -5.0625 -2.234375q-1.3125 -1.796875 -1.3125 -4.53125q0 -3.265625 1.703125 -5.109375q1.71875 -1.8593731 4.328125 -1.8593731q2.921875 0 4.609375 1.9374981q1.703125 1.9375 1.640625 5.9375l-8.71875 0q0.046875 1.546875 0.84375 2.40625q0.8125 0.859375 2.0 0.859375q0.828125 0 1.375 -0.4375q0.5625 -0.453125 0.84375 -1.453125zm0.203125 -3.5q-0.046875 -1.515625 -0.796875 -2.296875q-0.734375 -0.78125 -1.796875 -0.78125q-1.125 0 -1.875 0.828125q-0.734375 0.828125 -0.734375 2.25l5.203125 0zm8.883179 -1.4375l-3.15625 -0.578125q0.53125 -1.890625 1.828125 -2.812498q1.296875 -0.921875 3.8593674 -0.921875q2.328125 0 3.453125 0.5625q1.140625 0.546875 1.609375 1.3906231q0.46875 0.84375 0.46875 3.109375l-0.046875 4.0625q0 1.734375 0.171875 2.5625q0.171875 0.8125 0.625 1.75l-3.4375 0q-0.140625 -0.34375 -0.328125 -1.03125q-0.09375 -0.296875 -0.125 -0.40625q-0.890625 0.875 -1.90625 1.3125q-1.015625 0.421875 -2.1718674 0.421875q-2.03125 0 -3.203125 -1.09375q-1.15625 -1.109375 -1.15625 -2.796875q0 -1.109375 0.53125 -1.96875q0.53125 -0.875 1.484375 -1.34375q0.96875 -0.46875 2.7656174 -0.8125q2.4375 -0.453125 3.375 -0.859375l0 -0.34375q0 -1.0 -0.5 -1.421875q-0.484375 -0.421875 -1.859375 -0.421875q-0.921875 0 -1.4531174 0.359375q-0.515625 0.359375 -0.828125 1.28125zm4.6406174 2.8125q-0.671875 0.234375 -2.125 0.546875q-1.4374924 0.296875 -1.8749924 0.59375q-0.6875 0.484375 -0.6875 1.234375q0 0.71875 0.546875 1.25q0.546875 0.53125 1.3906174 0.53125q0.9375 0 1.78125 -0.609375q0.640625 -0.46875 0.828125 -1.15625q0.140625 -0.4375 0.140625 -1.6875l0 -0.703125zm18.883179 6.3125l-3.21875 0l0 -1.921875q-0.8125 1.125 -1.90625 1.671875q-1.09375 0.546875 -2.203125 0.546875q-2.265625 0 -3.890625 -1.8125q-1.609375 -1.828125 -1.609375 -5.09375q0 -3.34375 1.578125 -5.078123q1.578125 -1.75 3.96875 -1.75q2.203125 0 3.8125 1.8437481l0 -6.531248l3.46875 0l0 18.124998zm-9.265625 -6.84375q0 2.09375 0.578125 3.03125q0.84375 1.359375 2.34375 1.359375q1.203125 0 2.046875 -1.015625q0.84375 -1.015625 0.84375 -3.046875q0 -2.265625 -0.828125 -3.25q-0.8125 -1.0 -2.078125 -1.0q-1.234375 0 -2.078125 0.984375q-0.828125 0.96875 -0.828125 2.9375zm23.690186 3.609375l0 3.234375l-12.1875 0q0.203125 -1.828125 1.1875 -3.46875q1.0 -1.640625 3.90625 -4.34375q2.359375 -2.1875 2.890625 -2.96875q0.71875 -1.0781231 0.71875 -2.124998q0 -1.171875 -0.625 -1.796875q-0.625 -0.625 -1.734375 -0.625q-1.078125 0 -1.734375 0.65625q-0.640625 0.65625 -0.734375 2.1875l-3.46875 -0.359375q0.3125 -2.859375 1.9375 -4.109375q1.640625 -1.25 4.09375 -1.25q2.6875 0 4.21875 1.453125q1.53125 1.4375 1.53125 3.59375q0 1.21875 -0.4375 2.328123q-0.4375 1.109375 -1.390625 2.3125q-0.640625 0.8125 -2.28125 2.328125q-1.640625 1.5 -2.078125 2.0q-0.4375 0.484375 -0.71875 0.953125l6.90625 0zm3.7581787 -6.421875l0 -3.484373l3.484375 0l0 3.484373l-3.484375 0zm0 9.65625l0 -3.46875l3.484375 0l0 3.46875l-3.484375 0zm13.908936 -5.90625l3.5625 -0.34375q0.3125 1.796875 1.296875 2.640625q0.984375 0.84375 2.65625 0.84375q1.7656403 0 2.6562653 -0.75q0.90625 -0.75 0.90625 -1.75q0 -0.640625 -0.390625 -1.09375q-0.375 -0.453125 -1.3125 -0.78125q-0.640625 -0.234375 -2.9218903 -0.796875q-2.953125 -0.734375 -4.140625 -1.796875q-1.65625 -1.5 -1.65625 -3.640623q0 -1.390625 0.78125 -2.59375q0.78125 -1.203125 2.25 -1.828125q1.484375 -0.640625 3.578125 -0.640625q3.4062653 0 5.1250153 1.5q1.734375 1.484375 1.828125 3.984375l-3.65625 0.171875q-0.25 -1.40625 -1.015625 -2.015625q-0.765625 -0.609375 -2.3125153 -0.609375q-1.609375 0 -2.5 0.65625q-0.578125 0.421875 -0.578125 1.125q0 0.640625 0.53125 1.09375q0.703125 0.578125 3.3750153 1.2187481q2.671875 0.625 3.9375 1.296875q1.28125 0.671875 2.0 1.84375q0.734375 1.171875 0.734375 2.890625q0 1.5625 -0.875 2.921875q-0.859375 1.359375 -2.4375 2.03125q-1.578125 0.65625 -3.9531403 0.65625q-3.4375 0 -5.28125 -1.59375q-1.828125 -1.59375 -2.1875 -4.640625zm25.393661 1.71875l3.46875 0.59375q-0.671875 1.90625 -2.109375 2.90625q-1.4375 0.984375 -3.609375 0.984375q-3.421875 0 -5.0625 -2.234375q-1.3125 -1.796875 -1.3125 -4.53125q0 -3.265625 1.703125 -5.109375q1.71875 -1.8593731 4.328125 -1.8593731q2.921875 0 4.609375 1.9374981q1.703125 1.9375 1.640625 5.9375l-8.71875 0q0.046875 1.546875 0.84375 2.40625q0.8125 0.859375 2.0 0.859375q0.828125 0 1.375 -0.4375q0.5625 -0.453125 0.84375 -1.453125zm0.203125 -3.5q-0.046875 -1.515625 -0.796875 -2.296875q-0.734375 -0.78125 -1.796875 -0.78125q-1.125 0 -1.875 0.828125q-0.734375 0.828125 -0.734375 2.25l5.203125 0zm14.867554 12.6875l0 -6.609375q-0.6875 0.875 -1.703125 1.390625q-1.015625 0.515625 -2.1875 0.515625q-2.234375 0 -3.6875 -1.6875q-1.703125 -1.953125 -1.703125 -5.328125q0 -3.15625 1.59375 -4.937498q1.609375 -1.78125 3.984375 -1.78125q1.3125 0 2.265625 0.5625q0.96875 0.5625 1.703125 1.6874981l0 -1.9531231l3.203125 0l0 18.140623l-3.46875 0zm0.109375 -11.734375q0 -2.015625 -0.828125 -2.984375q-0.8125 -0.984375 -2.0625 -0.984375q-1.25 0 -2.109375 1.0q-0.84375 1.0 -0.84375 3.171875q0 2.171875 0.8125 3.125q0.828125 0.953125 2.015625 0.953125q1.203125 0 2.109375 -1.0625q0.90625 -1.078125 0.90625 -3.21875zm15.424561 6.734375l0 -1.96875q-0.71875 1.046875 -1.890625 1.65625q-1.171875 0.609375 -2.46875 0.609375q-1.328125 0 -2.375 -0.578125q-1.046875 -0.578125 -1.515625 -1.625q-0.46875 -1.0625 -0.46875 -2.921875l0 -8.312498l3.46875 0l0 6.046873q0 2.765625 0.1875 3.390625q0.203125 0.625 0.703125 1.0q0.5 0.359375 1.28125 0.359375q0.890625 0 1.59375 -0.484375q0.71875 -0.5 0.96875 -1.21875q0.265625 -0.734375 0.265625 -3.546875l0 -5.546873l3.46875 0l0 13.140623l-3.21875 0zm14.424561 -4.1875l3.46875 0.59375q-0.671875 1.90625 -2.109375 2.90625q-1.4375 0.984375 -3.609375 0.984375q-3.421875 0 -5.0625 -2.234375q-1.3125 -1.796875 -1.3125 -4.53125q0 -3.265625 1.703125 -5.109375q1.71875 -1.8593731 4.328125 -1.8593731q2.921875 0 4.609375 1.9374981q1.703125 1.9375 1.640625 5.9375l-8.71875 0q0.046875 1.546875 0.84375 2.40625q0.8125 0.859375 2.0 0.859375q0.828125 0 1.375 -0.4375q0.5625 -0.453125 0.84375 -1.453125zm0.203125 -3.5q-0.046875 -1.515625 -0.796875 -2.296875q-0.734375 -0.78125 -1.796875 -0.78125q-1.125 0 -1.875 0.828125q-0.734375 0.828125 -0.734375 2.25l5.203125 0zm18.226929 7.6875l-3.46875 0l0 -6.703125q0 -2.125 -0.234375 -2.75q-0.21875 -0.625 -0.71875 -0.96875q-0.5 -0.34375 -1.203125 -0.34375q-0.90625 0 -1.625 0.5q-0.71875 0.484375 -0.984375 1.296875q-0.265625 0.8125 -0.265625 3.015625l0 5.953125l-3.46875 0l0 -13.140623l3.21875 0l0 1.9374981q1.71875 -2.234373 4.328125 -2.234373q1.15625 0 2.109375 0.421875q0.953125 0.40625 1.4375 1.0625q0.484375 0.6406231 0.671875 1.4531231q0.203125 0.8125 0.203125 2.34375l0 8.15625zm14.971436 -9.25l-3.421875 0.625q-0.171875 -1.03125 -0.78125 -1.546875q-0.609375 -0.53125 -1.59375 -0.53125q-1.296875 0 -2.078125 0.90625q-0.765625 0.890625 -0.765625 3.0q0 2.328125 0.78125 3.296875q0.796875 0.96875 2.109375 0.96875q1.0 0 1.625 -0.5625q0.625 -0.5625 0.890625 -1.9375l3.40625 0.578125q-0.53125 2.34375 -2.046875 3.546875q-1.5 1.203125 -4.03125 1.203125q-2.875 0 -4.59375 -1.8125q-1.71875 -1.828125 -1.71875 -5.03125q0 -3.265625 1.71875 -5.078123q1.71875 -1.8125 4.65625 -1.8125q2.390625 0 3.8125 1.046875q1.421875 1.0312481 2.03125 3.140623zm10.242554 5.0625l3.46875 0.59375q-0.671875 1.90625 -2.109375 2.90625q-1.4375 0.984375 -3.609375 0.984375q-3.421875 0 -5.0625 -2.234375q-1.3125 -1.796875 -1.3125 -4.53125q0 -3.265625 1.703125 -5.109375q1.71875 -1.8593731 4.328125 -1.8593731q2.921875 0 4.609375 1.9374981q1.703125 1.9375 1.640625 5.9375l-8.71875 0q0.046875 1.546875 0.84375 2.40625q0.8125 0.859375 2.0 0.859375q0.828125 0 1.375 -0.4375q0.5625 -0.453125 0.84375 -1.453125zm0.203125 -3.5q-0.046875 -1.515625 -0.796875 -2.296875q-0.734375 -0.78125 -1.796875 -0.78125q-1.125 0 -1.875 0.828125q-0.734375 0.828125 -0.734375 2.25l5.203125 0z" fill-rule="nonzero"/><g filter="url(#shadowFilter-p.15)"><use xlink:href="#p.15" transform="matrix(1.0 0.0 0.0 1.0 0.0 2.0)"/></g><defs><filter id="shadowFilter-p.15" filterUnits="userSpaceOnUse"><feGaussianBlur in="SourceAlpha" stdDeviation="2.0" result="blur"/><feComponentTransfer in="blur" color-interpolation-filters="sRGB"><feFuncR type="linear" slope="0" intercept="0.0"/><feFuncG type="linear" slope="0" intercept="0.0"/><feFuncB type="linear" slope="0" intercept="0.0"/><feFuncA type="linear" slope="0.5" intercept="0"/></feComponentTransfer></filter></defs><g id="p.15"><path fill="#000000" fill-opacity="0.0" d="m9.472959 82.23293l0 -44.69291" fill-rule="evenodd"/><path stroke="#000000" stroke-width="1.0" stroke-linejoin="round" stroke-linecap="butt" d="m9.472959 82.23293l0 -44.69291" fill-rule="evenodd"/></g><g filter="url(#shadowFilter-p.16)"><use xlink:href="#p.16" transform="matrix(1.0 0.0 0.0 1.0 0.0 2.0)"/></g><defs><filter id="shadowFilter-p.16" filterUnits="userSpaceOnUse"><feGaussianBlur in="SourceAlpha" stdDeviation="2.0" result="blur"/><feComponentTransfer in="blur" color-interpolation-filters="sRGB"><feFuncR type="linear" slope="0" intercept="0.0"/><feFuncG type="linear" slope="0" intercept="0.0"/><feFuncB type="linear" slope="0" intercept="0.0"/><feFuncA type="linear" slope="0.5" intercept="0"/></feComponentTransfer></filter></defs><g id="p.16"><path fill="#000000" fill-opacity="0.0" d="m371.9454 82.23293l0 -44.69291" fill-rule="evenodd"/><path stroke="#000000" stroke-width="1.0" stroke-linejoin="round" stroke-linecap="butt" d="m371.9454 82.23293l0 -44.69291" fill-rule="evenodd"/></g><g filter="url(#shadowFilter-p.17)"><use xlink:href="#p.17" transform="matrix(1.0 0.0 0.0 1.0 0.0 2.0)"/></g><defs><filter id="shadowFilter-p.17" filterUnits="userSpaceOnUse"><feGaussianBlur in="SourceAlpha" stdDeviation="2.0" result="blur"/><feComponentTransfer in="blur" color-interpolation-filters="sRGB"><feFuncR type="linear" slope="0" intercept="0.0"/><feFuncG type="linear" slope="0" intercept="0.0"/><feFuncB type="linear" slope="0" intercept="0.0"/><feFuncA type="linear" slope="0.5" intercept="0"/></feComponentTransfer></filter></defs><g id="p.17"><path fill="#000000" fill-opacity="0.0" d="m9.456693 38.18635l52.503937 0" fill-rule="evenodd"/><path stroke="#000000" stroke-width="1.0" stroke-linejoin="round" stroke-linecap="butt" d="m9.456693 38.18635l52.503937 0" fill-rule="evenodd"/></g><g filter="url(#shadowFilter-p.18)"><use xlink:href="#p.18" transform="matrix(1.0 0.0 0.0 1.0 0.0 2.0)"/></g><defs><filter id="shadowFilter-p.18" filterUnits="userSpaceOnUse"><feGaussianBlur in="SourceAlpha" stdDeviation="2.0" result="blur"/><feComponentTransfer in="blur" color-interpolation-filters="sRGB"><feFuncR type="linear" slope="0" intercept="0.0"/><feFuncG type="linear" slope="0" intercept="0.0"/><feFuncB type="linear" slope="0" intercept="0.0"/><feFuncA type="linear" slope="0.5" intercept="0"/></feComponentTransfer></filter></defs><g id="p.18"><path fill="#000000" fill-opacity="0.0" d="m329.07874 38.18635l41.7323 0" fill-rule="evenodd"/><path stroke="#000000" stroke-width="1.0" stroke-linejoin="round" stroke-linecap="butt" d="m329.07874 38.18635l41.7323 0" fill-rule="evenodd"/></g><g filter="url(#shadowFilter-p.19)"><use xlink:href="#p.19" transform="matrix(1.0 0.0 0.0 1.0 0.0 2.0)"/></g><defs><filter id="shadowFilter-p.19" filterUnits="userSpaceOnUse"><feGaussianBlur in="SourceAlpha" stdDeviation="2.0" result="blur"/><feComponentTransfer in="blur" color-interpolation-filters="sRGB"><feFuncR type="linear" slope="0" intercept="0.0"/><feFuncG type="linear" slope="0" intercept="0.0"/><feFuncB type="linear" slope="0" intercept="0.0"/><feFuncA type="linear" slope="0.5" intercept="0"/></feComponentTransfer></filter></defs><g id="p.19"><path fill="#000000" fill-opacity="0.0" d="m1033.4462 279.90814l0 -85.76378" fill-rule="evenodd"/><path stroke="#000000" stroke-width="1.0" stroke-linejoin="round" stroke-linecap="butt" d="m1033.4462 279.90814l0 -85.76378" fill-rule="evenodd"/></g><path fill="#000000" fill-opacity="0.0" d="m827.30286 305.46054l-231.93701 0" fill-rule="evenodd"/><path stroke="#000000" stroke-width="4.0" stroke-linejoin="round" stroke-linecap="butt" d="m827.3029 305.46054l-207.93707 0" fill-rule="evenodd"/><path fill="#000000" stroke="#000000" stroke-width="4.0" stroke-linecap="butt" d="m619.36584 298.8536l-18.152405 6.6069336l18.152405 6.6069336z" fill-rule="evenodd"/><path fill="#000000" fill-opacity="0.0" d="m73.13386 68.22835l241.63782 0" fill-rule="evenodd"/><path stroke="#000000" stroke-width="4.0" stroke-linejoin="round" stroke-linecap="butt" d="m73.13386 68.22835l217.63782 0" fill-rule="evenodd"/><path fill="#000000" stroke="#000000" stroke-width="4.0" stroke-linecap="butt" d="m290.77167 74.83527l18.152374 -6.606926l-18.152374 -6.60693z" fill-rule="evenodd"/><path fill="#000000" fill-opacity="0.0" d="m584.0079 88.249344l113.82678 0l0 34.708664l-113.82678 0z" fill-rule="evenodd"/><path fill="#ff00ff" d="m632.1279 99.148674l0 2.109375l-0.140625 0q-1.0 0 -1.78125 0.265625q-0.765625 0.265625 -1.3125 0.75q-0.53125 0.46875 -0.84375 1.15625q-0.3125 0.671875 -0.390625 1.5q0.203125 -0.234375 0.46875 -0.453125q0.28125 -0.21875 0.625 -0.390625q0.34375 -0.1875 0.734375 -0.296875q0.40625 -0.109375 0.875 -0.109375q0.9375 0 1.640625 0.359375q0.71875 0.359375 1.1875 0.984375q0.46875 0.609375 0.703125 1.421875q0.234375 0.8125 0.234375 1.71875q0 0.96875 -0.3125 1.796875q-0.3125 0.828125 -0.890625 1.4375q-0.5625 0.609375 -1.390625 0.96875q-0.8125 0.34375 -1.828125 0.34375q-1.0625 0 -1.921875 -0.390625q-0.859375 -0.40625 -1.453125 -1.109375q-0.59375 -0.703125 -0.921875 -1.65625q-0.328125 -0.96875 -0.328125 -2.109375l0 -0.96875q0 -1.578125 0.421875 -2.921875q0.4375 -1.34375 1.28125 -2.3125q0.84375 -0.984375 2.09375 -1.53125q1.265625 -0.5625 2.921875 -0.5625l0.328125 0zm-2.5 6.5625q-0.6875 0 -1.21875 0.375q-0.515625 0.359375 -0.78125 0.921875l0 0.75q0 0.734375 0.140625 1.28125q0.15625 0.546875 0.421875 0.90625q0.28125 0.359375 0.65625 0.546875q0.375 0.171875 0.8125 0.171875q0.4375 0 0.796875 -0.1875q0.375 -0.1875 0.625 -0.515625q0.265625 -0.328125 0.390625 -0.78125q0.140625 -0.453125 0.140625 -0.984375q0 -0.53125 -0.140625 -0.984375q-0.125 -0.46875 -0.390625 -0.796875q-0.25 -0.328125 -0.625 -0.515625q-0.359375 -0.1875 -0.828125 -0.1875zm15.867432 1.984375q0 1.109375 -0.25 2.03125q-0.234375 0.90625 -0.71875 1.578125q-0.484375 0.65625 -1.203125 1.03125q-0.71875 0.375 -1.671875 0.375q-0.875 0 -1.515625 -0.328125q-0.625 -0.328125 -1.078125 -0.90625l-0.125 1.046875l-2.265625 0l0 -14.0l2.53125 0l0 5.03125q0.4375 -0.5 1.03125 -0.78125q0.59375 -0.28125 1.390625 -0.28125q0.96875 0 1.6875 0.375q0.734375 0.359375 1.21875 1.03125q0.484375 0.65625 0.71875 1.59375q0.25 0.921875 0.25 2.015625l0 0.1875zm-2.53125 -0.1875q0 -0.609375 -0.09375 -1.140625q-0.09375 -0.546875 -0.328125 -0.9375q-0.21875 -0.40625 -0.609375 -0.640625q-0.375 -0.25 -0.9375 -0.25q-0.703125 0 -1.140625 0.296875q-0.421875 0.296875 -0.65625 0.796875l0 3.9375q0.234375 0.5 0.65625 0.796875q0.4375 0.28125 1.15625 0.28125q0.578125 0 0.9375 -0.21875q0.375 -0.21875 0.59375 -0.609375q0.234375 -0.40625 0.328125 -0.9375q0.09375 -0.546875 0.09375 -1.1875l0 -0.1875zm13.695557 0.171875q0 1.078125 -0.25 2.0q-0.25 0.921875 -0.75 1.59375q-0.484375 0.671875 -1.203125 1.0625q-0.71875 0.375 -1.640625 0.375q-0.796875 0 -1.40625 -0.265625q-0.59375 -0.28125 -1.03125 -0.78125l0 4.65625l-2.53125 0l0 -13.65625l2.328125 0l0.09375 0.96875q0.453125 -0.546875 1.078125 -0.84375q0.625 -0.296875 1.453125 -0.296875q0.9375 0 1.65625 0.359375q0.71875 0.359375 1.203125 1.015625q0.5 0.65625 0.75 1.578125q0.25 0.921875 0.25 2.046875l0 0.1875zm-2.53125 -0.1875q0 -0.609375 -0.125 -1.15625q-0.109375 -0.546875 -0.359375 -0.9375q-0.234375 -0.40625 -0.609375 -0.625q-0.375 -0.234375 -0.90625 -0.234375q-0.671875 0 -1.09375 0.265625q-0.421875 0.265625 -0.65625 0.734375l0 4.109375q0.234375 0.46875 0.65625 0.75q0.421875 0.28125 1.109375 0.28125q0.53125 0 0.90625 -0.234375q0.390625 -0.25 0.625 -0.65625q0.234375 -0.40625 0.34375 -0.953125q0.109375 -0.546875 0.109375 -1.15625l0 -0.1875z" fill-rule="nonzero"/><path fill="#000000" fill-opacity="0.0" d="m696.0079 88.249344l113.82678 0l0 34.708664l-113.82678 0z" fill-rule="evenodd"/><path fill="#4a86e8" d="m744.1279 99.148674l0 2.109375l-0.140625 0q-1.0 0 -1.78125 0.265625q-0.765625 0.265625 -1.3125 0.75q-0.53125 0.46875 -0.84375 1.15625q-0.3125 0.671875 -0.390625 1.5q0.203125 -0.234375 0.46875 -0.453125q0.28125 -0.21875 0.625 -0.390625q0.34375 -0.1875 0.734375 -0.296875q0.40625 -0.109375 0.875 -0.109375q0.9375 0 1.640625 0.359375q0.71875 0.359375 1.1875 0.984375q0.46875 0.609375 0.703125 1.421875q0.234375 0.8125 0.234375 1.71875q0 0.96875 -0.3125 1.796875q-0.3125 0.828125 -0.890625 1.4375q-0.5625 0.609375 -1.390625 0.96875q-0.8125 0.34375 -1.828125 0.34375q-1.0625 0 -1.921875 -0.390625q-0.859375 -0.40625 -1.453125 -1.109375q-0.59375 -0.703125 -0.921875 -1.65625q-0.328125 -0.96875 -0.328125 -2.109375l0 -0.96875q0 -1.578125 0.421875 -2.921875q0.4375 -1.34375 1.28125 -2.3125q0.84375 -0.984375 2.09375 -1.53125q1.265625 -0.5625 2.921875 -0.5625l0.328125 0zm-2.5 6.5625q-0.6875 0 -1.21875 0.375q-0.515625 0.359375 -0.78125 0.921875l0 0.75q0 0.734375 0.140625 1.28125q0.15625 0.546875 0.421875 0.90625q0.28125 0.359375 0.65625 0.546875q0.375 0.171875 0.8125 0.171875q0.4375 0 0.796875 -0.1875q0.375 -0.1875 0.625 -0.515625q0.265625 -0.328125 0.390625 -0.78125q0.140625 -0.453125 0.140625 -0.984375q0 -0.53125 -0.140625 -0.984375q-0.125 -0.46875 -0.390625 -0.796875q-0.25 -0.328125 -0.625 -0.515625q-0.359375 -0.1875 -0.828125 -0.1875zm15.867432 1.984375q0 1.109375 -0.25 2.03125q-0.234375 0.90625 -0.71875 1.578125q-0.484375 0.65625 -1.203125 1.03125q-0.71875 0.375 -1.671875 0.375q-0.875 0 -1.515625 -0.328125q-0.625 -0.328125 -1.078125 -0.90625l-0.125 1.046875l-2.265625 0l0 -14.0l2.53125 0l0 5.03125q0.4375 -0.5 1.03125 -0.78125q0.59375 -0.28125 1.390625 -0.28125q0.96875 0 1.6875 0.375q0.734375 0.359375 1.21875 1.03125q0.484375 0.65625 0.71875 1.59375q0.25 0.921875 0.25 2.015625l0 0.1875zm-2.53125 -0.1875q0 -0.609375 -0.09375 -1.140625q-0.09375 -0.546875 -0.328125 -0.9375q-0.21875 -0.40625 -0.609375 -0.640625q-0.375 -0.25 -0.9375 -0.25q-0.703125 0 -1.140625 0.296875q-0.421875 0.296875 -0.65625 0.796875l0 3.9375q0.234375 0.5 0.65625 0.796875q0.4375 0.28125 1.15625 0.28125q0.578125 0 0.9375 -0.21875q0.375 -0.21875 0.59375 -0.609375q0.234375 -0.40625 0.328125 -0.9375q0.09375 -0.546875 0.09375 -1.1875l0 -0.1875zm13.695557 0.171875q0 1.078125 -0.25 2.0q-0.25 0.921875 -0.75 1.59375q-0.484375 0.671875 -1.203125 1.0625q-0.71875 0.375 -1.640625 0.375q-0.796875 0 -1.40625 -0.265625q-0.59375 -0.28125 -1.03125 -0.78125l0 4.65625l-2.53125 0l0 -13.65625l2.328125 0l0.09375 0.96875q0.453125 -0.546875 1.078125 -0.84375q0.625 -0.296875 1.453125 -0.296875q0.9375 0 1.65625 0.359375q0.71875 0.359375 1.203125 1.015625q0.5 0.65625 0.75 1.578125q0.25 0.921875 0.25 2.046875l0 0.1875zm-2.53125 -0.1875q0 -0.609375 -0.125 -1.15625q-0.109375 -0.546875 -0.359375 -0.9375q-0.234375 -0.40625 -0.609375 -0.625q-0.375 -0.234375 -0.90625 -0.234375q-0.671875 0 -1.09375 0.265625q-0.421875 0.265625 -0.65625 0.734375l0 4.109375q0.234375 0.46875 0.65625 0.75q0.421875 0.28125 1.109375 0.28125q0.53125 0 0.90625 -0.234375q0.390625 -0.25 0.625 -0.65625q0.234375 -0.40625 0.34375 -0.953125q0.109375 -0.546875 0.109375 -1.15625l0 -0.1875z" fill-rule="nonzero"/><g filter="url(#shadowFilter-p.20)"><use xlink:href="#p.20" transform="matrix(1.0 0.0 0.0 1.0 0.0 2.0)"/></g><defs><filter id="shadowFilter-p.20" filterUnits="userSpaceOnUse"><feGaussianBlur in="SourceAlpha" stdDeviation="2.0" result="blur"/><feComponentTransfer in="blur" color-interpolation-filters="sRGB"><feFuncR type="linear" slope="0" intercept="0.0"/><feFuncG type="linear" slope="0" intercept="0.0"/><feFuncB type="linear" slope="0" intercept="0.0"/><feFuncA type="linear" slope="0.5" intercept="0"/></feComponentTransfer></filter></defs><g id="p.20"><path fill="#000000" fill-opacity="0.0" d="m584.0079 122.18518l112.0 0" fill-rule="evenodd"/><path stroke="#000000" stroke-width="1.0" stroke-linejoin="round" stroke-linecap="butt" d="m587.43494 122.18518l102.57294 0" fill-rule="evenodd"/><path fill="#000000" stroke="#000000" stroke-width="1.0" stroke-linecap="butt" d="m587.43494 122.18518l1.1246338 -1.1245804l-3.0897827 1.1245804l3.0897827 1.124588z" fill-rule="evenodd"/><path fill="#000000" stroke="#000000" stroke-width="1.0" stroke-linecap="butt" d="m690.0079 123.836914l4.538086 -1.6517334l-4.538086 -1.6517334z" fill-rule="evenodd"/></g><g filter="url(#shadowFilter-p.21)"><use xlink:href="#p.21" transform="matrix(1.0 0.0 0.0 1.0 0.0 2.0)"/></g><defs><filter id="shadowFilter-p.21" filterUnits="userSpaceOnUse"><feGaussianBlur in="SourceAlpha" stdDeviation="2.0" result="blur"/><feComponentTransfer in="blur" color-interpolation-filters="sRGB"><feFuncR type="linear" slope="0" intercept="0.0"/><feFuncG type="linear" slope="0" intercept="0.0"/><feFuncB type="linear" slope="0" intercept="0.0"/><feFuncA type="linear" slope="0.5" intercept="0"/></feComponentTransfer></filter></defs><g id="p.21"><path fill="#000000" fill-opacity="0.0" d="m696.0079 122.18518l112.0 0" fill-rule="evenodd"/><path stroke="#000000" stroke-width="1.0" stroke-linejoin="round" stroke-linecap="butt" d="m699.43494 122.18518l102.57294 0" fill-rule="evenodd"/><path fill="#000000" stroke="#000000" stroke-width="1.0" stroke-linecap="butt" d="m699.43494 122.18518l1.1246338 -1.1245804l-3.0897827 1.1245804l3.0897827 1.124588z" fill-rule="evenodd"/><path fill="#000000" stroke="#000000" stroke-width="1.0" stroke-linecap="butt" d="m802.0079 123.836914l4.538086 -1.6517334l-4.538086 -1.6517334z" fill-rule="evenodd"/></g></g></svg>