<?xml version="1.0" encoding="UTF-8" standalone="no"?>
<!DOCTYPE svg PUBLIC "-//W3C//DTD SVG 1.0//EN"
 "http://www.w3.org/TR/2001/REC-SVG-20010904/DTD/svg10.dtd" [
 <!ATTLIST svg xmlns:xlink CDATA #FIXED "http://www.w3.org/1999/xlink">
]>
<!-- Generated by Graphviz version 2.12 (Mon Dec  4 22:04:37 UTC 2006)
     For user: Nick J -->
<!-- Title: G Pages: 1 -->
<svg width="3.88in" height="5.44in"
 xmlns="http://www.w3.org/2000/svg" xmlns:xlink="http://www.w3.org/1999/xlink">
<g id="graph0" class="graph" transform="scale(1.33333 1.33333) rotate(0) translate(4 388)">
<title>G</title>
<polygon style="fill:white;stroke:white;" points="-4,4 -4,-388 275,-388 275,4 -4,4"/>
<!-- Person -->
<g id="node1" class="node"><title>Person</title>
<polygon style="fill:none;stroke:black;" points="0,-156 0,-252 102,-252 102,-156 0,-156"/>
<text text-anchor="middle" x="51" y="-234" >Person</text>
<polyline style="fill:none;stroke:black;" points="0,-228 102,-228 "/>
<text text-anchor="middle" x="27" y="-210" >id</text>
<polyline style="fill:none;stroke:black;" points="54,-204 54,-228 "/>
<text text-anchor="middle" x="78" y="-210" >text</text>
<polyline style="fill:none;stroke:black;" points="0,-204 102,-204 "/>
<text text-anchor="middle" x="32" y="-186" >personal</text>
<polyline style="fill:none;stroke:black;" points="64,-180 64,-204 "/>
<text text-anchor="middle" x="83" y="-186" >text</text>
<polyline style="fill:none;stroke:black;" points="0,-180 102,-180 "/>
<text text-anchor="middle" x="28" y="-162" >family</text>
<polyline style="fill:none;stroke:black;" points="57,-156 57,-180 "/>
<text text-anchor="middle" x="79" y="-162" >text</text>
</g>
<!-- Survey -->
<g id="node4" class="node"><title>Survey</title>
<polygon style="fill:none;stroke:black;" points="169,0 169,-120 272,-120 272,0 169,0"/>
<text text-anchor="middle" x="220" y="-102" >Survey</text>
<polyline style="fill:none;stroke:black;" points="169,-96 272,-96 "/>
<text text-anchor="middle" x="193" y="-78" >taken</text>
<polyline style="fill:none;stroke:black;" points="217,-72 217,-96 "/>
<text text-anchor="middle" x="244" y="-78" >integer</text>
<polyline style="fill:none;stroke:black;" points="169,-72 272,-72 "/>
<text text-anchor="middle" x="199" y="-54" >person</text>
<polyline style="fill:none;stroke:black;" points="229,-48 229,-72 "/>
<text text-anchor="middle" x="250" y="-54" >text</text>
<polyline style="fill:none;stroke:black;" points="169,-48 272,-48 "/>
<text text-anchor="middle" x="197" y="-30" >quant</text>
<polyline style="fill:none;stroke:black;" points="225,-24 225,-48 "/>
<text text-anchor="middle" x="248" y="-30" >text</text>
<polyline style="fill:none;stroke:black;" points="169,-24 272,-24 "/>
<text text-anchor="middle" x="200" y="-6" >reading</text>
<polyline style="fill:none;stroke:black;" points="231,0 231,-24 "/>
<text text-anchor="middle" x="251" y="-6" >real</text>
</g>
<!-- Person&#45;&gt;Survey -->
<g id="edge6" class="edge"><title>Person&#45;&gt;Survey</title>
<path style="fill:none;stroke:black;" d="M102,-216C130,-216 110,-181 120,-156 137,-115 124,-68 159,-61"/>
<polygon style="fill:black;stroke:black;" points="159.398,-64.4778 169,-60 158.701,-57.5125 159.398,-64.4778"/>
</g>
<!-- Site -->
<g id="node2" class="node"><title>Site</title>
<polygon style="fill:none;stroke:black;" points="53,-288 53,-384 138,-384 138,-288 53,-288"/>
<text text-anchor="middle" x="95" y="-366" >Site</text>
<polyline style="fill:none;stroke:black;" points="53,-360 138,-360 "/>
<text text-anchor="middle" x="76" y="-342" >name</text>
<polyline style="fill:none;stroke:black;" points="100,-336 100,-360 "/>
<text text-anchor="middle" x="119" y="-342" >text</text>
<polyline style="fill:none;stroke:black;" points="53,-336 138,-336 "/>
<text text-anchor="middle" x="72" y="-318" >lat</text>
<polyline style="fill:none;stroke:black;" points="91,-312 91,-336 "/>
<text text-anchor="middle" x="114" y="-318" >real</text>
<polyline style="fill:none;stroke:black;" points="53,-312 138,-312 "/>
<text text-anchor="middle" x="75" y="-294" >long</text>
<polyline style="fill:none;stroke:black;" points="97,-288 97,-312 "/>
<text text-anchor="middle" x="117" y="-294" >real</text>
</g>
<!-- Visited -->
<g id="node3" class="node"><title>Visited</title>
<polygon style="fill:none;stroke:black;" points="138,-156 138,-252 237,-252 237,-156 138,-156"/>
<text text-anchor="middle" x="187" y="-234" >Visited</text>
<polyline style="fill:none;stroke:black;" points="138,-228 237,-228 "/>
<text text-anchor="middle" x="160" y="-210" >id</text>
<polyline style="fill:none;stroke:black;" points="182,-204 182,-228 "/>
<text text-anchor="middle" x="209" y="-210" >integer</text>
<polyline style="fill:none;stroke:black;" points="138,-204 237,-204 "/>
<text text-anchor="middle" x="162" y="-186" >site</text>
<polyline style="fill:none;stroke:black;" points="186,-180 186,-204 "/>
<text text-anchor="middle" x="211" y="-186" >text</text>
<polyline style="fill:none;stroke:black;" points="138,-180 237,-180 "/>
<text text-anchor="middle" x="165" y="-162" >dated</text>
<polyline style="fill:none;stroke:black;" points="192,-156 192,-180 "/>
<text text-anchor="middle" x="214" y="-162" >text</text>
</g>
<!-- Site&#45;&gt;Visited -->
<g id="edge2" class="edge"><title>Site&#45;&gt;Visited</title>
<path style="fill:none;stroke:black;" d="M138,-348C168,-348 119,-226 130,-198"/>
<polygon style="fill:black;stroke:black;" points="132.1,-200.8 138,-192 127.9,-195.2 132.1,-200.8"/>
</g>
<!-- Visited&#45;&gt;Survey -->
<g id="edge4" class="edge"><title>Visited&#45;&gt;Survey</title>
<path style="fill:none;stroke:black;" d="M237,-216C263,-216 250,-178 237,-156 219,-126 186,-149 169,-120 163,-110 157,-96 160,-89"/>
<polygon style="fill:black;stroke:black;" points="161.958,-91.916 169,-84 158.559,-85.7969 161.958,-91.916"/>
</g>
</g>
</svg>
