<?xml version="1.0" encoding="iso-8859-1"?>
<!-- Uploaded to: SVG Repo, www.svgrepo.com, Generator: SVG Repo Mixer Tools -->
<!DOCTYPE svg PUBLIC "-//W3C//DTD SVG 1.1//EN" "http://www.w3.org/Graphics/SVG/1.1/DTD/svg11.dtd">
<svg fill="#000000" version="1.1" id="Capa_1" xmlns="http://www.w3.org/2000/svg" xmlns:xlink="http://www.w3.org/1999/xlink" 
	 width="800px" height="800px" viewBox="0 0 527.669 527.669"
	 xml:space="preserve">
<g>
	<g>
		<circle cx="124.556" cy="206.246" r="21.713"/>
		<path d="M388.195,366.229c12.529,0,22.688,10.158,22.688,22.688s-10.159,22.689-22.688,22.689s-22.7-10.16-22.7-22.689
			S375.666,366.229,388.195,366.229z"/>
		<path d="M271.319,291.6c12.541,0,22.7,10.158,22.7,22.688c0,12.541-10.159,22.7-22.7,22.7c-12.535,0-22.694-10.159-22.694-22.7
			C248.625,301.758,258.784,291.6,271.319,291.6z"/>
		<path d="M364.315,314.312c8.396,0,15.192,6.796,15.192,15.192c0,8.395-6.796,15.191-15.192,15.191
			c-8.396,0-15.203-6.797-15.203-15.191C349.112,321.107,355.92,314.312,364.315,314.312z"/>
		<path d="M286.523,358.521c8.396,0,15.192,6.807,15.192,15.203c0,8.385-6.796,15.191-15.192,15.191s-15.204-6.807-15.204-15.191
			C271.319,365.328,278.127,358.521,286.523,358.521z"/>
		<path d="M169.979,147.294c8.396,0,15.198,6.808,15.198,15.198c0,8.396-6.802,15.198-15.198,15.198
			c-8.39,0-15.198-6.802-15.198-15.198C154.782,154.102,161.59,147.294,169.979,147.294z"/>
		<path d="M135.403,91.314c6.364,0,11.525,5.161,11.525,11.525c0,6.364-5.161,11.525-11.525,11.525
			c-6.37,0-11.531-5.161-11.531-11.525C123.873,96.475,129.034,91.314,135.403,91.314z"/>
		<path d="M211.807,239.677c6.37,0,11.531,5.161,11.531,11.531c0,6.364-5.161,11.525-11.531,11.525
			c-6.364,0-11.525-5.161-11.525-11.525C200.281,244.838,205.443,239.677,211.807,239.677z"/>
		<path d="M187.022,85.802c9.412,0,17.037,7.625,17.037,17.037c0,9.412-7.625,17.037-17.037,17.037
			c-9.412,0-17.043-7.625-17.043-17.037C169.979,93.427,177.61,85.802,187.022,85.802z"/>
		<path d="M158.454,268.642c6.364,0,11.525,5.156,11.525,11.525c0,6.364-5.161,11.525-11.525,11.525s-11.525-5.161-11.525-11.525
			C146.929,273.798,152.09,268.642,158.454,268.642z"/>
		<circle cx="214.475" cy="341.017" r="8.863"/>
		<path d="M419.747,335.844c4.893,0,8.863,3.971,8.863,8.852c0,4.904-3.971,8.863-8.863,8.863s-8.863-3.959-8.863-8.863
			C410.884,339.814,414.854,335.844,419.747,335.844z"/>
		<path d="M527.667,294.052c0.257-12.868-19.688-12.833-19.934,0c-0.14,6.972-0.816,14.958-4.391,21.054
			c-1.856,3.176-10.205,5.523-13.416,6.947c-2.021,0.889-4.111,1.601-6.178,2.395c-1.494-3.305-3.199-6.539-5.033-9.691
			c8.934-5.664,18.777-12.449,23.215-21.253c5.23-10.37,3.281-24.277,0.969-35.195c-2.662-12.576-21.883-7.246-19.221,5.295
			c1.309,6.23,3.234,15.501,0.258,21.398c-2.663,5.266-10.521,9.949-16.839,13.674c-4.239-4.846-8.933-9.26-14.013-13.16
			c6.189-5.22,12.168-10.977,15.963-17.714c5.838-10.369,2.09-25.876-1.297-36.491c-3.911-12.197-23.167-6.971-19.231,5.295
			c1.95,6.072,5.769,16.798,2.429,22.729c-3.27,5.798-9.891,10.965-15.822,15.46c-3.504-1.518-7.135-2.727-10.86-3.719
			c3.491-4.887,6.54-10.031,8.396-15.519c3.748-11.087-3.457-26.005-8.642-35.551c-6.142-11.298-23.342-1.244-17.212,10.06
			c2.954,5.447,7.625,13.843,6.645,20.196c-0.935,5.99-7.356,12.985-12.413,18.45c-1.237,0.058-2.44,0-3.689,0.128
			c-6.353,0.66-13.184,0.601-20.236,0.099c6.457-6.078,12.844-13.072,14.899-20.499c3.048-11.058-0.21-23.483-4.367-33.875
			c-4.729-11.776-24.008-6.644-19.221,5.302c2.219,5.523,7.321,16.774,4.589,22.548c-3.725,7.882-12.728,14.876-19.08,20.709
			c-0.7,0.648-1.027,1.366-1.494,2.049c-6.504-1.472-13.113-3.217-19.887-5.442c7.1-4.402,14.142-9.616,17.562-15.916
			c6.014-11,4.811-24.767,2.686-36.713c-2.254-12.635-21.45-7.269-19.221,5.301c0.795,4.438,3.118,16.453-0.104,20.622
			c-5.43,7.024-15.32,11.999-22.841,16.471c-0.584,0.345-0.887,0.823-1.343,1.244c-6.353-2.779-12.728-5.716-19.127-9.056
			c-0.549-0.286-1.016-0.584-1.553-0.881c7.228-2.301,14.223-5.261,19.454-9.996c8.629-7.8,10.871-22.712,12.109-33.7
			c1.447-12.71-18.299-12.6-19.898-0.14c0.105-0.683,0.21-1.542-0.047,0.14c-0.314,2.166-0.747,4.309-1.214,6.434
			c-0.935,4.332-2.032,9.756-5.057,13.178c-3.048,3.433-11.233,4.758-15.425,6.078c-3.702,1.156-7.456,2.207-11.21,3.153
			c-0.093,0.023-0.14,0.082-0.24,0.123c-9.674-8.705-15.676-18.251-18.986-28.772c9.96,2.021,20.435,3.603,30.261,1.904
			c11.351-1.974,20.996-15.677,26.787-24.622c7.007-10.825-10.252-20.809-17.2-10.054c-3.491,5.389-8.617,13.195-14.871,15.449
			c-7.018,2.511-19.822-1.892-26.986-3.445c-0.49-0.111-0.888,0.023-1.354-0.012c-0.187-5.657,0.123-11.589,0.753-17.761
			c11.216,1.582,23.343,3.24,34.249,0.479c11.351-2.89,19.956-16.546,25.188-26.151c6.143-11.286-11.07-21.352-17.212-10.054
			c-2.581,4.735-8.454,16.622-14.398,17.299c-5.628,0.648-11.49,0.064-17.113-0.368c-2.16-0.169-4.314-0.409-6.48-0.636
			c-0.21-0.023-0.94-0.117-1.729-0.21c0.905-8.979,0.858-17.673-0.076-25.987c11.123-2.043,25.147-4.221,33.899-11.455
			c8.711-7.199,12.424-20.47,14.304-31.219c2.219-12.564-17.001-17.936-19.22-5.295c-1.25,7.041-2.949,16.167-8.045,21.474
			c-2.809,2.931-11.274,3.801-15.099,4.782c-3.264,0.823-6.58,1.506-9.879,2.166c-2.487-8.063-5.908-15.583-10.211-22.443
			c8.466-4.221,17.446-9.365,22.239-16.529c6.329-9.447,6.458-22.922,5.395-33.887c-1.232-12.675-21.176-12.792-19.933,0
			c0.684,6.971,1.495,16.05-1.757,22.467c-1.938,3.83-9.757,6.901-13.283,8.933c-1.81,1.039-3.672,1.95-5.518,2.931
			c-10.638-10.451-23.996-18.28-39.719-22.612c-7.304-2.009-15.116-3.024-23.197-3.024c-40.093,0-85.722,26.163-92.739,69.94
			c-0.362,2.341-0.59,4.577-0.935,6.889c-5.43,2.032-11.794,3.813-15.642,2.032c-7.929-3.696-14.958-12.617-20.867-18.929
			c-8.775-9.423-22.834,4.7-14.083,14.083c7.555,8.122,17.837,20.832,28.936,23.821c6.107,1.646,12.588,1.291,18.929,0.012
			c-0.864,7.94-1.494,15.7-1.927,23.308c-5.669,2.353-16.33,7.076-21.859,4.507c-7.923-3.696-14.958-12.605-20.85-18.929
			c-8.781-9.423-22.84,4.706-14.1,14.094c7.555,8.122,17.842,20.832,28.936,23.833c8.828,2.382,18.415,0.73,27.19-2.154
			c-0.035,10.153,0.396,19.956,1.185,29.514c-5.512,2.248-16.693,7.351-22.374,4.724c-7.923-3.696-14.958-12.605-20.85-18.929
			c-8.77-9.435-22.828,4.688-14.088,14.071c7.555,8.11,17.842,20.832,28.936,23.821c10.048,2.703,21.048,0.193,30.758-3.445
			c1.313,8.612,2.89,17.055,4.974,25.17c-0.35,0.205-0.683,0.216-1.028,0.467c-4.916,3.562-14.386,11.07-20.762,9.838
			c-8.501-1.635-17.539-8.764-24.703-13.463c-10.771-7.077-20.744,10.188-10.054,17.206c9.359,6.16,20.23,13.709,31.376,15.857
			c10.615,2.032,22.239-4.005,31.172-10.101c2.581,7.362,5.605,14.456,8.88,21.427c-0.49,0.502-1.039,0.864-1.454,1.506
			c-3.492,5.453-9.809,15.309-16.862,15.483c-9.377,0.246-19.074-1.879-28.218-3.818c-12.547-2.639-17.877,16.582-5.301,19.221
			c12.01,2.534,26.069,6.084,38.324,4.111c9.686-1.554,17.673-9.133,23.845-17.189c5.307,8.875,11.25,17.445,17.866,25.678
			c-0.502,0.514-1.068,0.876-1.494,1.541c-3.492,5.454-9.809,15.31-16.862,15.484c-9.388,0.257-19.086-1.88-28.218-3.818
			c-12.535-2.639-17.877,16.57-5.301,19.221c12.01,2.521,26.069,6.096,38.324,4.11c11.35-1.821,20.353-11.911,26.857-21.322
			c7.83,8.255,16.336,16.231,25.637,23.892c-0.479,0.49-1.004,0.828-1.425,1.471c-3.491,5.441-9.803,15.285-16.855,15.484
			c-9.389,0.244-19.086-1.893-28.224-3.818c-12.542-2.651-17.872,16.569-5.296,19.232c12.004,2.521,26.069,6.083,38.324,4.109
			c12.629-2.02,22.338-14.27,28.936-24.475c9.96,7.251,20.458,14.07,31.376,20.435c-0.047,0.14-0.158,0.21-0.204,0.351
			c-1.781,5.185-5.454,16.138-10.883,18.31c-9.003,3.62-20.826,3.153-30.419,3.433c-12.828,0.386-12.862,20.318,0,19.934
			c11.958-0.362,29.14,0.49,39.726-5.781c9.575-5.697,15.291-16.277,19.25-26.623c8.647,4.484,17.469,8.688,26.425,12.541
			c0.059,6.353-0.193,16.465-4.735,19.688c-7.794,5.488-17.218,9.271-26.063,12.74c-11.829,4.658-6.685,23.949,5.296,19.232
			c12.074-4.741,25.549-9.716,35.417-18.346c6.504-5.709,8.886-15.997,9.651-25.479c11.596,4.332,23.284,8.186,34.938,11.361
			c0.012,0.094-0.012,0.152,0,0.233c1.226,6.411,3.211,17.562-1.775,22.561c-6.679,6.679-15.344,11.806-23.372,16.722
			c-10.942,6.702-0.934,23.949,10.06,17.212c10.101-6.2,25.643-14.06,31.527-24.744c4.484-8.139,5.127-17.714,4.239-27.009
			c11.549,2.476,22.98,4.367,34.132,5.512c3.014,5.932,6.844,14.584,3.865,20.084c-4.461,8.244-11.093,15.602-17.305,22.584
			c-8.514,9.575,5.534,23.717,14.105,14.105c8.723-9.82,18.59-20.551,23.249-32.976c2.499-6.645,0.946-14.854-1.763-22.467
			c1.67,0.046,3.374,0.14,5.032,0.14c6.995,0,13.814-0.42,20.458-1.027c4.157,5.955,8.922,13.92,6.236,20.225
			c-3.679,8.664-8.969,16.861-14.13,24.721c-7.1,10.777,10.171,20.75,17.212,10.054c6.691-10.159,14.83-21.743,17.388-33.794
			c1.716-8.092-1.354-16.92-5.594-24.662c45.144-11.443,74.337-46.089,74.337-90.66c0-6.399-0.841-12.903-2.324-19.373
			c9.996-3.468,21.171-7.672,27.873-15.051C525.985,319.694,527.433,305.297,527.667,294.052z M397.374,434.142
			c-6.633,0.7-13.593,1.04-20.692,1.04c-72.456,0-153.034-35.697-200.747-71.056C95.497,304.502,68.284,223.942,87.667,102.967
			c5.091-31.768,39.708-50.754,70.25-50.754c6.049,0,11.812,0.742,17.16,2.213c45.056,12.395,54.824,55.624,49.505,88.875
			c-6.58,41.039-5.179,87.216,55.087,118.604c42.773,22.292,85.944,33.139,120.076,29.589c38.464-4.063,70.086,37.367,70.086,71.324
			C469.818,409.889,430.782,430.662,397.374,434.142z"/>
	</g>
</g>
</svg>