<svg xmlns:svg="http://www.w3.org/2000/svg" xmlns="http://www.w3.org/2000/svg" width="100%" height="100%" viewBox="0 0 3010 3010">
<g>
<rect fill="white" stroke="white" x="0" y="0" width="3010" height="3010"/><text fill="black" class="seri" font-size="24" x="1385" y="25">Heatmap for input_dist.dat</text>
<text fill="black" class="seri" font-size="24" x="148" y="50">F3D0</text>
<text fill="black" class="seri" font-size="24" y="148" x="50">F3D0</text>
<text fill="black" class="seri" font-size="24" x="298" y="50">F3D1</text>
<text fill="black" class="seri" font-size="24" y="298" x="50">F3D1</text>
<text fill="black" class="seri" font-size="24" x="447" y="50">F3D141</text>
<text fill="black" class="seri" font-size="24" y="447" x="50">F3D141</text>
<text fill="black" class="seri" font-size="24" x="597" y="50">F3D142</text>
<text fill="black" class="seri" font-size="24" y="597" x="50">F3D142</text>
<text fill="black" class="seri" font-size="24" x="747" y="50">F3D143</text>
<text fill="black" class="seri" font-size="24" y="747" x="50">F3D143</text>
<text fill="black" class="seri" font-size="24" x="897" y="50">F3D144</text>
<text fill="black" class="seri" font-size="24" y="897" x="50">F3D144</text>
<text fill="black" class="seri" font-size="24" x="1047" y="50">F3D145</text>
<text fill="black" class="seri" font-size="24" y="1047" x="50">F3D145</text>
<text fill="black" class="seri" font-size="24" x="1197" y="50">F3D146</text>
<text fill="black" class="seri" font-size="24" y="1197" x="50">F3D146</text>
<text fill="black" class="seri" font-size="24" x="1347" y="50">F3D147</text>
<text fill="black" class="seri" font-size="24" y="1347" x="50">F3D147</text>
<text fill="black" class="seri" font-size="24" x="1497" y="50">F3D148</text>
<text fill="black" class="seri" font-size="24" y="1497" x="50">F3D148</text>
<text fill="black" class="seri" font-size="24" x="1647" y="50">F3D149</text>
<text fill="black" class="seri" font-size="24" y="1647" x="50">F3D149</text>
<text fill="black" class="seri" font-size="24" x="1797" y="50">F3D150</text>
<text fill="black" class="seri" font-size="24" y="1797" x="50">F3D150</text>
<text fill="black" class="seri" font-size="24" x="1948" y="50">F3D2</text>
<text fill="black" class="seri" font-size="24" y="1948" x="50">F3D2</text>
<text fill="black" class="seri" font-size="24" x="2098" y="50">F3D3</text>
<text fill="black" class="seri" font-size="24" y="2098" x="50">F3D3</text>
<text fill="black" class="seri" font-size="24" x="2248" y="50">F3D5</text>
<text fill="black" class="seri" font-size="24" y="2248" x="50">F3D5</text>
<text fill="black" class="seri" font-size="24" x="2398" y="50">F3D6</text>
<text fill="black" class="seri" font-size="24" y="2398" x="50">F3D6</text>
<text fill="black" class="seri" font-size="24" x="2548" y="50">F3D7</text>
<text fill="black" class="seri" font-size="24" y="2548" x="50">F3D7</text>
<text fill="black" class="seri" font-size="24" x="2698" y="50">F3D8</text>
<text fill="black" class="seri" font-size="24" y="2698" x="50">F3D8</text>
<text fill="black" class="seri" font-size="24" x="2848" y="50">F3D9</text>
<text fill="black" class="seri" font-size="24" y="2848" x="50">F3D9</text>
<rect fill="rgb(139,0,0)" stroke="rgb(139,0,0)" x="80" y="225" width="150" height="150"/>
<rect fill="rgb(209,0,0)" stroke="rgb(209,0,0)" x="80" y="375" width="150" height="150"/>
<rect fill="rgb(198,0,0)" stroke="rgb(198,0,0)" x="80" y="525" width="150" height="150"/>
<rect fill="rgb(217,0,0)" stroke="rgb(217,0,0)" x="80" y="675" width="150" height="150"/>
<rect fill="rgb(198,0,0)" stroke="rgb(198,0,0)" x="80" y="825" width="150" height="150"/>
<rect fill="rgb(200,0,0)" stroke="rgb(200,0,0)" x="80" y="975" width="150" height="150"/>
<rect fill="rgb(212,0,0)" stroke="rgb(212,0,0)" x="80" y="1125" width="150" height="150"/>
<rect fill="rgb(204,0,0)" stroke="rgb(204,0,0)" x="80" y="1275" width="150" height="150"/>
<rect fill="rgb(207,0,0)" stroke="rgb(207,0,0)" x="80" y="1425" width="150" height="150"/>
<rect fill="rgb(208,0,0)" stroke="rgb(208,0,0)" x="80" y="1575" width="150" height="150"/>
<rect fill="rgb(205,0,0)" stroke="rgb(205,0,0)" x="80" y="1725" width="150" height="150"/>
<rect fill="rgb(138,0,0)" stroke="rgb(138,0,0)" x="80" y="1875" width="150" height="150"/>
<rect fill="rgb(129,0,0)" stroke="rgb(129,0,0)" x="80" y="2025" width="150" height="150"/>
<rect fill="rgb(163,0,0)" stroke="rgb(163,0,0)" x="80" y="2175" width="150" height="150"/>
<rect fill="rgb(153,0,0)" stroke="rgb(153,0,0)" x="80" y="2325" width="150" height="150"/>
<rect fill="rgb(137,0,0)" stroke="rgb(137,0,0)" x="80" y="2475" width="150" height="150"/>
<rect fill="rgb(124,0,0)" stroke="rgb(124,0,0)" x="80" y="2625" width="150" height="150"/>
<rect fill="rgb(138,0,0)" stroke="rgb(138,0,0)" x="80" y="2775" width="150" height="150"/>
<rect fill="rgb(123,0,0)" stroke="rgb(123,0,0)" x="230" y="375" width="150" height="150"/>
<rect fill="rgb(125,0,0)" stroke="rgb(125,0,0)" x="230" y="525" width="150" height="150"/>
<rect fill="rgb(108,0,0)" stroke="rgb(108,0,0)" x="230" y="675" width="150" height="150"/>
<rect fill="rgb(101,0,0)" stroke="rgb(101,0,0)" x="230" y="825" width="150" height="150"/>
<rect fill="rgb(107,0,0)" stroke="rgb(107,0,0)" x="230" y="975" width="150" height="150"/>
<rect fill="rgb(115,0,0)" stroke="rgb(115,0,0)" x="230" y="1125" width="150" height="150"/>
<rect fill="rgb(107,0,0)" stroke="rgb(107,0,0)" x="230" y="1275" width="150" height="150"/>
<rect fill="rgb(108,0,0)" stroke="rgb(108,0,0)" x="230" y="1425" width="150" height="150"/>
<rect fill="rgb(128,0,0)" stroke="rgb(128,0,0)" x="230" y="1575" width="150" height="150"/>
<rect fill="rgb(116,0,0)" stroke="rgb(116,0,0)" x="230" y="1725" width="150" height="150"/>
<rect fill="rgb(162,0,0)" stroke="rgb(162,0,0)" x="230" y="1875" width="150" height="150"/>
<rect fill="rgb(142,0,0)" stroke="rgb(142,0,0)" x="230" y="2025" width="150" height="150"/>
<rect fill="rgb(189,0,0)" stroke="rgb(189,0,0)" x="230" y="2175" width="150" height="150"/>
<rect fill="rgb(157,0,0)" stroke="rgb(157,0,0)" x="230" y="2325" width="150" height="150"/>
<rect fill="rgb(130,0,0)" stroke="rgb(130,0,0)" x="230" y="2475" width="150" height="150"/>
<rect fill="rgb(147,0,0)" stroke="rgb(147,0,0)" x="230" y="2625" width="150" height="150"/>
<rect fill="rgb(165,0,0)" stroke="rgb(165,0,0)" x="230" y="2775" width="150" height="150"/>
<rect fill="rgb(220,0,0)" stroke="rgb(220,0,0)" x="380" y="525" width="150" height="150"/>
<rect fill="rgb(242,0,0)" stroke="rgb(242,0,0)" x="380" y="675" width="150" height="150"/>
<rect fill="rgb(223,0,0)" stroke="rgb(223,0,0)" x="380" y="825" width="150" height="150"/>
<rect fill="rgb(233,0,0)" stroke="rgb(233,0,0)" x="380" y="975" width="150" height="150"/>
<rect fill="rgb(235,0,0)" stroke="rgb(235,0,0)" x="380" y="1125" width="150" height="150"/>
<rect fill="rgb(223,0,0)" stroke="rgb(223,0,0)" x="380" y="1275" width="150" height="150"/>
<rect fill="rgb(246,0,0)" stroke="rgb(246,0,0)" x="380" y="1425" width="150" height="150"/>
<rect fill="rgb(253,0,0)" stroke="rgb(253,0,0)" x="380" y="1575" width="150" height="150"/>
<rect fill="rgb(231,0,0)" stroke="rgb(231,0,0)" x="380" y="1725" width="150" height="150"/>
<rect fill="rgb(146,0,0)" stroke="rgb(146,0,0)" x="380" y="1875" width="150" height="150"/>
<rect fill="rgb(161,0,0)" stroke="rgb(161,0,0)" x="380" y="2025" width="150" height="150"/>
<rect fill="rgb(174,0,0)" stroke="rgb(174,0,0)" x="380" y="2175" width="150" height="150"/>
<rect fill="rgb(169,0,0)" stroke="rgb(169,0,0)" x="380" y="2325" width="150" height="150"/>
<rect fill="rgb(171,0,0)" stroke="rgb(171,0,0)" x="380" y="2475" width="150" height="150"/>
<rect fill="rgb(143,0,0)" stroke="rgb(143,0,0)" x="380" y="2625" width="150" height="150"/>
<rect fill="rgb(157,0,0)" stroke="rgb(157,0,0)" x="380" y="2775" width="150" height="150"/>
<rect fill="rgb(233,0,0)" stroke="rgb(233,0,0)" x="530" y="675" width="150" height="150"/>
<rect fill="rgb(218,0,0)" stroke="rgb(218,0,0)" x="530" y="825" width="150" height="150"/>
<rect fill="rgb(235,0,0)" stroke="rgb(235,0,0)" x="530" y="975" width="150" height="150"/>
<rect fill="rgb(213,0,0)" stroke="rgb(213,0,0)" x="530" y="1125" width="150" height="150"/>
<rect fill="rgb(235,0,0)" stroke="rgb(235,0,0)" x="530" y="1275" width="150" height="150"/>
<rect fill="rgb(229,0,0)" stroke="rgb(229,0,0)" x="530" y="1425" width="150" height="150"/>
<rect fill="rgb(222,0,0)" stroke="rgb(222,0,0)" x="530" y="1575" width="150" height="150"/>
<rect fill="rgb(203,0,0)" stroke="rgb(203,0,0)" x="530" y="1725" width="150" height="150"/>
<rect fill="rgb(152,0,0)" stroke="rgb(152,0,0)" x="530" y="1875" width="150" height="150"/>
<rect fill="rgb(173,0,0)" stroke="rgb(173,0,0)" x="530" y="2025" width="150" height="150"/>
<rect fill="rgb(164,0,0)" stroke="rgb(164,0,0)" x="530" y="2175" width="150" height="150"/>
<rect fill="rgb(199,0,0)" stroke="rgb(199,0,0)" x="530" y="2325" width="150" height="150"/>
<rect fill="rgb(196,0,0)" stroke="rgb(196,0,0)" x="530" y="2475" width="150" height="150"/>
<rect fill="rgb(162,0,0)" stroke="rgb(162,0,0)" x="530" y="2625" width="150" height="150"/>
<rect fill="rgb(170,0,0)" stroke="rgb(170,0,0)" x="530" y="2775" width="150" height="150"/>
<rect fill="rgb(242,0,0)" stroke="rgb(242,0,0)" x="680" y="825" width="150" height="150"/>
<rect fill="rgb(245,0,0)" stroke="rgb(245,0,0)" x="680" y="975" width="150" height="150"/>
<rect fill="rgb(246,0,0)" stroke="rgb(246,0,0)" x="680" y="1125" width="150" height="150"/>
<rect fill="rgb(242,0,0)" stroke="rgb(242,0,0)" x="680" y="1275" width="150" height="150"/>
<rect fill="rgb(250,0,0)" stroke="rgb(250,0,0)" x="680" y="1425" width="150" height="150"/>
<rect fill="rgb(245,0,0)" stroke="rgb(245,0,0)" x="680" y="1575" width="150" height="150"/>
<rect fill="rgb(230,0,0)" stroke="rgb(230,0,0)" x="680" y="1725" width="150" height="150"/>
<rect fill="rgb(123,0,0)" stroke="rgb(123,0,0)" x="680" y="1875" width="150" height="150"/>
<rect fill="rgb(138,0,0)" stroke="rgb(138,0,0)" x="680" y="2025" width="150" height="150"/>
<rect fill="rgb(149,0,0)" stroke="rgb(149,0,0)" x="680" y="2175" width="150" height="150"/>
<rect fill="rgb(155,0,0)" stroke="rgb(155,0,0)" x="680" y="2325" width="150" height="150"/>
<rect fill="rgb(153,0,0)" stroke="rgb(153,0,0)" x="680" y="2475" width="150" height="150"/>
<rect fill="rgb(127,0,0)" stroke="rgb(127,0,0)" x="680" y="2625" width="150" height="150"/>
<rect fill="rgb(138,0,0)" stroke="rgb(138,0,0)" x="680" y="2775" width="150" height="150"/>
<rect fill="rgb(254,0,0)" stroke="rgb(254,0,0)" x="830" y="975" width="150" height="150"/>
<rect fill="rgb(237,0,0)" stroke="rgb(237,0,0)" x="830" y="1125" width="150" height="150"/>
<rect fill="rgb(249,0,0)" stroke="rgb(249,0,0)" x="830" y="1275" width="150" height="150"/>
<rect fill="rgb(240,0,0)" stroke="rgb(240,0,0)" x="830" y="1425" width="150" height="150"/>
<rect fill="rgb(229,0,0)" stroke="rgb(229,0,0)" x="830" y="1575" width="150" height="150"/>
<rect fill="rgb(203,0,0)" stroke="rgb(203,0,0)" x="830" y="1725" width="150" height="150"/>
<rect fill="rgb(122,0,0)" stroke="rgb(122,0,0)" x="830" y="1875" width="150" height="150"/>
<rect fill="rgb(139,0,0)" stroke="rgb(139,0,0)" x="830" y="2025" width="150" height="150"/>
<rect fill="rgb(137,0,0)" stroke="rgb(137,0,0)" x="830" y="2175" width="150" height="150"/>
<rect fill="rgb(145,0,0)" stroke="rgb(145,0,0)" x="830" y="2325" width="150" height="150"/>
<rect fill="rgb(145,0,0)" stroke="rgb(145,0,0)" x="830" y="2475" width="150" height="150"/>
<rect fill="rgb(105,0,0)" stroke="rgb(105,0,0)" x="830" y="2625" width="150" height="150"/>
<rect fill="rgb(115,0,0)" stroke="rgb(115,0,0)" x="830" y="2775" width="150" height="150"/>
<rect fill="rgb(238,0,0)" stroke="rgb(238,0,0)" x="980" y="1125" width="150" height="150"/>
<rect fill="rgb(250,0,0)" stroke="rgb(250,0,0)" x="980" y="1275" width="150" height="150"/>
<rect fill="rgb(243,0,0)" stroke="rgb(243,0,0)" x="980" y="1425" width="150" height="150"/>
<rect fill="rgb(235,0,0)" stroke="rgb(235,0,0)" x="980" y="1575" width="150" height="150"/>
<rect fill="rgb(214,0,0)" stroke="rgb(214,0,0)" x="980" y="1725" width="150" height="150"/>
<rect fill="rgb(135,0,0)" stroke="rgb(135,0,0)" x="980" y="1875" width="150" height="150"/>
<rect fill="rgb(158,0,0)" stroke="rgb(158,0,0)" x="980" y="2025" width="150" height="150"/>
<rect fill="rgb(151,0,0)" stroke="rgb(151,0,0)" x="980" y="2175" width="150" height="150"/>
<rect fill="rgb(167,0,0)" stroke="rgb(167,0,0)" x="980" y="2325" width="150" height="150"/>
<rect fill="rgb(174,0,0)" stroke="rgb(174,0,0)" x="980" y="2475" width="150" height="150"/>
<rect fill="rgb(130,0,0)" stroke="rgb(130,0,0)" x="980" y="2625" width="150" height="150"/>
<rect fill="rgb(140,0,0)" stroke="rgb(140,0,0)" x="980" y="2775" width="150" height="150"/>
<rect fill="rgb(232,0,0)" stroke="rgb(232,0,0)" x="1130" y="1275" width="150" height="150"/>
<rect fill="rgb(237,0,0)" stroke="rgb(237,0,0)" x="1130" y="1425" width="150" height="150"/>
<rect fill="rgb(241,0,0)" stroke="rgb(241,0,0)" x="1130" y="1575" width="150" height="150"/>
<rect fill="rgb(231,0,0)" stroke="rgb(231,0,0)" x="1130" y="1725" width="150" height="150"/>
<rect fill="rgb(114,0,0)" stroke="rgb(114,0,0)" x="1130" y="1875" width="150" height="150"/>
<rect fill="rgb(130,0,0)" stroke="rgb(130,0,0)" x="1130" y="2025" width="150" height="150"/>
<rect fill="rgb(152,0,0)" stroke="rgb(152,0,0)" x="1130" y="2175" width="150" height="150"/>
<rect fill="rgb(149,0,0)" stroke="rgb(149,0,0)" x="1130" y="2325" width="150" height="150"/>
<rect fill="rgb(145,0,0)" stroke="rgb(145,0,0)" x="1130" y="2475" width="150" height="150"/>
<rect fill="rgb(125,0,0)" stroke="rgb(125,0,0)" x="1130" y="2625" width="150" height="150"/>
<rect fill="rgb(135,0,0)" stroke="rgb(135,0,0)" x="1130" y="2775" width="150" height="150"/>
<rect fill="rgb(241,0,0)" stroke="rgb(241,0,0)" x="1280" y="1425" width="150" height="150"/>
<rect fill="rgb(228,0,0)" stroke="rgb(228,0,0)" x="1280" y="1575" width="150" height="150"/>
<rect fill="rgb(208,0,0)" stroke="rgb(208,0,0)" x="1280" y="1725" width="150" height="150"/>
<rect fill="rgb(132,0,0)" stroke="rgb(132,0,0)" x="1280" y="1875" width="150" height="150"/>
<rect fill="rgb(147,0,0)" stroke="rgb(147,0,0)" x="1280" y="2025" width="150" height="150"/>
<rect fill="rgb(141,0,0)" stroke="rgb(141,0,0)" x="1280" y="2175" width="150" height="150"/>
<rect fill="rgb(159,0,0)" stroke="rgb(159,0,0)" x="1280" y="2325" width="150" height="150"/>
<rect fill="rgb(156,0,0)" stroke="rgb(156,0,0)" x="1280" y="2475" width="150" height="150"/>
<rect fill="rgb(113,0,0)" stroke="rgb(113,0,0)" x="1280" y="2625" width="150" height="150"/>
<rect fill="rgb(122,0,0)" stroke="rgb(122,0,0)" x="1280" y="2775" width="150" height="150"/>
<rect fill="rgb(245,0,0)" stroke="rgb(245,0,0)" x="1430" y="1575" width="150" height="150"/>
<rect fill="rgb(214,0,0)" stroke="rgb(214,0,0)" x="1430" y="1725" width="150" height="150"/>
<rect fill="rgb(125,0,0)" stroke="rgb(125,0,0)" x="1430" y="1875" width="150" height="150"/>
<rect fill="rgb(144,0,0)" stroke="rgb(144,0,0)" x="1430" y="2025" width="150" height="150"/>
<rect fill="rgb(148,0,0)" stroke="rgb(148,0,0)" x="1430" y="2175" width="150" height="150"/>
<rect fill="rgb(147,0,0)" stroke="rgb(147,0,0)" x="1430" y="2325" width="150" height="150"/>
<rect fill="rgb(151,0,0)" stroke="rgb(151,0,0)" x="1430" y="2475" width="150" height="150"/>
<rect fill="rgb(126,0,0)" stroke="rgb(126,0,0)" x="1430" y="2625" width="150" height="150"/>
<rect fill="rgb(136,0,0)" stroke="rgb(136,0,0)" x="1430" y="2775" width="150" height="150"/>
<rect fill="rgb(236,0,0)" stroke="rgb(236,0,0)" x="1580" y="1725" width="150" height="150"/>
<rect fill="rgb(140,0,0)" stroke="rgb(140,0,0)" x="1580" y="1875" width="150" height="150"/>
<rect fill="rgb(159,0,0)" stroke="rgb(159,0,0)" x="1580" y="2025" width="150" height="150"/>
<rect fill="rgb(176,0,0)" stroke="rgb(176,0,0)" x="1580" y="2175" width="150" height="150"/>
<rect fill="rgb(169,0,0)" stroke="rgb(169,0,0)" x="1580" y="2325" width="150" height="150"/>
<rect fill="rgb(167,0,0)" stroke="rgb(167,0,0)" x="1580" y="2475" width="150" height="150"/>
<rect fill="rgb(146,0,0)" stroke="rgb(146,0,0)" x="1580" y="2625" width="150" height="150"/>
<rect fill="rgb(158,0,0)" stroke="rgb(158,0,0)" x="1580" y="2775" width="150" height="150"/>
<rect fill="rgb(125,0,0)" stroke="rgb(125,0,0)" x="1730" y="1875" width="150" height="150"/>
<rect fill="rgb(140,0,0)" stroke="rgb(140,0,0)" x="1730" y="2025" width="150" height="150"/>
<rect fill="rgb(177,0,0)" stroke="rgb(177,0,0)" x="1730" y="2175" width="150" height="150"/>
<rect fill="rgb(170,0,0)" stroke="rgb(170,0,0)" x="1730" y="2325" width="150" height="150"/>
<rect fill="rgb(166,0,0)" stroke="rgb(166,0,0)" x="1730" y="2475" width="150" height="150"/>
<rect fill="rgb(144,0,0)" stroke="rgb(144,0,0)" x="1730" y="2625" width="150" height="150"/>
<rect fill="rgb(157,0,0)" stroke="rgb(157,0,0)" x="1730" y="2775" width="150" height="150"/>
<rect fill="rgb(217,0,0)" stroke="rgb(217,0,0)" x="1880" y="2025" width="150" height="150"/>
<rect fill="rgb(181,0,0)" stroke="rgb(181,0,0)" x="1880" y="2175" width="150" height="150"/>
<rect fill="rgb(211,0,0)" stroke="rgb(211,0,0)" x="1880" y="2325" width="150" height="150"/>
<rect fill="rgb(193,0,0)" stroke="rgb(193,0,0)" x="1880" y="2475" width="150" height="150"/>
<rect fill="rgb(136,0,0)" stroke="rgb(136,0,0)" x="1880" y="2625" width="150" height="150"/>
<rect fill="rgb(164,0,0)" stroke="rgb(164,0,0)" x="1880" y="2775" width="150" height="150"/>
<rect fill="rgb(182,0,0)" stroke="rgb(182,0,0)" x="2030" y="2175" width="150" height="150"/>
<rect fill="rgb(218,0,0)" stroke="rgb(218,0,0)" x="2030" y="2325" width="150" height="150"/>
<rect fill="rgb(226,0,0)" stroke="rgb(226,0,0)" x="2030" y="2475" width="150" height="150"/>
<rect fill="rgb(175,0,0)" stroke="rgb(175,0,0)" x="2030" y="2625" width="150" height="150"/>
<rect fill="rgb(189,0,0)" stroke="rgb(189,0,0)" x="2030" y="2775" width="150" height="150"/>
<rect fill="rgb(202,0,0)" stroke="rgb(202,0,0)" x="2180" y="2325" width="150" height="150"/>
<rect fill="rgb(187,0,0)" stroke="rgb(187,0,0)" x="2180" y="2475" width="150" height="150"/>
<rect fill="rgb(191,0,0)" stroke="rgb(191,0,0)" x="2180" y="2625" width="150" height="150"/>
<rect fill="rgb(213,0,0)" stroke="rgb(213,0,0)" x="2180" y="2775" width="150" height="150"/>
<rect fill="rgb(239,0,0)" stroke="rgb(239,0,0)" x="2330" y="2475" width="150" height="150"/>
<rect fill="rgb(195,0,0)" stroke="rgb(195,0,0)" x="2330" y="2625" width="150" height="150"/>
<rect fill="rgb(214,0,0)" stroke="rgb(214,0,0)" x="2330" y="2775" width="150" height="150"/>
<rect fill="rgb(207,0,0)" stroke="rgb(207,0,0)" x="2480" y="2625" width="150" height="150"/>
<rect fill="rgb(215,0,0)" stroke="rgb(215,0,0)" x="2480" y="2775" width="150" height="150"/>
<rect fill="rgb(249,0,0)" stroke="rgb(249,0,0)" x="2630" y="2775" width="150" height="150"/>
<rect fill="#10000" stroke="#10000" x="10" y="2970" width="3" height="30"/>
<rect fill="#20000" stroke="#20000" x="13" y="2970" width="3" height="30"/>
<rect fill="#30000" stroke="#30000" x="16" y="2970" width="3" height="30"/>
<rect fill="#40000" stroke="#40000" x="19" y="2970" width="3" height="30"/>
<rect fill="#50000" stroke="#50000" x="22" y="2970" width="3" height="30"/>
<rect fill="#60000" stroke="#60000" x="25" y="2970" width="3" height="30"/>
<rect fill="#70000" stroke="#70000" x="28" y="2970" width="3" height="30"/>
<rect fill="#80000" stroke="#80000" x="31" y="2970" width="3" height="30"/>
<rect fill="#90000" stroke="#90000" x="34" y="2970" width="3" height="30"/>
<rect fill="#a0000" stroke="#a0000" x="37" y="2970" width="3" height="30"/>
<rect fill="#b0000" stroke="#b0000" x="40" y="2970" width="3" height="30"/>
<rect fill="#c0000" stroke="#c0000" x="43" y="2970" width="3" height="30"/>
<rect fill="#d0000" stroke="#d0000" x="46" y="2970" width="3" height="30"/>
<rect fill="#e0000" stroke="#e0000" x="49" y="2970" width="3" height="30"/>
<rect fill="#f0000" stroke="#f0000" x="52" y="2970" width="3" height="30"/>
<rect fill="#100000" stroke="#100000" x="55" y="2970" width="3" height="30"/>
<rect fill="#110000" stroke="#110000" x="58" y="2970" width="3" height="30"/>
<rect fill="#120000" stroke="#120000" x="61" y="2970" width="3" height="30"/>
<rect fill="#130000" stroke="#130000" x="64" y="2970" width="3" height="30"/>
<rect fill="#140000" stroke="#140000" x="67" y="2970" width="3" height="30"/>
<rect fill="#150000" stroke="#150000" x="70" y="2970" width="3" height="30"/>
<rect fill="#160000" stroke="#160000" x="73" y="2970" width="3" height="30"/>
<rect fill="#170000" stroke="#170000" x="76" y="2970" width="3" height="30"/>
<rect fill="#180000" stroke="#180000" x="79" y="2970" width="3" height="30"/>
<rect fill="#190000" stroke="#190000" x="82" y="2970" width="3" height="30"/>
<rect fill="#1a0000" stroke="#1a0000" x="85" y="2970" width="3" height="30"/>
<rect fill="#1b0000" stroke="#1b0000" x="88" y="2970" width="3" height="30"/>
<rect fill="#1c0000" stroke="#1c0000" x="91" y="2970" width="3" height="30"/>
<rect fill="#1d0000" stroke="#1d0000" x="94" y="2970" width="3" height="30"/>
<rect fill="#1e0000" stroke="#1e0000" x="97" y="2970" width="3" height="30"/>
<rect fill="#1f0000" stroke="#1f0000" x="100" y="2970" width="3" height="30"/>
<rect fill="#200000" stroke="#200000" x="103" y="2970" width="3" height="30"/>
<rect fill="#210000" stroke="#210000" x="106" y="2970" width="3" height="30"/>
<rect fill="#220000" stroke="#220000" x="109" y="2970" width="3" height="30"/>
<rect fill="#230000" stroke="#230000" x="112" y="2970" width="3" height="30"/>
<rect fill="#240000" stroke="#240000" x="115" y="2970" width="3" height="30"/>
<rect fill="#250000" stroke="#250000" x="118" y="2970" width="3" height="30"/>
<rect fill="#260000" stroke="#260000" x="121" y="2970" width="3" height="30"/>
<rect fill="#270000" stroke="#270000" x="124" y="2970" width="3" height="30"/>
<rect fill="#280000" stroke="#280000" x="127" y="2970" width="3" height="30"/>
<rect fill="#290000" stroke="#290000" x="130" y="2970" width="3" height="30"/>
<rect fill="#2a0000" stroke="#2a0000" x="133" y="2970" width="3" height="30"/>
<rect fill="#2b0000" stroke="#2b0000" x="136" y="2970" width="3" height="30"/>
<rect fill="#2c0000" stroke="#2c0000" x="139" y="2970" width="3" height="30"/>
<rect fill="#2d0000" stroke="#2d0000" x="142" y="2970" width="3" height="30"/>
<rect fill="#2e0000" stroke="#2e0000" x="145" y="2970" width="3" height="30"/>
<rect fill="#2f0000" stroke="#2f0000" x="148" y="2970" width="3" height="30"/>
<rect fill="#300000" stroke="#300000" x="151" y="2970" width="3" height="30"/>
<rect fill="#310000" stroke="#310000" x="154" y="2970" width="3" height="30"/>
<rect fill="#320000" stroke="#320000" x="157" y="2970" width="3" height="30"/>
<rect fill="#330000" stroke="#330000" x="160" y="2970" width="3" height="30"/>
<rect fill="#340000" stroke="#340000" x="163" y="2970" width="3" height="30"/>
<rect fill="#350000" stroke="#350000" x="166" y="2970" width="3" height="30"/>
<rect fill="#360000" stroke="#360000" x="169" y="2970" width="3" height="30"/>
<rect fill="#370000" stroke="#370000" x="172" y="2970" width="3" height="30"/>
<rect fill="#380000" stroke="#380000" x="175" y="2970" width="3" height="30"/>
<rect fill="#390000" stroke="#390000" x="178" y="2970" width="3" height="30"/>
<rect fill="#3a0000" stroke="#3a0000" x="181" y="2970" width="3" height="30"/>
<rect fill="#3b0000" stroke="#3b0000" x="184" y="2970" width="3" height="30"/>
<rect fill="#3c0000" stroke="#3c0000" x="187" y="2970" width="3" height="30"/>
<rect fill="#3d0000" stroke="#3d0000" x="190" y="2970" width="3" height="30"/>
<rect fill="#3e0000" stroke="#3e0000" x="193" y="2970" width="3" height="30"/>
<rect fill="#3f0000" stroke="#3f0000" x="196" y="2970" width="3" height="30"/>
<rect fill="#400000" stroke="#400000" x="199" y="2970" width="3" height="30"/>
<rect fill="#410000" stroke="#410000" x="202" y="2970" width="3" height="30"/>
<rect fill="#420000" stroke="#420000" x="205" y="2970" width="3" height="30"/>
<rect fill="#430000" stroke="#430000" x="208" y="2970" width="3" height="30"/>
<rect fill="#440000" stroke="#440000" x="211" y="2970" width="3" height="30"/>
<rect fill="#450000" stroke="#450000" x="214" y="2970" width="3" height="30"/>
<rect fill="#460000" stroke="#460000" x="217" y="2970" width="3" height="30"/>
<rect fill="#470000" stroke="#470000" x="220" y="2970" width="3" height="30"/>
<rect fill="#480000" stroke="#480000" x="223" y="2970" width="3" height="30"/>
<rect fill="#490000" stroke="#490000" x="226" y="2970" width="3" height="30"/>
<rect fill="#4a0000" stroke="#4a0000" x="229" y="2970" width="3" height="30"/>
<rect fill="#4b0000" stroke="#4b0000" x="232" y="2970" width="3" height="30"/>
<rect fill="#4c0000" stroke="#4c0000" x="235" y="2970" width="3" height="30"/>
<rect fill="#4d0000" stroke="#4d0000" x="238" y="2970" width="3" height="30"/>
<rect fill="#4e0000" stroke="#4e0000" x="241" y="2970" width="3" height="30"/>
<rect fill="#4f0000" stroke="#4f0000" x="244" y="2970" width="3" height="30"/>
<rect fill="#500000" stroke="#500000" x="247" y="2970" width="3" height="30"/>
<rect fill="#510000" stroke="#510000" x="250" y="2970" width="3" height="30"/>
<rect fill="#520000" stroke="#520000" x="253" y="2970" width="3" height="30"/>
<rect fill="#530000" stroke="#530000" x="256" y="2970" width="3" height="30"/>
<rect fill="#540000" stroke="#540000" x="259" y="2970" width="3" height="30"/>
<rect fill="#550000" stroke="#550000" x="262" y="2970" width="3" height="30"/>
<rect fill="#560000" stroke="#560000" x="265" y="2970" width="3" height="30"/>
<rect fill="#570000" stroke="#570000" x="268" y="2970" width="3" height="30"/>
<rect fill="#580000" stroke="#580000" x="271" y="2970" width="3" height="30"/>
<rect fill="#590000" stroke="#590000" x="274" y="2970" width="3" height="30"/>
<rect fill="#5a0000" stroke="#5a0000" x="277" y="2970" width="3" height="30"/>
<rect fill="#5b0000" stroke="#5b0000" x="280" y="2970" width="3" height="30"/>
<rect fill="#5c0000" stroke="#5c0000" x="283" y="2970" width="3" height="30"/>
<rect fill="#5d0000" stroke="#5d0000" x="286" y="2970" width="3" height="30"/>
<rect fill="#5e0000" stroke="#5e0000" x="289" y="2970" width="3" height="30"/>
<rect fill="#5f0000" stroke="#5f0000" x="292" y="2970" width="3" height="30"/>
<rect fill="#600000" stroke="#600000" x="295" y="2970" width="3" height="30"/>
<rect fill="#610000" stroke="#610000" x="298" y="2970" width="3" height="30"/>
<rect fill="#620000" stroke="#620000" x="301" y="2970" width="3" height="30"/>
<rect fill="#630000" stroke="#630000" x="304" y="2970" width="3" height="30"/>
<rect fill="#640000" stroke="#640000" x="307" y="2970" width="3" height="30"/>
<rect fill="#650000" stroke="#650000" x="310" y="2970" width="3" height="30"/>
<rect fill="#660000" stroke="#660000" x="313" y="2970" width="3" height="30"/>
<rect fill="#670000" stroke="#670000" x="316" y="2970" width="3" height="30"/>
<rect fill="#680000" stroke="#680000" x="319" y="2970" width="3" height="30"/>
<rect fill="#690000" stroke="#690000" x="322" y="2970" width="3" height="30"/>
<rect fill="#6a0000" stroke="#6a0000" x="325" y="2970" width="3" height="30"/>
<rect fill="#6b0000" stroke="#6b0000" x="328" y="2970" width="3" height="30"/>
<rect fill="#6c0000" stroke="#6c0000" x="331" y="2970" width="3" height="30"/>
<rect fill="#6d0000" stroke="#6d0000" x="334" y="2970" width="3" height="30"/>
<rect fill="#6e0000" stroke="#6e0000" x="337" y="2970" width="3" height="30"/>
<rect fill="#6f0000" stroke="#6f0000" x="340" y="2970" width="3" height="30"/>
<rect fill="#700000" stroke="#700000" x="343" y="2970" width="3" height="30"/>
<rect fill="#710000" stroke="#710000" x="346" y="2970" width="3" height="30"/>
<rect fill="#720000" stroke="#720000" x="349" y="2970" width="3" height="30"/>
<rect fill="#730000" stroke="#730000" x="352" y="2970" width="3" height="30"/>
<rect fill="#740000" stroke="#740000" x="355" y="2970" width="3" height="30"/>
<rect fill="#750000" stroke="#750000" x="358" y="2970" width="3" height="30"/>
<rect fill="#760000" stroke="#760000" x="361" y="2970" width="3" height="30"/>
<rect fill="#770000" stroke="#770000" x="364" y="2970" width="3" height="30"/>
<rect fill="#780000" stroke="#780000" x="367" y="2970" width="3" height="30"/>
<rect fill="#790000" stroke="#790000" x="370" y="2970" width="3" height="30"/>
<rect fill="#7a0000" stroke="#7a0000" x="373" y="2970" width="3" height="30"/>
<rect fill="#7b0000" stroke="#7b0000" x="376" y="2970" width="3" height="30"/>
<rect fill="#7c0000" stroke="#7c0000" x="379" y="2970" width="3" height="30"/>
<rect fill="#7d0000" stroke="#7d0000" x="382" y="2970" width="3" height="30"/>
<rect fill="#7e0000" stroke="#7e0000" x="385" y="2970" width="3" height="30"/>
<rect fill="#7f0000" stroke="#7f0000" x="388" y="2970" width="3" height="30"/>
<rect fill="#800000" stroke="#800000" x="391" y="2970" width="3" height="30"/>
<rect fill="#810000" stroke="#810000" x="394" y="2970" width="3" height="30"/>
<rect fill="#820000" stroke="#820000" x="397" y="2970" width="3" height="30"/>
<rect fill="#830000" stroke="#830000" x="400" y="2970" width="3" height="30"/>
<rect fill="#840000" stroke="#840000" x="403" y="2970" width="3" height="30"/>
<rect fill="#850000" stroke="#850000" x="406" y="2970" width="3" height="30"/>
<rect fill="#860000" stroke="#860000" x="409" y="2970" width="3" height="30"/>
<rect fill="#870000" stroke="#870000" x="412" y="2970" width="3" height="30"/>
<rect fill="#880000" stroke="#880000" x="415" y="2970" width="3" height="30"/>
<rect fill="#890000" stroke="#890000" x="418" y="2970" width="3" height="30"/>
<rect fill="#8a0000" stroke="#8a0000" x="421" y="2970" width="3" height="30"/>
<rect fill="#8b0000" stroke="#8b0000" x="424" y="2970" width="3" height="30"/>
<rect fill="#8c0000" stroke="#8c0000" x="427" y="2970" width="3" height="30"/>
<rect fill="#8d0000" stroke="#8d0000" x="430" y="2970" width="3" height="30"/>
<rect fill="#8e0000" stroke="#8e0000" x="433" y="2970" width="3" height="30"/>
<rect fill="#8f0000" stroke="#8f0000" x="436" y="2970" width="3" height="30"/>
<rect fill="#900000" stroke="#900000" x="439" y="2970" width="3" height="30"/>
<rect fill="#910000" stroke="#910000" x="442" y="2970" width="3" height="30"/>
<rect fill="#920000" stroke="#920000" x="445" y="2970" width="3" height="30"/>
<rect fill="#930000" stroke="#930000" x="448" y="2970" width="3" height="30"/>
<rect fill="#940000" stroke="#940000" x="451" y="2970" width="3" height="30"/>
<rect fill="#950000" stroke="#950000" x="454" y="2970" width="3" height="30"/>
<rect fill="#960000" stroke="#960000" x="457" y="2970" width="3" height="30"/>
<rect fill="#970000" stroke="#970000" x="460" y="2970" width="3" height="30"/>
<rect fill="#980000" stroke="#980000" x="463" y="2970" width="3" height="30"/>
<rect fill="#990000" stroke="#990000" x="466" y="2970" width="3" height="30"/>
<rect fill="#9a0000" stroke="#9a0000" x="469" y="2970" width="3" height="30"/>
<rect fill="#9b0000" stroke="#9b0000" x="472" y="2970" width="3" height="30"/>
<rect fill="#9c0000" stroke="#9c0000" x="475" y="2970" width="3" height="30"/>
<rect fill="#9d0000" stroke="#9d0000" x="478" y="2970" width="3" height="30"/>
<rect fill="#9e0000" stroke="#9e0000" x="481" y="2970" width="3" height="30"/>
<rect fill="#9f0000" stroke="#9f0000" x="484" y="2970" width="3" height="30"/>
<rect fill="#a00000" stroke="#a00000" x="487" y="2970" width="3" height="30"/>
<rect fill="#a10000" stroke="#a10000" x="490" y="2970" width="3" height="30"/>
<rect fill="#a20000" stroke="#a20000" x="493" y="2970" width="3" height="30"/>
<rect fill="#a30000" stroke="#a30000" x="496" y="2970" width="3" height="30"/>
<rect fill="#a40000" stroke="#a40000" x="499" y="2970" width="3" height="30"/>
<rect fill="#a50000" stroke="#a50000" x="502" y="2970" width="3" height="30"/>
<rect fill="#a60000" stroke="#a60000" x="505" y="2970" width="3" height="30"/>
<rect fill="#a70000" stroke="#a70000" x="508" y="2970" width="3" height="30"/>
<rect fill="#a80000" stroke="#a80000" x="511" y="2970" width="3" height="30"/>
<rect fill="#a90000" stroke="#a90000" x="514" y="2970" width="3" height="30"/>
<rect fill="#aa0000" stroke="#aa0000" x="517" y="2970" width="3" height="30"/>
<rect fill="#ab0000" stroke="#ab0000" x="520" y="2970" width="3" height="30"/>
<rect fill="#ac0000" stroke="#ac0000" x="523" y="2970" width="3" height="30"/>
<rect fill="#ad0000" stroke="#ad0000" x="526" y="2970" width="3" height="30"/>
<rect fill="#ae0000" stroke="#ae0000" x="529" y="2970" width="3" height="30"/>
<rect fill="#af0000" stroke="#af0000" x="532" y="2970" width="3" height="30"/>
<rect fill="#b00000" stroke="#b00000" x="535" y="2970" width="3" height="30"/>
<rect fill="#b10000" stroke="#b10000" x="538" y="2970" width="3" height="30"/>
<rect fill="#b20000" stroke="#b20000" x="541" y="2970" width="3" height="30"/>
<rect fill="#b30000" stroke="#b30000" x="544" y="2970" width="3" height="30"/>
<rect fill="#b40000" stroke="#b40000" x="547" y="2970" width="3" height="30"/>
<rect fill="#b50000" stroke="#b50000" x="550" y="2970" width="3" height="30"/>
<rect fill="#b60000" stroke="#b60000" x="553" y="2970" width="3" height="30"/>
<rect fill="#b70000" stroke="#b70000" x="556" y="2970" width="3" height="30"/>
<rect fill="#b80000" stroke="#b80000" x="559" y="2970" width="3" height="30"/>
<rect fill="#b90000" stroke="#b90000" x="562" y="2970" width="3" height="30"/>
<rect fill="#ba0000" stroke="#ba0000" x="565" y="2970" width="3" height="30"/>
<rect fill="#bb0000" stroke="#bb0000" x="568" y="2970" width="3" height="30"/>
<rect fill="#bc0000" stroke="#bc0000" x="571" y="2970" width="3" height="30"/>
<rect fill="#bd0000" stroke="#bd0000" x="574" y="2970" width="3" height="30"/>
<rect fill="#be0000" stroke="#be0000" x="577" y="2970" width="3" height="30"/>
<rect fill="#bf0000" stroke="#bf0000" x="580" y="2970" width="3" height="30"/>
<rect fill="#c00000" stroke="#c00000" x="583" y="2970" width="3" height="30"/>
<rect fill="#c10000" stroke="#c10000" x="586" y="2970" width="3" height="30"/>
<rect fill="#c20000" stroke="#c20000" x="589" y="2970" width="3" height="30"/>
<rect fill="#c30000" stroke="#c30000" x="592" y="2970" width="3" height="30"/>
<rect fill="#c40000" stroke="#c40000" x="595" y="2970" width="3" height="30"/>
<rect fill="#c50000" stroke="#c50000" x="598" y="2970" width="3" height="30"/>
<rect fill="#c60000" stroke="#c60000" x="601" y="2970" width="3" height="30"/>
<rect fill="#c70000" stroke="#c70000" x="604" y="2970" width="3" height="30"/>
<rect fill="#c80000" stroke="#c80000" x="607" y="2970" width="3" height="30"/>
<rect fill="#c90000" stroke="#c90000" x="610" y="2970" width="3" height="30"/>
<rect fill="#ca0000" stroke="#ca0000" x="613" y="2970" width="3" height="30"/>
<rect fill="#cb0000" stroke="#cb0000" x="616" y="2970" width="3" height="30"/>
<rect fill="#cc0000" stroke="#cc0000" x="619" y="2970" width="3" height="30"/>
<rect fill="#cd0000" stroke="#cd0000" x="622" y="2970" width="3" height="30"/>
<rect fill="#ce0000" stroke="#ce0000" x="625" y="2970" width="3" height="30"/>
<rect fill="#cf0000" stroke="#cf0000" x="628" y="2970" width="3" height="30"/>
<rect fill="#d00000" stroke="#d00000" x="631" y="2970" width="3" height="30"/>
<rect fill="#d10000" stroke="#d10000" x="634" y="2970" width="3" height="30"/>
<rect fill="#d20000" stroke="#d20000" x="637" y="2970" width="3" height="30"/>
<rect fill="#d30000" stroke="#d30000" x="640" y="2970" width="3" height="30"/>
<rect fill="#d40000" stroke="#d40000" x="643" y="2970" width="3" height="30"/>
<rect fill="#d50000" stroke="#d50000" x="646" y="2970" width="3" height="30"/>
<rect fill="#d60000" stroke="#d60000" x="649" y="2970" width="3" height="30"/>
<rect fill="#d70000" stroke="#d70000" x="652" y="2970" width="3" height="30"/>
<rect fill="#d80000" stroke="#d80000" x="655" y="2970" width="3" height="30"/>
<rect fill="#d90000" stroke="#d90000" x="658" y="2970" width="3" height="30"/>
<rect fill="#da0000" stroke="#da0000" x="661" y="2970" width="3" height="30"/>
<rect fill="#db0000" stroke="#db0000" x="664" y="2970" width="3" height="30"/>
<rect fill="#dc0000" stroke="#dc0000" x="667" y="2970" width="3" height="30"/>
<rect fill="#dd0000" stroke="#dd0000" x="670" y="2970" width="3" height="30"/>
<rect fill="#de0000" stroke="#de0000" x="673" y="2970" width="3" height="30"/>
<rect fill="#df0000" stroke="#df0000" x="676" y="2970" width="3" height="30"/>
<rect fill="#e00000" stroke="#e00000" x="679" y="2970" width="3" height="30"/>
<rect fill="#e10000" stroke="#e10000" x="682" y="2970" width="3" height="30"/>
<rect fill="#e20000" stroke="#e20000" x="685" y="2970" width="3" height="30"/>
<rect fill="#e30000" stroke="#e30000" x="688" y="2970" width="3" height="30"/>
<rect fill="#e40000" stroke="#e40000" x="691" y="2970" width="3" height="30"/>
<rect fill="#e50000" stroke="#e50000" x="694" y="2970" width="3" height="30"/>
<rect fill="#e60000" stroke="#e60000" x="697" y="2970" width="3" height="30"/>
<rect fill="#e70000" stroke="#e70000" x="700" y="2970" width="3" height="30"/>
<rect fill="#e80000" stroke="#e80000" x="703" y="2970" width="3" height="30"/>
<rect fill="#e90000" stroke="#e90000" x="706" y="2970" width="3" height="30"/>
<rect fill="#ea0000" stroke="#ea0000" x="709" y="2970" width="3" height="30"/>
<rect fill="#eb0000" stroke="#eb0000" x="712" y="2970" width="3" height="30"/>
<rect fill="#ec0000" stroke="#ec0000" x="715" y="2970" width="3" height="30"/>
<rect fill="#ed0000" stroke="#ed0000" x="718" y="2970" width="3" height="30"/>
<rect fill="#ee0000" stroke="#ee0000" x="721" y="2970" width="3" height="30"/>
<rect fill="#ef0000" stroke="#ef0000" x="724" y="2970" width="3" height="30"/>
<rect fill="#f00000" stroke="#f00000" x="727" y="2970" width="3" height="30"/>
<rect fill="#f10000" stroke="#f10000" x="730" y="2970" width="3" height="30"/>
<rect fill="#f20000" stroke="#f20000" x="733" y="2970" width="3" height="30"/>
<rect fill="#f30000" stroke="#f30000" x="736" y="2970" width="3" height="30"/>
<rect fill="#f40000" stroke="#f40000" x="739" y="2970" width="3" height="30"/>
<rect fill="#f50000" stroke="#f50000" x="742" y="2970" width="3" height="30"/>
<rect fill="#f60000" stroke="#f60000" x="745" y="2970" width="3" height="30"/>
<rect fill="#f70000" stroke="#f70000" x="748" y="2970" width="3" height="30"/>
<rect fill="#f80000" stroke="#f80000" x="751" y="2970" width="3" height="30"/>
<rect fill="#f90000" stroke="#f90000" x="754" y="2970" width="3" height="30"/>
<rect fill="#fa0000" stroke="#fa0000" x="757" y="2970" width="3" height="30"/>
<rect fill="#fb0000" stroke="#fb0000" x="760" y="2970" width="3" height="30"/>
<rect fill="#fc0000" stroke="#fc0000" x="763" y="2970" width="3" height="30"/>
<rect fill="#fd0000" stroke="#fd0000" x="766" y="2970" width="3" height="30"/>
<rect fill="#fe0000" stroke="#fe0000" x="769" y="2970" width="3" height="30"/>
<text fill="black" class="seri" font-size="24" x="0" y="2967">0.0</text>
<text fill="black" class="seri" font-size="24" x="153" y="2967">0.2</text>
<text fill="black" class="seri" font-size="24" x="306" y="2967">0.4</text>
<text fill="black" class="seri" font-size="24" x="459" y="2967">0.6</text>
<text fill="black" class="seri" font-size="24" x="612" y="2967">0.8</text>
<text fill="black" class="seri" font-size="24" x="765" y="2967">1.0</text>
</g>
</svg>
