<svg data-name="Layer 1" xmlns="http://www.w3.org/2000/svg" width="751.13137" height="590.5122" viewBox="0 0 751.13137 590.5122" xmlns:xlink="http://www.w3.org/1999/xlink"><path d="M974.375,744.94877l-748.75.30733a1.19069,1.19069,0,0,1,0-2.38137l748.75-.30733a1.19069,1.19069,0,0,1,0,2.38137Z" transform="translate(-224.43432 -154.7439)" fill="#cacaca"/><path d="M828.08363,719.69128V655.28183a4.92267,4.92267,0,0,1,4.91711-4.91711h48.64343a4.92266,4.92266,0,0,1,4.91708,4.91711v64.40945a4.92266,4.92266,0,0,1-4.91708,4.9171H833.00074A4.92267,4.92267,0,0,1,828.08363,719.69128Z" transform="translate(-224.43432 -154.7439)" fill="#e6e6e6"/><path d="M831.81488,700.23693V658.82869a4.61014,4.61014,0,0,1,4.605-4.605h41.80494a4.61034,4.61034,0,0,1,4.60525,4.605v57.31565a4.61033,4.61033,0,0,1-4.60525,4.605H852.32755A20.53573,20.53573,0,0,1,831.81488,700.23693Z" transform="translate(-224.43432 -154.7439)" fill="#fff"/><path d="M838.58363,670.38234a4.50492,4.50492,0,0,1,4.5-4.5h29a4.5,4.5,0,0,1,0,9h-29A4.50493,4.50493,0,0,1,838.58363,670.38234Z" transform="translate(-224.43432 -154.7439)" fill="#e6e6e6"/><path d="M838.58363,684.38234a4.50492,4.50492,0,0,1,4.5-4.5h29a4.5,4.5,0,0,1,0,9h-29A4.50493,4.50493,0,0,1,838.58363,684.38234Z" transform="translate(-224.43432 -154.7439)" fill="#e6e6e6"/><path d="M838.58363,698.38234a4.50492,4.50492,0,0,1,4.5-4.5h29a4.5,4.5,0,0,1,0,9h-29A4.50493,4.50493,0,0,1,838.58363,698.38234Z" transform="translate(-224.43432 -154.7439)" fill="#e6e6e6"/><path d="M837.102,385.99334c-18.32147,29.91458-36.572,89.19622-62,91.27777-34.1275,2.7937-62-57.03612-62-91.27778a62,62,0,0,1,62-62C809.34362,323.99333,854.98594,356.79308,837.102,385.99334Z" transform="translate(-224.43432 -154.7439)" fill="#ccc"/><path d="M783.602,488.13222h-.00012A44.49991,44.49991,0,0,0,739.102,532.63216l27,135.50006V729.494a12.99516,12.99516,0,0,0-10,12.63818h24v-74h16v61.1695a12.99142,12.99142,0,0,0-11,12.8305h25v-74l18-135.50006A44.49991,44.49991,0,0,0,783.602,488.13222Z" transform="translate(-224.43432 -154.7439)" fill="#ccc"/><path d="M656.34367,522.68721c-3.33014-3.32537-9.348-5.555-16.2417-5.555-10.49341,0-19,5.14868-19,11.5,0,6.35126,8.50659,11.5,19,11.5a25.97183,25.97183,0,0,0,13.8197-3.62445l-.00586.05884,104.59259,5.164,1.39386-13.93042Z" transform="translate(-224.43432 -154.7439)" fill="#ccc"/><path d="M821.36362,635.41237c-2.423,4.0345-3.13365,10.41267-1.46923,17.1024,2.53355,10.183,9.58375,17.19479,15.74717,15.66131,6.16336-1.53345,9.10593-11.0315,6.57239-21.21447a25.97176,25.97176,0,0,0-6.85388-12.53575l.05851-.00852L815.1768,531.67228,801.322,533.683Z" transform="translate(-224.43432 -154.7439)" fill="#ccc"/><path d="M788.91069,359.52126c1.38227-5.73807-3.06153-10.9755-8.291-12.72214-6.91-2.30794-14.13323.93282-20.839,2.40656-3.457.75975-7.12072,1.14076-10.53178-.03955a13.45762,13.45762,0,0,1-6.31594-4.84475c-3.71969-5.10974-3.90779-11.61676-1.956-17.45973,3.80666-11.39565,14.544-19.69512,26.08746-22.13049,13.8441-2.92075,27.24549,4.00105,39.70005,9.11429l12.02049,4.935c3.67976,1.51073,7.44111,2.90381,11.00046,4.68739,5.71659,2.86457,12.2016,8.57232,9.85349,15.73752-.60263,1.83889,2.29332,2.62693,2.89283.79752,2.05624-6.27454-1.63666-12.59455-6.57186-16.29453a41.07093,41.07093,0,0,0-8.87653-4.73361c-3.56724-1.49966-7.15746-2.94614-10.73716-4.41579-7.40914-3.04183-14.77967-6.217-22.26007-9.08021-6.71174-2.569-13.79865-4.669-21.05711-4.45752a39.28922,39.28922,0,0,0-30.98487,17.0412c-3.87794,5.75539-6.18057,12.87773-5.0095,19.83425.9396,5.58152,4.53535,11.03635,9.74051,13.47685,7.83379,3.673,16.00035-.25309,23.815-1.80777,3.758-.74762,7.95274-.961,11.33162,1.13261,2.69171,1.66785,4.88632,4.74457,4.096,8.02537-.45194,1.87609,2.44018,2.67662,2.89284.79751Z" transform="translate(-224.43432 -154.7439)" fill="#3f3d56"/><path d="M634.54289,528.14394a200.76938,200.76938,0,0,1-31.7251-2.2002c-10.9917-1.86035-16.11133-4.62792-16.11133-8.71191l.00733-.16211,18.01953-137.23584-8.95557-25.67236a8.94176,8.94176,0,0,1,1.19385-8.25733,8.79325,8.79325,0,0,1,7.46582-3.769l59.80762.62256a9.04635,9.04635,0,0,1,8.48877,11.90771L664.35,379.81728,682.37589,517.06v.06543c.00245,4.42285-5.76513,7.30957-18.15087,9.13769A222.95282,222.95282,0,0,1,634.54289,528.14394ZM604.23527,344.13271a6.87226,6.87226,0,0,0-5.63916,2.938,6.964,6.964,0,0,0-.92969,6.43213l9.11182,26.1206-.03076.23535L588.704,517.25332l.001.03222c.00146,1.90625,2.50732,4.666,14.44629,6.68555a198.69251,198.69251,0,0,0,31.3916,2.17285,220.91945,220.91945,0,0,0,29.39013-1.85937c13.59229-2.00586,16.44385-4.97168,16.44287-7.10547L662.30705,379.621l8.52929-25.58838a7.04651,7.04651,0,0,0-6.6123-9.2749l-59.82031-.623C604.34757,344.1332,604.29142,344.13271,604.23527,344.13271Z" transform="translate(-224.43432 -154.7439)" fill="#3f3d56"/><path d="M668.64316,500.42143H600.44271L611.254,427.31517l.2945-2.015,4.504-30.43442c.27475-1.85651,2.41209-.41482,3.92327-1.52767,9.38261-6.9094,18.87751-7.10979,28.45481-.45024,1.48039,1.0294,3.52537-.17535,3.80155,1.6065l4.73162,30.52679.45727,2.95277Z" transform="translate(-224.43432 -154.7439)" fill="#ffd700" opacity="0.5"/><path d="M660.226,510.65856H608.78722a9.38469,9.38469,0,0,1-9.28376-10.75823l15.02878-101.62744a2.98226,2.98226,0,0,1,4.823-1.88011c9.15938,7.33746,19.14206,7.17216,29.67-.48868a2.928,2.928,0,0,1,2.86629-.33381,2.97592,2.97592,0,0,1,1.8123,2.307l15.79671,101.95965a9.38538,9.38538,0,0,1-9.27453,10.82162Z" transform="translate(-224.43432 -154.7439)" fill="#ffd700"/><rect x="385.8687" y="344.00012" width="29.22504" height="1.64338" fill="#fff"/><rect x="385.8687" y="334.13981" width="29.22504" height="1.64338" fill="#fff"/><rect x="385.8687" y="324.27951" width="29.22504" height="1.64338" fill="#fff"/><rect x="385.8687" y="314.4192" width="29.22504" height="1.64338" fill="#fff"/><rect x="385.8687" y="304.55889" width="29.22504" height="1.64338" fill="#fff"/><path d="M658.79931,433.43589a22.14446,22.14446,0,0,1-17.37882,6.35994,26.51924,26.51924,0,0,1-10.13148-3.3936c-3.29494-1.76665-6.48311-3.87841-10.13142-4.86445-3.1964-.86277-6.98439-.97782-9.72886,1.15861a1.33377,1.33377,0,0,1-1.57764.04108l.31225-2.13638a13.24372,13.24372,0,0,1,10.41083-1.73381c7.32948,1.47909,12.89235,7.54318,20.40263,8.41417a19.68085,19.68085,0,0,0,17.32946-6.968l.00822-.00823Z" transform="translate(-224.43432 -154.7439)" fill="#fff"/><path d="M452.102,204.13222c-1.01593,22.068-17.94669,38.70328-40,40-23.84741,1.40221-45.10336-13.90773-40-40,5.6831-29.05639,18.32642-35.73877,40-40C437.50105,159.13852,453.19966,180.2882,452.102,204.13222Z" transform="translate(-224.43432 -154.7439)" fill="#2f2e41"/><path d="M532.79361,358.88707a10.13237,10.13237,0,0,1-14.66595-5.12862l-46.77725,9.08036-45.74865-18.7323L437.28028,325.421l34.10634,17.10034,53.29264-2.16845a10.18731,10.18731,0,0,1,8.11435,18.5342Z" transform="translate(-224.43432 -154.7439)" fill="#ffb6b6"/><path d="M388.9488,320.94841s-3.1397,4.33519,7.181,9.036c8.26247,3.76337,52.641,27.777,65.08635,29.77983a7.95988,7.95988,0,0,0,6.51022,7.26962l7.02678-25.23965c-3.165-5.02189-6.68132-3.19288-8.44289-1.66553l-13.657-10.76041-37.58917-23.71018-23.90139,12.11631Z" transform="translate(-224.43432 -154.7439)" fill="#f2f2f2"/><path d="M454.102,265.13222,436.62935,262.155,404.5744,276.808l-18,249L443.101,499.66617a42.38924,42.38924,0,0,1,29.09549-2.38062l0,0A10.42136,10.42136,0,0,0,485.294,485.78277Z" transform="translate(-224.43432 -154.7439)" fill="#f2f2f2"/><polygon points="177.261 565.646 190.98 565.646 197.508 512.732 177.261 512.732 177.261 565.646" fill="#ffb6b6"/><path d="M394.45475,744.15876h9.838l1.756-9.28827,4.49751,9.28827H436.6391a5.8654,5.8654,0,0,0,3.33292-10.69213l-20.83694-14.39071v-9.39015l-21.91684,1.30812Z" transform="translate(-224.43432 -154.7439)" fill="#2f2e41"/><polygon points="108.894 536.454 119.96 544.562 156.5 505.738 140.168 493.771 108.894 536.454" fill="#ffb6b6"/><path d="M313.43875,706.09133l7.93572,5.81464,6.9062-6.45444-1.86186,10.15052,21.0476,15.42194a5.86539,5.86539,0,0,0,9.00795-6.65483l-8.30245-23.92362,5.55-7.57449-18.45219-11.89856Z" transform="translate(-224.43432 -154.7439)" fill="#2f2e41"/><path d="M451.962,477.82222c-.76,10.54-13.56,49-13.56,49l-2.29,23.26-6.52,66.27-7.05,71.62c-10.54,18.83-28.62,6-28.62,6v-12s-1.41-10.83-2.83-24.56c-2.1-20.19-4.23-46.66-1.99-54.28a30.30209,30.30209,0,0,1-.5-3.12c-2.3-17.84-7.9-97.82.1-106.37a70.90708,70.90708,0,0,1-20.67-45c-.18-2.47-.33-5.06-.42-7.75-.61-17,11-36.92,15.54-44,1.1-1.72.50507-4.5596.50507-4.5596l66.49,26.38,1.42492,1.93954v8.27Z" transform="translate(-224.43432 -154.7439)" fill="#35323e"/><path d="M436.112,550.08223l-6.52,66.27-38.5,41.06-18.04,19.24c-19.83,8.5-26.35-12.69-26.35-12.69l7.31-9.51s20.52-35.35,34.59-54.44c3.89-5.27,7.29-9.31,9.62-11.01,5.26-3.82,21.15-24.58,36.07-44.86Z" transform="translate(-224.43432 -154.7439)" fill="#35323e"/><path d="M366.14931,394.835a13.93411,13.93411,0,0,0,.9,4.3c.06.17.12.33.19.5a14.23173,14.23173,0,0,0,6.22,6.95,13.91659,13.91659,0,0,0,2.59,1.13l7.79,1.25,66.99,10.71,2.69-8.09-5.07-12.68,3.36-10.9.45678-63.48033c7.70472-15.15042,9.255-29.40741.30323-42.13965v-.08l-12.17-19.41-8.1-12.27-25.98-.83-3.69,9.36-7.29,4.36c-16.16,9.66-21.98,27.35-21.63,46.18,5.57,21.57,1.47,45.55-2.68,71.26l-3.39,6.78A14.3033,14.3033,0,0,0,366.14931,394.835Z" transform="translate(-224.43432 -154.7439)" fill="#ffd700"/><path d="M366.14931,394.835a13.93411,13.93411,0,0,0,.9,4.3l6.41,7.45a13.91659,13.91659,0,0,0,2.59,1.13l7.79,1.25-11.27-21.19,24.77-54.23Z" transform="translate(-224.43432 -154.7439)" opacity="0.2"/><path d="M427.102,268.13222,402.62935,259.155,370.5744,273.808,372.102,376.13222c-9.512,7.85138-11.42764,19.16913-4.59061,34.481l-12.36217,92.855a10.72542,10.72542,0,0,0,15.13366,11.15022l24.38826-11.27884a85.736,85.736,0,0,1,58.84816-4.815l0,0Z" transform="translate(-224.43432 -154.7439)" fill="#f2f2f2"/><path d="M387.658,218.05942a31.64654,31.64654,0,0,0,62.71487-8.53553l-.06114-.44921a31.64654,31.64654,0,0,0-62.644,8.98341Z" transform="translate(-224.43432 -154.7439)" fill="#ffb8b8"/><path d="M462.102,206.13222a43.24029,43.24029,0,0,1-20.98,0,18.91063,18.91063,0,0,0-2.22-5.84,20.23071,20.23071,0,0,1-1.28,5.84c-5.7764,4.00508-18.86234,1.82123-31.52,0v-32h24C450.41838,172.31141,465.16267,186.35633,462.102,206.13222Z" transform="translate(-224.43432 -154.7439)" fill="#2f2e41"/><path d="M401.47892,158.153c-1.82483-2.543-5.428-3.65271-8.66144-3.36456a20.4924,20.4924,0,0,0-8.82092,3.39264,52.34317,52.34317,0,0,0-12.04669,10.2215c-2.99744,3.463-5.54132,8.26178-3.1911,12.287,1.961,3.35871,6.7503,4.65729,10.72516,3.9101,3.97485-.74713,7.29773-3.08051,10.37481-5.45319,3.07709-2.37262,6.14844-4.9002,9.94587-6.16693l-3.06263-.24164a24.32818,24.32818,0,0,0,5.13947-6.61236A8.02552,8.02552,0,0,0,401.47892,158.153Z" transform="translate(-224.43432 -154.7439)" fill="#2f2e41"/><path d="M431.102,179.13222H405.35386A26.25188,26.25188,0,0,0,379.102,205.38411v.00006a40.74785,40.74785,0,0,0,36.90137,40.562L407.102,220.13222l17.1853,26h6.8147C407.86,226.73861,414.37858,203.58077,431.102,179.13222Z" transform="translate(-224.43432 -154.7439)" fill="#2f2e41"/><path d="M510.65814,733.30427a63.42757,63.42757,0,0,1-10.02284-.69392c-3.08882-.52254-4.65506-1.26458-4.65506-2.20562l.00115-.017,5.76223-43.8718-2.9021-8.31928a2.30491,2.30491,0,0,1,2.20038-3.06387l19.08467.19876a2.30487,2.30487,0,0,1,2.1625,3.03366l-2.71653,8.14971,5.76235,43.87282C525.336,732.69367,516.10975,733.30427,510.65814,733.30427Z" transform="translate(-224.43432 -154.7439)" fill="#f2f2f2"/><rect x="275.34645" y="572.38451" width="9.32227" height="0.52421" fill="#ccc"/><rect x="275.34645" y="569.23924" width="9.32227" height="0.52421" fill="#ccc"/><rect x="275.34645" y="566.09398" width="9.32227" height="0.52421" fill="#ccc"/><rect x="275.34645" y="562.94872" width="9.32227" height="0.52421" fill="#ccc"/><rect x="275.34645" y="559.80345" width="9.32227" height="0.52421" fill="#ccc"/><path d="M594.53185,733.30427a63.42747,63.42747,0,0,1-10.02284-.69392c-3.08883-.52254-4.65506-1.26458-4.65506-2.20562l.00115-.017,5.76222-43.8718-2.9021-8.31928a2.30491,2.30491,0,0,1,2.20038-3.06387l19.08467.19876a2.30485,2.30485,0,0,1,2.1625,3.03366l-2.71653,8.14971,5.76235,43.87282C609.20975,732.69367,599.98346,733.30427,594.53185,733.30427Z" transform="translate(-224.43432 -154.7439)" fill="#f2f2f2"/><rect x="359.22016" y="572.38451" width="9.32227" height="0.52421" fill="#ccc"/><rect x="359.22016" y="569.23924" width="9.32227" height="0.52421" fill="#ccc"/><rect x="359.22016" y="566.09398" width="9.32227" height="0.52421" fill="#ccc"/><rect x="359.22016" y="562.94872" width="9.32227" height="0.52421" fill="#ccc"/><rect x="359.22016" y="559.80345" width="9.32227" height="0.52421" fill="#ccc"/><path d="M555.21605,733.30427a63.42747,63.42747,0,0,1-10.02284-.69392c-3.08883-.52254-4.65506-1.26458-4.65506-2.20562l.00115-.017,5.76222-43.8718-2.9021-8.31928a2.30491,2.30491,0,0,1,2.20038-3.06387l19.08467.19876a2.30485,2.30485,0,0,1,2.1625,3.03366l-2.71653,8.14971,5.76235,43.87282C569.894,732.69367,560.66766,733.30427,555.21605,733.30427Z" transform="translate(-224.43432 -154.7439)" fill="#f2f2f2"/><rect x="319.90436" y="572.38451" width="9.32227" height="0.52421" fill="#ccc"/><rect x="319.90436" y="569.23924" width="9.32227" height="0.52421" fill="#ccc"/><rect x="319.90436" y="566.09398" width="9.32227" height="0.52421" fill="#ccc"/><rect x="319.90436" y="562.94872" width="9.32227" height="0.52421" fill="#ccc"/><rect x="319.90436" y="559.80345" width="9.32227" height="0.52421" fill="#ccc"/><path d="M617.204,736.5642H599.3808v-29.88H617.204a3.66948,3.66948,0,0,0,0-7.33895H492.966a3.66948,3.66948,0,0,0,0,7.33895h15.20211v29.88H492.966a3.66948,3.66948,0,0,0,0,7.33895H617.204a3.66948,3.66948,0,0,0,0-7.33895Zm-101.69687,0v-29.88h76.53476v29.88Z" transform="translate(-224.43432 -154.7439)" fill="#ccc"/><path d="M457.33661,497.79585V433.38639a4.92268,4.92268,0,0,1,4.91711-4.9171h48.64344a4.92266,4.92266,0,0,1,4.91707,4.9171v64.40946a4.92266,4.92266,0,0,1-4.91707,4.9171H462.25372A4.92268,4.92268,0,0,1,457.33661,497.79585Z" transform="translate(-224.43432 -154.7439)" fill="#e6e6e6"/><path d="M461.06787,478.34149V436.93326a4.61013,4.61013,0,0,1,4.605-4.605h41.80494a4.61034,4.61034,0,0,1,4.60525,4.605v57.31565a4.61033,4.61033,0,0,1-4.60525,4.605H481.58053A20.53573,20.53573,0,0,1,461.06787,478.34149Z" transform="translate(-224.43432 -154.7439)" fill="#fff"/><path d="M467.83661,448.4869a4.50493,4.50493,0,0,1,4.5-4.5h29a4.5,4.5,0,0,1,0,9h-29A4.50492,4.50492,0,0,1,467.83661,448.4869Z" transform="translate(-224.43432 -154.7439)" fill="#e6e6e6"/><path d="M467.83661,462.4869a4.50493,4.50493,0,0,1,4.5-4.5h29a4.5,4.5,0,0,1,0,9h-29A4.50492,4.50492,0,0,1,467.83661,462.4869Z" transform="translate(-224.43432 -154.7439)" fill="#e6e6e6"/><path d="M467.83661,476.4869a4.50493,4.50493,0,0,1,4.5-4.5h29a4.5,4.5,0,0,1,0,9h-29A4.50492,4.50492,0,0,1,467.83661,476.4869Z" transform="translate(-224.43432 -154.7439)" fill="#e6e6e6"/><path d="M458.16173,435.40754a10.13242,10.13242,0,0,1-4.66868-14.81878l-35.27015-32.0403L405.85,340.6867l21.959-1.827,6.71256,37.558,33.63218,41.39667a10.18731,10.18731,0,0,1-9.992,17.59315Z" transform="translate(-224.43432 -154.7439)" fill="#ffb6b6"/><path d="M402.46636,297.463s-5.35213.07924-2.94135,11.16085c1.93,8.87167,9.25194,58.79662,15.09576,69.96564a7.95986,7.95986,0,0,0-1.92765,9.56631l24.42574-9.47621c2.129-5.54114-1.44076-7.26352-3.71864-7.76068l.447-17.381-3.50164-44.30415L406.33412,297.337Z" transform="translate(-224.43432 -154.7439)" fill="#f2f2f2"/></svg>