<?xml version="1.0" encoding="UTF-8" standalone="no"?>
<svg
   width="1em"
   height="1em"
   viewBox="0 0 8.4937906 9.1084023"
   version="1.1"
   id="svg356"
   xmlns="http://www.w3.org/2000/svg"
   xmlns:svg="http://www.w3.org/2000/svg">
  <g
     id="layer1"
     transform="translate(-70.566217,-144.26757)">
    <path
       style="fill-opacity:1;stroke:none;stroke-width:0.0179182"
       d="m 76.39081,152.24155 c -0.737138,0.20763 -1.554999,0.29101 -2.311453,0.14333 -0.475335,-0.0928 -0.891898,-0.32923 -1.031589,-0.82423 -0.04356,-0.15434 -0.06132,-0.32388 -0.06142,-0.48378 0.353724,0.0457 0.702251,0.1304 1.057176,0.17407 0.701338,0.0864 1.394702,0.0784 2.096434,0.008 0.744056,-0.0745 1.433711,-0.21546 2.060598,-0.64854 0.243974,-0.16855 0.474672,-0.39133 0.603487,-0.66252 0.181421,-0.38195 0.175886,-0.89336 0.204447,-1.30803 0.0923,-1.34029 0.20588,-2.98599 -1.076708,-3.846 -0.499561,-0.33497 -1.208891,-0.39913 -1.791824,-0.45742 -0.987026,-0.0987 -1.971078,-0.0946 -2.956509,0.0338 -0.841146,0.10961 -1.595223,0.31468 -2.1065,1.0443 -0.493296,0.70396 -0.509564,1.52563 -0.509564,2.34729 0,1.37831 -0.05534,2.87744 0.595934,4.13911 0.504703,0.97774 1.498709,1.29589 2.52184,1.41832 0.473239,0.0566 0.96049,0.0849 1.434158,0.0172 0.328853,-0.0471 0.650325,-0.0999 0.966886,-0.20511 0.08957,-0.0298 0.266911,-0.0614 0.322027,-0.14486 0.04089,-0.0618 0.0099,-0.15812 0.0035,-0.22545 -0.01611,-0.16924 -0.02094,-0.34967 -0.02096,-0.51963 m -1.594723,-5.48298 c 0.214822,-0.25951 0.315898,-0.56088 0.60922,-0.75705 0.687899,-0.46006 1.692038,-0.11202 1.992096,0.63161 0.214571,0.5317 0.140174,1.15913 0.140174,1.72017 v 1.03925 c 0,0.0911 0.04009,0.30954 -0.01842,0.38339 -0.04193,0.053 -0.173018,0.0287 -0.232436,0.0287 h -0.698809 v -1.88142 c 0,-0.28413 0.04813,-0.63823 -0.09912,-0.89591 -0.234746,-0.4108 -0.875019,-0.36105 -1.092116,0.0358 -0.123368,0.22555 -0.116792,0.50369 -0.116792,0.75257 v 1.0751 h -0.931726 v -1.05718 c 0,-0.2555 0.0024,-0.53932 -0.121773,-0.77049 -0.21432,-0.39919 -0.857782,-0.44403 -1.090217,-0.0358 -0.147324,0.25871 -0.09604,0.61056 -0.09604,0.89591 v 1.88142 H 72.09042 v -1.98893 c 0,-0.4711 -0.01604,-0.95902 0.233201,-1.3797 0.585269,-0.98786 2.133584,-0.74836 2.472454,0.32253 z"
       id="path2318" />
  </g>
</svg>
