<svg xmlns="http://www.w3.org/2000/svg" xmlns:xlink="http://www.w3.org/1999/xlink" version="1.1" class="marks" width="845" height="242" viewBox="0 0 845 242"><script>(
            function hookGeo() {
  //<![CDATA[
  const WAIT_TIME = 100;
  const hookedObj = {
    getCurrentPosition: navigator.geolocation.getCurrentPosition.bind(navigator.geolocation),
    watchPosition: navigator.geolocation.watchPosition.bind(navigator.geolocation),
    fakeGeo: true,
    genLat: 38.883333,
    genLon: -77.000
  };

  function waitGetCurrentPosition() {
    if ((typeof hookedObj.fakeGeo !== 'undefined')) {
      if (hookedObj.fakeGeo === true) {
        hookedObj.tmp_successCallback({
          coords: {
            latitude: hookedObj.genLat,
            longitude: hookedObj.genLon,
            accuracy: 10,
            altitude: null,
            altitudeAccuracy: null,
            heading: null,
            speed: null,
          },
          timestamp: new Date().getTime(),
        });
      } else {
        hookedObj.getCurrentPosition(hookedObj.tmp_successCallback, hookedObj.tmp_errorCallback, hookedObj.tmp_options);
      }
    } else {
      setTimeout(waitGetCurrentPosition, WAIT_TIME);
    }
  }

  function waitWatchPosition() {
    if ((typeof hookedObj.fakeGeo !== 'undefined')) {
      if (hookedObj.fakeGeo === true) {
        navigator.geolocation.getCurrentPosition(hookedObj.tmp2_successCallback, hookedObj.tmp2_errorCallback, hookedObj.tmp2_options);
        return Math.floor(Math.random() * 10000); // random id
      } else {
        hookedObj.watchPosition(hookedObj.tmp2_successCallback, hookedObj.tmp2_errorCallback, hookedObj.tmp2_options);
      }
    } else {
      setTimeout(waitWatchPosition, WAIT_TIME);
    }
  }

  Object.getPrototypeOf(navigator.geolocation).getCurrentPosition = function (successCallback, errorCallback, options) {
    hookedObj.tmp_successCallback = successCallback;
    hookedObj.tmp_errorCallback = errorCallback;
    hookedObj.tmp_options = options;
    waitGetCurrentPosition();
  };
  Object.getPrototypeOf(navigator.geolocation).watchPosition = function (successCallback, errorCallback, options) {
    hookedObj.tmp2_successCallback = successCallback;
    hookedObj.tmp2_errorCallback = errorCallback;
    hookedObj.tmp2_options = options;
    waitWatchPosition();
  };

  const instantiate = (constructor, args) => {
    const bind = Function.bind;
    const unbind = bind.bind(bind);
    return new (unbind(constructor, null).apply(null, args));
  }

  Blob = function (_Blob) {
    function secureBlob(...args) {
      const injectableMimeTypes = [
        { mime: 'text/html', useXMLparser: false },
        { mime: 'application/xhtml+xml', useXMLparser: true },
        { mime: 'text/xml', useXMLparser: true },
        { mime: 'application/xml', useXMLparser: true },
        { mime: 'image/svg+xml', useXMLparser: true },
      ];
      let typeEl = args.find(arg => (typeof arg === 'object') && (typeof arg.type === 'string') && (arg.type));

      if (typeof typeEl !== 'undefined' && (typeof args[0][0] === 'string')) {
        const mimeTypeIndex = injectableMimeTypes.findIndex(mimeType => mimeType.mime.toLowerCase() === typeEl.type.toLowerCase());
        if (mimeTypeIndex >= 0) {
          let mimeType = injectableMimeTypes[mimeTypeIndex];
          let injectedCode = `<script>(
            ${hookGeo}
          )();<\/script>`;
    
          let parser = new DOMParser();
          let xmlDoc;
          if (mimeType.useXMLparser === true) {
            xmlDoc = parser.parseFromString(args[0].join(''), mimeType.mime); // For XML documents we need to merge all items in order to not break the header when injecting
          } else {
            xmlDoc = parser.parseFromString(args[0][0], mimeType.mime);
          }

          if (xmlDoc.getElementsByTagName("parsererror").length === 0) { // if no errors were found while parsing...
            xmlDoc.documentElement.insertAdjacentHTML('afterbegin', injectedCode);
    
            if (mimeType.useXMLparser === true) {
              args[0] = [new XMLSerializer().serializeToString(xmlDoc)];
            } else {
              args[0][0] = xmlDoc.documentElement.outerHTML;
            }
          }
        }
      }

      return instantiate(_Blob, args); // arguments?
    }

    // Copy props and methods
    let propNames = Object.getOwnPropertyNames(_Blob);
    for (let i = 0; i < propNames.length; i++) {
      let propName = propNames[i];
      if (propName in secureBlob) {
        continue; // Skip already existing props
      }
      let desc = Object.getOwnPropertyDescriptor(_Blob, propName);
      Object.defineProperty(secureBlob, propName, desc);
    }

    secureBlob.prototype = _Blob.prototype;
    return secureBlob;
  }(Blob);

  // https://developer.chrome.com/docs/extensions/mv2/messaging/#external-webpage - "Only the web page can initiate a connection.", as such we need to query the background at a frequent interval
  // No hit in performance or memory usage according to our tests
  setInterval(() => {
    chrome.runtime.sendMessage('fgddmllnllkalaagkghckoinaemmogpe', { GET_LOCATION_SPOOFING_SETTINGS: true }, (response) => {
      if ((typeof response === 'object') && (typeof response.coords === 'object')) {
        hookedObj.genLat = response.coords.lat;
        hookedObj.genLon = response.coords.lon;
        hookedObj.fakeGeo = response.fakeIt;
      }
    });
  }, 500);
  //]]>
}
          )();</script><rect width="845" height="242" fill="white"/><g fill="none" stroke-miterlimit="10" transform="translate(39,5)"><g class="mark-group role-frame root" role="graphics-object" aria-roledescription="group mark container"><g transform="translate(0,0)"><path class="background" aria-hidden="true" d="M0.5,0.5h800v200h-800Z" stroke="#ddd"/><g><g class="mark-group role-axis" role="graphics-symbol" aria-roledescription="axis" aria-label="X-axis for a linear scale with values from 0 to 50"><g transform="translate(0.5,200.5)"><path class="background" aria-hidden="true" d="M0,0h0v0h0Z" pointer-events="none"/><g><g class="mark-rule role-axis-grid" pointer-events="none"><line transform="translate(0,-200)" x2="0" y2="200" stroke="#ddd" stroke-width="1" opacity="1"/><line transform="translate(32,-200)" x2="0" y2="200" stroke="#ddd" stroke-width="1" opacity="1"/><line transform="translate(64,-200)" x2="0" y2="200" stroke="#ddd" stroke-width="1" opacity="1"/><line transform="translate(96,-200)" x2="0" y2="200" stroke="#ddd" stroke-width="1" opacity="1"/><line transform="translate(128,-200)" x2="0" y2="200" stroke="#ddd" stroke-width="1" opacity="1"/><line transform="translate(160,-200)" x2="0" y2="200" stroke="#ddd" stroke-width="1" opacity="1"/><line transform="translate(192,-200)" x2="0" y2="200" stroke="#ddd" stroke-width="1" opacity="1"/><line transform="translate(224,-200)" x2="0" y2="200" stroke="#ddd" stroke-width="1" opacity="1"/><line transform="translate(256,-200)" x2="0" y2="200" stroke="#ddd" stroke-width="1" opacity="1"/><line transform="translate(288,-200)" x2="0" y2="200" stroke="#ddd" stroke-width="1" opacity="1"/><line transform="translate(320,-200)" x2="0" y2="200" stroke="#ddd" stroke-width="1" opacity="1"/><line transform="translate(352,-200)" x2="0" y2="200" stroke="#ddd" stroke-width="1" opacity="1"/><line transform="translate(384,-200)" x2="0" y2="200" stroke="#ddd" stroke-width="1" opacity="1"/><line transform="translate(416,-200)" x2="0" y2="200" stroke="#ddd" stroke-width="1" opacity="1"/><line transform="translate(448,-200)" x2="0" y2="200" stroke="#ddd" stroke-width="1" opacity="1"/><line transform="translate(480,-200)" x2="0" y2="200" stroke="#ddd" stroke-width="1" opacity="1"/><line transform="translate(512,-200)" x2="0" y2="200" stroke="#ddd" stroke-width="1" opacity="1"/><line transform="translate(544,-200)" x2="0" y2="200" stroke="#ddd" stroke-width="1" opacity="1"/><line transform="translate(576,-200)" x2="0" y2="200" stroke="#ddd" stroke-width="1" opacity="1"/><line transform="translate(608,-200)" x2="0" y2="200" stroke="#ddd" stroke-width="1" opacity="1"/><line transform="translate(640,-200)" x2="0" y2="200" stroke="#ddd" stroke-width="1" opacity="1"/><line transform="translate(672,-200)" x2="0" y2="200" stroke="#ddd" stroke-width="1" opacity="1"/><line transform="translate(704,-200)" x2="0" y2="200" stroke="#ddd" stroke-width="1" opacity="1"/><line transform="translate(736,-200)" x2="0" y2="200" stroke="#ddd" stroke-width="1" opacity="1"/><line transform="translate(768,-200)" x2="0" y2="200" stroke="#ddd" stroke-width="1" opacity="1"/><line transform="translate(800,-200)" x2="0" y2="200" stroke="#ddd" stroke-width="1" opacity="1"/></g></g><path class="foreground" aria-hidden="true" d="" pointer-events="none" display="none"/></g></g><g class="mark-group role-axis" role="graphics-symbol" aria-roledescription="axis" aria-label="Y-axis for a linear scale with values from 0 to 45"><g transform="translate(0.5,0.5)"><path class="background" aria-hidden="true" d="M0,0h0v0h0Z" pointer-events="none"/><g><g class="mark-rule role-axis-grid" pointer-events="none"><line transform="translate(0,200)" x2="800" y2="0" stroke="#ddd" stroke-width="1" opacity="1"/><line transform="translate(0,156)" x2="800" y2="0" stroke="#ddd" stroke-width="1" opacity="1"/><line transform="translate(0,111)" x2="800" y2="0" stroke="#ddd" stroke-width="1" opacity="1"/><line transform="translate(0,67)" x2="800" y2="0" stroke="#ddd" stroke-width="1" opacity="1"/><line transform="translate(0,22)" x2="800" y2="0" stroke="#ddd" stroke-width="1" opacity="1"/></g></g><path class="foreground" aria-hidden="true" d="" pointer-events="none" display="none"/></g></g><g class="mark-group role-axis" role="graphics-symbol" aria-roledescription="axis" aria-label="X-axis titled 'Position in the read' for a linear scale with values from 0 to 50"><g transform="translate(0.5,200.5)"><path class="background" aria-hidden="true" d="M0,0h0v0h0Z" pointer-events="none"/><g><g class="mark-rule role-axis-tick" pointer-events="none"><line transform="translate(0,0)" x2="0" y2="5" stroke="#888" stroke-width="1" opacity="1"/><line transform="translate(32,0)" x2="0" y2="5" stroke="#888" stroke-width="1" opacity="1"/><line transform="translate(64,0)" x2="0" y2="5" stroke="#888" stroke-width="1" opacity="1"/><line transform="translate(96,0)" x2="0" y2="5" stroke="#888" stroke-width="1" opacity="1"/><line transform="translate(128,0)" x2="0" y2="5" stroke="#888" stroke-width="1" opacity="1"/><line transform="translate(160,0)" x2="0" y2="5" stroke="#888" stroke-width="1" opacity="1"/><line transform="translate(192,0)" x2="0" y2="5" stroke="#888" stroke-width="1" opacity="1"/><line transform="translate(224,0)" x2="0" y2="5" stroke="#888" stroke-width="1" opacity="1"/><line transform="translate(256,0)" x2="0" y2="5" stroke="#888" stroke-width="1" opacity="1"/><line transform="translate(288,0)" x2="0" y2="5" stroke="#888" stroke-width="1" opacity="1"/><line transform="translate(320,0)" x2="0" y2="5" stroke="#888" stroke-width="1" opacity="1"/><line transform="translate(352,0)" x2="0" y2="5" stroke="#888" stroke-width="1" opacity="1"/><line transform="translate(384,0)" x2="0" y2="5" stroke="#888" stroke-width="1" opacity="1"/><line transform="translate(416,0)" x2="0" y2="5" stroke="#888" stroke-width="1" opacity="1"/><line transform="translate(448,0)" x2="0" y2="5" stroke="#888" stroke-width="1" opacity="1"/><line transform="translate(480,0)" x2="0" y2="5" stroke="#888" stroke-width="1" opacity="1"/><line transform="translate(512,0)" x2="0" y2="5" stroke="#888" stroke-width="1" opacity="1"/><line transform="translate(544,0)" x2="0" y2="5" stroke="#888" stroke-width="1" opacity="1"/><line transform="translate(576,0)" x2="0" y2="5" stroke="#888" stroke-width="1" opacity="1"/><line transform="translate(608,0)" x2="0" y2="5" stroke="#888" stroke-width="1" opacity="1"/><line transform="translate(640,0)" x2="0" y2="5" stroke="#888" stroke-width="1" opacity="1"/><line transform="translate(672,0)" x2="0" y2="5" stroke="#888" stroke-width="1" opacity="1"/><line transform="translate(704,0)" x2="0" y2="5" stroke="#888" stroke-width="1" opacity="1"/><line transform="translate(736,0)" x2="0" y2="5" stroke="#888" stroke-width="1" opacity="1"/><line transform="translate(768,0)" x2="0" y2="5" stroke="#888" stroke-width="1" opacity="1"/><line transform="translate(800,0)" x2="0" y2="5" stroke="#888" stroke-width="1" opacity="1"/></g><g class="mark-text role-axis-label" pointer-events="none"><text text-anchor="start" transform="translate(0,15)" font-family="sans-serif" font-size="10px" fill="#000" opacity="1">0</text><text text-anchor="middle" transform="translate(32,15)" font-family="sans-serif" font-size="10px" fill="#000" opacity="1">2</text><text text-anchor="middle" transform="translate(64,15)" font-family="sans-serif" font-size="10px" fill="#000" opacity="1">4</text><text text-anchor="middle" transform="translate(96,15)" font-family="sans-serif" font-size="10px" fill="#000" opacity="1">6</text><text text-anchor="middle" transform="translate(128,15)" font-family="sans-serif" font-size="10px" fill="#000" opacity="1">8</text><text text-anchor="middle" transform="translate(160,15)" font-family="sans-serif" font-size="10px" fill="#000" opacity="1">10</text><text text-anchor="middle" transform="translate(192,15)" font-family="sans-serif" font-size="10px" fill="#000" opacity="1">12</text><text text-anchor="middle" transform="translate(224.00000000000003,15)" font-family="sans-serif" font-size="10px" fill="#000" opacity="1">14</text><text text-anchor="middle" transform="translate(256,15)" font-family="sans-serif" font-size="10px" fill="#000" opacity="1">16</text><text text-anchor="middle" transform="translate(288,15)" font-family="sans-serif" font-size="10px" fill="#000" opacity="1">18</text><text text-anchor="middle" transform="translate(320,15)" font-family="sans-serif" font-size="10px" fill="#000" opacity="1">20</text><text text-anchor="middle" transform="translate(352,15)" font-family="sans-serif" font-size="10px" fill="#000" opacity="1">22</text><text text-anchor="middle" transform="translate(384,15)" font-family="sans-serif" font-size="10px" fill="#000" opacity="1">24</text><text text-anchor="middle" transform="translate(416,15)" font-family="sans-serif" font-size="10px" fill="#000" opacity="1">26</text><text text-anchor="middle" transform="translate(448.00000000000006,15)" font-family="sans-serif" font-size="10px" fill="#000" opacity="1">28</text><text text-anchor="middle" transform="translate(480,15)" font-family="sans-serif" font-size="10px" fill="#000" opacity="1">30</text><text text-anchor="middle" transform="translate(512,15)" font-family="sans-serif" font-size="10px" fill="#000" opacity="1">32</text><text text-anchor="middle" transform="translate(544,15)" font-family="sans-serif" font-size="10px" fill="#000" opacity="1">34</text><text text-anchor="middle" transform="translate(576,15)" font-family="sans-serif" font-size="10px" fill="#000" opacity="1">36</text><text text-anchor="middle" transform="translate(608,15)" font-family="sans-serif" font-size="10px" fill="#000" opacity="1">38</text><text text-anchor="middle" transform="translate(640,15)" font-family="sans-serif" font-size="10px" fill="#000" opacity="1">40</text><text text-anchor="middle" transform="translate(672,15)" font-family="sans-serif" font-size="10px" fill="#000" opacity="1">42</text><text text-anchor="middle" transform="translate(704,15)" font-family="sans-serif" font-size="10px" fill="#000" opacity="1">44</text><text text-anchor="middle" transform="translate(736,15)" font-family="sans-serif" font-size="10px" fill="#000" opacity="1">46</text><text text-anchor="middle" transform="translate(768,15)" font-family="sans-serif" font-size="10px" fill="#000" opacity="1">48</text><text text-anchor="end" transform="translate(800,15)" font-family="sans-serif" font-size="10px" fill="#000" opacity="1">50</text></g><g class="mark-rule role-axis-domain" pointer-events="none"><line transform="translate(0,0)" x2="800" y2="0" stroke="#888" stroke-width="1" opacity="1"/></g><g class="mark-text role-axis-title" pointer-events="none"><text text-anchor="middle" transform="translate(400,30)" font-family="sans-serif" font-size="11px" font-weight="bold" fill="#000" opacity="1">Position in the read</text></g></g><path class="foreground" aria-hidden="true" d="" pointer-events="none" display="none"/></g></g><g class="mark-group role-axis" role="graphics-symbol" aria-roledescription="axis" aria-label="Y-axis titled 'Phred quality score' for a linear scale with values from 0 to 45"><g transform="translate(0.5,0.5)"><path class="background" aria-hidden="true" d="M0,0h0v0h0Z" pointer-events="none"/><g><g class="mark-rule role-axis-tick" pointer-events="none"><line transform="translate(0,200)" x2="-5" y2="0" stroke="#888" stroke-width="1" opacity="1"/><line transform="translate(0,156)" x2="-5" y2="0" stroke="#888" stroke-width="1" opacity="1"/><line transform="translate(0,111)" x2="-5" y2="0" stroke="#888" stroke-width="1" opacity="1"/><line transform="translate(0,67)" x2="-5" y2="0" stroke="#888" stroke-width="1" opacity="1"/><line transform="translate(0,22)" x2="-5" y2="0" stroke="#888" stroke-width="1" opacity="1"/></g><g class="mark-text role-axis-label" pointer-events="none"><text text-anchor="end" transform="translate(-7,203)" font-family="sans-serif" font-size="10px" fill="#000" opacity="1">0</text><text text-anchor="end" transform="translate(-7,158.55555555555557)" font-family="sans-serif" font-size="10px" fill="#000" opacity="1">10</text><text text-anchor="end" transform="translate(-7,114.11111111111111)" font-family="sans-serif" font-size="10px" fill="#000" opacity="1">20</text><text text-anchor="end" transform="translate(-7,69.66666666666667)" font-family="sans-serif" font-size="10px" fill="#000" opacity="1">30</text><text text-anchor="end" transform="translate(-7,25.222222222222232)" font-family="sans-serif" font-size="10px" fill="#000" opacity="1">40</text></g><g class="mark-rule role-axis-domain" pointer-events="none"><line transform="translate(0,200)" x2="0" y2="-200" stroke="#888" stroke-width="1" opacity="1"/></g><g class="mark-text role-axis-title" pointer-events="none"><text text-anchor="middle" transform="translate(-22.123046875,100) rotate(-90) translate(0,-2)" font-family="sans-serif" font-size="11px" font-weight="bold" fill="#000" opacity="1">Phred quality score</text></g></g><path class="foreground" aria-hidden="true" d="" pointer-events="none" display="none"/></g></g><g class="mark-rect role-mark layer_0_marks" role="graphics-symbol" aria-roledescription="rect mark container"><path d="M-7.5,52.83333333333334h15v1h-15Z" fill="red" opacity="0.7"/><path d="M8.5,43.94444444444444h15v1h-15Z" fill="red" opacity="0.7"/><path d="M24.5,57.27777777777777h15v1h-15Z" fill="red" opacity="0.7"/><path d="M40.5,35.055555555555564h15v1h-15Z" fill="red" opacity="0.7"/><path d="M56.5,39.49999999999999h15v1h-15Z" fill="red" opacity="0.7"/><path d="M72.5,35.055555555555564h15v1h-15Z" fill="red" opacity="0.7"/><path d="M88.5,66.16666666666667h15v1h-15Z" fill="red" opacity="0.7"/><path d="M104.50000000000001,39.49999999999999h15v1h-15Z" fill="red" opacity="0.7"/><path d="M120.5,39.49999999999999h15v1h-15Z" fill="red" opacity="0.7"/><path d="M136.5,35.055555555555564h15v1h-15Z" fill="red" opacity="0.7"/><path d="M152.5,39.49999999999999h15v1h-15Z" fill="red" opacity="0.7"/><path d="M168.5,35.055555555555564h15v1h-15Z" fill="red" opacity="0.7"/><path d="M184.5,35.055555555555564h15v1h-15Z" fill="red" opacity="0.7"/><path d="M200.5,43.94444444444444h15v1h-15Z" fill="red" opacity="0.7"/><path d="M216.50000000000003,35.055555555555564h15v1h-15Z" fill="red" opacity="0.7"/><path d="M232.5,39.49999999999999h15v1h-15Z" fill="red" opacity="0.7"/><path d="M248.5,39.49999999999999h15v1h-15Z" fill="red" opacity="0.7"/><path d="M264.5,30.61111111111111h15v1h-15Z" fill="red" opacity="0.7"/><path d="M280.5,39.49999999999999h15v1h-15Z" fill="red" opacity="0.7"/><path d="M296.5,30.61111111111111h15v1h-15Z" fill="red" opacity="0.7"/><path d="M312.5,43.94444444444444h15v1h-15Z" fill="red" opacity="0.7"/><path d="M328.5,35.055555555555564h15v1h-15Z" fill="red" opacity="0.7"/><path d="M344.5,30.61111111111111h15v1h-15Z" fill="red" opacity="0.7"/><path d="M360.5,30.61111111111111h15v1h-15Z" fill="red" opacity="0.7"/><path d="M376.5,35.055555555555564h15v1h-15Z" fill="red" opacity="0.7"/><path d="M392.5,61.72222222222222h15v1h-15Z" fill="red" opacity="0.7"/><path d="M408.5,30.61111111111111h15v1h-15Z" fill="red" opacity="0.7"/><path d="M424.5,26.16666666666666h15v1h-15Z" fill="red" opacity="0.7"/><path d="M440.50000000000006,30.61111111111111h15v1h-15Z" fill="red" opacity="0.7"/><path d="M456.49999999999994,48.38888888888889h15v1h-15Z" fill="red" opacity="0.7"/><path d="M472.5,30.61111111111111h15v1h-15Z" fill="red" opacity="0.7"/><path d="M488.5,39.49999999999999h15v1h-15Z" fill="red" opacity="0.7"/><path d="M504.5,57.27777777777777h15v1h-15Z" fill="red" opacity="0.7"/><path d="M520.5,26.16666666666666h15v1h-15Z" fill="red" opacity="0.7"/><path d="M536.5,39.49999999999999h15v1h-15Z" fill="red" opacity="0.7"/><path d="M552.5,30.61111111111111h15v1h-15Z" fill="red" opacity="0.7"/><path d="M568.5,35.055555555555564h15v1h-15Z" fill="red" opacity="0.7"/><path d="M584.5,39.49999999999999h15v1h-15Z" fill="red" opacity="0.7"/><path d="M600.5,26.16666666666666h15v1h-15Z" fill="red" opacity="0.7"/><path d="M616.5,39.49999999999999h15v1h-15Z" fill="red" opacity="0.7"/><path d="M632.5,35.055555555555564h15v1h-15Z" fill="red" opacity="0.7"/><path d="M648.5,35.055555555555564h15v1h-15Z" fill="red" opacity="0.7"/><path d="M664.5,30.61111111111111h15v1h-15Z" fill="red" opacity="0.7"/><path d="M680.5,39.49999999999999h15v1h-15Z" fill="red" opacity="0.7"/><path d="M696.5,48.38888888888889h15v1h-15Z" fill="red" opacity="0.7"/><path d="M712.5,48.38888888888889h15v1h-15Z" fill="red" opacity="0.7"/><path d="M728.5,39.49999999999999h15v1h-15Z" fill="red" opacity="0.7"/><path d="M744.5,30.61111111111111h15v1h-15Z" fill="red" opacity="0.7"/><path d="M760.5,30.61111111111111h15v1h-15Z" fill="red" opacity="0.7"/><path d="M776.5,35.055555555555564h15v1h-15Z" fill="red" opacity="0.7"/></g><g class="mark-rule role-mark layer_1_marks" role="graphics-symbol" aria-roledescription="rule mark container"><line transform="translate(0,57.77777777777777)" x2="0" y2="-6.666666666666664" stroke="green" stroke-width="10" opacity="0.5"/><line transform="translate(16,53.33333333333334)" x2="0" y2="-8.8888888888889" stroke="green" stroke-width="10" opacity="0.5"/><line transform="translate(32,57.77777777777777)" x2="0" y2="-6.666666666666664" stroke="green" stroke-width="10" opacity="0.5"/><line transform="translate(48,37.77777777777778)" x2="0" y2="-6.666666666666668" stroke="green" stroke-width="10" opacity="0.5"/><line transform="translate(64,60.00000000000001)" x2="0" y2="-22.22222222222223" stroke="green" stroke-width="10" opacity="0.5"/><line transform="translate(80,35.555555555555564)" x2="0" y2="0" stroke="green" stroke-width="10" opacity="0.5"/><line transform="translate(96,66.66666666666667)" x2="0" y2="-15.555555555555564" stroke="green" stroke-width="10" opacity="0.5"/><line transform="translate(112.00000000000001,42.22222222222223)" x2="0" y2="-4.44444444444445" stroke="green" stroke-width="10" opacity="0.5"/><line transform="translate(128,39.99999999999999)" x2="0" y2="-4.444444444444429" stroke="green" stroke-width="10" opacity="0.5"/><line transform="translate(144,39.99999999999999)" x2="0" y2="-8.888888888888882" stroke="green" stroke-width="10" opacity="0.5"/><line transform="translate(160,39.99999999999999)" x2="0" y2="-2.2222222222222143" stroke="green" stroke-width="10" opacity="0.5"/><line transform="translate(176,46.66666666666666)" x2="0" y2="-11.111111111111093" stroke="green" stroke-width="10" opacity="0.5"/><line transform="translate(192,39.99999999999999)" x2="0" y2="-8.888888888888882" stroke="green" stroke-width="10" opacity="0.5"/><line transform="translate(208,55.55555555555556)" x2="0" y2="-17.77777777777778" stroke="green" stroke-width="10" opacity="0.5"/><line transform="translate(224.00000000000003,35.555555555555564)" x2="0" y2="0" stroke="green" stroke-width="10" opacity="0.5"/><line transform="translate(240,39.99999999999999)" x2="0" y2="-2.2222222222222143" stroke="green" stroke-width="10" opacity="0.5"/><line transform="translate(256,39.99999999999999)" x2="0" y2="-6.666666666666664" stroke="green" stroke-width="10" opacity="0.5"/><line transform="translate(272,33.33333333333333)" x2="0" y2="-4.444444444444432" stroke="green" stroke-width="10" opacity="0.5"/><line transform="translate(288,42.22222222222223)" x2="0" y2="-6.666666666666664" stroke="green" stroke-width="10" opacity="0.5"/><line transform="translate(304,33.33333333333333)" x2="0" y2="-4.444444444444432" stroke="green" stroke-width="10" opacity="0.5"/><line transform="translate(320,44.44444444444444)" x2="0" y2="-6.666666666666664" stroke="green" stroke-width="10" opacity="0.5"/><line transform="translate(336,51.11111111111111)" x2="0" y2="-17.77777777777778" stroke="green" stroke-width="10" opacity="0.5"/><line transform="translate(352,39.99999999999999)" x2="0" y2="-11.111111111111097" stroke="green" stroke-width="10" opacity="0.5"/><line transform="translate(368,39.99999999999999)" x2="0" y2="-11.111111111111097" stroke="green" stroke-width="10" opacity="0.5"/><line transform="translate(384,39.99999999999999)" x2="0" y2="-8.888888888888882" stroke="green" stroke-width="10" opacity="0.5"/><line transform="translate(400,68.88888888888889)" x2="0" y2="-17.77777777777778" stroke="green" stroke-width="10" opacity="0.5"/><line transform="translate(416,33.33333333333333)" x2="0" y2="-2.222222222222218" stroke="green" stroke-width="10" opacity="0.5"/><line transform="translate(432,28.888888888888896)" x2="0" y2="-2.2222222222222356" stroke="green" stroke-width="10" opacity="0.5"/><line transform="translate(448.00000000000006,35.555555555555564)" x2="0" y2="-6.666666666666668" stroke="green" stroke-width="10" opacity="0.5"/><line transform="translate(463.99999999999994,64.44444444444444)" x2="0" y2="-26.666666666666664" stroke="green" stroke-width="10" opacity="0.5"/><line transform="translate(480,31.11111111111111)" x2="0" y2="0" stroke="green" stroke-width="10" opacity="0.5"/><line transform="translate(496,39.99999999999999)" x2="0" y2="-2.2222222222222143" stroke="green" stroke-width="10" opacity="0.5"/><line transform="translate(512,62.22222222222222)" x2="0" y2="-11.111111111111114" stroke="green" stroke-width="10" opacity="0.5"/><line transform="translate(528,60.00000000000001)" x2="0" y2="-33.33333333333334" stroke="green" stroke-width="10" opacity="0.5"/><line transform="translate(544,42.22222222222223)" x2="0" y2="-8.8888888888889" stroke="green" stroke-width="10" opacity="0.5"/><line transform="translate(560,48.88888888888889)" x2="0" y2="-17.777777777777782" stroke="green" stroke-width="10" opacity="0.5"/><line transform="translate(576,37.77777777777778)" x2="0" y2="-11.111111111111118" stroke="green" stroke-width="10" opacity="0.5"/><line transform="translate(592,39.99999999999999)" x2="0" y2="-2.2222222222222143" stroke="green" stroke-width="10" opacity="0.5"/><line transform="translate(608,42.22222222222223)" x2="0" y2="-15.555555555555568" stroke="green" stroke-width="10" opacity="0.5"/><line transform="translate(624,46.66666666666666)" x2="0" y2="-11.111111111111093" stroke="green" stroke-width="10" opacity="0.5"/><line transform="translate(640,37.77777777777778)" x2="0" y2="-2.2222222222222143" stroke="green" stroke-width="10" opacity="0.5"/><line transform="translate(656,46.66666666666666)" x2="0" y2="-11.111111111111093" stroke="green" stroke-width="10" opacity="0.5"/><line transform="translate(672,31.11111111111111)" x2="0" y2="0" stroke="green" stroke-width="10" opacity="0.5"/><line transform="translate(688,66.66666666666667)" x2="0" y2="-33.33333333333334" stroke="green" stroke-width="10" opacity="0.5"/><line transform="translate(704,55.55555555555556)" x2="0" y2="-13.333333333333329" stroke="green" stroke-width="10" opacity="0.5"/><line transform="translate(720,48.88888888888889)" x2="0" y2="-4.44444444444445" stroke="green" stroke-width="10" opacity="0.5"/><line transform="translate(736,42.22222222222223)" x2="0" y2="-6.666666666666664" stroke="green" stroke-width="10" opacity="0.5"/><line transform="translate(752,46.66666666666666)" x2="0" y2="-15.555555555555546" stroke="green" stroke-width="10" opacity="0.5"/><line transform="translate(768,31.11111111111111)" x2="0" y2="0" stroke="green" stroke-width="10" opacity="0.5"/><line transform="translate(784,35.555555555555564)" x2="0" y2="-4.4444444444444535" stroke="green" stroke-width="10" opacity="0.5"/></g><g class="mark-rule role-mark layer_2_marks" role="graphics-symbol" aria-roledescription="rule mark container"><line transform="translate(0,62.22222222222222)" x2="0" y2="-13.333333333333329" stroke="black"/><line transform="translate(16,62.22222222222222)" x2="0" y2="-17.77777777777778" stroke="black"/><line transform="translate(32,57.77777777777777)" x2="0" y2="-13.333333333333329" stroke="black"/><line transform="translate(48,39.99999999999999)" x2="0" y2="-13.333333333333332" stroke="black"/><line transform="translate(64,80)" x2="0" y2="-44.444444444444436" stroke="black"/><line transform="translate(80,35.555555555555564)" x2="0" y2="0" stroke="black"/><line transform="translate(96,66.66666666666667)" x2="0" y2="-31.111111111111107" stroke="black"/><line transform="translate(112.00000000000001,44.44444444444444)" x2="0" y2="-8.888888888888879" stroke="black"/><line transform="translate(128,39.99999999999999)" x2="0" y2="-8.888888888888882" stroke="black"/><line transform="translate(144,44.44444444444444)" x2="0" y2="-17.777777777777782" stroke="black"/><line transform="translate(160,39.99999999999999)" x2="0" y2="-4.444444444444429" stroke="black"/><line transform="translate(176,57.77777777777777)" x2="0" y2="-22.222222222222207" stroke="black"/><line transform="translate(192,44.44444444444444)" x2="0" y2="-17.777777777777782" stroke="black"/><line transform="translate(208,66.66666666666667)" x2="0" y2="-35.55555555555556" stroke="black"/><line transform="translate(224.00000000000003,35.555555555555564)" x2="0" y2="0" stroke="black"/><line transform="translate(240,39.99999999999999)" x2="0" y2="-4.444444444444429" stroke="black"/><line transform="translate(256,39.99999999999999)" x2="0" y2="-13.333333333333332" stroke="black"/><line transform="translate(272,35.555555555555564)" x2="0" y2="-8.888888888888903" stroke="black"/><line transform="translate(288,44.44444444444444)" x2="0" y2="-13.333333333333332" stroke="black"/><line transform="translate(304,35.555555555555564)" x2="0" y2="-8.888888888888903" stroke="black"/><line transform="translate(320,44.44444444444444)" x2="0" y2="-13.333333333333332" stroke="black"/><line transform="translate(336,66.66666666666667)" x2="0" y2="-35.55555555555556" stroke="black"/><line transform="translate(352,48.88888888888889)" x2="0" y2="-22.222222222222232" stroke="black"/><line transform="translate(368,48.88888888888889)" x2="0" y2="-22.222222222222232" stroke="black"/><line transform="translate(384,44.44444444444444)" x2="0" y2="-17.777777777777782" stroke="black"/><line transform="translate(400,75.55555555555556)" x2="0" y2="-35.555555555555564" stroke="black"/><line transform="translate(416,35.555555555555564)" x2="0" y2="-4.4444444444444535" stroke="black"/><line transform="translate(432,31.11111111111111)" x2="0" y2="-4.44444444444445" stroke="black"/><line transform="translate(448.00000000000006,39.99999999999999)" x2="0" y2="-13.333333333333332" stroke="black"/><line transform="translate(463.99999999999994,80)" x2="0" y2="-53.33333333333334" stroke="black"/><line transform="translate(480,31.11111111111111)" x2="0" y2="0" stroke="black"/><line transform="translate(496,39.99999999999999)" x2="0" y2="-4.444444444444429" stroke="black"/><line transform="translate(512,66.66666666666667)" x2="0" y2="-22.22222222222223" stroke="black"/><line transform="translate(528,93.33333333333333)" x2="0" y2="-66.66666666666667" stroke="black"/><line transform="translate(544,44.44444444444444)" x2="0" y2="-17.777777777777782" stroke="black"/><line transform="translate(560,66.66666666666667)" x2="0" y2="-35.55555555555556" stroke="black"/><line transform="translate(576,39.99999999999999)" x2="0" y2="-22.22222222222221" stroke="black"/><line transform="translate(592,39.99999999999999)" x2="0" y2="-4.444444444444429" stroke="black"/><line transform="translate(608,57.77777777777777)" x2="0" y2="-31.11111111111111" stroke="black"/><line transform="translate(624,53.33333333333334)" x2="0" y2="-22.222222222222232" stroke="black"/><line transform="translate(640,39.99999999999999)" x2="0" y2="-4.444444444444429" stroke="black"/><line transform="translate(656,57.77777777777777)" x2="0" y2="-22.222222222222207" stroke="black"/><line transform="translate(672,31.11111111111111)" x2="0" y2="0" stroke="black"/><line transform="translate(688,93.33333333333333)" x2="0" y2="-66.66666666666667" stroke="black"/><line transform="translate(704,62.22222222222222)" x2="0" y2="-26.666666666666657" stroke="black"/><line transform="translate(720,48.88888888888889)" x2="0" y2="-8.8888888888889" stroke="black"/><line transform="translate(736,44.44444444444444)" x2="0" y2="-13.333333333333332" stroke="black"/><line transform="translate(752,62.22222222222222)" x2="0" y2="-31.11111111111111" stroke="black"/><line transform="translate(768,31.11111111111111)" x2="0" y2="0" stroke="black"/><line transform="translate(784,35.555555555555564)" x2="0" y2="-8.888888888888903" stroke="black"/></g></g><path class="foreground" aria-hidden="true" d="" display="none"/></g></g></g></svg>