<?xml version="1.0" encoding="utf-8"?>
<svg version="1.2" baseProfile="tiny" id="Layer_1" xmlns="http://www.w3.org/2000/svg" xmlns:xlink="http://www.w3.org/1999/xlink"
	 x="0px" y="0px" width="1013px" height="413px" viewBox="0 0 1013 413" xml:space="preserve">
<polygon points="244.7,191.3 252.5,177.9 260.2,191.3 "/>
<path fill="none" stroke="#FF00FF" stroke-width="3" d="M106.7,367.8c47.2-25.4,104.3-246.3,176.6-178.7
	c33.5,31.4,83.3,199.3,149.7,112.9c29-37.7,46.6-155.9,108.4-155.9"/>
<path fill="none" stroke="#FF00FF" stroke-width="3" d="M976,367.8c-47.2-25.4-104.3-246.3-176.6-178.7
	c-33.5,31.4-83.3,199.3-149.7,112.9c-29-37.7-46.6-155.9-108.4-155.9"/>
<line fill="none" stroke="#000000" stroke-width="3" x1="35.1" y1="367.8" x2="1000" y2="367.8"/>
<line fill="none" stroke="#000000" stroke-width="3" x1="105.5" y1="367.8" x2="105.5" y2="380.3"/>
<line fill="none" stroke="#000000" stroke-width="3" x1="252.5" y1="367.8" x2="252.5" y2="380.3"/>
<line fill="none" stroke="#000000" stroke-width="3" x1="394.8" y1="368.6" x2="394.8" y2="381.1"/>
<line fill="none" stroke="#000000" stroke-width="3" x1="977.2" y1="380.9" x2="977.2" y2="368.4"/>
<line fill="none" stroke="#000000" stroke-width="3" x1="832.6" y1="380.9" x2="832.6" y2="368.4"/>
<line fill="none" stroke="#000000" stroke-width="3" x1="687.9" y1="381.1" x2="687.9" y2="368.6"/>
<line fill="none" stroke="#000000" stroke-width="3" x1="541.3" y1="380.3" x2="541.3" y2="367.8"/>
<line fill="none" stroke="#000000" stroke-width="3" x1="252.5" y1="191.3" x2="252.5" y2="260.8"/>
<line fill="none" stroke="#000000" stroke-width="3" x1="541.3" y1="161.4" x2="541.3" y2="246.1"/>
<line fill="none" stroke="#000000" stroke-width="3" x1="394.8" y1="352.5" x2="394.8" y2="341.6"/>
<polygon points="387,341.6 394.8,328.2 402.5,341.6 "/>
<polygon points="533.5,352.5 541.3,366 549,352.5 "/>
<polygon points="533.5,161.4 541.3,147.9 549,161.4 "/>
<g>
	<path d="M532.1,399.5c0-3,0.3-5.4,0.9-7.2s1.5-3.2,2.7-4.2c1.2-1,2.7-1.5,4.6-1.5c1.4,0,2.5,0.3,3.6,0.8c1,0.5,1.9,1.3,2.5,2.4
		c0.7,1,1.2,2.3,1.6,3.7s0.6,3.5,0.6,6c0,3-0.3,5.3-0.9,7.2s-1.5,3.2-2.7,4.2c-1.2,1-2.7,1.5-4.6,1.5c-2.4,0-4.3-0.9-5.7-2.6
		C532.9,407.7,532.1,404.3,532.1,399.5z M535.3,399.5c0,4.1,0.5,6.9,1.5,8.3c1,1.4,2.2,2.1,3.6,2.1c1.4,0,2.6-0.7,3.6-2.1
		c1-1.4,1.5-4.1,1.5-8.2c0-4.1-0.5-6.9-1.5-8.3c-1-1.4-2.2-2-3.6-2c-1.4,0-2.6,0.6-3.4,1.8C535.8,392.6,535.3,395.4,535.3,399.5z"/>
	<path d="M552.4,391.1c0-1.3,0.5-2.4,1.4-3.4s2.1-1.4,3.4-1.4c1.3,0,2.5,0.5,3.4,1.4s1.4,2.1,1.4,3.4c0,1.3-0.5,2.4-1.4,3.4
		c-0.9,0.9-2.1,1.4-3.4,1.4c-1.3,0-2.4-0.5-3.4-1.4S552.4,392.4,552.4,391.1z M554.3,391.1c0,0.8,0.3,1.5,0.9,2.1
		c0.6,0.6,1.3,0.9,2.1,0.9c0.8,0,1.5-0.3,2-0.9c0.6-0.6,0.9-1.3,0.9-2.1c0-0.8-0.3-1.5-0.9-2.1c-0.6-0.6-1.2-0.9-2-0.9
		c-0.8,0-1.5,0.3-2.1,0.9C554.6,389.6,554.3,390.3,554.3,391.1z"/>
</g>
<g>
	<g>
		<path fill="#0000FF" d="M402.2,146.8l1.7,0.4c-0.4,1.4-1,2.5-2,3.3c-0.9,0.8-2.1,1.1-3.5,1.1c-1.4,0-2.6-0.3-3.5-0.9
			s-1.6-1.4-2-2.5s-0.7-2.3-0.7-3.5c0-1.4,0.3-2.6,0.8-3.6c0.5-1,1.3-1.8,2.2-2.3c1-0.5,2-0.8,3.2-0.8c1.3,0,2.4,0.3,3.3,1
			c0.9,0.7,1.5,1.6,1.9,2.8l-1.7,0.4c-0.3-1-0.7-1.7-1.3-2.1s-1.3-0.7-2.2-0.7c-1,0-1.9,0.2-2.5,0.7c-0.7,0.5-1.2,1.1-1.4,2
			c-0.3,0.8-0.4,1.7-0.4,2.5c0,1.1,0.2,2.1,0.5,2.9c0.3,0.8,0.8,1.5,1.5,1.9s1.4,0.6,2.2,0.6c1,0,1.8-0.3,2.5-0.8
			C401.5,148.7,402,147.9,402.2,146.8z"/>
		<path fill="#0000FF" d="M407,151.4v-13.2h1.7v5.4h6.8v-5.4h1.7v13.2h-1.7v-6.2h-6.8v6.2H407z"/>
	</g>
	<g>
		<path fill="#0000FF" d="M420.3,153l1.2-0.2c0.1,0.7,0.4,1.2,0.7,1.5s0.8,0.5,1.3,0.5c0.6,0,1.1-0.2,1.5-0.6
			c0.4-0.4,0.6-0.9,0.6-1.5c0-0.6-0.2-1-0.6-1.4c-0.4-0.4-0.8-0.6-1.4-0.6c-0.2,0-0.5,0-0.9,0.1l0.1-1.1c0.1,0,0.1,0,0.2,0
			c0.5,0,1-0.1,1.4-0.4c0.4-0.3,0.6-0.7,0.6-1.3c0-0.5-0.2-0.8-0.5-1.1c-0.3-0.3-0.7-0.4-1.2-0.4c-0.5,0-0.9,0.2-1.2,0.5
			c-0.3,0.3-0.5,0.8-0.6,1.4l-1.2-0.2c0.2-0.8,0.5-1.5,1-1.9s1.2-0.7,2-0.7c0.6,0,1.1,0.1,1.5,0.4c0.5,0.2,0.8,0.6,1.1,1
			c0.2,0.4,0.4,0.8,0.4,1.3c0,0.4-0.1,0.8-0.4,1.2c-0.2,0.4-0.6,0.6-1,0.9c0.6,0.1,1.1,0.4,1.4,0.9c0.3,0.4,0.5,1,0.5,1.6
			c0,0.9-0.3,1.6-1,2.2c-0.6,0.6-1.5,0.9-2.4,0.9c-0.9,0-1.6-0.3-2.2-0.8C420.7,154.5,420.4,153.8,420.3,153z"/>
	</g>
	
		<line fill="none" stroke="#000000" stroke-width="3" stroke-linecap="round" stroke-miterlimit="2" x1="398.6" y1="195" x2="398.6" y2="154.9"/>
	<g>
		<path d="M344.7,236.2v-13.2h1.7v5.4h6.8v-5.4h1.7v13.2h-1.7V230h-6.8v6.2H344.7z"/>
	</g>
	
		<line fill="none" stroke="#000000" stroke-width="3" stroke-linecap="round" stroke-miterlimit="2" x1="393.7" y1="203.1" x2="359.2" y2="223"/>
	<g>
		<path d="M442.4,236.2v-13.2h1.7v5.4h6.8v-5.4h1.7v13.2H451V230h-6.8v6.2H442.4z"/>
	</g>
	
		<line fill="none" stroke="#000000" stroke-width="3" stroke-linecap="round" stroke-miterlimit="2" x1="403.7" y1="203.1" x2="438" y2="222.9"/>
	<path fill-rule="evenodd" fill="#FFFFFF" d="M432.6,200.3c0,18.7-15.2,33.9-34,33.9c-18.8,0-34-15.2-34-33.9
		c0-18.7,15.2-33.9,34-33.9C417.4,166.3,432.6,181.5,432.6,200.3"/>
	<path fill="none" stroke="#000000" stroke-width="3" stroke-miterlimit="2" d="M432.6,200.3c0,18.7-15.2,33.9-34,33.9
		c-18.8,0-34-15.2-34-33.9c0-18.7,15.2-33.9,34-33.9C417.4,166.3,432.6,181.5,432.6,200.3"/>
	<g>
		<path fill="#FF0000" d="M322.1,179.7v-13.2h1.7v5.4h6.8v-5.4h1.7v13.2h-1.7v-6.2h-6.8v6.2H322.1z"/>
	</g>
	<g>
		<path fill="#FF0000" d="M335.4,181.2l1.2-0.2c0.1,0.7,0.4,1.2,0.7,1.5s0.8,0.5,1.3,0.5c0.6,0,1.1-0.2,1.5-0.6
			c0.4-0.4,0.6-0.9,0.6-1.5c0-0.6-0.2-1-0.6-1.4c-0.4-0.4-0.8-0.6-1.4-0.6c-0.2,0-0.5,0-0.9,0.1l0.1-1.1c0.1,0,0.1,0,0.2,0
			c0.5,0,1-0.1,1.4-0.4c0.4-0.3,0.6-0.7,0.6-1.3c0-0.5-0.2-0.8-0.5-1.1c-0.3-0.3-0.7-0.4-1.2-0.4c-0.5,0-0.9,0.2-1.2,0.5
			c-0.3,0.3-0.5,0.8-0.6,1.4l-1.2-0.2c0.2-0.8,0.5-1.5,1-1.9s1.2-0.7,2-0.7c0.6,0,1.1,0.1,1.5,0.4c0.5,0.2,0.8,0.6,1.1,1
			c0.2,0.4,0.4,0.8,0.4,1.3c0,0.4-0.1,0.8-0.4,1.2c-0.2,0.4-0.6,0.6-1,0.9c0.6,0.1,1.1,0.4,1.4,0.9c0.3,0.4,0.5,1,0.5,1.6
			c0,0.9-0.3,1.6-1,2.2c-0.6,0.6-1.5,0.9-2.4,0.9c-0.9,0-1.6-0.3-2.2-0.8C335.8,182.8,335.4,182.1,335.4,181.2z"/>
	</g>
	<g>
		<path fill="#FF0000" d="M354.1,175.1l1.7,0.4c-0.4,1.4-1,2.5-2,3.3c-0.9,0.8-2.1,1.1-3.5,1.1c-1.4,0-2.6-0.3-3.5-0.9
			s-1.6-1.4-2-2.5s-0.7-2.3-0.7-3.5c0-1.4,0.3-2.6,0.8-3.6c0.5-1,1.3-1.8,2.2-2.3c1-0.5,2-0.8,3.2-0.8c1.3,0,2.4,0.3,3.3,1
			c0.9,0.7,1.5,1.6,1.9,2.8l-1.7,0.4c-0.3-1-0.7-1.7-1.3-2.1s-1.3-0.7-2.2-0.7c-1,0-1.9,0.2-2.5,0.7c-0.7,0.5-1.2,1.1-1.4,2
			c-0.3,0.8-0.4,1.7-0.4,2.5c0,1.1,0.2,2.1,0.5,2.9c0.3,0.8,0.8,1.5,1.5,1.9s1.4,0.6,2.2,0.6c1,0,1.8-0.3,2.5-0.8
			C353.4,177,353.9,176.2,354.1,175.1z"/>
	</g>
	
		<line fill="none" stroke="#000000" stroke-width="3" stroke-linecap="round" stroke-miterlimit="2" x1="358.8" y1="177.6" x2="398.6" y2="200.5"/>
	<g>
		<path d="M392.9,264.5v-13.2h1.7v5.4h6.8v-5.4h1.7v13.2h-1.7v-6.2h-6.8v6.2H392.9z"/>
	</g>
	
		<line fill="none" stroke="#000000" stroke-width="3" stroke-linecap="round" stroke-miterlimit="2" x1="398.6" y1="200.5" x2="398.6" y2="247.4"/>
	<g>
		<path d="M442.4,179.7v-13.2h1.7v5.4h6.8v-5.4h1.7v13.2H451v-6.2h-6.8v6.2H442.4z"/>
	</g>
	
		<line fill="none" stroke="#000000" stroke-width="3" stroke-linecap="round" stroke-miterlimit="2" x1="398.6" y1="200.5" x2="437.4" y2="178.2"/>
	<g>
		<path fill="#0000FF" d="M545,50.7l1.7,0.4c-0.4,1.4-1,2.5-2,3.3c-0.9,0.8-2.1,1.1-3.5,1.1c-1.4,0-2.6-0.3-3.5-0.9s-1.6-1.4-2-2.5
			s-0.7-2.3-0.7-3.5c0-1.4,0.3-2.6,0.8-3.6c0.5-1,1.3-1.8,2.2-2.3c1-0.5,2-0.8,3.2-0.8c1.3,0,2.4,0.3,3.3,1c0.9,0.7,1.5,1.6,1.9,2.8
			l-1.7,0.4c-0.3-1-0.7-1.7-1.3-2.1s-1.3-0.7-2.2-0.7c-1,0-1.9,0.2-2.5,0.7c-0.7,0.5-1.2,1.1-1.4,2c-0.3,0.8-0.4,1.7-0.4,2.5
			c0,1.1,0.2,2.1,0.5,2.9c0.3,0.8,0.8,1.5,1.5,1.9s1.4,0.6,2.2,0.6c1,0,1.8-0.3,2.5-0.8C544.3,52.6,544.8,51.8,545,50.7z"/>
		<path fill="#0000FF" d="M549.8,55.3V42.2h1.7v5.4h6.8v-5.4h1.7v13.2h-1.7v-6.2h-6.8v6.2H549.8z"/>
	</g>
	<g>
		<path fill="#0000FF" d="M561.7,55.5l1.2-0.2c0.1,0.7,0.4,1.2,0.7,1.5s0.8,0.5,1.3,0.5c0.6,0,1.1-0.2,1.5-0.6
			c0.4-0.4,0.6-0.9,0.6-1.5c0-0.6-0.2-1-0.6-1.4c-0.4-0.4-0.8-0.6-1.4-0.6c-0.2,0-0.5,0-0.9,0.1l0.1-1.1c0.1,0,0.1,0,0.2,0
			c0.5,0,1-0.1,1.4-0.4c0.4-0.3,0.6-0.7,0.6-1.3c0-0.5-0.2-0.8-0.5-1.1c-0.3-0.3-0.7-0.4-1.2-0.4c-0.5,0-0.9,0.2-1.2,0.5
			c-0.3,0.3-0.5,0.8-0.6,1.4l-1.2-0.2c0.2-0.8,0.5-1.5,1-1.9s1.2-0.7,2-0.7c0.6,0,1.1,0.1,1.5,0.4c0.5,0.2,0.8,0.6,1.1,1
			c0.2,0.4,0.4,0.8,0.4,1.3c0,0.4-0.1,0.8-0.4,1.2c-0.2,0.4-0.6,0.6-1,0.9c0.6,0.1,1.1,0.4,1.4,0.9c0.3,0.4,0.5,1,0.5,1.6
			c0,0.9-0.3,1.6-1,2.2c-0.6,0.6-1.5,0.9-2.4,0.9c-0.9,0-1.6-0.3-2.2-0.8C562.1,57,561.7,56.3,561.7,55.5z"/>
	</g>
	
		<line fill="none" stroke="#000000" stroke-width="3" stroke-linecap="round" stroke-miterlimit="2" x1="541" y1="87.4" x2="541" y2="58.2"/>
	<g>
		<path d="M486.1,140.1V127h1.7v5.4h6.8V127h1.7v13.2h-1.7v-6.2h-6.8v6.2H486.1z"/>
	</g>
	
		<line fill="none" stroke="#000000" stroke-width="3" stroke-linecap="round" stroke-miterlimit="2" x1="528.3" y1="110.9" x2="501.5" y2="126.3"/>
	<g>
		<path d="M585.2,140.1V127h1.7v5.4h6.8V127h1.7v13.2h-1.7v-6.2h-6.8v6.2H585.2z"/>
	</g>
	
		<line fill="none" stroke="#000000" stroke-width="3" stroke-linecap="round" stroke-miterlimit="2" x1="556.3" y1="112.4" x2="580.3" y2="126.3"/>
	<path fill-rule="evenodd" fill="#FFFFFF" d="M575,103.5c0,18.7-15.2,33.9-34,33.9c-18.8,0-34-15.2-34-33.9
		c0-18.7,15.2-33.9,34-33.9C559.7,69.6,575,84.8,575,103.5"/>
	<path fill="none" stroke="#000000" stroke-width="3" stroke-miterlimit="2" d="M575,103.5c0,18.7-15.2,33.9-34,33.9
		c-18.8,0-34-15.2-34-33.9c0-18.7,15.2-33.9,34-33.9C559.7,69.6,575,84.8,575,103.5"/>
	<g>
		<path d="M497.4,152.9v-13.2h1.7v5.4h6.8v-5.4h1.7v13.2H506v-6.2h-6.8v6.2H497.4z"/>
	</g>
	
		<line fill="none" stroke="#000000" stroke-width="3" stroke-linecap="round" stroke-miterlimit="2" x1="541.1" y1="104" x2="510.5" y2="137.1"/>
	<g>
		<path d="M590.9,124.6v-13.2h1.7v5.4h6.8v-5.4h1.7v13.2h-1.7v-6.2h-6.8v6.2H590.9z"/>
	</g>
	
		<line fill="none" stroke="#000000" stroke-width="3" stroke-linecap="round" stroke-miterlimit="2" x1="541.1" y1="104" x2="586.6" y2="114.6"/>
	<g>
		<path fill="#FF0000" d="M497.4,58.1V45h1.7v5.4h6.8V45h1.7v13.2H506v-6.2h-6.8v6.2H497.4z"/>
	</g>
	<g>
		<path fill="#FF0000" d="M510.7,59.7l1.2-0.2c0.1,0.7,0.4,1.2,0.7,1.5s0.8,0.5,1.3,0.5c0.6,0,1.1-0.2,1.5-0.6
			c0.4-0.4,0.6-0.9,0.6-1.5c0-0.6-0.2-1-0.6-1.4c-0.4-0.4-0.8-0.6-1.4-0.6c-0.2,0-0.5,0-0.9,0.1l0.1-1.1c0.1,0,0.1,0,0.2,0
			c0.5,0,1-0.1,1.4-0.4c0.4-0.3,0.6-0.7,0.6-1.3c0-0.5-0.2-0.8-0.5-1.1c-0.3-0.3-0.7-0.4-1.2-0.4c-0.5,0-0.9,0.2-1.2,0.5
			c-0.3,0.3-0.5,0.8-0.6,1.4l-1.2-0.2c0.2-0.8,0.5-1.5,1-1.9s1.2-0.7,2-0.7c0.6,0,1.1,0.1,1.5,0.4c0.5,0.2,0.8,0.6,1.1,1
			c0.2,0.4,0.4,0.8,0.4,1.3c0,0.4-0.1,0.8-0.4,1.2c-0.2,0.4-0.6,0.6-1,0.9c0.6,0.1,1.1,0.4,1.4,0.9c0.3,0.4,0.5,1,0.5,1.6
			c0,0.9-0.3,1.6-1,2.2c-0.6,0.6-1.5,0.9-2.4,0.9c-0.9,0-1.6-0.3-2.2-0.8C511.1,61.2,510.8,60.5,510.7,59.7z"/>
	</g>
	<g>
		<path fill="#FF0000" d="M529.4,53.5l1.7,0.4c-0.4,1.4-1,2.5-2,3.3c-0.9,0.8-2.1,1.1-3.5,1.1c-1.4,0-2.6-0.3-3.5-0.9
			s-1.6-1.4-2-2.5s-0.7-2.3-0.7-3.5c0-1.4,0.3-2.6,0.8-3.6c0.5-1,1.3-1.8,2.2-2.3c1-0.5,2-0.8,3.2-0.8c1.3,0,2.4,0.3,3.3,1
			c0.9,0.7,1.5,1.6,1.9,2.8l-1.7,0.4c-0.3-1-0.7-1.7-1.3-2.1s-1.3-0.7-2.2-0.7c-1,0-1.9,0.2-2.5,0.7c-0.7,0.5-1.2,1.1-1.4,2
			c-0.3,0.8-0.4,1.7-0.4,2.5c0,1.1,0.2,2.1,0.5,2.9c0.3,0.8,0.8,1.5,1.5,1.9s1.4,0.6,2.2,0.6c1,0,1.8-0.3,2.5-0.8
			C528.7,55.5,529.2,54.6,529.4,53.5z"/>
	</g>
	
		<line fill="none" stroke="#000000" stroke-width="3" stroke-linecap="round" stroke-miterlimit="2" x1="541.1" y1="104" x2="528.1" y2="61"/>
	<g>
		<path fill="#0000FF" d="M102.1,200.1l1.7,0.4c-0.4,1.4-1,2.5-2,3.3c-0.9,0.8-2.1,1.1-3.5,1.1c-1.4,0-2.6-0.3-3.5-0.9
			s-1.6-1.4-2-2.5s-0.7-2.3-0.7-3.5c0-1.4,0.3-2.6,0.8-3.6c0.5-1,1.3-1.8,2.2-2.3c1-0.5,2-0.8,3.2-0.8c1.3,0,2.4,0.3,3.3,1
			c0.9,0.7,1.5,1.6,1.9,2.8l-1.7,0.4c-0.3-1-0.7-1.7-1.3-2.1s-1.3-0.7-2.2-0.7c-1,0-1.9,0.2-2.5,0.7c-0.7,0.5-1.2,1.1-1.4,2
			c-0.3,0.8-0.4,1.7-0.4,2.5c0,1.1,0.2,2.1,0.5,2.9c0.3,0.8,0.8,1.5,1.5,1.9s1.4,0.6,2.2,0.6c1,0,1.8-0.3,2.5-0.8
			C101.5,202,101.9,201.2,102.1,200.1z"/>
		<path fill="#0000FF" d="M107,204.7v-13.2h1.7v5.4h6.8v-5.4h1.7v13.2h-1.7v-6.2h-6.8v6.2H107z"/>
	</g>
	<g>
		<path fill="#0000FF" d="M120.2,206.3l1.2-0.2c0.1,0.7,0.4,1.2,0.7,1.5s0.8,0.5,1.3,0.5c0.6,0,1.1-0.2,1.5-0.6
			c0.4-0.4,0.6-0.9,0.6-1.5c0-0.6-0.2-1-0.6-1.4c-0.4-0.4-0.8-0.6-1.4-0.6c-0.2,0-0.5,0-0.9,0.1l0.1-1.1c0.1,0,0.1,0,0.2,0
			c0.5,0,1-0.1,1.4-0.4c0.4-0.3,0.6-0.7,0.6-1.3c0-0.5-0.2-0.8-0.5-1.1c-0.3-0.3-0.7-0.4-1.2-0.4c-0.5,0-0.9,0.2-1.2,0.5
			c-0.3,0.3-0.5,0.8-0.6,1.4l-1.2-0.2c0.2-0.8,0.5-1.5,1-1.9s1.2-0.7,2-0.7c0.6,0,1.1,0.1,1.5,0.4c0.5,0.2,0.8,0.6,1.1,1
			c0.2,0.4,0.4,0.8,0.4,1.3c0,0.4-0.1,0.8-0.4,1.2c-0.2,0.4-0.6,0.6-1,0.9c0.6,0.1,1.1,0.4,1.4,0.9c0.3,0.4,0.5,1,0.5,1.6
			c0,0.9-0.3,1.6-1,2.2c-0.6,0.6-1.5,0.9-2.4,0.9c-0.9,0-1.6-0.3-2.2-0.8C120.7,207.8,120.3,207.1,120.2,206.3z"/>
	</g>
	
		<line fill="none" stroke="#000000" stroke-width="3" stroke-linecap="round" stroke-miterlimit="2" x1="98.6" y1="248.3" x2="98.6" y2="208.2"/>
	<g>
		<path d="M44.7,289.5v-13.2h1.7v5.4h6.8v-5.4H55v13.2h-1.7v-6.2h-6.8v6.2H44.7z"/>
	</g>
	
		<line fill="none" stroke="#000000" stroke-width="3" stroke-linecap="round" stroke-miterlimit="2" x1="93.6" y1="256.4" x2="59.1" y2="276.3"/>
	<g>
		<path d="M142.4,289.5v-13.2h1.7v5.4h6.8v-5.4h1.7v13.2h-1.7v-6.2h-6.8v6.2H142.4z"/>
	</g>
	
		<line fill="none" stroke="#000000" stroke-width="3" stroke-linecap="round" stroke-miterlimit="2" x1="103.6" y1="256.4" x2="138" y2="276.2"/>
	<path fill-rule="evenodd" fill="#FFFFFF" d="M132.6,253.5c0,18.7-15.2,33.9-34,33.9c-18.8,0-34-15.2-34-33.9s15.2-33.9,34-33.9
		C117.3,219.6,132.6,234.8,132.6,253.5"/>
	<path fill="none" stroke="#000000" stroke-width="3" stroke-miterlimit="2" d="M132.6,253.5c0,18.7-15.2,33.9-34,33.9
		c-18.8,0-34-15.2-34-33.9s15.2-33.9,34-33.9C117.3,219.6,132.6,234.8,132.6,253.5"/>
	<g>
		<path d="M44.7,233v-13.2h1.7v5.4h6.8v-5.4H55V233h-1.7v-6.2h-6.8v6.2H44.7z"/>
	</g>
	
		<line fill="none" stroke="#000000" stroke-width="3" stroke-linecap="round" stroke-miterlimit="2" x1="59.7" y1="231.4" x2="98.6" y2="253.8"/>
	<g>
		<path fill="#FF0000" d="M102.1,313.2l1.7,0.4c-0.4,1.4-1,2.5-2,3.3c-0.9,0.8-2.1,1.1-3.5,1.1c-1.4,0-2.6-0.3-3.5-0.9
			s-1.6-1.4-2-2.5s-0.7-2.3-0.7-3.5c0-1.4,0.3-2.6,0.8-3.6c0.5-1,1.3-1.8,2.2-2.3c1-0.5,2-0.8,3.2-0.8c1.3,0,2.4,0.3,3.3,1
			c0.9,0.7,1.5,1.6,1.9,2.8l-1.7,0.4c-0.3-1-0.7-1.7-1.3-2.1c-0.6-0.4-1.3-0.7-2.2-0.7c-1,0-1.9,0.2-2.5,0.7c-0.7,0.5-1.2,1.1-1.4,2
			c-0.3,0.8-0.4,1.7-0.4,2.5c0,1.1,0.2,2.1,0.5,2.9c0.3,0.8,0.8,1.5,1.5,1.9c0.7,0.4,1.4,0.6,2.2,0.6c1,0,1.8-0.3,2.5-0.8
			C101.5,315.1,101.9,314.3,102.1,313.2z"/>
		<path fill="#FF0000" d="M107,317.8v-13.2h1.7v5.4h6.8v-5.4h1.7v13.2h-1.7v-6.2h-6.8v6.2H107z"/>
	</g>
	<g>
		<path fill="#FF0000" d="M120.2,319.3l1.2-0.2c0.1,0.7,0.4,1.2,0.7,1.5s0.8,0.5,1.3,0.5c0.6,0,1.1-0.2,1.5-0.6
			c0.4-0.4,0.6-0.9,0.6-1.5c0-0.6-0.2-1-0.6-1.4c-0.4-0.4-0.8-0.6-1.4-0.6c-0.2,0-0.5,0-0.9,0.1l0.1-1.1c0.1,0,0.1,0,0.2,0
			c0.5,0,1-0.1,1.4-0.4c0.4-0.3,0.6-0.7,0.6-1.3c0-0.5-0.2-0.8-0.5-1.1c-0.3-0.3-0.7-0.4-1.2-0.4c-0.5,0-0.9,0.2-1.2,0.5
			c-0.3,0.3-0.5,0.8-0.6,1.4l-1.2-0.2c0.2-0.8,0.5-1.5,1-1.9c0.5-0.5,1.2-0.7,2-0.7c0.6,0,1.1,0.1,1.5,0.4c0.5,0.2,0.8,0.6,1.1,1
			c0.2,0.4,0.4,0.8,0.4,1.3c0,0.4-0.1,0.8-0.4,1.2c-0.2,0.4-0.6,0.6-1,0.9c0.6,0.1,1.1,0.4,1.4,0.9c0.3,0.4,0.5,1,0.5,1.6
			c0,0.9-0.3,1.6-1,2.2c-0.6,0.6-1.5,0.9-2.4,0.9c-0.9,0-1.6-0.3-2.2-0.8C120.7,320.9,120.3,320.2,120.2,319.3z"/>
	</g>
	
		<line fill="none" stroke="#000000" stroke-width="3" stroke-linecap="round" stroke-miterlimit="2" x1="98.6" y1="253.8" x2="98.6" y2="300.3"/>
	<g>
		<path d="M142.4,233v-13.2h1.7v5.4h6.8v-5.4h1.7V233h-1.7v-6.2h-6.8v6.2H142.4z"/>
	</g>
	
		<line fill="none" stroke="#000000" stroke-width="3" stroke-linecap="round" stroke-miterlimit="2" x1="98.6" y1="253.8" x2="137.3" y2="231.5"/>
	<g>
		<path fill="#0000FF" d="M256,75l1.7,0.4c-0.4,1.4-1,2.5-2,3.3c-0.9,0.8-2.1,1.1-3.5,1.1c-1.4,0-2.6-0.3-3.5-0.9s-1.6-1.4-2-2.5
			s-0.7-2.3-0.7-3.5c0-1.4,0.3-2.6,0.8-3.6c0.5-1,1.3-1.8,2.2-2.3c1-0.5,2-0.8,3.2-0.8c1.3,0,2.4,0.3,3.3,1c0.9,0.7,1.5,1.6,1.9,2.8
			l-1.7,0.4c-0.3-1-0.7-1.7-1.3-2.1s-1.3-0.7-2.2-0.7c-1,0-1.9,0.2-2.5,0.7c-0.7,0.5-1.2,1.1-1.4,2c-0.3,0.8-0.4,1.7-0.4,2.5
			c0,1.1,0.2,2.1,0.5,2.9c0.3,0.8,0.8,1.5,1.5,1.9s1.4,0.6,2.2,0.6c1,0,1.8-0.3,2.5-0.8C255.3,77,255.8,76.2,256,75z"/>
		<path fill="#0000FF" d="M260.8,79.7V66.5h1.7v5.4h6.8v-5.4h1.7v13.2h-1.7v-6.2h-6.8v6.2H260.8z"/>
	</g>
	<g>
		<path fill="#0000FF" d="M272.7,79.8l1.2-0.2c0.1,0.7,0.4,1.2,0.7,1.5s0.8,0.5,1.3,0.5c0.6,0,1.1-0.2,1.5-0.6
			c0.4-0.4,0.6-0.9,0.6-1.5c0-0.6-0.2-1-0.6-1.4c-0.4-0.4-0.8-0.6-1.4-0.6c-0.2,0-0.5,0-0.9,0.1l0.1-1.1c0.1,0,0.1,0,0.2,0
			c0.5,0,1-0.1,1.4-0.4c0.4-0.3,0.6-0.7,0.6-1.3c0-0.5-0.2-0.8-0.5-1.1c-0.3-0.3-0.7-0.4-1.2-0.4c-0.5,0-0.9,0.2-1.2,0.5
			c-0.3,0.3-0.5,0.8-0.6,1.4l-1.2-0.2c0.2-0.8,0.5-1.5,1-1.9s1.2-0.7,2-0.7c0.6,0,1.1,0.1,1.5,0.4c0.5,0.2,0.8,0.6,1.1,1
			c0.2,0.4,0.4,0.8,0.4,1.3c0,0.4-0.1,0.8-0.4,1.2c-0.2,0.4-0.6,0.6-1,0.9c0.6,0.1,1.1,0.4,1.4,0.9c0.3,0.4,0.5,1,0.5,1.6
			c0,0.9-0.3,1.6-1,2.2c-0.6,0.6-1.5,0.9-2.4,0.9c-0.9,0-1.6-0.3-2.2-0.8C273.1,81.3,272.8,80.6,272.7,79.8z"/>
	</g>
	
		<line fill="none" stroke="#000000" stroke-width="3" stroke-linecap="round" stroke-miterlimit="2" x1="252" y1="111.7" x2="252" y2="82.6"/>
	<g>
		<path d="M197.1,164.5v-13.2h1.7v5.4h6.8v-5.4h1.7v13.2h-1.7v-6.2h-6.8v6.2H197.1z"/>
	</g>
	
		<line fill="none" stroke="#000000" stroke-width="3" stroke-linecap="round" stroke-miterlimit="2" x1="239.4" y1="135.2" x2="212.5" y2="150.7"/>
	<g>
		<path d="M296.2,164.5v-13.2h1.7v5.4h6.8v-5.4h1.7v13.2h-1.7v-6.2H298v6.2H296.2z"/>
	</g>
	
		<line fill="none" stroke="#000000" stroke-width="3" stroke-linecap="round" stroke-miterlimit="2" x1="267.3" y1="136.7" x2="291.3" y2="150.6"/>
	<path fill-rule="evenodd" fill="#FFFFFF" d="M286,127.9c0,18.7-15.2,33.9-34,33.9s-34-15.2-34-33.9c0-18.7,15.2-33.9,34-33.9
		S286,109.2,286,127.9"/>
	<path fill="none" stroke="#000000" stroke-width="3" stroke-miterlimit="2" d="M286,127.9c0,18.7-15.2,33.9-34,33.9
		s-34-15.2-34-33.9c0-18.7,15.2-33.9,34-33.9S286,109.2,286,127.9"/>
	<g>
		<path fill="#FF0000" d="M187.2,177.2V164h1.7v5.4h6.8V164h1.7v13.2h-1.7V171H189v6.2H187.2z"/>
	</g>
	<g>
		<path fill="#FF0000" d="M199.1,178.8l1.2-0.2c0.1,0.7,0.4,1.2,0.7,1.5s0.8,0.5,1.3,0.5c0.6,0,1.1-0.2,1.5-0.6
			c0.4-0.4,0.6-0.9,0.6-1.5c0-0.6-0.2-1-0.6-1.4c-0.4-0.4-0.8-0.6-1.4-0.6c-0.2,0-0.5,0-0.9,0.1l0.1-1.1c0.1,0,0.1,0,0.2,0
			c0.5,0,1-0.1,1.4-0.4c0.4-0.3,0.6-0.7,0.6-1.3c0-0.5-0.2-0.8-0.5-1.1c-0.3-0.3-0.7-0.4-1.2-0.4c-0.5,0-0.9,0.2-1.2,0.5
			c-0.3,0.3-0.5,0.8-0.6,1.4l-1.2-0.2c0.2-0.8,0.5-1.5,1-1.9s1.2-0.7,2-0.7c0.6,0,1.1,0.1,1.5,0.4c0.5,0.2,0.8,0.6,1.1,1
			c0.2,0.4,0.4,0.8,0.4,1.3c0,0.4-0.1,0.8-0.4,1.2c-0.2,0.4-0.6,0.6-1,0.9c0.6,0.1,1.1,0.4,1.4,0.9c0.3,0.4,0.5,1,0.5,1.6
			c0,0.9-0.3,1.6-1,2.2c-0.6,0.6-1.5,0.9-2.4,0.9c-0.9,0-1.6-0.3-2.2-0.8C199.5,180.3,199.2,179.6,199.1,178.8z"/>
	</g>
	<g>
		<path fill="#FF0000" d="M217.8,172.6l1.7,0.4c-0.4,1.4-1,2.5-2,3.3c-0.9,0.8-2.1,1.1-3.5,1.1c-1.4,0-2.6-0.3-3.5-0.9
			s-1.6-1.4-2-2.5s-0.7-2.3-0.7-3.5c0-1.4,0.3-2.6,0.8-3.6c0.5-1,1.3-1.8,2.2-2.3c1-0.5,2-0.8,3.2-0.8c1.3,0,2.4,0.3,3.3,1
			c0.9,0.7,1.5,1.6,1.9,2.8l-1.7,0.4c-0.3-1-0.7-1.7-1.3-2.1s-1.3-0.7-2.2-0.7c-1,0-1.9,0.2-2.5,0.7c-0.7,0.5-1.2,1.1-1.4,2
			c-0.3,0.8-0.4,1.7-0.4,2.5c0,1.1,0.2,2.1,0.5,2.9c0.3,0.8,0.8,1.5,1.5,1.9s1.4,0.6,2.2,0.6c1,0,1.8-0.3,2.5-0.8
			C217.1,174.5,217.6,173.7,217.8,172.6z"/>
	</g>
	
		<line fill="none" stroke="#000000" stroke-width="3" stroke-linecap="round" stroke-miterlimit="2" x1="252.1" y1="128.3" x2="220.7" y2="162.4"/>
	<g>
		<path d="M301.9,148.9v-13.2h1.7v5.4h6.8v-5.4h1.7v13.2h-1.7v-6.2h-6.8v6.2H301.9z"/>
	</g>
	
		<line fill="none" stroke="#000000" stroke-width="3" stroke-linecap="round" stroke-miterlimit="2" x1="252.1" y1="128.3" x2="297.7" y2="138.9"/>
	<g>
		<path d="M231.1,82.5V69.3h1.7v5.4h6.8v-5.4h1.7v13.2h-1.7v-6.2h-6.8v6.2H231.1z"/>
	</g>
	
		<line fill="none" stroke="#000000" stroke-width="3" stroke-linecap="round" stroke-miterlimit="2" x1="252.1" y1="128.3" x2="239.4" y2="86.1"/>
	<g>
		<path fill="#0000FF" d="M693,148l1.7,0.4c-0.4,1.4-1,2.5-2,3.3c-0.9,0.8-2.1,1.1-3.5,1.1c-1.4,0-2.6-0.3-3.5-0.9s-1.6-1.4-2-2.5
			s-0.7-2.3-0.7-3.5c0-1.4,0.3-2.6,0.8-3.6c0.5-1,1.3-1.8,2.2-2.3c1-0.5,2-0.8,3.2-0.8c1.3,0,2.4,0.3,3.3,1c0.9,0.7,1.5,1.6,1.9,2.8
			l-1.7,0.4c-0.3-1-0.7-1.7-1.3-2.1s-1.3-0.7-2.2-0.7c-1,0-1.9,0.2-2.5,0.7c-0.7,0.5-1.2,1.1-1.4,2c-0.3,0.8-0.4,1.7-0.4,2.5
			c0,1.1,0.2,2.1,0.5,2.9c0.3,0.8,0.8,1.5,1.5,1.9s1.4,0.6,2.2,0.6c1,0,1.8-0.3,2.5-0.8C692.4,149.9,692.8,149.1,693,148z"/>
		<path fill="#0000FF" d="M697.9,152.6v-13.2h1.7v5.4h6.8v-5.4h1.7v13.2h-1.7v-6.2h-6.8v6.2H697.9z"/>
	</g>
	<g>
		<path fill="#0000FF" d="M711.1,154.2l1.2-0.2c0.1,0.7,0.4,1.2,0.7,1.5s0.8,0.5,1.3,0.5c0.6,0,1.1-0.2,1.5-0.6
			c0.4-0.4,0.6-0.9,0.6-1.5c0-0.6-0.2-1-0.6-1.4c-0.4-0.4-0.8-0.6-1.4-0.6c-0.2,0-0.5,0-0.9,0.1l0.1-1.1c0.1,0,0.1,0,0.2,0
			c0.5,0,1-0.1,1.4-0.4c0.4-0.3,0.6-0.7,0.6-1.3c0-0.5-0.2-0.8-0.5-1.1c-0.3-0.3-0.7-0.4-1.2-0.4c-0.5,0-0.9,0.2-1.2,0.5
			c-0.3,0.3-0.5,0.8-0.6,1.4l-1.2-0.2c0.2-0.8,0.5-1.5,1-1.9s1.2-0.7,2-0.7c0.6,0,1.1,0.1,1.5,0.4c0.5,0.2,0.8,0.6,1.1,1
			c0.2,0.4,0.4,0.8,0.4,1.3c0,0.4-0.1,0.8-0.4,1.2c-0.2,0.4-0.6,0.6-1,0.9c0.6,0.1,1.1,0.4,1.4,0.9c0.3,0.4,0.5,1,0.5,1.6
			c0,0.9-0.3,1.6-1,2.2c-0.6,0.6-1.5,0.9-2.4,0.9c-0.9,0-1.6-0.3-2.2-0.8C711.6,155.7,711.2,155,711.1,154.2z"/>
	</g>
	
		<line fill="none" stroke="#000000" stroke-width="3" stroke-linecap="round" stroke-miterlimit="2" x1="689.5" y1="196.2" x2="689.5" y2="156.1"/>
	<g>
		<path d="M635.6,237.4v-13.2h1.7v5.4h6.8v-5.4h1.7v13.2h-1.7v-6.2h-6.8v6.2H635.6z"/>
	</g>
	
		<line fill="none" stroke="#000000" stroke-width="3" stroke-linecap="round" stroke-miterlimit="2" x1="684.5" y1="204.3" x2="650" y2="224.2"/>
	<g>
		<path d="M733.3,237.4v-13.2h1.7v5.4h6.8v-5.4h1.7v13.2h-1.7v-6.2H735v6.2H733.3z"/>
	</g>
	
		<line fill="none" stroke="#000000" stroke-width="3" stroke-linecap="round" stroke-miterlimit="2" x1="694.5" y1="204.3" x2="728.9" y2="224.1"/>
	<path fill-rule="evenodd" fill="#FFFFFF" d="M723.5,201.4c0,18.7-15.2,33.9-34,33.9c-18.8,0-34-15.2-34-33.9s15.2-33.9,34-33.9
		C708.2,167.5,723.5,182.7,723.5,201.4"/>
	<path fill="none" stroke="#000000" stroke-width="3" stroke-miterlimit="2" d="M723.5,201.4c0,18.7-15.2,33.9-34,33.9
		c-18.8,0-34-15.2-34-33.9s15.2-33.9,34-33.9C708.2,167.5,723.5,182.7,723.5,201.4"/>
	<g>
		<path d="M635.6,180.9v-13.2h1.7v5.4h6.8v-5.4h1.7v13.2h-1.7v-6.2h-6.8v6.2H635.6z"/>
	</g>
	
		<line fill="none" stroke="#000000" stroke-width="3" stroke-linecap="round" stroke-miterlimit="2" x1="650.6" y1="179.3" x2="689.5" y2="201.7"/>
	<g>
		<path d="M683.7,265.7v-13.2h1.7v5.4h6.8v-5.4h1.7v13.2h-1.7v-6.2h-6.8v6.2H683.7z"/>
	</g>
	
		<line fill="none" stroke="#000000" stroke-width="3" stroke-linecap="round" stroke-miterlimit="2" x1="689.5" y1="201.7" x2="689.5" y2="248.6"/>
	<g>
		<path fill="#FF0000" d="M742.6,176.2l1.7,0.4c-0.4,1.4-1,2.5-2,3.3c-0.9,0.8-2.1,1.1-3.5,1.1c-1.4,0-2.6-0.3-3.5-0.9
			s-1.6-1.4-2-2.5s-0.7-2.3-0.7-3.5c0-1.4,0.3-2.6,0.8-3.6c0.5-1,1.3-1.8,2.2-2.3c1-0.5,2-0.8,3.2-0.8c1.3,0,2.4,0.3,3.3,1
			c0.9,0.7,1.5,1.6,1.9,2.8l-1.7,0.4c-0.3-1-0.7-1.7-1.3-2.1s-1.3-0.7-2.2-0.7c-1,0-1.9,0.2-2.5,0.7c-0.7,0.5-1.2,1.1-1.4,2
			c-0.3,0.8-0.4,1.7-0.4,2.5c0,1.1,0.2,2.1,0.5,2.9c0.3,0.8,0.8,1.5,1.5,1.9s1.4,0.6,2.2,0.6c1,0,1.8-0.3,2.5-0.8
			C741.9,178.2,742.4,177.4,742.6,176.2z"/>
		<path fill="#FF0000" d="M747.4,180.9v-13.2h1.7v5.4h6.8v-5.4h1.7v13.2H756v-6.2h-6.8v6.2H747.4z"/>
	</g>
	<g>
		<path fill="#FF0000" d="M759.3,182.4l1.2-0.2c0.1,0.7,0.4,1.2,0.7,1.5s0.8,0.5,1.3,0.5c0.6,0,1.1-0.2,1.5-0.6
			c0.4-0.4,0.6-0.9,0.6-1.5c0-0.6-0.2-1-0.6-1.4c-0.4-0.4-0.8-0.6-1.4-0.6c-0.2,0-0.5,0-0.9,0.1l0.1-1.1c0.1,0,0.1,0,0.2,0
			c0.5,0,1-0.1,1.4-0.4c0.4-0.3,0.6-0.7,0.6-1.3c0-0.5-0.2-0.8-0.5-1.1c-0.3-0.3-0.7-0.4-1.2-0.4c-0.5,0-0.9,0.2-1.2,0.5
			c-0.3,0.3-0.5,0.8-0.6,1.4l-1.2-0.2c0.2-0.8,0.5-1.5,1-1.9s1.2-0.7,2-0.7c0.6,0,1.1,0.1,1.5,0.4c0.5,0.2,0.8,0.6,1.1,1
			c0.2,0.4,0.4,0.8,0.4,1.3c0,0.4-0.1,0.8-0.4,1.2c-0.2,0.4-0.6,0.6-1,0.9c0.6,0.1,1.1,0.4,1.4,0.9c0.3,0.4,0.5,1,0.5,1.6
			c0,0.9-0.3,1.6-1,2.2c-0.6,0.6-1.5,0.9-2.4,0.9c-0.9,0-1.6-0.3-2.2-0.8C759.7,184,759.4,183.3,759.3,182.4z"/>
	</g>
	
		<line fill="none" stroke="#000000" stroke-width="3" stroke-linecap="round" stroke-miterlimit="2" x1="689.5" y1="201.7" x2="729.5" y2="178.7"/>
	<g>
		<path fill="#0000FF" d="M834.3,74.5l1.7,0.4c-0.4,1.4-1,2.5-2,3.3c-0.9,0.8-2.1,1.1-3.5,1.1c-1.4,0-2.6-0.3-3.5-0.9
			s-1.6-1.4-2-2.5c-0.5-1.1-0.7-2.3-0.7-3.5c0-1.4,0.3-2.6,0.8-3.6c0.5-1,1.3-1.8,2.2-2.3s2-0.8,3.2-0.8c1.3,0,2.4,0.3,3.3,1
			s1.5,1.6,1.9,2.8l-1.7,0.4c-0.3-1-0.7-1.7-1.3-2.1s-1.3-0.7-2.2-0.7c-1,0-1.9,0.2-2.5,0.7s-1.2,1.1-1.4,2
			c-0.3,0.8-0.4,1.7-0.4,2.5c0,1.1,0.2,2.1,0.5,2.9c0.3,0.8,0.8,1.5,1.5,1.9s1.4,0.6,2.2,0.6c1,0,1.8-0.3,2.5-0.8
			C833.6,76.5,834.1,75.6,834.3,74.5z"/>
		<path fill="#0000FF" d="M839.1,79.1V66h1.7v5.4h6.8V66h1.7v13.2h-1.7v-6.2h-6.8v6.2H839.1z"/>
	</g>
	<g>
		<path fill="#0000FF" d="M851,79.3l1.2-0.2c0.1,0.7,0.4,1.2,0.7,1.5c0.3,0.3,0.8,0.5,1.3,0.5c0.6,0,1.1-0.2,1.5-0.6
			c0.4-0.4,0.6-0.9,0.6-1.5c0-0.6-0.2-1-0.6-1.4c-0.4-0.4-0.8-0.6-1.4-0.6c-0.2,0-0.5,0-0.9,0.1l0.1-1.1c0.1,0,0.1,0,0.2,0
			c0.5,0,1-0.1,1.4-0.4c0.4-0.3,0.6-0.7,0.6-1.3c0-0.5-0.2-0.8-0.5-1.1c-0.3-0.3-0.7-0.4-1.2-0.4c-0.5,0-0.9,0.2-1.2,0.5
			c-0.3,0.3-0.5,0.8-0.6,1.4l-1.2-0.2c0.2-0.8,0.5-1.5,1-1.9s1.2-0.7,2-0.7c0.6,0,1.1,0.1,1.5,0.4c0.5,0.2,0.8,0.6,1.1,1
			c0.2,0.4,0.4,0.8,0.4,1.3c0,0.4-0.1,0.8-0.4,1.2c-0.2,0.4-0.6,0.6-1,0.9c0.6,0.1,1.1,0.4,1.4,0.9c0.3,0.4,0.5,1,0.5,1.6
			c0,0.9-0.3,1.6-1,2.2s-1.5,0.9-2.4,0.9c-0.9,0-1.6-0.3-2.2-0.8C851.4,80.8,851.1,80.1,851,79.3z"/>
	</g>
	
		<line fill="none" stroke="#000000" stroke-width="3" stroke-linecap="round" stroke-miterlimit="2" x1="830.3" y1="111.2" x2="830.3" y2="82"/>
	<g>
		<path d="M775.4,163.9v-13.2h1.7v5.4h6.8v-5.4h1.7v13.2H784v-6.2h-6.8v6.2H775.4z"/>
	</g>
	
		<line fill="none" stroke="#000000" stroke-width="3" stroke-linecap="round" stroke-miterlimit="2" x1="817.7" y1="134.7" x2="790.8" y2="150.1"/>
	<g>
		<path d="M874.5,163.9v-13.2h1.7v5.4h6.8v-5.4h1.7v13.2h-1.7v-6.2h-6.8v6.2H874.5z"/>
	</g>
	
		<line fill="none" stroke="#000000" stroke-width="3" stroke-linecap="round" stroke-miterlimit="2" x1="845.6" y1="136.2" x2="869.6" y2="150.1"/>
	<path fill-rule="evenodd" fill="#FFFFFF" d="M864.3,127.3c0,18.7-15.2,33.9-34,33.9c-18.8,0-34-15.2-34-33.9
		c0-18.7,15.2-33.9,34-33.9C849.1,93.4,864.3,108.6,864.3,127.3"/>
	<path fill="none" stroke="#000000" stroke-width="3" stroke-miterlimit="2" d="M864.3,127.3c0,18.7-15.2,33.9-34,33.9
		c-18.8,0-34-15.2-34-33.9c0-18.7,15.2-33.9,34-33.9C849.1,93.4,864.3,108.6,864.3,127.3"/>
	<g>
		<path d="M786.7,176.6v-13.2h1.7v5.4h6.8v-5.4h1.7v13.2h-1.7v-6.2h-6.8v6.2H786.7z"/>
	</g>
	
		<line fill="none" stroke="#000000" stroke-width="3" stroke-linecap="round" stroke-miterlimit="2" x1="830.4" y1="127.8" x2="799.9" y2="160.9"/>
	<g>
		<path fill="#FF0000" d="M889.5,143.8l1.7,0.4c-0.4,1.4-1,2.5-2,3.3c-0.9,0.8-2.1,1.1-3.5,1.1c-1.4,0-2.6-0.3-3.5-0.9
			s-1.6-1.4-2-2.5c-0.5-1.1-0.7-2.3-0.7-3.5c0-1.4,0.3-2.6,0.8-3.6c0.5-1,1.3-1.8,2.2-2.3s2-0.8,3.2-0.8c1.3,0,2.4,0.3,3.3,1
			s1.5,1.6,1.9,2.8l-1.7,0.4c-0.3-1-0.7-1.7-1.3-2.1s-1.3-0.7-2.2-0.7c-1,0-1.9,0.2-2.5,0.7s-1.2,1.1-1.4,2
			c-0.3,0.8-0.4,1.7-0.4,2.5c0,1.1,0.2,2.1,0.5,2.9c0.3,0.8,0.8,1.5,1.5,1.9s1.4,0.6,2.2,0.6c1,0,1.8-0.3,2.5-0.8
			C888.8,145.7,889.3,144.9,889.5,143.8z"/>
		<path fill="#FF0000" d="M894.3,148.4v-13.2h1.7v5.4h6.8v-5.4h1.7v13.2h-1.7v-6.2h-6.8v6.2H894.3z"/>
	</g>
	<g>
		<path fill="#FF0000" d="M906.2,150l1.2-0.2c0.1,0.7,0.4,1.2,0.7,1.5c0.3,0.3,0.8,0.5,1.3,0.5c0.6,0,1.1-0.2,1.5-0.6
			c0.4-0.4,0.6-0.9,0.6-1.5c0-0.6-0.2-1-0.6-1.4c-0.4-0.4-0.8-0.6-1.4-0.6c-0.2,0-0.5,0-0.9,0.1l0.1-1.1c0.1,0,0.1,0,0.2,0
			c0.5,0,1-0.1,1.4-0.4c0.4-0.3,0.6-0.7,0.6-1.3c0-0.5-0.2-0.8-0.5-1.1c-0.3-0.3-0.7-0.4-1.2-0.4c-0.5,0-0.9,0.2-1.2,0.5
			c-0.3,0.3-0.5,0.8-0.6,1.4l-1.2-0.2c0.2-0.8,0.5-1.5,1-1.9s1.2-0.7,2-0.7c0.6,0,1.1,0.1,1.5,0.4c0.5,0.2,0.8,0.6,1.1,1
			c0.2,0.4,0.4,0.8,0.4,1.3c0,0.4-0.1,0.8-0.4,1.2c-0.2,0.4-0.6,0.6-1,0.9c0.6,0.1,1.1,0.4,1.4,0.9c0.3,0.4,0.5,1,0.5,1.6
			c0,0.9-0.3,1.6-1,2.2s-1.5,0.9-2.4,0.9c-0.9,0-1.6-0.3-2.2-0.8C906.6,151.5,906.3,150.8,906.2,150z"/>
	</g>
	
		<line fill="none" stroke="#000000" stroke-width="3" stroke-linecap="round" stroke-miterlimit="2" x1="830.4" y1="127.8" x2="876.4" y2="138.5"/>
	<g>
		<path d="M809.4,81.9V68.8h1.7v5.4h6.8v-5.4h1.7v13.2H818v-6.2h-6.8v6.2H809.4z"/>
	</g>
	
		<line fill="none" stroke="#000000" stroke-width="3" stroke-linecap="round" stroke-miterlimit="2" x1="830.4" y1="127.8" x2="817.7" y2="85.6"/>
</g>
<g>
	<path d="M217.9,284h-2.1v-13.4c-0.5,0.5-1.2,1-2,1.5s-1.6,0.8-2.2,1.1v-2c1.2-0.6,2.2-1.2,3.1-2s1.5-1.6,1.9-2.3h1.4V284z"/>
	<path d="M234.2,271l-2.1,0.2c-0.2-0.8-0.5-1.4-0.8-1.8c-0.6-0.6-1.3-0.9-2.1-0.9c-0.7,0-1.3,0.2-1.8,0.6c-0.7,0.5-1.2,1.2-1.6,2.1
		s-0.6,2.3-0.6,4c0.5-0.8,1.1-1.3,1.9-1.7s1.5-0.6,2.3-0.6c1.4,0,2.6,0.5,3.6,1.6s1.5,2.4,1.5,4c0,1.1-0.2,2.1-0.7,3
		s-1.1,1.6-1.9,2.1s-1.7,0.7-2.8,0.7c-1.8,0-3.2-0.6-4.3-1.9s-1.7-3.4-1.7-6.4c0-3.3,0.6-5.7,1.8-7.2c1.1-1.3,2.5-2,4.3-2
		c1.4,0,2.5,0.4,3.3,1.1S234.1,269.6,234.2,271z M225.6,278.4c0,0.7,0.2,1.4,0.5,2.1s0.7,1.2,1.3,1.5s1.1,0.5,1.7,0.5
		c0.9,0,1.7-0.4,2.3-1.1s1-1.7,1-2.9c0-1.2-0.3-2.1-0.9-2.8s-1.4-1-2.4-1c-1,0-1.8,0.3-2.4,1S225.6,277.3,225.6,278.4z"/>
	<path d="M243.9,284v-17.2h2.1v9.8l5-5.1h2.7l-4.8,4.6l5.2,7.8h-2.6l-4.1-6.4L246,279v4.9H243.9z"/>
	<path d="M255,279.1l2.1-0.3c0.1,1.3,0.3,2.2,0.7,2.7s1,0.7,1.8,0.7c0.6,0,1.1-0.1,1.5-0.4s0.7-0.6,0.9-1.1s0.2-1.2,0.2-2.2v-11.8
		h2.3v11.7c0,1.4-0.2,2.6-0.5,3.3s-0.9,1.4-1.7,1.8s-1.6,0.6-2.7,0.6c-1.5,0-2.7-0.4-3.5-1.3S255,280.8,255,279.1z"/>
	<path d="M266.3,284.2l5-17.8h1.7l-5,17.8H266.3z"/>
	<path d="M274.5,284v-12.4h1.9v1.7c0.4-0.6,0.9-1.1,1.6-1.5s1.4-0.6,2.2-0.6c0.9,0,1.7,0.2,2.3,0.6s1,0.9,1.2,1.6
		c1-1.5,2.3-2.2,3.8-2.2c1.2,0,2.2,0.3,2.8,1s1,1.7,1,3.2v8.5h-2.1v-7.8c0-0.8-0.1-1.5-0.2-1.8s-0.4-0.7-0.7-0.9s-0.8-0.3-1.3-0.3
		c-0.9,0-1.6,0.3-2.2,0.9s-0.9,1.5-0.9,2.8v7.2h-2.1v-8.1c0-0.9-0.2-1.6-0.5-2.1s-0.9-0.7-1.7-0.7c-0.6,0-1.1,0.2-1.6,0.5
		s-0.9,0.8-1.1,1.4s-0.3,1.5-0.3,2.6v6.5H274.5z"/>
	<path d="M293.8,277.7c0-2.3,0.6-4,1.9-5.1c1.1-0.9,2.4-1.4,3.9-1.4c1.7,0,3.1,0.6,4.2,1.7s1.6,2.7,1.6,4.6c0,1.6-0.2,2.9-0.7,3.8
		s-1.2,1.6-2.1,2.1s-1.9,0.8-3,0.8c-1.7,0-3.2-0.6-4.2-1.7S293.8,279.8,293.8,277.7z M295.9,277.7c0,1.6,0.3,2.8,1,3.6
		s1.6,1.2,2.6,1.2c1,0,1.9-0.4,2.6-1.2s1-2,1-3.6c0-1.5-0.3-2.7-1-3.5s-1.6-1.2-2.6-1.2c-1.1,0-1.9,0.4-2.6,1.2
		S295.9,276.1,295.9,277.7z"/>
	<path d="M307.8,284v-17.2h2.1V284H307.8z"/>
</g>
<line fill="none" stroke="#000000" stroke-width="3" x1="252.5" y1="291.4" x2="252.5" y2="352.5"/>
<line fill="none" stroke="#000000" stroke-width="3" x1="541" y1="271.6" x2="541" y2="352.5"/>
<g>
	<path d="M506.9,266h-2.1v-13.4c-0.5,0.5-1.2,1-2,1.5s-1.6,0.8-2.2,1.1v-2c1.2-0.6,2.2-1.2,3.1-2s1.5-1.6,1.9-2.3h1.4V266z"/>
	<path d="M512.6,262.1l2-0.2c0.2,1,0.5,1.6,1,2.1s1.1,0.6,1.9,0.6c0.6,0,1.2-0.1,1.7-0.4s0.9-0.7,1.2-1.2s0.6-1.2,0.8-2
		s0.3-1.7,0.3-2.6c0-0.1,0-0.2,0-0.4c-0.4,0.7-1,1.2-1.7,1.6s-1.5,0.6-2.4,0.6c-1.4,0-2.6-0.5-3.6-1.5s-1.5-2.4-1.5-4.1
		c0-1.7,0.5-3.1,1.5-4.2s2.3-1.6,3.9-1.6c1.1,0,2.1,0.3,3.1,0.9s1.6,1.5,2.1,2.6s0.7,2.7,0.7,4.8c0,2.2-0.2,3.9-0.7,5.2
		s-1.2,2.3-2.1,3s-2,1-3.3,1c-1.3,0-2.4-0.4-3.3-1.1S512.7,263.4,512.6,262.1z M521.2,254.5c0-1.2-0.3-2.2-1-2.9s-1.4-1.1-2.3-1.1
		c-0.9,0-1.8,0.4-2.4,1.1s-1,1.8-1,3c0,1.1,0.3,2,1,2.7s1.5,1,2.4,1c1,0,1.8-0.3,2.4-1S521.2,255.7,521.2,254.5z"/>
	<path d="M532.9,266v-17.2h2.1v9.8l5-5.1h2.7l-4.8,4.6l5.2,7.8h-2.6l-4.1-6.4l-1.5,1.4v4.9H532.9z"/>
	<path d="M544,261.2l2.1-0.3c0.1,1.3,0.3,2.2,0.7,2.7s1,0.7,1.8,0.7c0.6,0,1.1-0.1,1.5-0.4s0.7-0.6,0.9-1.1s0.2-1.2,0.2-2.2v-11.8
		h2.3v11.7c0,1.4-0.2,2.6-0.5,3.3s-0.9,1.4-1.7,1.8s-1.6,0.6-2.7,0.6c-1.5,0-2.7-0.4-3.5-1.3S543.9,262.9,544,261.2z"/>
	<path d="M555.3,266.3l5-17.8h1.7l-5,17.8H555.3z"/>
	<path d="M563.5,266v-12.4h1.9v1.7c0.4-0.6,0.9-1.1,1.6-1.5s1.4-0.6,2.2-0.6c0.9,0,1.7,0.2,2.3,0.6s1,0.9,1.2,1.6
		c1-1.5,2.3-2.2,3.8-2.2c1.2,0,2.2,0.3,2.8,1s1,1.7,1,3.2v8.5h-2.1v-7.8c0-0.8-0.1-1.5-0.2-1.8s-0.4-0.7-0.7-0.9s-0.8-0.3-1.3-0.3
		c-0.9,0-1.6,0.3-2.2,0.9s-0.9,1.5-0.9,2.8v7.2h-2.1V258c0-0.9-0.2-1.6-0.5-2.1s-0.9-0.7-1.7-0.7c-0.6,0-1.1,0.2-1.6,0.5
		s-0.9,0.8-1.1,1.4s-0.3,1.5-0.3,2.6v6.5H563.5z"/>
	<path d="M582.7,259.8c0-2.3,0.6-4,1.9-5.1c1.1-0.9,2.4-1.4,3.9-1.4c1.7,0,3.1,0.6,4.2,1.7s1.6,2.7,1.6,4.6c0,1.6-0.2,2.9-0.7,3.8
		s-1.2,1.6-2.1,2.1s-1.9,0.8-3,0.8c-1.7,0-3.2-0.6-4.2-1.7S582.7,261.9,582.7,259.8z M584.9,259.8c0,1.6,0.3,2.8,1,3.6
		s1.6,1.2,2.6,1.2c1,0,1.9-0.4,2.6-1.2s1-2,1-3.6c0-1.5-0.3-2.7-1-3.5s-1.6-1.2-2.6-1.2c-1.1,0-1.9,0.4-2.6,1.2
		S584.9,258.2,584.9,259.8z"/>
	<path d="M596.8,266v-17.2h2.1V266H596.8z"/>
</g>
<g>
	<path d="M404,349.6l2.1-0.3c0.2,1.2,0.7,2.1,1.2,2.6s1.3,0.8,2.1,0.8c1,0,1.8-0.3,2.5-1s1-1.5,1-2.6c0-1-0.3-1.8-0.9-2.4
		s-1.4-0.9-2.4-0.9c-0.4,0-0.9,0.1-1.5,0.2l0.2-1.9c0.1,0,0.3,0,0.3,0c0.9,0,1.7-0.2,2.4-0.7s1.1-1.2,1.1-2.2c0-0.8-0.3-1.4-0.8-1.9
		s-1.2-0.8-2-0.8c-0.8,0-1.5,0.3-2.1,0.8s-0.9,1.3-1.1,2.3l-2.1-0.4c0.3-1.4,0.8-2.5,1.8-3.3s2.1-1.2,3.4-1.2c0.9,0,1.8,0.2,2.6,0.6
		s1.4,1,1.8,1.6s0.6,1.4,0.6,2.2c0,0.7-0.2,1.4-0.6,2s-1,1.1-1.8,1.5c1,0.2,1.8,0.7,2.4,1.5s0.8,1.7,0.8,2.8c0,1.5-0.5,2.8-1.6,3.8
		s-2.5,1.6-4.1,1.6c-1.5,0-2.8-0.4-3.8-1.3S404.1,351,404,349.6z"/>
	<path d="M418.5,354.2v-2.4h2.4v2.4H418.5z"/>
	<path d="M427.2,344.8c-0.9-0.3-1.5-0.8-1.9-1.4s-0.6-1.3-0.6-2.1c0-1.3,0.4-2.3,1.3-3.2s2.1-1.3,3.6-1.3c1.5,0,2.7,0.4,3.6,1.3
		s1.4,1.9,1.4,3.2c0,0.8-0.2,1.5-0.6,2.1s-1.1,1-1.9,1.4c1.1,0.3,1.9,0.9,2.4,1.7s0.8,1.7,0.8,2.7c0,1.5-0.5,2.7-1.6,3.7
		s-2.4,1.5-4.1,1.5s-3.1-0.5-4.1-1.5s-1.6-2.3-1.6-3.8c0-1.1,0.3-2.1,0.8-2.8S426.2,345.1,427.2,344.8z M426.1,349.2
		c0,0.6,0.1,1.2,0.4,1.7s0.7,1,1.3,1.3s1.2,0.5,1.8,0.5c1,0,1.8-0.3,2.5-1s1-1.5,1-2.5c0-1-0.3-1.9-1-2.5s-1.5-1-2.5-1
		c-1,0-1.8,0.3-2.5,1S426.1,348.2,426.1,349.2z M426.8,341.3c0,0.8,0.3,1.5,0.8,2s1.2,0.8,2,0.8c0.8,0,1.5-0.3,2-0.8
		s0.8-1.1,0.8-1.9c0-0.8-0.3-1.4-0.8-2s-1.2-0.8-2-0.8c-0.8,0-1.5,0.3-2,0.8S426.8,340.5,426.8,341.3z"/>
	<path d="M444.6,354.2V337h2.1v9.8l5-5.1h2.7l-4.8,4.6l5.2,7.8h-2.6l-4.1-6.4l-1.5,1.4v4.9H444.6z"/>
	<path d="M455.7,349.3l2.1-0.3c0.1,1.3,0.3,2.2,0.7,2.7s1,0.7,1.8,0.7c0.6,0,1.1-0.1,1.5-0.4s0.7-0.6,0.9-1.1s0.2-1.2,0.2-2.2V337
		h2.3v11.7c0,1.4-0.2,2.6-0.5,3.3s-0.9,1.4-1.7,1.8s-1.6,0.6-2.7,0.6c-1.5,0-2.7-0.4-3.5-1.3S455.7,351,455.7,349.3z"/>
	<path d="M467,354.4l5-17.8h1.7l-5,17.8H467z"/>
	<path d="M475.3,354.2v-12.4h1.9v1.7c0.4-0.6,0.9-1.1,1.6-1.5s1.4-0.6,2.2-0.6c0.9,0,1.7,0.2,2.3,0.6s1,0.9,1.2,1.6
		c1-1.5,2.3-2.2,3.8-2.2c1.2,0,2.2,0.3,2.8,1s1,1.7,1,3.2v8.5H490v-7.8c0-0.8-0.1-1.5-0.2-1.8s-0.4-0.7-0.7-0.9s-0.8-0.3-1.3-0.3
		c-0.9,0-1.6,0.3-2.2,0.9s-0.9,1.5-0.9,2.8v7.2h-2.1v-8.1c0-0.9-0.2-1.6-0.5-2.1s-0.9-0.7-1.7-0.7c-0.6,0-1.1,0.2-1.6,0.5
		s-0.9,0.8-1.1,1.4s-0.3,1.5-0.3,2.6v6.5H475.3z"/>
	<path d="M494.5,347.9c0-2.3,0.6-4,1.9-5.1c1.1-0.9,2.4-1.4,3.9-1.4c1.7,0,3.1,0.6,4.2,1.7s1.6,2.7,1.6,4.6c0,1.6-0.2,2.9-0.7,3.8
		s-1.2,1.6-2.1,2.1s-1.9,0.8-3,0.8c-1.7,0-3.2-0.6-4.2-1.7S494.5,350,494.5,347.9z M496.6,347.9c0,1.6,0.3,2.8,1,3.6
		s1.6,1.2,2.6,1.2c1,0,1.9-0.4,2.6-1.2s1-2,1-3.6c0-1.5-0.3-2.7-1-3.5s-1.6-1.2-2.6-1.2c-1.1,0-1.9,0.4-2.6,1.2
		S496.6,346.3,496.6,347.9z"/>
	<path d="M508.6,354.2V337h2.1v17.2H508.6z"/>
</g>
<g>
	<path d="M684.8,392.9l-3.1,0.2c-0.3-1.2-0.7-2.1-1.2-2.6c-0.8-0.9-1.9-1.3-3.1-1.3c-1,0-1.9,0.3-2.6,0.8c-1,0.7-1.7,1.7-2.3,3.1
		c-0.6,1.4-0.9,3.3-0.9,5.8c0.7-1.1,1.7-2,2.7-2.5s2.2-0.8,3.4-0.8c2.1,0,3.8,0.8,5.3,2.3c1.4,1.5,2.2,3.5,2.2,5.9
		c0,1.6-0.3,3-1,4.4c-0.7,1.4-1.6,2.4-2.8,3.1c-1.2,0.7-2.5,1.1-4.1,1.1c-2.6,0-4.7-0.9-6.3-2.8c-1.6-1.9-2.4-5-2.4-9.4
		c0-4.9,0.9-8.4,2.7-10.6c1.6-1.9,3.7-2.9,6.3-2.9c2,0,3.6,0.6,4.9,1.7S684.5,391,684.8,392.9z M672.2,403.8c0,1.1,0.2,2.1,0.7,3.1
		c0.5,1,1.1,1.7,1.9,2.2c0.8,0.5,1.7,0.8,2.6,0.8c1.3,0,2.4-0.5,3.4-1.6c0.9-1.1,1.4-2.5,1.4-4.3c0-1.7-0.5-3.1-1.4-4.1
		s-2.1-1.5-3.5-1.5c-1.4,0-2.6,0.5-3.6,1.5S672.2,402.2,672.2,403.8z"/>
	<path d="M688.3,399.5c0-3,0.3-5.4,0.9-7.2s1.5-3.2,2.7-4.2c1.2-1,2.7-1.5,4.6-1.5c1.4,0,2.5,0.3,3.6,0.8c1,0.5,1.9,1.3,2.5,2.4
		c0.7,1,1.2,2.3,1.6,3.7s0.6,3.5,0.6,6c0,3-0.3,5.3-0.9,7.2s-1.5,3.2-2.7,4.2c-1.2,1-2.7,1.5-4.6,1.5c-2.4,0-4.3-0.9-5.7-2.6
		C689.1,407.7,688.3,404.3,688.3,399.5z M691.5,399.5c0,4.1,0.5,6.9,1.5,8.3c1,1.4,2.2,2.1,3.6,2.1c1.4,0,2.6-0.7,3.6-2.1
		c1-1.4,1.5-4.1,1.5-8.2c0-4.1-0.5-6.9-1.5-8.3c-1-1.4-2.2-2-3.6-2c-1.4,0-2.6,0.6-3.4,1.8C692,392.6,691.5,395.4,691.5,399.5z"/>
	<path d="M708.6,391.1c0-1.3,0.5-2.4,1.4-3.4s2.1-1.4,3.4-1.4c1.3,0,2.5,0.5,3.4,1.4s1.4,2.1,1.4,3.4c0,1.3-0.5,2.4-1.4,3.4
		c-0.9,0.9-2.1,1.4-3.4,1.4c-1.3,0-2.4-0.5-3.4-1.4S708.6,392.4,708.6,391.1z M710.5,391.1c0,0.8,0.3,1.5,0.9,2.1
		c0.6,0.6,1.3,0.9,2.1,0.9c0.8,0,1.5-0.3,2-0.9c0.6-0.6,0.9-1.3,0.9-2.1c0-0.8-0.3-1.5-0.9-2.1c-0.6-0.6-1.2-0.9-2-0.9
		c-0.8,0-1.5,0.3-2.1,0.9C710.8,389.6,710.5,390.3,710.5,391.1z"/>
</g>
<g>
	<path d="M811.7,412h-3.1v-19.7c-0.7,0.7-1.7,1.4-2.9,2.1c-1.2,0.7-2.3,1.2-3.3,1.6v-3c1.7-0.8,3.2-1.8,4.5-3
		c1.3-1.2,2.2-2.3,2.7-3.4h2V412z"/>
	<path d="M835.8,409v3h-16.6c0-0.7,0.1-1.5,0.4-2.1c0.4-1.1,1.1-2.3,2-3.4s2.3-2.4,4-3.8c2.7-2.2,4.6-4,5.5-5.3
		c1-1.3,1.4-2.6,1.4-3.7c0-1.2-0.4-2.3-1.3-3.1c-0.9-0.8-2-1.3-3.4-1.3c-1.5,0-2.7,0.4-3.6,1.3c-0.9,0.9-1.3,2.1-1.4,3.7l-3.2-0.3
		c0.2-2.4,1-4.2,2.5-5.4c1.4-1.2,3.3-1.9,5.7-1.9c2.4,0,4.3,0.7,5.7,2s2.1,3,2.1,5c0,1-0.2,2-0.6,3c-0.4,1-1.1,2-2.1,3.1
		c-1,1.1-2.5,2.6-4.8,4.4c-1.9,1.6-3,2.6-3.6,3.2c-0.5,0.6-1,1.1-1.3,1.7H835.8z"/>
	<path d="M839.2,399.5c0-3,0.3-5.4,0.9-7.2c0.6-1.8,1.5-3.2,2.7-4.2c1.2-1,2.7-1.5,4.6-1.5c1.4,0,2.5,0.3,3.6,0.8s1.9,1.3,2.5,2.4
		c0.7,1,1.2,2.3,1.6,3.7c0.4,1.5,0.6,3.5,0.6,6c0,3-0.3,5.3-0.9,7.2c-0.6,1.8-1.5,3.2-2.7,4.2c-1.2,1-2.7,1.5-4.6,1.5
		c-2.4,0-4.3-0.9-5.7-2.6C840,407.7,839.2,404.3,839.2,399.5z M842.3,399.5c0,4.1,0.5,6.9,1.5,8.3c1,1.4,2.2,2.1,3.6,2.1
		c1.4,0,2.6-0.7,3.6-2.1s1.5-4.1,1.5-8.2c0-4.1-0.5-6.9-1.5-8.3c-1-1.4-2.2-2-3.6-2c-1.4,0-2.6,0.6-3.4,1.8
		C842.9,392.6,842.3,395.4,842.3,399.5z"/>
	<path d="M859.5,391.1c0-1.3,0.5-2.4,1.4-3.4c0.9-0.9,2.1-1.4,3.4-1.4c1.3,0,2.5,0.5,3.4,1.4s1.4,2.1,1.4,3.4c0,1.3-0.5,2.4-1.4,3.4
		c-0.9,0.9-2.1,1.4-3.4,1.4c-1.3,0-2.4-0.5-3.4-1.4C859.9,393.6,859.5,392.4,859.5,391.1z M861.3,391.1c0,0.8,0.3,1.5,0.9,2.1
		c0.6,0.6,1.3,0.9,2.1,0.9c0.8,0,1.5-0.3,2-0.9c0.6-0.6,0.9-1.3,0.9-2.1c0-0.8-0.3-1.5-0.9-2.1c-0.6-0.6-1.2-0.9-2-0.9
		c-0.8,0-1.5,0.3-2.1,0.9C861.6,389.6,861.3,390.3,861.3,391.1z"/>
</g>
<g>
	<path d="M953.3,412h-3.1v-19.7c-0.7,0.7-1.7,1.4-2.9,2.1c-1.2,0.7-2.3,1.2-3.3,1.6v-3c1.7-0.8,3.2-1.8,4.5-3
		c1.3-1.2,2.2-2.3,2.7-3.4h2V412z"/>
	<path d="M966,398.3c-1.3-0.5-2.2-1.1-2.9-2c-0.6-0.9-0.9-1.9-0.9-3.1c0-1.8,0.7-3.4,2-4.6c1.3-1.2,3.1-1.9,5.3-1.9
		c2.2,0,4,0.6,5.3,1.9s2,2.8,2,4.7c0,1.2-0.3,2.2-0.9,3c-0.6,0.9-1.5,1.5-2.8,2c1.5,0.5,2.7,1.3,3.5,2.4c0.8,1.1,1.2,2.5,1.2,4
		c0,2.2-0.8,4-2.3,5.4s-3.5,2.2-6,2.2s-4.5-0.7-6-2.2s-2.3-3.3-2.3-5.5c0-1.6,0.4-3,1.2-4.1C963.3,399.5,964.5,398.7,966,398.3z
		 M964.4,404.7c0,0.9,0.2,1.7,0.6,2.6c0.4,0.8,1,1.5,1.9,1.9c0.8,0.5,1.7,0.7,2.7,0.7c1.5,0,2.7-0.5,3.7-1.4c1-1,1.4-2.2,1.4-3.6
		c0-1.5-0.5-2.7-1.5-3.7c-1-1-2.2-1.5-3.7-1.5c-1.5,0-2.7,0.5-3.6,1.4C964.9,402.1,964.4,403.3,964.4,404.7z M965.4,393.1
		c0,1.2,0.4,2.2,1.2,2.9s1.8,1.1,3,1.1c1.2,0,2.2-0.4,2.9-1.1c0.8-0.8,1.1-1.7,1.1-2.8c0-1.1-0.4-2.1-1.2-2.9
		c-0.8-0.8-1.8-1.2-2.9-1.2c-1.2,0-2.2,0.4-2.9,1.1C965.8,391.1,965.4,392,965.4,393.1z"/>
	<path d="M980.8,399.5c0-3,0.3-5.4,0.9-7.2c0.6-1.8,1.5-3.2,2.7-4.2c1.2-1,2.7-1.5,4.6-1.5c1.4,0,2.5,0.3,3.6,0.8s1.9,1.3,2.5,2.4
		c0.7,1,1.2,2.3,1.6,3.7c0.4,1.5,0.6,3.5,0.6,6c0,3-0.3,5.3-0.9,7.2c-0.6,1.8-1.5,3.2-2.7,4.2c-1.2,1-2.7,1.5-4.6,1.5
		c-2.4,0-4.3-0.9-5.7-2.6C981.7,407.7,980.8,404.3,980.8,399.5z M984,399.5c0,4.1,0.5,6.9,1.5,8.3c1,1.4,2.2,2.1,3.6,2.1
		c1.4,0,2.6-0.7,3.6-2.1s1.5-4.1,1.5-8.2c0-4.1-0.5-6.9-1.5-8.3c-1-1.4-2.2-2-3.6-2c-1.4,0-2.6,0.6-3.4,1.8
		C984.5,392.6,984,395.4,984,399.5z"/>
	<path d="M1001.1,391.1c0-1.3,0.5-2.4,1.4-3.4c0.9-0.9,2.1-1.4,3.4-1.4c1.3,0,2.5,0.5,3.4,1.4s1.4,2.1,1.4,3.4
		c0,1.3-0.5,2.4-1.4,3.4c-0.9,0.9-2.1,1.4-3.4,1.4c-1.3,0-2.4-0.5-3.4-1.4C1001.6,393.6,1001.1,392.4,1001.1,391.1z M1003,391.1
		c0,0.8,0.3,1.5,0.9,2.1c0.6,0.6,1.3,0.9,2.1,0.9c0.8,0,1.5-0.3,2-0.9c0.6-0.6,0.9-1.3,0.9-2.1c0-0.8-0.3-1.5-0.9-2.1
		c-0.6-0.6-1.2-0.9-2-0.9c-0.8,0-1.5,0.3-2.1,0.9C1003.3,389.6,1003,390.3,1003,391.1z"/>
</g>
<g>
	<path d="M391.8,392l-3.1,0.2c-0.3-1.2-0.7-2.1-1.2-2.6c-0.8-0.9-1.9-1.3-3.1-1.3c-1,0-1.9,0.3-2.6,0.8c-1,0.7-1.7,1.7-2.3,3.1
		c-0.6,1.4-0.9,3.3-0.9,5.8c0.7-1.1,1.7-2,2.7-2.5s2.2-0.8,3.4-0.8c2.1,0,3.8,0.8,5.3,2.3c1.4,1.5,2.2,3.5,2.2,5.9
		c0,1.6-0.3,3-1,4.4c-0.7,1.4-1.6,2.4-2.8,3.1c-1.2,0.7-2.5,1.1-4.1,1.1c-2.6,0-4.7-0.9-6.3-2.8c-1.6-1.9-2.4-5-2.4-9.4
		c0-4.9,0.9-8.4,2.7-10.6c1.6-1.9,3.7-2.9,6.3-2.9c2,0,3.6,0.6,4.9,1.7S391.6,390,391.8,392z M379.2,402.8c0,1.1,0.2,2.1,0.7,3.1
		c0.5,1,1.1,1.7,1.9,2.2c0.8,0.5,1.7,0.8,2.6,0.8c1.3,0,2.4-0.5,3.4-1.6c0.9-1.1,1.4-2.5,1.4-4.3c0-1.7-0.5-3.1-1.4-4.1
		s-2.1-1.5-3.5-1.5c-1.4,0-2.6,0.5-3.6,1.5S379.2,401.2,379.2,402.8z"/>
	<path d="M395.3,398.6c0-3,0.3-5.4,0.9-7.2s1.5-3.2,2.7-4.2c1.2-1,2.7-1.5,4.6-1.5c1.4,0,2.5,0.3,3.6,0.8c1,0.5,1.9,1.3,2.5,2.4
		c0.7,1,1.2,2.3,1.6,3.7s0.6,3.5,0.6,6c0,3-0.3,5.3-0.9,7.2s-1.5,3.2-2.7,4.2c-1.2,1-2.7,1.5-4.6,1.5c-2.4,0-4.3-0.9-5.7-2.6
		C396.2,406.7,395.3,403.3,395.3,398.6z M398.5,398.6c0,4.1,0.5,6.9,1.5,8.3c1,1.4,2.2,2.1,3.6,2.1c1.4,0,2.6-0.7,3.6-2.1
		c1-1.4,1.5-4.1,1.5-8.2c0-4.1-0.5-6.9-1.5-8.3c-1-1.4-2.2-2-3.6-2c-1.4,0-2.6,0.6-3.4,1.8C399,391.6,398.5,394.4,398.5,398.6z"/>
	<path d="M415.6,390.1c0-1.3,0.5-2.4,1.4-3.4s2.1-1.4,3.4-1.4c1.3,0,2.5,0.5,3.4,1.4s1.4,2.1,1.4,3.4c0,1.3-0.5,2.4-1.4,3.4
		c-0.9,0.9-2.1,1.4-3.4,1.4c-1.3,0-2.4-0.5-3.4-1.4S415.6,391.5,415.6,390.1z M417.5,390.1c0,0.8,0.3,1.5,0.9,2.1
		c0.6,0.6,1.3,0.9,2.1,0.9c0.8,0,1.5-0.3,2-0.9c0.6-0.6,0.9-1.3,0.9-2.1c0-0.8-0.3-1.5-0.9-2.1c-0.6-0.6-1.2-0.9-2-0.9
		c-0.8,0-1.5,0.3-2.1,0.9C417.8,388.6,417.5,389.3,417.5,390.1z"/>
</g>
<g>
	<path d="M233.8,412h-3.1v-19.7c-0.7,0.7-1.7,1.4-2.9,2.1s-2.3,1.2-3.3,1.6v-3c1.7-0.8,3.2-1.8,4.5-3c1.3-1.2,2.2-2.3,2.7-3.4h2V412
		z"/>
	<path d="M258,409v3h-16.6c0-0.7,0.1-1.5,0.4-2.1c0.4-1.1,1.1-2.3,2-3.4c0.9-1.1,2.3-2.4,4-3.8c2.7-2.2,4.6-4,5.5-5.3
		s1.4-2.6,1.4-3.7c0-1.2-0.4-2.3-1.3-3.1c-0.9-0.8-2-1.3-3.4-1.3c-1.5,0-2.7,0.4-3.6,1.3c-0.9,0.9-1.3,2.1-1.4,3.7l-3.2-0.3
		c0.2-2.4,1-4.2,2.5-5.4c1.4-1.2,3.3-1.9,5.7-1.9c2.4,0,4.3,0.7,5.7,2s2.1,3,2.1,5c0,1-0.2,2-0.6,3c-0.4,1-1.1,2-2.1,3.1
		c-1,1.1-2.5,2.6-4.8,4.4c-1.9,1.6-3,2.6-3.6,3.2s-1,1.1-1.3,1.7H258z"/>
	<path d="M261.3,399.5c0-3,0.3-5.4,0.9-7.2s1.5-3.2,2.7-4.2c1.2-1,2.7-1.5,4.6-1.5c1.4,0,2.5,0.3,3.6,0.8c1,0.5,1.9,1.3,2.5,2.4
		c0.7,1,1.2,2.3,1.6,3.7s0.6,3.5,0.6,6c0,3-0.3,5.3-0.9,7.2s-1.5,3.2-2.7,4.2c-1.2,1-2.7,1.5-4.6,1.5c-2.4,0-4.3-0.9-5.7-2.6
		C262.1,407.7,261.3,404.3,261.3,399.5z M264.5,399.5c0,4.1,0.5,6.9,1.5,8.3c1,1.4,2.2,2.1,3.6,2.1c1.4,0,2.6-0.7,3.6-2.1
		c1-1.4,1.5-4.1,1.5-8.2c0-4.1-0.5-6.9-1.5-8.3c-1-1.4-2.2-2-3.6-2c-1.4,0-2.6,0.6-3.4,1.8C265,392.6,264.5,395.4,264.5,399.5z"/>
	<path d="M281.6,391.1c0-1.3,0.5-2.4,1.4-3.4s2.1-1.4,3.4-1.4c1.3,0,2.5,0.5,3.4,1.4s1.4,2.1,1.4,3.4c0,1.3-0.5,2.4-1.4,3.4
		c-0.9,0.9-2.1,1.4-3.4,1.4c-1.3,0-2.4-0.5-3.4-1.4S281.6,392.4,281.6,391.1z M283.5,391.1c0,0.8,0.3,1.5,0.9,2.1
		c0.6,0.6,1.3,0.9,2.1,0.9c0.8,0,1.5-0.3,2-0.9c0.6-0.6,0.9-1.3,0.9-2.1c0-0.8-0.3-1.5-0.9-2.1c-0.6-0.6-1.2-0.9-2-0.9
		c-0.8,0-1.5,0.3-2.1,0.9C283.7,389.6,283.5,390.3,283.5,391.1z"/>
</g>
<g>
	<path d="M87.4,412h-3.1v-19.7c-0.7,0.7-1.7,1.4-2.9,2.1s-2.3,1.2-3.3,1.6v-3c1.7-0.8,3.2-1.8,4.5-3c1.3-1.2,2.2-2.3,2.7-3.4h2V412z
		"/>
	<path d="M100.1,398.3c-1.3-0.5-2.2-1.1-2.9-2c-0.6-0.9-0.9-1.9-0.9-3.1c0-1.8,0.7-3.4,2-4.6c1.3-1.2,3.1-1.9,5.3-1.9
		c2.2,0,4,0.6,5.3,1.9c1.3,1.3,2,2.8,2,4.7c0,1.2-0.3,2.2-0.9,3c-0.6,0.9-1.5,1.5-2.8,2c1.5,0.5,2.7,1.3,3.5,2.4
		c0.8,1.1,1.2,2.5,1.2,4c0,2.2-0.8,4-2.3,5.4c-1.5,1.5-3.5,2.2-6,2.2s-4.5-0.7-6-2.2c-1.5-1.5-2.3-3.3-2.3-5.5c0-1.6,0.4-3,1.2-4.1
		C97.3,399.5,98.5,398.7,100.1,398.3z M98.4,404.7c0,0.9,0.2,1.7,0.6,2.6c0.4,0.8,1,1.5,1.9,1.9c0.8,0.5,1.7,0.7,2.7,0.7
		c1.5,0,2.7-0.5,3.7-1.4c1-1,1.4-2.2,1.4-3.6c0-1.5-0.5-2.7-1.5-3.7c-1-1-2.2-1.5-3.7-1.5c-1.5,0-2.7,0.5-3.6,1.4
		C98.9,402.1,98.4,403.3,98.4,404.7z M99.4,393.1c0,1.2,0.4,2.2,1.2,2.9c0.8,0.8,1.8,1.1,3,1.1c1.2,0,2.2-0.4,2.9-1.1
		s1.1-1.7,1.1-2.8c0-1.1-0.4-2.1-1.2-2.9c-0.8-0.8-1.8-1.2-2.9-1.2c-1.2,0-2.2,0.4-2.9,1.1S99.4,392,99.4,393.1z"/>
	<path d="M114.9,399.5c0-3,0.3-5.4,0.9-7.2s1.5-3.2,2.7-4.2c1.2-1,2.7-1.5,4.6-1.5c1.4,0,2.5,0.3,3.6,0.8c1,0.5,1.9,1.3,2.5,2.4
		c0.7,1,1.2,2.3,1.6,3.7s0.6,3.5,0.6,6c0,3-0.3,5.3-0.9,7.2s-1.5,3.2-2.7,4.2c-1.2,1-2.7,1.5-4.6,1.5c-2.4,0-4.3-0.9-5.7-2.6
		C115.7,407.7,114.9,404.3,114.9,399.5z M118,399.5c0,4.1,0.5,6.9,1.5,8.3c1,1.4,2.2,2.1,3.6,2.1c1.4,0,2.6-0.7,3.6-2.1
		c1-1.4,1.5-4.1,1.5-8.2c0-4.1-0.5-6.9-1.5-8.3c-1-1.4-2.2-2-3.6-2c-1.4,0-2.6,0.6-3.4,1.8C118.6,392.6,118,395.4,118,399.5z"/>
	<path d="M135.2,391.1c0-1.3,0.5-2.4,1.4-3.4s2.1-1.4,3.4-1.4c1.3,0,2.5,0.5,3.4,1.4s1.4,2.1,1.4,3.4c0,1.3-0.5,2.4-1.4,3.4
		c-0.9,0.9-2.1,1.4-3.4,1.4c-1.3,0-2.4-0.5-3.4-1.4S135.2,392.4,135.2,391.1z M137.1,391.1c0,0.8,0.3,1.5,0.9,2.1
		c0.6,0.6,1.3,0.9,2.1,0.9c0.8,0,1.5-0.3,2-0.9c0.6-0.6,0.9-1.3,0.9-2.1c0-0.8-0.3-1.5-0.9-2.1c-0.6-0.6-1.2-0.9-2-0.9
		c-0.8,0-1.5,0.3-2.1,0.9C137.3,389.6,137.1,390.3,137.1,391.1z"/>
</g>
<line fill="none" stroke="#000000" stroke-width="3" x1="35.1" y1="367.8" x2="35.1" y2="17"/>
<polygon points="27.7,17 35.5,3.6 43.2,17 "/>
<g>
	<path fill="#39B54A" d="M93.6,181.3l9.7-25.2h3.6l10.3,25.2h-3.8l-2.9-7.6H99.9l-2.8,7.6H93.6z M100.8,171h8.5l-2.6-7
		c-0.8-2.1-1.4-3.9-1.8-5.2c-0.3,1.6-0.8,3.2-1.4,4.8L100.8,171z"/>
</g>
<g>
	<path fill="#F7931E" d="M260,37.2l3.3,0.8c-0.7,2.7-2,4.8-3.8,6.3s-4,2.2-6.7,2.2c-2.7,0-4.9-0.6-6.6-1.7c-1.7-1.1-3-2.7-3.9-4.8
		c-0.9-2.1-1.3-4.3-1.3-6.8c0-2.6,0.5-4.9,1.5-6.9c1-2,2.4-3.4,4.3-4.4c1.8-1,3.9-1.5,6.1-1.5c2.5,0,4.6,0.6,6.4,1.9
		c1.7,1.3,2.9,3.1,3.6,5.4l-3.3,0.8c-0.6-1.8-1.4-3.2-2.5-4c-1.1-0.8-2.5-1.3-4.2-1.3c-1.9,0-3.6,0.5-4.9,1.4
		c-1.3,0.9-2.2,2.2-2.7,3.7c-0.5,1.6-0.8,3.2-0.8,4.8c0,2.1,0.3,4,0.9,5.6c0.6,1.6,1.6,2.8,2.9,3.6c1.3,0.8,2.7,1.2,4.3,1.2
		c1.9,0,3.4-0.5,4.7-1.6C258.7,40.9,259.6,39.3,260,37.2z"/>
</g>
<g>
	<path fill="#29ABE2" d="M678.4,124.4V99.2h9.4c1.9,0,3.5,0.3,4.6,0.8s2.1,1.3,2.7,2.4c0.7,1.1,1,2.2,1,3.3c0,1.1-0.3,2.1-0.9,3
		c-0.6,1-1.5,1.7-2.6,2.3c1.5,0.4,2.7,1.2,3.5,2.3s1.2,2.3,1.2,3.8c0,1.2-0.2,2.3-0.7,3.3c-0.5,1-1.1,1.8-1.8,2.3s-1.7,1-2.8,1.2
		c-1.1,0.3-2.5,0.4-4.1,0.4H678.4z M681.8,109.8h5.4c1.5,0,2.5-0.1,3.2-0.3c0.8-0.3,1.5-0.7,1.9-1.3c0.4-0.6,0.6-1.3,0.6-2.2
		c0-0.8-0.2-1.6-0.6-2.2c-0.4-0.6-1-1.1-1.7-1.3c-0.7-0.2-2-0.4-3.8-0.4h-5V109.8z M681.8,121.4h6.3c1.1,0,1.8,0,2.3-0.1
		c0.8-0.1,1.4-0.4,1.9-0.7c0.5-0.3,0.9-0.8,1.3-1.4c0.3-0.6,0.5-1.3,0.5-2.1c0-0.9-0.2-1.8-0.7-2.4c-0.5-0.7-1.1-1.2-2-1.5
		c-0.9-0.3-2.1-0.4-3.7-0.4h-5.8V121.4z"/>
</g>
<g>
	<path fill="#ED1C24" d="M531,36.6V11.4h8.7c2,0,3.5,0.1,4.5,0.4c1.4,0.3,2.7,0.9,3.7,1.8c1.3,1.1,2.3,2.6,3,4.3c0.7,1.7,1,3.7,1,6
		c0,1.9-0.2,3.6-0.7,5.1c-0.4,1.5-1,2.7-1.7,3.7s-1.5,1.7-2.3,2.3c-0.8,0.6-1.8,1-3,1.3c-1.2,0.3-2.5,0.4-4,0.4H531z M534.4,33.6
		h5.4c1.7,0,3-0.2,3.9-0.5s1.7-0.7,2.3-1.3c0.8-0.8,1.4-1.9,1.8-3.2c0.4-1.3,0.7-3,0.7-4.9c0-2.6-0.4-4.7-1.3-6.1
		c-0.9-1.4-1.9-2.4-3.2-2.8c-0.9-0.3-2.3-0.5-4.3-0.5h-5.3V33.6z"/>
</g>
<g>
	<path fill="#29ABE2" d="M389.6,124.4V99.2h9.4c1.9,0,3.5,0.3,4.6,0.8s2.1,1.3,2.7,2.4c0.7,1.1,1,2.2,1,3.3c0,1.1-0.3,2.1-0.9,3
		c-0.6,1-1.5,1.7-2.6,2.3c1.5,0.4,2.7,1.2,3.5,2.3s1.2,2.3,1.2,3.8c0,1.2-0.2,2.3-0.7,3.3c-0.5,1-1.1,1.8-1.8,2.3s-1.7,1-2.8,1.2
		c-1.1,0.3-2.5,0.4-4.1,0.4H389.6z M392.9,109.8h5.4c1.5,0,2.5-0.1,3.2-0.3c0.8-0.3,1.5-0.7,1.9-1.3c0.4-0.6,0.6-1.3,0.6-2.2
		c0-0.8-0.2-1.6-0.6-2.2c-0.4-0.6-1-1.1-1.7-1.3c-0.7-0.2-2-0.4-3.8-0.4h-5V109.8z M392.9,121.4h6.3c1.1,0,1.8,0,2.3-0.1
		c0.8-0.1,1.4-0.4,1.9-0.7c0.5-0.3,0.9-0.8,1.3-1.4c0.3-0.6,0.5-1.3,0.5-2.1c0-0.9-0.2-1.8-0.7-2.4c-0.5-0.7-1.1-1.2-2-1.5
		c-0.9-0.3-2.1-0.4-3.7-0.4h-5.8V121.4z"/>
</g>
<g>
	<path d="M2.8,54.4V29.2H21v3H6.1v7.7H20v3H6.1v8.6h15.5v3H2.8z"/>
</g>
<g>
	<path fill="#F7931E" d="M835.3,37.2l3.3,0.8c-0.7,2.7-2,4.8-3.8,6.3s-4,2.2-6.7,2.2c-2.7,0-4.9-0.6-6.6-1.7c-1.7-1.1-3-2.7-3.9-4.8
		s-1.3-4.3-1.3-6.8c0-2.6,0.5-4.9,1.5-6.9c1-2,2.4-3.4,4.3-4.4s3.9-1.5,6.1-1.5c2.5,0,4.6,0.6,6.4,1.9c1.7,1.3,2.9,3.1,3.6,5.4
		l-3.3,0.8c-0.6-1.8-1.4-3.2-2.5-4c-1.1-0.8-2.5-1.3-4.2-1.3c-1.9,0-3.6,0.5-4.9,1.4s-2.2,2.2-2.7,3.7c-0.5,1.6-0.8,3.2-0.8,4.8
		c0,2.1,0.3,4,0.9,5.6c0.6,1.6,1.6,2.8,2.9,3.6c1.3,0.8,2.7,1.2,4.3,1.2c1.9,0,3.4-0.5,4.7-1.6C833.9,40.9,834.8,39.3,835.3,37.2z"
		/>
</g>
<polygon points="387,352.5 394.8,366 402.5,352.5 "/>
<polygon points="244.7,352.5 252.5,366 260.2,352.5 "/>
</svg>
