<svg xmlns="http://www.w3.org/2000/svg" width="500" height="500" viewBox="0 0 500 500"><defs><style>.cls-1{fill:#4d4848;}.cls-2{fill:#f47d20;}</style></defs><g id="Nodes"><path class="cls-1" d="M159.17,272c.63-1.38,1.16-2.86,1.8-4.66a44.79,44.79,0,0,0,1.8-6.25l6.46-27.94c.53-2.86,1-5,1.06-6.25a16.19,16.19,0,0,0,.21-3.39v-1.27h14.61L176.32,261c-.64,2.76-1,4.87-1.27,6.36a22.21,22.21,0,0,0-.32,4.55Z"/><path class="cls-2" d="M352.57,135.9A17,17,0,0,0,337.63,161c-1.69.84-5.63,2.82-11.15,5.69a12.64,12.64,0,1,0-22.27,11.93c-2.84,1.56-5.79,3.21-8.81,4.92a9.93,9.93,0,0,0-17.16,10q-4.69,2.79-9.43,5.72a7.26,7.26,0,0,0-11.95,5.54,7.08,7.08,0,0,0,.25,1.86A342.1,342.1,0,0,0,222.39,232c-11.48-25.68-28.42-53.87-52-76.82l-.07-.06c-2.76-2.72-5-1.52-1.87,1.86l.12.13c20,21.53,35.72,52.68,46.43,81.09-40.63,34.69-85.42,101.91-36.33,123,7.15,3.08,10.4-2.8,7.33-4.61-.55-.33-22.42-12.15-8.52-48.45h35a3.4,3.4,0,1,0,0-6.79H180.4a139,139,0,0,1,6.92-12.84h25.16a3.4,3.4,0,1,0,0-6.79H191.65c2.6-3.89,5.51-7.95,8.79-12.21h12a3.4,3.4,0,1,0,0-6.79h-6.66c3.8-4.64,8-9.49,12.63-14.57l.12-.13c9.23,26.72,13.68,49.5,12.71,57.09a7.91,7.91,0,0,1-4.28,6.38c-1.71.81-2.42,3.18.28,4,8.59,2.53,13.88-6,14.83-12.85s-3.74-32.19-16.15-62.34a316.22,316.22,0,0,1,34.54-29.2,7.26,7.26,0,0,0,10.74-7.71c3.24-2.26,6.47-4.46,9.66-6.58a9.92,9.92,0,0,0,15.83-10.16c3.18-2,6.27-3.86,9.24-5.64a12.65,12.65,0,0,0,21.29-12.28c5.4-3,9.34-5.13,11.26-6.23a17,17,0,1,0,14.05-26.56Z"/><path class="cls-1" d="M122.73,272H79.44c-4.35,0-7.3-.95-8.9-3a8,8,0,0,1-1.27-4.76,22.47,22.47,0,0,1,.74-5.4l5.41-23.5c1.16-4.76,2.85-8.15,5.18-10.17s5.72-3,10.16-3h32c4.56,0,7.52,1,9,3a7.47,7.47,0,0,1,1.38,4.88,20.37,20.37,0,0,1-.74,5.29l-3.5,15.57H85.36L83,261a13.87,13.87,0,0,0-.31,2.44c0,.53,0,.95.21,1.16.31.64,1.27,1,2.75,1h31.76a38.76,38.76,0,0,0,8.26-.84Zm-3.38-38.85a8.71,8.71,0,0,0,.42-2.54,3.32,3.32,0,0,0-.21-1.06c-.43-.64-1.48-.95-3-.95H94.15a4.38,4.38,0,0,0-3.18.95,5.5,5.5,0,0,0-1.48,3.6l-2.64,11.43H116.7Z"/><path class="cls-1" d="M133.53,272c.67-1.54,1.23-3.2,1.91-5.22a52.12,52.12,0,0,0,1.9-7l11.13-51.5c.67-3.21,1.12-5.58,1.34-7s.23-3.08.23-5.22h15.49l-13.81,63.73q-1,4.63-1.35,7.13A27.12,27.12,0,0,0,150,272Z"/><path class="cls-1" d="M312.14,230.56c-1.59-.11-3.17-.22-5-.22h-7.1a5.19,5.19,0,0,0-3.17.85,5.72,5.72,0,0,0-1.8,3.28L289.17,261a40.68,40.68,0,0,0-1.48,9.74V272H272.24c.63-1.59,1.26-3.08,1.69-4.55s.95-3.5,1.69-6.36L282,233.1c.74-2.76,1.06-4.87,1.38-6.46a30.15,30.15,0,0,0,.22-4.45h13l-.52,5.08a9,9,0,0,1,3.28-3.81,10.51,10.51,0,0,1,5.6-1.27h12.71l3.07,5.5a12.26,12.26,0,0,0-1.8,2c-.74.95-1.27,1.37-1.59,1.37C315.43,230.88,313.73,230.66,312.14,230.56Z"/><path class="cls-1" d="M243.64,272c.63-1.38,1.16-2.86,1.8-4.66a44.79,44.79,0,0,0,1.8-6.25l6.46-27.94c.53-2.86,1-5,1.05-6.25a15.47,15.47,0,0,0,.22-3.39v-1.27h14.6L260.79,261c-.63,2.76-1.06,4.87-1.27,6.36a22.21,22.21,0,0,0-.32,4.55Z"/><path class="cls-1" d="M187.56,204.79a7.17,7.17,0,1,1-7.17-7.17A7.17,7.17,0,0,1,187.56,204.79Z"/><path class="cls-1" d="M235.57,342.89a7.45,7.45,0,0,0-3.88-.87H222.3c-1.57,0-2,.2-2.23,1.16l-.37,1.48c-.25,1,.08,1.16,1.65,1.16h7.16c4.3,0,6.24,1.49,5.29,5.34l-1.61,6.45c-1,4.18-3.1,6.49-7.94,6.49h-18.2l.47-5.37a6.44,6.44,0,0,0,3.72,1H220c1.57,0,1.95-.17,2.19-1.16l.46-1.82c.23-.95-.05-1.16-1.62-1.16H212.8c-4,0-5.25-1.32-4.15-5.75l1.47-5.91c1-4.14,3.59-6.29,7.15-6.29H236Z"/><path class="cls-1" d="M254.66,359.72a11,11,0,0,0,4.56-.87L257,364.1H234.21a11.3,11.3,0,0,0,2-4.55l4.32-17.37c.63-2.52.55-3.51.31-4.55h11.74a11.31,11.31,0,0,0-1.95,4.55l-4.37,17.54Z"/><path class="cls-1" d="M264.13,345.41c1.42-5.71,4.33-7.78,8.64-7.78H287.9c4.3,0,6.19,2.07,4.77,7.78L290,356.33c-1.42,5.7-4.33,7.77-8.63,7.77H266.18c-4.3,0-6.19-2.07-4.77-7.77ZM271.08,358c-.32,1.28.24,1.7,1.57,1.7H277c1.32,0,2.09-.42,2.41-1.7L283,343.71c.32-1.28-.24-1.69-1.56-1.69h-4.39c-1.32,0-2.09.41-2.41,1.69Z"/><path class="cls-1" d="M299.55,364.1l-2.74-24a4.37,4.37,0,0,0-1-2.44h12.57a6.94,6.94,0,0,0-.56,1.45,8.58,8.58,0,0,0,0,3.43l1.81,16,10.18-16a11.49,11.49,0,0,0,1.68-3.43,5.76,5.76,0,0,0,.16-1.45h6.82a20.39,20.39,0,0,0-3.84,4.8L310.84,364.1Z"/><path class="cls-1" d="M343.4,359.72a14.59,14.59,0,0,0,4.73-.7L346,364.1H322.63a11.3,11.3,0,0,0,2-4.55l4.32-17.37c.63-2.52.54-3.51.3-4.55h22.92l-.44,5.09a11.92,11.92,0,0,0-4.42-.7H339l-1.54,6.2h7.19a15,15,0,0,0,4.73-.7L348,353.31a11.79,11.79,0,0,0-4.38-.71h-7.19l-1.77,7.12Z"/><path class="cls-1" d="M359.43,342.18h-.09l-4.27,17.17c-.74,3-.75,3.51-.19,4.75h-6.37c1.18-1.24,1.44-1.78,2.18-4.75l4.22-17c.74-3,.75-3.52.19-4.76h14.19l5.38,21.59h.12L379,342.39c.74-3,.75-3.52.19-4.76h6.37c-1.18,1.24-1.44,1.78-2.18,4.76L378,364.1H364.89Z"/><path class="cls-1" d="M382.34,364.1a11.3,11.3,0,0,0,2-4.55l4.32-17.37c.63-2.52.55-3.51.31-4.55h11.74a11.44,11.44,0,0,0-2,4.55l-4.32,17.37c-.63,2.53-.54,3.52-.3,4.55Z"/><path class="cls-1" d="M406.36,357l-2.68,3.64a4.33,4.33,0,0,0-.77,1.57,2.38,2.38,0,0,0,.11,1.9h-7.49a28.32,28.32,0,0,0,4.21-4.8l14.66-20.18-.78-1.49h11.95l3.75,22.83a9.52,9.52,0,0,0,1.41,3.64H417.45c.74-1,.87-1.16,1-1.73a5,5,0,0,0,.12-2L418,357Zm11-4.39-1.54-8.93-6.28,8.93Z"/></g></svg>