<svg xmlns="http://www.w3.org/2000/svg" width="500" height="500" viewBox="0 0 500 500"><defs><style>.cls-1{fill:#4d4848;}.cls-2{fill:#f47d20;}</style></defs><g id="Nodes"><path class="cls-1" d="M156.31,272c.63-1.38,1.17-2.86,1.8-4.66a44.79,44.79,0,0,0,1.8-6.25l6.46-27.94c.53-2.86.95-5,1.06-6.25a16.19,16.19,0,0,0,.21-3.39v-1.27h14.61L173.46,261c-.64,2.76-1.05,4.87-1.27,6.36a22.21,22.21,0,0,0-.32,4.55Z"/><path class="cls-2" d="M349.71,135.9A17,17,0,0,0,334.77,161c-1.69.84-5.63,2.82-11.15,5.69a12.64,12.64,0,1,0-22.27,11.93c-2.84,1.56-5.79,3.21-8.81,4.92a9.93,9.93,0,0,0-17.16,10q-4.69,2.79-9.43,5.72A7.26,7.26,0,0,0,254,204.77a7.08,7.08,0,0,0,.25,1.86A342.1,342.1,0,0,0,219.53,232c-11.48-25.68-28.41-53.87-52-76.82l-.07-.06c-2.76-2.72-5-1.52-1.87,1.86l.12.13c20,21.53,35.72,52.68,46.43,81.09-40.63,34.69-85.42,101.91-36.33,123,7.15,3.08,10.4-2.8,7.33-4.61-.55-.33-22.42-12.15-8.52-48.45h35a3.4,3.4,0,1,0,0-6.79H177.54a136.82,136.82,0,0,1,6.93-12.84h25.15a3.4,3.4,0,1,0,0-6.79H188.79c2.6-3.89,5.51-7.95,8.79-12.21h12a3.4,3.4,0,1,0,0-6.79H203c3.8-4.64,8-9.49,12.63-14.57a.74.74,0,0,0,.12-.13c9.23,26.72,13.68,49.5,12.71,57.09a7.91,7.91,0,0,1-4.28,6.38c-1.71.81-2.42,3.18.28,4,8.59,2.53,13.88-6,14.83-12.85s-3.74-32.19-16.15-62.34a316.22,316.22,0,0,1,34.54-29.2,7.26,7.26,0,0,0,10.74-7.71c3.24-2.26,6.47-4.46,9.66-6.58a9.92,9.92,0,0,0,15.83-10.16c3.19-2,6.28-3.86,9.24-5.64a12.65,12.65,0,0,0,21.29-12.28c5.4-3,9.34-5.13,11.27-6.23a17,17,0,1,0,14-26.56Z"/><path class="cls-1" d="M119.88,272H76.58c-4.34,0-7.3-.95-8.9-3a8,8,0,0,1-1.27-4.76,22.47,22.47,0,0,1,.74-5.4l5.41-23.5c1.16-4.76,2.85-8.15,5.18-10.17s5.72-3,10.16-3h32c4.55,0,7.51,1,9,3a7.47,7.47,0,0,1,1.38,4.88,20.37,20.37,0,0,1-.74,5.29L126,250.89H82.5L80.17,261a13.87,13.87,0,0,0-.31,2.44c0,.53,0,.95.21,1.16.31.64,1.27,1,2.76,1h31.75a38.76,38.76,0,0,0,8.26-.84Zm-3.39-38.85a8.71,8.71,0,0,0,.42-2.54,3.32,3.32,0,0,0-.21-1.06c-.43-.64-1.48-.95-3-.95H91.29a4.38,4.38,0,0,0-3.18.95,5.5,5.5,0,0,0-1.48,3.6L84,244.53h29.85Z"/><path class="cls-1" d="M130.67,272c.67-1.54,1.23-3.2,1.91-5.22a52.12,52.12,0,0,0,1.9-7l11.13-51.5c.67-3.21,1.12-5.58,1.34-7s.23-3.08.23-5.22h15.49l-13.81,63.73q-1,4.63-1.35,7.13a27.12,27.12,0,0,0-.33,5.1Z"/><path class="cls-1" d="M309.28,230.56c-1.59-.11-3.17-.22-5-.22h-7.1a5.19,5.19,0,0,0-3.17.85,5.78,5.78,0,0,0-1.8,3.28L286.31,261a40.68,40.68,0,0,0-1.48,9.74V272H269.38c.63-1.59,1.27-3.08,1.69-4.55s.95-3.5,1.69-6.36l6.35-27.94c.74-2.76,1.06-4.87,1.38-6.46a30.15,30.15,0,0,0,.22-4.45h13l-.52,5.08a9,9,0,0,1,3.28-3.81,10.52,10.52,0,0,1,5.61-1.27h12.7l3.07,5.5a12.26,12.26,0,0,0-1.8,2c-.74.95-1.27,1.37-1.59,1.37C312.57,230.88,310.87,230.66,309.28,230.56Z"/><path class="cls-1" d="M240.78,272c.63-1.38,1.16-2.86,1.8-4.66a44.79,44.79,0,0,0,1.8-6.25l6.46-27.94c.53-2.86.95-5,1-6.25a15.47,15.47,0,0,0,.22-3.39v-1.27h14.6L257.93,261c-.63,2.76-1.06,4.87-1.27,6.36a22.21,22.21,0,0,0-.32,4.55Z"/><path class="cls-1" d="M184.7,204.79a7.17,7.17,0,1,1-7.16-7.17A7.17,7.17,0,0,1,184.7,204.79Z"/><path class="cls-1" d="M208.11,342.18c.63-2.52.54-3.51.3-4.55H229c5.62,0,7.07,2.15,5.73,7.53l-2.84,11.41c-1.33,5.38-3.86,7.53-9.48,7.53H201.83a11.18,11.18,0,0,0,1.95-4.55Zm5.72,17.54h5.26c1.65,0,2-.37,2.43-2.15l3.34-13.4c.44-1.78.29-2.15-1.37-2.15h-5.25Z"/><path class="cls-1" d="M254,359.72a14.47,14.47,0,0,0,4.72-.7l-2.17,5.08H233.21a11.16,11.16,0,0,0,2-4.55l4.33-17.37c.62-2.52.54-3.51.3-4.55h22.91l-.44,5.09a11.82,11.82,0,0,0-4.41-.7h-8.23l-1.55,6.2h7.2a14.87,14.87,0,0,0,4.72-.7l-1.44,5.79a11.72,11.72,0,0,0-4.37-.71H247l-1.77,7.12Z"/><path class="cls-1" d="M270,342.18h-.08l-4.27,17.17c-.74,3-.75,3.51-.19,4.75H259.1c1.18-1.24,1.43-1.78,2.18-4.75l4.22-17c.74-3,.75-3.52.19-4.76h14.18l5.38,21.59h.13l4.19-16.83c.74-3,.75-3.52.19-4.76h6.37c-1.18,1.24-1.44,1.78-2.18,4.76l-5.4,21.71H275.48Z"/><path class="cls-1" d="M323.09,337.63h13.52a10.83,10.83,0,0,0-2,4.55l-4.32,17.37c-.63,2.53-.55,3.52-.26,4.55H318.24a11.3,11.3,0,0,0,2-4.55l4.05-16.29h-.08L311.66,364.1h-7l-1.92-20.84h-.09l-4,16.09c-.74,3-.75,3.51-.19,4.75H292.1c1.18-1.24,1.44-1.78,2.18-4.75l4.22-17c.74-3,.75-3.52.19-4.76h13.89l1.31,15H314Z"/><path class="cls-1" d="M341.43,357l-2.69,3.64a4.31,4.31,0,0,0-.76,1.57,2.3,2.3,0,0,0,.11,1.9H330.6a28.32,28.32,0,0,0,4.21-4.8l14.66-20.18-.78-1.49h11.95l3.75,22.83a9.37,9.37,0,0,0,1.41,3.64H352.52c.74-1,.87-1.16,1-1.73a5,5,0,0,0,.12-2l-.6-3.39Zm11-4.39-1.54-8.93-6.27,8.93Z"/><path class="cls-1" d="M380.23,352.6l-1.73,6.95c-.62,2.53-.54,3.52-.3,4.55H366.45a11,11,0,0,0,2-4.55l4.33-17.37c.62-2.52.54-3.51.05-4.55h21.76c4.63,0,6.51,1.41,5.41,5.83l-1.21,4.88c-1,3.89-2.92,4.1-5.12,4.26l1.75,7.45a14.48,14.48,0,0,0,1.18,4.05H385.27l-1.93-11.5Zm1.09-4.38H387c1.28,0,1.71-.21,2-1.49l.8-3.22c.32-1.29,0-1.49-1.28-1.49h-5.71Z"/><path class="cls-1" d="M427.77,358.68a23.78,23.78,0,0,0,2.5,5.42H417.86l-3.13-11.21-3.06,2.69-1,4c-.63,2.53-.55,3.52-.31,4.55H398.63a11.3,11.3,0,0,0,2-4.55l4.32-17.37a8.73,8.73,0,0,0,.31-4.55H417a11.44,11.44,0,0,0-2,4.55l-1.82,7.32,8.9-8c1.49-1.32,1.9-2,2.12-2.85a9,9,0,0,0,.16-1h9.23a16.34,16.34,0,0,0-4.13,2.61l-6.17,5.21Z"/></g></svg>