<svg xmlns="http://www.w3.org/2000/svg" width="500" height="500" viewBox="0 0 500 500"><defs><style>.cls-1{fill:#4d4848;}.cls-2{fill:#f47d20;}</style></defs><g id="Nodes"><path class="cls-1" d="M189.75,272c.63-1.38,1.16-2.86,1.8-4.66a46.2,46.2,0,0,0,1.8-6.25l6.46-27.94c.53-2.86.95-5,1.06-6.25a16.19,16.19,0,0,0,.21-3.39v-1.27h14.61L206.9,261c-.64,2.76-1.06,4.87-1.27,6.36a22.21,22.21,0,0,0-.32,4.55Z"/><path class="cls-2" d="M383.15,135.9A17,17,0,0,0,368.21,161c-1.69.84-5.63,2.82-11.15,5.69a12.65,12.65,0,1,0-22.28,11.93c-2.83,1.56-5.78,3.21-8.8,4.92a9.93,9.93,0,0,0-17.16,10q-4.69,2.79-9.44,5.72a7.25,7.25,0,0,0-11.94,5.54,7.08,7.08,0,0,0,.25,1.86A342.1,342.1,0,0,0,253,232c-11.48-25.68-28.42-53.87-52-76.82l-.06-.06c-2.76-2.72-5-1.52-1.88,1.86l.12.13c20,21.53,35.72,52.68,46.43,81.09-40.62,34.69-85.41,101.91-36.32,123,7.15,3.08,10.4-2.8,7.33-4.61-.56-.33-22.42-12.15-8.52-48.45h35a3.4,3.4,0,0,0,0-6.79H211a139,139,0,0,1,6.92-12.84h25.16a3.4,3.4,0,0,0,0-6.79H222.23q3.89-5.83,8.78-12.21h12.05a3.4,3.4,0,0,0,0-6.79H236.4c3.8-4.64,8-9.49,12.63-14.57l.12-.13c9.23,26.72,13.68,49.5,12.7,57.09a7.93,7.93,0,0,1-4.27,6.38c-1.72.81-2.42,3.18.27,4,8.6,2.53,13.89-6,14.84-12.85s-3.74-32.19-16.15-62.34a316.22,316.22,0,0,1,34.54-29.2A7.26,7.26,0,0,0,302,204.77a7.35,7.35,0,0,0-.14-1.42c3.24-2.26,6.47-4.46,9.66-6.58a9.92,9.92,0,0,0,15.83-10.16c3.18-2,6.27-3.86,9.24-5.64a12.65,12.65,0,0,0,21.8-8.73,13,13,0,0,0-.51-3.55c5.4-3,9.34-5.13,11.26-6.23a17,17,0,1,0,14-26.56Z"/><path class="cls-1" d="M153.31,272H110c-4.34,0-7.3-.95-8.89-3a8,8,0,0,1-1.27-4.76,22.47,22.47,0,0,1,.74-5.4l5.4-23.5c1.16-4.76,2.86-8.15,5.19-10.17s5.72-3,10.16-3h32c4.55,0,7.52,1,9,3a7.47,7.47,0,0,1,1.38,4.88,20.37,20.37,0,0,1-.74,5.29l-3.5,15.57H115.94L113.61,261a13.87,13.87,0,0,0-.31,2.44c0,.53,0,.95.21,1.16.31.64,1.27,1,2.75,1H148a38.76,38.76,0,0,0,8.26-.84Zm-3.38-38.85a8.71,8.71,0,0,0,.42-2.54,3.32,3.32,0,0,0-.21-1.06c-.43-.64-1.48-.95-3-.95H124.73a4.38,4.38,0,0,0-3.18.95,5.5,5.5,0,0,0-1.48,3.6l-2.65,11.43h29.86Z"/><path class="cls-1" d="M164.11,272c.67-1.54,1.23-3.2,1.9-5.22a52,52,0,0,0,1.91-7L179,208.22c.68-3.21,1.12-5.58,1.35-7s.22-3.08.22-5.22h15.5L182.3,259.72c-.67,3.09-1.13,5.47-1.35,7.13a26.34,26.34,0,0,0-.34,5.1Z"/><path class="cls-1" d="M342.72,230.56c-1.59-.11-3.17-.22-5-.22h-7.1a5.17,5.17,0,0,0-3.17.85,5.67,5.67,0,0,0-1.8,3.28L319.75,261a40.17,40.17,0,0,0-1.48,9.74V272H302.81c.64-1.59,1.27-3.08,1.7-4.55s.95-3.5,1.69-6.36l6.35-27.94c.74-2.76,1.06-4.87,1.38-6.46a31.58,31.58,0,0,0,.21-4.45h13l-.53,5.08a9.05,9.05,0,0,1,3.29-3.81,10.51,10.51,0,0,1,5.6-1.27h12.71l3.07,5.5a11.82,11.82,0,0,0-1.8,2c-.74.95-1.27,1.37-1.59,1.37C346,230.88,344.31,230.66,342.72,230.56Z"/><path class="cls-1" d="M274.22,272c.63-1.38,1.16-2.86,1.8-4.66a44.89,44.89,0,0,0,1.79-6.25l6.47-27.94c.53-2.86,1-5,1.05-6.25a15.47,15.47,0,0,0,.22-3.39v-1.27h14.6L291.37,261c-.64,2.76-1.06,4.87-1.27,6.36a22.21,22.21,0,0,0-.32,4.55Z"/><path class="cls-1" d="M218.14,204.79a7.17,7.17,0,1,1-7.17-7.17A7.17,7.17,0,0,1,218.14,204.79Z"/><path class="cls-1" d="M236,364.1a11.3,11.3,0,0,0,2-4.55l4.32-17.37c.63-2.52.54-3.51.3-4.55h11.75a11.44,11.44,0,0,0-2,4.55l-4.32,17.37c-.63,2.53-.55,3.52-.31,4.55Z"/><path class="cls-1" d="M282.5,337.63l-.53,5.46a4.82,4.82,0,0,0-3.49-1.07h-4.59l-4.37,17.53c-.63,2.53-.54,3.52-.3,4.55H257.47a11.3,11.3,0,0,0,2-4.55L263.79,342H259.2a7.17,7.17,0,0,0-4,1.07l2.19-5.46Z"/><path class="cls-1" d="M285.29,357l-2.68,3.64a4.31,4.31,0,0,0-.76,1.57,2.34,2.34,0,0,0,.1,1.9h-7.48a29.23,29.23,0,0,0,4.21-4.8l14.66-20.18-.79-1.49H304.5l3.75,22.83a9.69,9.69,0,0,0,1.41,3.64H296.39a4.28,4.28,0,0,0,1-1.73,5.42,5.42,0,0,0,.12-2l-.6-3.39Zm11-4.39-1.54-8.93-6.28,8.93Z"/><path class="cls-1" d="M331.18,359.72a10.94,10.94,0,0,0,4.56-.87l-2.18,5.25H310.73a11,11,0,0,0,2-4.55L317,342.18c.62-2.52.54-3.51.3-4.55h11.75a11.29,11.29,0,0,0-2,4.55l-4.37,17.54Z"/><path class="cls-1" d="M342.92,353.76l-5.15-12.9a9.37,9.37,0,0,0-1.72-3.23h13.61a3.78,3.78,0,0,0-.37.83,5.71,5.71,0,0,0,.61,3l2.81,7.15,6.37-7.32a8.33,8.33,0,0,0,1.91-3.68h7.53a16,16,0,0,0-4.48,3.89L352.87,354.3l-1.3,5.25c-.63,2.53-.55,3.52-.31,4.55H339.52a11.3,11.3,0,0,0,2-4.55Z"/></g></svg>