<svg xmlns="http://www.w3.org/2000/svg" width="500" height="500" viewBox="0 0 500 500"><defs><style>.cls-1{fill:#4d4848;}.cls-2{fill:#f47d20;}</style></defs><g id="Nodes"><path class="cls-1" d="M161.92,251.27c.63-1.37,1.16-2.85,1.8-4.66a45.12,45.12,0,0,0,1.79-6.24l6.46-28c.53-2.86.95-5,1.06-6.25a16.14,16.14,0,0,0,.21-3.38v-1.27h14.61l-8.79,38.85q-.94,4.13-1.27,6.35a23,23,0,0,0-.31,4.55Z"/><path class="cls-2" d="M355.32,115.22a17,17,0,0,0-17,17,16.81,16.81,0,0,0,2.06,8.11c-1.69.85-5.63,2.82-11.15,5.69A12.65,12.65,0,1,0,307,158q-4.26,2.36-8.81,4.92a9.93,9.93,0,0,0-17.16,10c-3.12,1.87-6.28,3.78-9.43,5.72a7.26,7.26,0,0,0-11.95,5.55,7.65,7.65,0,0,0,.25,1.86,337.79,337.79,0,0,0-34.71,25.32c-11.49-25.68-28.42-53.87-52-76.82l-.07-.07c-2.76-2.72-5-1.52-1.87,1.87l.12.13c20,21.52,35.72,52.67,46.43,81.08-40.63,34.69-85.41,101.91-36.33,123,7.15,3.07,10.41-2.81,7.33-4.62-.55-.32-22.41-12.14-8.52-48.45h35a3.39,3.39,0,1,0,0-6.78H183.14a135.68,135.68,0,0,1,6.93-12.85h25.16a3.4,3.4,0,0,0,0-6.79H194.39c2.6-3.88,5.51-7.95,8.79-12.21h12a3.4,3.4,0,0,0,0-6.79h-6.67q5.7-7,12.64-14.56l.12-.14c9.22,26.72,13.68,49.5,12.7,57.1a7.93,7.93,0,0,1-4.27,6.37c-1.72.81-2.43,3.19.27,4,8.59,2.53,13.89-6,14.84-12.85s-3.74-32.19-16.15-62.34a316.1,316.1,0,0,1,34.53-29.2,7.19,7.19,0,0,0,3.62,1,7.27,7.27,0,0,0,7.27-7.26,6.74,6.74,0,0,0-.15-1.43q4.88-3.39,9.67-6.58a9.84,9.84,0,0,0,6.18,2.17,9.87,9.87,0,0,0,9.64-12.33q4.78-3,9.25-5.64A12.64,12.64,0,0,0,330,148c5.4-3,9.34-5.14,11.27-6.23a17,17,0,1,0,14.05-26.57Z"/><path class="cls-1" d="M125.48,251.27H82.18c-4.34,0-7.3-1-8.9-3A8,8,0,0,1,72,243.54a22.47,22.47,0,0,1,.74-5.4l5.4-23.5c1.16-4.76,2.85-8.15,5.18-10.16s5.72-3,10.17-3h32c4.55,0,7.51.95,9,3a7.36,7.36,0,0,1,1.39,4.87,20.42,20.42,0,0,1-.75,5.29l-3.49,15.57H88.11l-2.33,10.16a14,14,0,0,0-.32,2.43c0,.53,0,1,.22,1.16.31.64,1.26,1,2.75,1h31.75a38.76,38.76,0,0,0,8.26-.84Zm-3.39-38.85a8.34,8.34,0,0,0,.42-2.54,3.07,3.07,0,0,0-.21-1.06c-.42-.63-1.48-.95-3-.95H96.89a4.4,4.4,0,0,0-3.17.95,5.45,5.45,0,0,0-1.48,3.6l-2.65,11.43h29.85Z"/><path class="cls-1" d="M136.27,251.27c.67-1.54,1.23-3.2,1.91-5.22a52,52,0,0,0,1.91-7l11.12-51.5c.67-3.21,1.12-5.58,1.34-7s.23-3.09.23-5.23h15.5L154.46,239q-1,4.64-1.35,7.13a27.12,27.12,0,0,0-.33,5.1Z"/><path class="cls-1" d="M314.89,209.88c-1.59-.11-3.18-.21-5-.21h-7.09a5.15,5.15,0,0,0-3.17.84,5.7,5.7,0,0,0-1.8,3.28l-5.93,26.58a40.11,40.11,0,0,0-1.48,9.74v1.16H275c.63-1.59,1.27-3.07,1.69-4.55s1-3.5,1.7-6.35l6.35-28c.74-2.75,1.06-4.87,1.38-6.46a31.44,31.44,0,0,0,.21-4.44h13l-.53,5.08a9,9,0,0,1,3.28-3.81,10.48,10.48,0,0,1,5.61-1.27H320.4l3.06,5.5a12.16,12.16,0,0,0-1.8,2c-.74.95-1.26,1.38-1.58,1.38C318.17,210.2,316.47,210,314.89,209.88Z"/><path class="cls-1" d="M246.39,251.27c.63-1.37,1.16-2.85,1.79-4.66a43.67,43.67,0,0,0,1.8-6.24l6.46-28c.53-2.86.95-5,1.06-6.25a16.14,16.14,0,0,0,.21-3.38v-1.27h14.61l-8.79,38.85c-.63,2.75-1.06,4.87-1.26,6.35a22.31,22.31,0,0,0-.32,4.55Z"/><path class="cls-1" d="M190.3,184.11a7.17,7.17,0,1,1-7.16-7.16A7.16,7.16,0,0,1,190.3,184.11Z"/><path class="cls-1" d="M229.86,339c2.81,0,3.09-.29,3.68-2.65l3.65-14.68c.74-3,.75-3.51.19-4.75h6.37c-1.18,1.24-1.43,1.77-2.17,4.75l-3.37,13.53c-1.5,6-3.69,8.19-9.44,8.19h-13.4c-5.17,0-6.66-2.65-5.28-8.19l3.41-13.73c.63-2.53.55-3.52.31-4.55h11.74a11.18,11.18,0,0,0-2,4.55l-3.75,15.05c-.43,1.74.13,2.48,1.9,2.48Z"/><path class="cls-1" d="M250.35,321.51h-.08L246,338.67c-.74,3-.75,3.51-.19,4.76h-6.37c1.17-1.25,1.43-1.78,2.17-4.76l4.22-17c.74-3,.75-3.51.19-4.75h14.19l5.38,21.58h.12l4.19-16.83c.74-3,.75-3.51.19-4.75h6.37c-1.17,1.24-1.43,1.77-2.17,4.75l-5.41,21.72H255.81Z"/><path class="cls-1" d="M273.26,343.43a11.16,11.16,0,0,0,2-4.55l4.33-17.37c.62-2.53.54-3.52.3-4.55H291.6a11.16,11.16,0,0,0-2,4.55l-4.33,17.37c-.62,2.52-.54,3.51-.3,4.55Z"/><path class="cls-1" d="M319.76,317l-.53,5.46a4.81,4.81,0,0,0-3.5-1.08h-4.59l-4.36,17.54c-.63,2.52-.55,3.51-.31,4.55H294.73a11.44,11.44,0,0,0,2-4.55l4.36-17.54h-4.59a7.09,7.09,0,0,0-4,1.08l2.18-5.46Z"/><path class="cls-1" d="M336.18,339a14.47,14.47,0,0,0,4.72-.7l-2.17,5.09H315.4a11.29,11.29,0,0,0,2-4.55l4.33-17.37c.62-2.53.54-3.52.3-4.55H344.9l-.44,5.08a11.82,11.82,0,0,0-4.41-.7h-8.23l-1.55,6.2h7.2a14.87,14.87,0,0,0,4.72-.7l-1.44,5.79a11.73,11.73,0,0,0-4.37-.7h-7.2L327.41,339Z"/><path class="cls-1" d="M347.74,321.51c.63-2.53.54-3.52.3-4.55H368.6c5.62,0,7.07,2.15,5.73,7.52l-2.84,11.42c-1.33,5.37-3.86,7.53-9.48,7.53H341.46a11.31,11.31,0,0,0,2-4.55ZM353.46,339h5.26c1.65,0,2-.37,2.44-2.15l3.33-13.4c.44-1.78.29-2.15-1.37-2.15h-5.25Z"/><path class="cls-1" d="M236.57,379.36a23.78,23.78,0,0,0,2.5,5.42H226.66l-3.13-11.21-3.06,2.69-1,4c-.63,2.52-.55,3.52-.31,4.55H207.43a11.37,11.37,0,0,0,2-4.55l4.32-17.37a8.73,8.73,0,0,0,.31-4.55h11.74a11.37,11.37,0,0,0-2,4.55L222,370.18l8.9-8c1.49-1.33,1.9-2,2.12-2.86a8.5,8.5,0,0,0,.16-1h9.23a16.34,16.34,0,0,0-4.13,2.61l-6.17,5.21Z"/><path class="cls-1" d="M240.35,384.78a11.37,11.37,0,0,0,2-4.55l4.32-17.37c.63-2.52.54-3.52.3-4.55h11.75a11.37,11.37,0,0,0-2,4.55l-4.32,17.37c-.63,2.52-.55,3.52-.31,4.55Z"/><path class="cls-1" d="M266.44,362.86h-.09L262.08,380c-.74,3-.75,3.52-.19,4.76h-6.37c1.18-1.24,1.44-1.78,2.18-4.76l4.22-16.95c.74-3,.75-3.52.19-4.76H276.3l5.38,21.59h.12L286,363.07c.74-3,.75-3.52.19-4.76h6.37c-1.18,1.24-1.44,1.78-2.18,4.76L285,384.78H271.9Z"/><path class="cls-1" d="M321.76,368.9a7.6,7.6,0,0,0-2.27,4.13l-1.63,6.54c-.81,3.27-.78,3.8-.22,5.21h-8.89l.27-2.44h-.08c-.84,1.53-1.43,2.44-4.29,2.44h-8.93c-4.3,0-6.19-2.07-4.77-7.78l2.72-10.91c1.42-5.71,4.34-7.78,8.64-7.78h19.35l-.48,5.09a8.79,8.79,0,0,0-3.88-.71H306.59c-1.32,0-2.09.42-2.4,1.7l-3.57,14.31c-.32,1.28.24,1.7,1.57,1.7h3.39c1.32,0,2.09-.42,2.41-1.7l1.34-5.42h-3.76a4.16,4.16,0,0,0-1.82.5L305,368.9Z"/><path class="cls-1" d="M326.28,362.86c.62-2.52.54-3.52.3-4.55h20.56c5.62,0,7.07,2.15,5.73,7.53L350,377.25c-1.34,5.38-3.86,7.53-9.48,7.53H320a11.23,11.23,0,0,0,2-4.55ZM332,380.4h5.25c1.66,0,2-.38,2.44-2.16l3.34-13.4c.44-1.77.28-2.15-1.37-2.15h-5.25Z"/><path class="cls-1" d="M356.45,366.09c1.42-5.71,4.33-7.78,8.63-7.78h15.14c4.3,0,6.18,2.07,4.76,7.78L382.27,377c-1.42,5.71-4.34,7.78-8.64,7.78H358.49c-4.3,0-6.18-2.07-4.76-7.78Zm6.95,12.61c-.32,1.28.24,1.7,1.56,1.7h4.39c1.32,0,2.08-.42,2.4-1.7l3.56-14.31c.32-1.28-.24-1.7-1.56-1.7h-4.38c-1.33,0-2.09.42-2.41,1.7Z"/><path class="cls-1" d="M414.46,358.31H428a10.76,10.76,0,0,0-2,4.55l-4.32,17.37c-.63,2.52-.54,3.52-.26,4.55H409.61a11.37,11.37,0,0,0,2-4.55l4.05-16.3h-.08L403,384.78h-7l-1.92-20.85H394L390,380c-.74,3-.75,3.52-.19,4.76h-6.37c1.18-1.24,1.44-1.78,2.18-4.76l4.22-16.95c.74-3,.75-3.52.19-4.76H404l1.31,15h.09Z"/></g></svg>