<svg xmlns="http://www.w3.org/2000/svg" width="500" height="500" viewBox="0 0 500 500"><defs><style>.cls-1{fill:#4d4848;}.cls-2{fill:#f47d20;}</style></defs><g id="Nodes"><path class="cls-1" d="M189.75,272c.63-1.38,1.16-2.86,1.8-4.66a46.2,46.2,0,0,0,1.8-6.25l6.46-27.94c.53-2.86.95-5,1.06-6.25a16.19,16.19,0,0,0,.21-3.39v-1.27h14.61L206.9,261c-.64,2.76-1.06,4.87-1.27,6.36a22.21,22.21,0,0,0-.32,4.55Z"/><path class="cls-2" d="M383.15,135.9A17,17,0,0,0,368.21,161c-1.69.84-5.63,2.82-11.15,5.69a12.65,12.65,0,1,0-22.28,11.93c-2.83,1.56-5.78,3.21-8.8,4.92a9.93,9.93,0,0,0-17.16,10q-4.69,2.79-9.44,5.72a7.25,7.25,0,0,0-11.94,5.54,7.08,7.08,0,0,0,.25,1.86A342.1,342.1,0,0,0,253,232c-11.48-25.68-28.42-53.87-52-76.82l-.06-.06c-2.76-2.72-5-1.52-1.88,1.86l.12.13c20,21.53,35.72,52.68,46.43,81.09-40.62,34.69-85.41,101.91-36.32,123,7.15,3.08,10.4-2.8,7.33-4.61-.56-.33-22.42-12.14-8.52-48.45h35a3.4,3.4,0,0,0,0-6.79H211a139,139,0,0,1,6.92-12.84h25.16a3.4,3.4,0,0,0,0-6.79H222.23q3.89-5.83,8.78-12.21h12.05a3.4,3.4,0,0,0,0-6.79H236.4c3.8-4.64,8-9.49,12.63-14.57l.12-.13c9.23,26.72,13.68,49.5,12.7,57.09a7.93,7.93,0,0,1-4.27,6.38c-1.72.81-2.42,3.18.27,4,8.6,2.53,13.89-6,14.84-12.85s-3.74-32.19-16.15-62.34a316.22,316.22,0,0,1,34.54-29.2A7.26,7.26,0,0,0,302,204.77a7.35,7.35,0,0,0-.14-1.42c3.24-2.26,6.47-4.46,9.66-6.58a9.92,9.92,0,0,0,15.83-10.16c3.18-2,6.27-3.86,9.24-5.64a12.65,12.65,0,0,0,21.8-8.73,13,13,0,0,0-.51-3.55c5.4-3,9.34-5.13,11.26-6.23a17,17,0,1,0,14-26.56Z"/><path class="cls-1" d="M153.31,272H110c-4.34,0-7.3-.95-8.89-3a8,8,0,0,1-1.27-4.76,22.47,22.47,0,0,1,.74-5.4l5.4-23.5c1.16-4.76,2.86-8.15,5.19-10.17s5.72-3,10.16-3h32c4.55,0,7.52,1,9,3a7.47,7.47,0,0,1,1.38,4.88,20.37,20.37,0,0,1-.74,5.29l-3.5,15.57H115.94L113.61,261a13.87,13.87,0,0,0-.31,2.44c0,.53,0,.95.21,1.16.31.64,1.27,1,2.75,1H148a38.76,38.76,0,0,0,8.26-.84Zm-3.38-38.85a8.71,8.71,0,0,0,.42-2.54,3.32,3.32,0,0,0-.21-1.06c-.43-.64-1.48-.95-3-.95H124.73a4.38,4.38,0,0,0-3.18.95,5.5,5.5,0,0,0-1.48,3.6l-2.65,11.43h29.86Z"/><path class="cls-1" d="M164.11,272c.67-1.54,1.23-3.2,1.9-5.22a52,52,0,0,0,1.91-7L179,208.22c.68-3.21,1.12-5.58,1.35-7s.22-3.08.22-5.22h15.5L182.3,259.72c-.67,3.09-1.13,5.47-1.35,7.13a26.34,26.34,0,0,0-.34,5.1Z"/><path class="cls-1" d="M342.72,230.56c-1.59-.11-3.17-.22-5-.22h-7.1a5.17,5.17,0,0,0-3.17.85,5.67,5.67,0,0,0-1.8,3.28L319.75,261a40.17,40.17,0,0,0-1.48,9.74V272H302.81c.64-1.59,1.27-3.08,1.7-4.55s.95-3.5,1.69-6.36l6.35-27.94c.74-2.76,1.06-4.87,1.38-6.46a31.58,31.58,0,0,0,.21-4.45h13l-.53,5.08a9.05,9.05,0,0,1,3.29-3.81,10.51,10.51,0,0,1,5.6-1.27h12.71l3.07,5.5a11.82,11.82,0,0,0-1.8,2c-.74.95-1.27,1.37-1.59,1.37C346,230.88,344.31,230.66,342.72,230.56Z"/><path class="cls-1" d="M274.22,272c.63-1.38,1.16-2.86,1.8-4.66a44.89,44.89,0,0,0,1.79-6.25l6.47-27.94c.53-2.86,1-5,1.05-6.25a15.47,15.47,0,0,0,.22-3.39v-1.27h14.6L291.37,261c-.64,2.76-1.06,4.87-1.27,6.36a22.21,22.21,0,0,0-.32,4.55Z"/><path class="cls-1" d="M218.14,204.79a7.17,7.17,0,1,1-7.17-7.17A7.17,7.17,0,0,1,218.14,204.79Z"/><path class="cls-1" d="M266.14,342.89a7.38,7.38,0,0,0-3.87-.87h-9.39c-1.57,0-2,.2-2.23,1.16l-.38,1.48c-.24,1,.09,1.16,1.66,1.16h7.16c4.3,0,6.24,1.49,5.28,5.34l-1.6,6.45c-1,4.18-3.11,6.49-7.95,6.49H236.63l.47-5.37a6.44,6.44,0,0,0,3.72,1h9.76c1.57,0,1.94-.17,2.19-1.16l.45-1.82c.24-.95,0-1.16-1.61-1.16h-8.23c-4,0-5.25-1.32-4.15-5.75l1.47-5.91c1-4.14,3.59-6.29,7.15-6.29h18.73Z"/><path class="cls-1" d="M276.43,359.55c-.63,2.53-.55,3.52-.31,4.55H264.38a11.3,11.3,0,0,0,2-4.55l4.32-17.37c.63-2.52.54-3.51.06-4.55h21.67c3.93,0,6.43,1.08,5.09,6.45l-1,4.14c-1.34,5.38-4.38,6.45-8.3,6.45H277.64Zm2.3-9.26H284c1.43,0,1.92-.41,2.38-2.28l.93-3.72c.46-1.86.2-2.31-1.26-2.27h-5.29Z"/><path class="cls-1" d="M303,357l-2.68,3.64a4.5,4.5,0,0,0-.77,1.57,2.38,2.38,0,0,0,.11,1.9h-7.49a28.86,28.86,0,0,0,4.22-4.8L311,339.12l-.79-1.49h12l3.75,22.83a9.69,9.69,0,0,0,1.41,3.64H314a4.22,4.22,0,0,0,1-1.73,5.42,5.42,0,0,0,.12-2l-.61-3.39Zm11-4.39-1.54-8.93-6.28,8.93Z"/><path class="cls-1" d="M328.72,364.1a11.16,11.16,0,0,0,2-4.55L335,342.18c.62-2.52.54-3.51.3-4.55h11.75a11.16,11.16,0,0,0-2,4.55l-4.33,17.37c-.62,2.53-.54,3.52-.3,4.55Z"/><path class="cls-1" d="M354.81,342.18h-.08l-4.27,17.17c-.74,3-.75,3.51-.19,4.75H343.9c1.18-1.24,1.43-1.78,2.18-4.75l4.22-17c.74-3,.75-3.52.19-4.76h14.18l5.38,21.59h.13l4.19-16.83c.74-3,.75-3.52.19-4.76h6.37c-1.18,1.24-1.44,1.78-2.18,4.76l-5.4,21.71H360.28Z"/></g></svg>