<svg xmlns="http://www.w3.org/2000/svg" width="500" height="500" viewBox="0 0 500 500"><defs><style>.cls-1{fill:#4d4848;}.cls-2{fill:#f47d20;}</style></defs><g id="Nodes"><path class="cls-1" d="M173.19,272c.63-1.38,1.16-2.86,1.8-4.66a44.89,44.89,0,0,0,1.79-6.25l6.46-27.94c.53-2.86.95-5,1.06-6.25a16.19,16.19,0,0,0,.21-3.39v-1.27h14.61L190.33,261c-.63,2.76-1.05,4.87-1.27,6.36a22.92,22.92,0,0,0-.31,4.55Z"/><path class="cls-2" d="M366.59,135.9a17,17,0,0,0-17,17,16.81,16.81,0,0,0,2.06,8.11c-1.7.84-5.64,2.82-11.15,5.69a12.65,12.65,0,1,0-22.28,11.93c-2.84,1.56-5.78,3.21-8.81,4.92a9.93,9.93,0,0,0-17.16,10c-3.12,1.86-6.28,3.77-9.43,5.72a7.26,7.26,0,0,0-11.95,5.54,7.52,7.52,0,0,0,.25,1.86A340.8,340.8,0,0,0,236.41,232c-11.49-25.68-28.42-53.87-52-76.82l-.07-.06c-2.76-2.72-5-1.52-1.87,1.86l.12.13c20,21.53,35.72,52.68,46.43,81.09-40.63,34.69-85.42,101.91-36.33,123,7.15,3.08,10.41-2.8,7.33-4.61-.55-.33-22.41-12.15-8.52-48.45h35a3.4,3.4,0,0,0,0-6.79H194.41a136.82,136.82,0,0,1,6.93-12.84H226.5a3.4,3.4,0,0,0,0-6.79H205.66c2.6-3.89,5.51-7.95,8.79-12.21H226.5a3.4,3.4,0,0,0,0-6.79h-6.67q5.7-7,12.64-14.57l.12-.13c9.22,26.72,13.68,49.5,12.7,57.09a7.93,7.93,0,0,1-4.27,6.38c-1.72.81-2.43,3.18.27,4,8.59,2.53,13.88-6,14.84-12.85s-3.74-32.19-16.16-62.34a317.16,317.16,0,0,1,34.54-29.2,7.26,7.26,0,0,0,10.89-6.29,6.64,6.64,0,0,0-.15-1.42q4.88-3.39,9.67-6.58a9.9,9.9,0,0,0,15.82-10.16q4.78-3,9.25-5.64a12.64,12.64,0,0,0,21.28-12.28c5.4-3,9.34-5.13,11.27-6.23a17,17,0,1,0,14-26.56Z"/><path class="cls-1" d="M136.75,272H93.45c-4.34,0-7.3-.95-8.9-3a8,8,0,0,1-1.26-4.76,22.47,22.47,0,0,1,.74-5.4l5.4-23.5c1.16-4.76,2.85-8.15,5.18-10.17s5.72-3,10.17-3h32c4.55,0,7.51,1,9,3a7.41,7.41,0,0,1,1.39,4.88,20.42,20.42,0,0,1-.75,5.29l-3.49,15.57H99.38L97.05,261a14.11,14.11,0,0,0-.32,2.44c0,.53,0,.95.22,1.16.31.64,1.26,1,2.75,1h31.75a38.76,38.76,0,0,0,8.26-.84Zm-3.39-38.85a8.38,8.38,0,0,0,.42-2.54,3.07,3.07,0,0,0-.21-1.06c-.43-.64-1.48-.95-3-.95H108.16a4.36,4.36,0,0,0-3.17.95,5.45,5.45,0,0,0-1.48,3.6l-2.65,11.43h29.85Z"/><path class="cls-1" d="M147.54,272c.67-1.54,1.23-3.2,1.91-5.22a52.42,52.42,0,0,0,1.91-7l11.12-51.5c.67-3.21,1.12-5.58,1.34-7s.23-3.08.23-5.22h15.5l-13.82,63.73q-1,4.63-1.35,7.13a27.12,27.12,0,0,0-.33,5.1Z"/><path class="cls-1" d="M326.16,230.56c-1.59-.11-3.18-.22-5-.22h-7.09a5.15,5.15,0,0,0-3.17.85,5.67,5.67,0,0,0-1.8,3.28L303.19,261a40.17,40.17,0,0,0-1.48,9.74V272H286.25c.63-1.59,1.27-3.08,1.69-4.55s1-3.5,1.7-6.36L296,233.1c.74-2.76,1.06-4.87,1.38-6.46a31.58,31.58,0,0,0,.21-4.45h13l-.53,5.08a9,9,0,0,1,3.28-3.81,10.57,10.57,0,0,1,5.61-1.27h12.71l3.06,5.5a12.26,12.26,0,0,0-1.8,2c-.74.95-1.26,1.37-1.58,1.37C329.44,230.88,327.74,230.66,326.16,230.56Z"/><path class="cls-1" d="M257.66,272c.63-1.38,1.16-2.86,1.79-4.66a43.46,43.46,0,0,0,1.8-6.25l6.46-27.94c.53-2.86,1-5,1.06-6.25a16.19,16.19,0,0,0,.21-3.39v-1.27h14.61L274.8,261c-.63,2.76-1.06,4.87-1.26,6.36a22.21,22.21,0,0,0-.32,4.55Z"/><path class="cls-1" d="M201.57,204.79a7.17,7.17,0,1,1-7.16-7.17A7.16,7.16,0,0,1,201.57,204.79Z"/><path class="cls-1" d="M251.85,348.22a7.63,7.63,0,0,0-2.27,4.14L248,358.89c-.81,3.27-.78,3.81-.22,5.21h-8.89l.28-2.44H239c-.83,1.53-1.43,2.44-4.29,2.44h-8.93c-4.3,0-6.18-2.07-4.76-7.77l2.71-10.92c1.42-5.71,4.34-7.78,8.64-7.78h19.35l-.48,5.09a8.94,8.94,0,0,0-3.87-.7H236.68c-1.32,0-2.08.41-2.4,1.69L230.72,358c-.32,1.28.24,1.7,1.56,1.7h3.39c1.32,0,2.09-.42,2.41-1.7l1.35-5.42h-3.77a4.16,4.16,0,0,0-1.82.5l1.22-4.88Z"/><path class="cls-1" d="M281.24,337.63l-.53,5.46a4.85,4.85,0,0,0-3.5-1.07h-4.59l-4.36,17.53c-.63,2.53-.55,3.52-.31,4.55H256.21a11.3,11.3,0,0,0,2-4.55L262.53,342h-4.59a7.17,7.17,0,0,0-4,1.07l2.18-5.46Z"/><path class="cls-1" d="M290.66,352.6l-1.73,6.95c-.62,2.53-.54,3.52-.3,4.55H276.88a11.16,11.16,0,0,0,2-4.55l4.32-17.37c.63-2.52.55-3.51.06-4.55H305c4.63,0,6.51,1.41,5.41,5.83l-1.21,4.88c-1,3.89-2.93,4.1-5.12,4.26l1.75,7.45A14.48,14.48,0,0,0,307,364.1H295.7l-1.94-11.5Zm1.09-4.38h5.71c1.28,0,1.71-.21,2-1.49l.8-3.22c.32-1.29,0-1.49-1.29-1.49h-5.7Z"/><path class="cls-1" d="M329.83,359.72a14.59,14.59,0,0,0,4.73-.7l-2.18,5.08H309.06a11.3,11.3,0,0,0,2-4.55l4.32-17.37c.63-2.52.54-3.51.3-4.55h22.92l-.44,5.09a11.92,11.92,0,0,0-4.42-.7h-8.23l-1.54,6.2h7.19a15,15,0,0,0,4.73-.7l-1.44,5.79a11.79,11.79,0,0,0-4.38-.71h-7.19l-1.77,7.12Z"/><path class="cls-1" d="M355.89,359.72a14.57,14.57,0,0,0,4.72-.7l-2.18,5.08H335.11a11.3,11.3,0,0,0,2-4.55l4.32-17.37c.63-2.52.55-3.51.31-4.55h22.91l-.44,5.09a11.88,11.88,0,0,0-4.42-.7h-8.23l-1.54,6.2h7.2a15,15,0,0,0,4.72-.7l-1.44,5.79a11.74,11.74,0,0,0-4.38-.71h-7.19l-1.77,7.12Z"/><path class="cls-1" d="M390.26,342.72a8.94,8.94,0,0,0-3.87-.7h-7.24c-1.33,0-2.09.41-2.41,1.69L373.18,358c-.32,1.28.24,1.7,1.56,1.7h5.71c4.05,0,4.79-.29,6.33-1l-2.21,5.37h-16.3c-4.3,0-6.18-2.07-4.76-7.77l2.72-10.92c1.42-5.71,4.33-7.78,8.63-7.78h15.88Z"/><path class="cls-1" d="M408,359.72a14.59,14.59,0,0,0,4.73-.7l-2.18,5.08H387.21a11,11,0,0,0,2-4.55l4.33-17.37c.62-2.52.54-3.51.3-4.55h22.91l-.43,5.09a11.92,11.92,0,0,0-4.42-.7h-8.23l-1.54,6.2h7.19a15,15,0,0,0,4.73-.7l-1.45,5.79a11.68,11.68,0,0,0-4.37-.71H401l-1.77,7.12Z"/></g></svg>