<svg xmlns="http://www.w3.org/2000/svg" width="500" height="500" viewBox="0 0 500 500"><defs><style>.cls-1{fill:#4d4848;}.cls-2{fill:#f47d20;}</style></defs><g id="Nodes"><path class="cls-1" d="M150,272c.63-1.38,1.16-2.86,1.8-4.66a46.2,46.2,0,0,0,1.8-6.25L160,233.1c.53-2.86.94-5,1.06-6.25a16.19,16.19,0,0,0,.21-3.39v-1.27h14.6L167.11,261c-.64,2.76-1.06,4.87-1.27,6.36a22.21,22.21,0,0,0-.32,4.55Z"/><path class="cls-2" d="M343.36,135.9A17,17,0,0,0,328.42,161c-1.69.84-5.63,2.82-11.15,5.69A12.65,12.65,0,1,0,295,178.63c-2.84,1.56-5.78,3.21-8.8,4.92A9.93,9.93,0,0,0,267.94,189a9.82,9.82,0,0,0,1.09,4.51q-4.69,2.79-9.44,5.72a7.25,7.25,0,0,0-11.94,5.54,7.08,7.08,0,0,0,.25,1.86A342.1,342.1,0,0,0,213.18,232c-11.48-25.68-28.42-53.87-52-76.82l-.07-.06c-2.75-2.72-5-1.52-1.87,1.86l.12.13c20,21.53,35.72,52.68,46.43,81.09-40.63,34.69-85.41,101.91-36.32,123,7.14,3.08,10.4-2.8,7.32-4.61-.55-.33-22.41-12.14-8.51-48.45h35a3.4,3.4,0,0,0,0-6.79H171.19a134.31,134.31,0,0,1,6.92-12.84h25.16a3.4,3.4,0,0,0,0-6.79H182.44q3.88-5.83,8.78-12.21h12.05a3.4,3.4,0,0,0,0-6.79h-6.66c3.8-4.64,8-9.49,12.63-14.57l.12-.13c9.23,26.72,13.68,49.5,12.7,57.09a7.93,7.93,0,0,1-4.27,6.38c-1.72.81-2.42,3.18.27,4,8.6,2.53,13.89-6,14.84-12.85s-3.74-32.19-16.15-62.34a317,317,0,0,1,34.53-29.2A7.26,7.26,0,0,0,262,203.35c3.24-2.26,6.47-4.46,9.66-6.58a9.92,9.92,0,0,0,15.83-10.16c3.18-2,6.27-3.86,9.24-5.64a12.65,12.65,0,0,0,21.8-8.73,13,13,0,0,0-.51-3.55c5.4-3,9.34-5.13,11.26-6.23a17,17,0,1,0,14.05-26.56Z"/><path class="cls-1" d="M113.52,272H70.22c-4.34,0-7.3-.95-8.89-3a8,8,0,0,1-1.27-4.76,22.47,22.47,0,0,1,.74-5.4l5.4-23.5c1.16-4.76,2.85-8.15,5.19-10.17s5.71-3,10.16-3h32c4.55,0,7.52,1,9,3A7.47,7.47,0,0,1,123.9,230a20.42,20.42,0,0,1-.75,5.29l-3.49,15.57H76.15L73.82,261a14.11,14.11,0,0,0-.32,2.44c0,.53,0,.95.22,1.16.31.64,1.26,1,2.75,1h31.75a38.86,38.86,0,0,0,8.27-.84Zm-3.39-38.85a8.44,8.44,0,0,0,.43-2.54,3.32,3.32,0,0,0-.21-1.06c-.43-.64-1.49-.95-3-.95H84.93a4.37,4.37,0,0,0-3.17.95,5.45,5.45,0,0,0-1.48,3.6l-2.65,11.43h29.85Z"/><path class="cls-1" d="M124.31,272c.68-1.54,1.24-3.2,1.91-5.22a52,52,0,0,0,1.91-7l11.12-51.5c.67-3.21,1.12-5.58,1.35-7s.22-3.08.22-5.22h15.5l-13.81,63.73c-.67,3.09-1.13,5.47-1.35,7.13a26.34,26.34,0,0,0-.34,5.1Z"/><path class="cls-1" d="M302.93,230.56c-1.59-.11-3.18-.22-5-.22h-7.09a5.15,5.15,0,0,0-3.17.85,5.67,5.67,0,0,0-1.8,3.28L280,261a40.17,40.17,0,0,0-1.48,9.74V272H263c.63-1.59,1.27-3.08,1.69-4.55s1-3.5,1.7-6.36l6.35-27.94c.74-2.76,1.06-4.87,1.38-6.46a31.58,31.58,0,0,0,.21-4.45h13l-.53,5.08a9.1,9.1,0,0,1,3.28-3.81,10.57,10.57,0,0,1,5.61-1.27h12.71l3.06,5.5a11.8,11.8,0,0,0-1.79,2c-.74.95-1.27,1.37-1.59,1.37C306.22,230.88,304.51,230.66,302.93,230.56Z"/><path class="cls-1" d="M234.43,272c.63-1.38,1.16-2.86,1.79-4.66A43.46,43.46,0,0,0,238,261l6.47-27.94c.52-2.86.94-5,1-6.25a16.19,16.19,0,0,0,.21-3.39v-1.27h14.61L251.58,261c-.64,2.76-1.06,4.87-1.27,6.36A22.21,22.21,0,0,0,250,272Z"/><path class="cls-1" d="M178.35,204.79a7.17,7.17,0,1,1-7.17-7.17A7.17,7.17,0,0,1,178.35,204.79Z"/><path class="cls-1" d="M207.52,359.55c-.63,2.53-.54,3.52-.3,4.55H195.47a11.3,11.3,0,0,0,2-4.55l4.32-17.37c.63-2.52.55-3.51.06-4.55h21.67c3.93,0,6.43,1.08,5.1,6.45l-1,4.14c-1.34,5.38-4.38,6.45-8.31,6.45h-10.5Zm2.31-9.26h5.29c1.44,0,1.92-.42,2.39-2.28l.92-3.72c.47-1.86.21-2.31-1.25-2.27h-5.29Z"/><path class="cls-1" d="M231.18,345.41c1.42-5.71,4.33-7.78,8.64-7.78H255c4.3,0,6.19,2.07,4.77,7.78L257,356.33c-1.42,5.7-4.33,7.77-8.64,7.77H233.23c-4.3,0-6.19-2.07-4.77-7.77ZM238.13,358c-.32,1.28.24,1.7,1.57,1.7h4.38c1.32,0,2.09-.42,2.41-1.7l3.56-14.31c.32-1.28-.24-1.69-1.57-1.69H244.1c-1.32,0-2.09.41-2.41,1.69Z"/><path class="cls-1" d="M272.07,352.6l-1.73,6.95c-.63,2.53-.55,3.52-.31,4.55H258.29a11.3,11.3,0,0,0,2-4.55l4.32-17.37c.63-2.52.54-3.51.06-4.55h21.75c4.63,0,6.52,1.41,5.42,5.83l-1.22,4.88c-1,3.89-2.92,4.1-5.11,4.26l1.74,7.45a14.45,14.45,0,0,0,1.19,4.05H277.11l-1.94-11.5Zm1.09-4.38h5.71c1.28,0,1.7-.21,2-1.49l.8-3.22c.32-1.29,0-1.49-1.28-1.49H274.7Z"/><path class="cls-1" d="M321.62,337.63l-.54,5.46a4.82,4.82,0,0,0-3.49-1.07H313l-4.37,17.53c-.63,2.53-.54,3.52-.3,4.55H296.58a11.16,11.16,0,0,0,2-4.55L302.91,342h-4.59a7.2,7.2,0,0,0-4,1.07l2.19-5.46Z"/><path class="cls-1" d="M339.69,359.72c2.81,0,3.09-.29,3.68-2.65L347,342.39c.74-3,.75-3.52.19-4.76h6.37c-1.17,1.24-1.43,1.78-2.17,4.76L348,355.91c-1.5,6-3.69,8.19-9.44,8.19H325.2c-5.17,0-6.66-2.64-5.28-8.19l3.41-13.73c.63-2.52.55-3.51.31-4.55h11.74a11.31,11.31,0,0,0-1.95,4.55l-3.75,15.06c-.43,1.73.13,2.48,1.9,2.48Z"/><path class="cls-1" d="M382.58,348.22a7.69,7.69,0,0,0-2.27,4.14l-1.62,6.53c-.82,3.27-.78,3.81-.23,5.21h-8.89l.28-2.44h-.08c-.84,1.53-1.44,2.44-4.29,2.44h-8.93c-4.31,0-6.19-2.07-4.77-7.77l2.72-10.92c1.42-5.71,4.33-7.78,8.63-7.78h19.36l-.48,5.09a9,9,0,0,0-3.88-.7H367.42c-1.32,0-2.09.41-2.41,1.69L361.45,358c-.32,1.28.24,1.7,1.56,1.7h3.39c1.33,0,2.09-.42,2.41-1.7l1.35-5.42H366.4a4.12,4.12,0,0,0-1.82.5l1.21-4.88Z"/><path class="cls-1" d="M389.5,357l-2.69,3.64a4.31,4.31,0,0,0-.76,1.57,2.34,2.34,0,0,0,.1,1.9h-7.48a28.77,28.77,0,0,0,4.21-4.8l14.66-20.18-.79-1.49h12l3.74,22.83a9.69,9.69,0,0,0,1.41,3.64H400.59c.74-1,.87-1.16,1-1.73a5.21,5.21,0,0,0,.12-2l-.6-3.39Zm11-4.39-1.54-8.93-6.27,8.93Z"/><path class="cls-1" d="M435.38,359.72a10.94,10.94,0,0,0,4.56-.87l-2.17,5.25H414.94a11.3,11.3,0,0,0,2-4.55l4.32-17.37c.63-2.52.54-3.51.3-4.55h11.75a11.44,11.44,0,0,0-2,4.55L427,359.72Z"/></g></svg>