<svg xmlns="http://www.w3.org/2000/svg" width="500" height="500" viewBox="0 0 500 500"><defs><style>.cls-1{fill:#4d4848;}.cls-2{fill:#f47d20;}</style></defs><g id="Nodes"><path class="cls-1" d="M176.78,272c.63-1.38,1.17-2.86,1.8-4.66a44.79,44.79,0,0,0,1.8-6.25l6.46-27.94c.53-2.86.95-5,1.06-6.25a16.19,16.19,0,0,0,.21-3.39v-1.27h14.61L193.93,261c-.64,2.76-1.05,4.87-1.27,6.36a22.21,22.21,0,0,0-.32,4.55Z"/><path class="cls-2" d="M370.18,135.9A17,17,0,0,0,355.24,161c-1.69.84-5.63,2.82-11.15,5.69a12.64,12.64,0,1,0-22.27,11.93c-2.84,1.56-5.79,3.21-8.81,4.92a9.93,9.93,0,0,0-17.16,10q-4.69,2.79-9.43,5.72a7.26,7.26,0,0,0-11.95,5.54,7.08,7.08,0,0,0,.25,1.86A342.1,342.1,0,0,0,240,232c-11.48-25.68-28.41-53.87-52-76.82l-.07-.06c-2.76-2.72-5-1.52-1.87,1.86l.12.13c20,21.53,35.72,52.68,46.43,81.09-40.63,34.69-85.42,101.91-36.33,123,7.15,3.08,10.4-2.8,7.33-4.61-.55-.33-22.42-12.14-8.52-48.45h35a3.4,3.4,0,1,0,0-6.79H198a136.82,136.82,0,0,1,6.93-12.84h25.15a3.4,3.4,0,1,0,0-6.79H209.26c2.6-3.89,5.51-7.95,8.79-12.21h12a3.4,3.4,0,1,0,0-6.79h-6.66c3.8-4.64,8-9.49,12.63-14.57l.12-.13c9.23,26.72,13.68,49.5,12.71,57.09a7.91,7.91,0,0,1-4.28,6.38c-1.71.81-2.42,3.18.28,4,8.59,2.53,13.88-6,14.83-12.85s-3.74-32.19-16.15-62.34a316.22,316.22,0,0,1,34.54-29.2,7.26,7.26,0,0,0,10.74-7.71c3.24-2.26,6.47-4.46,9.66-6.58a9.92,9.92,0,0,0,15.83-10.16c3.19-2,6.28-3.86,9.24-5.64a12.65,12.65,0,0,0,21.29-12.28c5.4-3,9.34-5.13,11.26-6.23a17,17,0,1,0,14.05-26.56Z"/><path class="cls-1" d="M140.34,272H97.05c-4.34,0-7.3-.95-8.9-3a8,8,0,0,1-1.27-4.76,22.47,22.47,0,0,1,.74-5.4L93,235.32c1.16-4.76,2.85-8.15,5.18-10.17s5.72-3,10.16-3h32c4.56,0,7.52,1,9,3a7.47,7.47,0,0,1,1.38,4.88,20.37,20.37,0,0,1-.74,5.29l-3.5,15.57H103L100.64,261a13.87,13.87,0,0,0-.31,2.44c0,.53,0,.95.21,1.16.31.64,1.27,1,2.76,1h31.75a38.76,38.76,0,0,0,8.26-.84ZM137,233.1a8.71,8.71,0,0,0,.42-2.54,3.32,3.32,0,0,0-.21-1.06c-.43-.64-1.48-.95-3-.95H111.76a4.38,4.38,0,0,0-3.18.95,5.5,5.5,0,0,0-1.48,3.6l-2.64,11.43h29.85Z"/><path class="cls-1" d="M151.14,272c.67-1.54,1.23-3.2,1.91-5.22a52.12,52.12,0,0,0,1.9-7l11.13-51.5c.67-3.21,1.12-5.58,1.34-7s.23-3.08.23-5.22h15.49l-13.81,63.73q-1,4.63-1.35,7.13a27.12,27.12,0,0,0-.33,5.1Z"/><path class="cls-1" d="M329.75,230.56c-1.59-.11-3.17-.22-5-.22h-7.1a5.19,5.19,0,0,0-3.17.85,5.72,5.72,0,0,0-1.8,3.28L306.78,261a40.68,40.68,0,0,0-1.48,9.74V272H289.85c.63-1.59,1.27-3.08,1.69-4.55s.95-3.5,1.69-6.36l6.35-27.94c.74-2.76,1.06-4.87,1.38-6.46a30.15,30.15,0,0,0,.22-4.45h13l-.52,5.08a9,9,0,0,1,3.28-3.81,10.52,10.52,0,0,1,5.61-1.27h12.7l3.07,5.5a12.26,12.26,0,0,0-1.8,2c-.74.95-1.27,1.37-1.59,1.37C333,230.88,331.34,230.66,329.75,230.56Z"/><path class="cls-1" d="M261.25,272c.63-1.38,1.16-2.86,1.8-4.66a44.79,44.79,0,0,0,1.8-6.25l6.46-27.94c.53-2.86.95-5,1.05-6.25a15.47,15.47,0,0,0,.22-3.39v-1.27h14.6L278.4,261c-.63,2.76-1.06,4.87-1.27,6.36a22.21,22.21,0,0,0-.32,4.55Z"/><path class="cls-1" d="M205.17,204.79a7.17,7.17,0,1,1-7.16-7.17A7.17,7.17,0,0,1,205.17,204.79Z"/><path class="cls-1" d="M253.18,342.89a7.45,7.45,0,0,0-3.88-.87h-9.39c-1.57,0-2,.2-2.23,1.16l-.37,1.48c-.25,1,.08,1.16,1.65,1.16h7.16c4.3,0,6.24,1.49,5.29,5.34l-1.61,6.45c-1,4.18-3.1,6.49-7.94,6.49h-18.2l.47-5.37a6.44,6.44,0,0,0,3.72,1h9.76c1.57,0,1.95-.17,2.19-1.16l.46-1.82c.23-.95,0-1.16-1.62-1.16h-8.23c-4,0-5.25-1.32-4.15-5.75l1.47-5.91c1-4.14,3.59-6.29,7.15-6.29h18.73Z"/><path class="cls-1" d="M275.05,346.57H275l-8.62,17.53H256.7l-.18-23a7.19,7.19,0,0,0-.84-3.44h12a4.67,4.67,0,0,0-.76,1.74,10.52,10.52,0,0,0-.32,2.61l-.11,12.73h.09L275,337.63H285l.09,17.13h.08l6.2-12.78a13.59,13.59,0,0,0,1-2.61,3.16,3.16,0,0,0,.06-1.74h6.41a11.5,11.5,0,0,0-2.9,4L285,364.1h-9.76Z"/><path class="cls-1" d="M313.54,359.72a14.47,14.47,0,0,0,4.72-.7l-2.17,5.08H292.76a11.16,11.16,0,0,0,2-4.55L299,342.18c.63-2.52.55-3.51.31-4.55h22.91l-.44,5.09a11.82,11.82,0,0,0-4.41-.7h-8.23l-1.55,6.2h7.2a14.87,14.87,0,0,0,4.72-.7l-1.44,5.79a11.72,11.72,0,0,0-4.37-.71h-7.2l-1.77,7.12Z"/><path class="cls-1" d="M325.1,342.18c.63-2.52.54-3.51.3-4.55H346c5.62,0,7.07,2.15,5.73,7.53l-2.84,11.41c-1.34,5.38-3.86,7.53-9.48,7.53H318.81a11,11,0,0,0,2-4.55Zm5.72,17.54h5.26c1.65,0,2-.37,2.43-2.15l3.34-13.4c.44-1.78.29-2.15-1.37-2.15h-5.25Z"/><path class="cls-1" d="M371,359.72a14.47,14.47,0,0,0,4.72-.7l-2.17,5.08H350.2a11.16,11.16,0,0,0,2-4.55l4.32-17.37c.63-2.52.55-3.51.31-4.55H379.7l-.44,5.09a11.82,11.82,0,0,0-4.41-.7h-8.23l-1.55,6.2h7.2a14.87,14.87,0,0,0,4.72-.7l-1.44,5.79a11.72,11.72,0,0,0-4.37-.71H364l-1.77,7.12Z"/><path class="cls-1" d="M387,342.18h-.08l-4.27,17.17c-.74,3-.75,3.51-.19,4.75h-6.37c1.18-1.24,1.43-1.78,2.18-4.75l4.22-17c.74-3,.75-3.52.19-4.76h14.18l5.38,21.59h.13l4.19-16.83c.74-3,.75-3.52.19-4.76h6.37c-1.18,1.24-1.44,1.78-2.18,4.76l-5.4,21.71H392.47Z"/></g></svg>