<svg xmlns="http://www.w3.org/2000/svg" width="500" height="500" viewBox="0 0 500 500"><defs><style>.cls-1{fill:#4d4848;}.cls-2{fill:#f47d20;}</style></defs><g id="Nodes"><path class="cls-1" d="M189.75,272c.63-1.38,1.16-2.86,1.8-4.66a46.2,46.2,0,0,0,1.8-6.25l6.46-27.94c.53-2.86.95-5,1.06-6.25a16.19,16.19,0,0,0,.21-3.39v-1.27h14.61L206.9,261c-.64,2.76-1.06,4.87-1.27,6.36a22.21,22.21,0,0,0-.32,4.55Z"/><path class="cls-2" d="M383.15,135.9A17,17,0,0,0,368.21,161c-1.69.84-5.63,2.82-11.15,5.69a12.65,12.65,0,1,0-22.28,11.93c-2.83,1.56-5.78,3.21-8.8,4.92a9.93,9.93,0,0,0-17.16,10q-4.69,2.79-9.44,5.72a7.25,7.25,0,0,0-11.94,5.54,7.08,7.08,0,0,0,.25,1.86A342.1,342.1,0,0,0,253,232c-11.48-25.68-28.42-53.87-52-76.82l-.06-.06c-2.76-2.72-5-1.52-1.88,1.86l.12.13c20,21.53,35.72,52.68,46.43,81.09-40.62,34.69-85.41,101.91-36.32,123,7.15,3.08,10.4-2.8,7.33-4.61-.56-.33-22.42-12.15-8.52-48.45h35a3.4,3.4,0,0,0,0-6.79H211a139,139,0,0,1,6.92-12.84h25.16a3.4,3.4,0,0,0,0-6.79H222.23q3.89-5.83,8.78-12.21h12.05a3.4,3.4,0,0,0,0-6.79H236.4c3.8-4.64,8-9.49,12.63-14.57l.12-.13c9.23,26.72,13.68,49.5,12.7,57.09a7.93,7.93,0,0,1-4.27,6.38c-1.72.81-2.42,3.18.27,4,8.6,2.53,13.89-6,14.84-12.85s-3.74-32.19-16.15-62.34a316.22,316.22,0,0,1,34.54-29.2A7.26,7.26,0,0,0,302,204.77a7.35,7.35,0,0,0-.14-1.42c3.24-2.26,6.47-4.46,9.66-6.58a9.92,9.92,0,0,0,15.83-10.16c3.18-2,6.27-3.86,9.24-5.64a12.65,12.65,0,0,0,21.8-8.73,13,13,0,0,0-.51-3.55c5.4-3,9.34-5.13,11.26-6.23a17,17,0,1,0,14-26.56Z"/><path class="cls-1" d="M153.31,272H110c-4.34,0-7.3-.95-8.89-3a8,8,0,0,1-1.27-4.76,22.47,22.47,0,0,1,.74-5.4l5.4-23.5c1.16-4.76,2.86-8.15,5.19-10.17s5.72-3,10.16-3h32c4.55,0,7.52,1,9,3a7.47,7.47,0,0,1,1.38,4.88,20.37,20.37,0,0,1-.74,5.29l-3.5,15.57H115.94L113.61,261a13.87,13.87,0,0,0-.31,2.44c0,.53,0,.95.21,1.16.31.64,1.27,1,2.75,1H148a38.76,38.76,0,0,0,8.26-.84Zm-3.38-38.85a8.71,8.71,0,0,0,.42-2.54,3.32,3.32,0,0,0-.21-1.06c-.43-.64-1.48-.95-3-.95H124.73a4.38,4.38,0,0,0-3.18.95,5.5,5.5,0,0,0-1.48,3.6l-2.65,11.43h29.86Z"/><path class="cls-1" d="M164.11,272c.67-1.54,1.23-3.2,1.9-5.22a52,52,0,0,0,1.91-7L179,208.22c.68-3.21,1.12-5.58,1.35-7s.22-3.08.22-5.22h15.5L182.3,259.72c-.67,3.09-1.13,5.47-1.35,7.13a26.34,26.34,0,0,0-.34,5.1Z"/><path class="cls-1" d="M342.72,230.56c-1.59-.11-3.17-.22-5-.22h-7.1a5.17,5.17,0,0,0-3.17.85,5.67,5.67,0,0,0-1.8,3.28L319.75,261a40.17,40.17,0,0,0-1.48,9.74V272H302.81c.64-1.59,1.27-3.08,1.7-4.55s.95-3.5,1.69-6.36l6.35-27.94c.74-2.76,1.06-4.87,1.38-6.46a31.58,31.58,0,0,0,.21-4.45h13l-.53,5.08a9.05,9.05,0,0,1,3.29-3.81,10.51,10.51,0,0,1,5.6-1.27h12.71l3.07,5.5a11.82,11.82,0,0,0-1.8,2c-.74.95-1.27,1.37-1.59,1.37C346,230.88,344.31,230.66,342.72,230.56Z"/><path class="cls-1" d="M274.22,272c.63-1.38,1.16-2.86,1.8-4.66a44.89,44.89,0,0,0,1.79-6.25l6.47-27.94c.53-2.86,1-5,1.05-6.25a15.47,15.47,0,0,0,.22-3.39v-1.27h14.6L291.37,261c-.64,2.76-1.06,4.87-1.27,6.36a22.21,22.21,0,0,0-.32,4.55Z"/><path class="cls-1" d="M218.14,204.79a7.17,7.17,0,1,1-7.17-7.17A7.17,7.17,0,0,1,218.14,204.79Z"/><path class="cls-1" d="M236,364.1a11.3,11.3,0,0,0,2-4.55l4.32-17.37c.63-2.52.54-3.51.3-4.55h11.75a11.44,11.44,0,0,0-2,4.55l-4.32,17.37c-.63,2.53-.55,3.52-.31,4.55Z"/><path class="cls-1" d="M282.23,342.89a7.42,7.42,0,0,0-3.88-.87H269c-1.57,0-2,.2-2.23,1.16l-.37,1.48c-.25,1,.08,1.16,1.66,1.16h7.15c4.3,0,6.25,1.49,5.29,5.34l-1.6,6.45c-1,4.18-3.11,6.49-7.95,6.49h-18.2l.47-5.37a6.45,6.45,0,0,0,3.73,1h9.76c1.57,0,1.94-.17,2.19-1.16l.45-1.82c.24-.95,0-1.16-1.61-1.16h-8.23c-4,0-5.26-1.32-4.16-5.75l1.48-5.91c1-4.14,3.59-6.29,7.14-6.29h18.74Z"/><path class="cls-1" d="M294.24,352.6l-1.73,6.95c-.63,2.53-.54,3.52-.3,4.55H280.46a11.16,11.16,0,0,0,2-4.55l4.32-17.37c.63-2.52.55-3.51.06-4.55h21.76c4.63,0,6.51,1.41,5.41,5.83l-1.21,4.88c-1,3.89-2.93,4.1-5.12,4.26l1.75,7.45a14.48,14.48,0,0,0,1.18,4.05H299.28l-1.94-11.5Zm1.09-4.38H301c1.28,0,1.71-.21,2-1.49l.8-3.22c.32-1.29,0-1.49-1.29-1.49h-5.7Z"/><path class="cls-1" d="M321.31,357l-2.68,3.64a4.31,4.31,0,0,0-.76,1.57,2.34,2.34,0,0,0,.1,1.9h-7.48a29.23,29.23,0,0,0,4.21-4.8l14.66-20.18-.79-1.49h11.95l3.75,22.83a9.69,9.69,0,0,0,1.41,3.64H332.4a4.22,4.22,0,0,0,1-1.73,5.42,5.42,0,0,0,.12-2l-.61-3.39Zm11-4.39-1.54-8.93-6.28,8.93Z"/><path class="cls-1" d="M367.12,359.72a14.57,14.57,0,0,0,4.72-.7l-2.18,5.08H346.34a11.3,11.3,0,0,0,2-4.55l4.32-17.37c.63-2.52.55-3.51.31-4.55h22.91l-.44,5.09A11.88,11.88,0,0,0,371,342h-8.23l-1.54,6.2h7.2a15,15,0,0,0,4.72-.7l-1.44,5.79a11.72,11.72,0,0,0-4.37-.71h-7.2l-1.77,7.12Z"/><path class="cls-1" d="M393.25,359.72a10.94,10.94,0,0,0,4.56-.87l-2.18,5.25H372.81a11.18,11.18,0,0,0,1.95-4.55l4.33-17.37c.63-2.52.54-3.51.3-4.55h11.75a11.29,11.29,0,0,0-2,4.55l-4.37,17.54Z"/></g></svg>