<svg xmlns="http://www.w3.org/2000/svg" width="500" height="500" viewBox="0 0 500 500"><defs><style>.cls-1{fill:#4d4848;}.cls-2{fill:#f47d20;}</style></defs><g id="Nodes"><path class="cls-1" d="M109.63,272c.63-1.38,1.16-2.86,1.8-4.66a44.89,44.89,0,0,0,1.79-6.25l6.46-27.94c.53-2.86.95-5,1.07-6.25a17,17,0,0,0,.2-3.39v-1.27h14.61L126.77,261c-.63,2.76-1,4.87-1.27,6.36a22.92,22.92,0,0,0-.31,4.55Z"/><path class="cls-2" d="M303,135.9a17,17,0,0,0-17,17,16.81,16.81,0,0,0,2.06,8.11c-1.69.84-5.63,2.82-11.15,5.69a12.65,12.65,0,1,0-22.28,11.93c-2.84,1.56-5.78,3.21-8.81,4.92a9.93,9.93,0,0,0-17.16,10c-3.12,1.86-6.28,3.77-9.43,5.72a7.26,7.26,0,0,0-11.95,5.54,7.52,7.52,0,0,0,.25,1.86A340.8,340.8,0,0,0,172.85,232c-11.49-25.68-28.42-53.87-52-76.82l-.07-.06c-2.76-2.72-5-1.52-1.87,1.86l.12.13c20,21.53,35.72,52.68,46.43,81.09-40.63,34.69-85.41,101.91-36.33,123,7.15,3.08,10.41-2.8,7.33-4.61-.55-.33-22.41-12.14-8.52-48.45h35a3.4,3.4,0,0,0,0-6.79H130.85a136.82,136.82,0,0,1,6.93-12.84h25.16a3.4,3.4,0,0,0,0-6.79H142.1c2.6-3.89,5.51-7.95,8.79-12.21h12.05a3.4,3.4,0,0,0,0-6.79h-6.67q5.7-7,12.64-14.57L169,248c9.22,26.72,13.68,49.5,12.7,57.09a7.93,7.93,0,0,1-4.27,6.38c-1.72.81-2.43,3.18.27,4,8.59,2.53,13.89-6,14.84-12.85s-3.74-32.19-16.15-62.34A316.1,316.1,0,0,1,211,211.06a7.26,7.26,0,0,0,10.89-6.29,6.64,6.64,0,0,0-.15-1.42q4.88-3.39,9.67-6.58a9.9,9.9,0,0,0,15.82-10.16q4.78-3,9.25-5.64a12.64,12.64,0,0,0,21.28-12.28c5.4-3,9.34-5.13,11.27-6.23a17,17,0,1,0,14-26.56Z"/><path class="cls-1" d="M73.19,272H29.89c-4.34,0-7.3-.95-8.9-3a8,8,0,0,1-1.26-4.76,22.47,22.47,0,0,1,.74-5.4l5.4-23.5c1.16-4.76,2.85-8.15,5.18-10.17s5.72-3,10.17-3h32c4.55,0,7.51,1,9,3A7.41,7.41,0,0,1,83.57,230a20.42,20.42,0,0,1-.75,5.29l-3.49,15.57H35.82L33.49,261a14.11,14.11,0,0,0-.32,2.44c0,.53,0,.95.22,1.16.31.64,1.26,1,2.75,1H67.89a38.76,38.76,0,0,0,8.26-.84ZM69.8,233.1a8.38,8.38,0,0,0,.42-2.54A3.07,3.07,0,0,0,70,229.5c-.42-.64-1.48-.95-3-.95H44.6a4.36,4.36,0,0,0-3.17.95A5.45,5.45,0,0,0,40,233.1L37.3,244.53H67.15Z"/><path class="cls-1" d="M84,272c.67-1.54,1.23-3.2,1.91-5.22a52,52,0,0,0,1.91-7l11.12-51.5c.67-3.21,1.12-5.58,1.34-7s.23-3.08.23-5.22H116l-13.82,63.73q-1,4.63-1.35,7.13a27.12,27.12,0,0,0-.33,5.1Z"/><path class="cls-1" d="M262.6,230.56c-1.59-.11-3.18-.22-5-.22h-7.09a5.15,5.15,0,0,0-3.17.85,5.67,5.67,0,0,0-1.8,3.28L239.63,261a40.17,40.17,0,0,0-1.48,9.74V272H222.69c.63-1.59,1.27-3.08,1.69-4.55s1-3.5,1.7-6.36l6.35-27.94c.74-2.76,1.06-4.87,1.38-6.46a31.58,31.58,0,0,0,.21-4.45h13l-.53,5.08a9,9,0,0,1,3.28-3.81,10.57,10.57,0,0,1,5.61-1.27h12.71l3.06,5.5a12.26,12.26,0,0,0-1.8,2c-.74.95-1.26,1.37-1.58,1.37C265.88,230.88,264.18,230.66,262.6,230.56Z"/><path class="cls-1" d="M194.1,272c.63-1.38,1.16-2.86,1.79-4.66a43.46,43.46,0,0,0,1.8-6.25l6.46-27.94c.53-2.86.95-5,1.06-6.25a16.19,16.19,0,0,0,.21-3.39v-1.27H220L211.24,261c-.63,2.76-1.06,4.87-1.26,6.36a22.21,22.21,0,0,0-.32,4.55Z"/><path class="cls-1" d="M138,204.79a7.17,7.17,0,1,1-7.16-7.17A7.16,7.16,0,0,1,138,204.79Z"/><path class="cls-1" d="M186,342.89a7.45,7.45,0,0,0-3.88-.87h-9.39c-1.57,0-2,.2-2.23,1.16l-.37,1.48c-.25,1,.08,1.16,1.66,1.16H179c4.3,0,6.25,1.49,5.29,5.34l-1.61,6.45c-1,4.18-3.1,6.49-7.94,6.49H156.5l.47-5.37a6.45,6.45,0,0,0,3.73,1h9.76c1.57,0,1.94-.17,2.19-1.16l.45-1.82c.24-.95,0-1.16-1.61-1.16h-8.23c-4,0-5.26-1.32-4.16-5.75l1.47-5.91c1-4.14,3.6-6.29,7.15-6.29h18.74Z"/><path class="cls-1" d="M207.89,346.57h-.08l-8.63,17.53h-9.63l-.19-23a7.08,7.08,0,0,0-.84-3.44h12a4.66,4.66,0,0,0-.77,1.74,11.05,11.05,0,0,0-.31,2.61l-.11,12.73h.08l8.39-17.08h10.09l.08,17.13h.08l6.2-12.78a13,13,0,0,0,1-2.61,3.07,3.07,0,0,0,.06-1.74h6.41a11.5,11.5,0,0,0-2.9,4l-11,22.46H208Z"/><path class="cls-1" d="M226.35,364.1a11.3,11.3,0,0,0,2-4.55l4.32-17.37c.63-2.52.55-3.51.31-4.55h11.74a11.44,11.44,0,0,0-2,4.55l-4.32,17.37c-.63,2.53-.54,3.52-.3,4.55Z"/><path class="cls-1" d="M272.85,337.63l-.54,5.46a4.82,4.82,0,0,0-3.49-1.07h-4.59l-4.37,17.53c-.62,2.53-.54,3.52-.3,4.55H247.81a11.16,11.16,0,0,0,2-4.55L254.14,342h-4.59a7.2,7.2,0,0,0-4,1.07l2.19-5.46Z"/><path class="cls-1" d="M267.29,364.1,286.39,342h-8a8.27,8.27,0,0,0-4,.82l2-5.21h25.35l-19.14,22.09h8a9.24,9.24,0,0,0,4.07-.54l-1.85,4.92Z"/><path class="cls-1" d="M317.59,359.72a14.59,14.59,0,0,0,4.73-.7l-2.18,5.08H296.82a11.3,11.3,0,0,0,2-4.55l4.32-17.37c.63-2.52.54-3.51.3-4.55h22.92l-.44,5.09a11.92,11.92,0,0,0-4.42-.7h-8.23l-1.54,6.2h7.19a15,15,0,0,0,4.73-.7l-1.44,5.79a11.79,11.79,0,0,0-4.38-.71H310.6l-1.77,7.12Z"/><path class="cls-1" d="M336.65,352.6l-1.73,6.95c-.63,2.53-.54,3.52-.31,4.55H322.87a11.3,11.3,0,0,0,2-4.55l4.32-17.37c.63-2.52.55-3.51.06-4.55H351c4.64,0,6.52,1.41,5.42,5.83l-1.22,4.88c-1,3.89-2.92,4.1-5.11,4.26l1.74,7.45A14.79,14.79,0,0,0,353,364.1H341.69l-1.94-11.5Zm1.09-4.38h5.71c1.28,0,1.7-.21,2-1.49l.81-3.22c.31-1.29,0-1.49-1.29-1.49h-5.71Z"/><path class="cls-1" d="M375.9,359.72a10.94,10.94,0,0,0,4.56-.87l-2.17,5.25H355.46a11.3,11.3,0,0,0,2-4.55l4.32-17.37c.63-2.52.54-3.51.3-4.55h11.75a11.44,11.44,0,0,0-2,4.55l-4.36,17.54Z"/><path class="cls-1" d="M389,357l-2.69,3.64a4.31,4.31,0,0,0-.76,1.57,2.3,2.3,0,0,0,.11,1.9h-7.49a28.32,28.32,0,0,0,4.21-4.8L397,339.12l-.79-1.49h12l3.74,22.83a9.69,9.69,0,0,0,1.41,3.64H400.08c.74-1,.87-1.16,1-1.73a5.21,5.21,0,0,0,.12-2l-.6-3.39Zm11-4.39-1.54-8.93-6.27,8.93Z"/><path class="cls-1" d="M424.76,342.18h-.08l-4.27,17.17c-.74,3-.75,3.51-.19,4.75h-6.37c1.17-1.24,1.43-1.78,2.17-4.75l4.22-17c.75-3,.76-3.52.2-4.76h14.18L440,359.22h.13l4.18-16.83c.75-3,.76-3.52.2-4.76h6.36c-1.17,1.24-1.43,1.78-2.17,4.76l-5.41,21.71H430.23Z"/><path class="cls-1" d="M453.21,342.18c.63-2.52.55-3.51.31-4.55h20.55c5.63,0,7.08,2.15,5.74,7.53L477,356.57c-1.34,5.38-3.86,7.53-9.48,7.53H446.93a11.3,11.3,0,0,0,2-4.55Zm5.73,17.54h5.25c1.66,0,2-.37,2.44-2.15l3.34-13.4c.44-1.78.28-2.15-1.37-2.15h-5.25Z"/></g></svg>