<svg xmlns="http://www.w3.org/2000/svg" width="500" height="500" viewBox="0 0 500 500"><defs><style>.cls-1{fill:#4d4848;}.cls-2{fill:#f47d20;}</style></defs><g id="Nodes"><path class="cls-1" d="M168.43,272c.63-1.38,1.16-2.86,1.8-4.66A46.2,46.2,0,0,0,172,261l6.46-27.94c.53-2.86.94-5,1.06-6.25a16.19,16.19,0,0,0,.21-3.39v-1.27h14.6L185.58,261c-.64,2.76-1.06,4.87-1.27,6.36A22.21,22.21,0,0,0,184,272Z"/><path class="cls-2" d="M361.83,135.9A17,17,0,0,0,346.89,161c-1.69.84-5.63,2.82-11.15,5.69a12.65,12.65,0,1,0-22.28,11.93c-2.84,1.56-5.78,3.21-8.8,4.92A9.93,9.93,0,0,0,286.41,189a9.82,9.82,0,0,0,1.09,4.51q-4.69,2.79-9.44,5.72a7.25,7.25,0,0,0-11.94,5.54,7.08,7.08,0,0,0,.25,1.86A342.1,342.1,0,0,0,231.65,232c-11.48-25.68-28.42-53.87-52-76.82l-.07-.06c-2.75-2.72-5-1.52-1.87,1.86l.12.13c20,21.53,35.72,52.68,46.43,81.09-40.63,34.69-85.41,101.91-36.32,123,7.14,3.08,10.4-2.8,7.32-4.61-.55-.33-22.41-12.14-8.51-48.45h35a3.4,3.4,0,0,0,0-6.79H189.66a136.59,136.59,0,0,1,6.92-12.84h25.16a3.4,3.4,0,0,0,0-6.79H200.91q3.89-5.83,8.78-12.21h12.05a3.4,3.4,0,0,0,0-6.79h-6.66c3.8-4.64,8-9.49,12.63-14.57l.12-.13c9.23,26.72,13.68,49.5,12.7,57.09a7.93,7.93,0,0,1-4.27,6.38c-1.72.81-2.42,3.18.27,4,8.6,2.53,13.89-6,14.84-12.85s-3.74-32.19-16.15-62.34a317,317,0,0,1,34.53-29.2,7.26,7.26,0,0,0,10.75-7.71c3.24-2.26,6.47-4.46,9.66-6.58A9.92,9.92,0,0,0,306,186.61c3.18-2,6.27-3.86,9.24-5.64a12.65,12.65,0,0,0,21.8-8.73,13,13,0,0,0-.51-3.55c5.4-3,9.34-5.13,11.26-6.23a17,17,0,1,0,14.05-26.56Z"/><path class="cls-1" d="M132,272H88.69c-4.34,0-7.3-.95-8.89-3a8,8,0,0,1-1.27-4.76,22.47,22.47,0,0,1,.74-5.4l5.4-23.5c1.16-4.76,2.85-8.15,5.19-10.17s5.71-3,10.16-3h32c4.55,0,7.52,1,9,3a7.47,7.47,0,0,1,1.38,4.88,20.42,20.42,0,0,1-.75,5.29l-3.49,15.57H94.62L92.29,261a14.11,14.11,0,0,0-.32,2.44c0,.53,0,.95.22,1.16.31.64,1.26,1,2.75,1h31.75a38.86,38.86,0,0,0,8.27-.84ZM128.6,233.1a8.44,8.44,0,0,0,.43-2.54,3.32,3.32,0,0,0-.21-1.06c-.43-.64-1.48-.95-3-.95H103.41a4.38,4.38,0,0,0-3.18.95,5.45,5.45,0,0,0-1.48,3.6L96.1,244.53H126Z"/><path class="cls-1" d="M142.78,272c.68-1.54,1.24-3.2,1.91-5.22a52,52,0,0,0,1.91-7l11.12-51.5c.67-3.21,1.12-5.58,1.35-7s.22-3.08.22-5.22h15.5L161,259.72c-.67,3.09-1.13,5.47-1.35,7.13a26.34,26.34,0,0,0-.34,5.1Z"/><path class="cls-1" d="M321.4,230.56c-1.59-.11-3.18-.22-5-.22h-7.09a5.17,5.17,0,0,0-3.17.85,5.67,5.67,0,0,0-1.8,3.28L298.43,261a40.17,40.17,0,0,0-1.48,9.74V272H281.49a47.74,47.74,0,0,0,1.69-4.55c.43-1.38,1-3.5,1.7-6.36l6.35-27.94c.74-2.76,1.06-4.87,1.38-6.46a31.58,31.58,0,0,0,.21-4.45h13l-.53,5.08a9.1,9.1,0,0,1,3.28-3.81,10.57,10.57,0,0,1,5.61-1.27h12.71l3.06,5.5a11.8,11.8,0,0,0-1.79,2c-.74.95-1.27,1.37-1.59,1.37C324.69,230.88,323,230.66,321.4,230.56Z"/><path class="cls-1" d="M252.9,272c.63-1.38,1.16-2.86,1.79-4.66a43.46,43.46,0,0,0,1.8-6.25L263,233.1c.52-2.86.94-5,1.05-6.25a16.19,16.19,0,0,0,.21-3.39v-1.27h14.61L270.05,261c-.64,2.76-1.06,4.87-1.27,6.36a22.21,22.21,0,0,0-.32,4.55Z"/><path class="cls-1" d="M196.82,204.79a7.17,7.17,0,1,1-7.17-7.17A7.17,7.17,0,0,1,196.82,204.79Z"/><path class="cls-1" d="M224.69,342.18h-.08l-4.27,17.17c-.75,3-.76,3.51-.2,4.75h-6.36c1.17-1.24,1.43-1.78,2.17-4.75l4.22-17c.74-3,.75-3.52.19-4.76h14.19l5.38,21.59h.12l4.19-16.83c.74-3,.75-3.52.19-4.76h6.37c-1.17,1.24-1.43,1.78-2.17,4.76l-5.41,21.71H230.15Z"/><path class="cls-1" d="M251.92,345.41c1.43-5.71,4.34-7.78,8.64-7.78H275.7c4.3,0,6.18,2.07,4.76,7.78l-2.72,10.92c-1.42,5.7-4.33,7.77-8.63,7.77H254c-4.3,0-6.18-2.07-4.76-7.77Zm7,12.61c-.32,1.28.24,1.7,1.56,1.7h4.38c1.33,0,2.09-.42,2.41-1.7l3.56-14.31c.32-1.28-.24-1.69-1.56-1.69h-4.38c-1.33,0-2.09.41-2.41,1.69Z"/><path class="cls-1" d="M292.81,352.6l-1.73,6.95c-.63,2.53-.54,3.52-.3,4.55H279a11.16,11.16,0,0,0,2-4.55l4.32-17.37c.63-2.52.55-3.51.06-4.55h21.76c4.63,0,6.51,1.41,5.41,5.83l-1.21,4.88c-1,3.89-2.93,4.1-5.12,4.26l1.75,7.45a14.48,14.48,0,0,0,1.18,4.05H297.85l-1.94-11.5Zm1.09-4.38h5.71c1.28,0,1.71-.21,2-1.49l.8-3.22c.32-1.29,0-1.49-1.29-1.49h-5.7Z"/><path class="cls-1" d="M334.84,346.57h-.08l-8.62,17.53H316.5l-.18-23a7.19,7.19,0,0,0-.84-3.44h12a4.51,4.51,0,0,0-.76,1.74,10.52,10.52,0,0,0-.32,2.61l-.11,12.73h.08l8.39-17.08h10.09l.08,17.13H345L351.2,342a12.37,12.37,0,0,0,1-2.61,3,3,0,0,0,.06-1.74h6.41a11.63,11.63,0,0,0-2.9,4l-11,22.46H335Z"/><path class="cls-1" d="M361.24,357l-2.69,3.64a4.31,4.31,0,0,0-.76,1.57,2.34,2.34,0,0,0,.1,1.9h-7.48a28.32,28.32,0,0,0,4.21-4.8l14.66-20.18-.79-1.49h12l3.74,22.83a9.69,9.69,0,0,0,1.41,3.64H372.33c.74-1,.87-1.16,1-1.73a5.21,5.21,0,0,0,.12-2l-.6-3.39Zm11-4.39-1.54-8.93-6.27,8.93Z"/><path class="cls-1" d="M395.87,353.76l-5.15-12.9a9.41,9.41,0,0,0-1.71-3.23h13.6a3.78,3.78,0,0,0-.37.83,5.71,5.71,0,0,0,.61,3l2.81,7.15,6.37-7.32a8.22,8.22,0,0,0,1.91-3.68h7.53a16,16,0,0,0-4.48,3.89L405.83,354.3l-1.31,5.25c-.63,2.53-.55,3.52-.31,4.55H392.47a11.3,11.3,0,0,0,2-4.55Z"/></g></svg>