<svg xmlns="http://www.w3.org/2000/svg" width="500" height="500" viewBox="0 0 500 500"><defs><style>.cls-1{fill:#4d4848;}.cls-2{fill:#f47d20;}</style></defs><g id="Nodes"><path class="cls-1" d="M174.1,272c.63-1.38,1.16-2.86,1.8-4.66a46.2,46.2,0,0,0,1.8-6.25l6.46-27.94c.53-2.86,1-5,1.06-6.25a16.19,16.19,0,0,0,.21-3.39v-1.27H200L191.25,261c-.64,2.76-1.06,4.87-1.27,6.36a22.21,22.21,0,0,0-.32,4.55Z"/><path class="cls-2" d="M367.5,135.9A17,17,0,0,0,352.56,161c-1.69.84-5.63,2.82-11.15,5.69a12.64,12.64,0,1,0-22.27,11.93c-2.84,1.56-5.79,3.21-8.81,4.92a9.93,9.93,0,0,0-17.16,10q-4.69,2.79-9.43,5.72a7.26,7.26,0,0,0-11.95,5.54,7.08,7.08,0,0,0,.25,1.86A342.1,342.1,0,0,0,237.32,232c-11.48-25.68-28.42-53.87-52-76.82l-.06-.06c-2.76-2.72-5.05-1.52-1.88,1.86l.13.13c20,21.53,35.71,52.68,46.42,81.09-40.62,34.69-85.41,101.91-36.32,123,7.15,3.08,10.4-2.8,7.33-4.61-.56-.33-22.42-12.14-8.52-48.45h35a3.4,3.4,0,1,0,0-6.79H195.33a139,139,0,0,1,6.92-12.84h25.16a3.4,3.4,0,0,0,0-6.79H206.58q3.88-5.83,8.78-12.21h12a3.4,3.4,0,0,0,0-6.79h-6.66c3.8-4.64,8-9.49,12.63-14.57l.12-.13c9.23,26.72,13.68,49.5,12.71,57.09a7.93,7.93,0,0,1-4.28,6.38c-1.72.81-2.42,3.18.27,4,8.6,2.53,13.89-6,14.84-12.85s-3.74-32.19-16.15-62.34a316.22,316.22,0,0,1,34.54-29.2,7.26,7.26,0,0,0,10.88-6.29,7.35,7.35,0,0,0-.14-1.42c3.24-2.26,6.47-4.46,9.66-6.58a9.92,9.92,0,0,0,15.83-10.16c3.18-2,6.27-3.86,9.24-5.64a12.65,12.65,0,0,0,21.29-12.28c5.4-3,9.34-5.13,11.26-6.23A17,17,0,1,0,367.5,135.9Z"/><path class="cls-1" d="M137.66,272H94.36c-4.34,0-7.3-.95-8.89-3a8,8,0,0,1-1.27-4.76,22.47,22.47,0,0,1,.74-5.4l5.4-23.5c1.16-4.76,2.86-8.15,5.19-10.17s5.72-3,10.16-3h32c4.55,0,7.52,1,9,3A7.47,7.47,0,0,1,148,230a20.37,20.37,0,0,1-.74,5.29l-3.5,15.57H100.29L98,261a13.87,13.87,0,0,0-.31,2.44c0,.53,0,.95.21,1.16.31.64,1.27,1,2.75,1h31.76a38.76,38.76,0,0,0,8.26-.84Zm-3.38-38.85a8.71,8.71,0,0,0,.42-2.54,3.32,3.32,0,0,0-.21-1.06c-.43-.64-1.48-.95-3-.95H109.08a4.38,4.38,0,0,0-3.18.95,5.5,5.5,0,0,0-1.48,3.6l-2.65,11.43h29.86Z"/><path class="cls-1" d="M148.46,272c.67-1.54,1.23-3.2,1.91-5.22a53.66,53.66,0,0,0,1.9-7l11.12-51.5c.68-3.21,1.12-5.58,1.35-7s.22-3.08.22-5.22h15.5l-13.81,63.73c-.67,3.09-1.13,5.47-1.35,7.13A26.34,26.34,0,0,0,165,272Z"/><path class="cls-1" d="M327.07,230.56c-1.59-.11-3.17-.22-5-.22H315a5.17,5.17,0,0,0-3.17.85,5.67,5.67,0,0,0-1.8,3.28L304.1,261a40.17,40.17,0,0,0-1.48,9.74V272H287.17c.63-1.59,1.26-3.08,1.69-4.55s.95-3.5,1.69-6.36l6.35-27.94c.74-2.76,1.06-4.87,1.38-6.46a31.58,31.58,0,0,0,.21-4.45h13l-.53,5.08a9.05,9.05,0,0,1,3.29-3.81,10.51,10.51,0,0,1,5.6-1.27h12.71l3.07,5.5a11.82,11.82,0,0,0-1.8,2c-.74.95-1.27,1.37-1.59,1.37C330.36,230.88,328.66,230.66,327.07,230.56Z"/><path class="cls-1" d="M258.57,272c.63-1.38,1.16-2.86,1.8-4.66a46.2,46.2,0,0,0,1.8-6.25l6.46-27.94c.53-2.86.95-5,1.05-6.25a15.47,15.47,0,0,0,.22-3.39v-1.27h14.6L275.72,261c-.64,2.76-1.06,4.87-1.27,6.36a22.21,22.21,0,0,0-.32,4.55Z"/><path class="cls-1" d="M202.49,204.79a7.17,7.17,0,1,1-7.17-7.17A7.17,7.17,0,0,1,202.49,204.79Z"/><path class="cls-1" d="M240.39,359.72a14.47,14.47,0,0,0,4.72-.7l-2.17,5.08H219.61a11.16,11.16,0,0,0,2-4.55l4.33-17.37c.62-2.52.54-3.51.3-4.55h22.91l-.44,5.09a11.82,11.82,0,0,0-4.41-.7H236l-1.55,6.2h7.2a14.87,14.87,0,0,0,4.72-.7L245,353.31a11.68,11.68,0,0,0-4.37-.71h-7.2l-1.77,7.12Z"/><path class="cls-1" d="M276.55,342.89a7.45,7.45,0,0,0-3.88-.87h-9.39c-1.57,0-2,.2-2.23,1.16l-.37,1.48c-.25,1,.08,1.16,1.65,1.16h7.16c4.3,0,6.24,1.49,5.29,5.34l-1.61,6.45c-1,4.18-3.1,6.49-7.94,6.49H247l.47-5.37a6.44,6.44,0,0,0,3.72,1H261c1.58,0,1.95-.17,2.19-1.16l.46-1.82c.23-.95-.05-1.16-1.62-1.16h-8.23c-4,0-5.25-1.32-4.15-5.75l1.47-5.91c1-4.14,3.59-6.29,7.15-6.29H277Z"/><path class="cls-1" d="M305.93,337.63l-.53,5.46a4.82,4.82,0,0,0-3.49-1.07h-4.59L293,359.55c-.63,2.53-.54,3.52-.3,4.55H280.9a11.3,11.3,0,0,0,2-4.55L287.22,342h-4.59a7.17,7.17,0,0,0-4,1.07l2.19-5.46Z"/><path class="cls-1" d="M306.64,345.41c1.42-5.71,4.34-7.78,8.64-7.78h15.13c4.31,0,6.19,2.07,4.77,7.78l-2.72,10.92c-1.42,5.7-4.33,7.77-8.63,7.77H308.69c-4.3,0-6.19-2.07-4.77-7.77ZM313.59,358c-.31,1.28.24,1.7,1.57,1.7h4.38c1.32,0,2.09-.42,2.41-1.7l3.56-14.31c.32-1.28-.24-1.69-1.56-1.69h-4.39c-1.32,0-2.09.41-2.4,1.69Z"/><path class="cls-1" d="M344.5,342.18h-.08l-4.28,17.17c-.74,3-.75,3.51-.19,4.75h-6.37c1.18-1.24,1.44-1.78,2.18-4.75l4.22-17c.74-3,.75-3.52.19-4.76h14.19l5.38,21.59h.12l4.19-16.83c.74-3,.75-3.52.19-4.76h6.37c-1.18,1.24-1.43,1.78-2.17,4.76L363,364.1H350Z"/><path class="cls-1" d="M367.41,364.1a11.16,11.16,0,0,0,2-4.55l4.32-17.37c.63-2.52.55-3.51.31-4.55h11.75a11.16,11.16,0,0,0-2,4.55l-4.33,17.37c-.63,2.53-.54,3.52-.3,4.55Z"/><path class="cls-1" d="M391.43,357l-2.68,3.64a4.5,4.5,0,0,0-.77,1.57,2.38,2.38,0,0,0,.11,1.9H380.6a28.86,28.86,0,0,0,4.22-4.8l14.66-20.18-.79-1.49h11.95l3.75,22.83a9.69,9.69,0,0,0,1.41,3.64H402.52c.75-1,.87-1.16,1-1.73a5.22,5.22,0,0,0,.13-2l-.61-3.39Zm11-4.39-1.54-8.93-6.28,8.93Z"/></g></svg>