<svg xmlns="http://www.w3.org/2000/svg" width="500" height="500" viewBox="0 0 500 500"><defs><style>.cls-1{fill:#4d4848;}.cls-2{fill:#f47d20;}</style></defs><g id="Nodes"><path class="cls-1" d="M168.8,272c.63-1.38,1.16-2.86,1.8-4.66a46.2,46.2,0,0,0,1.8-6.25l6.46-27.94c.53-2.86.95-5,1.06-6.25a16.19,16.19,0,0,0,.21-3.39v-1.27h14.61L186,261c-.64,2.76-1,4.87-1.27,6.36a22.21,22.21,0,0,0-.32,4.55Z"/><path class="cls-2" d="M362.2,135.9A17,17,0,0,0,347.26,161c-1.69.84-5.63,2.82-11.15,5.69a12.64,12.64,0,1,0-22.27,11.93c-2.84,1.56-5.79,3.21-8.81,4.92a9.93,9.93,0,0,0-17.16,10q-4.69,2.79-9.43,5.72a7.26,7.26,0,0,0-11.95,5.54,7.08,7.08,0,0,0,.25,1.86A342.1,342.1,0,0,0,232,232c-11.48-25.68-28.42-53.87-52-76.82l-.06-.06c-2.76-2.72-5.05-1.52-1.88,1.86l.13.13c20,21.53,35.71,52.68,46.42,81.09-40.62,34.69-85.41,101.91-36.32,123,7.15,3.08,10.4-2.8,7.33-4.61-.55-.33-22.42-12.15-8.52-48.45h35a3.4,3.4,0,1,0,0-6.79H190A139,139,0,0,1,197,288.49h25.16a3.4,3.4,0,0,0,0-6.79H201.28c2.6-3.89,5.51-7.95,8.78-12.21h12.05a3.4,3.4,0,0,0,0-6.79h-6.66c3.8-4.64,8-9.49,12.63-14.57l.12-.13c9.23,26.72,13.68,49.5,12.71,57.09a7.93,7.93,0,0,1-4.28,6.38c-1.72.81-2.42,3.18.27,4,8.6,2.53,13.89-6,14.84-12.85s-3.74-32.19-16.15-62.34a316.22,316.22,0,0,1,34.54-29.2A7.26,7.26,0,0,0,281,204.77a7.35,7.35,0,0,0-.14-1.42c3.24-2.26,6.47-4.46,9.66-6.58a9.92,9.92,0,0,0,15.83-10.16c3.18-2,6.27-3.86,9.24-5.64a12.65,12.65,0,0,0,21.29-12.28c5.4-3,9.34-5.13,11.26-6.23A17,17,0,1,0,362.2,135.9Z"/><path class="cls-1" d="M132.36,272H89.06c-4.34,0-7.3-.95-8.89-3a8,8,0,0,1-1.27-4.76,22.47,22.47,0,0,1,.74-5.4l5.4-23.5c1.17-4.76,2.86-8.15,5.19-10.17s5.72-3,10.16-3h32c4.56,0,7.52,1,9,3a7.47,7.47,0,0,1,1.38,4.88,20.37,20.37,0,0,1-.74,5.29l-3.5,15.57H95L92.66,261a13.87,13.87,0,0,0-.31,2.44c0,.53,0,.95.21,1.16.31.64,1.27,1,2.75,1h31.76a38.76,38.76,0,0,0,8.26-.84ZM129,233.1a8.71,8.71,0,0,0,.42-2.54,3.32,3.32,0,0,0-.21-1.06c-.43-.64-1.48-.95-3-.95H103.78a4.38,4.38,0,0,0-3.18.95,5.5,5.5,0,0,0-1.48,3.6l-2.65,11.43h29.86Z"/><path class="cls-1" d="M143.16,272c.67-1.54,1.23-3.2,1.91-5.22a53.66,53.66,0,0,0,1.9-7l11.12-51.5c.68-3.21,1.12-5.58,1.35-7s.23-3.08.23-5.22h15.49l-13.81,63.73q-1,4.63-1.35,7.13a27.12,27.12,0,0,0-.33,5.1Z"/><path class="cls-1" d="M321.77,230.56c-1.59-.11-3.17-.22-5-.22h-7.1a5.17,5.17,0,0,0-3.17.85,5.67,5.67,0,0,0-1.8,3.28L298.8,261a40.68,40.68,0,0,0-1.48,9.74V272H281.87c.63-1.59,1.26-3.08,1.69-4.55s.95-3.5,1.69-6.36l6.35-27.94c.74-2.76,1.06-4.87,1.38-6.46a31.58,31.58,0,0,0,.21-4.45h13l-.53,5.08a9.05,9.05,0,0,1,3.29-3.81,10.51,10.51,0,0,1,5.6-1.27h12.71l3.07,5.5a11.82,11.82,0,0,0-1.8,2c-.74.95-1.27,1.37-1.59,1.37C325.06,230.88,323.36,230.66,321.77,230.56Z"/><path class="cls-1" d="M253.27,272c.63-1.38,1.16-2.86,1.8-4.66a46.2,46.2,0,0,0,1.8-6.25l6.46-27.94c.53-2.86.95-5,1.05-6.25a15.47,15.47,0,0,0,.22-3.39v-1.27h14.6L270.42,261c-.64,2.76-1.06,4.87-1.27,6.36a22.21,22.21,0,0,0-.32,4.55Z"/><path class="cls-1" d="M197.19,204.79a7.17,7.17,0,1,1-7.17-7.17A7.17,7.17,0,0,1,197.19,204.79Z"/><path class="cls-1" d="M220.6,342.18c.62-2.52.54-3.51.3-4.55h21.67c5.59,0,6.31,2.24,5.51,5.46l-.75,3c-.84,3.35-3.05,3.93-6.8,4.22l0,.08c4.25.54,5.49,1,4.79,3.85l-1.09,4.38c-.8,3.23-2.64,5.46-8.22,5.46H214.31a11,11,0,0,0,2-4.55Zm5.72,17.54h5.88c1.28,0,1.7-.21,2-1.49l1-4.14c.32-1.28,0-1.49-1.28-1.49h-5.88Zm2.86-11.5h5.88c1.28,0,1.7-.21,2-1.49l.81-3.22c.31-1.29,0-1.49-1.29-1.49h-5.87Z"/><path class="cls-1" d="M266.48,359.72a14.47,14.47,0,0,0,4.72-.7L269,364.1H245.7a11.3,11.3,0,0,0,2-4.55L252,342.18c.63-2.52.55-3.51.31-4.55H275.2l-.44,5.09a11.86,11.86,0,0,0-4.41-.7h-8.23l-1.55,6.2h7.2a15,15,0,0,0,4.72-.7l-1.44,5.79a11.72,11.72,0,0,0-4.37-.71h-7.2l-1.77,7.12Z"/><path class="cls-1" d="M292.61,359.72a10.94,10.94,0,0,0,4.56-.87L295,364.1H272.17a11.3,11.3,0,0,0,2-4.55l4.32-17.37c.63-2.52.54-3.51.3-4.55H290.5a11.44,11.44,0,0,0-2,4.55l-4.36,17.54Z"/><path class="cls-1" d="M330.17,348.22a7.63,7.63,0,0,0-2.27,4.14l-1.62,6.53c-.82,3.27-.79,3.81-.23,5.21h-8.89l.28-2.44h-.08c-.84,1.53-1.44,2.44-4.29,2.44h-8.94c-4.3,0-6.18-2.07-4.76-7.77l2.72-10.92c1.42-5.71,4.33-7.78,8.63-7.78h19.36l-.48,5.09a9,9,0,0,0-3.88-.7H315c-1.33,0-2.09.41-2.41,1.69L309,358c-.32,1.28.24,1.7,1.56,1.7H314c1.33,0,2.09-.42,2.41-1.7l1.35-5.42H314a4.08,4.08,0,0,0-1.82.5l1.21-4.88Z"/><path class="cls-1" d="M329.15,364.1a11.16,11.16,0,0,0,2-4.55l4.33-17.37c.62-2.52.54-3.51.3-4.55h11.75a11.16,11.16,0,0,0-2,4.55l-4.33,17.37c-.62,2.53-.54,3.52-.3,4.55Z"/><path class="cls-1" d="M366.93,359.72c2.81,0,3.09-.29,3.67-2.65l3.66-14.68c.74-3,.75-3.52.19-4.76h6.37c-1.18,1.24-1.44,1.78-2.18,4.76l-3.36,13.52c-1.51,6-3.7,8.19-9.44,8.19h-13.4c-5.17,0-6.67-2.64-5.29-8.19l3.42-13.73a8.73,8.73,0,0,0,.31-4.55h11.74a11.44,11.44,0,0,0-2,4.55l-3.75,15.06c-.43,1.73.13,2.48,1.91,2.48Z"/><path class="cls-1" d="M407.57,337.63H421.1a10.7,10.7,0,0,0-2,4.55l-4.33,17.37c-.62,2.53-.54,3.52-.26,4.55H402.72a11.16,11.16,0,0,0,2-4.55l4.06-16.29h-.08L396.15,364.1h-7l-1.93-20.84h-.08l-4,16.09c-.75,3-.76,3.51-.2,4.75h-6.36c1.17-1.24,1.43-1.78,2.17-4.75l4.22-17c.74-3,.75-3.52.19-4.76h13.9l1.31,15h.08Z"/></g></svg>