<?xml version="1.0" encoding="UTF-8" standalone="no"?>
<svg
   xmlns:dc="http://purl.org/dc/elements/1.1/"
   xmlns:cc="http://creativecommons.org/ns#"
   xmlns:rdf="http://www.w3.org/1999/02/22-rdf-syntax-ns#"
   xmlns:svg="http://www.w3.org/2000/svg"
   xmlns="http://www.w3.org/2000/svg"
   xmlns:sodipodi="http://sodipodi.sourceforge.net/DTD/sodipodi-0.dtd"
   xmlns:inkscape="http://www.inkscape.org/namespaces/inkscape"
   width="500"
   height="500"
   viewBox="0 0 500 500"
   version="1.1"
   id="svg35"
   sodipodi:docname="elixir-au.svg"
   inkscape:version="0.92.5 (2060ec1f9f, 2020-04-08)">
  <metadata
     id="metadata39">
    <rdf:RDF>
      <cc:Work
         rdf:about="">
        <dc:format>image/svg+xml</dc:format>
        <dc:type
           rdf:resource="http://purl.org/dc/dcmitype/StillImage" />
        <dc:title></dc:title>
      </cc:Work>
    </rdf:RDF>
  </metadata>
  <sodipodi:namedview
     pagecolor="#ffffff"
     bordercolor="#666666"
     borderopacity="1"
     objecttolerance="10"
     gridtolerance="10"
     guidetolerance="10"
     inkscape:pageopacity="0"
     inkscape:pageshadow="2"
     inkscape:window-width="1920"
     inkscape:window-height="1080"
     id="namedview37"
     showgrid="false"
     inkscape:zoom="1.888"
     inkscape:cx="201.28918"
     inkscape:cy="292.95264"
     inkscape:window-x="0"
     inkscape:window-y="0"
     inkscape:window-maximized="0"
     inkscape:current-layer="Nodes" />
  <defs
     id="defs4">
    <style
       id="style2">.cls-1{fill:#4d4848;}.cls-2{fill:#f47d20;}</style>
  </defs>
  <g
     id="Nodes">
    <path
       class="cls-1"
       d="m 168.8,272 c 0.63,-1.38 1.16,-2.86 1.8,-4.66 a 46.2,46.2 0 0 0 1.8,-6.25 l 6.46,-27.94 c 0.53,-2.86 0.95,-5 1.06,-6.25 a 16.19,16.19 0 0 0 0.21,-3.39 v -1.27 h 14.61 L 186,261 c -0.64,2.76 -1,4.87 -1.27,6.36 a 22.21,22.21 0 0 0 -0.32,4.55 z"
       id="path6"
       inkscape:connector-curvature="0"
       style="fill:#4d4848" />
    <path
       class="cls-2"
       d="M 362.2,135.9 A 17,17 0 0 0 347.26,161 c -1.69,0.84 -5.63,2.82 -11.15,5.69 a 12.64,12.64 0 1 0 -22.27,11.93 c -2.84,1.56 -5.79,3.21 -8.81,4.92 a 9.930579,9.930579 0 0 0 -17.16,10 q -4.69,2.79 -9.43,5.72 a 7.26,7.26 0 0 0 -11.95,5.54 7.08,7.08 0 0 0 0.25,1.86 A 342.1,342.1 0 0 0 232,232 c -11.48,-25.68 -28.42,-53.87 -52,-76.82 l -0.06,-0.06 c -2.76,-2.72 -5.05,-1.52 -1.88,1.86 l 0.13,0.13 c 20,21.53 35.71,52.68 46.42,81.09 -40.62,34.69 -85.41,101.91 -36.32,123 7.15,3.08 10.4,-2.8 7.33,-4.61 -0.55,-0.33 -22.42,-12.15 -8.52,-48.45 h 35 a 3.4,3.4 0 1 0 0,-6.79 H 190 a 139,139 0 0 1 7,-12.86 h 25.16 a 3.4,3.4 0 0 0 0,-6.79 h -20.88 c 2.6,-3.89 5.51,-7.95 8.78,-12.21 h 12.05 a 3.4,3.4 0 0 0 0,-6.79 h -6.66 c 3.8,-4.64 8,-9.49 12.63,-14.57 L 228.2,248 c 9.23,26.72 13.68,49.5 12.71,57.09 a 7.93,7.93 0 0 1 -4.28,6.38 c -1.72,0.81 -2.42,3.18 0.27,4 8.6,2.53 13.89,-6 14.84,-12.85 0.95,-6.85 -3.74,-32.19 -16.15,-62.34 a 316.22,316.22 0 0 1 34.54,-29.2 7.26,7.26 0 0 0 10.87,-6.31 7.35,7.35 0 0 0 -0.14,-1.42 c 3.24,-2.26 6.47,-4.46 9.66,-6.58 a 9.92,9.92 0 0 0 15.83,-10.16 c 3.18,-2 6.27,-3.86 9.24,-5.64 a 12.65,12.65 0 0 0 21.29,-12.28 c 5.4,-3 9.34,-5.13 11.26,-6.23 A 17,17 0 1 0 362.2,135.9 Z"
       id="path8"
       inkscape:connector-curvature="0"
       style="fill:#f47d20" />
    <path
       class="cls-1"
       d="m 132.36,272 h -43.3 c -4.34,0 -7.3,-0.95 -8.89,-3 a 8,8 0 0 1 -1.27,-4.76 22.47,22.47 0 0 1 0.74,-5.4 l 5.4,-23.5 c 1.17,-4.76 2.86,-8.15 5.19,-10.17 2.33,-2.02 5.72,-3 10.16,-3 h 32 c 4.56,0 7.52,1 9,3 a 7.47,7.47 0 0 1 1.38,4.88 20.37,20.37 0 0 1 -0.74,5.29 l -3.5,15.57 H 95 L 92.66,261 a 13.87,13.87 0 0 0 -0.31,2.44 c 0,0.53 0,0.95 0.21,1.16 0.31,0.64 1.27,1 2.75,1 h 31.76 a 38.76,38.76 0 0 0 8.26,-0.84 z M 129,233.1 a 8.71,8.71 0 0 0 0.42,-2.54 3.32,3.32 0 0 0 -0.21,-1.06 c -0.43,-0.64 -1.48,-0.95 -3,-0.95 h -22.43 a 4.38,4.38 0 0 0 -3.18,0.95 5.5,5.5 0 0 0 -1.48,3.6 l -2.65,11.43 h 29.86 z"
       id="path10"
       inkscape:connector-curvature="0"
       style="fill:#4d4848" />
    <path
       class="cls-1"
       d="m 143.16,272 c 0.67,-1.54 1.23,-3.2 1.91,-5.22 a 53.66,53.66 0 0 0 1.9,-7 l 11.12,-51.5 c 0.68,-3.21 1.12,-5.58 1.35,-7 0.23,-1.42 0.23,-3.08 0.23,-5.22 h 15.49 l -13.81,63.73 q -1,4.63 -1.35,7.13 a 27.12,27.12 0 0 0 -0.33,5.1 z"
       id="path12"
       inkscape:connector-curvature="0"
       style="fill:#4d4848" />
    <path
       class="cls-1"
       d="m 321.77,230.56 c -1.59,-0.11 -3.17,-0.22 -5,-0.22 h -7.1 a 5.17,5.17 0 0 0 -3.17,0.85 5.67,5.67 0 0 0 -1.8,3.28 L 298.8,261 a 40.68,40.68 0 0 0 -1.48,9.74 V 272 h -15.45 c 0.63,-1.59 1.26,-3.08 1.69,-4.55 0.43,-1.47 0.95,-3.5 1.69,-6.36 l 6.35,-27.94 c 0.74,-2.76 1.06,-4.87 1.38,-6.46 a 31.58,31.58 0 0 0 0.21,-4.45 h 13 l -0.53,5.08 a 9.05,9.05 0 0 1 3.29,-3.81 10.51,10.51 0 0 1 5.6,-1.27 h 12.71 l 3.07,5.5 a 11.82,11.82 0 0 0 -1.8,2 c -0.74,0.95 -1.27,1.37 -1.59,1.37 -1.88,-0.23 -3.58,-0.45 -5.17,-0.55 z"
       id="path14"
       inkscape:connector-curvature="0"
       style="fill:#4d4848" />
    <path
       class="cls-1"
       d="m 253.27,272 c 0.63,-1.38 1.16,-2.86 1.8,-4.66 a 46.2,46.2 0 0 0 1.8,-6.25 l 6.46,-27.94 c 0.53,-2.86 0.95,-5 1.05,-6.25 a 15.47,15.47 0 0 0 0.22,-3.39 v -1.27 h 14.6 L 270.42,261 c -0.64,2.76 -1.06,4.87 -1.27,6.36 a 22.21,22.21 0 0 0 -0.32,4.55 z"
       id="path16"
       inkscape:connector-curvature="0"
       style="fill:#4d4848" />
    <path
       class="cls-1"
       d="m 197.19,204.79 a 7.17,7.17 0 1 1 -7.17,-7.17 7.17,7.17 0 0 1 7.17,7.17 z"
       id="path18"
       inkscape:connector-curvature="0"
       style="fill:#4d4848" />
    <text
       xml:space="preserve"
       style="font-style:normal;font-weight:normal;font-size:40px;line-height:1.25;font-family:sans-serif;letter-spacing:0px;word-spacing:0px;fill:#4d4848;fill-opacity:1;stroke:none"
       x="206.03813"
       y="362.81781"
       id="text848"><tspan
         sodipodi:role="line"
         id="tspan846"
         x="206.03813"
         y="362.81781"
         style="font-style:italic;font-variant:normal;font-weight:normal;font-stretch:normal;font-family:'Verana Sans Demi';-inkscape-font-specification:'Verana Sans Demi';fill:#4d4848;fill-opacity:1">AUSTRALIA</tspan></text>
  </g>
</svg>
