<svg xmlns="http://www.w3.org/2000/svg" width="500" height="500" viewBox="0 0 500 500"><defs><style>.cls-1{fill:#4d4848;}.cls-2{fill:#f47d20;}</style></defs><g id="Nodes"><path class="cls-1" d="M156.56,272c.63-1.38,1.16-2.86,1.8-4.66a46.2,46.2,0,0,0,1.8-6.25l6.46-27.94c.53-2.86.95-5,1.06-6.25a16.19,16.19,0,0,0,.21-3.39v-1.27H182.5L173.71,261c-.64,2.76-1.06,4.87-1.27,6.36a22.21,22.21,0,0,0-.32,4.55Z"/><path class="cls-2" d="M350,135.9A17,17,0,0,0,335,161c-1.69.84-5.63,2.82-11.15,5.69a12.64,12.64,0,1,0-22.27,11.93c-2.84,1.56-5.79,3.21-8.81,4.92a9.93,9.93,0,0,0-17.16,10q-4.69,2.79-9.43,5.72a7.26,7.26,0,0,0-11.95,5.54,7.08,7.08,0,0,0,.25,1.86A342.1,342.1,0,0,0,219.78,232c-11.48-25.68-28.42-53.87-52-76.82l-.06-.06c-2.76-2.72-5-1.52-1.88,1.86l.12.13c20,21.53,35.72,52.68,46.43,81.09-40.62,34.69-85.41,101.91-36.32,123,7.15,3.08,10.4-2.8,7.33-4.61-.56-.33-22.42-12.15-8.52-48.45h35a3.4,3.4,0,0,0,0-6.79H177.79a139,139,0,0,1,6.92-12.84h25.16a3.4,3.4,0,0,0,0-6.79H189q3.89-5.83,8.78-12.21h12.05a3.4,3.4,0,0,0,0-6.79h-6.66c3.8-4.64,8-9.49,12.63-14.57L216,248c9.23,26.72,13.68,49.5,12.71,57.09a7.93,7.93,0,0,1-4.28,6.38c-1.72.81-2.42,3.18.27,4,8.6,2.53,13.89-6,14.84-12.85s-3.74-32.19-16.15-62.34a316.22,316.22,0,0,1,34.54-29.2,7.26,7.26,0,0,0,10.88-6.29,7.35,7.35,0,0,0-.14-1.42c3.24-2.26,6.47-4.46,9.66-6.58a9.92,9.92,0,0,0,15.83-10.16c3.18-2,6.27-3.86,9.24-5.64a12.65,12.65,0,0,0,21.8-8.73,13,13,0,0,0-.51-3.55c5.4-3,9.34-5.13,11.26-6.23a17,17,0,1,0,14-26.56Z"/><path class="cls-1" d="M120.12,272H76.82c-4.34,0-7.3-.95-8.89-3a8,8,0,0,1-1.27-4.76,22.47,22.47,0,0,1,.74-5.4l5.4-23.5c1.16-4.76,2.86-8.15,5.19-10.17s5.72-3,10.16-3h32c4.55,0,7.52,1,9,3A7.47,7.47,0,0,1,130.5,230a20.37,20.37,0,0,1-.74,5.29l-3.5,15.57H82.75L80.42,261a13.87,13.87,0,0,0-.31,2.44c0,.53,0,.95.21,1.16.31.64,1.27,1,2.75,1h31.76a38.76,38.76,0,0,0,8.26-.84Zm-3.38-38.85a8.71,8.71,0,0,0,.42-2.54,3.32,3.32,0,0,0-.21-1.06c-.43-.64-1.48-.95-3-.95H91.54a4.38,4.38,0,0,0-3.18.95,5.5,5.5,0,0,0-1.48,3.6l-2.65,11.43h29.86Z"/><path class="cls-1" d="M130.92,272c.67-1.54,1.23-3.2,1.9-5.22a52.42,52.42,0,0,0,1.91-7l11.12-51.5c.68-3.21,1.12-5.58,1.35-7s.22-3.08.22-5.22h15.5l-13.81,63.73c-.67,3.09-1.13,5.47-1.35,7.13a26.34,26.34,0,0,0-.34,5.1Z"/><path class="cls-1" d="M309.53,230.56c-1.59-.11-3.17-.22-5-.22h-7.1a5.17,5.17,0,0,0-3.17.85,5.67,5.67,0,0,0-1.8,3.28L286.56,261a40.17,40.17,0,0,0-1.48,9.74V272H269.62c.64-1.59,1.27-3.08,1.7-4.55s.95-3.5,1.69-6.36l6.35-27.94c.74-2.76,1.06-4.87,1.38-6.46a31.58,31.58,0,0,0,.21-4.45h13l-.53,5.08a9.05,9.05,0,0,1,3.29-3.81,10.51,10.51,0,0,1,5.6-1.27H315l3.07,5.5a11.82,11.82,0,0,0-1.8,2c-.74.95-1.27,1.37-1.59,1.37C312.82,230.88,311.12,230.66,309.53,230.56Z"/><path class="cls-1" d="M241,272c.63-1.38,1.16-2.86,1.8-4.66a46.2,46.2,0,0,0,1.8-6.25l6.46-27.94c.53-2.86.95-5,1-6.25a15.47,15.47,0,0,0,.22-3.39v-1.27H267L258.18,261c-.64,2.76-1.06,4.87-1.27,6.36a22.21,22.21,0,0,0-.32,4.55Z"/><path class="cls-1" d="M185,204.79a7.17,7.17,0,1,1-7.17-7.17A7.17,7.17,0,0,1,185,204.79Z"/><path class="cls-1" d="M224.47,348.22l1.5-6c.63-2.52.55-3.51.31-4.55H238a11.31,11.31,0,0,0-2,4.55l-4.33,17.37c-.63,2.53-.54,3.52-.3,4.55H219.69a11.3,11.3,0,0,0,2-4.55l1.73-6.95h-7.53l-1.73,6.95c-.62,2.53-.54,3.52-.3,4.55H202.07a11.16,11.16,0,0,0,2-4.55l4.33-17.37c.62-2.52.54-3.51.3-4.55h11.75a11.16,11.16,0,0,0-2,4.55l-1.51,6Z"/><path class="cls-1" d="M256.68,359.72c2.81,0,3.09-.29,3.68-2.65L264,342.39c.74-3,.75-3.52.19-4.76h6.37c-1.18,1.24-1.43,1.78-2.18,4.76L265,355.91c-1.5,6-3.69,8.19-9.44,8.19h-13.4c-5.17,0-6.66-2.64-5.29-8.19l3.42-13.73c.63-2.52.55-3.51.31-4.55h11.74a11.44,11.44,0,0,0-2,4.55l-3.74,15.06c-.44,1.73.12,2.48,1.9,2.48Z"/><path class="cls-1" d="M277.17,342.18h-.08l-4.28,17.17c-.74,3-.75,3.51-.19,4.75h-6.37c1.18-1.24,1.44-1.78,2.18-4.75l4.22-17c.74-3,.75-3.52.19-4.76H287l5.38,21.59h.12l4.19-16.83c.74-3,.75-3.52.19-4.76h6.37c-1.18,1.24-1.43,1.78-2.17,4.76L295.7,364.1H282.63Z"/><path class="cls-1" d="M332.49,348.22a7.63,7.63,0,0,0-2.27,4.14l-1.63,6.53c-.81,3.27-.78,3.81-.22,5.21h-8.89l.28-2.44h-.09c-.83,1.53-1.43,2.44-4.29,2.44h-8.93c-4.3,0-6.18-2.07-4.76-7.77l2.71-10.92c1.42-5.71,4.34-7.78,8.64-7.78h19.35l-.48,5.09A8.94,8.94,0,0,0,328,342H317.32c-1.32,0-2.08.41-2.4,1.69L311.36,358c-.32,1.28.24,1.7,1.56,1.7h3.39c1.32,0,2.09-.42,2.41-1.7l1.35-5.42H316.3a4.16,4.16,0,0,0-1.82.5l1.22-4.88Z"/><path class="cls-1" d="M339.4,357l-2.68,3.64a4.5,4.5,0,0,0-.77,1.57,2.38,2.38,0,0,0,.11,1.9h-7.49a28.86,28.86,0,0,0,4.22-4.8l14.66-20.18-.79-1.49h11.95l3.75,22.83a9.69,9.69,0,0,0,1.41,3.64H350.49c.75-1,.87-1.16,1-1.73a5.22,5.22,0,0,0,.13-2L351,357Zm11-4.39-1.54-8.93-6.28,8.93Z"/><path class="cls-1" d="M378.21,352.6l-1.73,6.95c-.63,2.53-.55,3.52-.31,4.55H364.43a11.3,11.3,0,0,0,2-4.55l4.32-17.37c.63-2.52.54-3.51.06-4.55h21.75c4.63,0,6.52,1.41,5.42,5.83l-1.22,4.88c-1,3.89-2.92,4.1-5.11,4.26l1.74,7.45a14.45,14.45,0,0,0,1.19,4.05H383.25l-1.94-11.5Zm1.09-4.38H385c1.28,0,1.7-.21,2-1.49l.8-3.22c.32-1.29,0-1.49-1.28-1.49h-5.71Z"/><path class="cls-1" d="M407.74,353.76l-5.15-12.9a9.37,9.37,0,0,0-1.72-3.23h13.61a3.36,3.36,0,0,0-.37.83,5.71,5.71,0,0,0,.61,3l2.81,7.15,6.37-7.32a8.33,8.33,0,0,0,1.91-3.68h7.53a16,16,0,0,0-4.48,3.89L417.69,354.3l-1.3,5.25c-.63,2.53-.55,3.52-.31,4.55H404.34a11.18,11.18,0,0,0,2-4.55Z"/></g></svg>