<svg xmlns="http://www.w3.org/2000/svg" width="500" height="500" viewBox="0 0 500 500"><defs><style>.cls-1{fill:#4d4848;}.cls-2{fill:#f47d20;}</style></defs><g id="Nodes"><path class="cls-1" d="M172.42,272c.63-1.38,1.16-2.86,1.8-4.66A44.79,44.79,0,0,0,176,261l6.46-27.94c.53-2.86,1-5,1.06-6.25a16.19,16.19,0,0,0,.21-3.39v-1.27h14.61L189.57,261c-.64,2.76-1,4.87-1.27,6.36A22.21,22.21,0,0,0,188,272Z"/><path class="cls-2" d="M365.82,135.9A17,17,0,0,0,350.88,161c-1.69.84-5.63,2.82-11.15,5.69a12.64,12.64,0,1,0-22.27,11.93c-2.84,1.56-5.79,3.21-8.81,4.92a9.93,9.93,0,0,0-17.16,10q-4.69,2.79-9.43,5.72a7.26,7.26,0,0,0-11.95,5.54,7.08,7.08,0,0,0,.25,1.86A342.1,342.1,0,0,0,235.64,232c-11.48-25.68-28.42-53.87-52-76.82l-.06-.06c-2.76-2.72-5-1.52-1.87,1.86l.12.13c20,21.53,35.72,52.68,46.43,81.09-40.63,34.69-85.42,101.91-36.33,123,7.15,3.08,10.4-2.8,7.33-4.61-.55-.33-22.42-12.14-8.52-48.45h35a3.4,3.4,0,1,0,0-6.79H193.65a139,139,0,0,1,6.92-12.84h25.16a3.4,3.4,0,0,0,0-6.79H204.9c2.6-3.89,5.51-7.95,8.79-12.21h12a3.4,3.4,0,0,0,0-6.79h-6.66c3.8-4.64,8-9.49,12.63-14.57l.12-.13c9.23,26.72,13.68,49.5,12.71,57.09a7.91,7.91,0,0,1-4.28,6.38c-1.72.81-2.42,3.18.27,4,8.6,2.53,13.89-6,14.84-12.85s-3.74-32.19-16.15-62.34a316.22,316.22,0,0,1,34.54-29.2,7.26,7.26,0,0,0,10.88-6.29,7.35,7.35,0,0,0-.14-1.42c3.24-2.26,6.47-4.46,9.66-6.58A9.92,9.92,0,0,0,310,186.61c3.18-2,6.27-3.86,9.24-5.64a12.65,12.65,0,0,0,21.29-12.28c5.4-3,9.34-5.13,11.26-6.23a17,17,0,1,0,14.05-26.56Z"/><path class="cls-1" d="M136,272H92.69c-4.35,0-7.3-.95-8.9-3a8,8,0,0,1-1.27-4.76,22.47,22.47,0,0,1,.74-5.4l5.4-23.5c1.17-4.76,2.86-8.15,5.19-10.17s5.72-3,10.16-3h32c4.56,0,7.52,1,9,3a7.47,7.47,0,0,1,1.38,4.88,20.37,20.37,0,0,1-.74,5.29l-3.5,15.57H98.61L96.28,261a13.87,13.87,0,0,0-.31,2.44c0,.53,0,.95.21,1.16.31.64,1.27,1,2.75,1h31.76a38.76,38.76,0,0,0,8.26-.84ZM132.6,233.1a8.71,8.71,0,0,0,.42-2.54,3.32,3.32,0,0,0-.21-1.06c-.43-.64-1.48-.95-3-.95H107.4a4.38,4.38,0,0,0-3.18.95,5.5,5.5,0,0,0-1.48,3.6l-2.64,11.43H130Z"/><path class="cls-1" d="M146.78,272c.67-1.54,1.23-3.2,1.91-5.22a53.66,53.66,0,0,0,1.9-7l11.12-51.5c.68-3.21,1.13-5.58,1.35-7s.23-3.08.23-5.22h15.49L165,259.72q-1,4.63-1.35,7.13a27.12,27.12,0,0,0-.33,5.1Z"/><path class="cls-1" d="M325.39,230.56c-1.59-.11-3.17-.22-5-.22h-7.1a5.17,5.17,0,0,0-3.17.85,5.72,5.72,0,0,0-1.8,3.28L302.42,261a40.68,40.68,0,0,0-1.48,9.74V272H285.49c.63-1.59,1.26-3.08,1.69-4.55s.95-3.5,1.69-6.36l6.35-27.94c.74-2.76,1.06-4.87,1.38-6.46a30.15,30.15,0,0,0,.22-4.45h13l-.52,5.08a9,9,0,0,1,3.28-3.81,10.51,10.51,0,0,1,5.6-1.27H330.9l3.07,5.5a11.82,11.82,0,0,0-1.8,2c-.74.95-1.27,1.37-1.59,1.37C328.68,230.88,327,230.66,325.39,230.56Z"/><path class="cls-1" d="M256.89,272c.63-1.38,1.16-2.86,1.8-4.66a44.79,44.79,0,0,0,1.8-6.25L267,233.1c.53-2.86.95-5,1.05-6.25a15.47,15.47,0,0,0,.22-3.39v-1.27h14.6L274,261c-.64,2.76-1.06,4.87-1.27,6.36a22.21,22.21,0,0,0-.32,4.55Z"/><path class="cls-1" d="M200.81,204.79a7.17,7.17,0,1,1-7.17-7.17A7.17,7.17,0,0,1,200.81,204.79Z"/><path class="cls-1" d="M218.68,364.1a11.3,11.3,0,0,0,2-4.55L225,342.18c.63-2.52.55-3.51.31-4.55H237a11.44,11.44,0,0,0-2,4.55l-4.32,17.37c-.63,2.53-.54,3.52-.31,4.55Z"/><path class="cls-1" d="M247.8,352.6l-1.73,6.95c-.63,2.53-.54,3.52-.3,4.55H234a11.3,11.3,0,0,0,2-4.55l4.32-17.37c.63-2.52.55-3.51.06-4.55h21.75c4.64,0,6.52,1.41,5.42,5.83l-1.22,4.88c-1,3.89-2.92,4.1-5.11,4.26l1.75,7.45a14.48,14.48,0,0,0,1.18,4.05H252.84l-1.94-11.5Zm1.09-4.38h5.71c1.28,0,1.7-.21,2-1.49l.81-3.22c.32-1.29,0-1.49-1.29-1.49h-5.7Z"/><path class="cls-1" d="M287,359.72a14.59,14.59,0,0,0,4.73-.7l-2.18,5.08H266.19a11,11,0,0,0,2-4.55l4.33-17.37c.62-2.52.54-3.51.3-4.55h22.91l-.43,5.09a11.92,11.92,0,0,0-4.42-.7h-8.23l-1.54,6.2h7.19a15,15,0,0,0,4.73-.7l-1.45,5.79a11.68,11.68,0,0,0-4.37-.71H280l-1.77,7.12Z"/><path class="cls-1" d="M313.11,359.72a11,11,0,0,0,4.56-.87l-2.18,5.25H292.66a11.3,11.3,0,0,0,2-4.55l4.32-17.37c.63-2.52.55-3.51.31-4.55H311a11.44,11.44,0,0,0-2,4.55l-4.36,17.54Z"/><path class="cls-1" d="M326.19,357l-2.68,3.64a4.5,4.5,0,0,0-.77,1.57,2.38,2.38,0,0,0,.11,1.9h-7.49a28.86,28.86,0,0,0,4.22-4.8l14.66-20.18-.79-1.49H345.4l3.75,22.83a9.69,9.69,0,0,0,1.41,3.64H337.28c.75-1,.87-1.16,1-1.73a5.22,5.22,0,0,0,.13-2l-.61-3.39Zm11-4.39-1.54-8.93-6.28,8.93Z"/><path class="cls-1" d="M362,342.18h-.09l-4.27,17.17c-.74,3-.75,3.51-.19,4.75h-6.37c1.18-1.24,1.44-1.78,2.18-4.75l4.22-17c.74-3,.75-3.52.19-4.76h14.19l5.37,21.59h.13l4.19-16.83c.74-3,.75-3.52.19-4.76h6.37c-1.18,1.24-1.44,1.78-2.18,4.76l-5.4,21.71H367.43Z"/><path class="cls-1" d="M390.42,342.18c.63-2.52.54-3.51.3-4.55h20.56c5.62,0,7.07,2.15,5.73,7.53l-2.84,11.41c-1.34,5.38-3.86,7.53-9.48,7.53H384.13a11,11,0,0,0,2-4.55Zm5.72,17.54h5.26c1.65,0,2-.37,2.43-2.15l3.34-13.4c.44-1.78.29-2.15-1.37-2.15h-5.25Z"/></g></svg>