<svg xmlns="http://www.w3.org/2000/svg" width="500" height="500" viewBox="0 0 500 500"><defs><style>.cls-1{fill:#4d4848;}.cls-2{fill:#f47d20;}</style></defs><g id="Nodes"><path class="cls-1" d="M113.94,272c.63-1.38,1.16-2.86,1.8-4.66a46.2,46.2,0,0,0,1.8-6.25L124,233.1c.53-2.86.94-5,1.06-6.25a16.19,16.19,0,0,0,.21-3.39v-1.27h14.61L131.09,261c-.64,2.76-1.06,4.87-1.27,6.36a22.21,22.21,0,0,0-.32,4.55Z"/><path class="cls-2" d="M307.34,135.9A17,17,0,0,0,292.4,161c-1.69.84-5.63,2.82-11.15,5.69A12.65,12.65,0,1,0,259,178.63c-2.83,1.56-5.78,3.21-8.8,4.92a9.93,9.93,0,0,0-17.16,10q-4.69,2.79-9.44,5.72a7.25,7.25,0,0,0-11.94,5.54,7.08,7.08,0,0,0,.25,1.86A342.1,342.1,0,0,0,177.16,232c-11.48-25.68-28.42-53.87-52-76.82l-.06-.06c-2.76-2.72-5-1.52-1.88,1.86l.12.13c20,21.53,35.72,52.68,46.43,81.09-40.62,34.69-85.41,101.91-36.32,123,7.14,3.08,10.4-2.8,7.33-4.61-.56-.33-22.42-12.14-8.52-48.45h35a3.4,3.4,0,0,0,0-6.79H135.17a139,139,0,0,1,6.92-12.84h25.16a3.4,3.4,0,0,0,0-6.79H146.42q3.89-5.83,8.78-12.21h12.05a3.4,3.4,0,0,0,0-6.79h-6.66c3.8-4.64,8-9.49,12.63-14.57l.12-.13c9.23,26.72,13.68,49.5,12.7,57.09a7.93,7.93,0,0,1-4.27,6.38c-1.72.81-2.42,3.18.27,4,8.6,2.53,13.89-6,14.84-12.85s-3.74-32.19-16.15-62.34a316.22,316.22,0,0,1,34.54-29.2,7.26,7.26,0,0,0,10.88-6.29,7.35,7.35,0,0,0-.14-1.42c3.24-2.26,6.47-4.46,9.66-6.58a9.92,9.92,0,0,0,15.83-10.16c3.18-2,6.27-3.86,9.24-5.64a12.65,12.65,0,0,0,21.8-8.73,13,13,0,0,0-.51-3.55c5.4-3,9.34-5.13,11.26-6.23a17,17,0,1,0,14-26.56Z"/><path class="cls-1" d="M77.5,272H34.2c-4.34,0-7.3-.95-8.89-3A8,8,0,0,1,24,264.22a22.47,22.47,0,0,1,.74-5.4l5.4-23.5c1.16-4.76,2.86-8.15,5.19-10.17s5.72-3,10.16-3h32c4.55,0,7.52,1,9,3A7.47,7.47,0,0,1,87.88,230a20.81,20.81,0,0,1-.74,5.29l-3.5,15.57H40.13L37.8,261a13.87,13.87,0,0,0-.31,2.44c0,.53,0,.95.21,1.16.31.64,1.27,1,2.75,1H72.2a38.86,38.86,0,0,0,8.27-.84ZM74.11,233.1a8.44,8.44,0,0,0,.43-2.54,3.32,3.32,0,0,0-.21-1.06c-.43-.64-1.48-.95-3-.95H48.92a4.38,4.38,0,0,0-3.18.95,5.45,5.45,0,0,0-1.48,3.6l-2.65,11.43H71.46Z"/><path class="cls-1" d="M88.29,272c.68-1.54,1.24-3.2,1.91-5.22a52,52,0,0,0,1.91-7l11.12-51.5c.67-3.21,1.12-5.58,1.35-7s.22-3.08.22-5.22h15.5l-13.81,63.73c-.67,3.09-1.13,5.47-1.35,7.13a26.34,26.34,0,0,0-.34,5.1Z"/><path class="cls-1" d="M266.91,230.56c-1.59-.11-3.18-.22-5-.22h-7.1a5.17,5.17,0,0,0-3.17.85,5.67,5.67,0,0,0-1.8,3.28L243.94,261a40.17,40.17,0,0,0-1.48,9.74V272H227c.64-1.59,1.27-3.08,1.7-4.55s1-3.5,1.69-6.36l6.35-27.94c.74-2.76,1.06-4.87,1.38-6.46a31.58,31.58,0,0,0,.21-4.45h13l-.53,5.08a9.1,9.1,0,0,1,3.28-3.81,10.57,10.57,0,0,1,5.61-1.27h12.71l3.07,5.5a11.41,11.41,0,0,0-1.8,2c-.74.95-1.27,1.37-1.59,1.37C270.2,230.88,268.5,230.66,266.91,230.56Z"/><path class="cls-1" d="M198.41,272c.63-1.38,1.16-2.86,1.8-4.66A44.89,44.89,0,0,0,202,261l6.47-27.94c.52-2.86.95-5,1.05-6.25a16.19,16.19,0,0,0,.21-3.39v-1.27h14.61L215.56,261c-.64,2.76-1.06,4.87-1.27,6.36A22.21,22.21,0,0,0,214,272Z"/><path class="cls-1" d="M142.33,204.79a7.17,7.17,0,1,1-7.17-7.17A7.17,7.17,0,0,1,142.33,204.79Z"/><path class="cls-1" d="M180.31,359.72a10.94,10.94,0,0,0,4.56-.87l-2.17,5.25H159.87a11.18,11.18,0,0,0,1.95-4.55l4.33-17.37c.63-2.52.54-3.51.3-4.55H178.2a11.44,11.44,0,0,0-2,4.55l-4.36,17.54Z"/><path class="cls-1" d="M207.15,359.72c2.81,0,3.09-.29,3.68-2.65l3.65-14.68c.74-3,.75-3.52.19-4.76H221c-1.17,1.24-1.43,1.78-2.17,4.76l-3.37,13.52c-1.5,6-3.69,8.19-9.44,8.19h-13.4c-5.17,0-6.66-2.64-5.28-8.19l3.41-13.73c.63-2.52.55-3.51.31-4.55h11.75a11.16,11.16,0,0,0-2,4.55l-3.75,15.06c-.43,1.73.13,2.48,1.9,2.48Z"/><path class="cls-1" d="M238.11,345.33l5.18-4.22a8.73,8.73,0,0,0,2.94-3.48h8.23a41.48,41.48,0,0,0-5.67,4L240,348.88l5.68,11.58a10,10,0,0,0,2.45,3.64H233.6c.55-2,.38-2.36-.5-4.13l-1.93-3.89-5.66,4.63c-1.71,1.41-2.55,2.28-3,3.39H214.7a41.69,41.69,0,0,0,5.36-3.93l9.35-7.65-5.72-11.25a8.69,8.69,0,0,0-2.77-3.64h14.89a4.3,4.3,0,0,0,.16,3.15Z"/><path class="cls-1" d="M269.06,359.72a14.52,14.52,0,0,0,4.72-.7l-2.17,5.08H248.28a11.3,11.3,0,0,0,2-4.55l4.32-17.37c.63-2.52.55-3.51.31-4.55h22.91l-.44,5.09a11.86,11.86,0,0,0-4.41-.7H264.7l-1.55,6.2h7.2a15,15,0,0,0,4.72-.7l-1.44,5.79a11.72,11.72,0,0,0-4.37-.71h-7.2l-1.77,7.12Z"/><path class="cls-1" d="M305.24,337.63h13.52a10.83,10.83,0,0,0-2,4.55l-4.32,17.37c-.63,2.53-.55,3.52-.27,4.55H300.39a11.3,11.3,0,0,0,2-4.55l4-16.29h-.08L293.81,364.1h-7l-1.92-20.84h-.09l-4,16.09c-.74,3-.75,3.51-.19,4.75h-6.37c1.18-1.24,1.44-1.78,2.18-4.75l4.22-17c.74-3,.75-3.52.19-4.76h13.89l1.31,15h.09Z"/><path class="cls-1" d="M321.18,342.18c.63-2.52.55-3.51.31-4.55h21.67c5.58,0,6.31,2.24,5.51,5.46l-.75,3c-.84,3.35-3.05,3.93-6.8,4.22l0,.08c4.25.54,5.49,1,4.79,3.85l-1.09,4.38c-.81,3.23-2.64,5.46-8.23,5.46H314.9a11.3,11.3,0,0,0,2-4.55Zm5.73,17.54h5.87c1.28,0,1.71-.21,2-1.49l1-4.14c.32-1.28,0-1.49-1.29-1.49h-5.87Zm2.86-11.5h5.87c1.29,0,1.71-.21,2-1.49l.8-3.22c.32-1.29,0-1.49-1.28-1.49h-5.87Z"/><path class="cls-1" d="M351.35,345.41c1.42-5.71,4.34-7.78,8.64-7.78h15.14c4.3,0,6.18,2.07,4.76,7.78l-2.72,10.92c-1.42,5.7-4.33,7.77-8.63,7.77H353.4c-4.3,0-6.18-2.07-4.76-7.77Zm7,12.61c-.32,1.28.24,1.7,1.56,1.7h4.38c1.33,0,2.09-.42,2.41-1.7l3.56-14.31c.32-1.28-.24-1.69-1.56-1.69h-4.39c-1.32,0-2.08.41-2.4,1.69Z"/><path class="cls-1" d="M400.89,359.72c2.82,0,3.09-.29,3.68-2.65l3.66-14.68c.74-3,.75-3.52.19-4.76h6.37c-1.18,1.24-1.44,1.78-2.18,4.76l-3.37,13.52c-1.5,6-3.69,8.19-9.44,8.19H386.4c-5.17,0-6.66-2.64-5.28-8.19l3.42-13.73c.63-2.52.54-3.51.3-4.55h11.75a11.29,11.29,0,0,0-2,4.55l-3.75,15.06c-.43,1.73.13,2.48,1.91,2.48Z"/><path class="cls-1" d="M424.41,352.6l-1.72,6.95c-.63,2.53-.55,3.52-.31,4.55H410.63a11,11,0,0,0,2-4.55l4.33-17.37c.63-2.52.54-3.51.05-4.55h21.76c4.63,0,6.51,1.41,5.41,5.83l-1.21,4.88c-1,3.89-2.92,4.1-5.12,4.26l1.75,7.45a14.82,14.82,0,0,0,1.18,4.05H429.45l-1.93-11.5Zm1.1-4.38h5.7c1.29,0,1.71-.21,2-1.49l.8-3.22c.32-1.29,0-1.49-1.28-1.49h-5.71Z"/><path class="cls-1" d="M476,348.22a7.63,7.63,0,0,0-2.27,4.14l-1.63,6.53c-.81,3.27-.78,3.81-.22,5.21H463l.28-2.44h-.09c-.83,1.53-1.43,2.44-4.28,2.44h-8.94c-4.3,0-6.18-2.07-4.76-7.77l2.71-10.92c1.43-5.71,4.34-7.78,8.64-7.78h19.36l-.49,5.09a8.94,8.94,0,0,0-3.87-.7H460.8c-1.33,0-2.09.41-2.41,1.69L454.83,358c-.32,1.28.24,1.7,1.56,1.7h3.39c1.32,0,2.09-.42,2.41-1.7l1.35-5.42h-3.77a4.16,4.16,0,0,0-1.82.5l1.22-4.88Z"/></g></svg>