<svg xmlns="http://www.w3.org/2000/svg" width="500" height="500" viewBox="0 0 500 500"><defs><style>.cls-1{fill:#4d4848;}.cls-2{fill:#f47d20;}</style></defs><g id="Nodes"><path class="cls-1" d="M106.81,272c.63-1.38,1.16-2.86,1.8-4.66a44.79,44.79,0,0,0,1.8-6.25l6.46-27.94c.53-2.86.95-5,1.06-6.25a16.19,16.19,0,0,0,.21-3.39v-1.27h14.61L124,261c-.64,2.76-1,4.87-1.27,6.36a22.21,22.21,0,0,0-.32,4.55Z"/><path class="cls-2" d="M300.21,135.9A17,17,0,0,0,285.27,161c-1.69.84-5.63,2.82-11.15,5.69a12.64,12.64,0,1,0-22.27,11.93c-2.84,1.56-5.79,3.21-8.81,4.92a9.93,9.93,0,0,0-17.16,10q-4.69,2.79-9.43,5.72a7.26,7.26,0,0,0-11.95,5.54,7.08,7.08,0,0,0,.25,1.86A342.1,342.1,0,0,0,170,232c-11.48-25.68-28.42-53.87-52-76.82l-.07-.06c-2.76-2.72-5-1.52-1.87,1.86l.12.13c20,21.53,35.72,52.68,46.43,81.09-40.63,34.69-85.42,101.91-36.33,123,7.15,3.08,10.4-2.8,7.33-4.61-.55-.33-22.42-12.15-8.52-48.45h35a3.4,3.4,0,1,0,0-6.79H128A139,139,0,0,1,135,288.49h25.16a3.4,3.4,0,1,0,0-6.79H139.29c2.6-3.89,5.51-7.95,8.79-12.21h12a3.4,3.4,0,1,0,0-6.79h-6.66c3.8-4.64,8-9.49,12.63-14.57l.12-.13c9.23,26.72,13.68,49.5,12.71,57.09a7.91,7.91,0,0,1-4.28,6.38c-1.71.81-2.42,3.18.28,4,8.59,2.53,13.88-6,14.83-12.85S186,270.41,173.6,240.26a316.22,316.22,0,0,1,34.54-29.2,7.26,7.26,0,0,0,10.74-7.71c3.24-2.26,6.47-4.46,9.66-6.58a9.92,9.92,0,0,0,15.83-10.16q4.78-3,9.24-5.64a12.65,12.65,0,0,0,21.29-12.28c5.4-3,9.34-5.13,11.26-6.23a17,17,0,1,0,14-26.56Z"/><path class="cls-1" d="M70.37,272H27.08c-4.34,0-7.3-.95-8.9-3a8,8,0,0,1-1.27-4.76,22.47,22.47,0,0,1,.74-5.4l5.41-23.5c1.16-4.76,2.85-8.15,5.18-10.17s5.72-3,10.16-3h32c4.56,0,7.52,1,9,3A7.47,7.47,0,0,1,80.75,230a20.37,20.37,0,0,1-.74,5.29l-3.5,15.57H33L30.67,261a13.87,13.87,0,0,0-.31,2.44c0,.53,0,.95.21,1.16.31.64,1.27,1,2.75,1H65.08a38.76,38.76,0,0,0,8.26-.84ZM67,233.1a8.71,8.71,0,0,0,.42-2.54,3.32,3.32,0,0,0-.21-1.06c-.43-.64-1.48-.95-3-.95H41.79a4.38,4.38,0,0,0-3.18.95,5.5,5.5,0,0,0-1.48,3.6l-2.64,11.43H64.34Z"/><path class="cls-1" d="M81.17,272c.67-1.54,1.23-3.2,1.91-5.22a52.12,52.12,0,0,0,1.9-7l11.13-51.5c.67-3.21,1.12-5.58,1.34-7s.23-3.08.23-5.22h15.49L99.36,259.72q-1,4.63-1.35,7.13a27.12,27.12,0,0,0-.33,5.1Z"/><path class="cls-1" d="M259.78,230.56c-1.59-.11-3.17-.22-5-.22h-7.1a5.19,5.19,0,0,0-3.17.85,5.72,5.72,0,0,0-1.8,3.28L236.81,261a40.68,40.68,0,0,0-1.48,9.74V272H219.88c.63-1.59,1.27-3.08,1.69-4.55s1-3.5,1.69-6.36l6.35-27.94c.74-2.76,1.06-4.87,1.38-6.46a30.15,30.15,0,0,0,.22-4.45h13l-.52,5.08a9,9,0,0,1,3.28-3.81,10.52,10.52,0,0,1,5.61-1.27h12.7l3.07,5.5a12.26,12.26,0,0,0-1.8,2c-.74.95-1.27,1.37-1.59,1.37C263.07,230.88,261.37,230.66,259.78,230.56Z"/><path class="cls-1" d="M191.28,272c.63-1.38,1.16-2.86,1.8-4.66a44.79,44.79,0,0,0,1.8-6.25l6.46-27.94c.53-2.86.95-5,1-6.25a15.47,15.47,0,0,0,.22-3.39v-1.27h14.6L208.43,261c-.63,2.76-1.06,4.87-1.27,6.36a22.21,22.21,0,0,0-.32,4.55Z"/><path class="cls-1" d="M135.2,204.79a7.17,7.17,0,1,1-7.17-7.17A7.17,7.17,0,0,1,135.2,204.79Z"/><path class="cls-1" d="M163.07,342.18H163l-4.27,17.17c-.74,3-.75,3.51-.19,4.75h-6.37c1.18-1.24,1.43-1.78,2.18-4.75l4.22-17c.74-3,.75-3.52.19-4.76h14.18l5.38,21.59h.13l4.19-16.83c.74-3,.75-3.52.19-4.76h6.37c-1.18,1.24-1.44,1.78-2.18,4.76l-5.4,21.71H168.54Z"/><path class="cls-1" d="M206,359.72a14.47,14.47,0,0,0,4.72-.7l-2.17,5.08H185.24a11.16,11.16,0,0,0,2-4.55l4.32-17.37c.63-2.52.55-3.51.31-4.55h22.91l-.44,5.09a11.82,11.82,0,0,0-4.41-.7h-8.23l-1.55,6.2h7.2a14.87,14.87,0,0,0,4.72-.7l-1.44,5.79a11.72,11.72,0,0,0-4.37-.71H199l-1.77,7.12Z"/><path class="cls-1" d="M242.45,337.63l-.53,5.46a4.85,4.85,0,0,0-3.5-1.07h-4.59l-4.36,17.53c-.63,2.53-.55,3.52-.31,4.55H217.42a11.3,11.3,0,0,0,2-4.55L223.74,342h-4.59a7.17,7.17,0,0,0-4,1.07l2.18-5.46Z"/><path class="cls-1" d="M260.49,348.22l1.5-6c.63-2.52.55-3.51.31-4.55H274a11.44,11.44,0,0,0-2,4.55l-4.32,17.37c-.63,2.53-.54,3.52-.3,4.55H255.71a11.3,11.3,0,0,0,2-4.55l1.73-6.95h-7.53l-1.73,6.95c-.62,2.53-.54,3.52-.3,4.55H238.09a11.16,11.16,0,0,0,2-4.55l4.32-17.37c.63-2.52.55-3.51.31-4.55h11.75a11.16,11.16,0,0,0-2,4.55l-1.51,6Z"/><path class="cls-1" d="M291,359.72a14.59,14.59,0,0,0,4.73-.7l-2.18,5.08H270.27a11.3,11.3,0,0,0,2-4.55l4.32-17.37c.63-2.52.54-3.51.3-4.55h22.92l-.44,5.09a11.92,11.92,0,0,0-4.42-.7h-8.23l-1.54,6.2h7.19a15,15,0,0,0,4.73-.7l-1.44,5.79a11.79,11.79,0,0,0-4.38-.71h-7.19l-1.77,7.12Z"/><path class="cls-1" d="M310.1,352.6l-1.73,6.95c-.63,2.53-.54,3.52-.31,4.55H296.32a11.3,11.3,0,0,0,2-4.55l4.32-17.37c.63-2.52.55-3.51.06-4.55h21.75c4.63,0,6.52,1.41,5.42,5.83l-1.22,4.88c-1,3.89-2.92,4.1-5.11,4.26l1.74,7.45a14.79,14.79,0,0,0,1.19,4.05H315.14l-1.94-11.5Zm1.09-4.38h5.71c1.28,0,1.7-.21,2-1.49l.8-3.22c.32-1.29,0-1.49-1.28-1.49h-5.71Z"/><path class="cls-1" d="M349.35,359.72a10.94,10.94,0,0,0,4.56-.87l-2.17,5.25H328.91a11.3,11.3,0,0,0,2-4.55l4.32-17.37c.63-2.52.54-3.51.3-4.55h11.75a11.44,11.44,0,0,0-2,4.55l-4.36,17.54Z"/><path class="cls-1" d="M362.44,357l-2.69,3.64a4.31,4.31,0,0,0-.76,1.57,2.34,2.34,0,0,0,.1,1.9h-7.48a28.77,28.77,0,0,0,4.21-4.8l14.66-20.18-.79-1.49h12l3.74,22.83a9.69,9.69,0,0,0,1.41,3.64H373.53c.74-1,.87-1.16,1-1.73a5.21,5.21,0,0,0,.12-2l-.6-3.39Zm11-4.39-1.54-8.93-6.27,8.93Z"/><path class="cls-1" d="M398.21,342.18h-.08l-4.27,17.17c-.74,3-.75,3.51-.19,4.75H387.3c1.17-1.24,1.43-1.78,2.17-4.75l4.22-17c.74-3,.75-3.52.19-4.76h14.19l5.38,21.59h.12l4.19-16.83c.74-3,.75-3.52.19-4.76h6.37c-1.17,1.24-1.43,1.78-2.17,4.76l-5.41,21.71H403.67Z"/><path class="cls-1" d="M426.66,342.18c.63-2.52.55-3.51.31-4.55h20.55c5.63,0,7.08,2.15,5.74,7.53l-2.84,11.41c-1.34,5.38-3.86,7.53-9.49,7.53H420.38a11.3,11.3,0,0,0,2-4.55Zm5.73,17.54h5.25c1.66,0,2-.37,2.44-2.15l3.33-13.4c.45-1.78.29-2.15-1.36-2.15h-5.26Z"/><path class="cls-1" d="M482.65,342.89a7.45,7.45,0,0,0-3.88-.87h-9.39c-1.57,0-2,.2-2.23,1.16l-.37,1.48c-.25,1,.08,1.16,1.65,1.16h7.16c4.3,0,6.25,1.49,5.29,5.34l-1.61,6.45c-1,4.18-3.1,6.49-7.94,6.49h-18.2l.47-5.37a6.44,6.44,0,0,0,3.72,1h9.77c1.57,0,1.94-.17,2.19-1.16l.45-1.82c.24-.95,0-1.16-1.62-1.16h-8.23c-4,0-5.25-1.32-4.15-5.75l1.47-5.91c1-4.14,3.6-6.29,7.15-6.29h18.74Z"/></g></svg>