<svg xmlns="http://www.w3.org/2000/svg" width="500" height="500" viewBox="0 0 500 500"><defs><style>.cls-1{fill:#4d4848;}.cls-2{fill:#f47d20;}</style></defs><g id="Nodes"><path class="cls-1" d="M182.39,272c.63-1.38,1.16-2.86,1.8-4.66A44.89,44.89,0,0,0,186,261l6.47-27.94c.52-2.86.94-5,1.06-6.25a17,17,0,0,0,.2-3.39v-1.27h14.61L199.53,261c-.63,2.76-1.05,4.87-1.26,6.36A22.21,22.21,0,0,0,198,272Z"/><path class="cls-2" d="M375.79,135.9A17,17,0,0,0,360.85,161c-1.69.84-5.63,2.82-11.15,5.69a12.65,12.65,0,1,0-22.28,11.93c-2.84,1.56-5.78,3.21-8.81,4.92a9.93,9.93,0,0,0-17.16,10c-3.12,1.86-6.28,3.77-9.43,5.72a7.25,7.25,0,0,0-11.94,5.54,7.08,7.08,0,0,0,.25,1.86A339.87,339.87,0,0,0,245.61,232c-11.49-25.68-28.42-53.87-52-76.82l-.07-.06c-2.76-2.72-5-1.52-1.87,1.86l.12.13c20,21.53,35.72,52.68,46.43,81.09-40.63,34.69-85.41,101.91-36.33,123,7.15,3.08,10.41-2.8,7.33-4.61-.55-.33-22.41-12.14-8.51-48.45h35a3.4,3.4,0,0,0,0-6.79H203.62a134.31,134.31,0,0,1,6.92-12.84H235.7a3.4,3.4,0,0,0,0-6.79H214.86q3.9-5.83,8.79-12.21h12a3.4,3.4,0,0,0,0-6.79H229q5.7-7,12.64-14.57l.12-.13c9.22,26.72,13.68,49.5,12.7,57.09a7.93,7.93,0,0,1-4.27,6.38c-1.72.81-2.42,3.18.27,4,8.6,2.53,13.89-6,14.84-12.85s-3.74-32.19-16.15-62.34a316.1,316.1,0,0,1,34.53-29.2,7.26,7.26,0,0,0,10.89-6.29,6.64,6.64,0,0,0-.15-1.42q4.88-3.39,9.67-6.58A9.92,9.92,0,0,0,320,186.61c3.18-2,6.27-3.86,9.24-5.64a12.63,12.63,0,0,0,21.28-12.28c5.41-3,9.35-5.13,11.27-6.23a17,17,0,1,0,14.05-26.56Z"/><path class="cls-1" d="M146,272h-43.3c-4.34,0-7.3-.95-8.89-3a7.89,7.89,0,0,1-1.27-4.76,22.47,22.47,0,0,1,.74-5.4l5.4-23.5c1.16-4.76,2.85-8.15,5.18-10.17s5.72-3,10.17-3h32c4.55,0,7.51,1,9,3a7.41,7.41,0,0,1,1.39,4.88,20.42,20.42,0,0,1-.75,5.29l-3.49,15.57H108.58L106.25,261a14.11,14.11,0,0,0-.32,2.44c0,.53,0,.95.22,1.16.31.64,1.26,1,2.75,1h31.75a38.69,38.69,0,0,0,8.26-.84Zm-3.39-38.85a8.44,8.44,0,0,0,.43-2.54,3.07,3.07,0,0,0-.22-1.06c-.42-.64-1.48-.95-3-.95H117.36a4.36,4.36,0,0,0-3.17.95,5.45,5.45,0,0,0-1.48,3.6l-2.65,11.43h29.85Z"/><path class="cls-1" d="M156.74,272c.67-1.54,1.24-3.2,1.91-5.22a52,52,0,0,0,1.91-7l11.12-51.5c.67-3.21,1.12-5.58,1.34-7s.23-3.08.23-5.22h15.5l-13.82,63.73q-1,4.63-1.34,7.13a26.34,26.34,0,0,0-.34,5.1Z"/><path class="cls-1" d="M335.36,230.56c-1.59-.11-3.18-.22-5-.22h-7.09a5.15,5.15,0,0,0-3.17.85,5.67,5.67,0,0,0-1.8,3.28L312.39,261a40.17,40.17,0,0,0-1.48,9.74V272H295.45c.63-1.59,1.27-3.08,1.69-4.55s1-3.5,1.7-6.36l6.35-27.94c.74-2.76,1.06-4.87,1.38-6.46a31.58,31.58,0,0,0,.21-4.45h13l-.53,5.08a9.1,9.1,0,0,1,3.28-3.81,10.57,10.57,0,0,1,5.61-1.27h12.71l3.06,5.5a12.26,12.26,0,0,0-1.8,2c-.73.95-1.26,1.37-1.58,1.37C338.64,230.88,336.94,230.66,335.36,230.56Z"/><path class="cls-1" d="M266.86,272c.63-1.38,1.16-2.86,1.79-4.66a43.46,43.46,0,0,0,1.8-6.25l6.46-27.94c.53-2.86.95-5,1.06-6.25a16.19,16.19,0,0,0,.21-3.39v-1.27h14.61L284,261c-.63,2.76-1.06,4.87-1.26,6.36a22.21,22.21,0,0,0-.32,4.55Z"/><path class="cls-1" d="M210.77,204.79a7.17,7.17,0,1,1-7.16-7.17A7.16,7.16,0,0,1,210.77,204.79Z"/><path class="cls-1" d="M240,359.55c-.63,2.53-.54,3.52-.31,4.55H227.9a11.3,11.3,0,0,0,2-4.55l4.32-17.37c.63-2.52.55-3.51.31-4.55H257.4l-.48,5.09a11.46,11.46,0,0,0-4.38-.7h-8.23l-1.54,6.2H250a15,15,0,0,0,4.72-.7l-1.44,5.79a11.72,11.72,0,0,0-4.37-.71h-7.2Z"/><path class="cls-1" d="M267,352.6l-1.73,6.95c-.63,2.53-.55,3.52-.31,4.55H253.17a11.3,11.3,0,0,0,2-4.55l4.32-17.37c.63-2.52.54-3.51.06-4.55h21.75c4.63,0,6.52,1.41,5.41,5.83l-1.21,4.88c-1,3.89-2.92,4.1-5.11,4.26l1.74,7.45a14.82,14.82,0,0,0,1.18,4.05H272l-1.93-11.5Zm1.09-4.38h5.7c1.29,0,1.71-.21,2-1.49l.8-3.22c.32-1.29,0-1.49-1.28-1.49h-5.71Z"/><path class="cls-1" d="M294,357l-2.69,3.64a4.31,4.31,0,0,0-.76,1.57,2.34,2.34,0,0,0,.1,1.9h-7.48a28.77,28.77,0,0,0,4.21-4.8l14.66-20.18-.79-1.49h12L317,360.46a9.69,9.69,0,0,0,1.41,3.64H305.11c.74-1,.87-1.16,1-1.73a5.21,5.21,0,0,0,.12-2l-.6-3.39Zm11-4.39-1.54-8.93-6.27,8.93Z"/><path class="cls-1" d="M329.79,342.18h-.08l-4.27,17.17c-.74,3-.75,3.51-.19,4.75h-6.37c1.17-1.24,1.43-1.78,2.17-4.75l4.22-17c.74-3,.75-3.52.2-4.76h14.18L345,359.22h.12l4.19-16.83c.75-3,.75-3.52.2-4.76h6.36c-1.17,1.24-1.43,1.78-2.17,4.76l-5.41,21.71H335.25Z"/><path class="cls-1" d="M381.06,342.72a9,9,0,0,0-3.88-.7H370c-1.33,0-2.09.41-2.41,1.69L364,358c-.32,1.28.24,1.7,1.56,1.7h5.71c4.05,0,4.79-.29,6.33-1l-2.21,5.37h-16.3c-4.3,0-6.18-2.07-4.76-7.77L357,345.41c1.42-5.71,4.33-7.78,8.63-7.78h15.88Z"/><path class="cls-1" d="M398.79,359.72a14.47,14.47,0,0,0,4.72-.7l-2.17,5.08H378a11.16,11.16,0,0,0,2-4.55l4.33-17.37c.62-2.52.54-3.51.3-4.55h22.91l-.44,5.09a11.82,11.82,0,0,0-4.41-.7h-8.23l-1.55,6.2h7.2a14.87,14.87,0,0,0,4.72-.7l-1.44,5.79a11.68,11.68,0,0,0-4.37-.71h-7.2L390,359.72Z"/></g></svg>