<svg xmlns="http://www.w3.org/2000/svg" width="500" height="500" viewBox="0 0 500 500"><defs><style>.cls-1{fill:#4d4848;}.cls-2{fill:#f47d20;}</style></defs><g id="Nodes"><path class="cls-1" d="M155.42,272c.63-1.38,1.17-2.86,1.8-4.66A44.79,44.79,0,0,0,159,261l6.46-27.94c.53-2.86,1-5,1.06-6.25a16.19,16.19,0,0,0,.21-3.39v-1.27h14.61L172.57,261c-.63,2.76-1,4.87-1.27,6.36A22.21,22.21,0,0,0,171,272Z"/><path class="cls-2" d="M348.82,135.9a17,17,0,0,0-17,17,16.81,16.81,0,0,0,2.06,8.11c-1.7.84-5.64,2.82-11.16,5.69a12.64,12.64,0,1,0-22.27,11.93c-2.84,1.56-5.79,3.21-8.81,4.92a9.93,9.93,0,0,0-17.16,10q-4.69,2.79-9.43,5.72a7.26,7.26,0,0,0-11.95,5.54,7.08,7.08,0,0,0,.25,1.86A342.1,342.1,0,0,0,218.64,232c-11.48-25.68-28.41-53.87-52-76.82l-.07-.06c-2.76-2.72-5-1.52-1.87,1.86l.12.13c20,21.53,35.72,52.68,46.43,81.09-40.63,34.69-85.42,101.91-36.33,123,7.15,3.08,10.41-2.8,7.33-4.61-.55-.33-22.42-12.14-8.52-48.45h35a3.4,3.4,0,0,0,0-6.79H176.65a136.82,136.82,0,0,1,6.93-12.84h25.15a3.4,3.4,0,1,0,0-6.79H187.9c2.6-3.89,5.51-7.95,8.79-12.21h12a3.4,3.4,0,1,0,0-6.79h-6.66c3.8-4.64,8-9.49,12.64-14.57l.12-.13c9.22,26.72,13.67,49.5,12.7,57.09a7.93,7.93,0,0,1-4.27,6.38c-1.72.81-2.43,3.18.27,4,8.59,2.53,13.88-6,14.84-12.85s-3.75-32.19-16.16-62.34a316.22,316.22,0,0,1,34.54-29.2,7.26,7.26,0,0,0,10.74-7.71c3.24-2.26,6.47-4.46,9.66-6.58A9.92,9.92,0,0,0,293,186.61c3.19-2,6.28-3.86,9.24-5.64a12.65,12.65,0,0,0,21.29-12.28c5.4-3,9.34-5.13,11.27-6.23a17,17,0,1,0,14-26.56Z"/><path class="cls-1" d="M119,272H75.69c-4.34,0-7.3-.95-8.9-3a8,8,0,0,1-1.27-4.76,23,23,0,0,1,.74-5.4l5.41-23.5c1.16-4.76,2.85-8.15,5.18-10.17s5.72-3,10.17-3h32c4.55,0,7.51,1,9,3a7.47,7.47,0,0,1,1.38,4.88,20.37,20.37,0,0,1-.74,5.29l-3.5,15.57H81.61L79.28,261a13.87,13.87,0,0,0-.31,2.44c0,.53,0,.95.21,1.16.32.64,1.27,1,2.76,1h31.75a38.76,38.76,0,0,0,8.26-.84ZM115.6,233.1a8.38,8.38,0,0,0,.42-2.54,3.07,3.07,0,0,0-.21-1.06c-.43-.64-1.48-.95-3-.95H90.4a4.38,4.38,0,0,0-3.18.95,5.5,5.5,0,0,0-1.48,3.6L83.1,244.53H113Z"/><path class="cls-1" d="M129.78,272c.67-1.54,1.23-3.2,1.91-5.22a53.53,53.53,0,0,0,1.91-7l11.12-51.5c.67-3.21,1.12-5.58,1.34-7s.23-3.08.23-5.22h15.49L148,259.72q-1,4.63-1.35,7.13a27.12,27.12,0,0,0-.33,5.1Z"/><path class="cls-1" d="M308.4,230.56c-1.6-.11-3.18-.22-5-.22h-7.09a5.2,5.2,0,0,0-3.18.85,5.78,5.78,0,0,0-1.8,3.28L285.42,261a40.68,40.68,0,0,0-1.48,9.74V272H268.49c.63-1.59,1.27-3.08,1.69-4.55s.95-3.5,1.69-6.36l6.35-27.94c.75-2.76,1.06-4.87,1.39-6.46a31.58,31.58,0,0,0,.21-4.45h13l-.53,5.08a9,9,0,0,1,3.28-3.81,10.52,10.52,0,0,1,5.61-1.27h12.7l3.07,5.5a12.26,12.26,0,0,0-1.8,2c-.74.95-1.27,1.37-1.58,1.37C311.68,230.88,310,230.66,308.4,230.56Z"/><path class="cls-1" d="M239.9,272c.62-1.38,1.15-2.86,1.79-4.66a44.79,44.79,0,0,0,1.8-6.25L250,233.1c.53-2.86,1-5,1.05-6.25a15.47,15.47,0,0,0,.22-3.39v-1.27h14.6L257,261c-.63,2.76-1.06,4.87-1.27,6.36a22.21,22.21,0,0,0-.32,4.55Z"/><path class="cls-1" d="M183.81,204.79a7.17,7.17,0,1,1-7.16-7.17A7.17,7.17,0,0,1,183.81,204.79Z"/><path class="cls-1" d="M234.09,348.22a7.63,7.63,0,0,0-2.27,4.14l-1.63,6.53c-.81,3.27-.78,3.81-.22,5.21h-8.89l.27-2.44h-.08c-.83,1.53-1.43,2.44-4.29,2.44h-8.93c-4.3,0-6.19-2.07-4.77-7.77L206,345.41c1.42-5.71,4.34-7.78,8.64-7.78H234l-.48,5.09a9,9,0,0,0-3.88-.7H218.92c-1.32,0-2.09.41-2.4,1.69L213,358c-.32,1.28.24,1.7,1.57,1.7h3.39c1.32,0,2.09-.42,2.41-1.7l1.34-5.42H217.9a4.16,4.16,0,0,0-1.82.5l1.22-4.88Z"/><path class="cls-1" d="M253.1,359.72a14.47,14.47,0,0,0,4.72-.7l-2.17,5.08H232.32a11.16,11.16,0,0,0,2-4.55l4.33-17.37c.62-2.52.54-3.51.3-4.55h22.91l-.44,5.09A11.82,11.82,0,0,0,257,342h-8.23l-1.55,6.2h7.2a14.87,14.87,0,0,0,4.72-.7l-1.44,5.79a11.68,11.68,0,0,0-4.37-.71h-7.2l-1.77,7.12Z"/><path class="cls-1" d="M272.16,352.6l-1.73,6.95c-.63,2.53-.55,3.52-.31,4.55H258.38a11.3,11.3,0,0,0,2-4.55l4.32-17.37c.63-2.52.54-3.51.06-4.55h21.75c4.63,0,6.52,1.41,5.41,5.83l-1.21,4.88c-1,3.89-2.92,4.1-5.11,4.26l1.74,7.45a14.82,14.82,0,0,0,1.18,4.05H277.19l-1.93-11.5Zm1.09-4.38H279c1.29,0,1.71-.21,2-1.49l.8-3.22c.32-1.29,0-1.49-1.28-1.49h-5.71Z"/><path class="cls-1" d="M321.46,337.63H335a10.7,10.7,0,0,0-2,4.55l-4.32,17.37c-.63,2.53-.55,3.52-.27,4.55H316.6a11,11,0,0,0,2-4.55l4.06-16.29h-.08L310,364.1h-7l-1.93-20.84H301l-4,16.09c-.74,3-.75,3.51-.19,4.75h-6.37c1.17-1.24,1.43-1.78,2.17-4.75l4.22-17c.74-3,.75-3.52.19-4.76H311l1.31,15h.08Z"/><path class="cls-1" d="M339.79,357l-2.68,3.64a4.31,4.31,0,0,0-.76,1.57,2.34,2.34,0,0,0,.1,1.9H329a29.23,29.23,0,0,0,4.21-4.8l14.66-20.18-.79-1.49H359l3.75,22.83a9.69,9.69,0,0,0,1.41,3.64H350.89a4.28,4.28,0,0,0,1-1.73,5.42,5.42,0,0,0,.12-2l-.6-3.39Zm11-4.39-1.54-8.93L343,352.6Z"/><path class="cls-1" d="M375.57,342.18h-.08l-4.27,17.17c-.75,3-.76,3.51-.2,4.75h-6.36c1.17-1.24,1.43-1.78,2.17-4.75l4.22-17c.74-3,.75-3.52.19-4.76h14.19l5.38,21.59h.12l4.19-16.83c.74-3,.75-3.52.19-4.76h6.37c-1.18,1.24-1.43,1.78-2.17,4.76L394.1,364.1H381Z"/><path class="cls-1" d="M408.87,353.76l-5.14-12.9a9.55,9.55,0,0,0-1.72-3.23h13.61a3.36,3.36,0,0,0-.37.83,5.71,5.71,0,0,0,.61,3l2.81,7.15,6.37-7.32a8.33,8.33,0,0,0,1.91-3.68h7.53a16.23,16.23,0,0,0-4.49,3.89L418.83,354.3l-1.31,5.25c-.63,2.53-.54,3.52-.3,4.55H405.47a11.16,11.16,0,0,0,2-4.55Z"/></g></svg>