<svg xmlns="http://www.w3.org/2000/svg" width="500" height="500" viewBox="0 0 500 500"><defs><style>.cls-1{fill:#4d4848;}.cls-2{fill:#f47d20;}</style></defs><g id="Nodes"><path class="cls-1" d="M160.51,251.27c.63-1.37,1.16-2.85,1.8-4.66a46.45,46.45,0,0,0,1.8-6.24l6.46-28c.53-2.86.94-5,1.06-6.25a16.14,16.14,0,0,0,.21-3.38v-1.27h14.61l-8.79,38.85q-1,4.13-1.27,6.35a22.31,22.31,0,0,0-.32,4.55Z"/><path class="cls-2" d="M353.91,115.22A17,17,0,0,0,339,140.33c-1.69.85-5.63,2.82-11.15,5.69A12.65,12.65,0,1,0,305.54,158c-2.83,1.57-5.78,3.21-8.8,4.92a9.93,9.93,0,0,0-17.16,10q-4.69,2.8-9.44,5.72A7.25,7.25,0,0,0,258.45,186a339.07,339.07,0,0,0-34.72,25.32c-11.48-25.68-28.42-53.87-52-76.82l-.06-.07c-2.76-2.72-5.05-1.52-1.88,1.87l.12.13c20,21.52,35.72,52.67,46.43,81.08-40.62,34.69-85.41,101.91-36.32,123,7.15,3.07,10.4-2.81,7.33-4.62-.56-.32-22.42-12.14-8.52-48.45h35a3.39,3.39,0,1,0,0-6.78H181.74a137.77,137.77,0,0,1,6.92-12.85h25.16a3.4,3.4,0,0,0,0-6.79H193q3.88-5.82,8.78-12.21h12a3.4,3.4,0,0,0,0-6.79h-6.66c3.8-4.64,8-9.49,12.63-14.56l.12-.14c9.23,26.72,13.68,49.5,12.7,57.1a7.93,7.93,0,0,1-4.27,6.37c-1.72.81-2.42,3.19.27,4,8.6,2.53,13.89-6,14.84-12.85s-3.74-32.19-16.15-62.33a315.18,315.18,0,0,1,34.54-29.21,7.16,7.16,0,0,0,3.62,1,7.26,7.26,0,0,0,7.26-7.26,7.46,7.46,0,0,0-.14-1.43c3.24-2.26,6.47-4.46,9.66-6.58a9.92,9.92,0,0,0,15.83-10.16c3.18-2,6.27-3.86,9.24-5.64a12.65,12.65,0,0,0,21.8-8.73,12.89,12.89,0,0,0-.51-3.54c5.4-3,9.34-5.14,11.26-6.23a17,17,0,1,0,14.05-26.57Z"/><path class="cls-1" d="M124.07,251.27H80.77c-4.34,0-7.3-1-8.89-3a8,8,0,0,1-1.27-4.77,22.47,22.47,0,0,1,.74-5.4l5.4-23.5c1.16-4.76,2.86-8.15,5.19-10.16s5.72-3,10.16-3h32c4.55,0,7.52.95,9,3a7.42,7.42,0,0,1,1.38,4.87,20.37,20.37,0,0,1-.74,5.29l-3.5,15.57H86.7l-2.33,10.16a13.79,13.79,0,0,0-.31,2.43c0,.53,0,1,.21,1.16.31.64,1.27,1,2.75,1h31.76a38.76,38.76,0,0,0,8.26-.84Zm-3.39-38.85a8.39,8.39,0,0,0,.43-2.54,3.32,3.32,0,0,0-.21-1.06c-.43-.63-1.48-.95-3-.95H95.49a4.43,4.43,0,0,0-3.18.95,5.5,5.5,0,0,0-1.48,3.6l-2.65,11.43H118Z"/><path class="cls-1" d="M134.86,251.27c.68-1.54,1.24-3.2,1.91-5.22a52,52,0,0,0,1.91-7l11.12-51.5c.68-3.21,1.12-5.58,1.35-7s.22-3.09.22-5.23h15.5L153.06,239c-.67,3.09-1.13,5.47-1.35,7.13a26.34,26.34,0,0,0-.34,5.1Z"/><path class="cls-1" d="M313.48,209.88c-1.59-.11-3.17-.21-5-.21h-7.1a5.17,5.17,0,0,0-3.17.84,5.7,5.7,0,0,0-1.8,3.28l-5.93,26.58a40.11,40.11,0,0,0-1.48,9.74v1.16H273.57c.64-1.59,1.27-3.07,1.7-4.55s1-3.5,1.69-6.35l6.35-28c.74-2.75,1.06-4.87,1.38-6.46a31.44,31.44,0,0,0,.21-4.44h13l-.53,5.08a9.05,9.05,0,0,1,3.29-3.81,10.41,10.41,0,0,1,5.6-1.27H319l3.07,5.5a11.72,11.72,0,0,0-1.8,2c-.74.95-1.27,1.38-1.59,1.38C316.77,210.2,315.07,210,313.48,209.88Z"/><path class="cls-1" d="M245,251.27c.63-1.37,1.16-2.85,1.8-4.66a45.12,45.12,0,0,0,1.79-6.24l6.47-28c.53-2.86,1-5,1-6.25a15.42,15.42,0,0,0,.22-3.38v-1.27h14.6l-8.78,38.85q-1,4.13-1.27,6.35a22.31,22.31,0,0,0-.32,4.55Z"/><path class="cls-1" d="M188.9,184.12a7.17,7.17,0,1,1-7.17-7.17A7.17,7.17,0,0,1,188.9,184.12Z"/><path class="cls-1" d="M235.12,322a8.94,8.94,0,0,0-3.87-.7H224c-1.32,0-2.09.41-2.41,1.7L218,337.35c-.32,1.28.24,1.69,1.56,1.69h5.71c4.05,0,4.79-.29,6.33-1l-2.21,5.37H213.14c-4.31,0-6.19-2.06-4.77-7.77l2.72-10.92c1.42-5.71,4.33-7.77,8.63-7.77h15.89Z"/><path class="cls-1" d="M230.88,343.42,250,321.34h-8a8.11,8.11,0,0,0-4,.83l2-5.21h25.35L246.24,339h8a9,9,0,0,0,4.06-.54l-1.84,4.92Z"/><path class="cls-1" d="M281.18,339a14.47,14.47,0,0,0,4.72-.7l-2.17,5.08H260.4a11.17,11.17,0,0,0,2-4.54l4.33-17.37c.62-2.53.54-3.52.3-4.55H289.9l-.44,5.08a11.82,11.82,0,0,0-4.41-.7h-8.23l-1.55,6.2h7.2a14.87,14.87,0,0,0,4.72-.7l-1.44,5.79a11.77,11.77,0,0,0-4.37-.7h-7.2L272.41,339Z"/><path class="cls-1" d="M315.56,322a9,9,0,0,0-3.88-.7h-7.24c-1.32,0-2.09.41-2.41,1.7l-3.56,14.31c-.32,1.28.24,1.69,1.57,1.69h5.7c4.06,0,4.79-.29,6.33-1l-2.21,5.37H293.57c-4.3,0-6.19-2.06-4.77-7.77l2.72-10.92c1.42-5.71,4.34-7.77,8.64-7.77H316Z"/><path class="cls-1" d="M334.91,327.54l1.5-6c.63-2.53.54-3.52.3-4.55h11.75a11.3,11.3,0,0,0-2,4.55l-4.32,17.37c-.63,2.52-.55,3.51-.31,4.54H330.13a11.31,11.31,0,0,0,2-4.54l1.73-6.95h-7.53l-1.73,6.95c-.63,2.52-.55,3.51-.31,4.54H312.51a11.31,11.31,0,0,0,2-4.54l4.32-17.37c.63-2.53.54-3.52.31-4.55h11.74a11.3,11.3,0,0,0-2,4.55l-1.5,6Z"/><path class="cls-1" d="M219.8,373.28l-1.73,7c-.62,2.52-.54,3.52-.3,4.55H206a11.23,11.23,0,0,0,2-4.55l4.33-17.37c.62-2.52.54-3.52.05-4.55h21.76c4.63,0,6.51,1.41,5.41,5.83L238.32,369c-1,3.89-2.93,4.1-5.12,4.26l1.75,7.45a14.48,14.48,0,0,0,1.18,4H224.84l-1.94-11.5Zm1.09-4.38h5.71c1.28,0,1.71-.21,2-1.49l.8-3.23c.32-1.28,0-1.49-1.29-1.49h-5.7Z"/><path class="cls-1" d="M259,380.4a14.53,14.53,0,0,0,4.73-.71l-2.18,5.09H238.2a11.37,11.37,0,0,0,2-4.55l4.32-17.37c.63-2.52.54-3.52.3-4.55H267.7l-.44,5.09a11.87,11.87,0,0,0-4.42-.71h-8.23l-1.54,6.21h7.19a14.66,14.66,0,0,0,4.73-.71L263.55,374a11.84,11.84,0,0,0-4.38-.7H252l-1.77,7.12Z"/><path class="cls-1" d="M276.3,380.23a8.73,8.73,0,0,0-.31,4.55H264.25a11.37,11.37,0,0,0,2-4.55l4.32-17.37c.63-2.52.55-3.52.06-4.55h21.67c3.93,0,6.43,1.08,5.09,6.45l-1,4.14c-1.33,5.37-4.37,6.45-8.3,6.45H277.51Zm2.31-9.26h5.29c1.44,0,1.92-.42,2.38-2.28l.93-3.72c.46-1.86.21-2.32-1.25-2.28h-5.3Z"/><path class="cls-1" d="M317.32,380.4c2.82,0,3.09-.29,3.68-2.65l3.66-14.68c.74-3,.75-3.52.19-4.76h6.37c-1.18,1.24-1.44,1.78-2.18,4.76l-3.37,13.52c-1.5,6-3.69,8.19-9.44,8.19h-13.4c-5.17,0-6.66-2.65-5.28-8.19L301,362.86c.63-2.52.54-3.52.3-4.55H313a11.37,11.37,0,0,0-2,4.55l-3.75,15.05c-.43,1.74.13,2.49,1.91,2.49Z"/><path class="cls-1" d="M333.35,362.86c.63-2.52.54-3.52.3-4.55h21.67c5.59,0,6.31,2.23,5.51,5.46l-.75,3c-.83,3.35-3.05,3.93-6.8,4.22l0,.08c4.25.54,5.49,1,4.79,3.85L357,379.32c-.8,3.23-2.64,5.46-8.22,5.46H327.07a11.37,11.37,0,0,0,2-4.55Zm5.73,17.54H345c1.28,0,1.7-.21,2-1.49l1-4.14c.32-1.28,0-1.49-1.28-1.49h-5.87Zm2.86-11.5h5.87c1.28,0,1.71-.21,2-1.49l.81-3.23c.32-1.28,0-1.49-1.29-1.49h-5.87Z"/><path class="cls-1" d="M379.31,380.4a10.94,10.94,0,0,0,4.56-.87l-2.17,5.25H358.87a11.37,11.37,0,0,0,2-4.55l4.32-17.37c.63-2.52.54-3.52.3-4.55H377.2a11.37,11.37,0,0,0-2,4.55l-4.36,17.54Z"/><path class="cls-1" d="M384.46,384.78a11.09,11.09,0,0,0,2-4.55l4.33-17.37c.63-2.52.54-3.52.3-4.55H402.8a11.23,11.23,0,0,0-2,4.55l-4.32,17.37c-.63,2.52-.55,3.52-.31,4.55Z"/><path class="cls-1" d="M428.91,363.4a8.82,8.82,0,0,0-3.88-.71h-7.24c-1.32,0-2.08.42-2.4,1.7l-3.57,14.31c-.31,1.28.24,1.7,1.57,1.7h5.7c4.06,0,4.79-.29,6.33-1l-2.21,5.38H406.92c-4.3,0-6.19-2.07-4.76-7.78l2.71-10.91c1.42-5.71,4.34-7.78,8.64-7.78h15.88Z"/></g></svg>