<?xml version="1.0" encoding="UTF-8" standalone="no"?>
<!-- Created with Inkscape (http://www.inkscape.org/) -->

<svg
   version="1.1"
   id="svg85"
   width="4981.0586"
   height="4278.5132"
   viewBox="0 0 4981.0586 4278.5132"
   sodipodi:docname="gtn-heart.svg"
   inkscape:version="1.2.2 (b0a8486541, 2022-12-01)"
   inkscape:export-filename="gtn-heart.png"
   inkscape:export-xdpi="4.9400001"
   inkscape:export-ydpi="4.9400001"
   xmlns:inkscape="http://www.inkscape.org/namespaces/inkscape"
   xmlns:sodipodi="http://sodipodi.sourceforge.net/DTD/sodipodi-0.dtd"
   xmlns="http://www.w3.org/2000/svg"
   xmlns:svg="http://www.w3.org/2000/svg">
  <defs
     id="defs89">
    <clipPath
       clipPathUnits="userSpaceOnUse"
       id="clipPath479">
      <path
         id="path481"
         style="fill:#474747;fill-opacity:0.330465;stroke-width:9.89653;stroke-linecap:round;stroke-linejoin:bevel"
         d="m 725.37848,527.99613 a 1261.8205,1261.8205 0 0 0 0.002,1784.48417 L 2841.382,4428.482 4625.8663,2643.9978 4957.3838,2312.4802 a 1261.8205,1261.8205 0 0 0 0,-1784.48407 1261.8205,1261.8205 0 0 0 -1784.4824,-10e-5 L 2841.3838,859.51352 2509.8664,527.99613 a 1261.8205,1261.8205 0 0 0 -1784.48612,0 z" />
    </clipPath>
  </defs>
  <sodipodi:namedview
     id="namedview87"
     pagecolor="#ffffff"
     bordercolor="#000000"
     borderopacity="0.25"
     inkscape:showpageshadow="2"
     inkscape:pageopacity="0.0"
     inkscape:pagecheckerboard="0"
     inkscape:deskcolor="#d1d1d1"
     showgrid="false"
     inkscape:zoom="0.11188517"
     inkscape:cx="3660.0025"
     inkscape:cy="1693.7008"
     inkscape:window-width="1912"
     inkscape:window-height="1032"
     inkscape:window-x="4"
     inkscape:window-y="44"
     inkscape:window-maximized="1"
     inkscape:current-layer="g91">
    <inkscape:grid
       type="xygrid"
       id="grid1819"
       originx="-350.8523"
       originy="-518.43508" />
  </sodipodi:namedview>
  <g
     inkscape:groupmode="layer"
     inkscape:label="Image"
     id="g91"
     transform="translate(-350.8523,-518.43508)">
    <g
       id="g1809"
       clip-path="url(#clipPath479)"
       transform="translate(0,364.96711)">
      <circle
         style="fill:#a9a9a9;fill-opacity:1;stroke-width:7.55906;stroke-linecap:round;stroke-linejoin:bevel"
         id="path1660"
         cx="2491.7803"
         cy="2172.5"
         r="4183.7954" />
      <path
         id="path447"
         style="fill:#fccba1;fill-opacity:1;stroke-width:7.55906;stroke-linecap:round;stroke-linejoin:bevel"
         d="M 7260.078,140.92416 6564.3965,3920.5341 3012.3741,2797.1568 2996.814,1569.419 Z"
         sodipodi:nodetypes="ccccc" />
      <path
         id="path445"
         style="fill:#d4fdd5;fill-opacity:1;stroke-width:7.55906;stroke-linecap:round;stroke-linejoin:bevel"
         d="M 2271.0955,-2701.5588 5636.8942,-846.6133 3448.1439,2168.0529 2278.4609,1794.6578 Z"
         sodipodi:nodetypes="ccccc" />
      <path
         id="path445-3"
         style="fill:#d0e1f4;fill-opacity:1;stroke-width:7.55906;stroke-linecap:round;stroke-linejoin:bevel"
         d="m 6066.3747,5831.4576 -3800.5442,482.0996 49.9713,-3725.0963 1151.998,-426.2573 z"
         sodipodi:nodetypes="ccccc" />
      <path
         id="rect346"
         style="fill:#fff8aa;stroke-width:7.55906;stroke-linecap:round;stroke-linejoin:bevel"
         d="M -1989.0521,1182.2938 816.99816,-1443.6357 3005.686,1571.0758 2288.43,2567.6328 Z"
         sodipodi:nodetypes="ccccc" />
      <path
         id="rect346-6"
         style="fill:#ebe6f0;fill-opacity:1;stroke-width:7.55906;stroke-linecap:round;stroke-linejoin:bevel"
         d="M 223.93468,6402.6458 -1252.9857,2854.6703 2337.3097,1860.3768 3019.5641,2881.2151 Z"
         sodipodi:nodetypes="ccccc" />
      <path
         sodipodi:type="star"
         style="fill:#ff9300;fill-opacity:1;stroke:#ff9300;stroke-opacity:1"
         id="path1687"
         inkscape:flatsided="false"
         sodipodi:sides="5"
         sodipodi:cx="2123.4976"
         sodipodi:cy="2167.7371"
         sodipodi:r1="1719.9625"
         sodipodi:r2="656.25909"
         sodipodi:arg1="-0.61042494"
         sodipodi:arg2="0.016406788"
         inkscape:rounded="0"
         inkscape:randomized="0"
         d="m 3532.8426,1181.8275 -753.1743,996.6762 716.9965,1024.9374 -1180.639,-408.3215 -753.2092,998.6273 23.4992,-1249.0327 L 403.81038,2136.9624 1598.9727,1773.3392 1621.3534,522.70747 2336.5051,1547.0086 Z"
         inkscape:transform-center-x="160.06776"
         inkscape:transform-center-y="1.5599562"
         transform="matrix(0.98340892,-0.02053408,0.02053408,0.98340892,669.85967,82.77091)" />
      <path
         id="path1831"
         style="fill:#d0e1f4;fill-opacity:1;stroke:#d0e1f4;stroke-opacity:1"
         d="m 2285.8416,3779.8301 1.6914,503.7207 c 56.4693,13.6227 107.7919,19.7082 165.1758,28.7325 93.3993,12.2957 187.5038,18.4633 281.709,18.4628 94.2052,5e-4 188.3097,-6.1671 281.709,-18.4628 93.3986,-12.2962 185.8921,-30.6943 276.8867,-55.0762 90.9956,-24.3825 180.2975,-54.6968 267.332,-90.7481 87.0343,-36.0504 171.6151,-77.7609 253.1993,-124.8632 81.5838,-47.1023 159.9965,-99.4957 234.7343,-156.8438 74.7379,-57.3486 145.641,-119.5292 212.2539,-186.1426 59.5292,-60.3166 115.9113,-121.9761 167.9414,-188.8691 L 4173.6092,3161.043 3004.8553,2783.959 Z" />
      <path
         id="path1866"
         style="fill:#ebe6f0;fill-opacity:1;stroke:#ebe6f0;stroke-opacity:1"
         d="m 1112.793,2176.6104 -478.54415,157.2669 c 4.49402,57.9151 14.56592,108.6063 23.7159,165.9703 17.16807,92.6276 40.38222,184.0322 69.4937,273.6265 29.11053,89.5946 64.05616,177.1874 104.61204,262.2159 40.55613,85.0276 86.63583,167.3088 137.94327,246.3154 51.30834,79.0073 107.73474,154.5709 168.91664,226.2051 61.1811,71.6344 126.987,139.1862 196.9949,202.222 70.0077,63.0354 144.0676,121.4199 221.7042,174.7782 77.637,53.3583 158.6845,101.5763 242.6222,144.3442 75.76,37.9768 151.8247,72.5455 231.5219,101.358 l 252.8732,-350.1446 -2.5367,-1228.0763 z" />
      <path
         id="path1868"
         style="fill:#fff8aa;fill-opacity:1;stroke:#fff8aa;stroke-opacity:1"
         d="m 2275.0536,565.55266 -297.448,-406.5245 c -53.6918,22.1708 -98.7896,47.4142 -150.5185,73.8428 -82.7888,44.9513 -162.5462,95.2749 -238.7595,150.6477 -76.2139,55.372 -148.7208,115.675 -217.0552,180.5211 -68.3336,64.8462 -132.3482,134.0969 -191.6331,207.30754 -59.2853,73.2117 -113.7138,150.2269 -162.9357,230.5507 -49.22237,80.3229 -93.13281,163.7827 -131.44979,249.8433 -38.31666,86.0603 -70.95785,174.5372 -97.71358,264.8626 -26.7556,90.3258 -47.56859,182.3068 -62.30511,275.3523 -12.70695,83.7875 -22.07846,166.8116 -24.85298,251.5117 l 411.14946,132.2961 1167.186,-381.909 z" />
      <path
         id="path1870"
         style="fill:#d4fdd5;fill-opacity:1;stroke:#d4fdd5;stroke-opacity:1"
         d="m 4166.4188,1173.0841 294.7113,-408.51289 c -37.6774,-44.21278 -75.6213,-79.3027 -116.7415,-120.33292 -68.3344,-64.84611 -140.8413,-125.14906 -217.0552,-180.52108 -76.2133,-55.37284 -155.9707,-105.69635 -238.7595,-150.64768 -82.7887,-44.95054 -168.4316,-84.4324 -256.3791,-118.19236 -87.9486,-33.75992 -178.0138,-61.72558 -269.6166,-83.71698 -91.6021,-21.992164 -184.5462,-37.962934 -278.2353,-47.810384 -93.6887,-9.84714 -187.9219,-13.5499 -282.0945,-11.08409 -94.1729,2.46612 -188.0835,11.09556 -281.1289,25.83287 -83.6133,13.80678 -165.4699,30.549824 -246.8818,54.084884 l 1.231,431.90806 723.8974,992.04347 z" />
      <path
         id="path1872"
         style="fill:#fccba1;fill-opacity:1;stroke:#fccba1;stroke-opacity:1"
         d="m 4173.0862,3159.6167 479.5896,154.0496 c 30.4058,-49.4958 52.0531,-96.426 78.3683,-148.2126 40.5558,-85.0285 75.5014,-172.6212 104.612,-262.2159 29.1115,-89.5943 52.3256,-180.9989 69.4937,-273.6264 17.1674,-92.6273 28.2517,-186.2791 33.1821,-280.3545 4.93,-94.0765 3.6953,-188.3755 -3.6965,-282.2906 -7.3909,-93.9147 -20.923,-187.2451 -40.509,-279.3917 -19.5863,-92.1462 -45.1844,-182.9115 -76.6305,-271.713 -31.4465,-88.8017 -68.6735,-175.4493 -111.4421,-259.3867 -38.969,-75.2544 -80.1876,-147.9308 -127.7285,-218.0854 l -410.3886,134.6377 -719.7928,995.0257 z" />
    </g>
    <path
       id="path477"
       style="fill:none;fill-opacity:0.330465;stroke:#000000;stroke-width:30;stroke-linecap:round;stroke-linejoin:bevel;stroke-opacity:1;stroke-dasharray:none"
       d="m 725.37848,892.96324 a 1261.8205,1261.8205 0 0 0 0.002,1784.48416 L 2841.382,4793.4491 4625.8663,3008.9649 4957.3838,2677.4473 a 1261.8205,1261.8205 0 0 0 0,-1784.48406 1261.8205,1261.8205 0 0 0 -1784.4824,-1e-4 L 2841.3838,1224.4806 2509.8664,892.96324 a 1261.8205,1261.8205 0 0 0 -1784.48612,0 z" />
  </g>
</svg>
