<?xml version="1.0" encoding="UTF-8" standalone="no"?>
<svg
   version="1.1"
   viewBox="0 0 360 470"
   fill="none"
   stroke="none"
   stroke-linecap="square"
   stroke-miterlimit="10"
   id="svg901"
   sodipodi:docname="join_on_column.svg"
   width="360"
   height="470"
   inkscape:version="1.1 (c4e8f9e, 2021-05-24)"
   xmlns:inkscape="http://www.inkscape.org/namespaces/inkscape"
   xmlns:sodipodi="http://sodipodi.sourceforge.net/DTD/sodipodi-0.dtd"
   xmlns="http://www.w3.org/2000/svg"
   xmlns:svg="http://www.w3.org/2000/svg">
  <defs
     id="defs905" />
  <sodipodi:namedview
     id="namedview903"
     pagecolor="#ffffff"
     bordercolor="#666666"
     borderopacity="1.0"
     inkscape:pageshadow="2"
     inkscape:pageopacity="0.0"
     inkscape:pagecheckerboard="0"
     showgrid="false"
     fit-margin-right="-600"
     fit-margin-top="0"
     fit-margin-left="0"
     fit-margin-bottom="-130"
     inkscape:zoom="0.72124892"
     inkscape:cx="287.69541"
     inkscape:cy="285.61568"
     inkscape:window-width="1296"
     inkscape:window-height="792"
     inkscape:window-x="0"
     inkscape:window-y="25"
     inkscape:window-maximized="0"
     inkscape:current-layer="svg901" />
  <clipPath
     id="p.0">
    <path
       d="M 0,0 H 960 V 600 H 0 Z"
       clip-rule="nonzero"
       id="path620" />
  </clipPath>
  <g
     clip-path="url(#p.0)"
     id="g899">
    <path
       fill="#000000"
       fill-opacity="0"
       d="M 0,0 H 960 V 600 H 0 Z"
       fill-rule="evenodd"
       id="path623" />
    <path
       fill="#000000"
       fill-opacity="0"
       d="m 88.72179,212.65092 c 45.58369,0 71.51056,-34.28302 91.16739,-65.84383 19.65683,-31.56079 33.04361,-60.39936 56.25882,-65.8438 23.2152,-5.44445 56.25883,12.505226 56.25883,25.01046"
       fill-rule="evenodd"
       id="path625" />
    <path
       stroke="#000000"
       stroke-width="1"
       stroke-linejoin="round"
       stroke-linecap="butt"
       d="m 88.72179,212.65092 c 45.58369,0 71.51056,-34.28302 91.16739,-65.84381 19.65681,-31.56081 33.04361,-60.399376 56.25884,-65.84383 11.6076,-2.722214 25.6723,0.404091 36.83511,5.774101 5.58139,2.685013 10.43732,5.930947 13.89792,9.287209 1.73025,1.678131 3.11172,3.38385 4.06061,5.06081 0.23721,0.41925 0.44738,0.8367 0.62924,1.25145 l 0.12039,0.28534"
       fill-rule="evenodd"
       id="path627" />
    <path
       fill="#000000"
       stroke="#000000"
       stroke-width="1"
       stroke-linecap="butt"
       d="m 291.69128,102.6222 -1.33459,-0.865 1.7449,2.78687 0.45468,-3.25647 z"
       fill-rule="evenodd"
       id="path629" />
    <path
       fill="#cfe2f3"
       d="m 3.984252,3.4173229 h 42.70866 V 46.094489 H 3.984252 Z"
       fill-rule="evenodd"
       id="path631" />
    <path
       stroke="#000000"
       stroke-width="1"
       stroke-linejoin="round"
       stroke-linecap="butt"
       d="m 3.984252,3.4173229 h 42.70866 V 46.094489 H 3.984252 Z"
       fill-rule="evenodd"
       id="path633" />
    <path
       fill="#000000"
       d="m 21.725828,31.675903 v -2.21875 h 2.5625 v -6.84375 h -2.21875 v -1.703125 q 0.96875,-0.1875 1.640625,-0.4375 0.671875,-0.265625 1.3125,-0.640625 h 2.015625 v 9.625 h 2.21875 v 2.21875 z"
       fill-rule="nonzero"
       id="path635" />
    <path
       fill="#cfe2f3"
       d="m 46.692913,3.4173229 h 42.70866 V 46.094489 h -42.70866 z"
       fill-rule="evenodd"
       id="path637" />
    <path
       stroke="#000000"
       stroke-width="1"
       stroke-linejoin="round"
       stroke-linecap="butt"
       d="m 46.692913,3.4173229 h 42.70866 V 46.094489 h -42.70866 z"
       fill-rule="evenodd"
       id="path639" />
    <path
       fill="#000000"
       d="m 66.99911,25.519653 -0.296875,1.125 h 2.578125 l -0.265625,-1.125 q -0.265625,-0.921875 -0.515625,-1.9375 -0.234375,-1.03125 -0.484375,-1.984375 h -0.0625 q -0.234375,0.96875 -0.46875,1.984375 -0.234375,1.015625 -0.484375,1.9375 z m -4.406254,6.15625 3.796879,-12.15625 h 3.3125 l 3.796875,12.15625 h -2.90625 l -0.75,-2.890625 h -3.703125 l -0.75,2.890625 z"
       fill-rule="nonzero"
       id="path641" />
    <path
       fill="#cfe2f3"
       d="m 3.984252,46.09449 h 42.70866 V 88.771652 H 3.984252 Z"
       fill-rule="evenodd"
       id="path643" />
    <path
       stroke="#000000"
       stroke-width="1"
       stroke-linejoin="round"
       stroke-linecap="butt"
       d="m 3.984252,46.09449 h 42.70866 V 88.771652 H 3.984252 Z"
       fill-rule="evenodd"
       id="path645" />
    <path
       fill="#000000"
       d="m 21.100828,74.35307 v -1.5625 q 1.140625,-1.0625 2.078125,-1.984375 0.953125,-0.9375 1.625,-1.734375 0.6875,-0.8125 1.0625,-1.515625 0.390625,-0.703125 0.390625,-1.34375 0,-0.875 -0.453125,-1.328125 -0.453125,-0.453125 -1.234375,-0.453125 -0.65625,0 -1.15625,0.359375 -0.5,0.359375 -0.953125,0.84375 l -1.484375,-1.46875 q 0.875,-0.937504 1.78125,-1.406254 0.921875,-0.484375 2.1875,-0.484375 0.875,0 1.59375,0.28125 0.71875,0.265625 1.234375,0.765625 0.53125,0.484375 0.8125,1.187504 0.28125,0.6875 0.28125,1.546875 0,0.734375 -0.328125,1.515625 -0.3125,0.78125 -0.84375,1.5625 -0.53125,0.765625 -1.21875,1.546875 -0.671875,0.765625 -1.390625,1.5 0.4375,-0.04687 0.984375,-0.09375 0.5625,-0.04687 0.984375,-0.04687 h 2.390625 v 2.3125 z"
       fill-rule="nonzero"
       id="path647" />
    <path
       fill="#cfe2f3"
       d="m 46.692913,46.09449 h 42.70866 v 42.677162 h -42.70866 z"
       fill-rule="evenodd"
       id="path649" />
    <path
       stroke="#000000"
       stroke-width="1"
       stroke-linejoin="round"
       stroke-linecap="butt"
       d="m 46.692913,46.09449 h 42.70866 v 42.677162 h -42.70866 z"
       fill-rule="evenodd"
       id="path651" />
    <path
       fill="#000000"
       d="M 63.84123,74.35307 V 62.196816 h 4.156254 q 0.953125,0 1.765625,0.140625 0.8125,0.125 1.421875,0.484375 0.609375,0.359375 0.953125,0.9375 0.34375,0.578129 0.34375,1.453129 0,0.40625 -0.125,0.828125 -0.109375,0.40625 -0.3125,0.765625 -0.203125,0.34375 -0.5,0.625 -0.28125,0.28125 -0.65625,0.40625 v 0.07813 q 0.46875,0.109375 0.859375,0.34375 0.390625,0.234375 0.6875,0.59375 0.296875,0.34375 0.46875,0.828125 0.171875,0.46875 0.171875,1.09375 0,0.921875 -0.375,1.59375 -0.359375,0.671875 -1,1.125 -0.640625,0.4375 -1.5,0.65625 -0.859375,0.203125 -1.84375,0.203125 z m 2.734379,-7.296875 h 1.296875 q 1,0 1.453125,-0.390625 0.46875,-0.390625 0.46875,-1.046875 0,-0.703125 -0.46875,-1 -0.46875,-0.296875 -1.4375,-0.296875 h -1.3125 z m 0,5.171875 h 1.5625 q 2.25,0 2.25,-1.640625 0,-0.8125 -0.5625,-1.15625 -0.5625,-0.34375 -1.6875,-0.34375 h -1.5625 z"
       fill-rule="nonzero"
       id="path653" />
    <path
       fill="#cfe2f3"
       d="m 3.984252,88.77165 h 42.70866 v 42.67717 H 3.984252 Z"
       fill-rule="evenodd"
       id="path655" />
    <path
       stroke="#000000"
       stroke-width="1"
       stroke-linejoin="round"
       stroke-linecap="butt"
       d="m 3.984252,88.77165 h 42.70866 v 42.67717 H 3.984252 Z"
       fill-rule="evenodd"
       id="path657" />
    <path
       fill="#000000"
       d="m 24.944578,117.24899 q -1.453125,0 -2.46875,-0.45313 -1,-0.45312 -1.65625,-1.21875 l 1.265625,-1.73437 q 0.546875,0.51562 1.1875,0.85937 0.640625,0.32813 1.40625,0.32813 0.890625,0 1.40625,-0.35938 0.515625,-0.35937 0.515625,-1.03125 0,-0.39062 -0.140625,-0.70312 -0.140625,-0.32813 -0.5,-0.53125 -0.34375,-0.21875 -0.96875,-0.34375 -0.609375,-0.125 -1.578125,-0.125 v -1.9375 q 0.8125,0 1.34375,-0.10938 0.53125,-0.10937 0.84375,-0.32812 0.328125,-0.21875 0.46875,-0.5 0.140625,-0.29688 0.140625,-0.65625 0,-0.60938 -0.375,-0.95313 -0.359375,-0.34375 -1.078125,-0.34375 -0.625,0 -1.140625,0.28125 -0.515625,0.28125 -1.078125,0.76563 l -1.375,-1.6875 q 0.8125,-0.70313 1.71875,-1.10938 0.90625,-0.40625 2.015625,-0.40625 0.90625,0 1.65625,0.21875 0.765625,0.21875 1.296875,0.64063 0.53125,0.42187 0.828125,1.01562 0.296875,0.59375 0.296875,1.375 0,0.9375 -0.515625,1.57813 -0.515625,0.64062 -1.46875,1.0625 v 0.0625 q 1.03125,0.29687 1.6875,1.01562 0.671875,0.71875 0.671875,1.875 0,0.82813 -0.359375,1.46875 -0.34375,0.64063 -0.953125,1.07813 -0.59375,0.4375 -1.40625,0.67187 -0.796875,0.23438 -1.6875,0.23438 z"
       fill-rule="nonzero"
       id="path659" />
    <path
       fill="#cfe2f3"
       d="m 46.692913,88.77165 h 42.70866 v 42.67717 h -42.70866 z"
       fill-rule="evenodd"
       id="path661" />
    <path
       stroke="#000000"
       stroke-width="1"
       stroke-linejoin="round"
       stroke-linecap="butt"
       d="m 46.692913,88.77165 h 42.70866 v 42.67717 h -42.70866 z"
       fill-rule="evenodd"
       id="path663" />
    <path
       fill="#000000"
       d="m 69.1339,117.24899 q -1.15625,0 -2.1875,-0.39063 -1.03125,-0.40625 -1.8125,-1.1875 -0.765625,-0.78125 -1.218754,-1.95312 -0.4375,-1.17188 -0.4375,-2.6875 0,-1.51563 0.46875,-2.70313 0.468754,-1.1875 1.250004,-2 0.78125,-0.82812 1.828125,-1.25 1.046875,-0.4375 2.203125,-0.4375 1.171875,0 2.09375,0.48438 0.9375,0.46875 1.5625,1.10937 l -1.453125,1.75 q -0.46875,-0.4375 -0.984375,-0.70312 -0.515625,-0.26563 -1.171875,-0.26563 -0.609375,0 -1.171875,0.26563 -0.546875,0.26562 -0.953125,0.78125 -0.390625,0.5 -0.625,1.23437 -0.234375,0.71875 -0.234375,1.64063 0,1.875 0.796875,2.92187 0.8125,1.03125 2.15625,1.03125 0.75,0 1.328125,-0.32812 0.59375,-0.32813 1.046875,-0.8125 l 1.453125,1.71875 q -1.53125,1.78125 -3.9375,1.78125 z"
       fill-rule="nonzero"
       id="path665" />
    <path
       fill="#000000"
       fill-opacity="0"
       d="M 4.8162727,171.84776 H 88.721793 v 81.60631 H 4.8162727 Z"
       fill-rule="evenodd"
       id="path667" />
    <path
       fill="#b6d7a8"
       d="m 3.984252,169.979 h 42.70866 v 42.67717 H 3.984252 Z"
       fill-rule="evenodd"
       id="path669" />
    <path
       stroke="#000000"
       stroke-width="1"
       stroke-linejoin="round"
       stroke-linecap="butt"
       d="m 3.984252,169.979 h 42.70866 v 42.67717 H 3.984252 Z"
       fill-rule="evenodd"
       id="path671" />
    <path
       fill="#000000"
       d="m 24.944578,198.45633 q -1.453125,0 -2.46875,-0.45313 -1,-0.45312 -1.65625,-1.21875 l 1.265625,-1.73437 q 0.546875,0.51562 1.1875,0.85937 0.640625,0.32813 1.40625,0.32813 0.890625,0 1.40625,-0.35938 0.515625,-0.35937 0.515625,-1.03125 0,-0.39062 -0.140625,-0.70312 -0.140625,-0.32813 -0.5,-0.53125 -0.34375,-0.21875 -0.96875,-0.34375 -0.609375,-0.125 -1.578125,-0.125 v -1.9375 q 0.8125,0 1.34375,-0.10938 0.53125,-0.10937 0.84375,-0.32812 0.328125,-0.21875 0.46875,-0.5 0.140625,-0.29688 0.140625,-0.65625 0,-0.60938 -0.375,-0.95313 -0.359375,-0.34375 -1.078125,-0.34375 -0.625,0 -1.140625,0.28125 -0.515625,0.28125 -1.078125,0.76563 l -1.375,-1.6875 q 0.8125,-0.70313 1.71875,-1.10938 0.90625,-0.40625 2.015625,-0.40625 0.90625,0 1.65625,0.21875 0.765625,0.21875 1.296875,0.64063 0.53125,0.42187 0.828125,1.01562 0.296875,0.59375 0.296875,1.375 0,0.9375 -0.515625,1.57813 -0.515625,0.64062 -1.46875,1.0625 v 0.0625 q 1.03125,0.29687 1.6875,1.01562 0.671875,0.71875 0.671875,1.875 0,0.82813 -0.359375,1.46875 -0.34375,0.64063 -0.953125,1.07813 -0.59375,0.4375 -1.40625,0.67187 -0.796875,0.23438 -1.6875,0.23438 z"
       fill-rule="nonzero"
       id="path673" />
    <path
       fill="#b6d7a8"
       d="m 46.692913,169.979 h 42.70866 v 42.67717 h -42.70866 z"
       fill-rule="evenodd"
       id="path675" />
    <path
       stroke="#000000"
       stroke-width="1"
       stroke-linejoin="round"
       stroke-linecap="butt"
       d="m 46.692913,169.979 h 42.70866 v 42.67717 h -42.70866 z"
       fill-rule="evenodd"
       id="path677" />
    <path
       fill="#000000"
       d="m 69.1339,198.45633 q -1.15625,0 -2.1875,-0.39063 -1.03125,-0.40625 -1.8125,-1.1875 -0.765625,-0.78125 -1.218754,-1.95312 -0.4375,-1.17188 -0.4375,-2.6875 0,-1.51563 0.46875,-2.70313 0.468754,-1.1875 1.250004,-2 0.78125,-0.82812 1.828125,-1.25 1.046875,-0.4375 2.203125,-0.4375 1.171875,0 2.09375,0.48438 0.9375,0.46875 1.5625,1.10937 l -1.453125,1.75 q -0.46875,-0.4375 -0.984375,-0.70312 -0.515625,-0.26563 -1.171875,-0.26563 -0.609375,0 -1.171875,0.26563 -0.546875,0.26562 -0.953125,0.78125 -0.390625,0.5 -0.625,1.23437 -0.234375,0.71875 -0.234375,1.64063 0,1.875 0.796875,2.92187 0.8125,1.03125 2.15625,1.03125 0.75,0 1.328125,-0.32812 0.59375,-0.32813 1.046875,-0.8125 l 1.453125,1.71875 q -1.53125,1.78125 -3.9375,1.78125 z"
       fill-rule="nonzero"
       id="path679" />
    <path
       fill="#b6d7a8"
       d="m 3.984252,212.65617 h 42.70866 v 42.67715 H 3.984252 Z"
       fill-rule="evenodd"
       id="path681" />
    <path
       stroke="#000000"
       stroke-width="1"
       stroke-linejoin="round"
       stroke-linecap="butt"
       d="m 3.984252,212.65617 h 42.70866 v 42.67715 H 3.984252 Z"
       fill-rule="evenodd"
       id="path683" />
    <path
       fill="#000000"
       d="m 25.022703,241.1335 q -1.453125,0 -2.46875,-0.46875 -1,-0.48438 -1.71875,-1.1875 l 1.234375,-1.73438 q 0.546875,0.48438 1.171875,0.82813 0.625,0.34375 1.390625,0.34375 0.90625,0 1.453125,-0.45313 0.546875,-0.46875 0.546875,-1.39062 0,-0.89063 -0.515625,-1.35938 -0.515625,-0.46875 -1.359375,-0.46875 -0.265625,0 -0.46875,0.0312 -0.203125,0.0312 -0.40625,0.10938 -0.1875,0.0625 -0.40625,0.17187 -0.203125,0.10938 -0.46875,0.28125 l -1.234375,-0.78125 0.34375,-5.98437 h 6.703125 v 2.3125 h -4.34375 l -0.203125,2.21875 q 0.34375,-0.15625 0.640625,-0.21875 0.3125,-0.0625 0.6875,-0.0625 0.765625,0 1.4375,0.23437 0.6875,0.21875 1.203125,0.67188 0.53125,0.4375 0.828125,1.125 0.296875,0.6875 0.296875,1.64062 0,1 -0.359375,1.76563 -0.34375,0.75 -0.953125,1.29687 -0.59375,0.53125 -1.390625,0.8125 -0.78125,0.26563 -1.640625,0.26563 z"
       fill-rule="nonzero"
       id="path685" />
    <path
       fill="#b6d7a8"
       d="m 46.692913,212.65617 h 42.70866 v 42.67715 h -42.70866 z"
       fill-rule="evenodd"
       id="path687" />
    <path
       stroke="#000000"
       stroke-width="1"
       stroke-linejoin="round"
       stroke-linecap="butt"
       d="m 46.692913,212.65617 h 42.70866 v 42.67715 h -42.70866 z"
       fill-rule="evenodd"
       id="path689" />
    <path
       fill="#000000"
       d="M 64.37293,240.91475 V 228.7585 h 7.609375 v 2.3125 h -4.875 v 2.4375 h 4.15625 v 2.29687 h -4.15625 v 2.79688 h 5.0625 v 2.3125 z"
       fill-rule="nonzero"
       id="path691" />
    <path
       fill="#000000"
       fill-opacity="0"
       d="M 6.5643044,295.89764 H 86.973758 v 166.2677 H 6.5643044 Z"
       fill-rule="evenodd"
       id="path693" />
    <path
       fill="#ffe599"
       d="m 3.984252,293.86353 h 42.70866 v 42.67716 H 3.984252 Z"
       fill-rule="evenodd"
       id="path695" />
    <path
       stroke="#000000"
       stroke-width="1"
       stroke-linejoin="round"
       stroke-linecap="butt"
       d="m 3.984252,293.86353 h 42.70866 v 42.67716 H 3.984252 Z"
       fill-rule="evenodd"
       id="path697" />
    <path
       fill="#000000"
       d="m 21.725828,322.1221 v -2.21875 h 2.5625 v -6.84375 h -2.21875 v -1.70313 q 0.96875,-0.1875 1.640625,-0.4375 0.671875,-0.26562 1.3125,-0.64062 h 2.015625 v 9.625 h 2.21875 v 2.21875 z"
       fill-rule="nonzero"
       id="path699" />
    <path
       fill="#ffe599"
       d="m 46.692913,293.86353 h 42.70866 v 42.67716 h -42.70866 z"
       fill-rule="evenodd"
       id="path701" />
    <path
       stroke="#000000"
       stroke-width="1"
       stroke-linejoin="round"
       stroke-linecap="butt"
       d="m 46.692913,293.86353 h 42.70866 v 42.67716 h -42.70866 z"
       fill-rule="evenodd"
       id="path703" />
    <path
       fill="#000000"
       d="m 66.99911,315.96585 -0.296875,1.125 h 2.578125 l -0.265625,-1.125 q -0.265625,-0.92188 -0.515625,-1.9375 -0.234375,-1.03125 -0.484375,-1.98438 h -0.0625 q -0.234375,0.96875 -0.46875,1.98438 -0.234375,1.01562 -0.484375,1.9375 z m -4.406254,6.15625 3.796879,-12.15625 h 3.3125 l 3.796875,12.15625 h -2.90625 l -0.75,-2.89063 h -3.703125 l -0.75,2.89063 z"
       fill-rule="nonzero"
       id="path705" />
    <path
       fill="#ffe599"
       d="m 3.984252,336.54068 h 42.70866 v 42.67716 H 3.984252 Z"
       fill-rule="evenodd"
       id="path707" />
    <path
       stroke="#000000"
       stroke-width="1"
       stroke-linejoin="round"
       stroke-linecap="butt"
       d="m 3.984252,336.54068 h 42.70866 v 42.67716 H 3.984252 Z"
       fill-rule="evenodd"
       id="path709" />
    <path
       fill="#000000"
       d="m 21.100828,364.79926 v -1.5625 q 1.140625,-1.0625 2.078125,-1.98438 0.953125,-0.9375 1.625,-1.73437 0.6875,-0.8125 1.0625,-1.51563 0.390625,-0.70312 0.390625,-1.34375 0,-0.875 -0.453125,-1.32812 -0.453125,-0.45313 -1.234375,-0.45313 -0.65625,0 -1.15625,0.35938 -0.5,0.35937 -0.953125,0.84375 l -1.484375,-1.46875 q 0.875,-0.9375 1.78125,-1.40625 0.921875,-0.48438 2.1875,-0.48438 0.875,0 1.59375,0.28125 0.71875,0.26563 1.234375,0.76563 0.53125,0.48437 0.8125,1.1875 0.28125,0.6875 0.28125,1.54687 0,0.73438 -0.328125,1.51563 -0.3125,0.78125 -0.84375,1.5625 -0.53125,0.76562 -1.21875,1.54687 -0.671875,0.76563 -1.390625,1.5 0.4375,-0.0469 0.984375,-0.0937 0.5625,-0.0469 0.984375,-0.0469 h 2.390625 v 2.3125 z"
       fill-rule="nonzero"
       id="path711" />
    <path
       fill="#ffe599"
       d="m 46.692913,336.54068 h 42.70866 v 42.67716 h -42.70866 z"
       fill-rule="evenodd"
       id="path713" />
    <path
       stroke="#000000"
       stroke-width="1"
       stroke-linejoin="round"
       stroke-linecap="butt"
       d="m 46.692913,336.54068 h 42.70866 v 42.67716 h -42.70866 z"
       fill-rule="evenodd"
       id="path715" />
    <path
       fill="#000000"
       d="m 63.84123,364.79926 v -12.15625 h 4.156254 q 0.953125,0 1.765625,0.14062 0.8125,0.125 1.421875,0.48438 0.609375,0.35937 0.953125,0.9375 0.34375,0.57812 0.34375,1.45312 0,0.40625 -0.125,0.82813 -0.109375,0.40625 -0.3125,0.76562 -0.203125,0.34375 -0.5,0.625 -0.28125,0.28125 -0.65625,0.40625 v 0.0781 q 0.46875,0.10937 0.859375,0.34375 0.390625,0.23437 0.6875,0.59375 0.296875,0.34375 0.46875,0.82812 0.171875,0.46875 0.171875,1.09375 0,0.92188 -0.375,1.59375 -0.359375,0.67188 -1,1.125 -0.640625,0.4375 -1.5,0.65625 -0.859375,0.20313 -1.84375,0.20313 z m 2.734379,-7.29688 h 1.296875 q 1,0 1.453125,-0.39062 0.46875,-0.39063 0.46875,-1.04688 0,-0.70312 -0.46875,-1 -0.46875,-0.29687 -1.4375,-0.29687 h -1.3125 z m 0,5.17188 h 1.5625 q 2.25,0 2.25,-1.64063 0,-0.8125 -0.5625,-1.15625 -0.5625,-0.34375 -1.6875,-0.34375 h -1.5625 z"
       fill-rule="nonzero"
       id="path717" />
    <path
       fill="#ffe599"
       d="m 3.984252,379.21783 h 42.70866 v 42.67718 H 3.984252 Z"
       fill-rule="evenodd"
       id="path719" />
    <path
       stroke="#000000"
       stroke-width="1"
       stroke-linejoin="round"
       stroke-linecap="butt"
       d="m 3.984252,379.21783 h 42.70866 v 42.67718 H 3.984252 Z"
       fill-rule="evenodd"
       id="path721" />
    <path
       fill="#000000"
       d="m 25.897703,407.47644 v -2.82812 h -5.125 v -1.89063 l 4.328125,-7.125 h 3.359375 v 6.92188 h 1.359375 v 2.09375 h -1.359375 v 2.82812 z m -2.5,-4.92187 h 2.5 v -1.92188 q 0,-0.57812 0.03125,-1.32812 0.04687,-0.76563 0.07813,-1.32813 h -0.07813 q -0.21875,0.48438 -0.46875,1 -0.234375,0.5 -0.5,1 z"
       fill-rule="nonzero"
       id="path723" />
    <path
       fill="#ffe599"
       d="m 46.692913,379.21783 h 42.70866 v 42.67718 h -42.70866 z"
       fill-rule="evenodd"
       id="path725" />
    <path
       stroke="#000000"
       stroke-width="1"
       stroke-linejoin="round"
       stroke-linecap="butt"
       d="m 46.692913,379.21783 h 42.70866 v 42.67718 h -42.70866 z"
       fill-rule="evenodd"
       id="path727" />
    <path
       fill="#000000"
       d="m 63.561382,407.47644 v -12.15625 h 3.437504 q 1.390625,0 2.5,0.35938 1.125,0.34375 1.921875,1.07812 0.8125,0.73438 1.234375,1.875 0.4375,1.14063 0.4375,2.70313 0,1.5625 -0.4375,2.73437 -0.421875,1.15625 -1.203125,1.90625 -0.78125,0.75 -1.875,1.125 -1.09375,0.375 -2.4375,0.375 z m 2.734379,-2.21875 h 0.53125 q 0.78125,0 1.40625,-0.20312 0.640625,-0.20313 1.09375,-0.65625 0.453125,-0.46875 0.703125,-1.20313 0.25,-0.75 0.25,-1.85937 0,-1.07813 -0.25,-1.8125 -0.25,-0.73438 -0.703125,-1.17188 -0.453125,-0.45312 -1.09375,-0.625 -0.625,-0.1875 -1.40625,-0.1875 h -0.53125 z"
       fill-rule="nonzero"
       id="path729" />
    <path
       fill="#ffe599"
       d="m 3.984252,421.89502 h 42.70866 v 42.67716 H 3.984252 Z"
       fill-rule="evenodd"
       id="path731" />
    <path
       stroke="#000000"
       stroke-width="1"
       stroke-linejoin="round"
       stroke-linecap="butt"
       d="m 3.984252,421.89502 h 42.70866 v 42.67716 H 3.984252 Z"
       fill-rule="evenodd"
       id="path733" />
    <path
       fill="#000000"
       d="m 25.663328,450.37234 q -0.859375,0 -1.671875,-0.32813 -0.8125,-0.34375 -1.4375,-1.04687 -0.625,-0.70313 -1,-1.8125 -0.375,-1.10938 -0.375,-2.6875 0,-1.65625 0.390625,-2.85938 0.40625,-1.21875 1.0625,-2 0.671875,-0.79687 1.53125,-1.17187 0.875,-0.39063 1.8125,-0.39063 1.171875,0 2.03125,0.42188 0.859375,0.42187 1.421875,1 l -1.4375,1.64062 q -0.328125,-0.32812 -0.828125,-0.57812 -0.5,-0.25 -1.015625,-0.25 -0.484375,0 -0.921875,0.1875 -0.421875,0.17187 -0.75,0.625 -0.328125,0.4375 -0.53125,1.14062 -0.203125,0.70313 -0.25,1.73438 0.21875,-0.29688 0.515625,-0.53125 0.3125,-0.23438 0.625,-0.39063 0.3125,-0.15625 0.625,-0.23437 0.328125,-0.0937 0.609375,-0.0937 0.765625,0 1.40625,0.23437 0.640625,0.21875 1.109375,0.67188 0.484375,0.4375 0.734375,1.125 0.265625,0.6875 0.265625,1.625 0,0.9375 -0.3125,1.67187 -0.3125,0.71875 -0.84375,1.25 -0.53125,0.51563 -1.25,0.78125 -0.71875,0.26563 -1.515625,0.26563 z m -0.0625,-2.04688 q 0.609375,0 1.046875,-0.45312 0.4375,-0.46875 0.4375,-1.46875 0,-0.95313 -0.4375,-1.32813 -0.4375,-0.39062 -1.109375,-0.39062 -0.453125,0 -0.9375,0.28125 -0.46875,0.26562 -0.84375,0.89062 0.09375,0.71875 0.28125,1.1875 0.1875,0.45313 0.421875,0.75 0.25,0.28125 0.53125,0.40625 0.296875,0.125 0.609375,0.125 z"
       fill-rule="nonzero"
       id="path735" />
    <path
       fill="#ffe599"
       d="m 46.692913,421.89502 h 42.70866 v 42.67716 h -42.70866 z"
       fill-rule="evenodd"
       id="path737" />
    <path
       stroke="#000000"
       stroke-width="1"
       stroke-linejoin="round"
       stroke-linecap="butt"
       d="m 46.692913,421.89502 h 42.70866 v 42.67716 h -42.70866 z"
       fill-rule="evenodd"
       id="path739" />
    <path
       fill="#000000"
       d="m 64.59681,450.1536 v -12.15625 h 7.671875 v 2.3125 h -4.9375 v 2.8125 h 4.21875 v 2.3125 h -4.21875 v 4.71875 z"
       fill-rule="nonzero"
       id="path741" />
    <path
       fill="#d9d9d9"
       d="m 185.6378,105.96326 h 42.70865 v 42.67717 H 185.6378 Z"
       fill-rule="evenodd"
       id="path743" />
    <path
       stroke="#000000"
       stroke-width="1"
       stroke-linejoin="round"
       stroke-linecap="butt"
       d="m 185.6378,105.96326 h 42.70865 v 42.67717 H 185.6378 Z"
       fill-rule="evenodd"
       id="path745" />
    <path
       fill="#000000"
       d="m 203.37938,134.22183 v -2.21875 h 2.5625 v -6.84375 h -2.21875 v -1.70312 q 0.96875,-0.1875 1.64062,-0.4375 0.67188,-0.26563 1.3125,-0.64063 h 2.01563 v 9.625 h 2.21875 v 2.21875 z"
       fill-rule="nonzero"
       id="path747" />
    <path
       fill="#c9daf8"
       d="m 228.34645,105.96326 h 42.70866 v 42.67717 h -42.70866 z"
       fill-rule="evenodd"
       id="path749" />
    <path
       stroke="#000000"
       stroke-width="1"
       stroke-linejoin="round"
       stroke-linecap="butt"
       d="m 228.34645,105.96326 h 42.70866 v 42.67717 h -42.70866 z"
       fill-rule="evenodd"
       id="path751" />
    <path
       fill="#000000"
       d="m 248.65265,128.06558 -0.29688,1.125 h 2.57813 l -0.26563,-1.125 q -0.26562,-0.92187 -0.51562,-1.9375 -0.23438,-1.03125 -0.48438,-1.98437 h -0.0625 q -0.23437,0.96875 -0.46875,1.98437 -0.23437,1.01563 -0.48437,1.9375 z m -4.40625,6.15625 3.79687,-12.15625 h 3.3125 l 3.79688,12.15625 h -2.90625 l -0.75,-2.89063 h -3.70313 l -0.75,2.89063 z"
       fill-rule="nonzero"
       id="path753" />
    <path
       fill="#d9d9d9"
       d="m 185.6378,148.64043 h 42.70865 v 42.67715 H 185.6378 Z"
       fill-rule="evenodd"
       id="path755" />
    <path
       stroke="#000000"
       stroke-width="1"
       stroke-linejoin="round"
       stroke-linecap="butt"
       d="m 185.6378,148.64043 h 42.70865 v 42.67715 H 185.6378 Z"
       fill-rule="evenodd"
       id="path757" />
    <path
       fill="#000000"
       d="m 202.75438,176.899 v -1.5625 q 1.14062,-1.0625 2.07812,-1.98438 0.95313,-0.9375 1.625,-1.73437 0.6875,-0.8125 1.0625,-1.51563 0.39063,-0.70312 0.39063,-1.34375 0,-0.875 -0.45313,-1.32812 -0.45312,-0.45313 -1.23437,-0.45313 -0.65625,0 -1.15625,0.35938 -0.5,0.35937 -0.95313,0.84375 l -1.48437,-1.46875 q 0.875,-0.9375 1.78125,-1.40625 0.92187,-0.48438 2.1875,-0.48438 0.875,0 1.59375,0.28125 0.71875,0.26563 1.23437,0.76563 0.53125,0.48437 0.8125,1.1875 0.28125,0.6875 0.28125,1.54687 0,0.73438 -0.32812,1.51563 -0.3125,0.78125 -0.84375,1.5625 -0.53125,0.76562 -1.21875,1.54687 -0.67188,0.76563 -1.39063,1.5 0.4375,-0.0469 0.98438,-0.0937 0.5625,-0.0469 0.98437,-0.0469 h 2.39063 v 2.3125 z"
       fill-rule="nonzero"
       id="path759" />
    <path
       fill="#c9daf8"
       d="m 228.34645,148.64043 h 42.70866 v 42.67715 h -42.70866 z"
       fill-rule="evenodd"
       id="path761" />
    <path
       stroke="#000000"
       stroke-width="1"
       stroke-linejoin="round"
       stroke-linecap="butt"
       d="m 228.34645,148.64043 h 42.70866 v 42.67715 h -42.70866 z"
       fill-rule="evenodd"
       id="path763" />
    <path
       fill="#000000"
       d="m 245.49477,176.899 v -12.15625 h 4.15625 q 0.95312,0 1.76562,0.14062 0.8125,0.125 1.42188,0.48438 0.60937,0.35937 0.95312,0.9375 0.34375,0.57812 0.34375,1.45312 0,0.40625 -0.125,0.82813 -0.10937,0.40625 -0.3125,0.76562 -0.20312,0.34375 -0.5,0.625 -0.28125,0.28125 -0.65625,0.40625 v 0.0781 q 0.46875,0.10937 0.85938,0.34375 0.39062,0.23437 0.6875,0.59375 0.29687,0.34375 0.46875,0.82812 0.17187,0.46875 0.17187,1.09375 0,0.92188 -0.375,1.59375 -0.35937,0.67188 -1,1.125 -0.64062,0.4375 -1.5,0.65625 -0.85937,0.20313 -1.84375,0.20313 z m 2.73437,-7.29688 h 1.29688 q 1,0 1.45312,-0.39062 0.46875,-0.39063 0.46875,-1.04688 0,-0.70312 -0.46875,-1 -0.46875,-0.29687 -1.4375,-0.29687 h -1.3125 z m 0,5.17188 h 1.5625 q 2.25,0 2.25,-1.64063 0,-0.8125 -0.5625,-1.15625 -0.5625,-0.34375 -1.6875,-0.34375 h -1.5625 z"
       fill-rule="nonzero"
       id="path765" />
    <path
       fill="#d9d9d9"
       d="m 185.6378,191.31758 h 42.70865 v 42.67717 H 185.6378 Z"
       fill-rule="evenodd"
       id="path767" />
    <path
       stroke="#000000"
       stroke-width="1"
       stroke-linejoin="round"
       stroke-linecap="butt"
       d="m 185.6378,191.31758 h 42.70865 v 42.67717 H 185.6378 Z"
       fill-rule="evenodd"
       id="path769" />
    <path
       fill="#000000"
       d="m 206.59813,219.79492 q -1.45313,0 -2.46875,-0.45313 -1,-0.45312 -1.65625,-1.21875 l 1.26562,-1.73437 q 0.54688,0.51562 1.1875,0.85937 0.64063,0.32813 1.40625,0.32813 0.89063,0 1.40625,-0.35938 0.51563,-0.35937 0.51563,-1.03125 0,-0.39062 -0.14063,-0.70312 -0.14062,-0.32813 -0.5,-0.53125 -0.34375,-0.21875 -0.96875,-0.34375 -0.60937,-0.125 -1.57812,-0.125 v -1.9375 q 0.8125,0 1.34375,-0.10938 0.53125,-0.10937 0.84375,-0.32812 0.32812,-0.21875 0.46875,-0.5 0.14062,-0.29688 0.14062,-0.65625 0,-0.60938 -0.375,-0.95313 -0.35937,-0.34375 -1.07812,-0.34375 -0.625,0 -1.14063,0.28125 -0.51562,0.28125 -1.07812,0.76563 l -1.375,-1.6875 q 0.8125,-0.70313 1.71875,-1.10938 0.90625,-0.40625 2.01562,-0.40625 0.90625,0 1.65625,0.21875 0.76563,0.21875 1.29688,0.64063 0.53125,0.42187 0.82812,1.01562 0.29688,0.59375 0.29688,1.375 0,0.9375 -0.51563,1.57813 -0.51562,0.64062 -1.46875,1.0625 v 0.0625 q 1.03125,0.29687 1.6875,1.01562 0.67188,0.71875 0.67188,1.875 0,0.82813 -0.35938,1.46875 -0.34375,0.64063 -0.95312,1.07813 -0.59375,0.4375 -1.40625,0.67187 -0.79688,0.23438 -1.6875,0.23438 z"
       fill-rule="nonzero"
       id="path771" />
    <path
       fill="#c9daf8"
       d="m 228.34645,191.31758 h 42.70866 v 42.67717 h -42.70866 z"
       fill-rule="evenodd"
       id="path773" />
    <path
       stroke="#000000"
       stroke-width="1"
       stroke-linejoin="round"
       stroke-linecap="butt"
       d="m 228.34645,191.31758 h 42.70866 v 42.67717 h -42.70866 z"
       fill-rule="evenodd"
       id="path775" />
    <path
       fill="#000000"
       d="m 250.78745,219.79492 q -1.15625,0 -2.1875,-0.39063 -1.03125,-0.40625 -1.8125,-1.1875 -0.76563,-0.78125 -1.21875,-1.95312 -0.4375,-1.17188 -0.4375,-2.6875 0,-1.51563 0.46875,-2.70313 0.46875,-1.1875 1.25,-2 0.78125,-0.82812 1.82812,-1.25 1.04688,-0.4375 2.20313,-0.4375 1.17187,0 2.09375,0.48438 0.9375,0.46875 1.5625,1.10937 l -1.45313,1.75 q -0.46875,-0.4375 -0.98437,-0.70312 -0.51563,-0.26563 -1.17188,-0.26563 -0.60937,0 -1.17187,0.26563 -0.54688,0.26562 -0.95313,0.78125 -0.39062,0.5 -0.625,1.23437 -0.23437,0.71875 -0.23437,1.64063 0,1.875 0.79687,2.92187 0.8125,1.03125 2.15625,1.03125 0.75,0 1.32813,-0.32812 0.59375,-0.32813 1.04687,-0.8125 l 1.45313,1.71875 q -1.53125,1.78125 -3.9375,1.78125 z"
       fill-rule="nonzero"
       id="path777" />
    <path
       fill="#d9d9d9"
       d="m 185.6378,233.99475 h 42.70865 v 42.67716 H 185.6378 Z"
       fill-rule="evenodd"
       id="path779" />
    <path
       stroke="#000000"
       stroke-width="1"
       stroke-linejoin="round"
       stroke-linecap="butt"
       d="m 185.6378,233.99475 h 42.70865 v 42.67716 H 185.6378 Z"
       fill-rule="evenodd"
       id="path781" />
    <path
       fill="#000000"
       d="m 207.55125,262.25333 v -2.82813 h -5.125 v -1.89062 l 4.32812,-7.125 h 3.35938 v 6.92187 h 1.35937 v 2.09375 h -1.35937 v 2.82813 z m -2.5,-4.92188 h 2.5 v -1.92187 q 0,-0.57813 0.0312,-1.32813 0.0469,-0.76562 0.0781,-1.32812 h -0.0781 q -0.21875,0.48437 -0.46875,1 -0.23438,0.5 -0.5,1 z"
       fill-rule="nonzero"
       id="path783" />
    <path
       fill="#c9daf8"
       d="m 228.34645,233.99475 h 42.70866 v 42.67716 h -42.70866 z"
       fill-rule="evenodd"
       id="path785" />
    <path
       stroke="#000000"
       stroke-width="1"
       stroke-linejoin="round"
       stroke-linecap="butt"
       d="m 228.34645,233.99475 h 42.70866 v 42.67716 h -42.70866 z"
       fill-rule="evenodd"
       id="path787" />
    <path
       fill="#000000"
       d="m 249.69922,262.47208 q -0.70313,0 -1.1875,-0.48438 -0.46875,-0.5 -0.46875,-1.23437 0,-0.73438 0.46875,-1.23438 0.48437,-0.5 1.1875,-0.5 0.70312,0 1.17187,0.5 0.48438,0.5 0.48438,1.23438 0,0.73437 -0.48438,1.23437 -0.46875,0.48438 -1.17187,0.48438 z"
       fill-rule="nonzero"
       id="path789" />
    <path
       fill="#d9d9d9"
       d="m 185.6378,276.6719 h 42.70865 v 42.67718 H 185.6378 Z"
       fill-rule="evenodd"
       id="path791" />
    <path
       stroke="#000000"
       stroke-width="1"
       stroke-linejoin="round"
       stroke-linecap="butt"
       d="m 185.6378,276.6719 h 42.70865 v 42.67718 H 185.6378 Z"
       fill-rule="evenodd"
       id="path793" />
    <path
       fill="#000000"
       d="m 206.67625,305.14926 q -1.45313,0 -2.46875,-0.46875 -1,-0.48437 -1.71875,-1.1875 l 1.23437,-1.73437 q 0.54688,0.48437 1.17188,0.82812 0.625,0.34375 1.39062,0.34375 0.90625,0 1.45313,-0.45312 0.54687,-0.46875 0.54687,-1.39063 0,-0.89062 -0.51562,-1.35937 -0.51563,-0.46875 -1.35938,-0.46875 -0.26562,0 -0.46875,0.0312 -0.20312,0.0312 -0.40625,0.10937 -0.1875,0.0625 -0.40625,0.17188 -0.20312,0.10937 -0.46875,0.28125 l -1.23437,-0.78125 0.34375,-5.98438 h 6.70312 v 2.3125 h -4.34375 l -0.20312,2.21875 q 0.34375,-0.15625 0.64062,-0.21875 0.3125,-0.0625 0.6875,-0.0625 0.76563,0 1.4375,0.23438 0.6875,0.21875 1.20313,0.67187 0.53125,0.4375 0.82812,1.125 0.29688,0.6875 0.29688,1.64063 0,1 -0.35938,1.76562 -0.34375,0.75 -0.95312,1.29688 -0.59375,0.53125 -1.39063,0.8125 -0.78125,0.26562 -1.64062,0.26562 z"
       fill-rule="nonzero"
       id="path795" />
    <path
       fill="#c9daf8"
       d="m 228.34645,276.6719 h 42.70866 v 42.67718 h -42.70866 z"
       fill-rule="evenodd"
       id="path797" />
    <path
       stroke="#000000"
       stroke-width="1"
       stroke-linejoin="round"
       stroke-linecap="butt"
       d="m 228.34645,276.6719 h 42.70866 v 42.67718 h -42.70866 z"
       fill-rule="evenodd"
       id="path799" />
    <path
       fill="#000000"
       d="m 249.69922,305.14926 q -0.70313,0 -1.1875,-0.48437 -0.46875,-0.5 -0.46875,-1.23438 0,-0.73437 0.46875,-1.23437 0.48437,-0.5 1.1875,-0.5 0.70312,0 1.17187,0.5 0.48438,0.5 0.48438,1.23437 0,0.73438 -0.48438,1.23438 -0.46875,0.48437 -1.17187,0.48437 z"
       fill-rule="nonzero"
       id="path801" />
    <path
       fill="#d9d9d9"
       d="m 185.6378,319.3491 h 42.70865 v 42.67715 H 185.6378 Z"
       fill-rule="evenodd"
       id="path803" />
    <path
       stroke="#000000"
       stroke-width="1"
       stroke-linejoin="round"
       stroke-linecap="butt"
       d="m 185.6378,319.3491 h 42.70865 v 42.67715 H 185.6378 Z"
       fill-rule="evenodd"
       id="path805" />
    <path
       fill="#000000"
       d="m 207.31688,347.82642 q -0.85938,0 -1.67188,-0.32813 -0.8125,-0.34375 -1.4375,-1.04687 -0.625,-0.70313 -1,-1.8125 -0.375,-1.10938 -0.375,-2.6875 0,-1.65625 0.39063,-2.85938 0.40625,-1.21875 1.0625,-2 0.67187,-0.79687 1.53125,-1.17187 0.875,-0.39063 1.8125,-0.39063 1.17187,0 2.03125,0.42188 0.85937,0.42187 1.42187,1 l -1.4375,1.64062 q -0.32812,-0.32812 -0.82812,-0.57812 -0.5,-0.25 -1.01563,-0.25 -0.48437,0 -0.92187,0.1875 -0.42188,0.17187 -0.75,0.625 -0.32813,0.4375 -0.53125,1.14062 -0.20313,0.70313 -0.25,1.73438 0.21875,-0.29688 0.51562,-0.53125 0.3125,-0.23438 0.625,-0.39063 0.3125,-0.15625 0.625,-0.23437 0.32813,-0.0937 0.60938,-0.0937 0.76562,0 1.40625,0.23437 0.64062,0.21875 1.10937,0.67188 0.48438,0.4375 0.73438,1.125 0.26562,0.6875 0.26562,1.625 0,0.9375 -0.3125,1.67187 -0.3125,0.71875 -0.84375,1.25 -0.53125,0.51563 -1.25,0.78125 -0.71875,0.26563 -1.51562,0.26563 z m -0.0625,-2.04688 q 0.60937,0 1.04687,-0.45312 0.4375,-0.46875 0.4375,-1.46875 0,-0.95313 -0.4375,-1.32813 -0.4375,-0.39062 -1.10937,-0.39062 -0.45313,0 -0.9375,0.28125 -0.46875,0.26562 -0.84375,0.89062 0.0937,0.71875 0.28125,1.1875 0.1875,0.45313 0.42187,0.75 0.25,0.28125 0.53125,0.40625 0.29688,0.125 0.60938,0.125 z"
       fill-rule="nonzero"
       id="path807" />
    <path
       fill="#c9daf8"
       d="m 228.34645,319.3491 h 42.70866 v 42.67715 h -42.70866 z"
       fill-rule="evenodd"
       id="path809" />
    <path
       stroke="#000000"
       stroke-width="1"
       stroke-linejoin="round"
       stroke-linecap="butt"
       d="m 228.34645,319.3491 h 42.70866 v 42.67715 h -42.70866 z"
       fill-rule="evenodd"
       id="path811" />
    <path
       fill="#000000"
       d="m 249.69922,347.82642 q -0.70313,0 -1.1875,-0.48438 -0.46875,-0.5 -0.46875,-1.23437 0,-0.73438 0.46875,-1.23438 0.48437,-0.5 1.1875,-0.5 0.70312,0 1.17187,0.5 0.48438,0.5 0.48438,1.23438 0,0.73437 -0.48438,1.23437 -0.46875,0.48438 -1.17187,0.48438 z"
       fill-rule="nonzero"
       id="path813" />
    <path
       fill="#b6d7a8"
       d="m 271.0551,105.96326 h 42.70868 v 42.67717 H 271.0551 Z"
       fill-rule="evenodd"
       id="path815" />
    <path
       stroke="#000000"
       stroke-width="1"
       stroke-linejoin="round"
       stroke-linecap="butt"
       d="m 271.0551,105.96326 h 42.70868 v 42.67717 H 271.0551 Z"
       fill-rule="evenodd"
       id="path817" />
    <path
       fill="#000000"
       d="m 292.4079,134.44058 q -0.70313,0 -1.1875,-0.48438 -0.46875,-0.5 -0.46875,-1.23437 0,-0.73438 0.46875,-1.23438 0.48437,-0.5 1.1875,-0.5 0.70312,0 1.17187,0.5 0.48438,0.5 0.48438,1.23438 0,0.73437 -0.48438,1.23437 -0.46875,0.48438 -1.17187,0.48438 z"
       fill-rule="nonzero"
       id="path819" />
    <path
       fill="#b6d7a8"
       d="m 271.0551,148.64043 h 42.70868 v 42.67715 H 271.0551 Z"
       fill-rule="evenodd"
       id="path821" />
    <path
       stroke="#000000"
       stroke-width="1"
       stroke-linejoin="round"
       stroke-linecap="butt"
       d="m 271.0551,148.64043 h 42.70868 v 42.67715 H 271.0551 Z"
       fill-rule="evenodd"
       id="path823" />
    <path
       fill="#000000"
       d="m 292.4079,177.11775 q -0.70313,0 -1.1875,-0.48438 -0.46875,-0.5 -0.46875,-1.23437 0,-0.73438 0.46875,-1.23438 0.48437,-0.5 1.1875,-0.5 0.70312,0 1.17187,0.5 0.48438,0.5 0.48438,1.23438 0,0.73437 -0.48438,1.23437 -0.46875,0.48438 -1.17187,0.48438 z"
       fill-rule="nonzero"
       id="path825" />
    <path
       fill="#b6d7a8"
       d="m 271.0551,191.31758 h 42.70868 v 42.67717 H 271.0551 Z"
       fill-rule="evenodd"
       id="path827" />
    <path
       stroke="#000000"
       stroke-width="1"
       stroke-linejoin="round"
       stroke-linecap="butt"
       d="m 271.0551,191.31758 h 42.70868 v 42.67717 H 271.0551 Z"
       fill-rule="evenodd"
       id="path829" />
    <path
       fill="#000000"
       d="m 293.4961,219.79492 q -1.15625,0 -2.1875,-0.39063 -1.03125,-0.40625 -1.8125,-1.1875 -0.76562,-0.78125 -1.21875,-1.95312 -0.4375,-1.17188 -0.4375,-2.6875 0,-1.51563 0.46875,-2.70313 0.46875,-1.1875 1.25,-2 0.78125,-0.82812 1.82813,-1.25 1.04687,-0.4375 2.20312,-0.4375 1.17188,0 2.09375,0.48438 0.9375,0.46875 1.5625,1.10937 l -1.45312,1.75 q -0.46875,-0.4375 -0.98438,-0.70312 -0.51562,-0.26563 -1.17187,-0.26563 -0.60938,0 -1.17188,0.26563 -0.54687,0.26562 -0.95312,0.78125 -0.39063,0.5 -0.625,1.23437 -0.23438,0.71875 -0.23438,1.64063 0,1.875 0.79688,2.92187 0.8125,1.03125 2.15625,1.03125 0.75,0 1.32812,-0.32812 0.59375,-0.32813 1.04688,-0.8125 l 1.45312,1.71875 q -1.53125,1.78125 -3.9375,1.78125 z"
       fill-rule="nonzero"
       id="path831" />
    <path
       fill="#b6d7a8"
       d="m 271.0551,233.99475 h 42.70868 v 42.67716 H 271.0551 Z"
       fill-rule="evenodd"
       id="path833" />
    <path
       stroke="#000000"
       stroke-width="1"
       stroke-linejoin="round"
       stroke-linecap="butt"
       d="m 271.0551,233.99475 h 42.70868 v 42.67716 H 271.0551 Z"
       fill-rule="evenodd"
       id="path835" />
    <path
       fill="#000000"
       d="m 292.4079,262.47208 q -0.70313,0 -1.1875,-0.48438 -0.46875,-0.5 -0.46875,-1.23437 0,-0.73438 0.46875,-1.23438 0.48437,-0.5 1.1875,-0.5 0.70312,0 1.17187,0.5 0.48438,0.5 0.48438,1.23438 0,0.73437 -0.48438,1.23437 -0.46875,0.48438 -1.17187,0.48438 z"
       fill-rule="nonzero"
       id="path837" />
    <path
       fill="#b6d7a8"
       d="m 271.0551,276.6719 h 42.70868 v 42.67718 H 271.0551 Z"
       fill-rule="evenodd"
       id="path839" />
    <path
       stroke="#000000"
       stroke-width="1"
       stroke-linejoin="round"
       stroke-linecap="butt"
       d="m 271.0551,276.6719 h 42.70868 v 42.67718 H 271.0551 Z"
       fill-rule="evenodd"
       id="path841" />
    <path
       fill="#000000"
       d="m 288.73514,304.9305 v -12.15625 h 7.60937 v 2.3125 h -4.875 v 2.4375 h 4.15625 v 2.29687 h -4.15625 v 2.79688 h 5.0625 v 2.3125 z"
       fill-rule="nonzero"
       id="path843" />
    <path
       fill="#b6d7a8"
       d="m 271.0551,319.3491 h 42.70868 v 42.67715 H 271.0551 Z"
       fill-rule="evenodd"
       id="path845" />
    <path
       stroke="#000000"
       stroke-width="1"
       stroke-linejoin="round"
       stroke-linecap="butt"
       d="m 271.0551,319.3491 h 42.70868 v 42.67715 H 271.0551 Z"
       fill-rule="evenodd"
       id="path847" />
    <path
       fill="#000000"
       d="m 292.4079,347.82642 q -0.70313,0 -1.1875,-0.48438 -0.46875,-0.5 -0.46875,-1.23437 0,-0.73438 0.46875,-1.23438 0.48437,-0.5 1.1875,-0.5 0.70312,0 1.17187,0.5 0.48438,0.5 0.48438,1.23438 0,0.73437 -0.48438,1.23437 -0.46875,0.48438 -1.17187,0.48438 z"
       fill-rule="nonzero"
       id="path849" />
    <path
       fill="#ffe599"
       d="m 313.7638,105.96326 h 42.70865 v 42.67717 H 313.7638 Z"
       fill-rule="evenodd"
       id="path851" />
    <path
       stroke="#000000"
       stroke-width="1"
       stroke-linejoin="round"
       stroke-linecap="butt"
       d="m 313.7638,105.96326 h 42.70865 v 42.67717 H 313.7638 Z"
       fill-rule="evenodd"
       id="path853" />
    <path
       fill="#000000"
       d="m 334.06998,128.06558 -0.29688,1.125 h 2.57813 l -0.26563,-1.125 q -0.26562,-0.92187 -0.51562,-1.9375 -0.23438,-1.03125 -0.48438,-1.98437 h -0.0625 q -0.23437,0.96875 -0.46875,1.98437 -0.23437,1.01563 -0.48437,1.9375 z m -4.40625,6.15625 3.79687,-12.15625 h 3.3125 l 3.79688,12.15625 h -2.90625 l -0.75,-2.89063 h -3.70313 l -0.75,2.89063 z"
       fill-rule="nonzero"
       id="path855" />
    <path
       fill="#ffe599"
       d="m 313.7638,148.64043 h 42.70865 v 42.67715 H 313.7638 Z"
       fill-rule="evenodd"
       id="path857" />
    <path
       stroke="#000000"
       stroke-width="1"
       stroke-linejoin="round"
       stroke-linecap="butt"
       d="m 313.7638,148.64043 h 42.70865 v 42.67715 H 313.7638 Z"
       fill-rule="evenodd"
       id="path859" />
    <path
       fill="#000000"
       d="m 330.9121,176.899 v -12.15625 h 4.15625 q 0.95312,0 1.76562,0.14062 0.8125,0.125 1.42188,0.48438 0.60937,0.35937 0.95312,0.9375 0.34375,0.57812 0.34375,1.45312 0,0.40625 -0.125,0.82813 -0.10937,0.40625 -0.3125,0.76562 -0.20312,0.34375 -0.5,0.625 -0.28125,0.28125 -0.65625,0.40625 v 0.0781 q 0.46875,0.10937 0.85938,0.34375 0.39062,0.23437 0.6875,0.59375 0.29687,0.34375 0.46875,0.82812 0.17187,0.46875 0.17187,1.09375 0,0.92188 -0.375,1.59375 -0.35937,0.67188 -1,1.125 -0.64062,0.4375 -1.5,0.65625 -0.85937,0.20313 -1.84375,0.20313 z m 2.73437,-7.29688 h 1.29688 q 1,0 1.45312,-0.39062 0.46875,-0.39063 0.46875,-1.04688 0,-0.70312 -0.46875,-1 -0.46875,-0.29687 -1.4375,-0.29687 h -1.3125 z m 0,5.17188 h 1.5625 q 2.25,0 2.25,-1.64063 0,-0.8125 -0.5625,-1.15625 -0.5625,-0.34375 -1.6875,-0.34375 h -1.5625 z"
       fill-rule="nonzero"
       id="path861" />
    <path
       fill="#ffe599"
       d="m 313.7638,191.31758 h 42.70865 v 42.67717 H 313.7638 Z"
       fill-rule="evenodd"
       id="path863" />
    <path
       stroke="#000000"
       stroke-width="1"
       stroke-linejoin="round"
       stroke-linecap="butt"
       d="m 313.7638,191.31758 h 42.70865 v 42.67717 H 313.7638 Z"
       fill-rule="evenodd"
       id="path865" />
    <path
       fill="#000000"
       d="m 335.11655,219.79492 q -0.70312,0 -1.1875,-0.48438 -0.46875,-0.5 -0.46875,-1.23437 0,-0.73438 0.46875,-1.23438 0.48438,-0.5 1.1875,-0.5 0.70313,0 1.17188,0.5 0.48437,0.5 0.48437,1.23438 0,0.73437 -0.48437,1.23437 -0.46875,0.48438 -1.17188,0.48438 z"
       fill-rule="nonzero"
       id="path867" />
    <path
       fill="#ffe599"
       d="m 313.7638,233.99475 h 42.70865 v 42.67716 H 313.7638 Z"
       fill-rule="evenodd"
       id="path869" />
    <path
       stroke="#000000"
       stroke-width="1"
       stroke-linejoin="round"
       stroke-linecap="butt"
       d="m 313.7638,233.99475 h 42.70865 v 42.67716 H 313.7638 Z"
       fill-rule="evenodd"
       id="path871" />
    <path
       fill="#000000"
       d="m 330.63226,262.25333 v -12.15625 h 3.4375 q 1.39062,0 2.5,0.35937 1.125,0.34375 1.92187,1.07813 0.8125,0.73437 1.23438,1.875 0.4375,1.14062 0.4375,2.70312 0,1.5625 -0.4375,2.73438 -0.42188,1.15625 -1.20313,1.90625 -0.78125,0.75 -1.875,1.125 -1.09375,0.375 -2.4375,0.375 z m 2.73437,-2.21875 h 0.53125 q 0.78125,0 1.40625,-0.20313 0.64063,-0.20312 1.09375,-0.65625 0.45313,-0.46875 0.70313,-1.20312 0.25,-0.75 0.25,-1.85938 0,-1.07812 -0.25,-1.8125 -0.25,-0.73437 -0.70313,-1.17187 -0.45312,-0.45313 -1.09375,-0.625 -0.625,-0.1875 -1.40625,-0.1875 h -0.53125 z"
       fill-rule="nonzero"
       id="path873" />
    <path
       fill="#ffe599"
       d="m 313.7638,276.6719 h 42.70865 v 42.67718 H 313.7638 Z"
       fill-rule="evenodd"
       id="path875" />
    <path
       stroke="#000000"
       stroke-width="1"
       stroke-linejoin="round"
       stroke-linecap="butt"
       d="m 313.7638,276.6719 h 42.70865 v 42.67718 H 313.7638 Z"
       fill-rule="evenodd"
       id="path877" />
    <path
       fill="#000000"
       d="m 335.11655,305.14926 q -0.70312,0 -1.1875,-0.48437 -0.46875,-0.5 -0.46875,-1.23438 0,-0.73437 0.46875,-1.23437 0.48438,-0.5 1.1875,-0.5 0.70313,0 1.17188,0.5 0.48437,0.5 0.48437,1.23437 0,0.73438 -0.48437,1.23438 -0.46875,0.48437 -1.17188,0.48437 z"
       fill-rule="nonzero"
       id="path879" />
    <path
       fill="#ffe599"
       d="m 313.7638,319.3491 h 42.70865 v 42.67715 H 313.7638 Z"
       fill-rule="evenodd"
       id="path881" />
    <path
       stroke="#000000"
       stroke-width="1"
       stroke-linejoin="round"
       stroke-linecap="butt"
       d="m 313.7638,319.3491 h 42.70865 v 42.67715 H 313.7638 Z"
       fill-rule="evenodd"
       id="path883" />
    <path
       fill="#000000"
       d="m 331.66766,347.60767 v -12.15625 h 7.67187 v 2.3125 h -4.9375 v 2.8125 h 4.21875 v 2.3125 h -4.21875 v 4.71875 z"
       fill-rule="nonzero"
       id="path885" />
    <path
       fill="#000000"
       fill-opacity="0"
       d="m 89.40157,67.43307 c 80.15748,0 160.31497,19.25985 160.31497,38.51969"
       fill-rule="evenodd"
       id="path887" />
    <path
       stroke="#000000"
       stroke-width="1"
       stroke-linejoin="round"
       stroke-linecap="butt"
       d="m 89.40157,67.43307 c 40.07874,0 80.15748,4.814964 110.21653,12.037407 15.02954,3.611221 27.55414,7.82431 36.32137,12.338333 4.3836,2.257011 7.82788,4.589264 10.17623,6.959122 1.1742,1.184929 2.07441,2.379268 2.68105,3.578318 0.0379,0.0749 0.0747,0.14988 0.11032,0.22487 l 0.0213,0.0464"
       fill-rule="evenodd"
       id="path889" />
    <path
       fill="#000000"
       stroke="#000000"
       stroke-width="1"
       stroke-linecap="butt"
       d="m 248.92839,102.61752 -1.35306,-0.83582 1.80501,2.74833 0.38387,-3.26558 z"
       fill-rule="evenodd"
       id="path891" />
    <path
       fill="#000000"
       fill-opacity="0"
       d="m 86.96063,379.03412 c 124.07873,0 248.15747,-8.50394 248.15747,-17.00787"
       fill-rule="evenodd"
       id="path893" />
    <path
       stroke="#000000"
       stroke-width="1"
       stroke-linejoin="round"
       stroke-linecap="butt"
       d="m 86.96063,379.03412 c 62.03937,0 124.07873,-2.12598 170.60828,-5.31497 23.26474,-1.59448 42.65207,-3.45471 56.22318,-5.44782 6.78555,-0.99655 12.11706,-2.02633 15.75216,-3.07272 0.90878,-0.2616 1.71155,-0.52423 2.40448,-0.78763 0.17325,-0.0659 0.3396,-0.13177 0.49906,-0.19772 l 0.0236,-0.01"
       fill-rule="evenodd"
       id="path895" />
    <path
       fill="#000000"
       stroke="#000000"
       stroke-width="1"
       stroke-linecap="butt"
       d="m 332.47134,364.2033 -0.15411,1.58292 1.67184,-2.8313 -3.10065,1.09427 z"
       fill-rule="evenodd"
       id="path897" />
  </g>
</svg>
