<?xml version="1.0" encoding="UTF-8" standalone="no"?>
<!-- Created with Inkscape (http://www.inkscape.org/) -->

<svg
   width="290"
   height="115"
   viewBox="0 0 168.80416 66.939585"
   version="1.1"
   id="svg5"
   inkscape:version="1.2.2 (732a01da63, 2022-12-09)"
   sodipodi:docname="crate1-folders.svg"
   xmlns:inkscape="http://www.inkscape.org/namespaces/inkscape"
   xmlns:sodipodi="http://sodipodi.sourceforge.net/DTD/sodipodi-0.dtd"
   xmlns="http://www.w3.org/2000/svg"
   xmlns:svg="http://www.w3.org/2000/svg"
   xmlns:rdf="http://www.w3.org/1999/02/22-rdf-syntax-ns#"
   xmlns:cc="http://creativecommons.org/ns#"
   xmlns:dc="http://purl.org/dc/elements/1.1/">
  <title
     id="title95238">RO-Crate root</title>
  <sodipodi:namedview
     id="namedview7"
     pagecolor="#ffffff"
     bordercolor="#666666"
     borderopacity="1.0"
     inkscape:pageshadow="2"
     inkscape:pageopacity="0.0"
     inkscape:pagecheckerboard="0"
     inkscape:document-units="mm"
     showgrid="false"
     units="px"
     width="300px"
     height="200px"
     scale-x="1.1"
     inkscape:zoom="1"
     inkscape:cx="118"
     inkscape:cy="201"
     inkscape:window-width="2560"
     inkscape:window-height="1369"
     inkscape:window-x="-8"
     inkscape:window-y="-8"
     inkscape:window-maximized="1"
     inkscape:current-layer="g95234"
     inkscape:showpageshadow="2"
     inkscape:deskcolor="#d1d1d1" />
  <defs
     id="defs2" />
  <g
     inkscape:label="Layer 1"
     inkscape:groupmode="layer"
     id="layer1">
    <g
       id="g95234"
       transform="translate(-11.6594,-43.9069)">
      <rect
         style="fill:#252526;fill-opacity:1;stroke:#000000;stroke-width:0.28985"
         id="rect27247"
         width="159.867"
         height="54.919518"
         x="16.823576"
         y="50.702232" />
      <g
         id="g94939"
         transform="matrix(1.1485941,0,0,1.4184364,-84.506799,-225.57558)">
        <rect
           style="fill:#93b556;fill-opacity:1;stroke:none;stroke-width:0.422808"
           id="rect90282"
           width="7.1675057"
           height="6.7341723"
           x="100.94921"
           y="207.26013" />
        <path
           id="path74621"
           style="fill:#000000;stroke-width:0.264583"
           d="m 102.15171,208.79138 v 0.26459 0.26458 h 0.91054 0.91054 l 0.16329,-0.26458 0.1633,-0.26459 h -1.07384 z m 2.61483,0 0.16329,0.26459 0.1633,0.26458 h 0.91054 0.91054 v -0.26458 -0.26459 h -1.07384 z m -2.61483,1.05834 v 0.26458 0.26458 h 1.05833 1.05834 v -0.26458 -0.26458 h -1.05834 z m 2.64583,0 v 0.26458 0.26458 h 1.05834 1.05833 v -0.26458 -0.26458 h -1.05833 z m -2.64583,1.32291 v 0.26459 0.26458 h 1.05833 1.05834 v -0.26458 -0.26459 h -1.05834 z m 2.64583,0 v 0.26459 0.26458 h 1.05834 1.05833 v -0.26458 -0.26459 h -1.05833 z m -2.64583,1.05834 v 0.26458 0.26458 h 1.07383 1.07384 l -0.1633,-0.26458 -0.16329,-0.26458 h -0.91054 z m 2.94142,0 -0.1633,0.26458 -0.16329,0.26458 h 1.07383 1.07384 v -0.26458 -0.26458 h -0.91054 z" />
      </g>
      <g
         aria-label="crate1/     data.csv     ro-crate-metadata.json"
         id="text5966"
         style="font-size:10.5833px;line-height:1.45;font-family:'DejaVu Sans';-inkscape-font-specification:'DejaVu Sans, Normal';letter-spacing:0px;word-spacing:0px;fill:#c6cbcc;stroke-width:0.264583">
        <path
           d="m 35.978461,56.451655 v 0.888832 q -0.403075,-0.222208 -0.811317,-0.330728 -0.403075,-0.113688 -0.816485,-0.113688 -0.925006,0 -1.436601,0.589109 -0.511595,0.583942 -0.511595,1.643306 0,1.059363 0.511595,1.648473 0.511595,0.583941 1.436601,0.583941 0.41341,0 0.816485,-0.10852 0.408242,-0.113688 0.811317,-0.335895 v 0.878496 q -0.397907,0.186035 -0.82682,0.279052 -0.423746,0.09302 -0.904335,0.09302 -1.30741,0 -2.077386,-0.821652 -0.769976,-0.821653 -0.769976,-2.216912 0,-1.41593 0.775144,-2.227247 0.780311,-0.811318 2.13423,-0.811318 0.439248,0 0.857826,0.09302 0.418577,0.08785 0.811317,0.268717 z"
           id="path95086" />
        <path
           d="m 40.985891,57.118279 q -0.160196,-0.09302 -0.351398,-0.134358 -0.186035,-0.04651 -0.413411,-0.04651 -0.806149,0 -1.24023,0.527098 -0.428913,0.52193 -0.428913,1.503779 v 3.0489 h -0.956011 v -5.787742 h 0.956011 v 0.899167 q 0.299722,-0.527098 0.780312,-0.780312 0.480589,-0.258381 1.167883,-0.258381 0.09818,0 0.217041,0.0155 0.118855,0.01033 0.263549,0.03617 z"
           id="path95088" />
        <path
           d="m 44.613565,59.107815 q -1.15238,0 -1.596796,0.263549 -0.444416,0.263549 -0.444416,0.899167 0,0.506428 0.330728,0.80615 0.335896,0.294555 0.909502,0.294555 0.790647,0 1.266069,-0.558104 0.480589,-0.563271 0.480589,-1.493444 v -0.211873 z m 1.896519,-0.392739 v 3.302113 h -0.950843 v -0.878497 q -0.32556,0.527098 -0.811317,0.780312 -0.485757,0.248046 -1.188555,0.248046 -0.888831,0 -1.415929,-0.496092 -0.521931,-0.50126 -0.521931,-1.338415 0,-0.976682 0.651121,-1.472774 0.656289,-0.496092 1.953363,-0.496092 h 1.333248 v -0.09302 q 0,-0.656289 -0.434081,-1.012855 -0.428913,-0.361734 -1.209224,-0.361734 -0.496092,0 -0.966346,0.118855 -0.470255,0.118856 -0.904335,0.356567 v -0.878497 q 0.52193,-0.201537 1.012855,-0.299722 0.490924,-0.103353 0.956011,-0.103353 1.255733,0 1.875848,0.651121 0.620115,0.651121 0.620115,1.974034 z"
           id="path95090" />
        <path
           d="m 49.409124,54.586142 v 1.643305 h 1.95853 v 0.738971 h -1.95853 v 3.141917 q 0,0.707965 0.191202,0.909502 0.19637,0.201538 0.790647,0.201538 h 0.976681 v 0.795814 h -0.976681 q -1.100704,0 -1.519282,-0.408242 -0.418578,-0.413411 -0.418578,-1.498612 v -3.141917 h -0.69763 v -0.738971 h 0.69763 v -1.643305 z"
           id="path95092" />
        <path
           d="m 57.568805,58.885607 v 0.465087 h -4.371812 q 0.06201,0.981849 0.589109,1.498611 0.532266,0.511595 1.477942,0.511595 0.547768,0 1.059363,-0.134358 0.516763,-0.134358 1.02319,-0.403075 v 0.899167 q -0.511595,0.217041 -1.049028,0.330728 -0.537433,0.113688 -1.090369,0.113688 -1.384924,0 -2.196242,-0.80615 -0.806149,-0.806149 -0.806149,-2.180738 0,-1.421097 0.764808,-2.253085 0.769977,-0.837156 2.072219,-0.837156 1.167883,0 1.844842,0.754474 0.682127,0.749306 0.682127,2.041212 z m -0.950843,-0.279052 q -0.01033,-0.780311 -0.439248,-1.245398 -0.423746,-0.465086 -1.126543,-0.465086 -0.795815,0 -1.276404,0.449583 -0.475422,0.449584 -0.547768,1.266069 z"
           id="path95094" />
        <path
           d="m 59.444653,61.138692 h 1.705317 v -5.885926 l -1.855178,0.372069 v -0.950844 l 1.844843,-0.372069 h 1.043861 v 6.83677 h 1.705316 v 0.878497 h -4.444159 z"
           id="path95096" />
        <path
           d="m 67.55266,54.301922 h 0.878496 l -2.687166,8.697116 h -0.878496 z"
           id="path95098" />
        <path
           d="m 49.078395,72.453729 v -3.131582 h 0.950843 v 8.040827 h -0.950843 v -0.868161 q -0.299723,0.516762 -0.759641,0.769976 -0.454751,0.248046 -1.095537,0.248046 -1.049028,0 -1.710485,-0.837155 -0.656288,-0.837156 -0.656288,-2.201409 0,-1.364254 0.656288,-2.201409 0.661457,-0.837156 1.710485,-0.837156 0.640786,0 1.095537,0.253214 0.459918,0.248046 0.759641,0.764809 z m -3.240102,2.020542 q 0,1.049028 0.428913,1.648473 0.434081,0.594277 1.188554,0.594277 0.754474,0 1.188554,-0.594277 0.434081,-0.599445 0.434081,-1.648473 0,-1.049029 -0.434081,-1.643306 -0.43408,-0.599444 -1.188554,-0.599444 -0.754473,0 -1.188554,0.599444 -0.428913,0.594277 -0.428913,1.643306 z"
           id="path95100" />
        <path
           d="m 54.618091,74.4536 q -1.15238,0 -1.596796,0.263549 -0.444416,0.263549 -0.444416,0.899167 0,0.506428 0.330728,0.80615 0.335896,0.294555 0.909502,0.294555 0.790647,0 1.266069,-0.558104 0.480589,-0.563271 0.480589,-1.493444 V 74.4536 Z m 1.89652,-0.39274 v 3.302114 h -0.950844 v -0.878497 q -0.32556,0.527098 -0.811317,0.780312 -0.485757,0.248046 -1.188554,0.248046 -0.888832,0 -1.41593,-0.496092 -0.52193,-0.50126 -0.52193,-1.338415 0,-0.976682 0.651121,-1.472774 0.656288,-0.496092 1.953362,-0.496092 h 1.333248 v -0.09302 q 0,-0.656289 -0.43408,-1.012855 -0.428913,-0.361734 -1.209225,-0.361734 -0.496092,0 -0.966346,0.118855 -0.470254,0.118856 -0.904335,0.356567 v -0.878497 q 0.52193,-0.201537 1.012855,-0.299722 0.490924,-0.103353 0.956011,-0.103353 1.255733,0 1.875848,0.651121 0.620116,0.651121 0.620116,1.974033 z"
           id="path95102" />
        <path
           d="m 59.413648,69.931927 v 1.643305 h 1.958531 v 0.738971 h -1.958531 v 3.141917 q 0,0.707965 0.191202,0.909502 0.19637,0.201537 0.790647,0.201537 h 0.976682 v 0.795815 h -0.976682 q -1.100704,0 -1.519282,-0.408243 -0.418578,-0.41341 -0.418578,-1.498611 v -3.141917 h -0.697629 v -0.738971 h 0.697629 v -1.643305 z"
           id="path95104" />
        <path
           d="m 65.253067,74.4536 q -1.152381,0 -1.596797,0.263549 -0.444416,0.263549 -0.444416,0.899167 0,0.506428 0.330728,0.80615 0.335896,0.294555 0.909503,0.294555 0.790647,0 1.266068,-0.558104 0.48059,-0.563271 0.48059,-1.493444 V 74.4536 Z m 1.896519,-0.39274 v 3.302114 h -0.950843 v -0.878497 q -0.325561,0.527098 -0.811318,0.780312 -0.485757,0.248046 -1.188554,0.248046 -0.888832,0 -1.41593,-0.496092 -0.52193,-0.50126 -0.52193,-1.338415 0,-0.976682 0.651121,-1.472774 0.656289,-0.496092 1.953363,-0.496092 h 1.333248 v -0.09302 q 0,-0.656289 -0.434081,-1.012855 -0.428913,-0.361734 -1.209225,-0.361734 -0.496092,0 -0.966346,0.118855 -0.470254,0.118856 -0.904335,0.356567 v -0.878497 q 0.521931,-0.201537 1.012855,-0.299722 0.490925,-0.103353 0.956011,-0.103353 1.255734,0 1.875849,0.651121 0.620115,0.651121 0.620115,1.974033 z"
           id="path95106" />
        <path
           d="m 69.242474,76.050397 h 1.090369 v 1.312577 h -1.090369 z"
           id="path95108" />
        <path
           d="m 76.637347,71.79744 v 0.888832 q -0.403075,-0.222208 -0.811317,-0.330728 -0.403075,-0.113688 -0.816485,-0.113688 -0.925006,0 -1.436601,0.589109 -0.511595,0.583942 -0.511595,1.643306 0,1.059363 0.511595,1.648473 0.511595,0.583941 1.436601,0.583941 0.41341,0 0.816485,-0.10852 0.408242,-0.113688 0.811317,-0.335895 v 0.878496 q -0.397907,0.186035 -0.82682,0.279052 -0.423746,0.09302 -0.904335,0.09302 -1.30741,0 -2.077386,-0.821652 -0.769976,-0.821653 -0.769976,-2.216912 0,-1.41593 0.775144,-2.227248 0.780311,-0.811317 2.13423,-0.811317 0.439248,0 0.857826,0.09302 0.418577,0.08785 0.811317,0.268717 z"
           id="path95110" />
        <path
           d="m 81.980674,71.745764 v 0.899167 q -0.403075,-0.206705 -0.837156,-0.310058 -0.43408,-0.103352 -0.899167,-0.103352 -0.707965,0 -1.064531,0.21704 -0.351399,0.21704 -0.351399,0.651121 0,0.330728 0.253214,0.52193 0.253214,0.186035 1.018023,0.356566 l 0.32556,0.07235 q 1.012855,0.217041 1.4366,0.614948 0.428913,0.392739 0.428913,1.100704 0,0.80615 -0.640785,1.276404 -0.635618,0.470254 -1.751826,0.470254 -0.465086,0 -0.971514,-0.09302 -0.501259,-0.08785 -1.059363,-0.268717 v -0.981849 q 0.527098,0.273884 1.038693,0.41341 0.511595,0.134359 1.012855,0.134359 0.671791,0 1.033525,-0.227376 0.361734,-0.232543 0.361734,-0.651121 0,-0.387572 -0.263549,-0.594277 -0.258381,-0.206705 -1.142046,-0.397907 l -0.330728,-0.07751 q -0.883664,-0.186034 -1.276403,-0.568439 -0.39274,-0.387572 -0.39274,-1.059363 0,-0.816485 0.578774,-1.260901 0.578774,-0.444416 1.643305,-0.444416 0.527098,0 0.992185,0.07751 0.465086,0.07751 0.857826,0.232543 z"
           id="path95112" />
        <path
           d="m 83.12272,71.575232 h 1.007688 l 1.808669,4.857569 1.808669,-4.857569 h 1.007688 l -2.170404,5.787742 h -1.291906 z"
           id="path95114" />
        <path
           d="m 48.623644,87.809849 q -0.160197,-0.09302 -0.351399,-0.134358 -0.186034,-0.04651 -0.41341,-0.04651 -0.80615,0 -1.24023,0.527098 -0.428914,0.52193 -0.428914,1.503779 v 3.0489 h -0.95601 v -5.787742 h 0.95601 v 0.899167 q 0.299723,-0.527098 0.780312,-0.780312 0.480589,-0.258381 1.167884,-0.258381 0.09819,0 0.21704,0.0155 0.118856,0.01033 0.263549,0.03617 z"
           id="path95116" />
        <path
           d="m 51.631202,87.587641 q -0.764809,0 -1.209225,0.599445 -0.444416,0.594277 -0.444416,1.63297 0,1.038693 0.439249,1.638137 0.444416,0.594277 1.214392,0.594277 0.759641,0 1.204057,-0.599444 0.444416,-0.599445 0.444416,-1.63297 0,-1.028358 -0.444416,-1.627803 -0.444416,-0.604612 -1.204057,-0.604612 z m 0,-0.80615 q 1.24023,0 1.948195,0.80615 0.707965,0.80615 0.707965,2.232415 0,1.421097 -0.707965,2.232414 -0.707965,0.80615 -1.948195,0.80615 -1.245398,0 -1.953363,-0.80615 -0.702797,-0.811317 -0.702797,-2.232414 0,-1.426265 0.702797,-2.232415 0.707965,-0.80615 1.953363,-0.80615 z"
           id="path95118" />
        <path
           d="m 55.57927,89.385975 h 2.785351 v 0.847491 H 55.57927 Z"
           id="path95120" />
        <path
           d="m 64.043841,87.143225 v 0.888832 q -0.403075,-0.222208 -0.811317,-0.330728 -0.403075,-0.113688 -0.816485,-0.113688 -0.925005,0 -1.436601,0.589109 -0.511595,0.583942 -0.511595,1.643306 0,1.059363 0.511595,1.648473 0.511596,0.583941 1.436601,0.583941 0.41341,0 0.816485,-0.10852 0.408242,-0.113688 0.811317,-0.335896 v 0.878497 q -0.397907,0.186035 -0.82682,0.279052 -0.423746,0.09302 -0.904335,0.09302 -1.307409,0 -2.077386,-0.821652 -0.769976,-0.821653 -0.769976,-2.216912 0,-1.41593 0.775144,-2.227248 0.780311,-0.811317 2.13423,-0.811317 0.439248,0 0.857826,0.09302 0.418578,0.08785 0.811317,0.268717 z"
           id="path95122" />
        <path
           d="m 69.051272,87.809849 q -0.160196,-0.09302 -0.351398,-0.134358 -0.186035,-0.04651 -0.413411,-0.04651 -0.806149,0 -1.24023,0.527098 -0.428913,0.52193 -0.428913,1.503779 v 3.0489 h -0.956011 v -5.787742 h 0.956011 v 0.899167 q 0.299722,-0.527098 0.780312,-0.780312 0.480589,-0.258381 1.167883,-0.258381 0.09819,0 0.217041,0.0155 0.118855,0.01033 0.263549,0.03617 z"
           id="path95124" />
        <path
           d="m 72.678947,89.799385 q -1.15238,0 -1.596796,0.263549 -0.444416,0.263549 -0.444416,0.899167 0,0.506428 0.330728,0.80615 0.335896,0.294555 0.909502,0.294555 0.790647,0 1.266069,-0.558104 0.480589,-0.563271 0.480589,-1.493444 v -0.211873 z m 1.896519,-0.39274 v 3.302114 h -0.950843 v -0.878497 q -0.32556,0.527098 -0.811317,0.780312 -0.485757,0.248046 -1.188555,0.248046 -0.888831,0 -1.415929,-0.496092 -0.521931,-0.50126 -0.521931,-1.338415 0,-0.976682 0.651121,-1.472774 0.656289,-0.496092 1.953363,-0.496092 h 1.333248 v -0.09302 q 0,-0.656289 -0.434081,-1.012855 -0.428913,-0.361734 -1.209224,-0.361734 -0.496092,0 -0.966346,0.118855 -0.470255,0.118856 -0.904335,0.356567 v -0.878497 q 0.52193,-0.201537 1.012855,-0.299722 0.490924,-0.103353 0.956011,-0.103353 1.255733,0 1.875848,0.651121 0.620115,0.651121 0.620115,1.974033 z"
           id="path95126" />
        <path
           d="m 77.474504,85.277712 v 1.643305 h 1.958531 v 0.738971 h -1.958531 v 3.141917 q 0,0.707965 0.191202,0.909502 0.19637,0.201537 0.790647,0.201537 h 0.976682 v 0.795815 h -0.976682 q -1.100704,0 -1.519282,-0.408243 -0.418578,-0.41341 -0.418578,-1.498611 v -3.141917 h -0.69763 v -0.738971 h 0.69763 v -1.643305 z"
           id="path95128" />
        <path
           d="m 85.634187,89.577177 v 0.465087 h -4.371812 q 0.06201,0.981849 0.589109,1.498611 0.532266,0.511595 1.477942,0.511595 0.547768,0 1.059363,-0.134358 0.516763,-0.134358 1.02319,-0.403075 v 0.899167 q -0.511595,0.217041 -1.049028,0.330728 -0.537433,0.113688 -1.090369,0.113688 -1.384924,0 -2.196242,-0.80615 -0.806149,-0.806149 -0.806149,-2.180738 0,-1.421097 0.764808,-2.253085 0.769977,-0.837156 2.072219,-0.837156 1.167883,0 1.844842,0.754474 0.682127,0.749305 0.682127,2.041212 z m -0.950843,-0.279052 q -0.01034,-0.780311 -0.439248,-1.245398 -0.423746,-0.465086 -1.126543,-0.465086 -0.795815,0 -1.276404,0.449583 -0.475422,0.449584 -0.547768,1.266069 z"
           id="path95130" />
        <path
           d="m 86.714219,89.385975 h 2.785351 v 0.847491 h -2.785351 z"
           id="path95132" />
        <path
           d="m 95.519857,88.032057 q 0.356566,-0.640786 0.852658,-0.945676 0.496093,-0.30489 1.167884,-0.30489 0.904335,0 1.395259,0.635618 0.490925,0.630451 0.490925,1.798334 v 3.493316 h -0.956011 v -3.46231 q 0,-0.831988 -0.294555,-1.235063 -0.294555,-0.403075 -0.899167,-0.403075 -0.73897,0 -1.167883,0.490925 -0.428914,0.490924 -0.428914,1.338415 v 3.271108 h -0.95601 v -3.46231 q 0,-0.837155 -0.294555,-1.235063 -0.294555,-0.403075 -0.909503,-0.403075 -0.728635,0 -1.157548,0.496093 -0.428913,0.490924 -0.428913,1.333247 v 3.271108 h -0.956011 v -5.787742 h 0.956011 v 0.899167 q 0.325561,-0.532266 0.780312,-0.785479 0.454751,-0.253214 1.080034,-0.253214 0.63045,0 1.069698,0.320393 0.444416,0.320393 0.656289,0.930173 z"
           id="path95134" />
        <path
           d="m 106.27369,89.577177 v 0.465087 h -4.37181 q 0.062,0.981849 0.58911,1.498611 0.53226,0.511595 1.47794,0.511595 0.54777,0 1.05936,-0.134358 0.51677,-0.134358 1.02319,-0.403075 v 0.899167 q -0.51159,0.217041 -1.04903,0.330728 -0.53743,0.113688 -1.09036,0.113688 -1.38493,0 -2.19625,-0.80615 -0.80615,-0.806149 -0.80615,-2.180738 0,-1.421097 0.76481,-2.253085 0.76998,-0.837156 2.07222,-0.837156 1.16788,0 1.84484,0.754474 0.68213,0.749305 0.68213,2.041212 z m -0.95084,-0.279052 q -0.0103,-0.780311 -0.43925,-1.245398 -0.42375,-0.465086 -1.12654,-0.465086 -0.79582,0 -1.27641,0.449583 -0.47542,0.449584 -0.54777,1.266069 z"
           id="path95136" />
        <path
           d="m 108.77482,85.277712 v 1.643305 h 1.95853 v 0.738971 h -1.95853 v 3.141917 q 0,0.707965 0.1912,0.909502 0.19637,0.201537 0.79065,0.201537 h 0.97668 v 0.795815 h -0.97668 q -1.10071,0 -1.51928,-0.408243 -0.41858,-0.41341 -0.41858,-1.498611 v -3.141917 h -0.69763 v -0.738971 h 0.69763 v -1.643305 z"
           id="path95138" />
        <path
           d="m 114.61424,89.799385 q -1.15238,0 -1.5968,0.263549 -0.44441,0.263549 -0.44441,0.899167 0,0.506428 0.33072,0.80615 0.3359,0.294555 0.90951,0.294555 0.79064,0 1.26607,-0.558104 0.48058,-0.563271 0.48058,-1.493444 v -0.211873 z m 1.89652,-0.39274 v 3.302114 h -0.95085 v -0.878497 q -0.32556,0.527098 -0.81131,0.780312 -0.48576,0.248046 -1.18856,0.248046 -0.88883,0 -1.41593,-0.496092 -0.52193,-0.50126 -0.52193,-1.338415 0,-0.976682 0.65112,-1.472774 0.65629,-0.496092 1.95337,-0.496092 h 1.33324 v -0.09302 q 0,-0.656289 -0.43408,-1.012855 -0.42891,-0.361734 -1.20922,-0.361734 -0.49609,0 -0.96635,0.118855 -0.47025,0.118856 -0.90433,0.356567 v -0.878497 q 0.52193,-0.201537 1.01285,-0.299722 0.49093,-0.103353 0.95601,-0.103353 1.25574,0 1.87585,0.651121 0.62012,0.651121 0.62012,1.974033 z"
           id="path95140" />
        <path
           d="m 122.27783,87.799514 v -3.131582 h 0.95085 v 8.040827 h -0.95085 v -0.868161 q -0.29972,0.516762 -0.75964,0.769976 -0.45475,0.248046 -1.09554,0.248046 -1.04902,0 -1.71048,-0.837155 -0.65629,-0.837156 -0.65629,-2.201409 0,-1.364254 0.65629,-2.201409 0.66146,-0.837156 1.71048,-0.837156 0.64079,0 1.09554,0.253214 0.45992,0.248046 0.75964,0.764809 z m -3.2401,2.020542 q 0,1.049028 0.42891,1.648473 0.43408,0.594277 1.18856,0.594277 0.75447,0 1.18855,-0.594277 0.43408,-0.599445 0.43408,-1.648473 0,-1.049029 -0.43408,-1.643306 -0.43408,-0.599444 -1.18855,-0.599444 -0.75448,0 -1.18856,0.599444 -0.42891,0.594277 -0.42891,1.643306 z"
           id="path95142" />
        <path
           d="m 127.81752,89.799385 q -1.15238,0 -1.59679,0.263549 -0.44442,0.263549 -0.44442,0.899167 0,0.506428 0.33073,0.80615 0.3359,0.294555 0.9095,0.294555 0.79065,0 1.26607,-0.558104 0.48059,-0.563271 0.48059,-1.493444 v -0.211873 z m 1.89652,-0.39274 v 3.302114 h -0.95084 v -0.878497 q -0.32556,0.527098 -0.81132,0.780312 -0.48575,0.248046 -1.18855,0.248046 -0.88883,0 -1.41593,-0.496092 -0.52193,-0.50126 -0.52193,-1.338415 0,-0.976682 0.65112,-1.472774 0.65629,-0.496092 1.95336,-0.496092 h 1.33325 v -0.09302 q 0,-0.656289 -0.43408,-1.012855 -0.42891,-0.361734 -1.20923,-0.361734 -0.49609,0 -0.96634,0.118855 -0.47026,0.118856 -0.90434,0.356567 v -0.878497 q 0.52193,-0.201537 1.01286,-0.299722 0.49092,-0.103353 0.95601,-0.103353 1.25573,0 1.87585,0.651121 0.62011,0.651121 0.62011,1.974033 z"
           id="path95144" />
        <path
           d="m 132.61308,85.277712 v 1.643305 h 1.95853 v 0.738971 h -1.95853 v 3.141917 q 0,0.707965 0.19121,0.909502 0.19637,0.201537 0.79064,0.201537 h 0.97668 v 0.795815 h -0.97668 q -1.1007,0 -1.51928,-0.408243 -0.41858,-0.41341 -0.41858,-1.498611 v -3.141917 h -0.69763 v -0.738971 h 0.69763 v -1.643305 z"
           id="path95146" />
        <path
           d="m 138.4525,89.799385 q -1.15238,0 -1.59679,0.263549 -0.44442,0.263549 -0.44442,0.899167 0,0.506428 0.33073,0.80615 0.33589,0.294555 0.9095,0.294555 0.79065,0 1.26607,-0.558104 0.48059,-0.563271 0.48059,-1.493444 v -0.211873 z m 1.89652,-0.39274 v 3.302114 h -0.95084 v -0.878497 q -0.32556,0.527098 -0.81132,0.780312 -0.48576,0.248046 -1.18855,0.248046 -0.88883,0 -1.41593,-0.496092 -0.52193,-0.50126 -0.52193,-1.338415 0,-0.976682 0.65112,-1.472774 0.65629,-0.496092 1.95336,-0.496092 h 1.33325 v -0.09302 q 0,-0.656289 -0.43408,-1.012855 -0.42891,-0.361734 -1.20923,-0.361734 -0.49609,0 -0.96634,0.118855 -0.47026,0.118856 -0.90434,0.356567 v -0.878497 q 0.52193,-0.201537 1.01286,-0.299722 0.49092,-0.103353 0.95601,-0.103353 1.25573,0 1.87585,0.651121 0.62011,0.651121 0.62011,1.974033 z"
           id="path95148" />
        <path
           d="m 142.44191,91.396182 h 1.09037 v 1.312577 h -1.09037 z"
           id="path95150" />
        <path
           d="m 145.67168,86.921017 h 0.95084 v 5.891095 q 0,1.105872 -0.42375,1.601964 -0.41857,0.496092 -1.35391,0.496092 h -0.36174 v -0.80615 h 0.25322 q 0.5426,0 0.73897,-0.253214 0.19637,-0.248046 0.19637,-1.038692 z m 0,-2.253085 h 0.95084 v 1.204057 h -0.95084 z"
           id="path95152" />
        <path
           d="m 152.30174,87.091549 v 0.899167 q -0.40308,-0.206705 -0.83716,-0.310058 -0.43408,-0.103352 -0.89916,-0.103352 -0.70797,0 -1.06454,0.21704 -0.35139,0.21704 -0.35139,0.651121 0,0.330728 0.25321,0.52193 0.25321,0.186035 1.01802,0.356566 l 0.32556,0.07235 q 1.01286,0.217041 1.4366,0.614948 0.42892,0.392739 0.42892,1.100704 0,0.80615 -0.64079,1.276404 -0.63562,0.470254 -1.75183,0.470254 -0.46508,0 -0.97151,-0.09302 -0.50126,-0.08785 -1.05936,-0.268717 v -0.981849 q 0.52709,0.273884 1.03869,0.41341 0.51159,0.134359 1.01285,0.134359 0.6718,0 1.03353,-0.227376 0.36173,-0.232543 0.36173,-0.651121 0,-0.387572 -0.26355,-0.594277 -0.25838,-0.206705 -1.14204,-0.397907 l -0.33073,-0.07752 q -0.88366,-0.186034 -1.2764,-0.568439 -0.39274,-0.387572 -0.39274,-1.059363 0,-0.816485 0.57877,-1.260901 0.57878,-0.444416 1.64331,-0.444416 0.5271,0 0.99218,0.07751 0.46509,0.07752 0.85783,0.232544 z"
           id="path95154" />
        <path
           d="m 156.36866,87.587641 q -0.7648,0 -1.20922,0.599445 -0.44442,0.594277 -0.44442,1.63297 0,1.038693 0.43925,1.638137 0.44442,0.594277 1.21439,0.594277 0.75965,0 1.20406,-0.599444 0.44442,-0.599445 0.44442,-1.63297 0,-1.028358 -0.44442,-1.627803 -0.44441,-0.604612 -1.20406,-0.604612 z m 0,-0.80615 q 1.24024,0 1.9482,0.80615 0.70797,0.80615 0.70797,2.232415 0,1.421097 -0.70797,2.232414 -0.70796,0.80615 -1.9482,0.80615 -1.24539,0 -1.95336,-0.80615 -0.7028,-0.811317 -0.7028,-2.232414 0,-1.426265 0.7028,-2.232415 0.70797,-0.80615 1.95336,-0.80615 z"
           id="path95156" />
        <path
           d="m 165.41201,89.215443 v 3.493316 h -0.95084 v -3.46231 q 0,-0.821653 -0.32039,-1.229895 -0.3204,-0.408243 -0.96118,-0.408243 -0.76998,0 -1.2144,0.490925 -0.44441,0.490924 -0.44441,1.338415 v 3.271108 h -0.95601 v -5.787742 h 0.95601 v 0.899167 q 0.34106,-0.52193 0.80098,-0.780312 0.46509,-0.258381 1.0697,-0.258381 0.99735,0 1.50895,0.620115 0.51159,0.614948 0.51159,1.813837 z"
           id="path95158" />
      </g>
      <text
         xml:space="preserve"
         style="font-style:normal;font-variant:normal;font-weight:normal;font-stretch:normal;font-size:10.5833px;line-height:1.45;font-family:'DejaVu Sans';-inkscape-font-specification:'DejaVu Sans, Normal';font-variant-ligatures:normal;font-variant-caps:normal;font-variant-numeric:normal;font-variant-east-asian:normal;letter-spacing:0px;word-spacing:0px;fill:#c6cbcc;fill-opacity:0;stroke:none;stroke-width:0.264583;opacity:1"
         x="31.107971"
         y="62.017189"
         id="text5966-4"><tspan
           sodipodi:role="line"
           id="tspan5964-8"
           style="font-style:normal;font-variant:normal;font-weight:normal;font-stretch:normal;font-size:10.5833px;font-family:'DejaVu Sans';-inkscape-font-specification:'DejaVu Sans, Normal';font-variant-ligatures:normal;font-variant-caps:normal;font-variant-numeric:normal;font-variant-east-asian:normal;fill:#c6cbcc;fill-opacity:0;stroke-width:0.264583"
           x="31.107971"
           y="62.017189">crate1/</tspan><tspan
           sodipodi:role="line"
           style="font-style:normal;font-variant:normal;font-weight:normal;font-stretch:normal;font-size:10.5833px;font-family:'DejaVu Sans';-inkscape-font-specification:'DejaVu Sans, Normal';font-variant-ligatures:normal;font-variant-caps:normal;font-variant-numeric:normal;font-variant-east-asian:normal;fill:#c6cbcc;fill-opacity:0;stroke-width:0.264583"
           x="31.107971"
           y="77.362976"
           id="tspan5968-1">    data.csv</tspan><tspan
           sodipodi:role="line"
           style="font-style:normal;font-variant:normal;font-weight:normal;font-stretch:normal;font-size:10.5833px;font-family:'DejaVu Sans';-inkscape-font-specification:'DejaVu Sans, Normal';font-variant-ligatures:normal;font-variant-caps:normal;font-variant-numeric:normal;font-variant-east-asian:normal;fill:#c6cbcc;fill-opacity:0;stroke-width:0.264583"
           x="31.107971"
           y="92.708755"
           id="tspan5970-2">    ro-crate-metadata.json</tspan></text>
      <g
         aria-label="^"
         id="text42090"
         style="font-size:10.5833px;line-height:1.25;letter-spacing:0px;word-spacing:0px;fill:#c6cbcc;fill-opacity:1;stroke-width:0.264583"
         transform="matrix(1.3927162,0,0,-1.3927162,-37.303262,2.0621696)">
        <path
           d="m 44.322911,-40.264225 2.806021,2.878369 h -1.038693 l -2.273755,-2.041213 -2.273756,2.041213 h -1.038693 l 2.806021,-2.878369 z"
           id="path44614"
           style="fill:#c6cbcc;fill-opacity:1" />
      </g>
      <g
         aria-label="{}"
         id="text65645"
         style="font-size:10.5833px;line-height:1.25;letter-spacing:0px;word-spacing:0px;fill:#b0ae4d;stroke-width:0.264583"
         transform="translate(0,-0.52916667)">
        <path
           d="m 34.617872,93.307502 v 0.744138 h -0.320393 q -1.286739,0 -1.725987,-0.382404 -0.434081,-0.382404 -0.434081,-1.52445 v -1.235063 q 0,-0.780311 -0.279052,-1.080034 -0.279051,-0.299722 -1.012854,-0.299722 h -0.315226 v -0.738971 h 0.315226 q 0.73897,0 1.012854,-0.294554 0.279052,-0.299723 0.279052,-1.069699 v -1.240231 q 0,-1.142045 0.434081,-1.519282 0.439248,-0.382404 1.725987,-0.382404 h 0.320393 v 0.73897 h -0.351398 q -0.728636,0 -0.950844,0.227376 -0.222208,0.227376 -0.222208,0.956011 v 1.281571 q 0,0.811318 -0.237711,1.178219 -0.232543,0.366902 -0.800982,0.496092 0.573607,0.139526 0.80615,0.506428 0.232543,0.366901 0.232543,1.173051 v 1.281572 q 0,0.728635 0.222208,0.956011 0.222208,0.227375 0.950844,0.227375 z"
           id="path74508" />
        <path
           d="m 37.263697,93.307502 h 0.361734 q 0.723468,0 0.940508,-0.222208 0.222208,-0.222208 0.222208,-0.961178 v -1.281572 q 0,-0.80615 0.232543,-1.173051 0.232543,-0.366902 0.80615,-0.506428 -0.573607,-0.12919 -0.80615,-0.496092 -0.232543,-0.366901 -0.232543,-1.178219 v -1.281571 q 0,-0.733803 -0.222208,-0.956011 -0.21704,-0.227376 -0.940508,-0.227376 h -0.361734 v -0.73897 h 0.32556 q 1.286739,0 1.715652,0.382404 0.434081,0.377237 0.434081,1.519282 v 1.240231 q 0,0.769976 0.279052,1.069699 0.279052,0.294554 1.012855,0.294554 h 0.320393 v 0.738971 h -0.320393 q -0.733803,0 -1.012855,0.299722 -0.279052,0.299723 -0.279052,1.080034 v 1.235063 q 0,1.142046 -0.434081,1.52445 -0.428913,0.382404 -1.715652,0.382404 h -0.32556 z"
           id="path74510" />
      </g>
    </g>
  </g>
  <metadata
     id="metadata95236">
    <rdf:RDF>
      <cc:Work
         rdf:about="">
        <dc:title>RO-Crate root</dc:title>
        <dc:date>2023-05-23</dc:date>
        <dc:creator>
          <cc:Agent>
            <dc:title>Stian Soiland-Reyes https://orcid.org/0000-0001-9842-9718</dc:title>
          </cc:Agent>
        </dc:creator>
        <cc:license
           rdf:resource="http://creativecommons.org/publicdomain/zero/1.0/" />
      </cc:Work>
      <cc:License
         rdf:about="http://creativecommons.org/publicdomain/zero/1.0/">
        <cc:permits
           rdf:resource="http://creativecommons.org/ns#Reproduction" />
        <cc:permits
           rdf:resource="http://creativecommons.org/ns#Distribution" />
        <cc:permits
           rdf:resource="http://creativecommons.org/ns#DerivativeWorks" />
      </cc:License>
    </rdf:RDF>
  </metadata>
</svg>
