<?xml version="1.0" encoding="utf-8"?>
<!-- Generator: Adobe Illustrator 16.0.0, SVG Export Plug-In . SVG Version: 6.00 Build 0)  -->
<!DOCTYPE svg PUBLIC "-//W3C//DTD SVG 1.1//EN" "http://www.w3.org/Graphics/SVG/1.1/DTD/svg11.dtd">
<svg version="1.1" id="Layer_1" xmlns="http://www.w3.org/2000/svg" xmlns:xlink="http://www.w3.org/1999/xlink" x="0px" y="0px"
	 width="138px" height="59px" viewBox="0 0 138 59" enable-background="new 0 0 138 59" xml:space="preserve">
<g>
	<defs>
		<rect id="SVGID_1_" width="138" height="59"/>
	</defs>
	<clipPath id="SVGID_2_">
		<use xlink:href="#SVGID_1_"  overflow="visible"/>
	</clipPath>
	<path clip-path="url(#SVGID_2_)" fill="#CC0000" d="M28.594,29.468c-0.537,4.71-4.799,8.093-9.52,7.558
		c-4.722-0.533-8.114-4.785-7.579-9.494c0.537-4.707,4.799-8.091,9.521-7.557C25.737,20.51,29.13,24.76,28.594,29.468"/>
	<path clip-path="url(#SVGID_2_)" fill="#CC0000" d="M35.868,11.457c-0.395,3.476-3.542,5.973-7.026,5.578
		c-3.485-0.394-5.99-3.532-5.594-7.007c0.396-3.475,3.542-5.972,7.027-5.578C33.76,4.845,36.264,7.981,35.868,11.457"/>
	<path clip-path="url(#SVGID_2_)" fill="#CC0000" d="M51.717,14.663c-0.306,2.691-2.742,4.624-5.439,4.318
		c-2.698-0.305-4.637-2.735-4.331-5.424c0.307-2.69,2.742-4.623,5.44-4.319C50.085,9.543,52.024,11.973,51.717,14.663"/>
	<path clip-path="url(#SVGID_2_)" fill="#CC0000" d="M59.218,4.41c-0.23,2.019-2.056,3.467-4.079,3.24
		c-2.024-0.23-3.478-2.052-3.248-4.07c0.229-2.018,2.056-3.467,4.08-3.239C57.994,0.57,59.448,2.392,59.218,4.41"/>
	<path clip-path="url(#SVGID_2_)" fill="#CC0000" d="M69.187,10.078c-0.206,1.816-1.85,3.122-3.671,2.916s-3.13-1.847-2.923-3.662
		c0.207-1.816,1.851-3.122,3.673-2.916C68.085,6.622,69.394,8.263,69.187,10.078"/>
	<path clip-path="url(#SVGID_2_)" fill="#CC0000" d="M75.725,3.107c-0.174,1.534-1.562,2.633-3.098,2.46
		c-1.537-0.174-2.641-1.558-2.465-3.09c0.174-1.533,1.56-2.634,3.098-2.459C74.796,0.19,75.9,1.574,75.725,3.107"/>
	<path clip-path="url(#SVGID_2_)" fill="#CC0000" d="M82.592,10.179c-0.165,1.447-1.475,2.487-2.927,2.322
		c-1.449-0.164-2.495-1.471-2.329-2.918c0.165-1.446,1.476-2.487,2.926-2.322C81.714,7.426,82.757,8.73,82.592,10.179"/>
	<path clip-path="url(#SVGID_2_)" fill="#CC0000" d="M89.94,8.335c-0.138,1.209-1.234,2.081-2.448,1.944
		c-1.216-0.138-2.086-1.231-1.948-2.443c0.138-1.209,1.234-2.08,2.446-1.941C89.206,6.031,90.077,7.125,89.94,8.335"/>
	<path clip-path="url(#SVGID_2_)" fill="#CC0000" d="M93.958,12.891c-0.096,0.841-0.856,1.444-1.7,1.35
		c-0.844-0.097-1.448-0.855-1.354-1.696c0.096-0.841,0.855-1.446,1.701-1.349C93.448,11.29,94.053,12.05,93.958,12.891"/>
	<path clip-path="url(#SVGID_2_)" d="M3.431,49.941c0.394-0.439,0.949-0.948,1.761-0.948c0.811,0,1.46,0.485,1.692,1.503
		C7,51.004,7.023,51.442,7.023,52.507c0,1.456-0.069,2.081-0.348,2.727c-0.255,0.625-0.741,0.925-1.506,0.925
		c-0.835,0-1.321-0.393-1.738-0.763V49.941z M3.268,41.435l-3.176,0.74c0.163,0.67,0.209,1.455,0.209,2.913v10.953
		c0,1.644-0.069,1.989-0.301,2.521h2.781c0.209-0.324,0.232-0.438,0.325-0.855c0.672,0.74,1.483,1.087,2.642,1.087
		c0.974,0,1.785-0.278,2.596-0.925c1.461-1.156,2.202-3.028,2.202-5.433c0-3.698-1.807-6.008-4.705-6.008
		c-1.089,0-1.924,0.299-2.526,0.944c0.046-0.183,0.069-0.691,0.069-1.038v-2.798C3.384,42.729,3.361,42.243,3.268,41.435"/>
	<path clip-path="url(#SVGID_2_)" d="M14.881,46.449v12.112h-3.106V46.936L14.881,46.449z M15.252,43.468
		c0,1.063-0.858,1.92-1.924,1.92c-1.043,0-1.901-0.856-1.901-1.92s0.881-1.917,1.948-1.917
		C14.417,41.551,15.252,42.404,15.252,43.468"/>
	<path clip-path="url(#SVGID_2_)" d="M21.462,48.785c0.557,0,1.044,0.229,1.345,0.625c0.418,0.531,0.626,1.57,0.626,3.166
		c0,2.796-0.579,3.999-1.924,3.999c-0.602,0-1.297-0.324-1.576-0.972c-0.255-0.601-0.393-1.617-0.393-2.982
		c0-1.179,0.115-2.011,0.324-2.634C20.118,49.247,20.721,48.785,21.462,48.785 M21.417,46.496c-3.199,0-5.331,2.475-5.331,6.195
		s2.108,6.125,5.331,6.125c1.831,0,3.013-0.625,3.917-1.64c1.02-1.157,1.483-2.543,1.483-4.577c0-1.919-0.417-3.213-1.367-4.324
		C24.43,47.075,23.108,46.496,21.417,46.496"/>
	<path clip-path="url(#SVGID_2_)" d="M28.325,47.098l1.877-0.3v11.764h-1.877V47.098z M29.298,42.082
		c0.789,0,1.414,0.624,1.414,1.409c0,0.786-0.625,1.411-1.414,1.411c-0.788,0-1.414-0.625-1.414-1.388
		C27.884,42.728,28.51,42.082,29.298,42.082"/>
	<path clip-path="url(#SVGID_2_)" d="M32.52,47.259l1.761-0.484c0,0,0.418,0.854,0.418,1.803c1.204-1.203,2.41-1.779,3.638-1.779
		c1.253,0,2.365,0.669,2.829,1.687c0.185,0.416,0.278,0.879,0.278,1.34v8.738h-1.832v-7.79c0-1.225-0.092-1.525-0.417-1.919
		c-0.255-0.301-0.741-0.485-1.275-0.485c-0.926,0-2.364,0.74-3.198,1.619v8.575H32.96v-8.875
		C32.96,48.046,32.52,47.259,32.52,47.259"/>
	<path clip-path="url(#SVGID_2_)" d="M49.417,43.769c-0.44-0.254-1.089-0.53-1.715-0.53c-1.021,0-1.576,0.716-1.576,2.034v1.778
		h3.199l-0.557,1.364h-2.642v10.146h-1.902V48.415h-1.112v-1.364h1.112v-1.802c0-1.711,0.788-2.451,1.276-2.821
		c0.555-0.414,1.181-0.6,2.039-0.6c0.996,0,1.878,0.23,2.549,0.67L49.417,43.769z"/>
	<path clip-path="url(#SVGID_2_)" d="M56.301,49.663c0.371,0.763,0.533,1.85,0.533,3.467c0,1.134-0.092,1.781-0.347,2.496
		c-0.394,1.11-1.3,1.735-2.504,1.735c-0.997,0-1.924-0.463-2.341-1.157c-0.44-0.716-0.718-2.149-0.718-3.768
		c0-1.362,0.185-2.287,0.556-3.004c0.395-0.764,1.344-1.249,2.364-1.249C54.795,48.184,55.814,48.646,56.301,49.663 M48.954,52.738
		c0,3.79,1.807,6.125,4.982,6.125c2.898,0,4.961-2.035,4.961-5.871c0-1.873-0.347-3.236-1.066-4.276
		c-0.788-1.133-2.04-2.011-3.963-2.011C50.831,46.705,48.954,48.994,48.954,52.738"/>
	<path clip-path="url(#SVGID_2_)" d="M60.659,47.236l1.808-0.485c0,0,0.44,0.9,0.37,1.873c0.834-1.18,2.063-1.919,3.246-1.919
		c0.301,0,0.625,0.114,0.625,0.114l-0.742,1.966c-0.116-0.046-0.325-0.094-0.509-0.094c-0.695,0-1.391,0.303-1.924,0.833
		c-0.534,0.531-0.673,0.878-0.673,1.826v7.211h-1.808v-8.874C61.052,47.999,60.659,47.236,60.659,47.236"/>
	<path clip-path="url(#SVGID_2_)" d="M67.219,47.19l1.762-0.416c0,0,0.416,0.901,0.416,1.71c0.766-0.854,2.181-1.733,3.361-1.733
		c1.136,0,2.272,0.693,2.69,1.917c1.11-1.178,2.524-1.917,3.709-1.917c1.713,0,2.896,1.294,2.896,3.12v8.691h-1.854v-8.506
		c0-1.11-0.511-1.688-1.484-1.688c-1.042,0-1.854,0.671-3.06,1.782v8.412h-1.831V50.38c0-0.692-0.068-1.154-0.324-1.479
		c-0.277-0.323-0.648-0.463-1.183-0.463c-0.88,0-1.738,0.439-2.942,1.527v8.598h-1.74V49.64
		C67.635,47.976,67.219,47.19,67.219,47.19"/>
	<path clip-path="url(#SVGID_2_)" d="M90.677,55.72c-0.535,1.086-1.624,1.803-2.806,1.803c-1.321,0-1.992-0.739-1.992-2.104
		c0-1.757,1.041-2.75,3.962-2.75c0.325,0,0.603,0.024,0.904,0.047L90.677,55.72z M85.183,49.594c0.742-0.67,2.387-1.362,3.685-1.362
		c0.72,0,1.184,0.206,1.554,0.622c0.324,0.372,0.371,0.786,0.371,1.805v0.807c0,0-0.324-0.021-0.812-0.021
		c-3.871,0-6.118,1.524-6.118,4.137c0,1.55,0.857,3.283,3.708,3.283c1.32,0,2.226-0.439,3.338-1.55
		c0.208,0.811,0.787,1.434,1.576,1.687l0.928-1.293c-0.857-0.463-0.975-0.947-0.928-2.82l0.095-3.79c0.021-1.04,0-1.92-0.257-2.544
		c-0.487-1.179-1.6-1.802-3.198-1.802c-1.669,0-3.315,0.532-4.846,1.548L85.183,49.594z"/>
	<path clip-path="url(#SVGID_2_)" d="M100.225,47.051l-0.556,1.364h-2.411v7.421c0,1.271,0.348,1.71,1.484,1.71
		c0.51,0,0.811-0.07,1.136-0.232l0.254,1.156c-0.579,0.301-1.228,0.462-2.038,0.462c-0.604,0-1.067-0.115-1.507-0.323
		c-0.812-0.393-1.113-1.133-1.113-2.289v-7.904h-1.507v-1.364h1.507c0-1.109,0.187-2.912,0.187-2.912l1.898-0.416
		c0,0-0.229,1.803-0.229,3.328H100.225z"/>
	<path clip-path="url(#SVGID_2_)" d="M101.568,47.098l1.879-0.3v11.764h-1.879V47.098z M102.544,42.082
		c0.787,0,1.412,0.624,1.412,1.409c0,0.786-0.625,1.411-1.412,1.411c-0.789,0-1.415-0.625-1.415-1.388
		C101.129,42.728,101.755,42.082,102.544,42.082"/>
	<path clip-path="url(#SVGID_2_)" d="M113.46,47.999l-0.997,1.249c-0.811-0.671-1.321-0.926-2.201-0.926
		c-0.904,0-1.764,0.509-2.179,1.295c-0.439,0.809-0.649,2.081-0.649,3.768c0,2.588,0.997,4,2.851,4c0.929,0,1.81-0.439,2.48-1.249
		l0.997,1.156c-1.066,1.085-2.086,1.524-3.522,1.524c-1.646,0-2.875-0.577-3.687-1.733c-0.766-1.11-1.112-2.381-1.112-4.092
		c0-2.519,0.741-3.906,1.739-4.901c0.903-0.899,1.898-1.339,3.128-1.339C111.767,46.751,112.626,47.306,113.46,47.999"/>
	<path clip-path="url(#SVGID_2_)" d="M122.221,47.538l-0.672,1.34c-1.02-0.485-1.876-0.832-2.897-0.832
		c-1.321,0-2.18,0.763-2.18,1.896c0,0.878,0.442,1.409,1.671,1.663l1.53,0.324c2.085,0.438,3.083,1.503,3.083,3.213
		c0,2.243-1.763,3.768-4.359,3.768c-1.46,0-3.06-0.439-4.241-1.155l0.694-1.341c1.185,0.717,2.388,1.086,3.663,1.086
		c1.414,0,2.34-0.763,2.34-1.987c0-1.04-0.578-1.619-1.899-1.897l-1.437-0.3c-1.901-0.391-2.92-1.571-2.92-3.165
		c0-2.08,1.69-3.537,4.102-3.537C119.903,46.612,121.249,46.982,122.221,47.538"/>
	<path clip-path="url(#SVGID_2_)" d="M124.503,58.771c-0.612,0-1.099-0.514-1.099-1.137c0-0.611,0.473-1.096,1.071-1.096
		c0.611,0,1.112,0.484,1.112,1.096C125.588,58.257,125.087,58.771,124.503,58.771"/>
	<path clip-path="url(#SVGID_2_)" d="M129.246,58.743c-1.921,0-2.992-1.345-2.992-3.607c0-2.551,1.53-3.771,3.102-3.771
		c0.765,0,1.323,0.181,1.947,0.763l-0.765,1.012c-0.418-0.373-0.779-0.54-1.183-0.54c-0.486,0-0.889,0.248-1.113,0.707
		c-0.206,0.431-0.292,1.081-0.292,1.955c0,0.957,0.152,1.567,0.474,1.915c0.223,0.249,0.557,0.401,0.932,0.401
		c0.485,0,0.96-0.235,1.421-0.693l0.722,0.93C130.858,58.451,130.19,58.743,129.246,58.743"/>
	<path clip-path="url(#SVGID_2_)" d="M135.901,55.261l-0.027,1.665c-0.306,0.444-0.78,0.735-1.267,0.735
		c-0.612,0-0.974-0.416-0.974-1.082c0-0.888,0.461-1.332,1.989-1.332C135.735,55.247,135.901,55.261,135.901,55.261 M138,57.883
		c-0.541-0.374-0.625-0.679-0.611-1.622l0.029-2.012c0.014-1.039,0.014-1.415-0.111-1.721c-0.306-0.763-1.044-1.164-2.143-1.164
		c-1.056,0-1.936,0.292-2.99,0.958l0.683,1.096c0,0,1.084-0.805,2.101-0.805c0.833,0,0.972,0.429,0.972,1.233v0.375h-0.472
		c-2.255,0-3.479,0.818-3.479,2.44c0,1.221,0.724,2.108,2.336,2.108c0.752,0,1.365-0.223,1.935-0.86
		c0.166,0.443,0.529,0.776,0.959,0.944L138,57.883z"/>
</g>
</svg>
