<?xml version="1.0" encoding="utf-8"?>
<!-- Generator: Adobe Illustrator 25.0.0, SVG Export Plug-In . SVG Version: 6.00 Build 0)  -->
<svg version="1.1" id="Layer_1" xmlns="http://www.w3.org/2000/svg" xmlns:xlink="http://www.w3.org/1999/xlink" x="0px" y="0px"
	 viewBox="0 0 630.5 132.4" style="enable-background:new 0 0 630.5 132.4;" xml:space="preserve">
<style type="text/css">
	.st0{fill:#FFFFFF;}
	.st1{fill:#EE3124;}
</style>
<g>
	<g>
		<path d="M5.6,5.5h5.2v26c0,8.9,5.2,12.5,12,12.5c6.8,0,11.9-3.7,11.9-12.1V5.5h5.2v26.2c0,11-7.7,16.9-17.2,16.9
			c-9.4,0-17.1-4.4-17.1-16V5.5z"/>
		<path d="M58.1,5.5h5.2L87.9,40V5.5H93v42.3h-5.2l-24.7-34v34h-5.1V5.5z"/>
		<path d="M111.7,5.5h5.2v42.3h-5.2V5.5z"/>
		<path d="M130.4,5.5h5.5l12.4,34.9l12.4-34.9h5.3l-15.3,42.6h-5.1L130.4,5.5z"/>
		<path d="M179.3,5.5h24.9v4.4h-19.7V24h15.6v4.4h-15.6v15h19.6v4.4h-24.8V5.5z"/>
		<path d="M220,5.5h11.1c10.9,0,15.1,5.6,15.1,11.5c0,6.1-4.6,10-8.7,11.9l12.8,18.9h-6.1L232,29.9h-6.8v17.8H220V5.5z M231.9,25.6
			c4.1,0,8.7-2.8,8.7-8c0-4-2.7-7.7-10.5-7.7h-4.9v15.7H231.9z"/>
		<path d="M262.2,40.1c0,0,4.9,3.8,11,3.8c4.6,0,8.4-2.1,8.4-6.1c0-9.6-20.1-9.1-20.1-22c0-6.1,4.9-11,13.8-11
			c5.6,0,10.8,1.9,10.8,1.9l-1.3,4.9c0,0-4.7-2.2-9.6-2.2c-4.7,0-8.3,2-8.3,5.8c0,9.8,20.1,8.7,20.1,22.2c0,7.4-6.3,11.2-13.9,11.2
			c-7.4,0-12.2-3.5-12.2-3.5L262.2,40.1z"/>
		<path d="M302.6,5.5h5.2v42.3h-5.2V5.5z"/>
		<path d="M336.4,9.9h-15V5.5h35.4v4.4h-15.2v37.9h-5.2V9.9z"/>
		<path d="M379.9,29.4L364.7,5.5h6.1l11.7,18.8l11.8-18.8h5.8l-15.1,23.8v18.4h-5.2V29.4z"/>
	</g>
	<g>
		<path d="M18,76.7H0v-8.8h46.4v8.8H28.5v45.8H18V76.7z"/>
		<path d="M72.8,67.4h10.1l20.6,55H92.7l-4.4-12.3H67.2l-4.4,12.3H52.3L72.8,67.4z M70.3,101.4h14.8l-7.4-20.6L70.3,101.4z"/>
		<path d="M118.3,109.5c0,0,5.9,4.9,13.5,4.8c4.6,0,8.6-2,8.6-5.8c0-9.8-24.3-9.5-24.3-26c0-8.4,6.9-15.6,18.8-15.6
			c7.6,0,14.8,2.5,14.8,2.5l-1.7,9.5c0,0-6.4-2.8-12.9-2.8c-4.7,0-8.4,1.9-8.4,5.4c0,9.9,24.2,9,24.2,26.2c0,9.9-8.5,15.8-19,15.8
			c-9.9,0-16.7-4.6-16.7-4.6L118.3,109.5z"/>
		<path d="M170.3,67.8h15.2l13.2,37.9l13.2-37.9h14.9l2,54.6h-10.2l-1.6-42.8l-15.2,42.8h-6.9l-15-42.7l-1.4,42.7h-10.2L170.3,67.8z
			"/>
		<path d="M263.6,67.4h10.1l20.6,55h-10.7l-4.4-12.3H258l-4.4,12.3h-10.5L263.6,67.4z M261.1,101.4h14.8l-7.4-20.6L261.1,101.4z"/>
		<path d="M309.7,67.8h10.6l26.6,38.5V67.8h10.3v54.6h-10.7L320,84.2v38.3h-10.3V67.8z"/>
		<path d="M379,67.8h10.6v54.6H379V67.8z"/>
		<path d="M425.6,67.4h10.1l20.6,55h-10.7l-4.4-12.3h-21.1l-4.4,12.3H405L425.6,67.4z M423,101.4h14.8l-7.4-20.6L423,101.4z"/>
	</g>
	<g>
		<path d="M423.9,17.4c5.9,0,8.8,4.6,8.8,9.4c0,6-4.8,14.8-13,14.8c-5.9,0-8.8-4.6-8.8-9.7C411,24.8,416.5,17.4,423.9,17.4z
			 M420.1,38.2c5.3,0,8.6-6.1,8.6-11.3c0-3.5-1.5-6.2-4.9-6.2c-4.7,0-8.7,4.7-8.7,10.9C415.1,35.5,416.6,38.2,420.1,38.2z"/>
		<path d="M437.4,19.1l3.6-1.3l0.2-1.1c0.8-6,3.3-12.8,10.7-12.8c3.6,0,5.7,1.4,5.7,1.4l-1.7,3.1c0,0-1.8-1.1-3.9-1.1
			c-5.1,0-6.3,5.3-7.2,10.8h6.2l-0.7,3.2h-5.9c-1.5,12.4-3.2,29.1-12.4,31.8l-1.6-2.7c5.7-1.9,8.1-12,9.3-21.3l1-7.7h-3.1V19.1z"/>
	</g>
</g>
<g>
	<g>
		<path class="st1" d="M522.9,16.4c-0.7,0-2.3,0.1-3.3,0.1c-0.6,0-1.1-0.1-1.9-0.4c-0.3-0.1-0.5,0.1-0.6,0.4l-0.1,2.2
			c0,0.5,0.4,0.9,0.9,1c1.7,0.4,3.8,0.2,6.5-2.7C525,16.5,523.6,16.4,522.9,16.4"/>
	</g>
	<g>
		<path class="st1" d="M630.4,30c0.1-0.1,0.1-0.2,0-0.2c-4.7-4.9-25.5-2.5-33.5-1.5c-10,1.1-18.2,2.2-20.7,2.4
			c-2.7,0.1-8.2,0.5-11.4-1c-3.6-1.8-4.7-3.1-4.9-4.9c-0.8-5.3,3.8-5.4,5.2-5.4c1.4,0,3.5,0,3.4,2c-0.1,1.4-1.3,2-2.5,2.6
			c-0.1,0-0.1,0.2,0,0.2c0.7,0.6,3.3,2.6,6.2,2.4c3.4-0.2,5.7-0.9,7.2-6.5c0-0.1,0.1-0.1,0.2-0.1c1,0.4,7.6,2.9,11.5,3.7
			c3.1,0.7,7.8,0.8,11-1.1c3.2-1.9,7.9-4.7,13.1-4.4c4.6,0.2,9.9,0.3,13,2.1c0.1,0.1,0.2,0,0.2-0.2c-0.6-2.1-4.8-13.7-18.8-10.5l0,0
			c-3.5,1-4,1.8-6.8,2.3c-3.3,0.6-8.3,0.9-15.1-0.7c-0.1,0-0.2-0.2,0-0.3c1.8-1,11.1-5.8,21.4-4c0.1,0,0.2-0.1,0.1-0.2
			c-1-1.3-5.6-7-13.3-6.7C587,0.3,585,2.3,579.5,5.2c-5.1,2.7-7.3,4.5-16,4c-5.4-0.3-11.2,4-12.4,7.4c-5.1,14.8,5.9,20.7,15.6,22.3
			c9,1.4,40.2-5,47.6-1.6c3.4,1.5,5.4,4.7,5.2,7.4c-0.1,1.3-1.5,3.5-5.8,4.4c-4.4,1-13.8,1.4-22-0.6c0,0,0,0,0,0
			c-0.2-0.1-7.6-4.3-13.4-4.6c-4.3-0.3-15.3,2.1-18.7,2.2c-2.4,0-7.1,0.3-9.6,0.5c0.1-11.2-6-20.4-6.3-20.9
			c-0.4-0.6-1.2-0.8-1.8-0.4c0,0-0.8,0.4-2.3,1.1c1.6-3.2,1.2-7.3-0.3-8.9c-0.1-0.1-0.1-0.2,0-0.3c0.4-0.4,1.3-2,1.4-3.5
			c0.1-2.6-0.4-5.9-6.6-9.3c-0.4-0.2-0.9,0-1.1,0.4c-0.5,1.3-1.6,3.6-2.7,3.7c-2.3,0.2-9.3,1.7-11.1,2.7c-1.8,0.9-3.9,2.4-5,4.1
			c-1.1,1.7-2.4,2.5-4.2,2.9c-1.8,0.4-2.5,0-3.1,0.6c-0.5,0.6-0.9,1.1-0.7,2.2c0.1,0.8,1.6,3.9,2.4,5.4c0.6,1.1,1.5,2.3,2.5,2.9
			l-2.4,0c-0.7,0-2.1-0.1-2.1-0.1c-0.3,0-0.6,0.1-0.7,0.4c-0.1,0.3-0.1,0.6,0.1,0.8c0.7,0.8,1.5,1.7,4.3,1.7c0.1,0,0.2,0,0.3,0
			l2.2,0c-0.3,0.4-0.7,0.8-0.9,1.1c-0.2,0.3-1.8,1.9-0.7,4.4c0.9,2,2.2,2.7,2.2,2.7c1.6-1.1,5.1-2.7,6.5-1.6
			c-0.3,0.3-0.5,0.6-0.8,0.9c-2.9,3.2-6.8,7.2-8.9,12.2c-2.7-1-9.2-3.5-12.2-6.5c-0.9-0.9-1.8-3.4-1.2-5.3c0.5-1.6,0.9-3.3-0.3-5.9
			c-1.1-2.4-4.3-4.8-4.3-4.8c0.4-2.9,1-6.8,1.2-7.9c2.7,0.3,5.3-0.4,6.2-1.7c0.9-1.3,1.1-3.9,1.6-4.5c0.4-0.6,1.4-0.4,1.9-0.4
			c1.2-0.1,2.7-0.1,4.2-1.5c1.6-1.5,2.8-3.6,4.2-3.8c2-0.3,3.1-0.9,4.1-1.7c1.2-1,3.7-4.1,8.3-4c1.3,0,2-1.3-0.4-1.8
			c-3.2-0.7-6.8-0.1-8.7,0.7c-2.6,1-3.7,0.1-4.8-0.2c-1.7-0.5-3.4-0.4-5.9,0.6c-2.1,0.8-5.8,1.3-8,0.6c-3.1-1-5.7-1.5-9.7-0.5
			c-3.5,0.8-5.9,2.8-7.1,5.7c-1.1,2.7-0.2,4.8,0,5.3c0.2,0.5,0.7,1.3,0.9,1.5c-0.1,2.3-0.4,9.9-0.4,10.8c-0.5,0.7-0.7,1.6-0.7,2
			c-0.1,0.4-0.1,0.7-0.1,1.1c-0.1,0-0.3,0-0.4,0c-0.8,0.1-1.7,0.4-2.3,1.1l-0.2,0.3l-0.2,0.3c-0.1,0.2-0.3,0.4-0.4,0.6l-0.3,0.6
			c-0.1,0.2-0.1,0.5-0.2,0.8c-0.1,0.5-0.1,1.1,0,1.6c0.1,0.5,0.3,1,0.6,1.4c0.4,0.7,0.9,1.1,1.4,1.5c-0.2,0.2-0.4,0.5-0.6,0.7
			c-0.4,0.6-0.6,1.2-0.7,2.1c-0.1,0.9,0.2,1.7,0.6,2.3c0.4,0.6,0.8,1.1,1.3,1.4c0.4,0.3,1,0.7,1.4,1c-1.1,31.3-1.2,32.5,2,33.5
			c0.1,0,0.3,0,0.4,0c3.8,0,4.8-8.4,7-23c0.3-2.1,0.5-4,0.8-5.6c2.7,5,8.8,15.4,17.7,23.5c0.5,0.4,1.2,0.2,1.4-0.5
			c1-4.1,1.7-5.5,2.1-6.2c0.6,1.3,1.6,3,2.4,4.2c1.2,1.7,2.7,3.4,4.5,5c0,0,0,0,0,0c-2.7,2.6-9.4,8.5-16.2,10.6
			c-0.1,0-0.1,0-0.2-0.1c-0.2-0.6-1.4-3.2-2.9-4.6c-1.7-1.5-3.1-3.2-9.4-1.8c0,0-1.7,0.4-3.6,1.2c-0.8,0.3-0.6,1.5,0.2,1.5
			c0.8,0,1.5,0.1,1.8,0.2c0.1,0,0.1,0.1,0.1,0.1c-0.1,0.4-0.2,1.6,0.5,2.7c0,0.1,0,0.1,0,0.2c-0.7,0.5-5.1,4-4.3,11.2
			c0.1,0.5,0.7,0.6,0.9,0.1c0.3-1,0.7-2.1,0.7-2c0.4,0.6,2,3.3,4.5,3.7c0.1,0,0.1,0.1,0.1,0.1c-0.1,0.8-0.5,4.9,2.6,8.8
			c0.4,0.5,1.1,0.2,1.1-0.5c0-0.6-0.1-1.1,0-1.6c0-0.1,0.1-0.2,0.2-0.1c0.5,0.4,1.7,0.8,3.3-0.2c1.5-0.9,3.3-2.8,4.7-5.2
			c0-0.1,0.2-0.1,0.2,0c1.2,1.5,3,1.6,5.1,1.6c3.5,0,6.4-1.9,6.4-5.3c0-0.1,0-0.2,0-0.2c7.9,0.8,12.7-1.1,18.7-4.9
			c5.6-3.5,8.4-6,8-9.2c-0.2-1.4-0.8-3-1.8-3.9c9.6-0.2,14.6-6.7,16.4-9.6c0.1-0.1,0.3,0,0.2,0.1c-0.6,2.7-0.7,7.8,0.8,10.5
			c2.2,4,7.4,10.1,8.2,12.6c0.8,2.5,0.7,8.9-2.1,12.4c-2.8,3.5-3.5,4.1-5.6,5.3c0,0-0.1,0-0.1,0c-0.5-0.5-4.3-3.7-8-4.3
			c-3.8-0.6-15.7-3.3-16.3,9.7c0,0.6,0.7,0.9,1.1,0.5c0.8-1,1.9-2.2,2.6-2.5c0,0,0.1,0,0.1,0c0.3,0.1,1.7,0.9,2.3,1
			c0.1,0,0.1,0.1,0.1,0.2c-2,2.6-3.9,6.8-0.1,11.4c0.3,0.4,1,0.1,0.9-0.4c-0.1-0.7-0.1-1.6,0-2.4c0-0.1,0.2-0.2,0.2-0.1
			c1.4,2,4.5,2.7,7.5,1.4c0.1,0,0.2,0,0.2,0.1c0.1,0.8,0.9,4.2,6,8c0.5,0.4,1.2-0.2,1-0.8c-0.3-1-0.7-2-0.6-2.6
			c0-0.1,0.1-0.1,0.1-0.1c2,0,4.9-1,6.2-3.8c1.1-2.5,1.6-4.9,1.7-5.3c0,0,0-0.1,0.1-0.1l4.5-2.9c0.1,0,0.2,0,0.2,0.1
			c0.3,0.8,0.7,1.8,1.5,2c0.1,0,0.1,0.1,0.1,0.2c-0.1,0.4-0.5,1.9-1,3.1c-0.2,0.4,0.3,0.8,0.7,0.6c2.9-2.1,8.8-7.6,6.1-13.4
			c9.5-7.5,15.4-16.7,16.3-22.3c0.1-0.8-0.5-1.5-1.2-1.5c-6.1-0.2-9.4-1.8-8.9-7.4c0-0.1,0.1-0.1,0.2-0.1c1.5,0.4,15.2,4.1,24.4,1.4
			c0.6-0.2,1.1,0.1,1.4,0.7c1,1.9,3.1,6.1,3.6,8.6c0.8,3.2,0.2,4.8,0.1,4.9c0,0,0,0,0,0c-0.5,0.7-1.5,1.5-4.1,3.1
			c-6.5,4.2-5.9,9.6,0.1,15.7c0.3,0.3,0.8,0,0.7-0.4c-0.3-1.3-0.8-3-0.8-3.7c0-0.1,0.1-0.1,0.2-0.1c0.9,0.2,1.6-0.1,2.1-0.3
			c0.1,0,0.2,0,0.2,0.1c0.1,0.8,0.8,4,5.4,6.1c0.2,0.1,0.5-0.1,0.4-0.4c-0.4-0.9-1-2.6-1-3.3c0-0.1,0.1-0.2,0.1-0.2
			c1,0,4.7,0,5.5-4.9c0-0.1,0.1-0.1,0.2-0.1c0.9,0.3,5.8,1.9,8.8-2c0.1-0.2,0-0.5-0.2-0.4c-0.8,0.2-2.2,0.5-2.9,0.2
			c-0.1,0-0.1-0.1-0.1-0.2c0.5-0.8,2.8-5.5-2.9-10.5c0,0-0.1-0.1,0-0.2c3.7-11.4,2.9-24-1.2-31.5c-0.3-0.6-1-0.9-1.6-0.7
			c-7.1,2.6-18.7,3.6-20.2-2.7c0-0.1,0.1-0.2,0.2-0.2c1,0.1,5.3,0.9,9.9,0.4c2.8-0.3,7-0.7,11.2-2c4.2-1.3,7.6-2.9,9.2-7.2
			c1.1-3,1.1-9.2-2.3-13.7c0-0.1,0-0.1,0-0.2L630.4,30z M483.5,18.1c2.3,1.5,4.8,2.1,6.9,2.6c0,0-0.8,6.5-0.9,6.5
			c-0.3-0.2-0.7-0.4-1-0.5c-0.9-0.5-1.8-0.9-2.7-1.3c-0.5-0.2-1-0.4-1.6-0.5c-0.3-0.1-0.6-0.1-1-0.1L483.5,18.1z M482.4,10.2
			c0.8-3.5,4.2-4.3,5.5-4.7c2.9-0.8,5.7-0.5,8.1,0.4c2.4,0.9,6.1,0.2,8-0.5c2-0.8,3.5-1.2,4.5-0.8c1.4,0.5,2.5,0.6,3.3,0.6
			c1.5,0,3.7-0.7,3.9-0.7c0,0-2.4,2-4,2c-2.4-0.1-4.1,2.4-4.8,3.7c-0.7,1.3-2,2.1-4.9,2.2c-3.8,0.1-4,3.1-4.4,4.4
			c-0.3,1.3-1.6,2-4.3,1.7c-4.4-0.6-5.9-1.4-7.8-2.3C483,14.8,481.9,12.5,482.4,10.2 M477.7,32.9c0.6-1.8,2.8-1.3,4.1-1
			c0.3,0.1,0.5-0.2,0.4-0.5c-0.4-0.8-0.7-2.1-0.2-2.9c0.9-1.4,3.7,0.1,5,0.7c1.3,0.6,4.2,2.2,3.5,3.9c-0.3,1-1.3,1.4-2,1.4
			c-0.3,0-0.4,0.4-0.2,0.6c0.7,0.8,1.8,2.2,1.3,3.5c-0.5,1.3-2.4,1.1-3.5,1c-0.3,0-0.5,0.4-0.3,0.6c0.7,0.8,1.6,2.1,1.2,3.3
			c-0.5,2-3.6,0.6-5.2-0.1c-1.6-0.7-3.6-2.1-3.3-3.5c0.2-0.9,1.4-1.5,2.2-1.8c0.3-0.1,0.3-0.5,0.1-0.7
			C479.6,36.5,477.2,34.6,477.7,32.9 M481.8,74.6c-0.6,0-0.5-4.3-0.3-11c0.2-7.1,0.7-15.4,0.8-17.2c0.7,0.3,1.4,0.5,2.3,0.7
			c0.5,0.1,1.1,0.2,1.7,0.2c0.2,0,0.1,0,0.3,0c-0.4,1.9-0.7,4.5-1.1,7.5c-0.3,2.2-0.9,5.7-1.4,9C483.3,69.3,482.2,74.6,481.8,74.6
			 M514.7,69.1c-1.1-1.6-1.9-3.1-2.5-4.7c-0.2-0.6-0.4-1.5-0.7-2.3c-0.1-0.3-0.4-0.4-0.6-0.2c-0.9,0.9-1.6,1.8-2.3,3.1
			c0,0.1-0.1,0.1-0.1,0.2c-0.7,1.3-1.2,2.7-1.7,4.3c-1.2-1-2.6-2.4-3.9-3.9c0-0.2,0.1-0.4,0.1-0.6c0.1-0.4,0.1-0.8,0.2-1.2
			c0.2-0.8,0.4-1.6,0.6-2.4l0,0c0.1-0.2,0-0.4-0.1-0.5c-0.2-0.2-0.5-0.2-0.6,0c-0.6,0.6-1.1,1.4-1.6,2.1c-0.1,0.2-0.2,0.4-0.3,0.5
			c-0.7-0.9-1.4-1.9-2.1-2.9c0-0.2,0-0.3,0.1-0.5c0-0.4,0.1-0.7,0.2-1.1c0.1-0.8,0.3-1.5,0.6-2.3l0,0c0-0.2,0-0.3-0.1-0.5
			c-0.2-0.2-0.5-0.2-0.6,0c-0.6,0.6-1.1,1.2-1.6,2c0,0-0.1,0.1-0.1,0.2c-3.9-5.7-7.2-11.6-8.2-13.3c0.1-0.2,0.1-0.3,0.2-0.5
			c0.2-0.8,0.2-1.5-0.1-2.2c0-0.1-0.1-0.1-0.1-0.2c0.2,0,0.4-0.1,0.7-0.1c0.6-0.2,1.1-0.6,1.5-1.1c0.4-0.5,0.6-1.1,0.7-1.6
			c0.1-0.6,0.2-1.3,0-1.9c-0.1-0.6-0.4-1-0.7-1.4c0.6-0.4,1-0.9,1.3-1.5c0.1-0.2,0.2-0.3,0.2-0.5c0.1-0.1,0.1-0.3,0.2-0.5
			c0.5,0.4,0.9,0.8,1.2,1.6c1,2.1-0.2,5.4-0.3,6.7c-0.2,1.3,0.4,3.1,1.3,4.3c0.9,1.2,8.5,5.6,15.7,8.6l1.1,0.5
			c1.6-5.6,6-10.3,9.2-13.7c0.7-0.8,1.4-1.6,2-2.3l0.7-0.9l-1-1c-1.3-1.5-2.9-1.9-3.8-1.9c-1.6,0-4.6,1.2-4.6,1.2
			c-1.5-1.6,0.8-3.6,1.8-4.6c1.3,0,3-0.1,3.7-0.2c0.3,0,0.7,0,1.1-0.1c0.4,0,0.7-0.5,0.5-0.9c-0.4-0.7-0.9-1.7-1.4-2.2
			c-0.7-0.9-2.5-0.1-5.4-0.4c-4.2-0.5-5.8-7.5-5.8-7.5c1.1,0.2,3.2-0.1,4.9-1.3c1.8-1.1,2.6-3.7,4.8-5.2c2.1-1.5,7-1.9,10.6-2.2
			c3.4-0.2,4.2-2.5,5-4.1c0.1-0.2,0.3-0.3,0.5-0.2c4.3,2.8,3.6,6.4,2.5,8c-0.2,0.3-0.6,0.8-0.9,1.2c-0.1,0.1-0.1,0.3,0.1,0.4
			c0.7,0.4,1.1,0.8,1.5,2c0.7,2,0.4,4.2-0.3,5.5c-0.9,1.8-2.6,2.5-4.1,3.1c-0.2,0.1-0.6,0.2-1,0.4c-1,0.5-0.8,2.1,0.3,2.1
			c0,0,0,0,0,0c0.6,0,0.8,0.1,1,0v0c3.7,0.1,6.5-1.2,8.2-2.1c1.1,2.1,3.5,6.8,4.6,12.5c-0.4-0.4-0.9-0.8-1.3-1.1
			c-1-0.7-2.1-1.3-3.2-1.8c-1.1-0.4-2.3-0.8-3.4-0.9c-0.3,0-0.6,0.1-0.8,0.5c-0.2,0.4,0,0.8,0.4,1l0,0c1,0.4,2,0.9,2.9,1.5
			c0.9,0.5,1.8,1.2,2.6,1.8c0.8,0.7,1.5,1.5,2.1,2.3c0.3,0.4,0.6,0.9,0.9,1.3l0.4,0.7c0,0,0,0,0,0.1c0,2.9-0.4,6-1.6,9.1
			c-0.1,0.2-0.1,0.3-0.2,0.5c-0.1-0.3-0.2-0.6-0.3-0.9c-0.5-1.4-1.2-2.8-2.1-4c-0.9-1.2-2-2.3-3.3-3.1c-1.3-0.8-2.6-1.3-4-1.6
			c-0.3-0.1-0.7,0.1-0.8,0.5c-0.2,0.4,0,0.8,0.4,1l0,0c1.2,0.5,2.3,1.2,3.3,2c1,0.8,1.8,1.7,2.5,2.8c0.7,1.1,1.2,2.3,1.6,3.5
			c0.2,0.6,0.4,1.3,0.6,1.9c0.1,0.3,0.2,0.6,0.2,1c0,0.1,0.1,0.3,0.2,0.4c-1.3,1.9-2.9,4-4.9,6c0-0.3-0.1-0.5-0.1-0.8
			c-0.1-0.4-0.1-0.8-0.2-1.2c-0.4-1.6-0.9-3.2-1.7-4.7c-0.8-1.5-1.8-2.8-3.1-3.9c-1.2-1.1-2.6-1.9-4.1-2.4c-0.3-0.1-0.7,0-0.9,0.3
			c-0.2,0.4-0.1,0.8,0.3,1l0,0c1.2,0.8,2.4,1.6,3.3,2.7c0.9,1,1.7,2.2,2.3,3.5c0.6,1.3,1,2.7,1.3,4.1c0.1,0.4,0.1,0.7,0.2,1.1
			c0.1,0.4,0.1,0.7,0.1,1.1c0,0.4,0.1,0.7,0.1,1.1c0,0.1,0.1,0.3,0.1,0.4c-1.6,1.4-3.3,2.8-5.1,4.1c-0.1,0-0.2-0.1-0.3-0.2
			c-0.3-0.2-0.6-0.4-0.9-0.6c-0.3-0.2-0.6-0.4-0.9-0.6c-0.3-0.2-0.6-0.4-0.8-0.7c-1.1-0.9-2.1-1.9-2.9-3c-0.8-1.1-1.5-2.3-1.9-3.7
			c-0.4-1.3-0.6-2.8-0.6-4.3v0c0-0.4-0.2-0.7-0.6-0.7c-0.4-0.1-0.8,0.2-0.9,0.6c-0.3,1.6-0.3,3.3-0.1,5c0.3,1.7,0.9,3.3,1.8,4.8
			c0.9,1.5,1.9,2.7,3.1,3.9c0.3,0.3,0.6,0.6,0.9,0.8c0.3,0.2,0.5,0.5,0.8,0.7c-2.1,1.2-4.2,2.2-6.4,2.8l-0.3-0.3
			c-0.8-0.7-1.6-1.3-2.3-2C517.4,72.4,515.9,70.7,514.7,69.1 M585.8,88.1c-1,2.7-2.4,5.2-3.9,7.5c0,0,0,0,0,0
			c-0.4-0.7-0.9-1.3-1.4-1.8c-0.5-0.5-1.1-1-1.6-1.4c-0.6-0.4-1.1-0.8-1.8-1.1c-0.3-0.1-0.6-0.1-0.8,0.2c-0.2,0.3-0.2,0.8,0.1,1l0,0
			c0.4,0.4,0.9,0.8,1.3,1.3c0.4,0.5,0.8,1,1.1,1.5c0.3,0.5,0.6,1,0.7,1.6c0.2,0.5,0.3,1.1,0.3,1.6c-0.9,1.1-1.9,2.2-2.8,3.3
			c-0.1-0.1-0.1-0.3-0.2-0.4c-0.4-0.7-0.8-1.3-1.3-1.9c-0.5-0.6-1-1-1.6-1.5c-0.6-0.4-1.1-0.8-1.8-1.2c-0.3-0.1-0.6-0.1-0.8,0.2
			c-0.3,0.3-0.2,0.8,0.1,1l0,0c0.4,0.4,0.9,0.9,1.2,1.4c0.4,0.5,0.7,1,1,1.5c0.3,0.5,0.5,1.1,0.6,1.6c0.1,0.5,0.2,1.1,0.2,1.6v0
			c0,0.1,0,0.1,0,0.2c-1.5,1.5-3.1,2.8-4.4,3.9c0,0-0.1,0.1,0,0.2c1.9,5.3-1.3,10.2-3,5.4c-0.4-1.1-0.7-0.9-1.5-0.3
			c-0.7,0.5-6.7,4.7-7.4,5.2c0,0-0.1,0.1-0.1,0.1c0.7,4-3.2,7.5-5.8,7.3c-2.2-0.2-3.3-2.8-2.7-6.3c0.1-0.5-0.4-0.8-0.8-0.5
			c-2.3,1.9-6.5,4.4-9.2,0.5c-1.3-1.8,1.2-4.9,2.5-6.3c0.3-0.3,0.1-0.9-0.3-1c-2.1-0.3-6.2-1.2-4.5-3.3c1.5-1.9,4.5-1.6,6.6-1.5
			c2.4,0.2,7.5,0.9,11.7,5.6c0,0,0.1,0.1,0.2,0c0.7-0.4,4.6-2.8,6.3-4.8c1.9-2.2,4.8-3.9,5-14.3c0.1-4.9-4.3-8.9-6.9-12.8
			c-2.6-3.8-4.1-7.1-2.2-13.4c0-0.1,0.1-0.1,0.1-0.1c0.3,0,1.7-0.1,5.8-0.1c0,0,0.1,0,0.1,0c0.5,0.6,5.3,6.1,11.9,8.8
			c0.1,0,0.1,0.1,0.1,0.1C575.7,77.9,575,88.1,585.8,88.1 M597.6,63.3c4.2,2.7,12,2.3,19.5,0.1c0.1,0,0.1,0,0.2,0.1
			c1,2.4,1.8,4.8,2.3,7.4c-0.7-0.4-1.5-0.8-2.2-1.1c-0.8-0.3-1.6-0.6-2.4-0.7c-0.8-0.2-1.6-0.3-2.5-0.3c-0.2,0-0.4,0.1-0.4,0.3
			c-0.1,0.2,0.1,0.5,0.3,0.6l0,0c0.7,0.2,1.5,0.5,2.2,0.8c0.7,0.3,1.4,0.7,2,1.1c0.6,0.4,1.3,0.9,1.8,1.4c0.6,0.5,1.1,1.1,1.7,1.5
			l0,0c0.1,1.5,0.2,3,0.1,4.5c-0.2-0.1-0.4-0.2-0.6-0.4c-0.7-0.4-1.5-0.8-2.3-1.1c-0.8-0.3-1.6-0.6-2.4-0.8
			c-0.8-0.2-1.6-0.3-2.5-0.3c-0.2,0-0.4,0.1-0.4,0.3c-0.1,0.2,0.1,0.5,0.3,0.6l0,0c0.7,0.2,1.5,0.5,2.2,0.8c0.7,0.3,1.4,0.7,2,1.1
			c0.6,0.4,1.3,0.9,1.8,1.4c0.6,0.5,1.1,1,1.6,1.4c-0.4,3.3-1.2,6.7-2.3,10.2c0,0,0,0,0,0c-0.1,0.3-0.2,0.6-0.4,0.9
			c4.7,2.5,5.8,9,2.2,9.7c-1.1,0.2-2.2-0.1-2.9-0.6c-0.3-0.2-0.6-0.1-0.7,0.3c-0.4,1.9-1.7,5.5-4.3,5.5c-2.1,0-2.8-1.7-2.8-3.3
			c0-0.5-0.6-0.7-0.9-0.3c-1.3,1.6-2.6,2.2-3.7,1.5c-1.4-1-1.7-2.5-1.1-3.6c1.6-3.3,6.2-4.5,8.1-7c0,0,0,0,0,0
			c2.3-4.1-1.5-12.4-4.3-18.3c-0.3-0.6-1-0.9-1.6-0.7c-2.6,0.8-9.5,2.3-17.9,0.7c-11.3-2.2-17.5-6.4-21.2-11.2c0,0,0-0.1-0.1-0.1
			c-0.2-0.3-0.5-0.6-0.7-1c0,0,0,0,0,0c-1-1.4-1.6-2.5-2.2-3.4c-0.1-0.2-0.3-0.3-0.4-0.3c-1.1-0.2-0.5,2.9-0.3,3.7
			c0,0.1,0,0.1-0.1,0.2c-2.3,0.5-4.9,0.1-7.9,0.2c0,0-0.1,0-0.1,0.1c-4.3,5.4-5.7,9.2-17.9,11.4c-1.7,0.3-1.6,1.4-0.8,2
			c0.7,0.5,1.7,2.1,2,4.2c0.1,0.9-0.6,2.1-4.4,4.7c-0.1-0.2-0.2-0.4-0.3-0.7c-0.4-0.7-0.8-1.4-1.3-1.9c-0.5-0.6-1-1.1-1.6-1.5
			c-0.6-0.4-1.2-0.8-1.9-1.1c-0.3-0.1-0.6,0-0.8,0.2c-0.2,0.3-0.2,0.8,0.1,1l0.1,0c0.4,0.3,0.9,0.8,1.3,1.2c0.4,0.5,0.7,1,1,1.5
			c0.3,0.5,0.5,1,0.6,1.6c0.1,0.4,0.1,0.9,0.1,1.3c-1.6,1-3.1,1.9-4.5,2.5c-0.1-0.4-0.2-0.7-0.3-1.1c-0.3-0.7-0.7-1.4-1.1-2.1
			c-0.4-0.6-1-1.2-1.5-1.6c-0.6-0.5-1.1-0.9-1.8-1.2c-0.3-0.1-0.6-0.1-0.8,0.2c-0.2,0.3-0.2,0.8,0.1,1l0.1,0.1
			c0.4,0.4,0.8,0.9,1.2,1.3c0.3,0.5,0.6,1,0.9,1.6c0.2,0.5,0.4,1.1,0.5,1.6c0.1,0.5,0.1,1,0,1.4c-5.6,2-9.1,1.1-10.9,0c0,0,0,0,0,0
			c-0.6-0.5-1-0.7-1.3-0.9c-0.5-0.3-1-0.1-1.3,0.3c-0.3,0.4-0.3,1,0,1.3c0.2,0.3,0.5,0.8,0.8,1.2c0.3,0.5,0.5,1.1,0.5,1.7
			c0,1.9-1.7,2.5-3.8,2.5s-3.7-0.6-3.7-2.5v-1c0-0.5-0.4-1-0.9-0.9c-0.4,0.1-0.8,0.4-1,0.7l-0.6,1.1c0,0,0,0,0,0
			c-0.1,0.2-3.4,7.7-6.8,6c-2.3-1.1-1.2-3.8,0-5.8c0.3-0.6-0.2-1.2-0.8-1c-1.1,0.4-2.3,0.6-3.3,0c-2.1-1.2-2.8-3.5-2.1-5
			c0.7-1.3,1.6-2.8,3.1-4c0.3-0.3,0.3-0.8,0-1.1c-0.8-0.8-1.1-1.4-0.7-2.3c0.5-1.1,1.6-1.5,3.7-1.2c2.4,0.4,3.7,3.1,4.5,6.1
			c0.3,1.1,1.3,1.7,2.3,1.5l0,0c8.2-2,14.3-7.9,19.1-11.9c0.2,0.1,0.3,0.2,0.4,0.4l1.3,1.1l0.6-0.2c12.2-3.4,23.5-15.6,26.3-22.8
			c0.9-2.4,1.5-4.8,1.7-7.2c17-0.5,16.7-1,24.3-2.3c5.9-1.1,13.8,2.4,17.6,6.3C594.7,55.9,594.6,61.3,597.6,63.3 M626.2,44.3
			c-0.3,4.4-2.4,7.3-7.1,8.7c-4.7,1.3-13.3,3.4-22.3,1.9c-0.6-0.1-1.4-2.1-1.6-2.8c0-0.1,0-0.2,0.1-0.2c8.2,1.4,20.3,0.1,24-2.3
			c4.9-3.1,3.3-11.8-3.2-14.3c-9.6-3.7-30,1.2-43.9,1.4c-5.1,0.1-10.6,0-16.6-5.3c-3.9-3.8-4.2-10.1-1.5-14.5c0,0,0,0,0,0
			c2.6-3.9,7.4-5.4,11.8-5c11.4,0.9,14.7-6.6,24.4-8.7c9.4-2,13.7,0.8,14.9,1.8c0.1,0.1,0,0.3-0.1,0.3c-1.7-0.3-7.5-1-14.9,2.1
			c-2.7,1.1-5.2,3.1-7.3,4.7c-0.1,0.1-0.1,0.2,0.1,0.3c4.9,1.2,5.5,2.3,10.9,2.7c12.8,1,15.9-4.5,22.5-3.1c5,1,7.4,4.1,8,5
			c0.1,0.1,0,0.2-0.1,0.2c-19.8-4.7-17.8,3.9-28.4,4.7c-6.4,0.5-15.7-5-18.4-4.6c-0.1,0-0.1,0.1-0.1,0.1c-0.1,1-1,8.6-7.1,6.9
			c-0.1,0-0.1-0.2-0.1-0.3c2.3-2.2,1.4-5.6-1.9-6.6c-2.1-0.6-4.8-0.5-7.1,0.4c-3.7,1.5-5.1,6.6-2.9,9.9c3.3,4.9,8.5,6,15.8,5.5
			c7.6-0.5,12.6-1.1,23.3-2.5c3.1-0.4,9.2-1.1,15-1.3c-0.4,0.6-0.7,1.2-1,1.9c-0.1,0.1-0.1,0.3,0,0.5c0.1,0.2,0.4,0.3,0.6,0.2l0,0
			c0.6-0.4,1.2-0.8,1.8-1.2l0.9-0.6c0.3-0.2,0.6-0.4,0.8-0.7l0-0.1c1.2,0,2.3,0,3.4,0.1l-0.1,0.2c-0.5,0.7-0.9,1.5-1.3,2.3
			c-0.1,0.2-0.1,0.4,0,0.5c0.2,0.2,0.4,0.2,0.6,0.1l0,0c0.6-0.5,1.3-1,1.9-1.4l1-0.7c0.3-0.2,0.6-0.4,0.9-0.7
			c1.9,0.2,3.4,0.6,4.1,1.3l-4.2,3.5C621.3,34.5,626.6,38.2,626.2,44.3"/>
	</g>
</g>
</svg>
